<?xml version="1.0" encoding="UTF-8"?><svg id="Layer_2" xmlns="http://www.w3.org/2000/svg" viewBox="0 0 29.68 29.68"><defs><style>.cls-1{fill:#df3629;}</style></defs><g id="Layer_1-2"><path class="cls-1" d="M14.84,29.68C6.66,29.68,0,23.02,0,14.84S6.66,0,14.84,0s14.84,6.66,14.84,14.84-6.66,14.84-14.84,14.84Zm0-27.68C7.76,2,2,7.76,2,14.84s5.76,12.84,12.84,12.84,12.84-5.76,12.84-12.84S21.92,2,14.84,2Zm0,2.31c-5.82,0-10.53,4.71-10.53,10.53s4.71,10.53,10.53,10.53,10.53-4.71,10.53-10.53S20.65,4.31,14.84,4.31Z"/></g></svg>