<?xml version="1.0" encoding="UTF-8"?><svg id="Layer_2" xmlns="http://www.w3.org/2000/svg" viewBox="0 0 17.55 28.11"><defs><style>.cls-1{fill:#df3629;}</style></defs><g id="Layer_1-2"><path class="cls-1" d="M8.78,0c3.02,0,5.46,2.4,5.52,5.43V14.56c0,3.05-2.47,5.52-5.52,5.52-3.05,0-5.52-2.47-5.52-5.52V5.43C3.32,2.4,5.75,0,8.78,0h0Zm7.8,9.94c-.55,0-.98,.42-.98,.98v3.67c0,3.77-3.05,6.82-6.82,6.82-3.77,0-6.82-3.05-6.82-6.82v-3.67c0-.55-.42-.98-.98-.98S0,10.37,0,10.92v3.67c-.03,4.48,3.35,8.29,7.8,8.81v2.76h-3.22c-.55,0-.98,.42-.98,.98,0,.55,.42,.98,.98,.98H12.97c.55,0,.98-.42,.98-.98s-.42-.98-.98-.98h-3.22v-2.76c4.45-.52,7.83-4.32,7.8-8.81v-3.67c0-.55-.42-.98-.98-.98h0Z"/></g></svg>