<?xml version="1.0" encoding="UTF-8"?><svg id="Layer_2" xmlns="http://www.w3.org/2000/svg" viewBox="0 0 26.51 30.39"><defs><style>.cls-1{fill:#df3629;fill-rule:evenodd;}</style></defs><g id="Layer_1-2"><path class="cls-1" d="M26.51,17.3v.02s0,.03-.01,.04c-.12,7.22-6,13.03-13.25,13.03C5.43,30.39-.81,23.61,.08,15.62,.83,8.85,6.8,3.87,13.6,3.87h4.1V.39c0-.35,.42-.52,.66-.28l5.79,5.78c.05,.05,.08,.12,.08,.19,0,.12-.11,.21-.14,.25h0l-5.73,5.74c-.25,.24-.67,.07-.67-.27l-.02-3.51h-4.42c-4.96,0-8.97,4.1-8.83,9.09,.13,4.61,3.97,8.46,8.58,8.58,4.93,.14,8.98-3.77,9.09-8.64,0-.11,.08-.19,.19-.19h4.04c.09,0,.18,.07,.19,.17Z"/></g></svg>