<?xml version="1.0" encoding="UTF-8"?><svg id="Layer_2" xmlns="http://www.w3.org/2000/svg" viewBox="0 0 29.79 28.3"><defs><style>.cls-1{fill:#df3629;fill-rule:evenodd;}</style></defs><g id="Layer_1-2"><path class="cls-1" d="M25.03,14.32c0,1.71-.46,3.36-1.29,4.81-.62,1.08-1.45,2.04-2.45,2.81-.32,.25-.79,.13-1-.22l-.49-.85c-.17-.29-.11-.67,.15-.87,.72-.57,1.31-1.26,1.76-2.04,.62-1.08,.97-2.34,.97-3.64s-.35-2.56-.97-3.64c-.48-.82-1.1-1.54-1.86-2.13-.27-.21-.33-.59-.16-.88l.48-.84c.21-.37,.69-.46,1.03-.2,1.05,.79,1.91,1.77,2.55,2.88,.83,1.45,1.29,3.1,1.29,4.82Zm2.83-7.2c-1.08-1.86-2.56-3.48-4.39-4.71-.31-.21-.74-.1-.93,.23l-.52,.91c-.17,.3-.07,.67,.21,.87,1.48,1.02,2.7,2.36,3.58,3.89,1.04,1.8,1.61,3.86,1.61,6.02s-.57,4.22-1.61,6.02c-.85,1.47-2.01,2.77-3.43,3.77-.28,.2-.37,.57-.2,.86l.53,.91c.19,.33,.62,.43,.93,.22,1.74-1.22,3.17-2.79,4.21-4.59,1.24-2.16,1.93-4.63,1.93-7.2s-.69-5.05-1.93-7.2Zm-11.8,3.22V1.1c-.03-.62-.55-1.1-1.18-1.1-.32,0-.62,.13-.83,.34,0,0,0,0,0,0L5.56,8.21l-1.29-.04-2.67,.06c-.88,.02-1.6,.75-1.6,1.63v8.5c0,.99,.79,1.8,1.78,1.82l3.04,.08,.74-.03,8.23,7.66s.07,.08,.1,.1c.38,.34,.94,.41,1.39,.14,.03,0,.04-.02,.07-.03,.02-.02,.04-.03,.06-.05,.29-.22,.45-.56,.46-.9v-.05l.13-8.74c1.53-.31,2.82-2,3.03-4.03,.2-2.03-1.27-3.56-2.96-3.98Z"/></g></svg>