<?xml version="1.0" encoding="UTF-8"?><svg id="Layer_2" xmlns="http://www.w3.org/2000/svg" viewBox="0 0 53.35 53.35"><defs><style>.cls-1{fill:#01c851;}.cls-2{fill:#fff;}</style></defs><g id="Layer_1-2"><g><rect class="cls-2" x="0" width="53.35" height="53.35" rx="12" ry="12"/><path class="cls-1" d="M38.98,39.36s.01,.08,.01,.12c0,.73-.59,1.33-1.33,1.33H15.69c-.73,0-1.33-.6-1.33-1.33,0-.04,0-.08,.01-.12-.01-.03-.01-.07-.01-.09,0-5.19,3.18-9.67,7.75-11.49-2.28-1.46-3.74-4.02-3.74-6.94,0-4.57,3.74-8.31,8.31-8.31s8.29,3.74,8.29,8.31c0,2.92-1.45,5.47-3.74,6.94,4.57,1.82,7.86,6.2,7.76,11.49,0,.03,0,.07-.01,.09Z"/></g></g></svg>