<?xml version="1.0" encoding="UTF-8" standalone="no"?>
<svg
   id="Layer_2"
   viewBox="0 0 253.79 446.69"
   version="1.1"
   sodipodi:docname="hangman.svg"
   inkscape:version="1.2.1 (9c6d41e410, 2022-07-14)"
   xmlns:inkscape="http://www.inkscape.org/namespaces/inkscape"
   xmlns:sodipodi="http://sodipodi.sourceforge.net/DTD/sodipodi-0.dtd"
   xmlns="http://www.w3.org/2000/svg"
   xmlns:svg="http://www.w3.org/2000/svg">
  <sodipodi:namedview
     id="namedview331"
     pagecolor="#ffffff"
     bordercolor="#000000"
     borderopacity="0.25"
     inkscape:showpageshadow="2"
     inkscape:pageopacity="0.0"
     inkscape:pagecheckerboard="0"
     inkscape:deskcolor="#d1d1d1"
     showgrid="false"
     inkscape:zoom="1.1238219"
     inkscape:cx="127.24436"
     inkscape:cy="223.345"
     inkscape:window-width="1366"
     inkscape:window-height="705"
     inkscape:window-x="-8"
     inkscape:window-y="-8"
     inkscape:window-maximized="1"
     inkscape:current-layer="g325" />
  <defs
     id="defs173">
    <style
       id="style171">.cls-1{fill:#c4735b;}.cls-2{fill:#6c1e19;}.cls-3{fill:#822020;opacity:.23;}.cls-4{fill:#e0956c;}.cls-5{fill:#ffc19f;}.cls-6{fill:#c7d1d1;}.cls-7{fill:#e0e0e0;}.cls-8{fill:#0780aa;}.cls-9{fill:#991d05;opacity:.14;}.cls-10{fill:#8892a0;}.cls-11{fill:#4c0b00;}.cls-12{opacity:.11;}.cls-13{fill:#35a2d8;}.cls-14{fill:#934341;}.cls-15{opacity:.3;}.cls-16{fill:#253f66;}.cls-17{fill:#fff;opacity:.25;}.cls-18{fill-rule:evenodd;}.cls-18,.cls-19{fill:#84220f;}.cls-20{fill:none;}.cls-21{fill:#bcc9c9;}.cls-22{fill:#1c3651;}.cls-23{fill:#a1afaf;}.cls-24{fill:#305e8c;}.cls-25{fill:#dfe5e5;}</style>
  </defs>
  <g
     id="Layer_1-2">
    <g
       id="g327">
      <rect
         class="cls-20"
         y="0"
         width="253.79"
         height="446.69"
         rx="12"
         ry="12"
         id="rect175" />
      <g
         id="g325">
        <g
           id="g181"
           class="part-7">
          <path
             class="cls-5 part-7"
             d="M122.39,99.87c-4.39,.91-10.82,1.6-20.17,2-6.77,.29-9.16-5.31-8.48-8.57,.62-2.97,6.42-10.79,9.35-12.58,1.93-1.18,5.95-3.43,6.43-3.24,2.33,.93,.53,3.84-2.6,5.93-.86,.69-1.53,1.45-1.95,3.08,.34,.72,7.9-3.43,10.78-4.81,2.3-1.1,9.73-1.48,10.18-.85,1.11,1.55-5.28,3.24-7.53,4.11-.78,.3-4.16,1.72-5.31,2.81,1.93-.15,6.7-1.24,7.99-1.44,2.49-.38,7.85-1.87,8.79-.57,.74,1.02-2.48,2.67-6.66,4.05-1.01,.33-6.11,1.78-8.52,2.72,.02,.1,7.35-.78,8.16-1.07,2.39-.85,5.54-2.28,7.26-.63,.47,.45-4.36,3.62-6.9,4.3-1.13,.3-4.97,1.17-8.01,1.79,1.81,.03,6.53-.41,7.23-.49,3.72-1.56,5.76-1.48,7.08-.27,.41,.38-5.06,3.27-7.15,3.7Z"
             id="path177" />
          <path
             class="cls-9 part-7"
             d="M103.55,90.63c-.71,2.25-2.86,3.08-2.28,3.82,.81,1.02,3.31-.36,3.88-2.29,1.13-3.88-1.93-6.96-1.41-5.91,.56,1.11,.08,3.54-.19,4.39Z"
             id="path179" />
        </g>
        <path
           class="cls-5 part-7"
           d="M67.02,140.35c5.4,5.16,30.19,20.24,34.51,22.54,1.94,1.03,10.37,4.27,13.64,3.39-1.83-2.78-11.76-20.87-17.04-28.14-3.01-4.15-17.67-9.92-23.1-13.31-1.67,1.52-7.41,13.9-8.01,15.52Z"
           id="path183" />
        <path
           class="cls-13 part-7"
           d="M85.36,129.22c7.12,2.88,20.1,7.05,26.61,8.63,1.51,1.65-5.16,25.24-8.83,29.85-4.13-1.92-21.2-12.52-28.87-17.72,1.29-5.1,8.26-17.39,11.09-20.75Z"
           id="path185" />
        <g
           id="g223">
          <g
             id="g191"
             class="part-2">
            <path
               class="cls-25"
               d="M215.46,181.68c-1.18,0-2.35,.95-2.32,2.14,.04,1.63,1.1,2.14,2.29,2.15,1.18,.01,2.34-.85,2.28-2.04-.07-1.48-1.06-2.24-2.24-2.25Z"
               id="path187" />
            <path
               class="cls-25"
               d="M221.13,161.53c-2.56-1.93-6.21-1.72-8.35-.63-2.96,1.51-4.39,3.79-4.33,6,.02,.87,.83,1.53,1.76,1.48,.8-.04,1.27-.64,1.54-1.32,.23-.59,.62-1.57,1.2-2.14,1.08-1.06,2.65-1.52,4.32-1.09,1.75,.44,2.46,1.95,2.51,2.85,.07,1.31-.31,2.42-2.04,3.81-1.5,1.21-3.51,3.01-4.07,5.15-.36,1.39-.35,2.15-.29,2.85,.08,.9,1.2,1.39,2.13,1.35,.93-.05,1.62-.68,1.73-1.57,.05-.43,0-1.39,.4-2.31,.48-1.14,1.34-2.05,2.72-3.07,3.13-2.31,3.46-4.44,3.38-6.4-.04-.95-.63-3.46-2.61-4.95Z"
               id="path189" />
          </g>
          <g
             id="g197"
             class="part-1">
            <path
               class="cls-23"
               d="M54.56,97.85c-2.8-.02-5.56,2.25-5.5,5.06,.09,3.85,2.61,5.07,5.41,5.1,2.8,.02,5.53-2.01,5.39-4.83-.17-3.5-2.5-5.3-5.31-5.32Z"
               id="path193" />
            <path
               class="cls-23"
               d="M67.99,50.13c-6.07-4.57-14.71-4.06-19.77-1.48-7.01,3.57-10.39,8.98-10.26,14.22,.05,2.06,1.97,3.62,4.16,3.51,1.89-.1,3.02-1.53,3.64-3.12,.54-1.39,1.47-3.71,2.85-5.06,2.57-2.51,6.29-3.59,10.24-2.59,4.13,1.04,5.83,4.62,5.94,6.75,.16,3.11-.73,5.72-4.83,9.02-3.56,2.86-8.31,7.12-9.64,12.2-.86,3.3-.84,5.1-.69,6.75,.2,2.12,2.85,3.3,5.05,3.19,2.2-.12,3.85-1.6,4.1-3.73,.12-1.01,0-3.28,.94-5.48,1.15-2.69,3.18-4.86,6.45-7.27,7.42-5.48,8.19-10.51,8-15.16-.09-2.26-1.49-8.2-6.18-11.73Z"
               id="path195" />
          </g>
          <g
             id="g203"
             class="part-1"
             transform="translate(-1.7603315,-0.29698717)">
            <path
               class="cls-21"
               d="m 204.73,118.35 c -2.1,-0.02 -4.16,1.68 -4.11,3.78 0.06,2.88 1.95,3.79 4.05,3.81 2.1,0.02 4.14,-1.5 4.03,-3.61 -0.13,-2.62 -1.87,-3.96 -3.97,-3.98 z"
               id="path199" />
            <path
               class="cls-21"
               d="m 214.77,82.68 c -4.54,-3.42 -10.99,-3.04 -14.78,-1.11 -5.24,2.67 -7.76,6.71 -7.67,10.63 0.04,1.54 1.47,2.71 3.11,2.62 1.41,-0.07 2.25,-1.14 2.72,-2.33 0.41,-1.04 1.1,-2.77 2.13,-3.78 1.92,-1.88 4.7,-2.68 7.65,-1.94 3.09,0.78 4.36,3.45 4.44,5.04 0.12,2.32 -0.55,4.28 -3.61,6.74 -2.66,2.14 -6.21,5.32 -7.21,9.12 -0.65,2.47 -0.63,3.81 -0.51,5.04 0.15,1.59 2.13,2.47 3.77,2.38 1.64,-0.09 2.87,-1.19 3.06,-2.79 0.09,-0.75 0,-2.45 0.7,-4.09 0.86,-2.01 2.38,-3.63 4.82,-5.44 5.54,-4.1 6.12,-7.86 5.98,-11.33 -0.07,-1.69 -1.11,-6.13 -4.62,-8.77 z"
               id="path201" />
          </g>
          <g
             id="g209"
             class="part-2">
            <path
               class="cls-6"
               d="M64.69,203.97c-1.42-.01-2.81,1.14-2.78,2.56,.04,1.95,1.32,2.57,2.74,2.58,1.42,.01,2.8-1.02,2.73-2.45-.09-1.77-1.27-2.68-2.69-2.69Z"
               id="path205" />
            <path
               class="cls-6"
               d="M71.49,179.83c-3.07-2.31-7.44-2.06-10-.75-3.55,1.8-5.25,4.54-5.19,7.19,.02,1.04,1,1.83,2.11,1.77,.96-.05,1.53-.77,1.84-1.58,.28-.7,.75-1.88,1.44-2.56,1.3-1.27,3.18-1.82,5.18-1.31,2.09,.53,2.95,2.34,3.01,3.41,.08,1.57-.37,2.9-2.45,4.56-1.8,1.45-4.21,3.6-4.88,6.17-.44,1.67-.42,2.58-.35,3.42,.1,1.07,1.44,1.67,2.56,1.61,1.11-.06,1.95-.81,2.07-1.89,.06-.51,0-1.66,.48-2.77,.58-1.36,1.61-2.46,3.26-3.68,3.75-2.77,4.15-5.32,4.05-7.67-.05-1.14-.75-4.15-3.13-5.93Z"
               id="path207" />
          </g>
          <g
             id="g215"
             class="part-2">
            <path
               class="cls-25"
               d="M37.03,175.27c-1.18-.01-2.34,.95-2.31,2.13,.04,1.62,1.1,2.13,2.28,2.14,1.18,.01,2.33-.85,2.27-2.03-.07-1.47-1.05-2.23-2.23-2.24Z"
               id="path211" />
            <path
               class="cls-25"
               d="M42.68,155.19c-2.56-1.92-6.19-1.71-8.32-.62-2.95,1.5-4.37,3.78-4.32,5.98,.02,.86,.83,1.52,1.75,1.48,.79-.04,1.27-.64,1.53-1.31,.23-.59,.62-1.56,1.2-2.13,1.08-1.06,2.65-1.51,4.31-1.09,1.74,.44,2.45,1.95,2.5,2.84,.07,1.31-.31,2.41-2.03,3.8-1.5,1.21-3.5,3-4.06,5.13-.36,1.39-.35,2.14-.29,2.84,.08,.89,1.2,1.39,2.13,1.34,.93-.05,1.62-.67,1.72-1.57,.05-.42,0-1.38,.4-2.3,.48-1.13,1.34-2.05,2.72-3.06,3.12-2.31,3.45-4.42,3.37-6.38-.04-.95-.63-3.45-2.6-4.94Z"
               id="path213" />
          </g>
          <g
             id="g221"
             class="part-2">
            <path
               class="cls-6"
               d="M164.28,55.39c-1.39-.17-2.89,.81-3.02,2.2-.17,1.92,1.01,2.67,2.4,2.83,1.39,.17,2.86-.69,2.95-2.1,.11-1.75-.95-2.77-2.34-2.94Z"
               id="path217" />
            <path
               class="cls-6"
               d="M173.62,32.43c-2.76-2.61-7.08-2.84-9.74-1.85-3.68,1.38-5.66,3.88-5.9,6.49-.09,1.02,.78,1.91,1.87,1.98,.94,.06,1.58-.59,1.98-1.35,.35-.66,.94-1.76,1.7-2.35,1.42-1.1,3.32-1.43,5.23-.71,2,.75,2.64,2.62,2.57,3.68-.09,1.55-.69,2.8-2.91,4.21-1.93,1.22-4.53,3.07-5.47,5.52-.61,1.59-.7,2.48-.72,3.31-.02,1.07,1.23,1.8,2.33,1.87,1.1,.07,2-.58,2.25-1.62,.12-.49,.19-1.63,.78-2.67,.72-1.27,1.85-2.24,3.61-3.25,3.99-2.31,4.66-4.76,4.83-7.08,.08-1.13-.28-4.16-2.41-6.17Z"
               id="path219" />
          </g>
        </g>
        <g
           id="g255">
          <path
             class="cls-12 part-10"
             d="M76.62,409.81c0,3.78,26.89,6.84,60.06,6.84s60.06-3.06,60.06-6.84-26.89-6.84-60.06-6.84-60.06,3.06-60.06,6.84Z"
             id="path225" />
          <g
             id="g235"
             class="part-9">
            <polygon
               class="cls-10"
               points="153 394.54 169.7 393.86 169.12 379.41 151.92 380.13 153 394.54"
               id="polygon227" />
            <path
               class="cls-24"
               d="M190.28,402.16c1.44,.71,2.74,2.92,2.71,4.27-.09,3.26-14.64,3.32-21.43,1.86-2.85-.61-7.91-2.82-10.98-3.4-4.17-.8-7.86-1.9-9.3-3.57-.04-.49,.25-5.19,.54-9.66,.05-.72,.16-1.08,.95-.89,.73,1.19,3.16,1.93,5.02,1.24,1.29-.48,2.33-1.45,3.45-2.98,.59-.81,8.63-2.25,9.85-.93,2.95,5.05,9.59,9.3,19.2,14.06Z"
               id="path229" />
            <path
               class="cls-22"
               d="M193.27,410.38c.17-.34,.19-1.84,.24-3.17,.01-.4-.4-.99-.55-1.24,.64,3.3-13.47,3.44-21.27,1.75-2.85-.62-6.42-2.62-9.49-3.22-4.01-.79-9.51-1.79-10.94-3.47-.3-.01-.24,.37-.25,.73-.04,1.45-.01,2.75,.21,2.86,3.93,1.94,8.89,2.75,11.8,3.76,2.87,.99,5.52,2.18,8.42,2.95,5.34,1.43,20.74,1.28,21.82-.94Z"
               id="path231" />
            <path
               class="cls-7"
               d="M184.28,398.04c-1.7-1.41-7.47-1.85-11.8,1.68-.17,.14-.2,.4-.06,.57,.08,.09,.19,.14,.3,.15,.09,0,.19-.03,.27-.09,3.95-3.22,9.29-2.91,10.77-1.68,.17,.14,.42,.12,.57-.05,.15-.17,.12-.42-.05-.57Zm-3.83-1.38c.17,.14,.43,.12,.57-.05,.14-.17,.12-.42-.05-.57-2.14-1.81-6.88-1.6-11.48,2.31-.17,.15-.19,.4-.04,.57,.08,.09,.18,.14,.29,.14,.1,0,.2-.03,.28-.1,4.1-3.5,8.52-3.93,10.43-2.31Zm-2.9-1.9c.15,.16,.41,.17,.57,.02,.16-.15,.17-.41,.02-.57-2.16-2.33-7.14-1.29-11.57,2.44-.17,.14-.19,.4-.05,.57,.08,.09,.18,.14,.29,.14,.1,0,.19-.03,.27-.09,4.1-3.44,8.59-4.53,10.46-2.51Z"
               id="path233" />
          </g>
          <path
             class="cls-16 part-9"
             d="M136.76,264.25l.73-31.33,30.34-1.29c1.23,33.96,3.28,137.66,3.37,152.22-4.05,2.48-20.47,1.55-21.83,.45-.69-7.71-8.74-87.59-11.62-115.04-.02-.08-.98-4.52-.99-5.01Z"
             id="path237" />
          <g
             id="g247"
             class="part-10">
            <polygon
               class="cls-10"
               points="118.82 394.54 102.12 393.86 102.71 379.41 119.91 380.13 118.82 394.54"
               id="polygon239" />
            <path
               class="cls-24"
               d="M81.54,402.16c-1.44,.71-2.74,2.92-2.71,4.27,.09,3.26,14.64,3.32,21.43,1.86,2.85-.61,7.91-2.82,10.98-3.4,4.17-.8,7.86-1.9,9.3-3.57,.04-.49-.25-5.19-.54-9.66-.05-.72-.16-1.08-.95-.89-.72,1.19-3.16,1.93-5.02,1.24-1.29-.48-2.33-1.45-3.45-2.98-.59-.81-8.63-2.25-9.85-.93-2.95,5.05-9.59,9.3-19.2,14.06Z"
               id="path241" />
            <path
               class="cls-22"
               d="M78.56,410.38c-.17-.34-.19-1.84-.24-3.17-.01-.4,.4-.99,.55-1.24-.64,3.3,13.47,3.44,21.27,1.75,2.85-.62,6.42-2.62,9.49-3.22,4.01-.79,9.51-1.79,10.94-3.47,.3-.01,.24,.37,.25,.73,.04,1.45,.01,2.75-.21,2.86-3.93,1.94-8.89,2.75-11.8,3.76-2.87,.99-5.52,2.18-8.42,2.95-5.34,1.43-20.74,1.28-21.82-.94Z"
               id="path243" />
            <path
               class="cls-7"
               d="M87.5,398.61c.14,.17,.4,.19,.57,.05,1.48-1.23,6.82-1.54,10.77,1.68,.08,.06,.18,.09,.27,.09,.11,0,.22-.05,.3-.15,.14-.17,.12-.43-.06-.57-4.33-3.53-10.1-3.09-11.8-1.68-.17,.14-.2,.4-.05,.57Zm14.31,.36c.08,.07,.18,.1,.28,.1,.11,0,.22-.05,.29-.14,.15-.17,.13-.42-.04-.57-4.59-3.92-9.34-4.12-11.48-2.31-.17,.15-.19,.4-.05,.57,.14,.17,.4,.19,.57,.05,1.91-1.61,6.33-1.19,10.43,2.31Zm2.93-1.7c.08,.07,.18,.1,.27,.09,.11,0,.22-.05,.29-.14,.14-.17,.12-.43-.05-.57-4.44-3.73-9.42-4.77-11.57-2.44-.15,.16-.14,.42,.02,.57,.16,.15,.42,.14,.57-.02,1.87-2.02,6.36-.93,10.46,2.51Z"
               id="path245" />
          </g>
          <path
             class="cls-16 part-10"
             d="M135.06,264.25l-.73-31.33-30.34-1.29c-1.23,33.96-3.28,137.66-3.37,152.22,4.05,2.48,20.47,1.55,21.83,.45,.69-7.71,8.74-87.59,11.62-115.04,.02-.08,.98-4.52,.99-5.01Z"
             id="path249" />
          <path
             class="cls-16 part-10"
             d="M139.87,271.63s-2.04,.98-2.1-.51c-.54-3.87-3.27-3.79-3.98-.2-.27,1.38-2.48,.52-2.48,.52l.24-16.34,8.56,.2-.24,16.34Z"
             id="path251" />
          <path
             class="cls-15 part-7"
             d="M103.24,258.64c14.56,3.86,40.72,6.44,65.28,2.27,.07-12.41,.12-20.47,.07-27.72,0,0-61.63,2.36-64.38,3.3-.39,6.3-.42,13.72-.98,22.15Z"
             id="path253" />
        </g>
        <path
           class="cls-5 part-8"
           d="M188.35,208.32c-.28-2.94-1.02-16.96-2.25-23.4-2.23-11.64-5.81-28.79-8.13-31.16-1.54-1.57-9.67-4.27-12.85-5.41-.08,3.33-.51,30.66,.39,38.51,.58,5.08,3.96,15.57,6.11,24.13,2.26,.39,14.81-1.89,16.74-2.67Z"
           id="path257" />
        <path
           class="cls-13 part-8"
           d="M189.61,184.94c-.41-2.22-9.19-31.9-11.6-34.24-1.6-1.56-10.19-4.6-13.52-5.7-.13,3.34-.22,43.15,2.08,47.32,3.84,.29,21.54-6.37,23.04-7.39Z"
           id="path259" />
        <path
           class="cls-5 part-8"
           d="M180.34,203.1c-4.56-.77-7.21,2.64-8.55,4.67-.96,14.2,4.65,29.05,3.69,47.61,1.03,.4,10.69,.4,11.38-.19,.9-15.19,3.1-30.97,1.49-46.88-.32-3.14-5.6-4.81-8.02-5.22Z"
           id="path261" />
        <g
           id="g271"
           class="part-8">
          <path
             class="cls-4"
             d="M185.39,265.91c-.63,.61-1.43,1.8-6.39,5.15-1.54,1.04-7.72-.44-10.91-1.41,.53-3.37,4.28-2.27,8.65-2.24l8.23-7.58c1.56,.25,1.13,5.4,.42,6.08Z"
             id="path263" />
          <path
             class="cls-4"
             d="M184.8,267.18c-.52,.75-1.09,2.12-5.47,6.54-1.36,1.37-7.95,1.11-11.4,.77-.14-3.54,3.9-3.18,8.36-4.03l6.85-9.39c1.64-.06,2.25,5.27,1.66,6.11Z"
             id="path265" />
          <path
             class="cls-4"
             d="M184.13,268.2c-.31,.86-.52,2.33-3.64,7.71-.97,1.67-7.41,3.09-10.83,3.64-1.03-3.39,2.97-4.06,7.06-6.02l4.25-10.82c1.57-.47,3.51,4.53,3.16,5.49Z"
             id="path267" />
          <path
             class="cls-5"
             d="M173.54,281.97c4.96-1.3,9.39-3.26,10.36-4.93,1.19-2.05,3.28-5.56,4.46-7.98,.79-1.63,.09-8.97-1.29-16.65-.18-1.01-3.63-2.19-5.24-1.89-8.96,1.69-8.95,6.95-9.8,10.87-.45,2.07-.33,8.25-.15,11.24,6.47,.49,3.53-8.89,6.9-8.65,2.49,.18,3.02,3.18,2.58,4.78-.48,1.76-1.94,5.83-2.44,6.24-4.24,3.49-7.62,4.23-5.38,6.96Z"
             id="path269" />
        </g>
        <path
           class="cls-13 part-6"
           d="M172.37,147.86c-4.93-1.94-14.42-6.39-24.51-9.2-2.39-.67-11.52-1.23-11.57-1.23s-9.68,1.02-12.16,.97c-8.31-.18-16.02-1.71-24.13-3.34,1.26,16.85,2.53,74.59,2.34,88.85-.09,6.81-.59,27.53-.63,30.91,15.92,4.32,51.71,4.41,68.98,1.04-.04-3.38-.68-25.14-.77-31.95-.19-14.26,1.19-59.19,2.45-76.04Z"
           id="path273" />
        <path
           class="cls-8 part-4"
           d="M136.56,153.44c9.29,0,16.8-5.67,17.26-12.79-2.18-.83-4.29-1.62-6.18-2.32-4.43-1.64-17.2,.12-22.33,.03-1.44-.03-4.03-.18-5.73-.23-.93,9.47,7.54,15.31,16.98,15.31Z"
           id="path275" />
        <path
           class="cls-5 part-4"
           d="M151.21,140.09c0-.14-.05-.27-.05-.41-1.57-.59-3.09-1.16-4.47-1.67-4.05-1.5-15.83,.34-20.52,.34-1.02,0-3.18-.1-4.02-.12-.12,.34-.24,1.62-.24,1.86,0,6.27,6.56,11.36,14.65,11.36s14.65-5.09,14.65-11.36Z"
           id="path277" />
        <path
           class="cls-5 part-4"
           d="M136.28,146.69c-6.05,0-10.95-3.19-10.95-7.13v-19.46h21.91v19.46c0,3.94-4.9,7.13-10.95,7.13Z"
           id="path279" />
        <path
           class="cls-3 part-4"
           d="M147.24,135.95c-2.82,1.46-7.28,2.73-11.88,2.18-4.44-.54-7.81-2.43-10.02-4.34v-8.48c2.62-2.11,7.7-2.88,13.17-1.7,3.56,.77,6.61,2.24,8.74,3.99v8.34Z"
           id="path281" />
        <path
           class="cls-17 part-6"
           d="M100.45,167.53c.4,8.24,.75,17.55,1.02,25.07,16.25,5.8,48.78,6.47,69.29,4.28,.1-6.76,.18-16.02,.39-24.35-19.89,.98-51.13-.42-70.7-5Z"
           id="path283" />
        <g
           id="g321"
           class="part-3">
          <path
             class="cls-19 part-4"
             d="M158.61,75.01c-4.67-9.28-25.06-7.47-27.8-7.24-2.59,.22-23.42,2.36-25.98,12.33-.41,1.59,7.52,27.19,10.57,31.54,1.17,1.66,4.6,4.03,6.77,5.02,3.58,1.64,6.22,3.05,10.54,3.51,.26,.03,5.77-.49,6.02-.57,4.16-1.26,6.48-3.15,9.7-5.42,1.94-1.38,4.87-4.35,5.71-6.2,2.19-4.84,5.21-31.5,4.47-32.96Z"
             id="path285" />
          <g
             id="g291"
             class="part-4">
            <path
               class="cls-5"
               d="M106.94,103.51c2.88-.61,5.42,1.77,7.1,5.95,1.89,4.69,.44,7.56-.65,8.26-2.08,1.33-6.6-.59-8.84-4.99-2.02-3.96-1-8.5,2.39-9.21Z"
               id="path287" />
            <path
               class="cls-4"
               d="M108.74,107.7c1.39-.84,3.35,.08,4.38,2.05,1.03,1.97,.73,4.24-.66,5.08-1.39,.84-3.35-.08-4.38-2.05-1.03-1.97-.73-4.24,.66-5.08Z"
               id="path289" />
          </g>
          <g
             id="g297"
             class="part-4">
            <path
               class="cls-5"
               d="M160.96,98.4c-2.94-.06-4.99,2.76-5.86,7.17-.98,4.96,.98,7.51,2.19,7.99,2.29,.92,6.37-1.82,7.75-6.56,1.24-4.27-.61-8.53-4.07-8.6Z"
               id="path293" />
            <path
               class="cls-4"
               d="M159.98,102.86c-1.52-.56-3.28,.71-3.92,2.84-.64,2.13,.07,4.31,1.6,4.87,1.52,.56,3.28-.71,3.92-2.84,.64-2.13-.07-4.31-1.6-4.87Z"
               id="path295" />
          </g>
          <path
             class="cls-5 part-4"
             d="M105.8,89.96c2.74-11.18,23.1-13.24,25.84-13.52,2.58-.27,23.45-2.05,27.94,8.44,.72,1.67-1.97,31.52-4.1,36.92-.82,2.07-3.71,5.37-5.64,6.89-3.19,2.52-5.5,4.61-9.64,5.97-.25,.08-5.76,.6-6.02,.57-4.33-.56-6.99-2.18-10.59-4.06-2.18-1.14-5.64-3.83-6.83-5.71-3.11-4.91-11.38-33.74-10.95-35.5Z"
             id="path299" />
          <path
             class="cls-1"
             d="M135.37,114.91c-.34,0-.64-.04-.88-.1-.17-.05-.27-.23-.22-.4,.05-.17,.23-.27,.4-.22,.88,.25,2.54-.08,2.84-.68,.2-.39-.18-1.22-.62-2.17-.29-.63-.61-1.34-.87-2.12-.06-.17,.03-.35,.2-.41,.17-.06,.35,.03,.41,.2,.25,.75,.56,1.44,.85,2.05,.53,1.15,.94,2.06,.62,2.73-.39,.79-1.69,1.12-2.72,1.12Z"
             id="path301" />
          <path
             class="cls-19 part-3"
             d="M122.59,77.94c-.18-.8,.25-5.45-1.64-7.6-11.05-.21-16.96,8.58-18.11,12.69,.92,5.6,3.64,19.16,4.01,20.5,1.34,.45,2.97,3.17,3.95,6.26,.28,.21,.53,.63,1.03,.98-.86-5.03-1.35-12.11-1.3-16.79,.53-1.25,1.78-3.35,2.25-4.05-.12-2.23-1.47-6.65,1.81-8.85,1.05-.7,4.92-2.41,8-3.12Z"
             id="path303" />
          <path
             class="cls-19 part-3"
             d="M140.7,76.23c.03-.82-1.26-5.3,.19-7.78,10.82-2.28,18.26,5.25,20.17,9.07,.15,5.67,.01,19.5-.1,20.89-1.24,.69-2.32,3.67-2.71,6.88-.23,.25-.4,.72-.83,1.15-.1-5.1-.94-12.15-1.87-16.73-.76-1.12-2.37-2.96-2.97-3.56-.3-2.21,.19-6.81-3.44-8.35-1.16-.49-5.29-1.45-8.45-1.57Z"
             id="path305" />
          <path
             class="cls-18 part-3"
             d="M109.6,78.44c1.73-8.43,10.11-14.74,13.44-15.41,8.28-1.68,28.83,2.26,31.11,2.7-3.02,7.84-11.47,16.3-20.82,17.23-11.43,1.14-19.09-4.42-23.73-4.51Z"
             id="path307" />
          <path
             class="cls-18 part-3"
             d="M109.57,75.64c-1.05-2.68,1.09-9.33,5.17-11.88-1.75,3.9-1.43,9.03-1.06,9.8,.37,.77-3.81,2.85-4.11,2.08Z"
             id="path309" />
          <path
             class="cls-14 part-5"
             d="M132.6,123.59c-.1,0-.2-.02-.29-.07-.23-.13-.33-.42-.15-.61,1.49-1.58,3.42-2.78,5.67-2.72,1.39,.02,2.6,.97,3.16,1.78,.14,.21,.05,.48-.19,.6-.24,.12-.52,.04-.67-.16-.39-.52-1.29-1.31-2.33-1.33-2.21-.06-3.75,1.2-4.81,2.3-.11,.11-.24,.2-.39,.21Z"
             id="path311" />
          <path
             class="cls-11 part-5"
             d="M113.53,100.43c1.44,.38,3.3,.46,4.73,.18,2.84-.54,5.88-2.11,7.65-3.44,.57-.43,.07-2.56-.12-2.66-.22-.12-.5-.03-.93,.24-2.19,1.37-4.17,2.87-7.57,3.74-1.24,.32-2.71,.56-3.48,.63-.3,.03-1.16,.07-1.19,.17-.09,.23,.39,1,.91,1.14Z"
             id="path313" />
          <path
             class="cls-11 part-5"
             d="M153.69,89.11c-1.07-1.04-2.65-2.01-4.04-2.47-2.74-.91-6.16-1.03-8.35-.74-.71,.09-1.31,2.2-1.2,2.38,.13,.21,.43,.27,.93,.25,2.58-.12,5.04-.46,8.43,.44,1.23,.33,2.64,.84,3.34,1.15,.27,.12,1.05,.5,1.12,.44,.19-.16,.15-1.07-.24-1.44Z"
             id="path315" />
          <path
             class="cls-2 part-5"
             d="M150.93,96.79h0c-.37-.37-.97-.37-1.34,0l-3.08,3.08c-.37,.37-.97,.37-1.34,0l-3.08-3.08c-.37-.37-.97-.37-1.34,0h0c-.37,.37-.37,.97,0,1.34l3.08,3.08c.37,.37,.37,.97,0,1.34l-3.08,3.08c-.37,.37-.37,.97,0,1.34h0c.37,.37,.97,.37,1.34,0l3.08-3.08c.37-.37,.97-.37,1.34,0l3.08,3.08c.37,.37,.97,.37,1.34,0h0c.37-.37,.37-.97,0-1.34l-3.08-3.08c-.37-.37-.37-.97,0-1.34l3.08-3.08c.37-.37,.37-.97,0-1.34Z"
             id="path317" />
          <path
             class="cls-2 part-5"
             d="M125.94,101.66h0c-.29-.29-.77-.29-1.06,0l-2.44,2.44c-.29,.29-.77,.29-1.06,0l-2.44-2.44c-.29-.29-.77-.29-1.06,0h0c-.29,.29-.29,.77,0,1.06l2.44,2.44c.29,.29,.29,.77,0,1.06l-2.44,2.44c-.29,.29-.29,.77,0,1.06h0c.29,.29,.77,.29,1.06,0l2.44-2.44c.29-.29,.77-.29,1.06,0l2.44,2.44c.29,.29,.77,.29,1.06,0h0c.29-.29,.29-.77,0-1.06l-2.44-2.44c-.29-.29-.29-.77,0-1.06l2.44-2.44c.29-.29,.29-.77,0-1.06Z"
             id="path319" />
        </g>
        <path
           class="cls-5 part-7"
           d="M67.02,140.35c1.56,1.33,8.33-7.16,12.17-8.51,10.4-11.55,12.72-19.21,23.08-30.62-.57-.95-6.52-9.24-7.43-9.21-7.39,7.1-21.42,18.82-31,33.8-1.7,2.66-2.17,9.98,3.18,14.53Z"
           id="path323" />
      </g>
    </g>
  </g>
</svg>
