<?xml version="1.0" encoding="UTF-8"?><svg xmlns="http://www.w3.org/2000/svg" xmlns:xlink="http://www.w3.org/1999/xlink" viewBox="0 0 47.865 53.265"><defs><style>.f{fill:#fff;filter:url(#d);stroke:#ec867f;stroke-miterlimit:10;}.g{fill:#df3629;fill-rule:evenodd;}</style><filter id="d" filterUnits="userSpaceOnUse"><feOffset dx="0" dy="4"/><feGaussianBlur result="e" stdDeviation="0"/><feFlood flood-color="#701b15" flood-opacity="1"/><feComposite in2="e" operator="in"/><feComposite in="SourceGraphic"/></filter></defs><g id="a"/><g id="b"><g id="c"><g><rect class="f" x=".5" y=".5" width="46.865" height="48.265" rx="12" ry="12"/><g><g><path class="g" d="M34.067,24.801c0,1.708-.459,3.365-1.292,4.813-.622,1.079-1.45,2.036-2.454,2.808-.322,.247-.793,.134-.997-.216l-.494-.847c-.169-.289-.113-.667,.15-.874,.718-.567,1.311-1.265,1.757-2.04,.625-1.084,.971-2.342,.971-3.643,0-1.309-.347-2.559-.971-3.643-.477-.817-1.105-1.543-1.863-2.129-.267-.207-.326-.588-.159-.882l.478-.842c.209-.368,.693-.458,1.031-.205,1.05,.787,1.908,1.766,2.551,2.878,.833,1.448,1.292,3.105,1.292,4.822Z"/><path class="g" d="M38.828,24.801c0,2.567-.694,5.039-1.934,7.198-1.04,1.791-2.468,3.37-4.207,4.585-.309,.216-.741,.109-.931-.217l-.532-.912c-.172-.296-.08-.665,.2-.863,1.417-1.003,2.577-2.305,3.432-3.773,1.041-1.795,1.613-3.868,1.613-6.019s-.573-4.224-1.613-6.019c-.881-1.528-2.097-2.866-3.581-3.89-.283-.195-.38-.566-.21-.865l.516-.906c.186-.326,.615-.438,.927-.228,1.823,1.229,3.31,2.849,4.386,4.709,1.24,2.151,1.934,4.631,1.934,7.198Z"/></g><path class="g" d="M28.057,24.801c-.208,2.029-1.5,3.721-3.027,4.033l-.13,8.742v.052c-.008,.347-.165,.685-.459,.902-.017,.026-.044,.035-.061,.052-.026,.017-.043,.026-.069,.035-.451,.269-1.006,.199-1.387-.139-.035-.026-.069-.061-.104-.104l-8.231-7.658-.737,.026-3.035-.078c-.989-.026-1.778-.833-1.778-1.821v-8.5c0-.885,.711-1.613,1.596-1.63l2.671-.061,1.292,.043,8.482-7.866c.009,0,.009-.009,.009-.009,.217-.208,.512-.338,.833-.338,.633,0,1.145,.485,1.179,1.101v9.237c1.691,.416,3.157,1.951,2.958,3.981Z"/></g></g></g></g></svg>