<?xml version="1.0" encoding="UTF-8"?><svg id="Layer_2" xmlns="http://www.w3.org/2000/svg" xmlns:xlink="http://www.w3.org/1999/xlink" viewBox="0 0 403.24 198.68"><defs><style>.cls-1{fill:#6b1808;opacity:.14;}.cls-2{fill:#133b75;}.cls-3,.cls-4{fill:#fff;}.cls-5{fill:#c4735b;}.cls-6{fill:#6bddf7;}.cls-7{fill:none;filter:url(#drop-shadow-1);}.cls-8{fill:#e0956c;}.cls-9{fill:#ffc19f;}.cls-10{fill:#541000;opacity:.21;}.cls-11{fill:#afaeae;}.cls-12{fill:#491616;}.cls-13{fill:#3ab7dd;}.cls-14{fill:#601805;opacity:.19;}.cls-15{fill:#333;}.cls-16{fill:#af3708;opacity:.28;}.cls-4{opacity:.61;}.cls-17{fill:#994936;}.cls-18{fill:#053b56;opacity:.35;}.cls-19{opacity:.55;}.cls-20{fill:#73dcf4;}.cls-21{fill:#dd6b5b;}.cls-22{fill:#602220;}.cls-23{fill:#701608;}.cls-24{fill:#c3f1fc;}.cls-25{fill:#024fa3;}.cls-26{fill:#f9feff;}.cls-27{fill:#f29d77;}.cls-28{fill:#fefffe;}.cls-29{opacity:.37;}.cls-30{fill:#721907;}</style><filter id="drop-shadow-1" filterUnits="userSpaceOnUse"><feOffset dx="0" dy="4"/><feGaussianBlur result="blur" stdDeviation="0"/><feFlood flood-color="#004e6e" flood-opacity="1"/><feComposite in2="blur" operator="in"/><feComposite in="SourceGraphic"/></filter></defs><g id="Contenido"><g><rect class="cls-7" y="0" width="403.24" height="198.68" rx="12" ry="12"/><g><g><path class="cls-15" d="M224.28,81.93c-.58-.22-1.07-.43-1.48-.62-.41-.2-.75-.38-1.04-.54-.29-.17-.52-.32-.69-.46-.18-.14-.32-.27-.44-.38-.12-.11-.22-.22-.29-.31-.08-.09-.16-.17-.24-.23-.02,0-.04-.02-.08-.05s-.05-.06-.05-.08c-.02-.02-.03-.04-.05-.07-.02-.03-.02-.06-.02-.07-.04-.04-.09-.09-.15-.15-.06-.06-.11-.11-.17-.16-.05-.05-.1-.1-.14-.13s-.06-.05-.07-.05l-.27-.43h0s0-.03,0-.03c0,0,0-.01,0-.02v-.02c-.19-.25-.34-.53-.46-.82-.12-.3-.23-.6-.31-.92-.09-.31-.17-.63-.24-.95-.07-.32-.16-.62-.24-.92-.04-.14-.06-.27-.06-.38s-.02-.25-.05-.38c-.05-.19-.1-.37-.16-.56-.06-.19-.09-.37-.11-.56,0-.07,0-.21-.02-.4-.01-.2-.03-.4-.04-.63-.02-.22-.03-.44-.04-.63-.01-.2-.02-.34-.03-.43v-.31c0-.33,.04-.62,.09-.89,.05-.26,.12-.55,.21-.86,0-.02,.03-.06,.05-.15,.03-.08,.05-.17,.07-.27,.02-.1,.05-.19,.07-.27,.02-.08,.04-.13,.04-.15,.08-.28,.17-.53,.27-.73,.1-.2,.19-.37,.27-.5,.09-.13,.19-.26,.3-.39,.07-.2,.17-.4,.32-.62,.15-.22,.32-.43,.51-.65,.2-.22,.41-.43,.63-.64,.23-.21,.46-.41,.68-.6,.28-.28,.61-.51,1-.69s.76-.34,1.11-.48c.02,0,.09-.04,.19-.09,.1-.05,.21-.11,.34-.16,.12-.05,.23-.1,.34-.15s.17-.08,.19-.1c0,0,.04,0,.1-.02,.06-.02,.12-.04,.18-.06,.06-.02,.12-.05,.18-.07,.06-.02,.09-.03,.11-.04,.02-.02,.06-.04,.15-.07,.08-.03,.13-.06,.15-.07,0,0,.03,0,.07,0,.04,0,.08,0,.13,0h.13s.07,0,.08-.01c.02,0,.05,0,.1-.01,.05,0,.12-.02,.18-.03,.07-.01,.14-.02,.2-.04,.07-.01,.11-.02,.15-.03,.34-.1,.68-.14,1-.14,.32,0,.67,0,1.03,0h.29c.12,0,.24,0,.36,0,.12,0,.22,0,.31,0h.16s.09,0,.17,0c.08,0,.17,.01,.27,.02,.1,0,.19,.02,.28,.03,.09,.01,.15,.02,.2,.03,.02,0,.07,0,.15,.02,.08,.02,.15,.03,.2,.05,.02,0,.06,0,.14,.02,.08,.02,.12,.03,.14,.05,.02,0,.07,0,.15,.01,.08,0,.17,.01,.26,.02,.09,0,.18,.01,.27,.02,.09,0,.14,.01,.17,.01,.02,.02,.07,.03,.14,.05,.07,.02,.11,.02,.13,.02,.02,.02,.06,.04,.13,.09,.07,.04,.14,.08,.22,.13,.08,.04,.15,.09,.22,.13,.07,.04,.11,.07,.13,.08,.02,.02,.06,.04,.14,.08,.08,.04,.12,.06,.14,.08,.02,0,.05,.02,.11,.07,.06,.04,.09,.07,.11,.07,0,0,.02,.01,.06,.01,.02,0,.04,0,.06-.01,.08,.02,.14,.1,.18,.22s.05,.22,.05,.31v.12s-.04,.06-.06,.09c-.03,.03-.06,.07-.1,.11-.02,.02-.05,.06-.1,.14-.05,.08-.11,.16-.18,.25-.07,.09-.12,.17-.18,.24-.05,.07-.09,.12-.1,.13-.09,.04-.19,.15-.3,.34-.11,.19-.24,.38-.38,.57s-.29,.36-.45,.5c-.16,.14-.33,.18-.51,.12-.45-.11-.88-.21-1.29-.28-.41-.07-.85-.11-1.31-.12-.04,0-.09,0-.15,0-.06,0-.12,0-.18,0-.07,0-.15,.01-.22,.01-.02,0-.05,0-.11,.02s-.12,.03-.18,.04c-.06,.02-.12,.03-.18,.04-.06,.01-.09,.02-.11,.02-.02,0-.09,.02-.2,.03-.11,.01-.23,.03-.35,.04-.13,.02-.24,.03-.35,.04s-.18,.02-.21,.03c-.02,0-.06,.01-.12,.03-.07,.02-.14,.04-.22,.07-.08,.03-.16,.06-.24,.09-.08,.03-.14,.05-.18,.07-.38,.15-.71,.35-1.01,.59-.3,.24-.58,.5-.84,.81-.02,.02-.07,.09-.15,.18s-.15,.2-.24,.31-.17,.21-.24,.31c-.08,.1-.13,.16-.15,.18-.08,.09-.16,.18-.24,.27-.08,.09-.14,.21-.18,.35-.02,.04-.04,.12-.07,.23-.03,.11-.06,.23-.09,.36-.03,.13-.06,.25-.09,.36-.03,.11-.05,.2-.06,.24,0,.02-.01,.03-.01,.05v.09c0,.09,.01,.18,.04,.26,.02,.09,.04,.18,.04,.29v.02s-.05,.06-.11,.13-.08,.12-.08,.13v.05c0,.38,0,.8,.03,1.25,.03,.45,.1,.86,.23,1.23l.2,.67v.02s.01,.09,.04,.16c.03,.08,.06,.16,.09,.24,.03,.08,.06,.16,.08,.23,.03,.07,.04,.12,.06,.15,.11,.07,.17,.15,.21,.26,.03,.11,.08,.22,.15,.32,.2,.3,.42,.59,.66,.86,.24,.27,.49,.52,.77,.74,.28,.22,.58,.42,.9,.58,.32,.16,.67,.28,1.03,.37,.06,.02,.15,.03,.29,.05,.13,.02,.27,.04,.42,.07s.27,.04,.39,.06c.12,.02,.19,.02,.23,.02,0,0,.04,0,.1,0,.06,0,.12,0,.2,0s.16,0,.24,0c.08,0,.15,0,.2,0,.34,0,.67,0,.98-.04,.31-.04,.63-.11,.96-.23,.03,0,.06-.02,.11-.05s.1-.05,.15-.07c.05-.02,.1-.05,.14-.07,.04-.02,.07-.03,.07-.04,.1-.04,.18-.09,.26-.13,.07-.05,.14-.09,.21-.13,.07-.04,.14-.08,.22-.1,.08-.03,.17-.04,.26-.04,.02,0,.07,0,.13,.01,.07,0,.11,.01,.12,.01,.2,.18,.38,.37,.54,.56,.17,.2,.3,.41,.41,.63,.03,.03,.06,.1,.12,.21,.05,.11,.11,.23,.17,.35,.06,.13,.12,.24,.18,.35,.06,.11,.09,.18,.11,.2,0,.02,.03,.05,.07,.1,.04,.05,.07,.1,.11,.15,.04,.05,.07,.11,.1,.16,.03,.05,.05,.08,.06,.09,.05,.2,.07,.35,.05,.43-.01,.08-.06,.14-.13,.19-.08,.04-.18,.09-.31,.14-.13,.05-.29,.15-.46,.29-.02,0-.03,.02-.04,.02-.02,0-.03,.02-.03,.02,0,0,0,.02-.02,.02-.2,.15-.42,.28-.63,.37-.22,.09-.45,.17-.68,.23-.24,.06-.48,.11-.73,.14-.25,.03-.5,.06-.75,.09-.05,0-.18,0-.38,.02-.21,.02-.43,.03-.67,.05-.24,.02-.46,.03-.67,.05-.21,.02-.33,.03-.38,.04h-.78s-.08,0-.17-.01c-.09,0-.19-.02-.29-.02-.1,0-.2-.02-.29-.02-.09,0-.15-.01-.17-.01h-.97c-.12,0-.19,0-.21-.01-.02,0-.06,0-.13-.02-.07-.02-.16-.03-.25-.05-.09-.02-.18-.04-.27-.07s-.15-.04-.19-.06Z"/><path class="cls-15" d="M246.14,82.12c-.1-.06-.14-.14-.13-.24,.01-.11,.01-.21,0-.31,0-.02-.01-.04-.04-.07-.03-.03-.04-.06-.04-.07v-.11c0-.11,.02-.22,.07-.31,.05-.09,.07-.19,.07-.29v-.07s-.06,0-.12,.02c-.05,.02-.09,.03-.1,.05-.06,.04-.15,.1-.27,.18-.13,.08-.26,.17-.41,.26-.15,.09-.29,.17-.43,.24-.14,.07-.24,.11-.32,.12l-.95,.39h-.07s-.04,0-.08,.01c-.04,0-.08,.02-.13,.03s-.09,.02-.13,.03c-.04,0-.07,.01-.08,.01h-1.16c-.12,0-.24,0-.35-.01-.11,0-.22-.02-.34-.02-.12,0-.25-.02-.4-.05-.02,0-.06-.02-.13-.04-.07-.02-.14-.03-.22-.05-.08-.02-.15-.03-.22-.04-.07-.01-.11-.02-.13-.02h-.63l-.4-.16c-.06-.02-.14-.07-.26-.13-.12-.06-.24-.13-.38-.21s-.26-.14-.38-.21c-.12-.06-.21-.11-.27-.13-.05-.02-.12-.06-.22-.1-.1-.04-.2-.09-.3-.15-.1-.05-.2-.1-.29-.14-.09-.04-.15-.07-.17-.09,0,0-.03-.03-.06-.05-.03-.03-.07-.06-.12-.1-.04-.04-.09-.08-.13-.12s-.08-.06-.1-.08c-.2-.2-.4-.43-.59-.67s-.38-.48-.56-.7c-.17-.2-.31-.47-.43-.81-.12-.33-.21-.69-.28-1.06-.07-.37-.13-.73-.16-1.09-.03-.36-.05-.67-.05-.93,0-.33,0-.64,0-.93,0-.28,.02-.56,.05-.84,.03-.27,.07-.55,.13-.82,.06-.28,.14-.57,.24-.89,0-.05,.04-.15,.09-.31,.05-.16,.11-.32,.17-.48,.06-.16,.11-.29,.15-.38,.04-.1,.06-.1,.05-.01,.13-.37,.3-.72,.51-1.04,.21-.32,.45-.62,.72-.9,.27-.28,.56-.53,.87-.77,.31-.24,.64-.46,.97-.66,.03-.02,.11-.07,.22-.13,.12-.06,.24-.12,.38-.19,.13-.06,.26-.13,.39-.19,.13-.06,.21-.1,.26-.12,0,0,.03-.02,.08-.03l.16-.04c.06-.02,.12-.03,.18-.04l.15-.03s.11-.03,.2-.05c.08-.02,.13-.02,.15-.02h2.41c.28,.08,.56,.16,.83,.23,.27,.07,.53,.15,.77,.26,.25,.1,.49,.22,.72,.37,.23,.14,.46,.33,.68,.56h.05s0-.06,0-.1c0-.04,0-.09,0-.14s0-.1,0-.14c0-.04,0-.08,0-.09,0,0,0-.04,.01-.09,0-.05,.02-.1,.03-.16,.01-.06,.03-.11,.04-.15,.01-.04,.02-.07,.02-.08-.04-.06-.04-.12-.01-.18,.03-.06,.08-.11,.14-.15,.06-.04,.13-.07,.2-.08,.07-.01,.13,0,.18,.03,.41,0,.76,0,1.07,0,.31,0,.61,.01,.9,.02s.6,.03,.91,.07c.31,.03,.67,.07,1.08,.12,.03,.02,.07,.04,.12,.07,.06,.03,.08,.06,.08,.1,0,.07,0,.16,.01,.27,0,.11,.02,.22,.02,.34,0,.12,.02,.23,.03,.34,0,.11,0,.21,0,.29,0,.02,0,.07-.01,.15,0,.08-.02,.17-.02,.27s-.02,.19-.02,.27c0,.08-.01,.13-.01,.15,0,.02-.01,.08-.04,.18-.02,.09-.04,.15-.04,.16,0,.02,0,.08,0,.15,0,.08,0,.16,0,.24v.24c0,.08,0,.12-.01,.14,0,.02,0,.06-.03,.11-.02,.05-.03,.09-.05,.11l-.02,2.88v.73c0,.31,0,.69,0,1.15,0,.46,0,.97,.02,1.53s.02,1.12,.03,1.68c0,.56,.02,1.08,.02,1.58,0,.5,.02,.91,.04,1.25,0,.02,0,.09-.02,.19-.01,.1-.03,.21-.04,.34s-.03,.23-.04,.34c-.01,.1-.01,.16,0,.19v.2s-.07,.05-.16,.09c-.09,.03-.15,.06-.17,.07-.22,0-.41,0-.57,.02-.16,.02-.31,.03-.45,.05-.14,.02-.29,.04-.44,.05-.15,.02-.33,.02-.55,.01h-.57c-.06,0-.15,0-.29,0-.13,0-.28-.01-.43-.02-.15,0-.29-.02-.43-.02-.13,0-.23-.02-.29-.02Zm-7.21-8.03c0,.43,.07,.83,.21,1.2,.14,.37,.33,.73,.55,1.09,.02,.02,.04,.06,.07,.12,.03,.05,.06,.08,.07,.08,.2,.21,.4,.42,.6,.61,.21,.2,.43,.37,.66,.52,.23,.15,.48,.27,.74,.36,.26,.09,.54,.13,.85,.13,.26,0,.52-.04,.79-.13,.27-.09,.52-.18,.76-.28,.03-.02,.08-.04,.14-.07,.06-.03,.12-.06,.18-.09,.06-.03,.11-.05,.16-.08s.08-.04,.09-.05c.3-.23,.55-.5,.74-.81,.2-.31,.35-.65,.47-1,.12-.35,.2-.72,.24-1.1s.07-.74,.09-1.09c0-.04,0-.11,0-.21,0-.1-.01-.2-.02-.31,0-.11-.02-.21-.02-.3,0-.09-.02-.16-.03-.19l-.11-.22c-.03-.06-.07-.13-.1-.18-.03-.06-.06-.11-.07-.15-.16-.31-.33-.61-.5-.9-.17-.29-.39-.52-.66-.69-.07-.05-.14-.1-.22-.16-.08-.06-.17-.12-.26-.18s-.19-.12-.28-.17c-.09-.05-.17-.09-.24-.1-.03,0-.09-.02-.18-.05-.09-.02-.18-.05-.28-.07s-.19-.04-.28-.06c-.08-.02-.14-.03-.18-.04-.05-.07-.12-.12-.22-.13s-.21-.01-.32,0c-.12,.01-.23,.03-.35,.05s-.21,.04-.28,.04c-.12,0-.25,.02-.39,.07-.14,.04-.27,.1-.4,.18-.13,.07-.25,.15-.37,.24-.12,.09-.22,.18-.31,.28-.02,.02-.05,.06-.1,.12-.05,.07-.11,.13-.17,.2-.06,.07-.12,.14-.18,.2-.06,.07-.09,.11-.1,.12-.31,.34-.52,.74-.65,1.21-.07,.33-.12,.65-.15,.98-.03,.33-.04,.67-.04,1.01Z"/><path class="cls-15" d="M252.84,82.15c-.11-.02-.19-.06-.26-.1-.07-.05-.13-.11-.16-.18-.04-.07-.06-.14-.07-.21s-.02-.14-.01-.21c0-.06,0-.12,0-.17,0-.62,0-1.23-.02-1.85-.02-.61-.03-1.23-.04-1.85-.01-.62-.01-1.24,0-1.86,.01-.62,.04-1.24,.09-1.86l-.05-.57c0-.06,.02-.13,.02-.18,0-.05,.01-.1,.01-.15s0-.1,.01-.14v-1.62c0-.2,0-.4,0-.58,0-.18,0-.3,0-.35,0-.04,0-.15,.02-.33,.01-.18,.03-.37,.04-.57,.01-.2,.02-.39,.02-.57,0-.18,0-.29,0-.34,0-.18,0-.38-.02-.61-.02-.23-.04-.44-.04-.62l.03-.43c0-.1,.03-.16,.08-.2,.05-.04,.11-.06,.17-.07,.06,0,.12,0,.17,0,.05,0,.08,0,.09,0,.03,0,.07,0,.14,0,.07,0,.14-.01,.22-.02,.08,0,.15-.02,.21-.02,.06,0,.11-.02,.12-.02h.86c.13,0,.27,0,.41,0,.14,0,.29,.01,.46,.02h.13s.03,.02,.08,.02c.04,0,.09,.02,.15,.02,.05,0,.1,.02,.15,.03s.08,.02,.11,.03c.17,.03,.29,.07,.36,.12,.07,.04,.11,.11,.13,.18,.02,.08,.03,.17,.04,.29,0,.11,.02,.25,.05,.42,.35-.32,.71-.57,1.1-.77s.78-.34,1.18-.45c.41-.1,.82-.16,1.25-.19s.87-.02,1.32,0c.12,0,.25,.01,.39,.04,.14,.03,.28,.06,.42,.1,.14,.04,.28,.09,.41,.15,.13,.06,.25,.11,.36,.17,.07,.05,.17,.12,.29,.21,.12,.09,.23,.18,.35,.27,.11,.09,.21,.18,.3,.24,.09,.07,.13,.1,.14,.1,.23,.17,.43,.37,.6,.59,.18,.22,.33,.46,.45,.71,.13,.25,.23,.52,.32,.79,.09,.28,.16,.55,.21,.82,.03,.03,.05,.12,.09,.25,.03,.13,.06,.28,.09,.45,.03,.17,.05,.34,.07,.51,.02,.17,.03,.31,.03,.4v.45c0,.13,0,.27,0,.43,0,.15,0,.3,.01,.43,0,.13,0,.21,0,.24v2.45s-.03,.07-.04,.15c0,.07-.02,.15-.03,.23-.01,.08-.02,.16-.03,.23,0,.07-.01,.13-.01,.16v.27c-.02,.15-.02,.35-.02,.59s0,.5,0,.77c0,.27,0,.55,0,.83v.78c0,.24,0,.44,0,.6,0,.16,0,.26,0,.31v.4c0,.09,0,.17,0,.25,0,.08,0,.12,0,.14v.12c-.01,.09-.06,.14-.16,.16-.1,.02-.19,.03-.25,.04-.02,0-.06,0-.1,0-.04,0-.09,.01-.14,.02-.05,0-.09,.01-.13,.02-.04,0-.06,.01-.07,.02h-.5c-.11,0-.22,0-.32,0-.1,0-.16,.01-.18,.02-.38,.02-.74,.04-1.07,.07s-.69,.03-1.09,.02c-.15,0-.25-.05-.31-.12-.06-.07-.09-.15-.11-.25-.02-.1-.02-.2-.01-.31s.01-.21,.01-.31v-.29c0-.15,0-.32,0-.52,0-.2,0-.41,0-.63s0-.44,0-.63c0-.2,0-.37,0-.51v-3.12c.03-.28,.03-.61,.01-.99-.02-.37-.05-.76-.12-1.16-.06-.4-.15-.79-.25-1.17-.11-.38-.24-.72-.39-1.02-.16-.3-.33-.53-.54-.7-.2-.17-.43-.24-.68-.22l-.43-.02c-.29,0-.52,.02-.7,.1-.18,.07-.4,.18-.65,.33-.02,0-.03,.01-.05,.03-.02,.02-.02,.04-.02,.05-.23,.17-.42,.41-.58,.73-.16,.31-.29,.67-.4,1.06-.11,.39-.2,.81-.27,1.26-.07,.44-.13,.88-.18,1.31,0,.04-.02,.14-.04,.31-.02,.16-.03,.34-.05,.54-.02,.2-.04,.4-.05,.6-.01,.2-.02,.35-.03,.46,0,0,0,.05,0,.12,0,.07,0,.16-.02,.26,0,.1-.02,.2-.02,.3,0,.1-.01,.18-.01,.23,0,.04,0,.11,0,.2,0,.09,0,.19,0,.29s0,.2,0,.29c0,.09,0,.15,0,.18v1.83s0,.07,.02,.15c.02,.07,.03,.12,.03,.15,0,0,0,.03,0,.07s0,.08,0,.12v.2c0,.07,0,.14,.01,.23,0,.09,0,.18-.01,.26-.02,.09-.05,.16-.1,.21-.05,.06-.14,.08-.28,.07-.19,0-.39-.01-.62,0-.22,0-.46,.01-.7,.02-.24,0-.49,.01-.74,.02-.25,0-.49,0-.72-.03Z"/><path class="cls-15" d="M279.93,86.06c.14-.37,.28-.72,.43-1.05,.15-.33,.29-.66,.42-.98,.13-.32,.26-.63,.37-.93,.11-.31,.21-.61,.29-.92v-.05l.12-.55s.04-.04,.09-.07c.05-.03,.08-.06,.08-.09,0-.02,0-.05,.03-.1l.06-.16c.02-.05,.04-.11,.06-.16,.02-.05,.04-.09,.04-.1,.02-.1,.05-.19,.07-.27s.02-.17,0-.26l-.24-.56c-.05-.28-.15-.55-.29-.81-.15-.26-.29-.51-.43-.76l-.28-.4s-.02-.04-.02-.06v-.04c-.14-.2-.26-.4-.37-.6s-.21-.42-.3-.62-.2-.42-.3-.62c-.1-.21-.21-.41-.33-.62-.04-.05-.11-.15-.21-.31s-.21-.33-.32-.51c-.12-.18-.23-.36-.34-.53s-.18-.3-.23-.38c-.29-.44-.56-.88-.82-1.33-.26-.45-.53-.9-.79-1.35-.26-.45-.53-.9-.8-1.34-.27-.44-.56-.88-.85-1.31,0,0-.01-.02-.01-.02v-.05c-.02-.11,.03-.2,.16-.29,.02,0,.04,0,.07-.01s.06-.02,.07-.02c.02,0,.04-.03,.08-.08,.04-.05,.06-.09,.08-.12,.02,0,.06,0,.12-.01,.07,0,.13-.02,.2-.03s.14-.02,.2-.04,.11-.02,.12-.03c.04,0,.15-.04,.33-.09,.18-.05,.37-.1,.58-.16,.21-.06,.4-.12,.58-.17,.18-.05,.29-.09,.34-.1,.02,0,.03,0,.05-.01,.02,0,.03,0,.04,0,.01,0,.02,0,.03,0,.03,0,.06,0,.09-.01,.02,0,.04,0,.06-.01,.04,0,.1-.02,.18-.02,.08,0,.16-.02,.24-.02,.08,0,.15-.01,.22-.01h.13s.06,0,.1,.02c.04,.02,.09,.04,.13,.07,.02,.04,.07,.11,.12,.21s.12,.2,.18,.31c.06,.11,.12,.21,.18,.31,.06,.1,.1,.17,.13,.21,.26,.46,.54,.91,.84,1.34s.59,.87,.87,1.34c0,.02,.03,.05,.05,.12,.03,.06,.06,.12,.1,.19,.04,.07,.07,.13,.1,.18,.03,.06,.05,.09,.05,.1,0,0,.02,.03,.04,.06,.02,.03,.04,.07,.06,.1s.04,.07,.06,.11,.03,.06,.04,.08c.02,.02,.07,.1,.15,.22,.09,.12,.18,.25,.27,.4,.1,.14,.19,.28,.28,.4,.09,.13,.15,.21,.17,.24,.02,.03,.06,.12,.13,.26,.07,.14,.15,.29,.24,.45,.09,.16,.17,.31,.24,.45,.07,.14,.12,.23,.15,.26,0,.02,.01,.04,.04,.07,.03,.03,.05,.05,.07,.07,.02-.08,.03-.18,.04-.3,.01-.12,.03-.21,.04-.27,.06-.38,.14-.75,.23-1.11,.09-.36,.19-.72,.32-1.09,.07-.23,.15-.45,.26-.68,.11-.22,.19-.45,.26-.68,.11-.34,.24-.71,.38-1.11,.14-.4,.27-.76,.39-1.09,0-.02,.03-.08,.06-.16,.03-.08,.07-.17,.11-.27s.08-.19,.11-.27c.03-.08,.05-.13,.06-.16,.03-.1,.06-.18,.08-.26,.02-.07,.04-.14,.07-.21,.02-.06,.06-.13,.1-.19,.04-.06,.09-.13,.16-.2,0,0,.03,0,.08-.01,.04,0,.09-.02,.14-.03s.1-.02,.14-.04,.08-.02,.09-.03c.21-.03,.42-.05,.62-.05,.2,0,.41,0,.62,0,.04,0,.13,0,.26-.01,.13,0,.27-.01,.43-.02,.15,0,.3,0,.43,0h.26c.07,0,.18-.01,.34-.02,.16,0,.33,0,.51,0h.51c.16,0,.27,0,.34,.01,.04,.02,.1,.05,.18,.09,.08,.04,.13,.09,.15,.14,0,.07,0,.16,0,.25,0,.09-.03,.19-.05,.28-.03,.09-.05,.18-.07,.27-.02,.09-.04,.16-.06,.21-.11,.4-.21,.78-.32,1.15-.11,.37-.23,.73-.35,1.09-.12,.36-.25,.72-.39,1.07-.14,.36-.29,.72-.45,1.09-.28,.62-.54,1.28-.78,1.98-.24,.7-.47,1.37-.69,2-.09,.27-.2,.56-.34,.87-.14,.31-.28,.59-.42,.84-.09,.16-.17,.33-.24,.49-.07,.17-.12,.33-.17,.49-.03,.15-.06,.27-.08,.38-.02,.11-.05,.21-.08,.31-.03,.1-.07,.2-.12,.31-.04,.11-.1,.23-.15,.38-.02,.05-.04,.14-.05,.27,0,.13,0,.23,0,.29,0,.02-.02,.07-.05,.15-.04,.08-.06,.13-.08,.15,0,0-.01,.03-.04,.05-.03,.03-.06,.06-.09,.1-.04,.04-.07,.07-.1,.1-.03,.03-.05,.05-.05,.05,0,.02,0,.05-.03,.12-.02,.06-.03,.13-.05,.2-.02,.07-.04,.13-.05,.2-.01,.06-.02,.1-.02,.12-.03,.04-.06,.12-.1,.23-.04,.11-.09,.23-.14,.35s-.09,.24-.13,.35-.07,.19-.1,.23c.02,.19,.02,.33,0,.44-.01,.11-.08,.24-.2,.39l-1.11,3.33s-.03,.06-.05,.12c-.03,.05-.06,.11-.1,.16-.04,.05-.08,.1-.12,.14-.04,.04-.08,.06-.11,.07-.07,.02-.16,.03-.27,.04-.11,0-.2,0-.26-.01-.02,0-.05,0-.1,0-.05,0-.11,.02-.18,.03s-.14,.02-.2,.03c-.06,0-.12,0-.17-.01-.03,0-.07-.02-.12-.02-.05,0-.08,0-.11,0-.04,0-.12-.02-.24-.04-.12-.02-.25-.04-.4-.07s-.28-.05-.41-.07c-.13-.02-.22-.03-.26-.03-.04,0-.11,.01-.2,.01h-.16s-.06,0-.13-.02-.15-.02-.24-.03c-.09,0-.17-.02-.25-.02-.08,0-.12-.01-.13-.01-.05,0-.11-.01-.18-.04s-.13-.08-.18-.16c-.04-.08-.07-.2-.06-.34,0-.15,.06-.35,.17-.6Z"/><path class="cls-15" d="M297.96,81.86c-.06-.02-.14-.03-.26-.05-.11-.02-.26-.05-.43-.08,0,0-.04,0-.11-.02-.07-.01-.14-.03-.24-.06-.09-.03-.19-.07-.29-.12s-.19-.11-.27-.18c-.02,0-.05-.02-.1-.04-.05-.02-.11-.04-.18-.07-.07-.03-.12-.05-.18-.07-.05-.02-.09-.03-.1-.04-.15-.06-.29-.13-.42-.23-.13-.1-.26-.2-.38-.31-.12-.11-.24-.21-.35-.32-.11-.11-.22-.21-.32-.31-.39-.37-.74-.75-1.05-1.16-.31-.41-.57-.85-.79-1.34-.18-.39-.32-.75-.43-1.07-.11-.32-.19-.64-.24-.95-.06-.31-.1-.64-.12-.97-.02-.33-.03-.72-.03-1.15v-.92c.11-.46,.23-.9,.37-1.31,.14-.41,.31-.8,.51-1.18,.2-.37,.43-.73,.69-1.07,.26-.34,.57-.67,.92-.99,.25-.24,.51-.46,.78-.63,.27-.18,.56-.34,.87-.49,.02,0,.06-.02,.1-.05s.09-.05,.15-.07c.05-.02,.1-.04,.14-.05,.04-.02,.07-.03,.08-.04,.02,0,.08,0,.18-.02s.15-.02,.17-.02c.02-.02,.07-.05,.15-.1,.07-.05,.12-.09,.13-.1,0,0,.03,0,.08-.01,.04,0,.09-.02,.14-.03s.09-.02,.13-.03c.04,0,.06-.02,.07-.02,.03,0,.11-.03,.22-.05,.11-.03,.24-.06,.37-.09,.13-.03,.25-.06,.37-.09,.12-.03,.19-.04,.23-.04,.07-.02,.18-.05,.35-.07,.17-.02,.35-.04,.55-.05,.2-.02,.38-.03,.56-.05,.17-.02,.3-.03,.38-.04h.15s.08,0,.13,0c.04,0,.08,0,.1,0,.18,0,.34,.02,.49,.02,.15,0,.3,.03,.46,.07,.23,.06,.46,.11,.7,.16,.24,.05,.47,.09,.7,.12,.06,.02,.15,.07,.29,.13,.13,.07,.28,.14,.43,.22,.15,.08,.29,.16,.42,.23,.13,.07,.22,.13,.27,.16,.02,.02,.09,.08,.19,.18,.1,.1,.21,.21,.34,.34s.24,.24,.35,.37c.11,.12,.2,.22,.26,.28,0,.02,.03,.05,.07,.11,.04,.06,.09,.12,.14,.2,.05,.08,.11,.15,.16,.23,.05,.07,.1,.13,.13,.18,.29,.45,.54,.89,.73,1.33s.34,.89,.46,1.34,.2,.92,.25,1.39c.05,.48,.08,.97,.08,1.48v.05c-.02,.14-.03,.33-.05,.57-.02,.24-.04,.48-.06,.71-.02,.24-.04,.45-.05,.63-.02,.19-.03,.3-.04,.33-.06,.42-.14,.81-.26,1.18-.12,.37-.26,.74-.43,1.11-.16,.2-.28,.36-.37,.49s-.19,.26-.29,.39c-.1,.13-.21,.26-.33,.42-.13,.15-.3,.34-.52,.57-.29,.21-.59,.41-.91,.59-.32,.18-.65,.33-.99,.46-.34,.13-.69,.23-1.04,.31-.35,.07-.7,.1-1.04,.09h-.17c-.08,0-.16,0-.26,0-.09,0-.18,0-.26-.01-.08,0-.13,0-.16,0-.02-.02-.04-.03-.09-.05-.04-.02-.07-.02-.09-.02-.02,0-.05,0-.11,.01-.06,0-.12,.02-.19,.03-.07,.01-.13,.02-.2,.03-.06,0-.1,0-.12,0-.03,0-.11,0-.23-.02-.12-.01-.25-.03-.38-.05-.14-.02-.27-.04-.38-.05-.12-.02-.19-.03-.21-.04h-.12l-.31-.09Zm-1.6-8.39c0,.23,.03,.45,.06,.67,.03,.22,.09,.44,.18,.65,0,.02,.02,.06,.06,.13,.04,.07,.06,.12,.06,.13,.03,.11,.06,.22,.1,.34,.03,.12,.07,.24,.1,.37,.04,.12,.08,.24,.13,.35,.05,.11,.11,.22,.18,.31,.02,.02,.07,.07,.12,.13s.11,.12,.17,.18c.06,.06,.11,.12,.16,.17,.05,.05,.08,.08,.1,.09,0,0,.03,.03,.08,.06,.04,.03,.1,.07,.16,.1,.06,.04,.12,.08,.18,.12,.06,.04,.11,.07,.15,.09l.12,.09s.08,.05,.16,.11c.08,.06,.13,.09,.15,.09,.02,.02,.06,.03,.12,.05,.06,.02,.12,.03,.16,.03,.17,.08,.3,.13,.38,.14,.08,.01,.16,.01,.22,0,.06-.01,.13-.02,.2-.04s.18,0,.32,.02c0,0,.04,0,.09,0,.05,0,.1-.01,.16-.02l.17-.02c.06,0,.1-.02,.13-.02,.38-.06,.74-.19,1.07-.39,.33-.2,.62-.46,.87-.76,.25-.3,.44-.64,.58-1.01,.14-.37,.21-.75,.21-1.13,0-.02,0-.12,0-.3,0-.17,.02-.48,.05-.92,0-.21-.04-.42-.13-.62-.09-.2-.16-.41-.23-.62-.11-.33-.3-.6-.55-.82-.26-.22-.52-.43-.8-.62-.17-.11-.33-.21-.47-.29-.14-.08-.29-.14-.43-.19s-.3-.09-.46-.11c-.16-.02-.34-.04-.54-.05-.19,0-.35-.01-.49,0-.14,0-.3,.03-.49,.07-.2,.04-.42,.1-.63,.17s-.43,.16-.63,.27c-.2,.11-.38,.24-.54,.4-.16,.15-.27,.33-.35,.54l-.21,.59c-.05,.07-.09,.16-.13,.28-.04,.12-.07,.25-.1,.4-.02,.14-.04,.28-.04,.43s.01,.27,.04,.38Z"/><path class="cls-15" d="M309.45,76.45c-.02-.08-.04-.21-.08-.38-.04-.17-.08-.35-.13-.54-.04-.19-.08-.37-.12-.54-.04-.17-.06-.29-.07-.38,0-.03-.01-.1-.02-.21s-.01-.23-.02-.35c0-.13-.01-.24-.02-.35s0-.18-.02-.2c0-.04,0-.09,0-.16,0-.06-.01-.13-.02-.2,0-.06-.02-.13-.02-.18,0-.06-.02-.1-.03-.12l-.05-.12s-.01-.06-.01-.13v-.23c0-.08,0-.15,0-.22,0-.06,0-.11,0-.12-.02-.2-.03-.44-.03-.7,0-.26,0-.52-.01-.79,0-.26,0-.52,0-.78v-.68c0-.28,0-.54,0-.78,0-.23,0-.45,.02-.66,0-.21,.02-.41,.04-.6,.02-.19,.04-.39,.07-.59,.02-.09,.1-.16,.26-.23,.16-.06,.31-.09,.46-.09h.57c.08,0,.18,0,.31,.02,.13,.02,.25,.03,.38,.05,.13,.02,.24,.04,.34,.05,.1,.02,.15,.03,.17,.04,.02,0,.07,0,.17,.01,.1,0,.2,.02,.31,.03,.11,.01,.21,.02,.31,.04s.16,.02,.18,.03c.02,0,.08,.01,.18,.02,.09,0,.2,0,.31,0s.21,0,.31,0c.1,0,.16,.01,.2,.02,.05,.04,.08,.08,.1,.11,.02,.03,.03,.06,.04,.09,0,.03,0,.07,0,.11,0,.04,0,.1,0,.16v.5c-.04,.31-.07,.6-.07,.89,0,.28-.01,.58-.01,.91,0,.52,.01,1.04,.03,1.54,.02,.51,.02,1.06,0,1.67l.07,.66v.2c.04,.2,.07,.41,.08,.62,.02,.21,.04,.43,.06,.64,.02,.22,.05,.43,.08,.65,.03,.22,.09,.43,.16,.64l.07,.16c.03,.07,.06,.14,.09,.21s.06,.14,.08,.2c.03,.06,.04,.1,.05,.1,.06,.15,.15,.29,.28,.4,.13,.11,.27,.21,.41,.29,.14,.08,.28,.14,.4,.19,.13,.04,.21,.07,.25,.08,.02,0,.07,.03,.17,.07s.17,.06,.21,.08c.02,.02,.08,.02,.17,0,.08-.01,.14-.02,.15-.02,.15,0,.34-.03,.58-.08,.24-.05,.49-.16,.75-.34,.3-.33,.52-.66,.67-.99,.14-.33,.24-.68,.29-1.03,.05-.35,.07-.71,.07-1.09s-.01-.78-.01-1.2v-.4s0-.15,0-.32-.01-.36-.02-.56c0-.2-.01-.38-.02-.56s0-.28,0-.32v-1.21s-.02-.12-.03-.24c-.01-.12-.03-.27-.06-.43-.02-.17-.05-.34-.07-.53-.03-.19-.05-.36-.07-.52-.02-.16-.04-.3-.06-.42-.02-.12-.02-.2-.02-.24l.12-1.05c.03-.06,.08-.1,.15-.12,.07-.02,.14-.03,.23-.04,.08,0,.16,0,.24,0,.08,0,.14,0,.2,0,0,0,.03,0,.08-.01,.04,0,.09-.02,.14-.02,.05,0,.09-.02,.13-.02,.04,0,.06-.01,.07-.01l1.49,.11s.09,.03,.18,.03c.1,0,.2,0,.31,0h.31c.1,0,.15,0,.17,.01,.05,0,.12-.02,.23-.02,.1,0,.21-.01,.32-.02,.11,0,.21,0,.31-.01,.09,0,.16,0,.19,0l.15,.05c.1,0,.17,.04,.23,.12,.05,.08,.09,.18,.12,.31,.03,.13,.05,.27,.05,.45,0,.17,.01,.35,.01,.55v.23c0,.16,0,.33-.03,.49-.02,.16-.03,.33-.05,.49,0,.05-.01,.16-.01,.34s0,.36,0,.56,0,.38,0,.56,0,.29-.01,.34c0,.03,0,.12-.03,.25s-.04,.28-.07,.43c-.02,.15-.05,.3-.07,.43s-.03,.22-.04,.25c0,.04,0,.14-.02,.29-.01,.15-.03,.33-.04,.52-.02,.19-.03,.38-.05,.56s-.04,.32-.04,.42c0,.02,0,.06-.02,.14-.01,.08-.03,.16-.04,.24-.02,.09-.03,.17-.05,.24-.02,.08-.03,.12-.04,.14v.3c0,.07,0,.13,0,.2,0,.06-.01,.1-.02,.1,0,0,0,.03-.02,.07-.01,.04-.03,.09-.04,.13-.02,.05-.03,.1-.04,.14-.01,.04-.02,.07-.02,.08-.07,.31-.13,.6-.18,.86-.04,.26-.09,.52-.13,.77-.04,.25-.1,.5-.16,.76-.06,.26-.14,.54-.25,.84-.06,.17-.16,.37-.29,.59-.14,.22-.29,.44-.45,.65-.16,.22-.31,.42-.46,.6s-.27,.32-.36,.4c-.11,.15-.25,.29-.44,.4-.19,.11-.39,.21-.61,.29-.22,.09-.44,.16-.66,.23-.22,.07-.41,.13-.56,.19-.26,.11-.53,.17-.8,.19-.27,.02-.55,.03-.82,.03-.24,0-.49,0-.74,0-.25,0-.5,0-.75-.01-.25-.01-.5-.04-.75-.09s-.49-.12-.71-.22c-.48-.21-.93-.46-1.35-.74-.42-.28-.84-.59-1.25-.93-.05-.04-.11-.1-.19-.19s-.16-.17-.24-.26c-.09-.09-.17-.17-.26-.25-.08-.08-.16-.13-.21-.15,.03,.02,.02-.04-.04-.18s-.14-.35-.26-.61c-.04-.09-.09-.22-.15-.4-.06-.18-.11-.37-.17-.58-.05-.21-.1-.41-.15-.61-.04-.2-.08-.36-.09-.48Z"/><path class="cls-15" d="M200.1,112.31s.02-.11,.07-.2c.04-.09,.09-.13,.13-.13h2.23s.07,.03,.14,.05c.07,.02,.11,.02,.13,.02h.16s.1,0,.2,0c.1,0,.21,0,.33-.01,.12,0,.23,0,.33-.01,.1,0,.17-.01,.2-.02h.07s.11,.05,.2,.09,.14,.05,.16,.05c.1,.06,.17,.12,.23,.18,.05,.05,.11,.13,.18,.23,0,.02,.02,.05,.04,.1,.02,.05,.04,.11,.07,.18,.03,.07,.06,.14,.09,.2,.03,.06,.06,.11,.09,.15,.09,.24,.26,.46,.52,.63,.26,.18,.59,.29,.99,.34h.07c.46,.06,.79,.1,1.01,.1s.38-.02,.51-.06c.41-.07,.82-.17,1.23-.31,.41-.14,.78-.36,1.09-.64,.15-.14,.29-.3,.4-.49,.11-.19,.21-.39,.28-.6,.07-.22,.13-.44,.17-.67,.04-.23,.06-.46,.06-.68v-.22c-.28,.21-.59,.36-.95,.46-.36,.09-.7,.17-1.03,.24-.49,.1-.95,.17-1.38,.22s-.91,.07-1.41,.07c-.04,0-.11,0-.21-.01-.1,0-.2-.02-.31-.03-.11-.01-.21-.02-.31-.04s-.16-.02-.2-.02c-.48-.07-.96-.21-1.43-.42-.47-.2-.9-.46-1.29-.76-.03-.02-.09-.06-.17-.1-.08-.04-.17-.09-.26-.13-.09-.04-.18-.09-.27-.13-.09-.04-.14-.09-.18-.13-.05-.04-.12-.11-.21-.2-.09-.09-.19-.18-.29-.28s-.19-.19-.27-.27c-.08-.08-.13-.13-.16-.16-.19-.23-.33-.45-.44-.68-.11-.22-.21-.46-.33-.71-.3-.67-.49-1.33-.58-1.99-.08-.66-.13-1.35-.13-2.06-.02-.23-.02-.43-.02-.6,0-.17,.02-.33,.05-.49,.03-.15,.07-.31,.12-.46,.05-.15,.12-.32,.2-.51,0,0,.01-.06,.04-.16,.03-.1,.06-.21,.1-.33s.08-.25,.12-.37c.04-.13,.08-.23,.11-.31,.11-.28,.2-.51,.28-.69,.08-.17,.17-.33,.26-.46s.19-.27,.3-.4c.11-.13,.26-.29,.43-.49,.02-.02,.06-.06,.12-.12,.05-.06,.11-.12,.17-.18,.06-.06,.12-.12,.17-.17,.05-.05,.09-.09,.12-.1,0,0,.07-.04,.18-.1,.11-.06,.24-.13,.38-.22s.29-.17,.44-.26c.15-.09,.26-.16,.33-.21,.11-.06,.26-.12,.43-.16,.17-.04,.31-.08,.43-.1,.45-.09,.86-.16,1.25-.22,.39-.06,.81-.09,1.26-.09,.28,0,.56,.02,.86,.06,.3,.04,.6,.09,.9,.15s.6,.13,.88,.2,.57,.14,.84,.21c.14,.09,.28,.15,.42,.18,.14,.03,.28,.07,.41,.12,.02,0,.03,0,.05,.02l.03,.02c.07,.1,.15,.21,.24,.32,.09,.12,.2,.2,.33,.25v-.05c0-.26,0-.48,.01-.65,0-.17,.01-.39,.01-.65v-.12l.15-.09s.04,0,.11,0c.07,0,.14,0,.23,0s.18,0,.27,0c.09,0,.16,0,.21,0,.07,0,.18,0,.32,0,.14,0,.28,0,.41,0s.26,0,.37,0c.11,0,.17,0,.19,0,.02,0,.06,0,.15,.01,.08,0,.17,.02,.26,.02,.09,0,.18,.02,.27,.02,.08,0,.14,.02,.16,.02h.13c.11,0,.21,.02,.29,.05,.08,.03,.13,.05,.16,.05,.16,.02,.29,.06,.37,.1,.08,.04,.13,.14,.13,.29,0,.16-.01,.32-.04,.48-.03,.15-.04,.31-.04,.48v.02s.01,.04,.04,.07c.02,.03,.04,.06,.04,.07v.02c0,.11-.01,.22-.04,.32-.03,.1-.04,.22-.04,.35,0,.54,.02,1.07,.05,1.59,.04,.52,.08,1.05,.13,1.57s.09,1.05,.13,1.57c.04,.52,.05,1.05,.05,1.58,0,.48-.03,.95-.08,1.41-.05,.46-.1,.93-.14,1.41v.43c-.09,1.04-.26,2.06-.5,3.06s-.61,1.96-1.1,2.89l-.05,.05s-.02,.03-.02,.04c-.24,.33-.48,.65-.75,.98s-.55,.61-.88,.84c-.07,.04-.17,.11-.31,.2-.14,.09-.28,.19-.43,.29s-.29,.19-.42,.27c-.13,.09-.22,.14-.26,.16,0,0-.03,.02-.07,.03s-.09,.03-.15,.04c-.06,.02-.12,.03-.18,.05-.06,.02-.11,.04-.14,.05-.03,.02-.07,.03-.12,.04-.06,0-.09,.02-.11,.04-.02,0-.05,0-.09,.01-.04,0-.09,.02-.15,.02-.05,0-.1,.02-.15,.02-.04,0-.08,.02-.09,.02,0,0-.04,0-.08,.02-.02,0-.04,.02-.06,.02h-.07s-.1,0-.24,.01c-.13,0-.28,.02-.43,.03s-.29,.02-.43,.04c-.13,.01-.21,.02-.24,.03-.02,0-.06,0-.14,0-.08,0-.16,0-.24-.01-.08,0-.17,0-.24-.01-.08,0-.12,0-.14,0-.23,.02-.43,0-.59-.02-.17-.03-.36-.06-.59-.09-.17,0-.36-.02-.56-.05-.2-.03-.41-.07-.62-.12-.21-.05-.42-.1-.62-.16-.2-.06-.39-.11-.55-.16-.29-.08-.54-.17-.75-.26-.22-.09-.42-.2-.62-.31-.2-.11-.39-.24-.58-.38-.19-.14-.41-.31-.64-.49l-.05-.05c-.21-.26-.42-.49-.62-.7-.2-.2-.37-.46-.49-.77-.02-.02-.04-.09-.07-.2-.03-.11-.06-.18-.07-.23-.07-.2-.12-.39-.18-.57-.05-.18-.11-.36-.18-.55v-.02Zm4.21-7.52s0,.05,.02,.1c.02,.05,.03,.09,.05,.1,.02,.04,.02,.11,.02,.21,0,.1,.01,.19,.05,.25,.06,.12,.14,.26,.24,.43,.11,.16,.22,.32,.35,.48,.13,.16,.27,.31,.41,.44s.29,.23,.43,.27c0,0,.04,0,.08,.02,.04,.01,.1,.02,.16,.04,.06,.01,.12,.02,.18,.04,.06,.01,.1,.02,.13,.03,.25,.07,.5,.11,.74,.12,.24,.02,.49,.02,.74,.02s.54-.02,.85-.05c.3-.03,.6-.09,.88-.18,.28-.09,.54-.22,.77-.38,.23-.16,.41-.37,.53-.63,0-.03,.03-.09,.06-.17,.03-.08,.07-.17,.1-.26,.04-.09,.07-.17,.1-.26,.03-.08,.06-.14,.07-.17,.19-.57,.26-1.12,.21-1.65-.04-.53-.14-1.06-.28-1.6,0-.1-.02-.19-.07-.28-.04-.09-.09-.18-.14-.27-.02-.03-.05-.09-.1-.16-.05-.08-.1-.16-.15-.26-.05-.09-.1-.18-.15-.26-.05-.08-.08-.14-.1-.17-.21-.2-.42-.35-.61-.46s-.39-.19-.6-.24-.42-.08-.65-.08c-.23,0-.48,0-.75,.03-.53,0-1.01,.14-1.45,.43-.44,.28-.82,.64-1.14,1.07s-.57,.9-.75,1.4c-.18,.51-.27,.99-.27,1.43v.6Z"/><path class="cls-15" d="M218.09,92.96v-.35c0-.13,.03-.25,.08-.36,.09-.17,.17-.34,.24-.49,.07-.16,.17-.31,.31-.45,.03-.03,.08-.08,.15-.13,.07-.05,.14-.11,.21-.16,.07-.05,.13-.1,.2-.15,.06-.04,.1-.08,.12-.09,.09-.07,.19-.12,.29-.15,.1-.03,.21-.04,.32-.05,.11,0,.22,0,.33,0,.11,0,.22,.01,.33,.01,.14,0,.25,.02,.35,.05,.09,.04,.21,.08,.35,.14,.07,.02,.15,.05,.26,.12s.2,.12,.26,.16c.33,.23,.61,.5,.84,.82,.23,.32,.37,.7,.41,1.14,0,.26,0,.48-.03,.66-.02,.18-.05,.34-.11,.49-.06,.15-.14,.29-.26,.43-.12,.13-.27,.28-.46,.45-.18,.15-.4,.29-.66,.4-.26,.11-.51,.17-.75,.17-.02,0-.07,0-.13,0-.06,0-.13-.01-.2-.02-.07,0-.13-.02-.19-.02-.06,0-.09-.02-.11-.02-.04,0-.09-.02-.16-.04-.07-.02-.13-.04-.2-.06s-.13-.04-.18-.06c-.06-.02-.09-.03-.11-.04-.02,0-.05-.03-.11-.05-.06-.03-.12-.06-.2-.09-.07-.03-.14-.05-.21-.08-.07-.02-.11-.04-.12-.06-.19-.15-.34-.29-.45-.45-.11-.15-.2-.31-.26-.48-.06-.17-.1-.35-.13-.54-.02-.2-.04-.42-.04-.66Zm.33,9.36c0-.06,0-.21-.01-.45,0-.24-.01-.51-.02-.81,0-.3-.01-.6-.02-.91s-.01-.55-.01-.74c0-.02,.02-.07,.02-.13,0-.06,.02-.14,.02-.21,0-.08,.01-.15,.02-.21,0-.06,0-.11,0-.13v-1.48c.05-.07,.14-.13,.27-.16,.13-.04,.23-.05,.3-.05h3.49c.06,.02,.12,.04,.18,.05,.05,0,.1,.03,.14,.08,.04,.04,.07,.12,.1,.24,.03,.11,.04,.29,.04,.54,0,.02,.02,.05,.02,.1,0,.05,.02,.11,.02,.17s.01,.12,.02,.17c0,.05,0,.09,0,.1,0,.11,0,.32,.02,.62,.01,.3,.02,.62,.04,.96,.01,.34,.02,.66,.04,.96,.01,.3,.02,.51,.02,.62,0,.07,0,.21,.02,.44,.02,.23,.04,.47,.06,.73,.02,.26,.04,.51,.06,.74,.02,.23,.02,.38,.02,.43,0,.07,0,.21,.01,.42,0,.21,.02,.45,.04,.72,.02,.27,.03,.56,.05,.87,.02,.31,.03,.6,.05,.88,.02,.28,.03,.52,.04,.73s.02,.34,.02,.41c0,.12,.01,.31,.01,.57s0,.54,0,.82c0,.29,0,.56,.02,.82,0,.26,.02,.45,.04,.57v.17c.04,.32,.02,.56-.07,.73-.09,.17-.25,.23-.5,.18l-3.87-.02c-.19,0-.31-.05-.38-.16-.07-.11-.11-.25-.13-.43-.02-.17-.03-.38-.03-.61s-.02-.47-.05-.71c-.02-.18-.02-.38-.02-.59s0-.43,0-.65c0-.22,0-.43,.01-.64,0-.21,0-.41,0-.59-.03-.47-.04-.92-.06-1.34-.02-.42-.03-.83-.04-1.25,0-.41-.01-.83-.02-1.25,0-.42,0-.87,0-1.33Z"/><path class="cls-15" d="M224.13,96.84v-.05s0-.04,.01-.05c0-.02,0-.05,.01-.07,.02-.04,.07-.08,.16-.12s.16-.06,.2-.08h.07c.06,0,.12,0,.16-.01,.04,0,.1-.01,.17-.01h.06c.59-.05,1.17-.08,1.75-.09,.58,0,1.16-.01,1.75-.01,.21,0,.39,.07,.53,.22s.26,.3,.35,.45c.03,.06,.06,.13,.12,.23,.05,.09,.11,.19,.16,.28,.05,.09,.1,.18,.14,.26,.04,.08,.06,.12,.07,.14,.02,.02,.04,.05,.06,.1,.02,.05,.04,.09,.04,.1,.11,.28,.23,.55,.35,.83,.12,.28,.25,.55,.38,.81,.07,.14,.13,.27,.19,.4,.06,.13,.12,.27,.18,.42,.02,.02,.03,.07,.04,.15,.01,.08,.03,.13,.04,.15,0,.02,.03,.04,.06,.09,.03,.04,.06,.09,.08,.13,.03,.05,.06,.1,.09,.14,.03,.04,.05,.07,.05,.08,.02,.02,.03,.06,.05,.12,.02,.07,.03,.11,.03,.12,.12,.33,.26,.66,.43,.98,.16,.32,.35,.63,.55,.93,0,.02,.03,.05,.1,.1,.06,.05,.11,.09,.12,.1,0,.02,0,.04,.03,.09,.02,.04,.03,.07,.05,.09h.08c.23-.43,.42-.87,.59-1.31s.36-.87,.6-1.31c.03-.06,.09-.17,.17-.32,.08-.15,.17-.31,.26-.47,.09-.16,.18-.32,.27-.46s.14-.24,.17-.29c.24-.4,.46-.8,.66-1.2,.2-.4,.41-.81,.61-1.23,.03-.06,.07-.16,.1-.27,.04-.12,.08-.23,.13-.35,.05-.11,.11-.21,.18-.3,.07-.09,.15-.13,.24-.13,.24,0,.49,.03,.76,.08,.27,.05,.52,.08,.76,.08h2.66c.24,.04,.38,.13,.43,.28s.05,.33,.01,.55l-.08,.43c-.02,.07-.05,.19-.11,.36-.06,.18-.12,.36-.18,.56s-.13,.38-.18,.56c-.06,.18-.1,.31-.12,.38,0,.02-.02,.06-.04,.12-.02,.07-.05,.14-.08,.21-.03,.08-.06,.15-.09,.23-.03,.07-.05,.13-.07,.17-.14,.3-.26,.61-.37,.93s-.24,.63-.39,.93c-.02,.03-.07,.11-.13,.23-.06,.12-.13,.26-.21,.42-.08,.16-.17,.33-.26,.51-.09,.18-.18,.36-.26,.52-.08,.16-.15,.31-.21,.43s-.1,.2-.12,.24c0,.02-.03,.07-.05,.13-.03,.07-.06,.13-.09,.21-.03,.07-.06,.14-.09,.21-.03,.07-.05,.1-.05,.11-.02,.03-.05,.11-.12,.23-.06,.12-.13,.24-.2,.38-.07,.13-.13,.26-.19,.37-.06,.11-.09,.18-.1,.21,0,.02-.02,.05-.04,.1-.02,.05-.03,.1-.05,.16-.02,.06-.03,.12-.04,.17-.01,.05-.02,.08-.02,.09-.02,.02-.04,.04-.07,.08-.03,.04-.06,.06-.07,.08-.14,.22-.26,.44-.37,.66s-.21,.44-.3,.67c-.09,.23-.19,.46-.28,.68-.09,.23-.2,.46-.32,.7-.02,.06-.08,.18-.18,.36s-.21,.38-.33,.59c-.12,.21-.23,.4-.33,.59-.1,.18-.17,.3-.19,.35-.05,.09-.1,.21-.14,.35-.04,.14-.12,.25-.24,.31-.37-.06-.74-.11-1.12-.13-.38-.02-.75-.03-1.12-.03-.19,0-.32,0-.41,.01-.09,0-.21,.03-.37,.07-.02,0-.04,.01-.08,.04-.04,.02-.07,.04-.08,.04h-.16c-.13-.17-.25-.36-.35-.57s-.2-.41-.29-.62c0-.02,0-.06-.03-.12-.02-.06-.04-.1-.06-.1,0-.02,0-.04-.02-.08-.02-.04-.02-.06-.02-.08-.15-.22-.31-.47-.48-.74-.17-.28-.31-.55-.43-.81-.02-.05-.07-.17-.15-.35-.08-.19-.17-.39-.26-.6-.09-.22-.18-.42-.26-.6-.08-.19-.13-.31-.15-.35-.1-.21-.21-.41-.32-.6-.12-.19-.23-.38-.35-.58-.13-.23-.25-.46-.35-.7-.1-.24-.21-.47-.34-.71-.06-.15-.14-.34-.24-.57-.11-.24-.21-.47-.31-.7-.1-.23-.19-.43-.27-.6-.08-.17-.12-.27-.13-.29,0,0-.02-.04-.04-.11-.02-.06-.04-.14-.07-.21-.03-.08-.05-.15-.07-.21-.02-.06-.03-.11-.04-.12-.05-.15-.12-.37-.23-.63l-.3-.81c-.1-.27-.19-.51-.28-.72-.08-.21-.13-.33-.15-.37-.02-.04-.06-.14-.14-.29-.08-.15-.16-.33-.26-.51l-.28-.55c-.09-.18-.16-.32-.21-.42,0,0-.03-.03-.06-.08-.03-.04-.07-.09-.1-.14-.03-.05-.06-.1-.09-.14-.03-.04-.05-.08-.05-.09,0-.02-.01-.04-.01-.06,0-.02-.01-.03-.01-.05v-.05Z"/><path class="cls-15" d="M241.65,103.79c.05-.3,.11-.6,.18-.89,.07-.29,.15-.58,.24-.87,.06-.21,.12-.4,.16-.56,.04-.16,.1-.35,.17-.55,0-.02,.01-.06,.03-.13,.02-.07,.04-.15,.07-.24,.03-.09,.05-.16,.08-.23,.03-.07,.04-.11,.05-.13,.09-.28,.22-.54,.39-.77,.17-.23,.35-.46,.54-.68,0,0,.04-.04,.08-.09,.04-.05,.1-.11,.15-.17s.11-.12,.16-.18c.05-.06,.09-.1,.11-.12,0,0,.02-.03,.05-.06,.02-.03,.05-.07,.08-.12,.03-.04,.05-.08,.08-.12,.02-.03,.04-.05,.06-.06,.34-.29,.72-.56,1.13-.79,.41-.24,.84-.44,1.28-.61,.44-.17,.9-.3,1.36-.4,.46-.09,.91-.14,1.36-.15,.5-.04,1.03-.03,1.57,.02,.54,.06,1.05,.19,1.53,.4,.4,.12,.74,.26,1.03,.42,.29,.15,.53,.31,.73,.45,.2,.15,.36,.28,.49,.4,.13,.12,.24,.2,.34,.25,.25,.22,.48,.44,.68,.65,.2,.21,.39,.43,.55,.66,.17,.23,.32,.47,.47,.73s.29,.54,.43,.86c.02,.07,.06,.21,.1,.4,.04,.19,.09,.39,.14,.6,.05,.21,.09,.41,.13,.6,.04,.19,.07,.32,.07,.4,0,.02,.01,.05,.02,.11,0,.06,0,.13,0,.21v.43s0,.12,0,.2,0,.17,0,.26v.23c0,.07,0,.1-.01,.11,0,.02-.01,.08-.04,.15-.02,.08-.05,.16-.07,.24s-.05,.17-.07,.24c-.02,.08-.03,.12-.03,.14-.16,.16-.33,.27-.5,.34-.17,.06-.36,.1-.59,.12-.22,.02-.49,.03-.8,.03-.31,0-.69,.03-1.14,.08h-.63c-.15,0-.28,0-.4,0-.12,0-.2,0-.23,0h-.12s-.05,.03-.1,.04c-.05,0-.11,.01-.17,0-.06,0-.11-.01-.15-.03-.04-.02-.07-.04-.08-.07,0,0-.04,0-.11,0-.07,0-.14,0-.21,0h-.23c-.08,0-.13,0-.15-.01,0,0-.02,.01-.04,.01h-.06c-.2,0-.42,.02-.67,.02-.25,0-.51,.02-.77,.02-.27,0-.52,.01-.78,.02-.25,0-.48,0-.67,0-.29,.02-.55,.02-.79,0s-.46-.02-.67-.04c-.21-.01-.44-.02-.67-.03-.23,0-.49,0-.79,0-.04,0-.08,0-.12,0-.04,0-.07,.03-.09,.07,0,.04,0,.1,.03,.18,.02,.08,.03,.13,.03,.16,.07,.29,.12,.5,.15,.63,.03,.13,.06,.22,.08,.27,.02,.05,.05,.1,.09,.13s.1,.11,.18,.23c0,0,.01,.03,.04,.05,.03,.03,.06,.06,.1,.09,.04,.03,.07,.06,.1,.09,.03,.03,.04,.05,.04,.05,.27,.43,.62,.74,1.06,.93,.44,.19,.89,.28,1.36,.26,.06,0,.15,0,.27,0,.11,0,.18,0,.2,0,.16-.02,.28-.02,.35-.02,.07,0,.13,.01,.18,.02,.05,0,.1,.01,.15,.02,.05,0,.14,0,.26-.02,.12-.02,.28-.05,.49-.09,.21-.04,.49-.11,.86-.2,0,0,.05-.02,.13-.06,.08-.04,.17-.09,.26-.13,.09-.05,.18-.1,.27-.14,.09-.04,.14-.07,.15-.08,.21-.13,.4-.26,.57-.38,.17-.13,.33-.24,.47-.35,.14-.11,.28-.2,.4-.28,.12-.08,.25-.15,.37-.2h.07s.04,0,.07,.02c.03,.02,.05,.04,.05,.05,.07,.07,.18,.15,.33,.25,.15,.1,.29,.21,.45,.31,.15,.11,.29,.21,.43,.31,.14,.1,.24,.19,.3,.26,.03,.02,.08,.06,.17,.12,.09,.07,.18,.14,.28,.21,.1,.08,.18,.15,.26,.22,.07,.07,.11,.11,.11,.12v.05s0,.03,0,.04c0,0,0,.02,0,.04,0,.2-.05,.38-.18,.54-.13,.15-.26,.31-.4,.45-.38,.42-.79,.82-1.21,1.21-.43,.39-.89,.72-1.4,.98-.16,.07-.33,.13-.49,.16-.16,.04-.33,.08-.49,.14-.21,.06-.42,.11-.61,.14-.2,.03-.39,.05-.57,.05-.19,0-.38,.01-.58,0-.2,0-.41,0-.64,0-.59,.02-1.14,0-1.67-.06-.53-.06-1.07-.17-1.64-.33-.21-.06-.41-.14-.59-.21-.18-.08-.35-.16-.51-.26-.16-.09-.32-.2-.47-.32-.15-.12-.31-.25-.48-.38-.29-.24-.57-.48-.87-.71-.29-.23-.57-.5-.83-.81-.02,0-.05-.06-.1-.15-.05-.09-.08-.15-.09-.17-.02-.02-.05-.05-.1-.12s-.1-.13-.15-.2c-.05-.07-.11-.13-.16-.2s-.08-.1-.09-.12c-.02-.02-.05-.09-.1-.19-.05-.1-.11-.22-.18-.35-.07-.13-.13-.27-.2-.4-.06-.13-.11-.24-.14-.32-.02-.02-.03-.05-.05-.1s-.02-.08-.02-.1c-.1-.54-.18-1.06-.25-1.57-.07-.51-.1-1.05-.09-1.6v-.06Zm8.69-3.91c-.42,0-.8,.06-1.16,.15-.36,.09-.71,.26-1.05,.49-.12,.07-.24,.17-.38,.28-.14,.11-.28,.24-.42,.37-.13,.13-.25,.28-.33,.43-.09,.15-.13,.3-.13,.45,.21-.02,.41-.04,.59-.07,.18-.03,.37-.05,.57-.06h.05s.07,.01,.15,.02c.08,0,.18,0,.28,.01,.1,0,.2,0,.29,.01,.09,0,.15,0,.17,0h1.17c.07,0,.17,0,.3-.01,.13,0,.26-.02,.4-.02,.13,0,.25-.01,.36-.02,.11,0,.17,0,.18,0,.08,0,.23,0,.45,0,.22,0,.45,0,.69-.01,.24,0,.47-.01,.69-.02,.21,0,.36-.02,.45-.02,.02,0,.03,0,.05-.02l.02-.02s0-.04-.02-.07c-.02-.03-.03-.06-.05-.07-.02-.03-.04-.08-.07-.13-.03-.05-.06-.11-.09-.16-.03-.05-.06-.1-.08-.13-.03-.04-.04-.06-.05-.07-.36-.45-.81-.78-1.36-.99-.55-.21-1.1-.31-1.65-.29Z"/><path class="cls-15" d="M266.4,109.98c0-.16,0-.42,.02-.77,.01-.35,.03-.75,.04-1.2,.01-.45,.03-.92,.05-1.41,.02-.49,.04-.96,.05-1.41,.01-.45,.03-.84,.04-1.19,.01-.35,.02-.6,.02-.76,0-.04-.01-.12-.02-.24,0-.12-.01-.26-.03-.42-.01-.16-.02-.33-.03-.51,0-.17-.02-.34-.03-.51,0-.16-.01-.3-.02-.42,0-.12,0-.2,0-.24,0-.02,0-.1-.02-.23-.01-.13-.02-.27-.04-.44-.01-.17-.03-.34-.04-.51s-.02-.31-.02-.43c0-.06,0-.18-.02-.35-.02-.17-.03-.34-.05-.53-.02-.19-.03-.36-.05-.52-.02-.16-.02-.28-.02-.34,0-.02,0-.05,.02-.11,.02-.06,.03-.1,.05-.12,.05-.05,.13-.08,.24-.08,.11,0,.19,0,.25,0,.02,0,.06-.02,.13-.02,.07,0,.15-.02,.22-.02,.08,0,.15-.01,.23-.02,.07,0,.12,0,.13,0,.02,0,.09,0,.2-.02,.11-.02,.23-.03,.36-.05,.13-.02,.25-.04,.37-.05,.11-.02,.19-.03,.22-.04,.05,0,.17,0,.35-.02,.19-.02,.39-.03,.61-.05,.22-.02,.42-.04,.61-.05,.19-.02,.31-.02,.35-.02,.02,0,.04,0,.06-.01,.02,0,.03,0,.05,0,.02,0,.03,0,.04,0,.11,0,.18,.03,.21,.1,.04,.07,.06,.16,.06,.28,0,.12,0,.27-.02,.45-.02,.18-.02,.38-.02,.61,.03-.02,.11-.08,.23-.2,.12-.12,.27-.25,.44-.4,.17-.15,.36-.29,.56-.43,.2-.14,.39-.25,.58-.32,.21-.07,.4-.14,.56-.19,.16-.05,.32-.1,.48-.13s.32-.06,.49-.08c.17-.02,.37-.02,.6-.02,.31,0,.64,.04,.98,.12,.35,.08,.66,.19,.95,.32,.04,.02,.11,.05,.2,.1s.19,.1,.3,.15c.11,.05,.21,.1,.31,.15,.1,.05,.18,.09,.23,.11,0,0,.04,.03,.09,.07s.1,.08,.16,.12c.06,.04,.12,.08,.17,.12,.05,.04,.09,.07,.12,.07,.03,.02,.08,.04,.13,.07,.05,.03,.09,.06,.1,.07,.02,.02,.08,.08,.17,.18,.09,.1,.19,.21,.29,.33,.11,.12,.2,.23,.29,.33,.09,.1,.15,.16,.17,.19h.07s.05-.05,.1-.11c.05-.06,.09-.09,.1-.09,.33-.27,.63-.52,.9-.74,.28-.23,.56-.43,.85-.6,.29-.17,.59-.32,.91-.45s.68-.21,1.09-.27c.19-.02,.38-.03,.56-.02,.19,.01,.38,.02,.59,.02,.28,0,.54,.05,.78,.14,.24,.09,.48,.2,.73,.31,0,0,.03,.02,.07,.04,.04,.02,.08,.04,.12,.07l.11,.07s.05,.03,.06,.04c0,0,.03,0,.06,.02,.03,.01,.07,.03,.1,.04,.03,.02,.06,.03,.09,.04,.03,0,.04,0,.03-.01,.15,.11,.28,.21,.38,.31,.1,.1,.19,.2,.27,.29,.08,.09,.15,.18,.21,.26,.07,.08,.14,.15,.22,.22,.15,.2,.29,.39,.39,.58,.11,.19,.2,.38,.27,.57,.07,.19,.14,.37,.19,.55,.05,.18,.1,.36,.15,.54,.14,.61,.25,1.2,.33,1.76,.09,.56,.16,1.11,.21,1.64,.06,.53,.11,1.05,.15,1.56,.04,.51,.1,1.02,.15,1.52,0,.11,0,.32,0,.62,0,.3,0,.62,.02,.96,0,.34,.02,.66,.02,.96,0,.3,.02,.51,.02,.63,0,.02,0,.08,0,.18,0,.09,0,.2,.02,.31s.01,.21,.02,.31c0,.1,0,.16,0,.18v.07c0,.09-.02,.16-.07,.2-.05,.04-.11,.08-.18,.1-.07,.02-.15,.04-.23,.05s-.15,.03-.21,.05c-.14,.04-.23,.05-.27,.04-.04-.01-.11,0-.2,.04l-2.29,.05c-.1,.02-.18,.02-.25,0-.07-.03-.12-.07-.16-.13-.04-.06-.07-.12-.09-.18-.02-.06-.02-.11-.02-.14,0-.56,0-1.13-.03-1.71-.02-.58-.03-1.14-.05-1.7,0-.03,0-.11-.01-.22,0-.11-.01-.24-.02-.37,0-.13-.01-.25-.02-.37,0-.11-.01-.19-.01-.22,0-.11,0-.27,0-.47,0-.2-.01-.4-.02-.6,0-.2-.02-.38-.02-.54,0-.16-.02-.26-.02-.29,0-.02-.01-.11-.04-.27-.03-.15-.05-.33-.08-.54-.03-.2-.06-.4-.09-.6-.03-.2-.06-.36-.07-.48-.03-.16-.05-.3-.09-.42-.04-.12-.09-.25-.17-.38-.24-.43-.54-.79-.9-1.06-.36-.28-.8-.42-1.31-.42h-.34c-.11,0-.24,.03-.37,.09-.05,.03-.12,.06-.2,.08-.09,.02-.17,.04-.26,.07-.08,.02-.16,.05-.23,.09-.07,.03-.12,.08-.14,.13-.04,.04-.09,.09-.15,.15-.06,.06-.09,.1-.09,.12-.02,.02-.05,.08-.1,.16-.05,.08-.1,.17-.16,.27-.06,.1-.11,.19-.16,.27-.05,.08-.08,.13-.08,.16-.07,.18-.14,.34-.19,.48-.05,.14-.1,.28-.15,.42s-.09,.27-.12,.42c-.04,.15-.08,.32-.13,.51-.03,.1-.06,.23-.07,.39-.02,.16-.03,.33-.03,.5,0,.17,0,.34,0,.5,0,.16,0,.3,0,.4v.5s0,.09,0,.19c0,.1,0,.21,0,.33s0,.23,0,.32,0,.16,0,.18c0,.05,0,.18,0,.38,0,.2,.01,.42,.02,.65,0,.23,.01,.45,.02,.65,0,.2,0,.33,0,.39,.02,.25,.03,.49,.05,.72,.02,.23,.03,.47,.03,.73,0,.09-.02,.18-.05,.28-.03,.1-.09,.17-.18,.22-.12,0-.23,0-.32,0-.09,0-.18,.02-.27,.04-.09,.02-.17,.03-.26,.05-.09,.02-.19,.04-.31,.05-.19,.02-.39,.04-.6,.04s-.4,0-.58-.01c-.17,0-.32-.02-.42-.03-.11-.01-.14-.02-.1-.02-.05,0-.11-.02-.18-.04-.07-.02-.14-.05-.21-.09s-.12-.08-.17-.13c-.04-.05-.07-.11-.07-.18,0-.08,.01-.14,.04-.19,.02-.04,.04-.1,.04-.16v-.2s0-.1,0-.22c0-.12,0-.25,0-.4s0-.27,0-.4c0-.12,0-.19-.02-.21-.02-.15-.02-.31-.01-.48,0-.17,.02-.35,.02-.52,0-.18,.01-.35,.02-.52,0-.17,0-.33,0-.48,0-.05,0-.16-.02-.32-.01-.17-.03-.34-.04-.53-.02-.19-.03-.36-.04-.53-.01-.17-.02-.27-.02-.32,0-.02,0-.09,0-.23s-.01-.29-.02-.46c0-.17-.02-.34-.02-.52,0-.17-.02-.32-.02-.42,0-.18-.03-.34-.06-.49-.03-.15-.07-.3-.12-.45s-.11-.29-.18-.45c-.07-.15-.14-.32-.21-.49-.2-.5-.52-.88-.95-1.13-.43-.25-.94-.37-1.53-.37-.18,0-.35,.03-.52,.09-.17,.06-.33,.13-.48,.23-.16,.1-.3,.21-.45,.34-.14,.13-.28,.26-.41,.39-.14,.15-.25,.33-.35,.54-.09,.22-.17,.44-.24,.68-.06,.24-.12,.48-.15,.72-.04,.24-.07,.46-.09,.65,0,.07-.02,.17-.03,.32-.01,.15-.03,.3-.04,.47-.02,.17-.03,.32-.04,.46-.01,.14-.02,.24-.03,.3v1.4s0,.07,.01,.16c0,.09,.02,.19,.02,.29,0,.11,.02,.2,.02,.29,0,.09,.01,.14,.01,.16v.57c0,.06,0,.15,0,.27s0,.25,.02,.38,.02,.26,.03,.37c0,.11,.02,.19,.02,.22,0,.04,.02,.13,.03,.26,.01,.13,.03,.27,.04,.42,.02,.15,.03,.29,.04,.43,.01,.13,.02,.22,.03,.25v.17s-.02,.06-.06,.12c-.04,.05-.09,.09-.13,.1-.16,.03-.27,.05-.34,.04-.06,0-.1,0-.12,0-.02,0-.06,0-.13,.02-.07,.02-.12,.02-.13,.02h-.28c-.24,.02-.45,.03-.64,.04-.19,0-.38,.02-.56,.03s-.37,.02-.56,.02c-.19,0-.41,0-.64,0h-.08c-.13,.06-.24,.07-.32,.03-.08-.04-.15-.14-.2-.31-.05-.17-.09-.4-.12-.71-.03-.31-.06-.7-.08-1.18Z"/><path class="cls-15" d="M291.46,103.79c.05-.3,.11-.6,.18-.89,.07-.29,.15-.58,.24-.87,.06-.21,.12-.4,.17-.56,.04-.16,.1-.35,.17-.55,0-.02,0-.06,.03-.13s.04-.15,.07-.24c.03-.09,.05-.16,.08-.23,.02-.07,.04-.11,.05-.13,.09-.28,.22-.54,.39-.77,.17-.23,.35-.46,.54-.68,0,0,.03-.04,.08-.09,.04-.05,.1-.11,.15-.17s.11-.12,.16-.18c.05-.06,.08-.1,.11-.12,0,0,.02-.03,.05-.06,.02-.03,.05-.07,.08-.12,.03-.04,.05-.08,.08-.12,.02-.03,.04-.05,.06-.06,.34-.29,.72-.56,1.13-.79,.41-.24,.84-.44,1.28-.61,.44-.17,.9-.3,1.36-.4,.46-.09,.91-.14,1.36-.15,.5-.04,1.03-.03,1.58,.02,.54,.06,1.05,.19,1.53,.4,.4,.12,.74,.26,1.03,.42,.29,.15,.53,.31,.73,.45s.36,.28,.49,.4c.13,.12,.24,.2,.34,.25,.25,.22,.48,.44,.68,.65,.2,.21,.39,.43,.56,.66,.17,.23,.32,.47,.47,.73s.29,.54,.43,.86c.02,.07,.06,.21,.1,.4,.04,.19,.09,.39,.14,.6,.05,.21,.09,.41,.13,.6,.04,.19,.07,.32,.07,.4,0,.02,.01,.05,.02,.11,0,.06,0,.13,0,.21v.43s0,.12,0,.2c0,.09,0,.17,0,.26v.23c0,.07,0,.1-.01,.11,0,.02-.01,.08-.04,.15-.02,.08-.05,.16-.07,.24-.03,.09-.05,.17-.07,.24-.02,.08-.03,.12-.03,.14-.16,.16-.33,.27-.5,.34s-.36,.1-.59,.12c-.22,.02-.49,.03-.81,.03-.31,0-.69,.03-1.14,.08h-.63c-.15,0-.28,0-.4,0-.12,0-.2,0-.23,0h-.12s-.05,.03-.1,.04c-.05,0-.11,.01-.16,0-.06,0-.11-.01-.15-.03-.04-.02-.07-.04-.08-.07,0,0-.04,0-.11,0-.07,0-.14,0-.21,0h-.23c-.08,0-.13,0-.15-.01,0,0-.02,.01-.04,.01h-.06c-.2,0-.42,.02-.67,.02-.25,0-.51,.02-.78,.02-.26,0-.52,.01-.78,.02-.25,0-.48,0-.67,0-.29,.02-.55,.02-.79,0-.23-.01-.46-.02-.67-.04s-.44-.02-.67-.03c-.23,0-.49,0-.79,0-.04,0-.08,0-.12,0-.04,0-.07,.03-.09,.07,0,.04,.01,.1,.03,.18,.02,.08,.03,.13,.03,.16,.07,.29,.12,.5,.15,.63,.03,.13,.06,.22,.08,.27,.03,.05,.06,.1,.09,.13,.04,.04,.1,.11,.18,.23,0,0,.01,.03,.04,.05,.03,.03,.06,.06,.1,.09,.04,.03,.07,.06,.1,.09,.03,.03,.04,.05,.04,.05,.27,.43,.62,.74,1.06,.93,.44,.19,.89,.28,1.36,.26,.06,0,.15,0,.27,0,.11,0,.18,0,.2,0,.16-.02,.28-.02,.35-.02,.07,0,.13,.01,.18,.02,.05,0,.1,.01,.15,.02,.05,0,.14,0,.26-.02,.12-.02,.28-.05,.49-.09,.21-.04,.49-.11,.86-.2,0,0,.05-.02,.13-.06,.08-.04,.17-.09,.26-.13,.09-.05,.18-.1,.27-.14,.09-.04,.14-.07,.15-.08,.21-.13,.4-.26,.57-.38,.17-.13,.33-.24,.47-.35,.14-.11,.28-.2,.4-.28,.13-.08,.25-.15,.37-.2h.07s.04,0,.07,.02c.03,.02,.05,.04,.05,.05,.07,.07,.18,.15,.33,.25,.15,.1,.29,.21,.45,.31,.15,.11,.29,.21,.43,.31,.14,.1,.24,.19,.31,.26,.02,.02,.08,.06,.17,.12,.09,.07,.18,.14,.28,.21,.1,.08,.18,.15,.26,.22,.07,.07,.11,.11,.11,.12v.05s0,.03,0,.04c0,0,0,.02,0,.04,0,.2-.05,.38-.18,.54-.13,.15-.26,.31-.4,.45-.38,.42-.79,.82-1.21,1.21-.43,.39-.89,.72-1.4,.98-.16,.07-.33,.13-.49,.16-.16,.04-.33,.08-.49,.14-.21,.06-.41,.11-.61,.14-.2,.03-.39,.05-.57,.05-.19,0-.38,.01-.58,0-.2,0-.41,0-.64,0-.59,.02-1.14,0-1.67-.06-.53-.06-1.07-.17-1.64-.33-.21-.06-.41-.14-.59-.21-.18-.08-.35-.16-.51-.26-.16-.09-.32-.2-.47-.32-.15-.12-.31-.25-.48-.38-.29-.24-.57-.48-.87-.71-.29-.23-.57-.5-.83-.81-.02,0-.05-.06-.1-.15-.05-.09-.08-.15-.09-.17-.02-.02-.05-.05-.1-.12s-.1-.13-.15-.2c-.05-.07-.11-.13-.16-.2-.05-.06-.08-.1-.09-.12-.02-.02-.05-.09-.1-.19-.05-.1-.11-.22-.18-.35s-.13-.27-.2-.4c-.06-.13-.11-.24-.14-.32-.02-.02-.03-.05-.05-.1-.02-.05-.03-.08-.03-.1-.1-.54-.18-1.06-.25-1.57-.07-.51-.1-1.05-.09-1.6v-.06Zm8.69-3.91c-.41,0-.8,.06-1.16,.15-.36,.09-.71,.26-1.05,.49-.11,.07-.24,.17-.38,.28-.14,.11-.28,.24-.42,.37-.13,.13-.25,.28-.33,.43-.09,.15-.13,.3-.13,.45,.21-.02,.41-.04,.59-.07,.18-.03,.37-.05,.57-.06h.05s.07,.01,.15,.02c.08,0,.18,0,.28,.01,.1,0,.2,0,.29,.01,.09,0,.15,0,.17,0h1.17c.07,0,.17,0,.3-.01l.4-.02c.13,0,.25-.01,.36-.02,.11,0,.17,0,.18,0,.08,0,.23,0,.45,0,.22,0,.45,0,.69-.01,.24,0,.47-.01,.69-.02,.21,0,.36-.02,.45-.02,.02,0,.03,0,.05-.02l.02-.02s0-.04-.02-.07c-.02-.03-.03-.06-.05-.07-.02-.03-.04-.08-.07-.13-.03-.05-.06-.11-.09-.16-.03-.05-.06-.1-.09-.13s-.04-.06-.05-.07c-.36-.45-.81-.78-1.36-.99-.55-.21-1.1-.31-1.65-.29Z"/><path class="cls-15" d="M327.79,112.12c-.1-.06-.14-.14-.13-.24,.01-.11,.01-.21,0-.31,0-.02-.01-.04-.04-.07-.02-.03-.04-.06-.04-.07v-.11c0-.11,.03-.22,.07-.31,.05-.09,.07-.19,.07-.29v-.07s-.06,0-.12,.02c-.05,.02-.09,.03-.1,.05-.06,.04-.15,.1-.28,.18-.13,.08-.26,.17-.41,.26-.15,.09-.29,.17-.43,.24s-.24,.11-.32,.12l-.95,.39h-.07s-.04,0-.08,.01c-.04,0-.08,.02-.13,.03s-.09,.02-.13,.03c-.04,0-.07,.01-.08,.01h-1.16c-.12,0-.24,0-.35-.01-.11,0-.22-.02-.34-.02-.12,0-.25-.02-.4-.05-.02,0-.06-.02-.13-.04-.07-.02-.14-.03-.22-.05-.08-.02-.15-.03-.22-.04-.07-.01-.11-.02-.13-.02h-.63l-.4-.16c-.06-.02-.14-.07-.26-.13-.12-.06-.24-.13-.38-.21-.13-.07-.26-.14-.38-.21-.12-.06-.21-.11-.27-.13-.05-.02-.12-.06-.22-.1-.1-.04-.2-.09-.3-.15-.1-.05-.2-.1-.29-.14-.09-.04-.15-.07-.17-.09l-.06-.05s-.07-.06-.12-.1c-.04-.04-.09-.08-.13-.12-.04-.04-.08-.06-.1-.08-.2-.2-.4-.43-.59-.67s-.37-.48-.56-.7c-.17-.2-.31-.47-.43-.81-.11-.33-.21-.69-.28-1.06-.07-.37-.13-.73-.16-1.09-.03-.36-.05-.67-.05-.93,0-.33,0-.64,0-.93,0-.28,.02-.56,.05-.84,.03-.27,.07-.55,.13-.82,.06-.28,.14-.57,.24-.89,0-.05,.04-.15,.09-.31,.05-.16,.11-.32,.17-.48s.11-.29,.15-.38,.06-.1,.05-.01c.13-.37,.3-.72,.51-1.04,.21-.32,.45-.62,.72-.9,.27-.28,.56-.53,.87-.77,.31-.24,.64-.46,.97-.66,.03-.02,.11-.07,.23-.13s.24-.12,.38-.19c.13-.06,.26-.13,.39-.19s.21-.1,.26-.12c0,0,.03-.02,.08-.03,.04-.01,.1-.03,.16-.04,.06-.02,.12-.03,.18-.04l.15-.03s.11-.03,.2-.05c.08-.02,.13-.02,.15-.02h2.41c.28,.08,.56,.16,.83,.23,.27,.07,.53,.15,.77,.26,.25,.1,.49,.22,.72,.37,.23,.14,.46,.33,.68,.56h.05s0-.06,0-.1c0-.04,0-.09,0-.14s0-.1,0-.14c0-.04,0-.08,0-.09,0,0,0-.04,.01-.09s.02-.1,.03-.16c.01-.06,.02-.11,.04-.15,.01-.04,.02-.07,.02-.08-.04-.06-.04-.12-.01-.18s.08-.11,.14-.15c.06-.04,.13-.07,.2-.08s.13,0,.18,.03c.41,0,.77,0,1.07,0,.31,0,.61,.01,.9,.02s.6,.03,.91,.07c.31,.03,.67,.07,1.08,.12,.02,.02,.07,.04,.12,.07,.06,.03,.09,.06,.09,.1,0,.07,0,.16,.01,.27,0,.11,.02,.22,.02,.34,0,.12,.02,.23,.02,.34s0,.21,0,.29c0,.02,0,.07-.01,.15,0,.08-.02,.17-.03,.27s-.02,.19-.02,.27c0,.08-.01,.13-.01,.15,0,.02-.01,.08-.04,.18-.03,.09-.04,.15-.04,.16,0,.02,0,.08,0,.15,0,.08,0,.16,0,.24v.24c0,.08,0,.12-.01,.14,0,.02,0,.06-.02,.11s-.03,.09-.05,.11l-.02,2.88v.73c0,.31,0,.69,0,1.15,0,.46,0,.97,.02,1.53,0,.56,.02,1.12,.02,1.68,0,.56,.02,1.08,.02,1.58,0,.5,.02,.91,.04,1.25,0,.02,0,.09-.02,.19-.01,.1-.02,.21-.04,.34-.01,.12-.02,.23-.04,.34-.01,.1-.01,.16,0,.19v.2s-.07,.05-.16,.09c-.09,.03-.15,.06-.17,.07-.22,0-.41,0-.57,.02-.16,.02-.31,.03-.45,.05-.14,.02-.29,.04-.44,.05-.15,.02-.33,.02-.56,.01h-.57c-.06,0-.15,0-.29,0-.13,0-.28-.01-.43-.02-.15,0-.29-.02-.43-.02-.13,0-.23-.02-.29-.02Zm-7.21-8.03c0,.43,.07,.83,.21,1.2s.33,.73,.55,1.09c.02,.02,.04,.06,.07,.12,.03,.05,.06,.08,.07,.08,.2,.21,.4,.42,.6,.61,.21,.2,.43,.37,.66,.52,.23,.15,.48,.27,.74,.36,.26,.09,.54,.13,.86,.13,.26,0,.52-.04,.79-.13,.27-.09,.52-.18,.76-.28,.03-.02,.08-.04,.14-.07,.06-.03,.12-.06,.18-.09,.06-.03,.11-.05,.16-.08,.04-.02,.08-.04,.09-.05,.3-.23,.55-.5,.75-.81,.2-.31,.35-.65,.47-1,.12-.35,.2-.72,.24-1.1s.08-.74,.09-1.09c0-.04,0-.11,0-.21s-.01-.2-.02-.31c0-.11-.02-.21-.02-.3,0-.09-.02-.16-.02-.19l-.11-.22c-.03-.06-.06-.13-.1-.18-.03-.06-.06-.11-.07-.15-.16-.31-.33-.61-.5-.9-.17-.29-.39-.52-.67-.69-.07-.05-.14-.1-.22-.16s-.17-.12-.26-.18-.19-.12-.27-.17c-.09-.05-.17-.09-.24-.1-.03,0-.09-.02-.18-.05-.09-.02-.18-.05-.28-.07s-.19-.04-.27-.06c-.08-.02-.14-.03-.18-.04-.05-.07-.12-.12-.22-.13s-.21-.01-.32,0c-.12,.01-.23,.03-.35,.05-.12,.02-.21,.04-.28,.04-.12,0-.25,.02-.39,.07-.14,.04-.27,.1-.4,.18-.13,.07-.25,.15-.37,.24-.12,.09-.22,.18-.31,.28-.02,.02-.05,.06-.1,.12-.05,.07-.11,.13-.17,.2-.06,.07-.12,.14-.18,.2-.06,.07-.09,.11-.1,.12-.31,.34-.53,.74-.65,1.21-.07,.33-.12,.65-.15,.98s-.04,.67-.04,1.01Z"/><path class="cls-15" d="M334.49,112.15c-.11-.02-.19-.06-.26-.1-.07-.05-.13-.11-.16-.18-.04-.07-.06-.14-.07-.21-.01-.07-.02-.14-.01-.21,0-.06,0-.12,0-.17,0-.62,0-1.23-.02-1.85-.02-.61-.03-1.23-.04-1.85-.01-.62-.01-1.24,0-1.86,.01-.62,.04-1.24,.09-1.86l-.05-.57c0-.06,.02-.13,.02-.18,0-.05,.01-.1,.01-.15s0-.1,.01-.14v-1.62c0-.2,0-.4,0-.58s0-.3,0-.35c0-.04,0-.15,.02-.33,.01-.18,.02-.37,.04-.57,.01-.2,.02-.39,.02-.57,0-.18,0-.29,0-.34,0-.18,0-.38-.02-.61-.02-.23-.04-.44-.04-.62l.02-.43c0-.1,.03-.16,.08-.2,.05-.04,.11-.06,.17-.07,.06,0,.12,0,.17,0,.05,0,.08,0,.09,0,.02,0,.07,0,.14,0,.07,0,.14-.01,.22-.02,.08,0,.15-.02,.21-.02,.07,0,.11-.02,.12-.02h.86c.13,0,.27,0,.41,0,.14,0,.29,.01,.46,.02h.13s.04,.02,.08,.02c.04,0,.09,.02,.15,.02,.05,0,.1,.02,.15,.03s.08,.02,.11,.03c.17,.03,.29,.07,.36,.12,.07,.04,.11,.11,.13,.18,.02,.08,.03,.17,.04,.29,0,.11,.02,.25,.05,.42,.35-.32,.72-.57,1.1-.77,.38-.2,.78-.34,1.18-.45,.41-.1,.82-.16,1.25-.19,.43-.02,.87-.02,1.32,0,.12,0,.25,.01,.39,.04,.14,.03,.28,.06,.42,.1,.14,.04,.28,.09,.42,.15,.13,.06,.25,.11,.36,.17,.07,.05,.17,.12,.29,.21,.12,.09,.23,.18,.35,.27,.11,.09,.21,.18,.3,.24,.09,.07,.13,.1,.14,.1,.23,.17,.43,.37,.6,.59,.17,.22,.33,.46,.45,.71,.13,.25,.23,.52,.32,.79,.09,.28,.16,.55,.21,.82,.02,.03,.05,.12,.08,.25,.03,.13,.06,.28,.09,.45,.03,.17,.05,.34,.07,.51s.03,.31,.03,.4v.45c0,.13,0,.27,0,.43,0,.15,0,.3,.01,.43,0,.13,0,.21,0,.24v2.45s-.03,.07-.04,.15-.02,.15-.03,.23c-.01,.08-.02,.16-.03,.23,0,.07-.01,.13-.01,.16v.27c-.02,.15-.02,.35-.02,.59s0,.5,0,.77c0,.27,0,.55,0,.83v.78c0,.24,0,.44,0,.6,0,.16,0,.26,0,.31v.4c0,.09,0,.17,0,.25,0,.08,0,.12,0,.14v.12c-.01,.09-.06,.14-.16,.16-.1,.02-.19,.03-.25,.04-.03,0-.06,0-.1,0-.04,0-.09,.01-.14,.02-.05,0-.09,.01-.13,.02-.04,0-.06,.01-.07,.02h-.5c-.11,0-.22,0-.32,0-.1,0-.16,.01-.18,.02-.38,.02-.74,.04-1.07,.07-.33,.03-.69,.03-1.09,.02-.15,0-.25-.05-.3-.12-.06-.07-.09-.15-.11-.25s-.02-.2-.01-.31,.01-.21,.01-.31v-.29c0-.15,0-.32,0-.52,0-.2,0-.41,0-.63s0-.44,0-.63,0-.37,0-.51v-3.12c.03-.28,.03-.61,.01-.99-.02-.37-.05-.76-.12-1.16-.06-.4-.14-.79-.25-1.17-.11-.38-.24-.72-.39-1.02-.16-.3-.33-.53-.54-.7-.2-.17-.43-.24-.68-.22l-.43-.02c-.29,0-.52,.02-.7,.1-.18,.07-.4,.18-.65,.33-.02,0-.03,.01-.05,.03-.02,.02-.02,.04-.02,.05-.23,.17-.42,.41-.58,.73-.16,.31-.29,.67-.4,1.06-.11,.39-.2,.81-.27,1.26-.07,.44-.13,.88-.18,1.31,0,.04-.02,.14-.04,.31-.02,.16-.03,.34-.05,.54-.02,.2-.04,.4-.05,.6-.01,.2-.02,.35-.03,.46,0,0,0,.05,0,.12,0,.07-.01,.16-.02,.26,0,.1-.02,.2-.02,.3,0,.1-.01,.18-.01,.23,0,.04,0,.11,0,.2,0,.09,0,.19,0,.29s0,.2,0,.29c0,.09,0,.15,0,.18v1.83s0,.07,.02,.15,.02,.12,.02,.15c0,0,0,.03,0,.07s0,.08,0,.12v.2c0,.07,0,.14,.01,.23,0,.09,0,.18-.01,.26-.02,.09-.05,.16-.1,.21-.05,.06-.14,.08-.27,.07-.19,0-.39-.01-.62,0-.22,0-.46,.01-.7,.02-.24,0-.49,.01-.75,.02-.25,0-.49,0-.72-.03Z"/><path class="cls-15" d="M205.48,133.79c.05-.3,.11-.6,.18-.89,.07-.29,.15-.58,.24-.87,.06-.21,.12-.4,.17-.56,.04-.16,.1-.35,.17-.55,0-.02,0-.06,.03-.13s.04-.15,.07-.24c.03-.09,.05-.16,.08-.23,.02-.07,.04-.11,.05-.13,.09-.28,.22-.54,.39-.77,.17-.23,.35-.46,.54-.68,0,0,.03-.04,.08-.09,.04-.05,.1-.11,.15-.17s.11-.12,.16-.18c.05-.06,.08-.1,.11-.12,0,0,.02-.03,.05-.06,.02-.03,.05-.07,.08-.12,.03-.04,.05-.08,.08-.12,.02-.03,.04-.05,.06-.06,.34-.29,.72-.56,1.13-.79,.41-.24,.84-.44,1.28-.61,.44-.17,.9-.3,1.36-.4,.46-.09,.91-.14,1.36-.15,.5-.04,1.03-.03,1.58,.02,.54,.06,1.05,.19,1.53,.4,.4,.12,.74,.26,1.03,.42,.29,.15,.53,.31,.73,.45s.36,.28,.49,.4c.13,.12,.24,.2,.34,.25,.25,.22,.48,.44,.68,.65,.2,.21,.39,.43,.56,.66,.17,.23,.32,.47,.47,.73s.29,.54,.43,.86c.02,.07,.06,.21,.1,.4,.04,.19,.09,.39,.14,.6,.05,.21,.09,.41,.13,.6,.04,.19,.07,.32,.07,.4,0,.02,.01,.05,.02,.11,0,.06,0,.13,0,.21v.43s0,.12,0,.2c0,.09,0,.17,0,.26v.23c0,.07,0,.1-.01,.11,0,.02-.01,.08-.04,.15-.02,.08-.05,.16-.07,.24-.03,.09-.05,.17-.07,.24-.02,.08-.03,.12-.03,.14-.16,.16-.33,.27-.5,.34s-.36,.1-.59,.12c-.22,.02-.49,.03-.81,.03-.31,0-.69,.03-1.14,.08h-.63c-.15,0-.28,0-.4,0-.12,0-.2,0-.23,0h-.12s-.05,.03-.1,.04c-.05,0-.11,.01-.16,0-.06,0-.11-.01-.15-.03-.04-.02-.07-.04-.08-.07,0,0-.04,0-.11,0-.07,0-.14,0-.21,0h-.23c-.08,0-.13,0-.15-.01,0,0-.02,.01-.04,.01h-.06c-.2,0-.42,.02-.67,.02-.25,0-.51,.02-.78,.02-.26,0-.52,.01-.78,.02-.25,0-.48,0-.67,0-.29,.02-.55,.02-.79,0-.23-.01-.46-.02-.67-.04s-.44-.02-.67-.03c-.23,0-.49,0-.79,0-.04,0-.08,0-.12,0-.04,0-.07,.03-.09,.07,0,.04,.01,.1,.03,.18,.02,.08,.03,.13,.03,.16,.07,.29,.12,.5,.15,.63,.03,.13,.06,.22,.08,.27,.03,.05,.06,.1,.09,.13,.04,.04,.1,.11,.18,.23,0,0,.01,.03,.04,.05,.03,.03,.06,.06,.1,.09,.04,.03,.07,.06,.1,.09,.03,.03,.04,.05,.04,.05,.27,.43,.62,.74,1.06,.93,.44,.19,.89,.28,1.36,.26,.06,0,.15,0,.27,0,.11,0,.18,0,.2,0,.16-.02,.28-.02,.35-.02,.07,0,.13,.01,.18,.02,.05,0,.1,.01,.15,.02,.05,0,.14,0,.26-.02,.12-.02,.28-.05,.49-.09,.21-.04,.49-.11,.86-.2,0,0,.05-.02,.13-.06,.08-.04,.17-.09,.26-.13,.09-.05,.18-.1,.27-.14,.09-.04,.14-.07,.15-.08,.21-.13,.4-.26,.57-.38,.17-.13,.33-.24,.47-.35,.14-.11,.28-.2,.4-.28,.13-.08,.25-.15,.37-.2h.07s.04,0,.07,.02c.03,.02,.05,.04,.05,.05,.07,.07,.18,.15,.33,.25,.15,.1,.29,.21,.45,.31,.15,.11,.29,.21,.43,.31,.14,.1,.24,.19,.31,.26,.02,.02,.08,.06,.17,.12,.09,.07,.18,.14,.28,.21,.1,.08,.18,.15,.26,.22,.07,.07,.11,.11,.11,.12v.05s0,.03,0,.04c0,0,0,.02,0,.04,0,.2-.05,.38-.18,.54-.13,.15-.26,.31-.4,.45-.38,.42-.79,.82-1.21,1.21-.43,.39-.89,.72-1.4,.98-.16,.07-.33,.13-.49,.16-.16,.04-.33,.08-.49,.14-.21,.06-.41,.11-.61,.14-.2,.03-.39,.05-.57,.05-.19,0-.38,.01-.58,0-.2,0-.41,0-.64,0-.59,.02-1.14,0-1.67-.06-.53-.06-1.07-.17-1.64-.33-.21-.06-.41-.14-.59-.21-.18-.08-.35-.16-.51-.26-.16-.09-.32-.2-.47-.32-.15-.12-.31-.25-.48-.38-.29-.24-.57-.48-.87-.71-.29-.23-.57-.5-.83-.81-.02,0-.05-.06-.1-.15-.05-.09-.08-.15-.09-.17-.02-.02-.05-.05-.1-.12s-.1-.13-.15-.2c-.05-.07-.11-.13-.16-.2-.05-.06-.08-.1-.09-.12-.02-.02-.05-.09-.1-.19-.05-.1-.11-.22-.18-.35s-.13-.27-.2-.4c-.06-.13-.11-.24-.14-.32-.02-.02-.03-.05-.05-.1-.02-.05-.03-.08-.03-.1-.1-.54-.18-1.06-.25-1.57-.07-.51-.1-1.05-.09-1.6v-.06Zm8.69-3.91c-.41,0-.8,.06-1.16,.15-.36,.09-.71,.26-1.05,.49-.11,.07-.24,.17-.38,.28-.14,.11-.28,.24-.42,.37-.13,.13-.25,.28-.33,.43-.09,.15-.13,.3-.13,.45,.21-.02,.41-.04,.59-.07,.18-.03,.37-.05,.57-.06h.05s.07,.01,.15,.02c.08,0,.18,0,.28,.01,.1,0,.2,0,.29,.01,.09,0,.15,0,.17,0h1.17c.07,0,.17,0,.3-.01l.4-.02c.13,0,.25-.01,.36-.02,.11,0,.17,0,.18,0,.08,0,.23,0,.45,0,.22,0,.45,0,.69-.01,.24,0,.47-.01,.69-.02,.21,0,.36-.02,.45-.02,.02,0,.03,0,.05-.02l.02-.02s0-.04-.02-.07c-.02-.03-.03-.06-.05-.07-.02-.03-.04-.08-.07-.13-.03-.05-.06-.11-.09-.16-.03-.05-.06-.1-.09-.13s-.04-.06-.05-.07c-.36-.45-.81-.78-1.36-.99-.55-.21-1.1-.31-1.65-.29Z"/><path class="cls-15" d="M230.8,137.64s-.04,0-.08,.02c-.04,.02-.06,.03-.08,.05-.16,.16-.31,.32-.43,.46-.12,.14-.24,.29-.35,.43s-.23,.3-.33,.46c-.11,.16-.23,.34-.35,.53-.02,.02-.05,.08-.1,.18-.05,.1-.11,.21-.18,.33-.07,.12-.13,.23-.19,.32-.06,.1-.09,.15-.1,.16-.03,.05-.07,.13-.13,.24-.07,.11-.13,.23-.21,.35-.07,.12-.14,.24-.21,.34-.07,.11-.11,.18-.13,.21-.02,.02-.05,.04-.1,.09-.05,.04-.09,.07-.11,.09-.03,.02-.1,.06-.21,.1-.11,.04-.18,.06-.2,.06,0,0-.03,0-.07,0-.04,0-.09-.01-.14-.02-.05,0-.1-.01-.15-.02-.05,0-.08,0-.08,0-.03-.02-.09-.03-.18-.04s-.15-.02-.17-.02l-2.05-.07s-.09,.06-.13,.07c-.04,0-.09,0-.13,0,0,0-.02,0-.02,0,0,0-.02,0-.02,0h-.02s-.06-.02-.12-.07c-.07-.04-.11-.08-.12-.09-.19-.11-.36-.18-.51-.23-.15-.04-.28-.09-.38-.13-.1-.04-.18-.1-.24-.16-.06-.07-.08-.18-.06-.32,0-.09,.06-.19,.15-.29,.09-.11,.16-.19,.2-.26,0,0,.02-.03,.04-.08,.02-.04,.04-.09,.07-.14,.02-.05,.05-.09,.07-.13,.03-.04,.04-.07,.06-.09,.11-.12,.2-.23,.29-.33,.09-.1,.18-.19,.26-.28,.09-.09,.17-.19,.26-.29,.09-.11,.17-.23,.26-.37,.26-.42,.52-.79,.77-1.14s.53-.7,.82-1.06c.02-.02,.08-.09,.16-.2,.08-.11,.17-.22,.26-.35,.09-.13,.18-.24,.26-.35,.08-.11,.13-.18,.16-.2,0,0,.04-.05,.08-.12,.04-.07,.09-.14,.15-.23,.05-.08,.1-.15,.15-.22,.05-.06,.08-.11,.1-.12,0-.02,0-.04,.02-.07,.02-.03,.02-.06,.02-.07v-.02s-.01-.02-.01-.04h0s-.03-.06-.07-.1c-.05-.04-.07-.08-.07-.09s0-.04,0-.08c0-.04,0-.06,0-.08s-.01-.03-.03-.04c-.02,0-.04-.02-.05-.04-.13-.19-.25-.35-.35-.49-.11-.14-.21-.31-.32-.51-.02-.02-.06-.09-.12-.18s-.11-.16-.12-.18c-.21-.38-.44-.74-.68-1.08-.24-.34-.48-.69-.7-1.06-.02-.02-.05-.08-.11-.18-.06-.09-.12-.2-.19-.31-.07-.11-.13-.21-.19-.31-.06-.09-.09-.15-.1-.16,0-.02-.04-.05-.09-.11-.05-.06-.1-.12-.15-.18s-.1-.12-.15-.17c-.04-.05-.07-.09-.08-.1-.02,0-.04-.03-.07-.08-.03-.04-.06-.09-.09-.15-.03-.05-.07-.1-.1-.15-.03-.05-.06-.09-.07-.11-.02-.03-.07-.1-.13-.21-.07-.11-.13-.22-.2-.34-.07-.12-.14-.23-.2-.34s-.11-.19-.13-.23c0-.02,0-.07,0-.14,.01-.07,.03-.12,.04-.14,.02-.02,.06-.04,.12-.05,.06,0,.12-.01,.19-.02,.07,0,.13,0,.19-.01,.06,0,.09-.01,.11-.02,.05,0,.11-.01,.18-.04,.07-.02,.14-.05,.2-.07,.06-.02,.12-.05,.18-.07,.05-.02,.09-.04,.1-.04,.02,0,.06-.02,.14-.03,.08-.01,.16-.03,.25-.04,.09-.02,.17-.03,.25-.04,.08-.01,.12-.02,.14-.03,.04-.02,.12-.03,.24-.04,.12,0,.18-.01,.2-.01,.03,0,.1,0,.21-.02s.22-.03,.34-.05c.12-.02,.23-.04,.34-.05s.16-.02,.19-.02c0,0,.04-.01,.09-.02,.05,0,.11,0,.17-.01,.06,0,.12,0,.17,0h.18s.06,0,.12,0c.05,0,.11,.01,.17,.02,.06,0,.12,.02,.17,.04,.05,.02,.08,.03,.11,.04,.02,.02,.03,.04,.05,.08,.02,.04,.03,.06,.03,.08,.02,.02,.04,.04,.08,.07,.04,.03,.07,.05,.09,.07,0,0,0,.03,.01,.07,0,.04,.02,.08,.03,.13,.01,.04,.02,.09,.03,.13,0,.04,.01,.07,.01,.07,0,.02,.04,.07,.08,.16,.05,.09,.1,.2,.17,.33,.06,.13,.12,.25,.19,.38,.06,.13,.12,.23,.16,.31,.02,.02,.04,.04,.05,.07,.02,.03,.04,.06,.04,.07l.02,.02s.02,.01,.02,.02c0,0,.02,.01,.02,.02,0,.03,.02,.07,.04,.1,.02,.02,.03,.05,.03,.07,0,.02,.01,.03,.03,.04,.02,.05,.07,.14,.15,.27,.07,.13,.15,.27,.24,.42,.09,.15,.17,.29,.25,.42,.08,.13,.14,.22,.18,.27,.02,.04,.05,.1,.12,.19,.06,.09,.1,.14,.12,.15,.02,.02,.04,.04,.08,.07,.04,.03,.06,.05,.08,.07h.05s.04,0,.08-.02c.04-.02,.06-.03,.08-.05,.05-.07,.13-.2,.26-.38,.12-.18,.25-.38,.39-.59,.14-.21,.27-.4,.39-.59,.12-.18,.21-.31,.26-.38,.02-.02,.05-.08,.1-.16,.05-.08,.1-.17,.16-.27s.11-.19,.15-.27c.04-.09,.08-.14,.09-.15,0-.02,.03-.05,.07-.1,.04-.05,.08-.1,.12-.15,.04-.05,.09-.1,.13-.15s.08-.09,.1-.11c.02-.02,.05-.05,.09-.11,.04-.06,.07-.12,.12-.18,.04-.06,.08-.12,.12-.18,.04-.05,.06-.09,.08-.1,.06-.06,.11-.1,.15-.12s.11-.04,.2-.04c.24,0,.51-.01,.79,0,.28,0,.57,.01,.86,.02s.57,.02,.85,.03c.28,0,.54,0,.79,0,.04,0,.11-.02,.21-.02,.1,0,.17-.02,.21-.02,0,0,.02-.02,.03-.02,.01,0,.04-.01,.08-.01s.1,.01,.17,.04c.07,.02,.16,.07,.29,.13,.02,0,.05,.02,.09,.02,.04,0,.09,.01,.14,.02,.05,0,.09,0,.13,.01,.04,0,.06,0,.08,0,.02,0,.08,0,.18,0,.1,0,.15,0,.17,0,.02,0,.06,0,.11,0,.05,0,.1,0,.15,.01,.05,0,.1,.01,.15,.02,.04,0,.08,.02,.09,.02l.05,.02s.02,.02,.04,.02v.07s0,.04-.02,.07c-.01,.03-.03,.06-.04,.07-.17,.27-.34,.51-.52,.73-.17,.22-.36,.43-.54,.64s-.38,.42-.57,.62-.39,.43-.6,.67c-.02,.03-.1,.12-.23,.27-.12,.15-.26,.31-.41,.48s-.28,.33-.4,.47c-.12,.14-.2,.23-.22,.26-.08,.09-.22,.25-.43,.48-.2,.23-.42,.47-.64,.73-.22,.26-.43,.5-.63,.72-.2,.22-.33,.38-.41,.47v.05s.04,.06,.08,.1c.04,.04,.07,.08,.12,.13,.04,.04,.08,.09,.11,.12,.03,.04,.06,.06,.07,.07,.02,.04,.08,.13,.17,.27,.09,.14,.19,.29,.29,.46,.1,.17,.2,.32,.29,.46,.09,.14,.15,.23,.17,.26,.02,.02,.04,.06,.08,.12,.04,.05,.06,.09,.07,.1,.02,.02,.06,.05,.12,.1s.1,.08,.12,.1c0,.02,.01,.05,.04,.11,.03,.06,.05,.09,.07,.11,.11,.23,.25,.46,.43,.68,.18,.23,.35,.44,.5,.62,.02,.02,.06,.05,.13,.1,.07,.05,.11,.08,.13,.08,0,.02,.01,.05,.04,.12s.04,.1,.06,.12c0,.02,0,.04,.02,.07l.03,.05,2.34,3.17s.07,.06,.13,.12c.06,.07,.09,.12,.09,.16,.02,.04,.01,.11-.01,.22-.02,.11-.05,.17-.07,.2-.05,0-.13,0-.25,.02-.12,.01-.24,.02-.38,.04-.13,.01-.26,.02-.38,.04-.12,.01-.2,.02-.25,.03,0,0-.03,0-.07,.01-.04,0-.07,.02-.12,.02-.04,0-.08,.01-.11,.02-.03,0-.05,0-.06,0-.26,.05-.52,.08-.79,.09-.27,0-.54,.02-.82,.05-.02,0-.07,0-.15,.02s-.17,.02-.27,.04-.19,.02-.27,.03c-.08,0-.13,.01-.15,.01s-.05,0-.09,0c-.04,0-.08,0-.1,0-.25,0-.45-.09-.6-.27-.09-.11-.16-.22-.22-.34-.06-.12-.12-.23-.19-.35-.02-.02-.05-.07-.1-.15-.05-.09-.1-.15-.14-.19,0-.02-.03-.05-.08-.11-.05-.06-.08-.09-.08-.11,0,0-.03-.04-.06-.09-.03-.05-.07-.11-.1-.17s-.07-.12-.11-.17c-.04-.05-.06-.09-.07-.1-.18-.27-.37-.53-.57-.78-.2-.25-.39-.52-.55-.81,0-.02-.03-.06-.07-.14-.04-.08-.08-.16-.13-.24s-.1-.16-.14-.24c-.04-.07-.08-.12-.09-.15-.02-.02-.04-.07-.08-.14-.04-.07-.06-.11-.07-.13l-.07-.07h-.07Z"/><path class="cls-15" d="M249.82,142.12c-.1-.06-.14-.14-.13-.24,.01-.11,.01-.21,0-.31,0-.02-.01-.04-.04-.07-.02-.03-.04-.06-.04-.07v-.11c0-.11,.03-.22,.07-.31,.05-.09,.07-.19,.07-.29v-.07s-.06,0-.12,.02c-.05,.02-.09,.03-.1,.05-.06,.04-.15,.1-.28,.18-.13,.08-.26,.17-.41,.26-.15,.09-.29,.17-.43,.24s-.24,.11-.32,.12l-.95,.39h-.07s-.04,0-.08,.01c-.04,0-.08,.02-.13,.03s-.09,.02-.13,.03c-.04,0-.07,.01-.08,.01h-1.16c-.12,0-.24,0-.35-.01-.11,0-.22-.02-.34-.02-.12,0-.25-.02-.4-.05-.02,0-.06-.02-.13-.04-.07-.02-.14-.03-.22-.05-.08-.02-.15-.03-.22-.04-.07-.01-.11-.02-.13-.02h-.63l-.4-.16c-.06-.02-.14-.07-.26-.13-.12-.06-.24-.13-.38-.21-.13-.07-.26-.14-.38-.21-.12-.06-.21-.11-.27-.13-.05-.02-.12-.06-.22-.1-.1-.04-.2-.09-.3-.15-.1-.05-.2-.1-.29-.14-.09-.04-.15-.07-.17-.09l-.06-.05s-.07-.06-.12-.1c-.04-.04-.09-.08-.13-.12-.04-.04-.08-.06-.1-.08-.2-.2-.4-.43-.59-.67s-.37-.48-.56-.7c-.17-.2-.31-.47-.43-.81-.11-.33-.21-.69-.28-1.06-.07-.37-.13-.73-.16-1.09-.03-.36-.05-.67-.05-.93,0-.33,0-.64,0-.93,0-.28,.02-.56,.05-.84,.03-.27,.07-.55,.13-.82,.06-.28,.14-.57,.24-.89,0-.05,.04-.15,.09-.31,.05-.16,.11-.32,.17-.48s.11-.29,.15-.38,.06-.1,.05-.01c.13-.37,.3-.72,.51-1.04,.21-.32,.45-.62,.72-.9,.27-.28,.56-.53,.87-.77,.31-.24,.64-.46,.97-.66,.03-.02,.11-.07,.23-.13s.24-.12,.38-.19c.13-.06,.26-.13,.39-.19s.21-.1,.26-.12c0,0,.03-.02,.08-.03,.04-.01,.1-.03,.16-.04,.06-.02,.12-.03,.18-.04l.15-.03s.11-.03,.2-.05c.08-.02,.13-.02,.15-.02h2.41c.28,.08,.56,.16,.83,.23,.27,.07,.53,.15,.77,.26,.25,.1,.49,.22,.72,.37,.23,.14,.46,.33,.68,.56h.05s0-.06,0-.1c0-.04,0-.09,0-.14s0-.1,0-.14c0-.04,0-.08,0-.09,0,0,0-.04,.01-.09s.02-.1,.03-.16c.01-.06,.02-.11,.04-.15,.01-.04,.02-.07,.02-.08-.04-.06-.04-.12-.01-.18s.08-.11,.14-.15c.06-.04,.13-.07,.2-.08s.13,0,.18,.03c.41,0,.77,0,1.07,0,.31,0,.61,.01,.9,.02s.6,.03,.91,.07c.31,.03,.67,.07,1.08,.12,.02,.02,.07,.04,.12,.07,.06,.03,.09,.06,.09,.1,0,.07,0,.16,.01,.27,0,.11,.02,.22,.02,.34,0,.12,.02,.23,.02,.34s0,.21,0,.29c0,.02,0,.07-.01,.15,0,.08-.02,.17-.03,.27s-.02,.19-.02,.27c0,.08-.01,.13-.01,.15,0,.02-.01,.08-.04,.18-.03,.09-.04,.15-.04,.16,0,.02,0,.08,0,.15,0,.08,0,.16,0,.24v.24c0,.08,0,.12-.01,.14,0,.02,0,.06-.02,.11s-.03,.09-.05,.11l-.02,2.88v.73c0,.31,0,.69,0,1.15,0,.46,0,.97,.02,1.53,0,.56,.02,1.12,.02,1.68,0,.56,.02,1.08,.02,1.58,0,.5,.02,.91,.04,1.25,0,.02,0,.09-.02,.19-.01,.1-.02,.21-.04,.34-.01,.12-.02,.23-.04,.34-.01,.1-.01,.16,0,.19v.2s-.07,.05-.16,.09c-.09,.03-.15,.06-.17,.07-.22,0-.41,0-.57,.02-.16,.02-.31,.03-.45,.05-.14,.02-.29,.04-.44,.05-.15,.02-.33,.02-.56,.01h-.57c-.06,0-.15,0-.29,0-.13,0-.28-.01-.43-.02-.15,0-.29-.02-.43-.02-.13,0-.23-.02-.29-.02Zm-7.21-8.03c0,.43,.07,.83,.21,1.2s.33,.73,.55,1.09c.02,.02,.04,.06,.07,.12,.03,.05,.06,.08,.07,.08,.2,.21,.4,.42,.6,.61,.21,.2,.43,.37,.66,.52,.23,.15,.48,.27,.74,.36,.26,.09,.54,.13,.86,.13,.26,0,.52-.04,.79-.13,.27-.09,.52-.18,.76-.28,.03-.02,.08-.04,.14-.07,.06-.03,.12-.06,.18-.09,.06-.03,.11-.05,.16-.08,.04-.02,.08-.04,.09-.05,.3-.23,.55-.5,.75-.81,.2-.31,.35-.65,.47-1,.12-.35,.2-.72,.24-1.1s.08-.74,.09-1.09c0-.04,0-.11,0-.21s-.01-.2-.02-.31c0-.11-.02-.21-.02-.3,0-.09-.02-.16-.02-.19l-.11-.22c-.03-.06-.06-.13-.1-.18-.03-.06-.06-.11-.07-.15-.16-.31-.33-.61-.5-.9-.17-.29-.39-.52-.67-.69-.07-.05-.14-.1-.22-.16s-.17-.12-.26-.18-.19-.12-.27-.17c-.09-.05-.17-.09-.24-.1-.03,0-.09-.02-.18-.05-.09-.02-.18-.05-.28-.07s-.19-.04-.27-.06c-.08-.02-.14-.03-.18-.04-.05-.07-.12-.12-.22-.13s-.21-.01-.32,0c-.12,.01-.23,.03-.35,.05-.12,.02-.21,.04-.28,.04-.12,0-.25,.02-.39,.07-.14,.04-.27,.1-.4,.18-.13,.07-.25,.15-.37,.24-.12,.09-.22,.18-.31,.28-.02,.02-.05,.06-.1,.12-.05,.07-.11,.13-.17,.2-.06,.07-.12,.14-.18,.2-.06,.07-.09,.11-.1,.12-.31,.34-.53,.74-.65,1.21-.07,.33-.12,.65-.15,.98s-.04,.67-.04,1.01Z"/><path class="cls-15" d="M256.19,139.98c0-.16,0-.42,.02-.77,.01-.35,.02-.75,.04-1.2,.01-.45,.03-.92,.05-1.41,.02-.49,.04-.96,.05-1.41,.01-.45,.02-.84,.04-1.19,.01-.35,.02-.6,.02-.76,0-.04-.01-.12-.02-.24,0-.12-.01-.26-.02-.42-.01-.16-.02-.33-.03-.51,0-.17-.02-.34-.02-.51,0-.16-.01-.3-.02-.42,0-.12,0-.2,0-.24,0-.02,0-.1-.02-.23-.01-.13-.02-.27-.04-.44-.01-.17-.02-.34-.04-.51-.01-.17-.02-.31-.02-.43,0-.06,0-.18-.02-.35-.02-.17-.03-.34-.05-.53-.02-.19-.03-.36-.05-.52-.02-.16-.03-.28-.03-.34,0-.02,0-.05,.03-.11,.02-.06,.03-.1,.05-.12,.05-.05,.13-.08,.24-.08,.11,0,.19,0,.25,0,.02,0,.06-.02,.13-.02,.07,0,.15-.02,.23-.02,.08,0,.15-.01,.23-.02,.07,0,.12,0,.13,0,.02,0,.09,0,.2-.02,.11-.02,.23-.03,.36-.05,.13-.02,.25-.04,.37-.05,.11-.02,.19-.03,.22-.04,.05,0,.17,0,.35-.02,.19-.02,.39-.03,.61-.05,.22-.02,.42-.04,.61-.05,.19-.02,.31-.02,.35-.02,.02,0,.04,0,.06-.01,.02,0,.03,0,.05,0,.02,0,.03,0,.04,0,.11,0,.18,.03,.21,.1,.04,.07,.06,.16,.06,.28s0,.27-.02,.45c-.02,.18-.03,.38-.03,.61,.03-.02,.11-.08,.23-.2,.12-.12,.27-.25,.44-.4s.36-.29,.56-.43c.2-.14,.39-.25,.58-.32,.21-.07,.4-.14,.56-.19,.16-.05,.32-.1,.48-.13,.16-.04,.32-.06,.5-.08,.17-.02,.37-.02,.6-.02,.31,0,.64,.04,.98,.12,.35,.08,.66,.19,.95,.32,.04,.02,.11,.05,.2,.1,.09,.05,.19,.1,.3,.15,.11,.05,.21,.1,.31,.15s.18,.09,.23,.11c0,0,.04,.03,.08,.07s.1,.08,.17,.12c.06,.04,.12,.08,.17,.12,.05,.04,.09,.07,.12,.07,.03,.02,.07,.04,.13,.07,.05,.03,.09,.06,.1,.07,.02,.02,.08,.08,.17,.18,.09,.1,.19,.21,.29,.33,.11,.12,.2,.23,.29,.33,.09,.1,.15,.16,.17,.19h.07s.05-.05,.1-.11c.05-.06,.09-.09,.1-.09,.33-.27,.63-.52,.9-.74,.28-.23,.56-.43,.85-.6,.29-.17,.59-.32,.91-.45,.32-.12,.68-.21,1.09-.27,.19-.02,.37-.03,.56-.02,.19,.01,.38,.02,.59,.02,.28,0,.54,.05,.78,.14,.24,.09,.48,.2,.73,.31,0,0,.03,.02,.07,.04,.04,.02,.07,.04,.12,.07s.08,.05,.11,.07c.03,.02,.05,.03,.06,.04,0,0,.03,0,.06,.02,.03,.01,.06,.03,.1,.04,.03,.02,.06,.03,.09,.04,.03,0,.04,0,.03-.01,.15,.11,.28,.21,.38,.31,.1,.1,.19,.2,.27,.29,.08,.09,.15,.18,.21,.26,.07,.08,.14,.15,.22,.22,.15,.2,.28,.39,.39,.58,.11,.19,.2,.38,.27,.57,.07,.19,.14,.37,.19,.55,.05,.18,.1,.36,.15,.54,.14,.61,.25,1.2,.34,1.76,.09,.56,.16,1.11,.21,1.64,.06,.53,.11,1.05,.15,1.56,.04,.51,.1,1.02,.15,1.52,0,.11,0,.32,0,.62,0,.3,0,.62,.02,.96,0,.34,.02,.66,.03,.96,0,.3,.02,.51,.02,.63,0,.02,0,.08,0,.18,0,.09,0,.2,.02,.31,0,.11,.01,.21,.02,.31s0,.16,0,.18v.07c0,.09-.02,.16-.07,.2-.05,.04-.11,.08-.18,.1s-.15,.04-.23,.05c-.08,.01-.15,.03-.21,.05-.14,.04-.23,.05-.27,.04-.04-.01-.11,0-.2,.04l-2.29,.05c-.1,.02-.18,.02-.25,0-.07-.03-.12-.07-.16-.13-.04-.06-.07-.12-.09-.18-.02-.06-.02-.11-.02-.14,0-.56,0-1.13-.02-1.71-.02-.58-.03-1.14-.05-1.7,0-.03,0-.11-.01-.22,0-.11-.01-.24-.02-.37,0-.13-.01-.25-.02-.37,0-.11-.01-.19-.01-.22,0-.11,0-.27,0-.47,0-.2-.01-.4-.02-.6,0-.2-.02-.38-.02-.54,0-.16-.02-.26-.03-.29,0-.02-.01-.11-.04-.27-.02-.15-.05-.33-.08-.54-.03-.2-.06-.4-.09-.6-.03-.2-.06-.36-.07-.48-.02-.16-.05-.3-.09-.42-.04-.12-.09-.25-.17-.38-.24-.43-.54-.79-.9-1.06-.36-.28-.8-.42-1.31-.42h-.34c-.11,0-.24,.03-.37,.09-.05,.03-.12,.06-.2,.08-.09,.02-.17,.04-.26,.07-.08,.02-.16,.05-.23,.09-.07,.03-.12,.08-.14,.13-.04,.04-.09,.09-.15,.15-.06,.06-.08,.1-.08,.12-.02,.02-.05,.08-.1,.16-.05,.08-.1,.17-.16,.27-.06,.1-.11,.19-.16,.27-.05,.08-.08,.13-.08,.16-.07,.18-.14,.34-.19,.48-.05,.14-.1,.28-.15,.42-.04,.13-.08,.27-.12,.42-.04,.15-.08,.32-.13,.51-.03,.1-.06,.23-.07,.39-.02,.16-.03,.33-.03,.5,0,.17,0,.34,0,.5,0,.16,0,.3,0,.4v.5s0,.09,0,.19c0,.1,0,.21,0,.33s0,.23,0,.32,0,.16,0,.18c0,.05,0,.18,0,.38,0,.2,0,.42,.02,.65,0,.23,.01,.45,.02,.65,0,.2,0,.33,0,.39,.02,.25,.03,.49,.05,.72,.02,.23,.02,.47,.02,.73,0,.09-.02,.18-.05,.28s-.09,.17-.18,.22c-.12,0-.23,0-.32,0-.09,0-.18,.02-.27,.04-.08,.02-.17,.03-.26,.05-.09,.02-.19,.04-.31,.05-.19,.02-.39,.04-.6,.04s-.41,0-.58-.01c-.18,0-.32-.02-.42-.03s-.14-.02-.1-.02c-.05,0-.11-.02-.18-.04-.07-.02-.14-.05-.21-.09-.06-.04-.12-.08-.16-.13-.04-.05-.07-.11-.07-.18,0-.08,.01-.14,.04-.19,.03-.04,.04-.1,.04-.16v-.2s0-.1,0-.22,0-.25,0-.4,0-.27,0-.4,0-.19-.02-.21c-.02-.15-.02-.31-.01-.48,0-.17,.02-.35,.02-.52,0-.18,.01-.35,.02-.52,0-.17,0-.33,0-.48,0-.05,0-.16-.02-.32-.01-.17-.03-.34-.04-.53-.02-.19-.03-.36-.04-.53-.01-.17-.02-.27-.02-.32,0-.02,0-.09,0-.23,0-.13-.01-.29-.02-.46s-.02-.34-.02-.52c0-.17-.02-.32-.03-.42,0-.18-.03-.34-.05-.49-.03-.15-.07-.3-.12-.45s-.11-.29-.18-.45c-.07-.15-.14-.32-.21-.49-.2-.5-.52-.88-.95-1.13-.43-.25-.94-.37-1.53-.37-.18,0-.35,.03-.52,.09-.17,.06-.33,.13-.48,.23-.16,.1-.3,.21-.45,.34-.14,.13-.28,.26-.41,.39-.14,.15-.25,.33-.35,.54-.09,.22-.17,.44-.24,.68-.07,.24-.12,.48-.15,.72-.04,.24-.07,.46-.09,.65,0,.07-.02,.17-.03,.32-.01,.15-.03,.3-.04,.47-.02,.17-.03,.32-.04,.46-.01,.14-.02,.24-.03,.3v1.4s0,.07,.01,.16c0,.09,.02,.19,.03,.29,0,.11,.02,.2,.02,.29,0,.09,.01,.14,.01,.16v.57c0,.06,0,.15,0,.27,0,.12,.01,.25,.02,.38s.02,.26,.02,.37c0,.11,.02,.19,.02,.22,0,.04,.02,.13,.03,.26,.01,.13,.03,.27,.04,.42,.02,.15,.03,.29,.04,.43,.01,.13,.02,.22,.03,.25v.17s-.02,.06-.06,.12c-.04,.05-.09,.09-.13,.1-.16,.03-.27,.05-.34,.04-.06,0-.1,0-.12,0-.02,0-.06,0-.13,.02-.07,.02-.12,.02-.13,.02h-.28c-.24,.02-.45,.03-.64,.04-.19,0-.38,.02-.56,.03-.18,.01-.37,.02-.56,.02-.19,0-.41,0-.64,0h-.08c-.13,.06-.24,.07-.32,.03-.08-.04-.15-.14-.2-.31-.05-.17-.09-.4-.12-.71-.03-.31-.06-.7-.08-1.18Z"/><path class="cls-15" d="M297.33,131.65c0,.07-.01,.13-.04,.18-.02,.06-.04,.12-.04,.18,0,.25,.01,.5,.04,.74,.02,.24,.04,.49,.04,.74v.5c-.02,.52-.06,1-.11,1.44s-.12,.86-.22,1.28c-.1,.41-.23,.82-.38,1.23-.16,.41-.36,.83-.59,1.28-.02,.02-.04,.06-.07,.13-.03,.07-.07,.14-.1,.22-.04,.08-.07,.15-.1,.22l-.06,.13s-.05,.07-.11,.15-.1,.12-.12,.13c-.04,.04-.1,.1-.19,.18-.09,.08-.18,.15-.27,.23-.09,.08-.18,.15-.26,.21-.08,.07-.12,.1-.14,.11-.02,.02-.08,.08-.19,.15-.11,.08-.2,.14-.26,.18-.03,.02-.08,.04-.13,.07-.06,.03-.11,.06-.17,.09-.06,.03-.11,.05-.17,.07-.05,.02-.09,.03-.1,.03-.05,.02-.14,.06-.27,.1-.13,.04-.28,.09-.43,.13-.15,.04-.29,.08-.43,.12s-.24,.06-.29,.07c-.03,.02-.08,.03-.15,.04-.07,.01-.13,.03-.21,.04-.07,.02-.14,.03-.21,.04s-.12,.02-.14,.03h-1.48c-.26,0-.53-.04-.81-.12-.63-.11-1.24-.26-1.82-.43-.58-.17-1.1-.39-1.56-.65,0,.02-.02,.04-.02,.09,0,.04-.02,.09-.03,.14,0,.05-.01,.1-.02,.15s0,.08,0,.1v.1c0,.38,.01,.76,.04,1.14s.04,.76,.04,1.14v.5c0,.09-.02,.26-.02,.51,0,.25-.02,.51-.03,.78s-.01,.52-.02,.75,0,.38,0,.45c-.02,.1-.04,.2-.07,.3-.03,.1-.05,.16-.05,.18l-.07,.07c-.07,0-.15,.02-.22,.02-.06,0-.13,.02-.18,.02-.06,0-.11,.02-.15,.02-.28,.02-.52,.03-.73,.04-.21,0-.43,.01-.67,.01-.2,0-.39,0-.56,.02s-.33,.02-.49,.03c-.16,0-.32,.01-.49,0-.17,0-.35-.02-.54-.05-.19-.11-.29-.22-.32-.35,0-.02,0-.05,0-.11,0-.06,0-.12,0-.19s0-.13,0-.2c0-.06,0-.1,0-.13,0-.04,0-.09,0-.16,0-.07,0-.13,0-.2s0-.13,0-.18c0-.05,0-.08,0-.09,.02-.43,.03-.89,.04-1.39,.01-.49,.02-.99,.04-1.5,.01-.5,.03-1,.04-1.5,.02-.49,.03-.95,.05-1.39,.02-.46,.03-.96,.05-1.48s.03-1.02,.03-1.48v-.24c0-.12,0-.26,0-.42s0-.33-.01-.51,0-.36-.01-.52c0-.16,0-.31,0-.43v-.24s0-.05,0-.12c0-.07,0-.16,0-.26s0-.2,0-.31c0-.1,0-.19,0-.25s0-.15,0-.26c0-.11,0-.21,0-.32s0-.2,0-.28c0-.08,0-.13,0-.15,0-.02,0-.08,.02-.17,.01-.09,.02-.18,.04-.28,.01-.1,.02-.19,.04-.27,.01-.09,.02-.14,.02-.16,0-.04-.01-.13,0-.26,0-.13,0-.27,.01-.42s0-.29,.02-.42,.01-.23,.01-.27c0-.04,0-.15,0-.33,0-.18,0-.37,.01-.57,0-.2,0-.39,.01-.57,0-.18,0-.29,0-.33,0,0,0-.05,0-.13,0-.08,0-.17,0-.28s0-.21,0-.31c0-.1,0-.19,0-.25,0-.03,0-.11,0-.24,0-.13,0-.27,0-.42s0-.28,0-.41c0-.13,0-.21,0-.25,.02-.17,.11-.29,.29-.37,.18-.07,.38-.12,.6-.13,.22-.02,.42-.02,.62-.01,.19,0,.3,0,.34-.01h.37c.13,0,.25-.02,.37-.07h1.55l.12,.13,.15,1.2c.33-.3,.69-.54,1.06-.71,.37-.17,.73-.31,1.08-.4,.35-.09,.67-.15,.96-.18,.29-.03,.52-.05,.7-.07h.39c.12,0,.27,.02,.46,.04,.18,.02,.37,.04,.56,.07,.19,.03,.36,.05,.51,.07,.15,.02,.26,.03,.32,.04,.06,.02,.15,.04,.27,.06,.12,.02,.25,.05,.38,.09,.13,.03,.26,.06,.38,.09,.12,.03,.2,.05,.24,.07,.02,0,.08,.03,.16,.07,.08,.04,.17,.08,.26,.12,.09,.04,.17,.09,.25,.13,.08,.04,.13,.08,.17,.1,.04,.02,.11,.07,.2,.13,.09,.07,.18,.13,.28,.21s.19,.14,.27,.21c.09,.07,.14,.12,.18,.15,.06,.06,.11,.11,.17,.16,.05,.04,.1,.08,.14,.13,.04,.04,.08,.08,.12,.1,.2,.26,.38,.49,.56,.7,.17,.21,.34,.47,.48,.78,.09,.19,.18,.38,.28,.59s.17,.41,.22,.6c0,.02,.02,.07,.04,.16,.02,.09,.04,.19,.06,.29,.02,.11,.04,.2,.06,.29,.02,.09,.03,.14,.04,.16,.02,.02,.04,.05,.07,.11,.03,.06,.06,.09,.07,.11v.04Zm-5.63-.52s-.02-.04-.06-.09c-.04-.05-.09-.1-.15-.16-.06-.06-.12-.12-.18-.18-.07-.06-.12-.11-.16-.14-.02-.02-.06-.04-.13-.07-.07-.03-.12-.06-.13-.07-.02-.02-.05-.04-.12-.07-.06-.03-.1-.06-.12-.07-.02-.02-.07-.04-.14-.07-.07-.03-.11-.05-.13-.05-.14-.06-.26-.09-.36-.09h-.4c-.4,0-.8,.07-1.19,.2-.39,.13-.8,.34-1.23,.62-.07,.07-.15,.13-.24,.18-.08,.06-.16,.12-.23,.18,0,0-.02,.04-.06,.09s-.09,.1-.14,.16c-.05,.06-.1,.12-.15,.17-.04,.05-.07,.08-.08,.09-.02,.04-.05,.1-.09,.18-.04,.08-.09,.16-.13,.25-.04,.09-.09,.18-.13,.26-.04,.08-.08,.14-.09,.17-.02,.07-.04,.12-.05,.15-.01,.04-.02,.09-.02,.15,0,.02-.02,.08-.05,.17-.02,.08-.06,.2-.1,.35-.04,.15-.1,.37-.17,.65,0,.02,0,.08-.02,.18-.02,.1-.03,.19-.05,.25,0,.04-.01,.11-.02,.21,0,.1,0,.2,0,.29v.38s0,.07,0,.15c0,.07,.01,.15,.02,.23,0,.08,.02,.16,.02,.23,0,.07,.02,.13,.02,.16,0,.02,0,.04,.02,.07,.02,.03,.03,.06,.05,.07,0,.02,.03,.05,.07,.09,.04,.04,.08,.09,.13,.15,.04,.05,.09,.1,.13,.15,.04,.05,.08,.09,.09,.11,.11,.12,.23,.22,.36,.28,.13,.07,.26,.12,.4,.16,.14,.04,.28,.09,.43,.13,.15,.04,.3,.09,.46,.16,.02,0,.06,0,.12,.02,.03,0,.06,.02,.08,.02h1.67c.04,.07,.08,.12,.1,.13s.08,.02,.14,.02c.15,0,.31-.02,.48-.05,.17-.03,.34-.08,.5-.15,.16-.07,.32-.15,.46-.24,.15-.09,.27-.2,.37-.32,0-.02,.04-.08,.1-.15,.06-.08,.12-.16,.18-.26,.07-.1,.13-.19,.2-.29,.07-.09,.11-.16,.15-.2,0-.02,.01-.04,.04-.08s.04-.06,.04-.08c.14-.24,.27-.49,.38-.73,.12-.24,.2-.51,.24-.81,.02-.08,.03-.17,.04-.26,0-.09,.01-.17,.01-.24,0-.02,0-.08-.02-.18-.02-.09-.03-.15-.05-.18-.02-.07-.06-.18-.11-.33s-.1-.29-.15-.45c-.05-.15-.1-.29-.14-.42-.04-.13-.07-.21-.08-.24l-.65-.96Z"/><path class="cls-15" d="M302.77,141.83s-.09,0-.2,.02c-.11,.02-.22,.03-.35,.05-.13,.02-.24,.03-.35,.05-.11,.02-.17,.02-.2,.02-.35,0-.7,.02-1.05,.05-.35,.03-.7,.05-1.05,.05-.07,0-.1,0-.1-.01s-.03-.01-.08-.01c-.03-.02-.06-.05-.11-.1-.05-.05-.08-.09-.11-.1v-.07s0-.04,0-.1c0-.06,0-.12-.02-.18,0-.06-.01-.12-.02-.17,0-.05,0-.09,0-.1,0-.04-.02-.12-.02-.23,0-.11-.02-.23-.03-.35s-.01-.23-.02-.34c0-.1,0-.17,0-.21,0-.15,0-.4,0-.73s0-.7,.01-1.12,0-.85,.02-1.31c0-.46,.01-.9,.02-1.31,0-.41,0-.78,.01-1.1,0-.33,0-.57,0-.72,0-.05,0-.14,0-.27s0-.27-.02-.42c0-.15-.02-.29-.03-.42s-.02-.23-.02-.27l-.39-10.07s0-.06,0-.11c0-.05,0-.1-.01-.16,0-.06,0-.12,0-.18s0-.1,.01-.13c.02-.12,.03-.22,.05-.3,.02-.08,.08-.12,.17-.12,.03,0,.09,0,.16-.01,.07,0,.15-.02,.23-.02,.08,0,.15-.02,.23-.02,.08,0,.14-.01,.19-.01h2.08s.04,0,.1-.01c.06,0,.12-.02,.2-.02,.07,0,.14-.01,.21-.01s.11,0,.13,.01c.19-.03,.33,0,.43,.09,.1,.09,.17,.2,.21,.34,.04,.14,.07,.28,.06,.44,0,.15-.01,.28-.02,.39,0,.02,0,.08,.01,.18,0,.09,.02,.2,.03,.32,0,.12,.02,.23,.02,.35,0,.11,.02,.2,.03,.26v.1c0,.07,0,.12-.03,.16-.02,.04-.03,.09-.05,.14l.07,1.86v.14c0,.08,0,.16,0,.26,0,.09,0,.18,.01,.27s.01,.14,.03,.15c.02,.38,.04,.66,.05,.82,.01,.16,.02,.27,.02,.31,0,.04,0,.06,0,.05,0-.01,0,0,0,.04s0,.12,.01,.26c0,.14,.02,.38,.04,.73v.7c.02,.07,.04,.16,.06,.27,.02,.12,.04,.21,.04,.27l.11,1.15v.02s-.01,.05,0,.12c0,.07,0,.16,.02,.25,0,.09,.02,.18,.02,.25s.01,.11,.01,.12c0,.14,0,.37,0,.68,0,.32,.02,.65,.03,1.01,.01,.35,.02,.69,.04,1.01,.01,.32,.01,.55,0,.68v1.05l-.05,1.33v1.54c0,.15,0,.25-.01,.29v.62s0,.04,0,.07c0,.03,0,.06,0,.1v.75c0,.09-.01,.18-.04,.26-.03,.08-.07,.15-.12,.22-.06,.07-.14,.13-.26,.19-.09,0-.16,.01-.22,.04-.06,.03-.12,.01-.18-.05Z"/><path class="cls-15" d="M305.23,133.79c.05-.3,.11-.6,.18-.89,.07-.29,.15-.58,.24-.87,.06-.21,.12-.4,.16-.56,.04-.16,.1-.35,.17-.55,0-.02,.01-.06,.03-.13,.02-.07,.04-.15,.07-.24,.03-.09,.05-.16,.08-.23,.03-.07,.04-.11,.05-.13,.09-.28,.22-.54,.39-.77,.17-.23,.35-.46,.54-.68,0,0,.04-.04,.08-.09,.04-.05,.1-.11,.15-.17s.11-.12,.16-.18c.05-.06,.09-.1,.11-.12,0,0,.02-.03,.05-.06,.02-.03,.05-.07,.08-.12,.03-.04,.05-.08,.08-.12,.02-.03,.04-.05,.06-.06,.34-.29,.72-.56,1.13-.79,.41-.24,.84-.44,1.28-.61,.44-.17,.9-.3,1.36-.4,.46-.09,.91-.14,1.36-.15,.5-.04,1.03-.03,1.57,.02,.54,.06,1.05,.19,1.53,.4,.4,.12,.74,.26,1.03,.42,.29,.15,.53,.31,.73,.45,.2,.15,.36,.28,.49,.4,.13,.12,.24,.2,.34,.25,.25,.22,.48,.44,.68,.65,.2,.21,.39,.43,.55,.66,.17,.23,.32,.47,.47,.73s.29,.54,.43,.86c.02,.07,.06,.21,.1,.4,.04,.19,.09,.39,.14,.6,.05,.21,.09,.41,.13,.6,.04,.19,.07,.32,.07,.4,0,.02,.01,.05,.02,.11,0,.06,0,.13,0,.21v.43s0,.12,0,.2,0,.17,0,.26v.23c0,.07,0,.1-.01,.11,0,.02-.01,.08-.04,.15-.02,.08-.05,.16-.07,.24s-.05,.17-.07,.24c-.02,.08-.03,.12-.03,.14-.16,.16-.33,.27-.5,.34-.17,.06-.36,.1-.59,.12-.22,.02-.49,.03-.8,.03-.31,0-.69,.03-1.14,.08h-.63c-.15,0-.28,0-.4,0-.12,0-.2,0-.23,0h-.12s-.05,.03-.1,.04c-.05,0-.11,.01-.17,0-.06,0-.11-.01-.15-.03-.04-.02-.07-.04-.08-.07,0,0-.04,0-.11,0-.07,0-.14,0-.21,0h-.23c-.08,0-.13,0-.15-.01,0,0-.02,.01-.04,.01h-.06c-.2,0-.42,.02-.67,.02-.25,0-.51,.02-.77,.02-.27,0-.52,.01-.78,.02-.25,0-.48,0-.67,0-.29,.02-.55,.02-.79,0s-.46-.02-.67-.04c-.21-.01-.44-.02-.67-.03-.23,0-.49,0-.79,0-.04,0-.08,0-.12,0-.04,0-.07,.03-.09,.07,0,.04,0,.1,.03,.18,.02,.08,.03,.13,.03,.16,.07,.29,.12,.5,.15,.63,.03,.13,.06,.22,.08,.27,.02,.05,.05,.1,.09,.13s.1,.11,.18,.23c0,0,.01,.03,.04,.05,.03,.03,.06,.06,.1,.09,.04,.03,.07,.06,.1,.09,.03,.03,.04,.05,.04,.05,.27,.43,.62,.74,1.06,.93,.44,.19,.89,.28,1.36,.26,.06,0,.15,0,.27,0,.11,0,.18,0,.2,0,.16-.02,.28-.02,.35-.02,.07,0,.13,.01,.18,.02,.05,0,.1,.01,.15,.02,.05,0,.14,0,.26-.02,.12-.02,.28-.05,.49-.09,.21-.04,.49-.11,.86-.2,0,0,.05-.02,.13-.06,.08-.04,.17-.09,.26-.13,.09-.05,.18-.1,.27-.14,.09-.04,.14-.07,.15-.08,.21-.13,.4-.26,.57-.38,.17-.13,.33-.24,.47-.35,.14-.11,.28-.2,.4-.28,.12-.08,.25-.15,.37-.2h.07s.04,0,.07,.02c.03,.02,.05,.04,.05,.05,.07,.07,.18,.15,.33,.25,.15,.1,.29,.21,.45,.31,.15,.11,.29,.21,.43,.31,.14,.1,.24,.19,.3,.26,.03,.02,.08,.06,.17,.12,.09,.07,.18,.14,.28,.21,.1,.08,.18,.15,.26,.22,.07,.07,.11,.11,.11,.12v.05s0,.03,0,.04c0,0,0,.02,0,.04,0,.2-.05,.38-.18,.54-.13,.15-.26,.31-.4,.45-.38,.42-.79,.82-1.21,1.21-.43,.39-.89,.72-1.4,.98-.16,.07-.33,.13-.49,.16-.16,.04-.33,.08-.49,.14-.21,.06-.42,.11-.61,.14-.2,.03-.39,.05-.57,.05-.19,0-.38,.01-.58,0-.2,0-.41,0-.64,0-.59,.02-1.14,0-1.67-.06-.53-.06-1.07-.17-1.64-.33-.21-.06-.41-.14-.59-.21-.18-.08-.35-.16-.51-.26-.16-.09-.32-.2-.47-.32-.15-.12-.31-.25-.48-.38-.29-.24-.57-.48-.87-.71-.29-.23-.57-.5-.83-.81-.02,0-.05-.06-.1-.15-.05-.09-.08-.15-.09-.17-.02-.02-.05-.05-.1-.12s-.1-.13-.15-.2c-.05-.07-.11-.13-.16-.2s-.08-.1-.09-.12c-.02-.02-.05-.09-.1-.19-.05-.1-.11-.22-.18-.35-.07-.13-.13-.27-.2-.4-.06-.13-.11-.24-.14-.32-.02-.02-.03-.05-.05-.1s-.02-.08-.02-.1c-.1-.54-.18-1.06-.25-1.57-.07-.51-.1-1.05-.09-1.6v-.06Zm8.69-3.91c-.42,0-.8,.06-1.16,.15-.36,.09-.71,.26-1.05,.49-.12,.07-.24,.17-.38,.28-.14,.11-.28,.24-.42,.37-.13,.13-.25,.28-.33,.43-.09,.15-.13,.3-.13,.45,.21-.02,.41-.04,.59-.07,.18-.03,.37-.05,.57-.06h.05s.07,.01,.15,.02c.08,0,.18,0,.28,.01,.1,0,.2,0,.29,.01,.09,0,.15,0,.17,0h1.17c.07,0,.17,0,.3-.01,.13,0,.26-.02,.4-.02,.13,0,.25-.01,.36-.02,.11,0,.17,0,.18,0,.08,0,.23,0,.45,0,.22,0,.45,0,.69-.01,.24,0,.47-.01,.69-.02,.21,0,.36-.02,.45-.02,.02,0,.03,0,.05-.02l.02-.02s0-.04-.02-.07c-.02-.03-.03-.06-.05-.07-.02-.03-.04-.08-.07-.13-.03-.05-.06-.11-.09-.16-.03-.05-.06-.1-.08-.13-.03-.04-.04-.06-.05-.07-.36-.45-.81-.78-1.36-.99-.55-.21-1.1-.31-1.65-.29Z"/><path class="cls-15" d="M327.52,135.96s-.06,.03-.15,.03c-.09,0-.18,0-.29-.04-.1-.03-.2-.08-.28-.15-.09-.07-.12-.16-.12-.29v-.07s0-.03-.02-.07c-.01-.04-.02-.09-.04-.14-.01-.05-.02-.1-.04-.15-.01-.04-.02-.07-.02-.08,0-.04-.02-.1-.03-.18-.01-.08-.02-.12-.02-.14v-.1c0-.06,0-.12,0-.2,0-.07,0-.15,.01-.23,0-.08,0-.14,0-.19,0-.21,.02-.43,.04-.64,.02-.22,.07-.42,.16-.62,.13-.33,.26-.64,.4-.91,.14-.27,.33-.54,.56-.8,.04-.03,.14-.12,.29-.27,.15-.15,.32-.3,.5-.46,.18-.16,.35-.32,.5-.46s.26-.24,.3-.27c0,0,.03-.04,.07-.09,.04-.05,.08-.1,.13-.16l.15-.18c.05-.06,.09-.11,.12-.14,.02-.02,.03-.03,.05-.05,.02-.02,.03-.04,.05-.07,.02-.03,.03-.06,.05-.09l.34-.5c.06-.04,.12-.11,.18-.22,.07-.11,.13-.22,.19-.35,.06-.13,.12-.26,.17-.38s.08-.22,.11-.29c0-.03,0-.11,0-.24,0-.13,0-.21,0-.25,0-.06,.01-.16,.02-.28,0-.12,0-.19,0-.21,0-.22-.05-.42-.16-.6-.11-.18-.24-.33-.4-.46-.16-.13-.35-.23-.55-.31s-.4-.11-.6-.11c-.28,.04-.54,.11-.78,.21-.24,.1-.46,.22-.65,.37-.19,.14-.36,.3-.49,.46-.14,.17-.24,.33-.32,.48-.11,.21-.17,.39-.2,.54-.03,.15-.07,.32-.12,.52,0,.02-.03,.05-.1,.09-.03,.02-.07,.03-.1,.04-.02,0-.08-.01-.15-.01h-.4s-.04,0,.01,0c-.07,.02-.2,.03-.37,.04-.18,0-.38,.01-.6,0-.22,0-.46-.01-.71-.02s-.48-.03-.7-.04c-.22-.02-.41-.04-.57-.07-.16-.03-.27-.06-.33-.09v-.02s0-.02-.03-.03-.04-.02-.07-.03c-.03,0-.05-.02-.07-.02-.02,0-.03-.02-.02-.04v-.02s-.01-.09-.04-.13c-.02-.04-.03-.08-.02-.12,0-.34,.06-.69,.15-1.04s.21-.7,.36-1.04,.31-.67,.5-.99c.19-.32,.38-.61,.59-.87,0,0,0-.02,.02-.04l.03-.02s.12-.08,.21-.13c.09-.06,.19-.12,.29-.19,.1-.07,.19-.13,.28-.2,.09-.06,.16-.11,.21-.15,.04,0,.1-.03,.17-.05,.07-.03,.14-.06,.23-.1,.08-.04,.16-.07,.23-.1,.07-.03,.13-.06,.17-.07,.37-.15,.75-.25,1.14-.32,.39-.06,.78-.09,1.17-.09,.07,0,.21-.01,.41,0,.2,0,.42,.01,.68,.02,.25,.01,.52,.03,.79,.04,.28,.02,.53,.03,.76,.05,.23,.02,.42,.04,.57,.06,.15,.02,.23,.04,.23,.05,.04,.02,.1,.04,.18,.07,.08,.03,.16,.07,.25,.1,.08,.04,.16,.07,.24,.1,.07,.03,.12,.05,.15,.06,.03,.02,.08,.04,.16,.09,.07,.04,.15,.09,.24,.13,.08,.05,.16,.1,.24,.14,.07,.04,.12,.08,.16,.1,.2,.15,.4,.29,.6,.43,.2,.14,.38,.29,.54,.45,.16,.16,.31,.33,.44,.52,.13,.19,.24,.41,.32,.64,.07,.21,.15,.43,.23,.65,.08,.22,.15,.45,.21,.69,.06,.24,.11,.47,.15,.71,.04,.24,.05,.47,.04,.7-.02,.31-.08,.59-.18,.85s-.21,.53-.32,.81c-.06,.14-.13,.27-.2,.41-.06,.13-.15,.25-.24,.36-.12,.14-.27,.29-.46,.45-.18,.16-.33,.33-.45,.51-.1,.07-.22,.16-.37,.28s-.29,.25-.41,.39c-.13,.14-.24,.27-.33,.4-.09,.13-.13,.22-.11,.27-.19,.22-.34,.45-.45,.69-.11,.24-.2,.49-.27,.75v.05l-.23,.73s0,.05-.02,.09c-.01,.04-.03,.1-.04,.15-.02,.06-.04,.11-.05,.16-.02,.05-.04,.09-.05,.11,0,.04-.01,.1-.03,.18-.02,.08-.03,.13-.03,.15v.27s-.04,.04-.07,.13c-.03,.09-.06,.13-.07,.13-.25,.1-.5,.16-.75,.2-.24,.03-.5,.07-.77,.12-.02,0-.06,0-.13,0-.07,0-.15,0-.23,.01-.08,0-.16,.01-.24,.02-.07,0-.12,.01-.13,.01-.09,.02-.2,.05-.34,.07-.13,.02-.27,.04-.42,.05s-.29,.02-.43,.03c-.14,0-.27,.02-.37,.04Zm-1.04,3.37c.02-.21,.05-.41,.1-.59s.12-.38,.21-.59c.02-.03,.04-.08,.08-.15,.04-.06,.07-.13,.11-.2,.04-.07,.07-.13,.1-.18,.03-.05,.05-.09,.06-.1,0,0,.04-.03,.08-.07,.05-.04,.11-.09,.18-.15,.07-.06,.14-.11,.21-.16,.07-.05,.12-.1,.17-.13,.23-.19,.49-.32,.8-.4,.31-.08,.6-.12,.88-.11,.66,.02,1.23,.22,1.72,.61s.84,.89,1.06,1.5v.44c0,.23-.03,.46-.07,.69-.04,.23-.11,.46-.2,.67-.09,.22-.21,.42-.35,.6-.14,.18-.31,.34-.51,.47-.22,.15-.43,.28-.63,.37-.2,.09-.4,.16-.6,.21s-.41,.08-.63,.09c-.22,.01-.47,.01-.74,0-.02,0-.05,0-.09-.02-.03-.01-.06-.02-.07-.02-.33-.07-.62-.2-.86-.38s-.44-.4-.59-.65c-.15-.25-.27-.53-.34-.83-.07-.3-.1-.61-.09-.92Z"/></g><g><path class="cls-9" d="M64.12,84.9c-.91-.68-6.41,7.5-5.54,8.25,12.47,10.69,28,23.81,33.27,26.41l7.64-10.08c-8.81-6.07-22.6-15.07-35.37-24.57Z"/><path class="cls-20" d="M78.22,116.04c2.26,1.94,18.32,12.83,22.17,14.66,4.32-7.9,7.32-17.57,6.92-18.39-7.9-3.5-14.45-8.01-19.98-10.91-3.03,4.96-7.15,9.88-9.11,14.64Z"/><path class="cls-11" d="M44.12,54.95c.16,.34,.55,.5,.9,.39l.09-.04c.37-.18,.52-.62,.35-.99l-2.9-6.05c-.18-.37-.62-.52-.99-.35-.37,.18-.52,.62-.35,.99l2.9,6.05Zm5.62-1.86c-.09,.4,.17,.8,.57,.89,.13,.03,.27,.02,.39-.02,.24-.08,.44-.28,.5-.55l1.43-6.56c.09-.4-.17-.8-.57-.89-.4-.09-.8,.16-.88,.57l-1.43,6.56Zm-14.93,4.49l6.61,1.17c.12,.02,.25,.01,.36-.03,.25-.08,.45-.3,.5-.58,.07-.41-.2-.79-.6-.86l-6.61-1.17c-.4-.07-.79,.2-.86,.6-.07,.41,.2,.79,.6,.86Z"/><path class="cls-20" d="M96.3,161.2c30.59,7.58,33.83,1.02,44.74-.51-.42-1.79-3.16-22.59-1.22-48.16-10.46-1.39-26.33-1.2-37.91-.56-2.25,7.78-4.83,40.19-5.61,49.23Z"/><rect class="cls-13" x="108.45" y="107.64" width="22.87" height="7.52" transform="translate(239.77 222.81) rotate(180)"/><path class="cls-9" d="M110.96,99.18l.37,14.59c.08,3.14,4.13,5.58,9.05,5.46,4.92-.12,8.84-2.77,8.76-5.91l-.37-14.59-17.82,.45Z"/><path class="cls-6" d="M115.73,120.08l8.62-.52s-.42-3.7-3.09-3.96c-1.05,.21-2.13,.11-3.56-.13-.46,.38-1.98,4.61-1.98,4.61Z"/><g><path class="cls-25" d="M121.02,143.35c-2.1,0-4.17-.13-6.23-.31l2.66-18.9c.1-1.16,4.49-1.15,4.58,.02l2.89,18.99c-1.3,.07-2.58,.2-3.9,.2Z"/><g><path class="cls-24" d="M116.66,129.73l.17-1.19c2.03,1.35,4.28,2.79,6.51,4.19l.21,1.41c-2.32-1.44-4.72-2.98-6.89-4.41Z"/><path class="cls-24" d="M124.5,140.35l.21,1.4c-2.81-1.68-6.05-3.73-8.94-5.62l.17-1.18c2.74,1.8,5.81,3.74,8.57,5.41Z"/><path class="cls-24" d="M118.1,143.21c-.73-.03-1.45-.06-2.18-.11-.35-.23-.71-.46-1.04-.68l.17-1.19c.96,.64,2.02,1.31,3.05,1.98Z"/></g><path class="cls-19" d="M117.45,124.14c.1-1.16,4.49-1.15,4.58,.02l.56,3.74-5.39-1.94,.24-1.82Z"/><path class="cls-25" d="M117.45,125.16c1.18,.27,3.87,.21,4.78,0,.33,0,.63-.22,.72-.54l2.05-7c.14-.48-.23-.89-.72-.97-.75-.12-1.54-.38-4.63-.39-2.34,0-3.17,.18-4.35,.39-.5,.09-.87,.49-.72,.98l2.14,7c.1,.32,.4,.46,.72,.53Z"/><g><path class="cls-24" d="M118.44,116.28c1.6,1.12,3.62,2.47,5.82,3.9l-.32,1.08c-2.82-1.82-5.43-3.57-7.19-4.84,.46-.06,1-.11,1.69-.13Z"/><path class="cls-24" d="M116.18,122.83l-.5-1.64c1.78,1.22,3.91,2.62,6.12,4.03-.48,.07-1.1,.11-1.8,.12-1.35-.87-2.63-1.71-3.82-2.51Z"/></g></g><path class="cls-29" d="M141.44,154.77c.26,3.95,.47,9.3,.66,15.26-.15,0-.28,.04-.43,.04-4.23,0-7.66-3.43-7.66-7.66s3.31-7.52,7.44-7.64Z"/><path class="cls-2" d="M100.2,108.78s6.22,2.93,7.51,2.82c0,0,7.85,21.99,13.69,22.2,5.85-.22,10.64-22.22,10.64-22.22,1.29,.11,7.67,.49,7.67,.49,.28,2.14,3.27,41.3,4.5,53.33-7.11,2.95-27.48,5.36-49.9-1.05,1.68-12.83,5.63-53.48,5.89-55.57Z"/><path class="cls-4" d="M104,110.45c.38-.03,.89,.33,1.25,.3,3.1,9.09,10.93,24.99,16.13,25.17,5.24-.19,9.88-15.07,12.97-24.16,.36,.03,.73,.05,1.11,.08-2.6,7.72-7.62,24.93-14.08,25.17-6.43-.22-14.78-18.84-17.39-26.56Z"/><g><path class="cls-18" d="M112.91,124.38c-4.23-7.71-6.28-10.41-5.56-12.74,0,0,1.14-1.04,1.4-1.23,1.05,1.45,6.18,5.03,9.83,5.18-1.09-.07-4.23,6.76-5.67,8.79Z"/><path class="cls-20" d="M113.39,122.67c-4.76-7.39-6.12-9.28-6.04-11.02,0,0,1.06-3.54,1.15-3.95,.25,2.96,4.17,6.79,10.08,7.9-1.39,.16-1.91,1.16-5.19,7.08Z"/></g><g><path class="cls-18" d="M126.87,124.43c4.29-7.68,6.35-10.37,5.65-12.7,0,0-1.13-1.05-1.39-1.24-1.06,1.44-6.21,4.99-9.87,5.11,1.09-.06,4.19,6.79,5.61,8.83Z"/><path class="cls-20" d="M126.4,122.71c4.81-7.35,6.18-9.24,6.12-10.98,0,0-1.04-3.54-1.12-3.96-.27,2.96-4.22,6.76-10.13,7.83,1.39,.17,1.9,1.18,5.14,7.11Z"/></g><path class="cls-14" d="M108.36,103.59c-.21-.72-.28-1.43-.3-2.15,6.26-1.89,15.81-4.15,22.81-5,.13,.3,.32,.57,.41,.89,1.62,5.54-2.19,11.43-8.52,13.16-6.33,1.73-12.78-1.36-14.4-6.89Z"/><g><path class="cls-9" d="M63.14,75.83c-3.61-4.45-10.64-13.94-11.73-13.1-3.23,2.46,1.67,9.34,5.14,13.53,.38,.46,.72,.87,1.05,1.26-3.28,4.25-5.88,9.94-8.01,11.84,5.07,4.86,8.36,6.3,10.49,6.35,3.88,.09,8.09-2.48,9.18-7.07,.81-3.41,.64-6.04-1.62-11.78-1.1-.2-3.02-.25-4.5-1.02Z"/><path class="cls-1" d="M63.61,88.56c-3.24,4.95-9.04,4.48-12.21,1.03,.89-.77,4.66-9.42,3.58-15.16,3.92-1.19,8.23,6.24,9.4,5.44-2.08,2.23-2.82,5.72-.77,8.69Z"/><path class="cls-9" d="M59.58,77.05c-2.05-2.26-4.63-3.25-5.78-2.21-1.03,.93-.53,3.19,1.08,5.28-1.93-1.11-3.85-1.3-4.69-.31-.91,1.07-.27,3.15,1.41,4.97-1.61-.25-2.97,.1-3.42,1.04-.67,1.39,.85,3.52,3.4,4.75,2.55,1.23,5.16,1.11,5.84-.28,.37-.76,.06-1.74-.7-2.68,.82,.05,1.51-.14,1.93-.64,.78-.92,.41-2.59-.77-4.2,1.36,.75,2.63,.89,3.34,.24,1.14-1.04,.41-3.71-1.64-5.97Z"/><path class="cls-10" d="M57.74,79.2c.31,1.7,1.7,3.95,4.29,3.27,2.4-.63,5.07-3.07,4.76-4.76-.31-1.7-2.7-2.69-5.33-2.21-2.64,.48-4.03,2-3.72,3.7Z"/><path class="cls-9" d="M57.74,79.2c.29,1.62,2.79,2.52,5.57,2.01,2.78-.51,4.8-2.23,4.51-3.85-.29-1.62-2.79-2.52-5.57-2.01-2.78,.51-4.8,2.23-4.51,3.85Z"/></g><path class="cls-9" d="M150.04,164.65c-.12,.69-8.88-.83-8.83-1.53,.79-11.75,1.86-31.06,2.07-34.46,6.27,1.76,8.94,3.29,10.8,7.83,1.36,3.34-2.16,17.15-4.04,28.16Z"/><g><path class="cls-9" d="M133.73,173.77c-.48-.16,1.36-5.5,1.89-7.32,.64-2.17,2.88-3.86,8.38-6.21,.21,.41-.76,1.79-.69,2.6,.07,.81-2.33,2.05-3.7,3.87-1.64,2.19-1.91,8.35-5.88,7.07Z"/><g><path class="cls-16" d="M138.87,166.02c.59,.14,.61,2.13,.05,4.45-.56,2.32-1.48,4.08-2.07,3.94-.59-.14-.61-2.13-.05-4.45,.56-2.32,1.48-4.08,2.07-3.94Z"/><path class="cls-9" d="M137.98,164.54c-.08,2.37-.72,5.12-1.31,8.5-.18,1.02-.05,3.96,2.4,3.09,.06,.35,.53,.77,1.78,.76,.88-.01,1.36-.64,1.8-.42,1.84,.91,2.25-.62,2.88-.5,1.24,.24,2.09-.27,2.52-.84,1.2-1.59,2.53-7.84,1.68-11.48-.36-1.56-4.58-4.44-5.52-4.19-3.89,1.07-6.17,3.51-6.23,5.07Z"/><path class="cls-27" d="M147.03,171.14s-1.03,3.64-1.33,4.81c-.02,.09-.11,.14-.2,.12-.09-.02-.14-.11-.12-.2,.31-1.18,1.16-4.2,1.33-4.81,.03-.09,.12-.14,.21-.11,.08,.02,.12,.11,.12,.19Z"/><path class="cls-27" d="M143.82,171.21l-1.24,5.26c-.02,.09-.11,.14-.2,.12-.08-.02-.13-.11-.12-.19,0,0,1.13-4.73,1.24-5.26,.02-.09,.11-.15,.2-.13,.08,.02,.14,.1,.13,.19Z"/><path class="cls-27" d="M140.59,170.62s-1.22,4.87-1.38,5.53c-.02,.09-.11,.15-.2,.12-.09-.02-.14-.1-.12-.2,.15-.66,1.3-5.15,1.37-5.51,.02-.09,.11-.15,.2-.13,.08,.02,.14,.1,.13,.19Z"/></g></g><path class="cls-20" d="M142,139.82c3.88-1.61,11.63-5.23,14.74-8.26-7.77-10.7-10.69-15.82-13.79-18.01-.63-.44-1.94-.83-3.19-1.13,.23,2.24,1.21,14.68,2.24,27.39Z"/><g><path class="cls-9" d="M78.2,83.8c2.06,7.64,9.55,12.38,15.14,11.59,5.59-.8,6.61-7.09,5.56-14.46-1.05-7.37-6.44-12.72-12.03-11.9-7.64,1.12-10.6,7.59-8.67,14.77Z"/><path class="cls-8" d="M84.95,85.4c.46,3.23,3.15,5.52,6,5.11,2.85-.41,4.79-3.36,4.32-6.59-.46-3.23-3.15-5.52-5.99-5.11-2.85,.41-4.79,3.36-4.33,6.59Z"/><path class="cls-9" d="M162.83,83.55c-2.01,7.65-9.47,12.45-15.06,11.68-5.6-.76-6.66-7.05-5.65-14.43,1-7.38,6.36-12.76,11.95-11.98,7.65,1.07,10.65,7.52,8.77,14.72Z"/><path class="cls-8" d="M155.69,85.2c-.44,3.23-3.11,5.54-5.96,5.15-2.85-.39-4.81-3.32-4.37-6.56,.44-3.23,3.11-5.54,5.96-5.15,2.85,.39,4.81,3.32,4.37,6.56Z"/><path class="cls-22" d="M157.68,59.67c-.73,24.59-15.44,34.43-37.24,34.5-21.8,.07-37.28-7.8-38.77-32.35-1.58-26.11,17.74-31.04,39.54-31.11,21.8-.07,37.21,4.2,36.47,28.96Z"/><path class="cls-9" d="M151.96,66.91c1.5,28.12-13.36,40.88-32.27,40.94-18.9,.06-33.29-12.24-32.22-40.45,.64-16.85,12.95-26.97,31.85-27.03,18.9-.06,31.6,7.09,32.64,26.54Z"/><path class="cls-5" d="M122.61,83.42c-.16,0-.3-.11-.33-.28-.19-1.15-1.11-1.89-2.33-1.89-1.23,0-2.16,.77-2.31,1.9-.03,.18-.19,.31-.37,.28-.18-.02-.31-.19-.28-.37,.2-1.45,1.42-2.47,2.97-2.47,1.54,0,2.74,.98,2.99,2.44,.03,.18-.09,.35-.27,.38h-.05Z"/><path class="cls-22" d="M145.53,29.54c-9.86-4.63-21.25-3.96-26.33-1.04-5.14-2.81-16.55-3.25-26.31,1.58-12.08,5.98-15.92,18.44-13.21,22.82,3.57,5.77,16.78,5.69,22.36,2.23-.13-2.73,1.83-7.21,5.69-11.01,3.68-3.62,8.48-3.06,11.19,.09,1.88-2.15,7.66-4.42,11.57-.32,3.67,3.86,4.98,7.18,5.01,10.68,7.45,2.6,20.86,3.12,23.36-2.73,2.02-4.71-1.14-16.56-13.34-22.29Z"/><g><path class="cls-26" d="M143.55,74.28c.4,3.75-3.03,7.23-7.67,7.77-4.64,.54-8.72-2.07-9.13-5.82-.4-3.75,3.25-7.44,7.89-7.98,4.64-.54,8.5,2.28,8.91,6.03Z"/><path class="cls-17" d="M140.56,80.27c1.96-1.46,2.92-3.89,2.7-5.96-.38-3.58-4.14-6.45-8.61-5.93-2.18,.25-5.08,1.15-7.18,4.41,1.61-3.51,5.06-5.3,8.76-5.19,3.23,.09,6.88,1.93,7.6,5.18,.58,2.63-.48,5.79-3.27,7.48Z"/><g><path class="cls-30" d="M138.86,73.59c.96,2.41-.22,5.14-2.62,6.09-2.41,.96-5.14-.22-6.09-2.62-.96-2.41,.22-5.14,2.62-6.09,2.41-.96,5.14,.22,6.09,2.62Z"/><path class="cls-28" d="M138.48,72.85c.27,.67-.06,1.42-.73,1.69-.67,.27-1.42-.06-1.69-.73-.27-.67,.06-1.42,.73-1.69,.67-.27,1.42,.06,1.69,.73Z"/></g></g><g><path class="cls-26" d="M96.27,74.28c-.4,3.75,3.03,7.23,7.67,7.77,4.64,.54,8.72-2.07,9.13-5.82,.4-3.75-3.25-7.44-7.89-7.98-4.64-.54-8.5,2.28-8.91,6.03Z"/><path class="cls-17" d="M99.26,80.27c-1.96-1.46-2.92-3.89-2.7-5.96,.38-3.58,4.14-6.45,8.61-5.93,2.18,.25,5.08,1.15,7.18,4.41-1.61-3.51-5.06-5.3-8.76-5.19-3.23,.09-6.88,1.93-7.6,5.18-.58,2.63,.48,5.79,3.27,7.48Z"/><g><path class="cls-30" d="M100.96,73.59c-.96,2.41,.22,5.14,2.62,6.09,2.41,.96,5.14-.22,6.09-2.62,.96-2.41-.22-5.14-2.62-6.09-2.41-.96-5.14,.22-6.09,2.62Z"/><path class="cls-28" d="M101.34,72.85c-.27,.67,.06,1.42,.73,1.69,.67,.27,1.42-.06,1.69-.73,.27-.67-.06-1.42-.73-1.69-.67-.27-1.42,.06-1.69,.73Z"/></g></g><path class="cls-12" d="M144.07,58.06c-3.04-2.71-8.47-3.45-12.91-1.78-.36,.14-.65,.41-.81,.76-.16,.35-.18,.75-.04,1.11,.14,.36,.42,.66,.77,.82,.35,.15,.74,.16,1.09,.03,3.44-1.29,7.72-.77,9.97,1.23,.27,.24,.61,.37,.96,.37,.41,0,.81-.18,1.08-.49,.26-.29,.39-.66,.37-1.05-.02-.39-.2-.74-.48-.99Z"/><path class="cls-12" d="M109.4,57.1c-.16-.35-.45-.62-.82-.75-4.44-1.64-9.87-.86-12.9,1.86-.29,.26-.46,.61-.48,1-.02,.39,.11,.76,.37,1.04,.27,.31,.67,.48,1.08,.48,.35,0,.7-.13,.97-.37,2.24-2.01,6.52-2.57,9.96-1.3,.37,.14,.77,.12,1.11-.04,.35-.16,.61-.45,.74-.81,.13-.36,.12-.76-.04-1.11Z"/><path class="cls-23" d="M132.88,88.2c-.54-2.8-4.85-2.08-11.88-2.12-.37,0-1.8,0-2.17,0-7.04,.05-11.35-.68-11.88,2.12-1.04,5.4,5.76,11.3,12.9,11.32h.12c7.15-.02,13.94-5.92,12.91-11.32Z"/><path class="cls-21" d="M119.97,99.63h-.12c-2.32,0-4.72-.67-6.96-1.9l-.14-.07,.12-.1c1.86-1.66,4.36-2.58,7.04-2.58s5.18,.92,7.04,2.58l.12,.1-.14,.07c-2.24,1.23-4.65,1.89-6.96,1.9Z"/><path class="cls-3" d="M119.91,89.67c-4.92,0-9.01-1.52-9.52-3.55l-.03-.12h19.11l-.03,.12c-.52,2.02-4.61,3.55-9.52,3.55Z"/></g></g></g></g></g></svg>