<?xml version="1.0" encoding="UTF-8"?><svg id="Layer_2" xmlns="http://www.w3.org/2000/svg" xmlns:xlink="http://www.w3.org/1999/xlink" viewBox="0 0 403.24 198.68"><defs><style>.cls-1{fill:#fbfdff;}.cls-1,.cls-2,.cls-3,.cls-4{fill-rule:evenodd;}.cls-5{fill:#c4735b;}.cls-2,.cls-6{fill:#fff;}.cls-7{fill:none;filter:url(#drop-shadow-1);}.cls-8{fill:#822020;opacity:.23;}.cls-9{fill:#e0956c;}.cls-10{fill:#ffc19f;}.cls-3{fill:#6c1e19;}.cls-11{fill:#0780aa;}.cls-12{fill:#333;}.cls-13{fill:#4c0b00;}.cls-14{fill:#35a2d8;}.cls-15{fill:#934341;}.cls-6{opacity:.25;}.cls-4,.cls-16{fill:#84220f;}.cls-17{fill:#f29d77;}</style><filter id="drop-shadow-1" filterUnits="userSpaceOnUse"><feOffset dx="0" dy="4"/><feGaussianBlur result="blur" stdDeviation="0"/><feFlood flood-color="#004e6e" flood-opacity="1"/><feComposite in2="blur" operator="in"/><feComposite in="SourceGraphic"/></filter></defs><g id="Contenido"><g><rect class="cls-7" width="403.24" height="198.68" rx="12" ry="12"/><g><g><path class="cls-12" d="M180.88,73.69c0-.16-.02-.31-.09-.46-.07-.14-.15-.28-.24-.41,0-.02-.03-.05-.08-.12s-.09-.1-.1-.13c0-.02-.01-.03-.01-.05v-.07s0-.04,.01-.07c0-.03,.01-.06,.01-.07,.02-.02,.06-.05,.11-.09s.1-.09,.16-.14c.06-.05,.11-.09,.16-.13,.05-.04,.08-.07,.11-.09,.03-.03,.1-.09,.21-.18s.22-.17,.34-.26c.12-.09,.23-.17,.34-.26,.11-.08,.18-.13,.22-.16,0,0,.04-.03,.1-.07,.06-.04,.12-.08,.19-.13,.07-.04,.13-.09,.18-.12s.09-.06,.1-.07c0,0,.04-.03,.08-.05s.09-.06,.15-.1,.1-.07,.14-.1c.04-.03,.07-.05,.08-.07,.02-.02,.08-.05,.18-.1s.16-.08,.19-.09h.01s.01-.01,.02-.02c0,0,0,0,.02,0l.02,.02c.06,.07,.16,.18,.31,.35s.31,.35,.48,.54c.17,.19,.32,.37,.47,.54s.25,.29,.32,.35c.02,.02,.08,.06,.16,.14,.08,.08,.17,.16,.27,.25,.1,.09,.2,.18,.29,.26s.17,.15,.23,.19c.03,.02,.08,.06,.14,.12s.12,.1,.19,.15c.06,.05,.12,.09,.17,.13s.08,.06,.1,.07c.02,0,.07,.01,.15,.04s.15,.04,.21,.06h.07c.09,.02,.21,.04,.37,.05,.15,0,.31,0,.46-.04,.15-.03,.29-.09,.42-.18,.13-.09,.21-.21,.26-.37l-.16-1.16s-.01-.07-.04-.16c-.03-.09-.05-.15-.05-.2l-.39-.65s-.02-.04-.03-.06l-.02-.05s-.01-.03-.01-.05c-.16-.27-.34-.51-.54-.73s-.4-.43-.6-.63-.42-.39-.65-.58c-.22-.19-.45-.39-.68-.6-.2-.19-.4-.38-.6-.57s-.39-.38-.59-.55c-.23-.2-.45-.38-.67-.57-.21-.18-.43-.37-.63-.57-.28-.3-.55-.64-.82-1.02s-.51-.78-.72-1.2c-.21-.42-.38-.85-.5-1.29s-.17-.87-.15-1.28c.02-.34,.1-.66,.21-.96,.12-.3,.27-.58,.45-.86,.02,0,.04-.02,.06-.06,.02-.02,.03-.04,.04-.06,.04-.06,.09-.13,.15-.23s.12-.18,.18-.27,.11-.16,.15-.22,.06-.1,.06-.1c0,0,.05-.05,.13-.12,.08-.07,.17-.16,.27-.25s.2-.19,.3-.27c.1-.09,.18-.16,.24-.21,.2-.17,.41-.31,.62-.42s.42-.21,.64-.29c.22-.09,.44-.16,.67-.23,.23-.07,.46-.14,.71-.23,.08-.02,.19-.04,.32-.05,.13-.01,.26-.02,.4-.02s.27,0,.4,0,.24,.01,.33,.02c.35,.02,.67,.07,.96,.13s.57,.14,.84,.24c.26,.1,.53,.22,.79,.37,.26,.14,.53,.3,.82,.48,0,0,.02,.02,.04,.02,.02,0,.03,.02,.05,.02,.02,.02,.03,.03,.05,.04l.41,.29s.03,.05,.07,.11c.05,.06,.08,.09,.11,.11,.02,.02,.09,.09,.2,.19s.22,.21,.34,.33,.23,.23,.34,.34,.16,.18,.19,.21c0,0,.03,.03,.06,.07,.03,.04,.07,.09,.11,.14s.08,.11,.13,.16,.08,.1,.1,.13c.06,.11,.12,.2,.18,.27,.05,.08,.07,.18,.07,.31v.12s-.05,.05-.09,.1-.09,.1-.14,.15l-.14,.14s-.07,.08-.09,.09c0,0-.03,.02-.06,.05-.03,.02-.07,.05-.11,.08s-.08,.05-.12,.08c-.04,.02-.07,.04-.07,.04-.06,.06-.16,.15-.32,.29-.16,.14-.32,.28-.5,.43-.18,.15-.35,.29-.51,.43-.16,.14-.27,.24-.32,.29-.06,.06-.15,.08-.27,.06-.04,0-.1,0-.18-.02-.08-.01-.14-.04-.18-.08,0,0-.02-.03-.04-.07-.02-.04-.03-.09-.05-.13-.02-.05-.04-.09-.05-.13-.02-.04-.04-.07-.04-.09-.07-.15-.16-.31-.26-.48-.1-.16-.21-.32-.34-.46-.12-.15-.26-.28-.4-.41s-.29-.23-.43-.3c-.02,0-.05,0-.1-.02-.05-.02-.11-.03-.18-.05s-.13-.04-.18-.06c-.06-.02-.1-.03-.12-.03,0-.02-.02-.03-.07-.05-.06-.02-.09-.03-.11-.03h-.1s-.03,0-.05-.01h-.43c-.14,0-.28,.01-.41,.04-.13,.02-.25,.07-.37,.13-.12,.07-.22,.16-.31,.29-.02,.04-.04,.1-.08,.17s-.05,.11-.05,.13,0,.05,0,.1c0,.05,0,.11-.01,.17,0,.06,0,.12-.01,.18,0,.06,0,.09,0,.1,0,.02-.01,.04-.04,.07-.03,.03-.04,.06-.04,.07v.07c.08,.2,.19,.4,.32,.58s.28,.36,.43,.52c.15,.17,.31,.33,.47,.49,.17,.16,.33,.32,.48,.47,0,.02,.04,.06,.1,.12s.09,.1,.09,.12c.03,.02,.1,.08,.21,.17,.11,.09,.23,.19,.37,.29,.13,.11,.27,.21,.4,.31s.24,.17,.31,.22l.12,.09s.03,.03,.07,.07c.04,.04,.07,.08,.11,.12,.04,.04,.07,.08,.1,.12,.03,.04,.06,.07,.07,.07l.12,.07c.28,.2,.54,.43,.78,.71,.24,.28,.47,.54,.68,.79,.02,.02,.08,.09,.16,.2,.09,.11,.18,.22,.27,.33,.09,.11,.18,.22,.26,.32,.08,.1,.13,.16,.15,.19,.02,.02,.04,.04,.07,.08s.06,.06,.07,.08c.02,.02,.04,.06,.07,.14,.03,.08,.05,.13,.06,.15,0,.02,.03,.05,.06,.11,.03,.06,.07,.12,.12,.19s.09,.14,.12,.2c.04,.07,.07,.11,.09,.15,0,.02,0,.04,.02,.07,.02,.03,.04,.06,.06,.09,.03,.03,.05,.06,.07,.09,.02,.03,.03,.05,.04,.05,0,.02,.03,.09,.07,.18s.09,.2,.13,.32c.05,.11,.1,.22,.14,.32,.04,.1,.07,.16,.09,.18,0,.02,.03,.07,.08,.15,.05,.08,.09,.13,.1,.15,0,.02,0,.06,0,.13s0,.12,0,.13c0,.02,0,.06,.04,.14,.03,.08,.06,.14,.08,.18l.16,.83-.09,1.48s0,.06-.03,.12c-.02,.05-.04,.09-.05,.12-.07,.27-.17,.51-.28,.73s-.29,.42-.51,.62c-.02,.03-.09,.09-.19,.18-.1,.09-.21,.19-.34,.29-.13,.11-.25,.21-.37,.3s-.22,.16-.28,.2c-.29,.24-.6,.47-.95,.7-.35,.23-.71,.41-1.07,.54-.15,.04-.29,.06-.41,.07-.12,0-.27,.03-.44,.07-.26,.05-.51,.11-.75,.17-.24,.06-.49,.09-.75,.07-.24-.02-.47-.05-.7-.1-.23-.05-.46-.11-.7-.17-.61-.19-1.15-.43-1.61-.72s-.87-.64-1.21-1.04c-.02-.02-.07-.08-.15-.16-.09-.09-.18-.18-.27-.27s-.18-.19-.26-.28c-.08-.09-.13-.15-.15-.17-.03-.03-.09-.1-.17-.19-.08-.09-.17-.19-.26-.29s-.18-.2-.26-.29c-.08-.09-.13-.15-.16-.18Z"/><path class="cls-12" d="M200.77,76.86c-.06-.02-.14-.03-.26-.05-.11-.02-.26-.05-.43-.08,0,0-.04,0-.11-.02-.06-.01-.14-.03-.24-.06-.09-.03-.19-.07-.29-.12-.1-.05-.19-.11-.27-.18-.02,0-.05-.02-.1-.04-.05-.02-.11-.04-.18-.07-.07-.03-.12-.05-.18-.07-.05-.02-.09-.03-.1-.04-.15-.06-.29-.13-.42-.23-.13-.1-.26-.2-.38-.31-.12-.11-.24-.21-.35-.32s-.22-.21-.32-.31c-.39-.37-.74-.75-1.05-1.16-.31-.41-.57-.85-.79-1.34-.18-.39-.32-.75-.43-1.07-.11-.32-.19-.64-.24-.95-.06-.31-.1-.64-.12-.97-.02-.33-.03-.72-.03-1.15v-.92c.11-.46,.23-.9,.37-1.31s.31-.8,.51-1.18c.2-.37,.43-.73,.69-1.07s.57-.67,.92-.99c.25-.24,.51-.46,.78-.63,.27-.18,.56-.34,.87-.49,.02,0,.06-.02,.1-.05s.09-.05,.15-.07,.1-.04,.14-.06c.04-.02,.07-.03,.09-.04,.02,0,.08,0,.18-.02s.15-.02,.17-.02c.02-.02,.07-.05,.15-.1s.12-.09,.13-.1c0,0,.03,0,.08-.01,.04,0,.09-.02,.14-.03s.09-.02,.13-.03c.04,0,.06-.02,.07-.02,.03,0,.11-.03,.22-.05,.11-.03,.24-.06,.37-.09,.13-.03,.25-.06,.37-.09,.12-.03,.19-.04,.23-.04,.06-.02,.18-.05,.35-.07s.35-.04,.55-.06c.2-.02,.38-.03,.56-.05,.17-.02,.3-.03,.38-.04h.15s.08,0,.13,0,.08,0,.1,0c.18,0,.34,.02,.49,.02,.15,0,.3,.03,.46,.07,.23,.06,.46,.11,.7,.16s.47,.09,.7,.12c.06,.02,.15,.07,.29,.13,.13,.07,.28,.14,.43,.22,.15,.08,.29,.16,.42,.23s.22,.13,.27,.16c.02,.02,.09,.08,.19,.18s.21,.21,.34,.34c.12,.12,.24,.24,.35,.37,.11,.12,.2,.22,.26,.28,0,.02,.03,.05,.07,.11,.04,.06,.09,.12,.14,.2,.05,.08,.11,.15,.16,.23s.1,.13,.13,.18c.29,.45,.54,.89,.73,1.33,.19,.44,.34,.89,.46,1.34,.11,.45,.2,.92,.25,1.39s.08,.97,.08,1.48v.05c-.02,.14-.03,.33-.06,.57-.02,.24-.04,.48-.06,.71-.02,.24-.04,.45-.05,.63-.02,.19-.03,.3-.04,.33-.06,.42-.14,.81-.26,1.18-.12,.37-.26,.74-.43,1.11-.15,.2-.28,.36-.37,.49-.09,.13-.19,.26-.29,.39s-.21,.26-.33,.42c-.13,.15-.3,.34-.52,.57-.29,.21-.59,.41-.91,.59-.32,.18-.65,.33-.99,.46-.34,.13-.69,.23-1.04,.31-.36,.07-.7,.1-1.04,.09h-.16c-.08,0-.16,0-.26,0-.09,0-.18,0-.26-.01-.08,0-.13,0-.16,0-.02-.02-.04-.03-.09-.05-.04-.02-.07-.02-.08-.02s-.05,0-.11,.01c-.06,0-.12,.02-.19,.03-.07,.01-.13,.02-.2,.03-.06,0-.1,0-.12,0-.03,0-.11,0-.23-.02-.12-.01-.25-.03-.38-.05-.14-.02-.27-.04-.38-.06-.12-.02-.19-.03-.21-.04h-.12l-.31-.09Zm-1.6-8.39c0,.23,.03,.45,.06,.67,.03,.22,.09,.44,.18,.65,0,.02,.02,.06,.06,.13s.06,.12,.06,.13c.03,.11,.07,.22,.1,.34,.03,.12,.07,.24,.1,.37,.04,.12,.08,.24,.13,.35,.05,.11,.11,.22,.18,.31,.02,.02,.06,.07,.12,.13s.11,.12,.17,.18c.06,.06,.11,.12,.16,.17s.08,.08,.1,.09c0,0,.04,.03,.08,.06,.04,.03,.1,.07,.16,.1s.12,.08,.18,.12c.06,.04,.11,.07,.15,.09l.12,.09s.08,.05,.16,.11c.08,.06,.13,.09,.15,.09,.02,.02,.06,.03,.12,.06,.06,.02,.12,.03,.16,.03,.17,.08,.3,.13,.38,.14s.16,.01,.22,0c.06-.01,.12-.02,.2-.04,.07-.01,.18,0,.32,.02,0,0,.04,0,.09,0s.1-.01,.16-.02c.06,0,.11-.02,.17-.02,.06,0,.1-.02,.13-.02,.38-.06,.74-.19,1.07-.39,.33-.2,.62-.46,.87-.76,.25-.3,.44-.64,.58-1.01s.21-.75,.21-1.13c0-.02,0-.12,0-.3,0-.17,.02-.48,.05-.92,0-.21-.04-.42-.13-.62-.09-.2-.16-.41-.23-.62-.11-.33-.3-.6-.56-.82s-.52-.43-.8-.62c-.17-.11-.33-.21-.47-.29s-.29-.14-.43-.19-.3-.09-.46-.11-.34-.04-.54-.05c-.19,0-.35,0-.49,0-.14,0-.3,.03-.49,.07-.2,.04-.42,.1-.63,.17-.22,.07-.43,.17-.63,.27s-.38,.24-.54,.4c-.16,.15-.28,.33-.35,.54l-.21,.59c-.05,.07-.09,.16-.13,.28-.04,.12-.07,.25-.1,.4-.03,.14-.04,.28-.04,.43s.01,.27,.04,.38Z"/><path class="cls-12" d="M212.87,77.27l-.71-.06c-.07,0-.1,0-.11,0,0-.01-.02-.04-.02-.08,0-.1,0-.18,0-.25s0-.15-.02-.25c0-.09-.03-.16-.06-.21-.03-.05-.05-.12-.06-.19,0-.05-.01-.09-.01-.13s.02-.08,.06-.12c.02-.11,.02-.37,.02-.77s0-.88-.02-1.45c-.02-.57-.04-1.18-.05-1.86-.02-.67-.04-1.34-.07-2.01-.02-.67-.04-1.3-.06-1.89-.02-.59-.02-1.1-.02-1.51,0-.08,0-.19-.01-.32s-.03-.28-.06-.43c-.02-.15-.04-.29-.05-.43-.02-.14-.02-.25,0-.34,0-.02,0-.05,0-.12s0-.1-.02-.13c-.04,0-.06-.02-.07-.06,0-.04,0-.08-.02-.12v-.1l.06-.12c.02-.21,.02-.39,.01-.54,0-.15-.02-.33-.04-.53,0-.03,0-.07,0-.12,0-.05-.01-.1-.02-.16,0-.06-.01-.12-.01-.2,0-.02-.01-.05-.04-.11-.03-.06-.04-.09-.04-.11s0-.05,.02-.1c.01-.05,.02-.09,.03-.1v-.09c0-.05,0-.11,0-.17,0-.06,0-.11,.01-.16,0-.05,0-.08,.02-.1l.02-.02s.01-.02,.01-.05c.28-.03,.54-.08,.8-.14,.26-.06,.53-.1,.81-.1,.33-.02,.65,0,.96,.02,.31,.03,.63,.07,.95,.11,.04,0,.1,.01,.18,.02,.08,0,.15,.01,.23,.02,.08,.01,.15,.04,.21,.08,.06,.04,.1,.1,.11,.18,.02,.14,0,.25-.02,.34-.03,.09-.04,.21-.02,.35v.04s0,.03,0,.04c0,0,0,.02,0,.02,.06-.02,.13-.06,.22-.1l.28-.14c.1-.05,.19-.1,.29-.14,.09-.04,.16-.08,.21-.1,.02,0,.06-.03,.14-.07,.08-.04,.13-.07,.15-.09,.02,0,.06,0,.14-.03,.08-.02,.12-.04,.13-.06,.07-.05,.17-.1,.27-.15s.22-.1,.34-.14c.11-.04,.22-.08,.31-.12,.09-.03,.15-.06,.18-.07,.2-.08,.41-.13,.62-.15,.21-.02,.43-.03,.66-.04,.37-.02,.74,0,1.12,.09,.38,.08,.75,.19,1.11,.34s.68,.31,.96,.49c.29,.18,.52,.36,.7,.54,.06,.07,.12,.14,.19,.24,.07,.09,.13,.19,.2,.29s.11,.2,.16,.3,.07,.19,.08,.27c0,.05-.03,.11-.07,.19s-.11,.16-.18,.24c-.07,.08-.14,.15-.21,.22-.07,.07-.12,.11-.15,.12,0,0-.03,.02-.06,.05-.03,.02-.07,.05-.1,.07s-.07,.05-.11,.07c-.04,.02-.06,.04-.07,.05-.03,.02-.08,.06-.14,.1-.06,.04-.12,.09-.18,.14-.06,.05-.12,.09-.17,.13-.05,.04-.08,.07-.09,.07-.14,.11-.27,.22-.4,.34-.13,.12-.26,.24-.4,.34-.14,.11-.29,.2-.45,.27-.16,.07-.34,.11-.53,.12h-.24s-.04-.02-.06-.02c-.02,0-.05-.02-.08-.04-.33-.17-.69-.33-1.06-.48-.38-.15-.75-.22-1.12-.21-.28,.02-.5,.12-.68,.31-.18,.19-.35,.38-.5,.59-.02,.03-.06,.09-.13,.17-.07,.08-.12,.14-.13,.18-.02,.03-.05,.09-.1,.17s-.1,.16-.15,.25c-.05,.09-.11,.18-.16,.27s-.09,.17-.1,.23c-.08,.19-.13,.4-.15,.62-.02,.23-.03,.44-.05,.65-.12,.82-.17,1.57-.15,2.24,.01,.67,.05,1.3,.13,1.9,.04,.44,.09,.87,.15,1.29,.06,.42,.11,.85,.15,1.29,0,.05,.02,.14,.03,.26,0,.13,.02,.26,.03,.39,.01,.13,.03,.26,.04,.39s.02,.21,.02,.26c-.02,0-.03,.02-.04,.02-.01,0-.03,.02-.04,.02l-.05,.02h-.07s-.04,0-.07-.02c-.03-.01-.06-.03-.07-.04l-3.32,.11Z"/><path class="cls-12" d="M226.26,77.27l-.71-.06c-.07,0-.1,0-.11,0,0-.01-.02-.04-.03-.08,0-.1,0-.18,0-.25s0-.15-.02-.25c0-.09-.03-.16-.06-.21s-.05-.12-.06-.19c0-.05-.01-.09-.01-.13s.02-.08,.06-.12c.02-.11,.03-.37,.03-.77s0-.88-.03-1.45c-.02-.57-.03-1.18-.05-1.86-.02-.67-.04-1.34-.07-2.01-.03-.67-.04-1.3-.06-1.89-.02-.59-.02-1.1-.02-1.51,0-.08,0-.19-.01-.32-.02-.13-.04-.28-.06-.43s-.04-.29-.05-.43c-.02-.14-.02-.25,0-.34,0-.02,0-.05,0-.12,0-.06-.01-.1-.02-.13-.04,0-.06-.02-.07-.06,0-.04-.01-.08-.02-.12v-.1l.06-.12c.02-.21,.02-.39,.01-.54,0-.15-.02-.33-.04-.53,0-.03,0-.07,0-.12s-.01-.1-.02-.16c0-.06-.01-.12-.01-.2,0-.02-.01-.05-.04-.11-.03-.06-.04-.09-.04-.11s0-.05,.02-.1c.01-.05,.02-.09,.03-.1v-.09c0-.05,0-.11,0-.17,0-.06,0-.11,.01-.16s0-.08,.02-.1l.03-.02s.01-.02,.01-.05c.28-.03,.54-.08,.81-.14s.53-.1,.81-.1c.33-.02,.65,0,.96,.02,.31,.03,.63,.07,.95,.11,.04,0,.1,.01,.18,.02,.08,0,.15,.01,.23,.02s.15,.04,.21,.08c.06,.04,.1,.1,.11,.18,.02,.14,.01,.25-.02,.34-.03,.09-.04,.21-.02,.35v.04s0,.03,0,.04c0,0,0,.02,0,.02,.06-.02,.13-.06,.22-.1l.28-.14c.1-.05,.19-.1,.29-.14s.16-.08,.21-.1c.02,0,.06-.03,.14-.07,.08-.04,.13-.07,.15-.09,.02,0,.06,0,.14-.03,.08-.02,.12-.04,.13-.06,.07-.05,.16-.1,.27-.15,.11-.05,.22-.1,.33-.14,.11-.04,.22-.08,.31-.12,.09-.03,.15-.06,.18-.07,.2-.08,.41-.13,.62-.15,.21-.02,.43-.03,.66-.04,.37-.02,.74,0,1.12,.09,.38,.08,.75,.19,1.1,.34,.35,.14,.68,.31,.96,.49s.52,.36,.7,.54c.06,.07,.12,.14,.19,.24,.07,.09,.13,.19,.2,.29,.06,.1,.11,.2,.16,.3,.04,.1,.07,.19,.08,.27,0,.05-.02,.11-.07,.19s-.11,.16-.18,.24c-.07,.08-.14,.15-.21,.22-.07,.07-.12,.11-.15,.12,0,0-.03,.02-.06,.05-.03,.02-.07,.05-.1,.07-.04,.02-.07,.05-.11,.07-.04,.02-.06,.04-.07,.05-.03,.02-.08,.06-.14,.1-.06,.04-.12,.09-.18,.14-.06,.05-.12,.09-.17,.13-.05,.04-.08,.07-.09,.07-.14,.11-.27,.22-.4,.34s-.26,.24-.4,.34c-.14,.11-.29,.2-.45,.27-.16,.07-.34,.11-.53,.12h-.24s-.04-.02-.06-.02c-.03,0-.05-.02-.09-.04-.33-.17-.69-.33-1.06-.48-.37-.15-.75-.22-1.12-.21-.28,.02-.5,.12-.68,.31-.18,.19-.35,.38-.5,.59-.02,.03-.06,.09-.13,.17-.07,.08-.12,.14-.13,.18-.02,.03-.05,.09-.1,.17s-.1,.16-.15,.25c-.05,.09-.11,.18-.16,.27s-.09,.17-.1,.23c-.08,.19-.13,.4-.15,.62-.02,.23-.03,.44-.05,.65-.11,.82-.17,1.57-.15,2.24,.01,.67,.05,1.3,.13,1.9,.04,.44,.09,.87,.15,1.29,.06,.42,.11,.85,.15,1.29,0,.05,.02,.14,.02,.26s.02,.26,.03,.39c.01,.13,.02,.26,.04,.39,.01,.13,.02,.21,.02,.26-.02,0-.03,.02-.04,.02-.01,0-.03,.02-.04,.02l-.05,.02h-.07s-.04,0-.07-.02c-.03-.01-.06-.03-.07-.04l-3.32,.11Z"/><path class="cls-12" d="M243.41,81.06c.14-.37,.28-.72,.43-1.05s.29-.66,.42-.98,.26-.63,.37-.93c.11-.31,.21-.61,.29-.92v-.05l.12-.55s.04-.04,.09-.07c.05-.03,.08-.06,.08-.09,0-.02,0-.05,.03-.1,.02-.05,.04-.11,.06-.16,.02-.05,.04-.11,.06-.16,.02-.05,.03-.09,.04-.1,.02-.1,.05-.19,.07-.27,.02-.09,.02-.17,0-.26l-.24-.56c-.05-.28-.15-.54-.29-.81-.15-.26-.29-.51-.43-.76l-.28-.4s-.03-.04-.03-.06v-.04c-.14-.2-.26-.4-.37-.6-.11-.21-.21-.42-.31-.62s-.2-.42-.3-.62c-.1-.21-.21-.41-.33-.62-.04-.05-.11-.15-.21-.31s-.21-.33-.32-.51c-.12-.18-.23-.36-.34-.53-.11-.17-.18-.3-.23-.38-.29-.44-.56-.88-.82-1.33-.26-.45-.53-.9-.79-1.35-.26-.45-.53-.9-.8-1.34-.27-.44-.56-.88-.85-1.31,0,0-.01-.02-.01-.02v-.05c-.02-.11,.03-.2,.16-.29,.02,0,.04,0,.07-.01,.03,0,.06-.02,.07-.02,.02,0,.04-.03,.08-.08s.06-.09,.08-.12c.02,0,.06,0,.12-.01,.06,0,.13-.02,.2-.03,.07-.01,.14-.02,.2-.04,.07-.01,.11-.02,.12-.03,.04,0,.15-.04,.33-.09s.37-.1,.58-.16c.21-.06,.4-.12,.58-.17,.18-.05,.29-.09,.34-.1,.02,0,.03,0,.05-.01,.02,0,.03,0,.04,0s.02,0,.03,0c.03,0,.06,0,.08-.01,.02,0,.04,0,.06-.01,.04,0,.1-.02,.18-.02,.08,0,.16-.02,.24-.02,.08,0,.15-.01,.22-.01h.13s.06,0,.1,.02c.04,.02,.09,.04,.13,.07,.03,.04,.07,.11,.12,.21,.06,.1,.12,.2,.18,.31,.06,.11,.12,.21,.18,.31s.1,.17,.13,.21c.26,.46,.54,.91,.84,1.34s.59,.87,.87,1.34c0,.02,.03,.06,.05,.12,.03,.06,.06,.12,.1,.19,.04,.07,.07,.13,.1,.18,.03,.06,.05,.09,.05,.1,0,0,.02,.03,.04,.06,.02,.03,.04,.07,.06,.1,.02,.04,.04,.07,.06,.11,.02,.04,.04,.06,.04,.08,.02,.02,.07,.1,.15,.22,.09,.12,.18,.25,.28,.4s.19,.28,.28,.4c.09,.13,.15,.21,.17,.24,.02,.03,.06,.12,.13,.26,.07,.14,.15,.29,.24,.45s.16,.31,.24,.45c.07,.14,.12,.23,.15,.26,0,.02,.01,.04,.04,.07,.03,.03,.05,.05,.07,.07,.02-.08,.03-.18,.04-.3s.03-.21,.04-.27c.06-.38,.14-.75,.22-1.11,.09-.36,.19-.72,.32-1.09,.06-.23,.15-.45,.26-.68s.19-.45,.26-.68c.11-.34,.24-.71,.38-1.11,.14-.4,.27-.76,.39-1.09,0-.02,.03-.08,.06-.16,.03-.08,.07-.17,.11-.27,.04-.1,.08-.19,.11-.27,.03-.08,.05-.13,.06-.16,.03-.1,.06-.18,.08-.26,.02-.07,.04-.14,.07-.21,.03-.06,.06-.13,.1-.19s.09-.13,.16-.2c0,0,.03,0,.08-.01,.04,0,.09-.02,.14-.03s.1-.02,.14-.04,.07-.02,.09-.03c.21-.03,.42-.05,.62-.05,.2,0,.41,0,.62,0,.04,0,.13,0,.26-.01,.13,0,.27-.01,.43-.02s.3,0,.43,0h.26c.06,0,.18-.01,.34-.02,.16,0,.33,0,.51,0h.51c.16,0,.27,0,.34,.01,.04,.02,.1,.05,.18,.09s.13,.09,.15,.14c0,.07,0,.16,0,.25,0,.09-.02,.19-.05,.28s-.05,.18-.07,.27-.04,.16-.06,.21c-.11,.4-.21,.78-.32,1.15s-.23,.73-.35,1.09c-.12,.36-.25,.72-.39,1.07-.14,.36-.29,.72-.45,1.09-.28,.62-.54,1.28-.78,1.98s-.47,1.37-.69,2c-.09,.27-.2,.56-.34,.87-.14,.31-.28,.59-.42,.84-.09,.16-.17,.33-.24,.49-.07,.17-.12,.33-.16,.49-.03,.15-.06,.27-.09,.38-.02,.11-.05,.21-.08,.31s-.07,.2-.12,.31c-.04,.11-.1,.23-.15,.38-.02,.05-.04,.14-.05,.27,0,.13,0,.23,0,.29,0,.02-.02,.07-.05,.15-.04,.08-.06,.13-.08,.15,0,0-.01,.03-.04,.06s-.06,.06-.09,.1c-.04,.04-.07,.07-.1,.1-.03,.03-.05,.05-.06,.05,0,.02,0,.06-.02,.12-.02,.06-.04,.13-.05,.2-.02,.07-.04,.13-.05,.2s-.02,.1-.02,.12c-.02,.04-.06,.12-.1,.23-.04,.11-.09,.23-.14,.35s-.09,.24-.13,.35c-.04,.11-.07,.19-.1,.23,.02,.19,.02,.33,0,.44s-.08,.24-.2,.39l-1.11,3.33s-.03,.06-.05,.12c-.03,.05-.06,.11-.1,.16-.04,.05-.08,.1-.12,.14s-.08,.06-.11,.07c-.07,.02-.16,.03-.28,.04-.11,0-.2,0-.26-.01-.02,0-.05,0-.1,0s-.11,.02-.18,.03c-.07,.01-.14,.02-.2,.03-.07,0-.12,0-.17-.01-.03,0-.07-.02-.12-.02s-.09,0-.11,0c-.04,0-.12-.02-.24-.04-.12-.02-.25-.04-.4-.07-.14-.02-.28-.05-.41-.07-.13-.02-.21-.03-.26-.03-.04,0-.11,.01-.2,.01h-.17s-.06,0-.13-.02c-.07-.01-.16-.02-.24-.03-.09,0-.17-.02-.25-.02-.08,0-.12-.01-.13-.01-.05,0-.11-.01-.18-.04-.07-.02-.13-.08-.18-.16-.04-.08-.07-.2-.06-.34,0-.15,.06-.35,.17-.6Z"/><path class="cls-12" d="M254.92,80.76s.02-.03,.04-.08c.02-.04,.04-.09,.07-.13,.03-.04,.05-.09,.07-.13s.03-.07,.04-.09c.11-.28,.21-.54,.29-.78,.08-.24,.15-.49,.22-.73,.06-.24,.12-.5,.18-.76,.05-.26,.1-.54,.15-.83,0-.02,0-.07,.01-.15,0-.07,.02-.15,.02-.24s.02-.17,.03-.24c0-.08,.01-.13,.01-.15-.07,0-.13,0-.17,.02-.04,.02-.07,.03-.1,.06s-.07,.04-.1,.06c-.04,.02-.09,.04-.15,.05-.29,.05-.56,.07-.83,.07-.09,0-.2-.03-.32-.1-.12-.07-.18-.16-.18-.27,0-.51,0-.99,0-1.43s0-.91-.02-1.42c.02-.03,.02-.08,.02-.13s0-.1,.02-.15c.01-.05,.04-.1,.07-.14,.04-.04,.1-.08,.19-.12h.93s.07,0,.14,0c.07,0,.14-.01,.22-.02,.08,0,.15-.02,.22-.02,.07,0,.12-.02,.15-.02,.03,0,.12,0,.27,0,.15,0,.31,0,.49,0h.48c.15,0,.24,0,.28-.01,.02,0,.06,0,.13,0,.07,0,.14-.01,.23-.02,.08,0,.15-.01,.22-.02,.06,0,.11,0,.12,0s.07,0,.15-.01c.09,0,.15-.01,.2-.01,.09,0,.18,0,.29,0,.1,0,.2,.03,.29,.07,.1,.05,.17,.15,.23,.29s.09,.3,.12,.47,.04,.33,.05,.48c0,.15,.01,.26,.01,.34v.17s-.01,.04-.04,.08-.04,.06-.04,.08c0,.02-.02,.06-.02,.12,0,.07-.02,.13-.03,.21s-.01,.14-.02,.21,0,.12,0,.15c0,.08,0,.19-.02,.34s-.05,.28-.09,.42c-.04,.13-.08,.25-.12,.35s-.09,.15-.13,.14c-.11,.21-.21,.43-.27,.67-.07,.23-.16,.46-.28,.69-.15,.26-.31,.52-.5,.79s-.39,.52-.6,.77-.45,.47-.7,.67c-.25,.2-.52,.36-.79,.48-.02,0-.05,.03-.12,.06-.06,.03-.13,.06-.21,.1s-.16,.07-.23,.1-.13,.05-.17,.06c-.07,.02-.12,.04-.15,.06-.03,.01-.08,.02-.14,.02-.08,0-.12-.02-.13-.07,0-.05,0-.11,0-.17v-.18Z"/><path class="cls-12" d="M271.95,76.92s-.08,0-.17,.02c-.09,.01-.19,.03-.29,.05s-.2,.04-.29,.05-.14,.02-.16,.02h-.07c-.15,0-.29,0-.45-.02-.15-.02-.29-.02-.43-.02s-.25,0-.32,0c-.08,0-.19,.02-.35,.04-.02,.02-.05,.03-.11,.05-.06,.02-.09,.02-.11,.02h-.02c-.11,0-.2-.04-.26-.12,0-.03-.02-.09-.04-.17-.02-.08-.04-.17-.06-.26-.02-.09-.04-.18-.06-.26-.02-.08-.03-.13-.04-.17v-.07c0-.22,.02-.5,.03-.84,0-.34,.02-.67,.02-.99s.01-.6,.02-.83c0-.23,0-.36,0-.37,0-.02,0-.07,0-.13,0-.06,0-.14,.02-.21s.01-.15,.02-.21c0-.06,0-.11,0-.13v-5.13c-.06-.44-.09-.88-.11-1.31s-.02-.87-.02-1.31,0-.88,.01-1.32,0-.88,0-1.33c0-.04,0-.14-.01-.29s-.02-.31-.02-.48c0-.17-.02-.33-.02-.48s-.01-.24-.01-.28v-.93c.02-.46,.02-.9,.02-1.29s-.01-.83-.04-1.29c.02-.07,.07-.12,.12-.13s.12-.02,.18-.02c.02,0,.03,0,.05,0,.02,0,.04,0,.06,0,.02,0,.05,.01,.09,.01,.03,0,.12,0,.27,0s.3,0,.47,.01c.17,0,.32,0,.47,.01s.24,0,.27,0h.43c.11,.02,.22,.02,.36,0s.27-.03,.41-.04c.14-.02,.27-.03,.41-.05,.13-.02,.26-.02,.37-.02,.09,0,.18-.01,.27-.04s.19-.04,.28-.04h.02s.06,.05,.14,.11c.08,.06,.13,.09,.15,.11l.13,.06s.05,.08,.09,.18,.05,.15,.05,.16c0,.04,0,.12,.02,.25s.03,.21,.05,.25c0,.04-.01,.12-.03,.25-.02,.13-.04,.26-.07,.4s-.05,.28-.07,.41c-.02,.13-.03,.21-.03,.24,.04,.05,.08,.12,.1,.22,.03,.1,.04,.17,.04,.21,0,.02-.02,.06-.06,.14s-.07,.12-.08,.14v.5s.02,.08,.04,.17c.02,.09,.03,.19,.05,.29,.02,.1,.03,.2,.04,.29,.01,.09,.02,.15,.02,.17v1.33c.03,.41,.07,.87,.1,1.38s.06,1.05,.08,1.62c.03,.57,.04,1.15,.06,1.75s.03,1.18,.04,1.75c.01,.57,.02,1.11,.03,1.63s.01,.98,.01,1.39,0,.75-.01,1.03-.02,.45-.04,.54c-.02,.19-.02,.37-.02,.56v.57c-.02,.07-.03,.15-.03,.27s0,.23,0,.35c0,.12,.01,.22,.02,.31,0,.09,.02,.14,.02,.15-.11,.33-.29,.58-.51,.73-.23,.15-.46,.25-.68,.3-.23,.05-.43,.07-.59,.06-.17-.01-.25-.01-.24,0l-.07,.02Z"/><path class="cls-12" d="M276.68,66.71s.02-.03,.04-.08c.02-.04,.04-.09,.07-.13s.05-.09,.07-.13c.02-.04,.04-.07,.04-.09,.11-.28,.21-.54,.29-.78,.08-.24,.15-.49,.22-.73s.12-.5,.18-.76c.05-.26,.1-.54,.15-.83,0-.02,0-.07,.01-.15,0-.07,.02-.15,.02-.24s.02-.17,.02-.24c0-.08,.01-.13,.01-.15-.07,0-.13,0-.17,.02-.04,.02-.07,.03-.1,.06-.03,.02-.07,.04-.1,.06-.04,.02-.09,.04-.15,.05-.29,.05-.56,.07-.83,.07-.09,0-.2-.03-.32-.1s-.18-.16-.18-.27c0-.51,0-.99,0-1.43s0-.91-.02-1.42c.02-.03,.02-.08,.02-.13s0-.1,.02-.15c.01-.05,.04-.1,.07-.14,.04-.04,.1-.08,.19-.12h.93s.07,0,.14,0,.14-.01,.22-.02c.08,0,.15-.02,.22-.02,.07,0,.12-.02,.15-.02,.03,0,.12,0,.27,0,.15,0,.31,0,.49,0h.48c.15,0,.24,0,.28-.01,.02,0,.06,0,.13,0s.14-.01,.23-.02c.08,0,.15-.01,.22-.02,.06,0,.11,0,.12,0,.02,0,.07,0,.15-.01,.08,0,.15-.01,.2-.01,.09,0,.18,0,.29,0,.1,0,.2,.03,.29,.07,.1,.05,.17,.15,.23,.29s.09,.3,.12,.47c.03,.17,.04,.33,.05,.48s.01,.26,.01,.34v.17s-.01,.04-.04,.08c-.03,.04-.04,.06-.04,.08,0,.02-.02,.06-.02,.12,0,.07-.02,.13-.02,.21s-.01,.14-.02,.21c0,.07,0,.12,0,.15,0,.08,0,.19-.02,.34-.02,.14-.05,.28-.08,.42-.04,.13-.08,.25-.12,.35s-.09,.15-.13,.14c-.11,.21-.21,.43-.27,.67s-.16,.46-.27,.69c-.15,.26-.31,.52-.5,.79-.19,.27-.39,.52-.6,.77s-.45,.47-.7,.67-.52,.36-.79,.48c-.02,0-.06,.03-.12,.06-.06,.03-.13,.06-.21,.1-.08,.04-.15,.07-.23,.1-.08,.03-.13,.05-.17,.06-.07,.02-.12,.04-.15,.06-.03,.01-.08,.02-.14,.02-.08,0-.12-.02-.13-.07,0-.05,0-.11,0-.17v-.18Z"/><path class="cls-12" d="M283.2,74.98c0-.16,0-.42,.02-.77,.01-.35,.02-.75,.04-1.2,.01-.45,.03-.92,.05-1.41,.02-.49,.04-.96,.05-1.41,.01-.45,.02-.84,.04-1.19,.01-.35,.02-.6,.02-.76,0-.04-.01-.12-.02-.24,0-.12-.01-.26-.02-.42-.01-.16-.02-.33-.03-.51,0-.17-.02-.34-.02-.51,0-.16-.01-.3-.02-.42,0-.12,0-.2,0-.24,0-.02,0-.1-.02-.23-.01-.13-.02-.27-.04-.44-.01-.17-.02-.34-.04-.51-.01-.17-.02-.31-.02-.43,0-.06,0-.18-.02-.35-.02-.17-.03-.34-.05-.53-.02-.19-.03-.36-.05-.52-.02-.16-.03-.28-.03-.34,0-.02,0-.05,.03-.11,.02-.06,.03-.1,.05-.12,.05-.05,.13-.08,.24-.08,.11,0,.19,0,.25,0,.02,0,.06-.02,.13-.02,.07,0,.15-.02,.23-.02,.08,0,.15-.01,.23-.02,.07,0,.12,0,.13,0,.02,0,.09,0,.2-.02,.11-.02,.23-.03,.36-.05,.13-.02,.25-.04,.37-.06,.11-.02,.19-.03,.22-.04,.05,0,.17,0,.35-.02,.19-.02,.39-.03,.61-.05,.22-.02,.42-.04,.61-.06,.19-.02,.31-.02,.35-.02,.02,0,.04,0,.06-.01,.02,0,.03,0,.05,0,.02,0,.03,0,.04,0,.11,0,.18,.03,.21,.1,.04,.07,.06,.16,.06,.28s0,.27-.02,.45c-.02,.18-.03,.38-.03,.61,.03-.02,.11-.08,.23-.2s.27-.25,.44-.4,.36-.29,.56-.43c.2-.14,.39-.25,.58-.32,.21-.07,.4-.14,.56-.19,.16-.05,.32-.1,.48-.13,.16-.04,.32-.06,.5-.08,.17-.02,.37-.02,.6-.02,.31,0,.64,.04,.98,.12s.66,.19,.95,.32c.04,.02,.11,.05,.2,.1,.09,.05,.19,.1,.3,.15,.11,.05,.21,.1,.31,.15s.18,.09,.23,.11c0,0,.04,.03,.08,.07s.1,.08,.17,.12c.06,.04,.12,.08,.17,.12,.05,.04,.09,.07,.12,.07,.03,.02,.07,.04,.13,.07,.05,.03,.09,.06,.1,.07,.02,.02,.08,.08,.17,.18s.19,.21,.29,.33,.2,.23,.29,.33,.15,.16,.17,.19h.07s.05-.05,.1-.11c.05-.06,.09-.09,.1-.09,.33-.27,.63-.52,.9-.74,.28-.23,.56-.43,.85-.6s.59-.32,.91-.45c.32-.12,.68-.21,1.09-.27,.19-.02,.37-.03,.56-.02,.19,.01,.38,.02,.59,.02,.28,0,.54,.05,.78,.14,.24,.09,.48,.2,.73,.31,0,0,.03,.02,.07,.04,.04,.02,.07,.04,.12,.07s.08,.05,.11,.07,.05,.03,.06,.04c0,0,.03,0,.06,.02,.03,.01,.06,.03,.1,.04,.03,.02,.06,.03,.09,.04,.03,0,.04,0,.03-.01,.15,.11,.28,.21,.38,.31,.1,.1,.19,.2,.27,.29,.08,.09,.15,.18,.21,.26,.07,.08,.14,.15,.22,.22,.15,.2,.28,.39,.39,.58,.11,.19,.2,.38,.27,.57,.07,.19,.14,.37,.19,.55,.05,.18,.1,.36,.15,.54,.14,.61,.25,1.2,.34,1.76,.09,.56,.16,1.11,.21,1.64,.06,.53,.11,1.05,.15,1.56,.04,.51,.1,1.02,.15,1.52,0,.11,0,.32,0,.62,0,.3,0,.62,.02,.96s.02,.66,.03,.96c0,.3,.02,.51,.02,.63,0,.02,0,.08,0,.18,0,.09,0,.2,.02,.31,0,.11,.01,.21,.02,.31s0,.16,0,.18v.07c0,.09-.02,.16-.07,.2s-.11,.08-.18,.1-.15,.04-.23,.06c-.08,.01-.15,.03-.21,.05-.14,.04-.23,.06-.27,.04-.04-.01-.11,0-.2,.04l-2.29,.05c-.1,.02-.18,.02-.25,0-.07-.03-.12-.07-.16-.13-.04-.06-.07-.12-.09-.18-.02-.06-.02-.11-.02-.14,0-.56,0-1.13-.02-1.71-.02-.58-.03-1.14-.05-1.7,0-.03,0-.11-.01-.22,0-.11-.01-.24-.02-.37,0-.13-.01-.25-.02-.37,0-.11-.01-.19-.01-.22,0-.11,0-.27,0-.47,0-.2-.01-.4-.02-.6s-.02-.38-.02-.54c0-.16-.02-.26-.03-.29,0-.02-.01-.11-.04-.27-.02-.15-.05-.33-.08-.54-.03-.2-.06-.4-.09-.6-.03-.2-.06-.36-.07-.48-.02-.16-.05-.3-.09-.42-.04-.12-.09-.25-.17-.38-.24-.43-.54-.79-.9-1.06-.36-.28-.8-.42-1.31-.42h-.34c-.11,0-.24,.03-.37,.09-.05,.03-.12,.06-.2,.08-.09,.02-.17,.04-.26,.07-.08,.02-.16,.05-.23,.09-.07,.03-.12,.08-.14,.13-.04,.04-.09,.09-.15,.15-.06,.06-.08,.1-.08,.12-.02,.02-.05,.08-.1,.16-.05,.08-.1,.17-.16,.27-.06,.1-.11,.19-.16,.27-.05,.08-.08,.13-.08,.16-.07,.18-.14,.34-.19,.48-.05,.14-.1,.28-.15,.42-.04,.13-.08,.27-.12,.42-.04,.15-.08,.32-.13,.51-.03,.1-.06,.23-.07,.39-.02,.16-.03,.33-.03,.5,0,.17,0,.34,0,.5,0,.16,0,.3,0,.4v.5s0,.09,0,.19c0,.1,0,.21,0,.33s0,.23,0,.32,0,.16,0,.18c0,.05,0,.18,0,.38,0,.2,0,.42,.02,.65,0,.23,.01,.45,.02,.65,0,.2,0,.33,0,.39,.02,.25,.03,.49,.05,.72,.02,.23,.02,.47,.02,.73,0,.09-.02,.18-.05,.28s-.09,.17-.18,.22c-.12,0-.23,0-.32,0-.09,0-.18,.02-.27,.04-.08,.02-.17,.03-.26,.06-.09,.02-.19,.04-.31,.05-.19,.02-.39,.04-.6,.04s-.41,0-.58-.01c-.18,0-.32-.02-.42-.03s-.14-.02-.1-.02c-.05,0-.11-.02-.18-.04s-.14-.05-.21-.09c-.06-.04-.12-.08-.16-.13s-.07-.11-.07-.18c0-.08,.01-.14,.04-.19,.03-.04,.04-.1,.04-.17v-.2s0-.1,0-.22,0-.25,0-.4,0-.27,0-.4,0-.19-.02-.21c-.02-.15-.02-.31-.01-.48,0-.17,.02-.35,.02-.52,0-.18,.01-.35,.02-.52,0-.17,0-.33,0-.48,0-.05,0-.16-.02-.32-.01-.17-.03-.34-.04-.53-.02-.19-.03-.36-.04-.53-.01-.17-.02-.27-.02-.32,0-.02,0-.09,0-.23,0-.13-.01-.29-.02-.46s-.02-.34-.02-.52c0-.17-.02-.32-.03-.42,0-.18-.03-.34-.05-.49-.03-.15-.07-.3-.12-.45s-.11-.29-.18-.45c-.07-.15-.14-.32-.21-.49-.2-.5-.52-.88-.95-1.13s-.94-.37-1.53-.37c-.18,0-.35,.03-.52,.09-.17,.06-.33,.13-.48,.23-.16,.1-.3,.21-.45,.34-.14,.13-.28,.26-.41,.39-.14,.15-.25,.33-.35,.54s-.17,.44-.24,.68c-.07,.24-.12,.48-.15,.72-.04,.24-.07,.46-.09,.65,0,.07-.02,.17-.03,.32-.01,.15-.03,.3-.04,.47s-.03,.32-.04,.46c-.01,.14-.02,.24-.03,.3v1.4s0,.07,.01,.16c0,.09,.02,.19,.03,.29,0,.11,.02,.2,.02,.29,0,.09,.01,.14,.01,.16v.57c0,.06,0,.15,0,.27,0,.12,.01,.25,.02,.38s.02,.26,.02,.37c0,.11,.02,.19,.02,.22,0,.04,.02,.13,.03,.26,.01,.13,.03,.27,.04,.42s.03,.29,.04,.43c.01,.13,.02,.22,.03,.25v.17s-.02,.06-.06,.12c-.04,.05-.09,.09-.13,.1-.16,.03-.27,.05-.34,.04-.06,0-.1,0-.12,0-.02,0-.06,0-.13,.02-.07,.02-.12,.02-.13,.02h-.28c-.24,.02-.45,.03-.64,.04-.19,0-.38,.02-.56,.03-.18,.01-.37,.02-.56,.02-.19,0-.41,0-.64,0h-.08c-.13,.06-.24,.07-.32,.03-.08-.04-.15-.14-.2-.31s-.09-.4-.12-.71c-.03-.31-.06-.7-.08-1.18Z"/><path class="cls-12" d="M316.11,77.15c-.11-.02-.19-.06-.26-.1-.07-.05-.13-.11-.17-.18s-.06-.14-.07-.21c-.01-.07-.02-.14-.01-.21,0-.06,0-.12,0-.17,0-.62,0-1.23-.02-1.85-.02-.61-.03-1.23-.04-1.85-.01-.62-.01-1.24,0-1.86,.01-.62,.04-1.24,.09-1.86l-.05-.57c0-.06,.02-.13,.02-.18,0-.05,.01-.1,.01-.15s0-.1,.01-.14v-1.62c0-.2,0-.4,0-.58s0-.3,0-.35c0-.04,0-.15,.02-.33,.01-.18,.02-.37,.04-.57,.01-.2,.02-.39,.03-.57,0-.18,0-.29,0-.34,0-.18,0-.38-.02-.61-.02-.23-.04-.44-.04-.62l.02-.43c0-.1,.03-.16,.08-.2s.11-.06,.17-.07c.06,0,.12,0,.17,0,.05,0,.08,0,.09,0,.02,0,.07,0,.14,0,.07,0,.14-.01,.22-.02,.08,0,.15-.02,.21-.02,.07,0,.11-.02,.12-.02h.86c.13,0,.27,0,.41,0s.29,.01,.46,.02h.13s.04,.02,.08,.02c.04,0,.09,.02,.15,.02,.05,0,.1,.02,.15,.03s.09,.02,.11,.03c.17,.03,.29,.07,.36,.12,.07,.04,.11,.11,.13,.18,.02,.08,.03,.17,.04,.29,0,.11,.02,.25,.05,.42,.35-.32,.72-.57,1.1-.77,.38-.2,.78-.34,1.18-.45,.41-.1,.82-.17,1.25-.19,.43-.02,.87-.02,1.32,0,.12,0,.25,.01,.39,.04,.14,.03,.28,.06,.42,.1,.14,.04,.28,.09,.42,.15,.13,.06,.25,.11,.36,.17,.07,.05,.17,.12,.29,.21,.12,.09,.23,.18,.35,.27,.11,.09,.21,.17,.3,.24,.09,.07,.13,.1,.14,.1,.23,.17,.43,.37,.61,.59,.17,.22,.32,.46,.45,.71,.13,.25,.23,.52,.32,.79,.09,.28,.16,.55,.21,.82,.02,.03,.05,.12,.08,.25s.06,.28,.09,.45c.03,.17,.05,.34,.07,.51,.02,.17,.03,.31,.03,.4v.45c0,.13,0,.27,0,.43,0,.15,0,.3,.01,.43,0,.13,0,.21,0,.24v2.45s-.03,.07-.04,.15-.02,.15-.03,.23c-.01,.08-.02,.16-.03,.23s-.01,.13-.01,.16v.27c-.02,.15-.03,.35-.03,.59s0,.5,0,.77,0,.55,0,.83v.77c0,.24,0,.44,0,.6,0,.16,0,.26,0,.31v.4c0,.09,0,.17,0,.25,0,.08,0,.12,0,.14v.12c-.01,.09-.06,.14-.17,.17s-.19,.03-.25,.04c-.02,0-.06,0-.1,0s-.09,.01-.14,.02c-.05,0-.09,.01-.13,.02-.04,0-.06,.01-.07,.02h-.5c-.12,0-.22,0-.32,0s-.16,.01-.18,.02c-.38,.02-.74,.04-1.07,.07-.33,.03-.7,.03-1.09,.02-.15,0-.25-.05-.3-.12s-.09-.15-.11-.25c-.02-.1-.02-.2-.01-.31,0-.11,.01-.21,.01-.31v-.29c0-.15,0-.32,0-.52s0-.41,0-.63,0-.44,0-.63,0-.37,0-.51v-3.12c.03-.28,.03-.61,.01-.99-.02-.37-.06-.76-.12-1.16-.06-.4-.14-.79-.25-1.17-.11-.38-.24-.72-.39-1.02s-.33-.53-.54-.7-.43-.24-.68-.22l-.43-.02c-.29,0-.52,.02-.7,.1s-.4,.18-.65,.33c-.02,0-.03,.01-.05,.03s-.02,.04-.02,.05c-.23,.17-.42,.41-.58,.73s-.29,.67-.4,1.06-.2,.81-.28,1.26c-.07,.44-.13,.88-.18,1.31,0,.04-.02,.14-.04,.31-.02,.16-.04,.34-.05,.54-.02,.2-.04,.4-.05,.6-.01,.2-.02,.35-.03,.46,0,0,0,.05,0,.12s-.01,.16-.02,.26c0,.1-.02,.2-.02,.3s-.01,.18-.01,.23c0,.04,0,.11,0,.2,0,.09,0,.19,0,.29s0,.2,0,.29c0,.09,0,.15,0,.18v1.83s0,.07,.03,.15c.02,.07,.02,.12,.02,.15,0,0,0,.03,0,.07,0,.04,0,.08,0,.12v.2c0,.07,0,.14,.01,.23,0,.09,0,.18-.01,.26s-.05,.16-.1,.21c-.05,.06-.14,.08-.27,.07-.19,0-.39,0-.62,0-.22,0-.46,.01-.7,.02-.24,0-.49,.01-.75,.02-.25,0-.49,0-.72-.03Z"/><path class="cls-12" d="M337.07,76.86c-.06-.02-.14-.03-.26-.05-.12-.02-.26-.05-.43-.08,0,0-.04,0-.11-.02-.07-.01-.14-.03-.24-.06s-.19-.07-.29-.12-.19-.11-.28-.18c-.02,0-.05-.02-.1-.04s-.11-.04-.18-.07-.12-.05-.18-.07-.09-.03-.1-.04c-.15-.06-.29-.13-.42-.23s-.26-.2-.38-.31c-.12-.11-.24-.21-.35-.32-.11-.11-.22-.21-.32-.31-.39-.37-.74-.75-1.05-1.16-.31-.41-.57-.85-.79-1.34-.18-.39-.32-.75-.43-1.07s-.19-.64-.24-.95-.1-.64-.12-.97c-.02-.33-.03-.72-.03-1.15v-.92c.11-.46,.23-.9,.37-1.31,.14-.41,.31-.8,.51-1.18,.2-.37,.43-.73,.69-1.07,.26-.34,.57-.67,.92-.99,.25-.24,.51-.46,.78-.63,.27-.18,.56-.34,.87-.49,.02,0,.06-.02,.1-.05,.04-.02,.09-.05,.15-.07,.05-.02,.1-.04,.14-.06,.04-.02,.07-.03,.08-.04,.03,0,.09,0,.18-.02s.15-.02,.17-.02c.02-.02,.07-.05,.15-.1s.12-.09,.13-.1c0,0,.04,0,.08-.01,.04,0,.09-.02,.14-.03s.09-.02,.13-.03c.04,0,.07-.02,.07-.02,.03,0,.11-.03,.22-.05s.24-.06,.37-.09c.13-.03,.25-.06,.37-.09,.12-.03,.19-.04,.22-.04,.07-.02,.18-.05,.35-.07s.35-.04,.55-.06c.2-.02,.38-.03,.55-.05,.18-.02,.3-.03,.38-.04h.15s.08,0,.13,0c.04,0,.08,0,.1,0,.18,0,.34,.02,.49,.02,.15,0,.3,.03,.46,.07,.23,.06,.46,.11,.7,.16,.24,.05,.47,.09,.7,.12,.06,.02,.15,.07,.29,.13,.13,.07,.28,.14,.43,.22,.15,.08,.29,.16,.42,.23,.13,.07,.22,.13,.27,.16,.02,.02,.09,.08,.19,.18,.1,.1,.21,.21,.34,.34,.12,.12,.24,.24,.35,.37s.2,.22,.26,.28c0,.02,.03,.05,.07,.11,.04,.06,.09,.12,.14,.2s.11,.15,.16,.23c.05,.07,.1,.13,.13,.18,.29,.45,.54,.89,.73,1.33s.34,.89,.46,1.34c.11,.45,.2,.92,.25,1.39,.05,.48,.08,.97,.08,1.48v.05c-.02,.14-.04,.33-.05,.57-.02,.24-.04,.48-.06,.71-.02,.24-.04,.45-.06,.63-.02,.19-.03,.3-.04,.33-.06,.42-.14,.81-.26,1.18-.12,.37-.26,.74-.43,1.11-.16,.2-.28,.36-.37,.49s-.19,.26-.29,.39-.21,.26-.34,.42c-.13,.15-.3,.34-.52,.57-.29,.21-.59,.41-.91,.59-.32,.18-.65,.33-1,.46-.34,.13-.69,.23-1.04,.31s-.7,.1-1.04,.09h-.17c-.08,0-.16,0-.26,0s-.18,0-.26-.01c-.08,0-.13,0-.17,0-.02-.02-.04-.03-.08-.05-.04-.02-.07-.02-.09-.02-.02,0-.05,0-.11,.01-.06,0-.12,.02-.19,.03-.07,.01-.13,.02-.2,.03-.06,0-.1,0-.12,0-.03,0-.11,0-.23-.02-.12-.01-.25-.03-.38-.05s-.27-.04-.38-.06c-.12-.02-.19-.03-.21-.04h-.12l-.3-.09Zm-1.6-8.39c0,.23,.03,.45,.06,.67s.09,.44,.18,.65c0,.02,.02,.06,.06,.13,.04,.07,.06,.12,.06,.13,.03,.11,.06,.22,.1,.34,.03,.12,.07,.24,.1,.37s.08,.24,.13,.35c.05,.11,.11,.22,.18,.31,.03,.02,.07,.07,.12,.13l.17,.18c.06,.06,.11,.12,.16,.17s.08,.08,.1,.09c0,0,.03,.03,.08,.06,.04,.03,.1,.07,.16,.1,.06,.04,.12,.08,.18,.12,.06,.04,.11,.07,.15,.09l.12,.09s.08,.05,.16,.11c.08,.06,.13,.09,.15,.09,.02,.02,.06,.03,.12,.06s.12,.03,.16,.03c.17,.08,.3,.13,.38,.14,.08,.01,.16,.01,.22,0s.13-.02,.2-.04c.07-.01,.18,0,.32,.02,0,0,.04,0,.08,0s.1-.01,.16-.02c.06,0,.11-.02,.17-.02,.06,0,.1-.02,.13-.02,.38-.06,.74-.19,1.07-.39,.33-.2,.62-.46,.87-.76,.25-.3,.44-.64,.58-1.01,.14-.37,.21-.75,.21-1.13,0-.02,0-.12,0-.3s.02-.48,.05-.92c0-.21-.04-.42-.13-.62-.09-.2-.16-.41-.23-.62-.11-.33-.3-.6-.55-.82-.26-.22-.52-.43-.8-.62-.17-.11-.33-.21-.47-.29-.14-.08-.29-.14-.43-.19s-.3-.09-.46-.11c-.16-.02-.34-.04-.54-.05-.19,0-.35,0-.49,0s-.3,.03-.49,.07c-.2,.04-.41,.1-.63,.17-.22,.07-.43,.17-.63,.27-.2,.11-.38,.24-.54,.4-.16,.15-.27,.33-.35,.54l-.21,.59c-.05,.07-.09,.16-.13,.28s-.07,.25-.1,.4c-.02,.14-.04,.28-.04,.43s.01,.27,.04,.38Z"/><path class="cls-12" d="M350.37,76.7s.03-.05,.05-.1c.02-.05,.03-.08,.03-.1,0-.04,0-.11,0-.21s0-.2,.01-.31,0-.21,0-.31v-.2c0-.06,0-.15,0-.26,0-.11,0-.22,.01-.33,0-.11,0-.21,0-.29v-.51c0-.19,0-.4,0-.62,0-.22,0-.42-.01-.62,0-.19,0-.31,0-.36,0-.02,0-.09,0-.18,0-.1,0-.2,.01-.32,0-.11,0-.22,0-.32s0-.16-.01-.18c0-.02,0-.09-.01-.2s-.02-.23-.03-.35c-.01-.12-.03-.24-.04-.35s-.02-.18-.02-.2c0-.11-.01-.28-.02-.51,0-.23,0-.49-.02-.77,0-.29-.02-.59-.03-.91s-.02-.62-.02-.9c0-.28-.02-.54-.03-.77,0-.23-.01-.4-.01-.51l-.04-.15c-.32,.02-.65,.02-1.01,0-.36-.01-.7-.04-1.02-.09,0-.02,0-.03-.01-.05,0-.02-.02-.05-.04-.09,0-.02-.02-.02-.05-.01-.03,0-.04,0-.03-.01,0-.07,0-.19-.02-.35-.01-.16-.03-.35-.04-.56-.01-.21-.02-.43-.04-.67-.01-.23-.02-.45-.04-.67-.01-.21-.02-.4-.03-.57s-.02-.29-.02-.36v-.13c0-.14,.04-.26,.12-.36,.08-.1,.18-.17,.32-.2,.28,.04,.58,.04,.88-.01,.3-.05,.59-.07,.87-.07h.2c.07,0,.13-.02,.18-.07v-.23c.02-.63,0-1.24-.06-1.84-.06-.6-.08-1.22-.06-1.84v-.17c0-.08,0-.17,0-.26,0-.09,0-.18,.01-.27s0-.14,0-.18c0-.06,.05-.11,.14-.13s.24,0,.47,.04c.06,0,.15-.02,.29-.03,.13-.01,.28-.03,.42-.04,.15-.02,.29-.03,.42-.04s.22-.02,.27-.03c.02,0,.09,0,.2,0s.23,0,.35,0,.24,0,.34,0,.17,0,.18,0h.15s.12,0,.22,0,.2,.01,.29,.02c.11,0,.23,.02,.35,.02l.13,.15s0,.06-.01,.12-.02,.11-.02,.16c0,.06-.01,.11-.02,.17,0,.05,0,.09,0,.12,.02,.02,.03,.04,.05,.07,.02,.03,.02,.06,.02,.07,.04,.33,.07,.64,.09,.95,.02,.31,.02,.64,.02,1,0,.09,0,.22,0,.38,0,.17,0,.35,.01,.56,0,.2,0,.41,.01,.62,0,.21,0,.41,0,.59,0,.05,.01,.08,.04,.1s.06,.03,.1,.04c.04,0,.09,0,.13,0,.04,0,.08-.01,.12-.01h.05c.26-.08,.51-.12,.76-.12h.79s.06,0,.11,0,.1,0,.15,0c.06,0,.12,.01,.2,.01l.07,.42c0,.42,0,.83,0,1.23s.01,.81,.08,1.25v.94c0,.09-.02,.16-.06,.21-.04,.05-.09,.09-.14,.11-.05,.02-.11,.04-.17,.06-.06,.02-.12,.03-.16,.05l-.35,.07h-1.34l-.02,1.05s0,.06-.01,.12-.01,.13-.02,.2,0,.13-.01,.19c0,.06,0,.09,.02,.1-.02,.28-.02,.53-.01,.77,0,.24,.02,.47,.04,.69,.02,.22,.04,.45,.07,.68,.03,.23,.05,.48,.08,.74l-.13,6.4c0,.08-.04,.15-.13,.2-.08,.05-.16,.08-.22,.08h-2.67s-.07,.02-.15,.03-.12,.02-.13,.02c-.02,0-.05,0-.11-.03s-.09-.03-.11-.03c-.03,0-.07,0-.14-.01-.07,0-.14-.02-.22-.02-.08,0-.15-.02-.22-.02-.07,0-.11-.02-.13-.02-.09,0-.19-.03-.31-.05-.12-.03-.18-.11-.18-.25v-.05Z"/><path class="cls-12" d="M177.09,106.59c-.28-.15-.54-.28-.77-.42-.24-.13-.48-.29-.73-.48-.12-.11-.24-.21-.37-.31-.13-.1-.25-.2-.36-.31s-.2-.21-.28-.32c-.07-.11-.11-.24-.12-.37,0-.04,0-.1,0-.16s0-.11,0-.13c.02-.05,.05-.09,.09-.13,.02-.04,.03-.07,.05-.1,.02-.02,.03-.04,.04-.05,.02-.02,.05-.05,.11-.12s.12-.12,.18-.19c.06-.06,.13-.13,.19-.19,.06-.06,.1-.1,.13-.13,.02-.02,.05-.06,.1-.14,.05-.08,.09-.13,.1-.15,.05-.05,.11-.11,.19-.18,.08-.07,.15-.15,.23-.22s.14-.14,.2-.2,.1-.1,.13-.13c.03-.02,.1-.06,.19-.11,.09-.05,.16-.08,.19-.09h.16c.06,0,.12,.03,.18,.09,.06,.06,.11,.12,.17,.19s.11,.14,.18,.21,.13,.12,.21,.15c.17,.1,.35,.21,.54,.34s.4,.25,.63,.37,.48,.22,.76,.31c.27,.09,.57,.14,.9,.15,.06,.05,.15,.06,.27,.03,.13-.03,.25-.08,.38-.15,.13-.07,.24-.16,.34-.26s.15-.2,.16-.29c0-.06,0-.13-.01-.23s-.02-.2-.04-.3c-.02-.1-.04-.2-.07-.28s-.05-.15-.09-.2c-.29-.4-.59-.74-.9-1.02-.31-.28-.68-.54-1.11-.78-.02,0-.09-.04-.19-.11-.1-.06-.21-.13-.34-.21-.12-.07-.23-.14-.34-.2-.1-.06-.16-.1-.18-.12-.02-.02-.06-.05-.13-.1s-.15-.1-.24-.16-.17-.12-.26-.18c-.09-.06-.14-.1-.18-.13-.05-.06-.14-.13-.27-.22-.13-.09-.22-.15-.28-.2-.06-.06-.14-.17-.26-.34-.12-.17-.24-.34-.38-.53-.13-.19-.26-.36-.38-.52-.12-.16-.2-.26-.25-.31-.33-.38-.53-.8-.61-1.26s-.11-.92-.1-1.37c0-.19,.05-.4,.12-.63,.07-.24,.14-.46,.23-.67s.16-.38,.23-.52c.07-.14,.11-.21,.13-.21,.04-.06,.09-.14,.16-.22,.06-.08,.13-.16,.21-.23,.07-.07,.15-.14,.22-.21,.07-.06,.14-.12,.2-.16,.2-.15,.39-.28,.59-.37,.2-.09,.4-.16,.62-.22,.21-.06,.43-.11,.65-.15,.22-.04,.46-.09,.7-.13,.23-.02,.52-.04,.88-.05,.36-.01,.8,.03,1.3,.13h.05c.34,.05,.68,.13,1.03,.25s.68,.26,1,.44,.63,.37,.93,.59,.57,.46,.82,.71c.03,.05,.09,.12,.16,.21,.07,.09,.15,.18,.22,.27,.07,.09,.14,.17,.2,.24s.1,.12,.12,.13c.03,.05,.05,.1,.06,.14,0,.04,0,.09,0,.14,0,.05-.01,.1-.01,.14s-.03,.08-.08,.1c-.07,.04-.16,.13-.28,.26s-.24,.27-.37,.41c-.12,.14-.23,.26-.33,.37-.1,.11-.16,.15-.18,.13-.03,.03-.1,.09-.19,.18s-.19,.17-.29,.27-.2,.18-.3,.27-.17,.15-.22,.19c-.07,.06-.13,.11-.17,.15s-.11,.06-.2,.05h-.07s-.04-.02-.07-.05c-.03-.02-.07-.05-.1-.07s-.07-.05-.1-.07c-.03-.02-.05-.04-.06-.05-.07-.03-.2-.11-.37-.22-.18-.11-.36-.23-.56-.36s-.38-.25-.55-.36c-.17-.11-.29-.19-.35-.23-.03,0-.08-.02-.15-.04-.07-.02-.14-.03-.22-.05-.08-.02-.15-.03-.22-.05-.07-.02-.12-.03-.15-.04h-.03c-.06,.02-.13,.04-.2,.07-.07,.03-.13,.07-.2,.12s-.11,.11-.15,.17c-.04,.07-.05,.13-.03,.21,0,.07,0,.16,.01,.27,.02,.12,.05,.21,.1,.26,.2,.3,.45,.57,.77,.8s.64,.41,.98,.53c.54,.21,1.03,.44,1.46,.7,.43,.25,.85,.58,1.26,.99,.03,.02,.08,.08,.15,.17,.08,.09,.17,.18,.26,.27s.19,.19,.27,.28c.09,.09,.14,.15,.18,.18,.04,.04,.1,.1,.17,.18s.11,.12,.11,.13c.02,.04,.06,.1,.12,.18,.05,.08,.11,.17,.17,.27,.06,.1,.11,.19,.17,.27s.09,.15,.12,.19c.05,.07,.09,.16,.12,.28,.03,.12,.05,.26,.06,.4s.02,.3,.02,.45c0,.15,0,.28,0,.38,0,.02,0,.05,0,.1s0,.1,0,.16,0,.11,0,.17,0,.08,0,.09c-.1,.77-.34,1.43-.74,2-.4,.57-.89,1.09-1.5,1.58-.2,.15-.39,.28-.59,.38s-.42,.18-.66,.24c-.24,.06-.5,.11-.79,.14s-.62,.05-.99,.06c-.29,0-.59-.04-.9-.11-.3-.06-.61-.14-.91-.23-.3-.09-.6-.17-.9-.26-.3-.09-.59-.17-.87-.24Z"/><path class="cls-12" d="M187.54,101.45c-.02-.08-.04-.21-.08-.38-.04-.17-.08-.35-.13-.54s-.08-.37-.12-.54c-.04-.17-.06-.29-.07-.38,0-.03-.01-.1-.02-.21s-.01-.23-.02-.35c0-.13-.01-.24-.02-.35s0-.18-.02-.2c0-.04,0-.09,0-.16,0-.06-.01-.13-.02-.2,0-.06-.02-.13-.02-.18,0-.06-.02-.1-.03-.12l-.05-.12s-.01-.06-.01-.13v-.23c0-.08,0-.15,0-.22,0-.06,0-.11,0-.12-.02-.2-.03-.44-.03-.7,0-.26,0-.52-.01-.79,0-.26,0-.52,0-.78v-.68c0-.28,0-.54,0-.77,0-.23,0-.45,.02-.66,0-.21,.02-.41,.04-.6s.04-.39,.07-.59c.02-.09,.1-.16,.26-.23,.16-.06,.31-.09,.46-.09h.57c.08,0,.18,0,.31,.02,.13,.02,.25,.03,.38,.06s.24,.04,.34,.05c.1,.02,.15,.03,.17,.04,.02,0,.07,0,.17,.01,.1,0,.2,.02,.31,.03,.11,.01,.21,.02,.31,.04s.16,.02,.18,.03c.02,0,.08,.01,.18,.02,.09,0,.2,0,.31,0s.21,0,.31,0,.16,.01,.2,.02c.05,.04,.08,.08,.1,.11,.02,.03,.03,.06,.04,.09s0,.06,0,.11,0,.1,0,.16v.5c-.04,.31-.07,.6-.07,.89,0,.28-.01,.58-.01,.91,0,.52,.01,1.04,.03,1.54,.02,.51,.02,1.06,0,1.67l.07,.66v.2c.04,.2,.07,.41,.08,.62,.02,.21,.04,.43,.06,.64s.05,.43,.08,.65c.03,.22,.09,.43,.16,.64,.02,.04,.04,.1,.07,.17s.06,.14,.09,.21,.06,.14,.08,.2c.03,.06,.04,.1,.05,.1,.06,.15,.15,.29,.28,.4,.13,.11,.27,.21,.41,.29,.14,.08,.28,.14,.4,.19s.21,.07,.25,.08c.02,0,.07,.03,.17,.07s.17,.06,.21,.08c.02,.02,.08,.02,.17,0,.08-.01,.14-.02,.15-.02,.15,0,.34-.03,.58-.08s.49-.17,.75-.34c.3-.33,.52-.65,.67-.99,.14-.33,.24-.68,.29-1.03,.05-.35,.07-.71,.07-1.09s-.01-.78-.01-1.2v-.4s0-.15,0-.32-.01-.36-.02-.56c0-.2-.01-.38-.02-.56s0-.28,0-.32v-1.21s-.02-.12-.03-.24c-.01-.12-.03-.27-.06-.43-.02-.17-.05-.34-.07-.53-.03-.19-.05-.36-.07-.52-.02-.16-.04-.3-.06-.42-.02-.12-.02-.2-.02-.24l.12-1.05c.03-.06,.08-.1,.15-.12,.07-.02,.14-.03,.23-.04,.08,0,.16,0,.24,0s.14,0,.2,0c0,0,.03,0,.08-.01,.04,0,.09-.02,.14-.02,.05,0,.09-.02,.13-.02,.04,0,.06-.01,.07-.01l1.49,.11s.09,.03,.18,.03,.2,0,.31,0h.31c.1,0,.15,0,.17,.01,.05,0,.12-.02,.23-.02,.1,0,.21-.01,.32-.02,.11,0,.21,0,.31-.01,.09,0,.16,0,.19,0l.15,.05c.1,0,.17,.04,.23,.12s.09,.18,.12,.31,.05,.27,.05,.45c0,.17,.01,.35,.01,.55v.23c0,.16,0,.33-.03,.49-.02,.16-.03,.33-.05,.49,0,.05-.01,.16-.01,.34s0,.36,0,.56,0,.38,0,.56,0,.29-.01,.34c0,.03,0,.12-.03,.25s-.04,.28-.07,.43c-.02,.15-.05,.3-.07,.43s-.03,.22-.04,.25c0,.04,0,.14-.02,.29-.01,.15-.03,.33-.04,.52s-.03,.38-.05,.56-.04,.32-.04,.42c0,.02,0,.06-.02,.14-.01,.08-.03,.16-.04,.24-.02,.09-.03,.17-.05,.24-.02,.08-.03,.12-.04,.14v.3c0,.07,0,.13,0,.2,0,.06-.01,.1-.02,.1,0,0,0,.03-.02,.07-.01,.04-.03,.09-.04,.13-.02,.05-.03,.1-.04,.14-.01,.04-.02,.07-.02,.08-.07,.31-.13,.6-.18,.86s-.09,.52-.13,.77-.1,.5-.16,.76c-.06,.26-.14,.54-.25,.84-.06,.17-.16,.37-.29,.59-.14,.22-.29,.44-.45,.65-.16,.22-.31,.42-.46,.6s-.27,.32-.36,.4c-.11,.15-.25,.29-.44,.4-.19,.11-.39,.21-.61,.29-.22,.09-.44,.16-.66,.23-.22,.07-.41,.13-.56,.19-.26,.11-.53,.17-.8,.19-.27,.02-.55,.03-.82,.03-.24,0-.49,0-.74,0s-.5,0-.75-.01c-.25-.01-.5-.04-.75-.09s-.49-.12-.71-.22c-.48-.21-.93-.46-1.35-.74-.42-.28-.84-.59-1.25-.93-.05-.04-.11-.1-.19-.19s-.16-.17-.24-.26c-.09-.09-.17-.17-.26-.25-.08-.08-.16-.13-.21-.15,.03,.02,.02-.04-.04-.18s-.14-.35-.26-.61c-.04-.09-.09-.22-.15-.4-.06-.18-.11-.37-.17-.58-.05-.21-.1-.41-.15-.61-.04-.2-.08-.36-.09-.48Z"/><path class="cls-12" d="M203.96,107.27l-.71-.06c-.06,0-.1,0-.11,0s-.02-.04-.02-.08c0-.1-.01-.18,0-.25,0-.07,0-.15-.02-.25,0-.09-.03-.16-.06-.21-.03-.05-.05-.12-.06-.19,0-.05-.01-.09-.01-.13s.02-.08,.06-.12c.02-.11,.02-.37,.02-.77s0-.88-.02-1.45-.03-1.18-.06-1.86c-.02-.67-.04-1.34-.07-2.01-.02-.67-.04-1.3-.06-1.89-.02-.59-.03-1.1-.03-1.51,0-.08,0-.19-.01-.32-.02-.13-.04-.28-.05-.43-.02-.15-.04-.29-.05-.43-.02-.14-.02-.25,0-.34,0-.02,0-.05,0-.12,0-.06-.01-.1-.02-.13-.04,0-.06-.02-.07-.06,0-.04-.01-.08-.02-.12v-.1l.06-.12c.02-.21,.02-.39,.01-.54s-.02-.33-.04-.53c0-.03,0-.07,0-.12s0-.1-.02-.16c0-.06-.01-.12-.01-.2,0-.02-.01-.05-.04-.11-.03-.06-.04-.09-.04-.11s0-.05,.02-.1,.02-.09,.03-.1v-.09c0-.05,0-.11,0-.17,0-.06,0-.11,.01-.16s0-.08,.02-.1l.02-.02s.01-.02,.01-.05c.28-.03,.54-.08,.81-.14,.26-.06,.53-.1,.8-.1,.33-.02,.66,0,.96,.02,.31,.03,.63,.07,.95,.11,.04,0,.1,.01,.18,.02,.08,0,.15,.01,.23,.02,.08,.01,.15,.04,.21,.08,.07,.04,.1,.1,.11,.18,.02,.14,.01,.25-.02,.34-.03,.09-.04,.21-.02,.35v.04s0,.03,0,.04c0,0,0,.02,0,.02,.06-.02,.13-.06,.22-.1,.09-.04,.18-.09,.28-.14s.19-.1,.29-.14,.17-.08,.21-.1c.02,0,.06-.03,.14-.07,.08-.04,.13-.07,.15-.09,.02,0,.06,0,.14-.03,.08-.02,.12-.04,.13-.06,.07-.05,.16-.1,.28-.15,.11-.05,.22-.1,.33-.14s.22-.08,.31-.12c.09-.03,.15-.06,.18-.07,.2-.08,.41-.13,.62-.15,.21-.02,.43-.03,.66-.04,.37-.02,.74,0,1.12,.09,.38,.08,.75,.19,1.1,.34,.36,.14,.68,.31,.96,.49s.52,.36,.7,.54c.06,.07,.12,.14,.19,.24,.07,.09,.13,.19,.2,.29,.06,.1,.12,.2,.16,.3,.04,.1,.07,.19,.08,.27,0,.05-.02,.11-.07,.19s-.11,.16-.18,.24c-.07,.08-.14,.15-.21,.22-.07,.07-.12,.11-.15,.12,0,0-.03,.02-.06,.05s-.07,.05-.1,.07c-.04,.02-.07,.05-.11,.07s-.06,.04-.07,.05c-.03,.02-.08,.06-.14,.1s-.12,.09-.18,.14-.12,.09-.17,.13c-.05,.04-.08,.07-.09,.07-.14,.11-.27,.22-.4,.34-.13,.12-.26,.24-.4,.34-.14,.11-.29,.2-.45,.27s-.34,.11-.53,.12h-.24s-.04-.02-.06-.02c-.02,0-.05-.02-.09-.04-.33-.17-.69-.33-1.06-.48s-.75-.22-1.12-.21c-.28,.02-.5,.12-.68,.31-.18,.19-.35,.38-.5,.59-.02,.03-.06,.09-.13,.17-.07,.08-.12,.14-.13,.18-.02,.03-.05,.09-.1,.17s-.1,.16-.15,.25c-.05,.09-.11,.18-.16,.27-.05,.09-.09,.17-.1,.23-.08,.19-.13,.4-.15,.62-.02,.23-.03,.44-.05,.65-.11,.82-.16,1.57-.15,2.24s.05,1.3,.13,1.9c.04,.44,.09,.87,.15,1.29,.06,.42,.11,.85,.15,1.29,0,.05,.02,.14,.02,.26s.02,.26,.03,.39,.02,.26,.04,.39c.01,.13,.02,.21,.02,.26-.02,0-.03,.02-.04,.02-.01,0-.03,.02-.04,.02l-.05,.02h-.07s-.04,0-.07-.02c-.03-.01-.06-.03-.07-.04l-3.32,.11Z"/><path class="cls-12" d="M215.32,98.79c.05-.3,.11-.6,.18-.88,.07-.29,.15-.58,.24-.87,.07-.21,.12-.4,.17-.56,.04-.16,.1-.35,.16-.55,0-.02,0-.06,.03-.13,.02-.07,.04-.15,.07-.24,.03-.09,.05-.16,.08-.23,.02-.07,.04-.11,.05-.13,.09-.28,.22-.54,.39-.77,.17-.23,.35-.46,.54-.68,0,0,.03-.04,.08-.09,.04-.05,.1-.11,.15-.17,.06-.06,.11-.12,.16-.18,.05-.06,.08-.1,.11-.12,0,0,.02-.03,.05-.06,.02-.03,.05-.07,.08-.12,.03-.04,.05-.08,.08-.12,.03-.03,.04-.05,.06-.06,.34-.29,.72-.56,1.13-.79,.41-.24,.84-.44,1.28-.61s.89-.3,1.36-.4c.46-.09,.91-.14,1.36-.15,.5-.04,1.03-.03,1.58,.02,.54,.06,1.05,.19,1.53,.4,.4,.12,.74,.26,1.03,.42,.29,.15,.53,.31,.73,.45s.36,.28,.49,.4c.13,.12,.24,.2,.34,.25,.25,.22,.48,.44,.68,.65,.2,.21,.39,.43,.56,.66,.17,.23,.32,.47,.47,.73s.29,.54,.43,.86c.02,.07,.06,.21,.1,.4s.09,.39,.14,.6c.05,.21,.09,.41,.13,.6,.04,.19,.06,.32,.07,.4,0,.02,.01,.05,.02,.11,0,.06,0,.13,0,.21v.43s0,.12,0,.2c0,.09,0,.17,0,.26v.23c0,.07,0,.1-.01,.11,0,.02-.01,.08-.04,.15s-.05,.16-.07,.24-.05,.17-.07,.24c-.02,.08-.03,.12-.03,.14-.16,.16-.33,.27-.49,.34-.17,.06-.36,.1-.59,.12-.22,.02-.49,.03-.81,.03-.31,0-.69,.03-1.14,.08h-.63c-.15,0-.28,0-.4,0-.12,0-.2,0-.23,0h-.12s-.05,.03-.1,.04c-.05,0-.11,.01-.16,0s-.11-.01-.15-.03c-.04-.02-.07-.04-.08-.07,0,0-.04,0-.11,0-.07,0-.14,0-.21,0h-.23c-.08,0-.13,0-.15-.01,0,0-.02,.01-.04,.01h-.06c-.2,0-.42,.02-.67,.02-.25,0-.51,.02-.78,.02-.26,0-.52,.01-.78,.02s-.48,0-.67,0c-.29,.02-.56,.02-.79,0-.23-.01-.46-.02-.67-.04-.22-.01-.44-.02-.67-.03-.23,0-.49,0-.79,0-.04,0-.08,0-.12,0s-.07,.03-.08,.07c0,.04,.01,.1,.03,.18,.02,.08,.03,.13,.03,.16,.07,.29,.12,.5,.15,.63,.03,.13,.05,.22,.08,.27s.06,.1,.09,.13c.04,.04,.1,.11,.18,.23,0,0,.01,.03,.04,.06,.03,.03,.06,.06,.1,.09,.04,.03,.07,.06,.1,.09,.03,.03,.04,.05,.04,.05,.27,.43,.62,.74,1.06,.93s.89,.28,1.35,.26c.07,0,.15,0,.27,0,.11,0,.18,0,.2,0,.16-.02,.28-.02,.35-.02s.13,.01,.18,.02c.05,0,.1,.01,.15,.02s.14,0,.26-.02c.12-.02,.28-.05,.49-.09s.49-.11,.86-.2c0,0,.05-.02,.13-.06,.08-.04,.17-.09,.26-.13s.18-.1,.27-.14c.09-.04,.14-.07,.15-.08,.21-.13,.4-.26,.57-.38,.17-.13,.33-.24,.47-.35,.14-.11,.28-.2,.4-.28,.13-.08,.25-.15,.37-.2h.07s.04,0,.07,.02c.03,.02,.05,.04,.05,.05,.07,.07,.18,.15,.33,.25s.29,.21,.45,.31c.15,.11,.29,.21,.43,.31,.14,.1,.24,.19,.31,.26,.02,.02,.08,.06,.17,.12,.09,.07,.18,.14,.28,.21s.18,.15,.26,.22c.07,.07,.11,.11,.11,.12v.05s0,.03,0,.04c0,0,0,.02,0,.04,0,.2-.05,.38-.18,.54-.13,.15-.26,.31-.4,.45-.38,.42-.79,.82-1.21,1.21s-.89,.72-1.4,.98c-.16,.07-.33,.13-.49,.17s-.33,.08-.49,.14c-.21,.06-.42,.11-.61,.14-.2,.03-.39,.05-.57,.05s-.38,.01-.58,0c-.2,0-.41,0-.64,0-.59,.02-1.14,0-1.67-.06s-1.07-.17-1.64-.33c-.21-.06-.41-.14-.59-.21s-.35-.16-.51-.26-.32-.2-.47-.32c-.16-.12-.31-.25-.48-.38-.29-.24-.57-.48-.87-.71-.29-.23-.57-.5-.83-.81-.02,0-.05-.06-.1-.15-.05-.09-.08-.15-.09-.17-.02-.02-.05-.05-.1-.12s-.1-.13-.15-.2-.11-.13-.16-.2c-.05-.06-.08-.1-.09-.12-.02-.02-.05-.09-.1-.19-.05-.1-.12-.22-.18-.35-.07-.13-.13-.27-.2-.4-.06-.13-.11-.24-.14-.32-.02-.02-.03-.05-.05-.1-.02-.05-.02-.08-.02-.1-.1-.54-.18-1.06-.25-1.57-.07-.51-.1-1.05-.09-1.6v-.06Zm8.69-3.91c-.42,0-.8,.06-1.16,.15-.36,.09-.71,.26-1.05,.49-.11,.07-.24,.17-.38,.28-.14,.11-.28,.24-.41,.37s-.25,.28-.34,.43-.13,.3-.13,.45c.21-.02,.41-.04,.59-.07,.18-.03,.37-.05,.57-.06h.05s.07,.01,.15,.02,.18,0,.28,.01,.2,0,.29,.01c.09,0,.15,0,.17,0h1.17c.07,0,.18,0,.31-.01,.13,0,.26-.02,.4-.02,.13,0,.25-.01,.36-.02s.17,0,.18,0c.08,0,.23,0,.45,0,.21,0,.45,0,.69-.01s.47-.01,.69-.02c.22,0,.36-.02,.45-.02,.02,0,.03,0,.05-.02l.03-.02s0-.04-.03-.07c-.02-.03-.03-.06-.05-.07-.02-.03-.04-.08-.07-.13-.03-.05-.06-.11-.09-.16-.03-.05-.06-.1-.09-.13-.02-.04-.04-.06-.05-.07-.36-.45-.81-.78-1.36-.99-.55-.21-1.1-.31-1.65-.29Z"/><path class="cls-12" d="M251.67,102.93s-.04-.05-.08-.12c-.04-.07-.05-.12-.05-.14-.02-.02-.02-.06-.02-.14s0-.12,0-.14c0-.03-.02-.1-.05-.2s-.05-.21-.09-.32c-.03-.12-.06-.23-.1-.34-.03-.11-.06-.19-.07-.25-.06-.21-.14-.46-.26-.75s-.22-.54-.31-.75l-.07-.07c-.03,.08-.09,.22-.16,.42s-.15,.4-.23,.62c-.08,.22-.16,.43-.23,.62-.07,.2-.12,.33-.15,.42-.02,.06-.08,.19-.17,.41-.09,.22-.19,.45-.29,.7-.11,.25-.21,.48-.3,.7-.09,.22-.15,.35-.18,.41,0,.02,0,.05-.03,.09-.02,.04-.03,.09-.05,.15-.02,.05-.04,.11-.07,.17-.03,.06-.04,.11-.06,.14-.05,.14-.1,.29-.16,.46s-.12,.34-.18,.51c-.06,.17-.12,.34-.19,.51-.07,.17-.13,.32-.2,.45-.06,.14-.13,.26-.21,.36s-.2,.18-.37,.24c-.23,.02-.43,.04-.6,.05-.17,0-.34,.01-.5,.01s-.33,0-.5,0c-.17,0-.36,0-.58,0-.05,0-.12,0-.2,0-.08,0-.17,0-.26,.01s-.17,0-.23,0h-.11l-.12-.12c-.03-.13-.07-.25-.12-.35-.04-.11-.09-.21-.13-.32-.04-.11-.08-.21-.12-.32s-.06-.24-.07-.38c-.02-.02-.03-.06-.05-.14-.02-.08-.03-.12-.03-.14-.13-.41-.28-.84-.45-1.31-.17-.47-.32-.91-.45-1.31-.03-.11-.07-.2-.1-.29s-.07-.17-.11-.24c-.04-.08-.08-.15-.12-.23s-.08-.17-.11-.27c-.02-.11-.05-.22-.07-.32-.02-.1-.04-.21-.07-.32-.02-.05-.06-.14-.11-.28-.05-.14-.1-.28-.16-.44-.06-.15-.11-.3-.16-.44-.05-.14-.08-.24-.1-.29-.02,0-.04-.06-.08-.16s-.06-.16-.08-.18v-.05l-.95-3.05c-.13-.24-.23-.48-.29-.72s-.14-.49-.23-.73c0-.02-.03-.08-.07-.18-.04-.09-.08-.19-.12-.3-.04-.11-.08-.21-.12-.31s-.06-.16-.07-.18c0-.02-.02-.05-.03-.11-.01-.06-.03-.12-.04-.18-.02-.06-.03-.12-.05-.18-.02-.05-.03-.08-.04-.09,0,0,0-.04-.03-.1-.02-.06-.04-.12-.07-.18-.02-.06-.05-.12-.07-.17-.02-.05-.04-.09-.04-.1,0-.02,0-.05-.01-.1,0-.05-.02-.09-.03-.12,0-.06,0-.13,.03-.21,.02-.07,.07-.12,.16-.15,.02,0,.06,0,.13,0,.07,0,.12,0,.13,0,.44-.07,.88-.15,1.33-.24,.45-.09,.89-.14,1.34-.17h.05s.06,0,.14-.01c.08,0,.12-.01,.14-.01,.02,0,.09,.02,.19,.06s.16,.06,.19,.08c.02,.02,.04,.03,.07,.05,.05,.03,.09,.06,.12,.07,0,0,.02,.01,.02,.02s.02,.01,.03,.02l.02,.02s.01,.08,.03,.18c.02,.1,.04,.16,.05,.18,.02,.04,.05,.11,.1,.22,.05,.11,.09,.17,.1,.2,.05,.11,.09,.22,.12,.31,.03,.09,.07,.17,.12,.23,0,.04,.03,.12,.07,.23,.04,.11,.08,.22,.13,.34s.09,.23,.13,.34c.04,.11,.06,.18,.08,.21,.02,.02,.04,.07,.08,.15s.06,.12,.08,.15c.02,.04,.06,.08,.12,.11,.06,.03,.09,.08,.09,.15l-.06,.12v.09l1.31,2.95h.07c.04-.06,.08-.13,.11-.2,.03-.06,.06-.11,.09-.17,.03-.06,.05-.11,.08-.15,.02-.04,.06-.12,.12-.23s.11-.23,.17-.35c.06-.12,.11-.24,.17-.34,.05-.11,.09-.18,.1-.23,0-.02,.02-.05,.02-.09,.02-.06,.03-.09,.05-.11,0-.02,.03-.06,.08-.12,.06-.06,.09-.1,.11-.1,.02-.02,.04-.06,.06-.13,.02-.07,.05-.13,.07-.17,.03-.04,.07-.15,.14-.34,.07-.18,.15-.38,.23-.59s.16-.4,.24-.59c.07-.19,.12-.31,.15-.35,.04-.1,.09-.22,.14-.38,.05-.15,.12-.29,.2-.4,0,0,.02-.03,.05-.07,.02-.04,.05-.09,.08-.13,.03-.05,.06-.09,.08-.13,.02-.04,.04-.06,.05-.07,0-.02,0-.09,.02-.2,.02-.11,.03-.17,.05-.2,.02-.04,.06-.07,.13-.1,.07-.02,.12-.04,.15-.04,.04-.02,.1-.03,.19-.05s.14-.03,.15-.03c0,0,.04,0,.1,0s.12,0,.19-.01c.07,0,.14,0,.21-.01s.13,0,.18,0c.31-.02,.63-.03,.96-.04,.33,0,.65,.02,.95,.1,0,0,.02,.02,.04,.02,0,0,.03,.01,.05,.01,.12,.19,.21,.38,.28,.59,.06,.2,.13,.4,.21,.6,.11,.28,.2,.55,.29,.83,.09,.28,.2,.56,.32,.84,.1,.24,.2,.49,.31,.74,.11,.25,.22,.5,.34,.76,.09,.23,.17,.46,.25,.7,.08,.24,.16,.48,.24,.72,.08,.24,.17,.47,.26,.7,.09,.23,.21,.44,.34,.63,.07-.05,.13-.14,.17-.28,.04-.14,.07-.24,.1-.31,.02-.03,.06-.12,.13-.26,.07-.14,.14-.29,.22-.45,.08-.16,.15-.31,.21-.45,.07-.14,.11-.23,.12-.27,.02-.03,.04-.08,.07-.15,.03-.07,.06-.14,.09-.21,.03-.07,.06-.14,.08-.19,.02-.05,.03-.09,.04-.1,0-.03,.03-.11,.07-.24s.08-.26,.13-.4c.04-.14,.08-.28,.12-.4s.06-.21,.08-.24c0-.03,.04-.11,.08-.23s.1-.26,.17-.4,.12-.29,.17-.42c.05-.13,.09-.23,.12-.3,0-.03,.04-.11,.09-.23,.05-.12,.11-.25,.17-.38s.12-.26,.18-.38c.06-.12,.09-.2,.11-.23,.02-.06,.05-.14,.09-.24,.03-.1,.07-.2,.12-.31s.1-.19,.16-.27c.06-.08,.14-.12,.23-.12h.09s.05,0,.07-.01h1.07s.05,0,.12,0c.07,0,.14,0,.22-.01,.08,0,.15,0,.23-.01,.07,0,.12,0,.13,0,.02,.02,.06,.04,.14,.09,.08,.04,.12,.06,.14,.06,.24,.07,.48,.1,.73,.11,.25,0,.5,.04,.73,.09,0,0,.02,.02,.04,.02,.02,0,.03,.02,.05,.02l.05,.02s.04,.1,.09,.17,.08,.12,.08,.14c0,.19,0,.39-.03,.6-.03,.22-.08,.41-.14,.58-.21,.63-.44,1.24-.69,1.81s-.49,1.15-.74,1.74c-.02,.02-.05,.11-.1,.24-.05,.14-.12,.29-.18,.45-.07,.16-.13,.31-.19,.44s-.09,.21-.1,.24c-.21,.51-.42,1.01-.62,1.48-.2,.48-.4,.97-.6,1.48-.09,.22-.17,.43-.24,.62s-.15,.39-.22,.57c-.07,.19-.15,.38-.23,.57-.08,.19-.17,.4-.26,.62,0,.02-.02,.06-.05,.12-.02,.07-.05,.13-.08,.21-.03,.07-.06,.14-.09,.2s-.04,.1-.05,.1c-.04,.1-.09,.22-.16,.35-.07,.14-.13,.28-.21,.43s-.14,.29-.21,.42c-.06,.13-.12,.25-.16,.34-.04,.11-.1,.23-.18,.38-.08,.15-.17,.22-.29,.23-.2,.03-.38,.06-.56,.08-.18,.02-.35,.04-.53,.05-.17,.01-.34,.02-.52,.03-.18,0-.37,.02-.57,.02-.04,0-.11,0-.22,0-.11,0-.22,0-.34,.01s-.24,.01-.34,.02c-.11,0-.18,.01-.22,.01-.07-.03-.12-.08-.17-.15-.05-.06-.09-.14-.13-.22-.04-.08-.07-.16-.09-.24-.02-.08-.04-.15-.06-.22,0-.02-.02-.05-.03-.1s-.03-.11-.04-.17c-.02-.06-.03-.12-.04-.17-.01-.05-.02-.09-.03-.1,0-.02-.03-.06-.05-.14-.03-.08-.06-.16-.09-.26-.03-.09-.07-.18-.1-.26-.03-.08-.05-.13-.06-.16-.02-.06-.05-.18-.1-.34-.05-.16-.1-.34-.15-.52-.05-.18-.1-.36-.15-.52s-.08-.29-.11-.36Z"/><path class="cls-12" d="M264.27,107.39h-.14c-.05,0-.08-.03-.08-.1v-.02c-.07,.06-.14,.04-.21-.07-.06-.11-.09-.36-.07-.76v-.17c-.02-.51-.01-1.02,.01-1.51,.02-.5,.05-.97,.08-1.43,.03-.46,.05-.9,.08-1.32,.03-.42,.03-.83,.03-1.21,0-.09-.03-.16-.07-.21s-.07-.12-.07-.19v-.07s.02-.05,.06-.12,.07-.1,.09-.12c0,0,0-.04-.03-.09-.02-.05-.03-.11-.05-.18-.02-.07-.03-.14-.05-.2-.02-.06-.02-.12-.02-.16,0-.06,.02-.15,.02-.27s.02-.25,.03-.37c0-.13,.01-.24,.02-.35,0-.11,0-.17,0-.21,0-.06,.01-.18,0-.36,0-.18,0-.38-.02-.59,0-.21-.02-.41-.02-.59,0-.18-.01-.3-.01-.36,.02-.72,.03-1.42,.05-2.11,.02-.69,.03-1.38,.03-2.07,0-.05,0-.09,0-.13s.03-.08,.07-.12v-1.55c0-.26,0-.49,0-.7,.01-.21,.03-.41,.04-.61s.03-.4,.04-.61,.02-.44,.02-.7c0-.04,0-.13,.01-.26,0-.13,.01-.22,.01-.26,0-.03,0-.1,0-.19,0-.09-.01-.19,0-.29,0-.1,.01-.19,.03-.26,.02-.08,.05-.12,.11-.12l.82-.2s.04,0,.09-.01c.05,0,.11-.02,.16-.02,.05,0,.1-.02,.15-.02,.05,0,.08-.01,.1-.01h1.75s.07,0,.15,0c.07,0,.15,.01,.23,.02,.08,0,.16,.02,.24,.02,.08,0,.13,.02,.16,.02,.07,0,.14,.03,.24,.1,.09,.07,.15,.14,.18,.23,.07,.29,.12,.59,.15,.9,.03,.31,.07,.58,.12,.82,0,.07,0,.22,.02,.45,.01,.23,.02,.49,.04,.8,.01,.31,.03,.63,.04,.96s.03,.66,.04,.96,.02,.57,.03,.8c0,.23,.02,.38,.02,.45v.15c.18-.06,.33-.14,.45-.24,.12-.09,.26-.19,.42-.29,0,0,.03,0,.08-.03,.04-.02,.09-.04,.14-.07s.09-.05,.13-.07,.06-.03,.07-.04c.44-.25,.91-.41,1.4-.48,.49-.06,.99-.1,1.5-.1,.05,0,.11,0,.19,0,.08,0,.15,0,.22,0s.14,0,.2,0,.09,0,.1,0,.04,0,.11,.02c.07,.02,.14,.04,.21,.06,.08,.02,.16,.05,.24,.07,.08,.02,.14,.04,.18,.05,.02,0,.07,.03,.15,.06s.17,.06,.27,.1l.29,.11c.1,.04,.17,.06,.22,.08,.17,.07,.33,.17,.5,.28,.16,.11,.31,.24,.46,.37s.29,.27,.42,.42,.26,.28,.38,.4c.02,.02,.04,.08,.07,.18,.03,.11,.06,.17,.07,.18,.03,.06,.06,.13,.1,.22,.04,.09,.09,.18,.13,.27,.04,.09,.08,.17,.12,.24s.05,.11,.06,.12c0,.02,0,.05,.02,.1,.02,.05,.04,.11,.06,.18s.05,.13,.07,.2c.02,.06,.03,.11,.04,.14,.02,.07,.03,.22,.04,.48,.01,.25,.02,.53,.03,.84,0,.31,.01,.62,.01,.93s0,.57-.01,.76l-.05,1.21,.09,.92v.21c-.03,.33-.01,.74,.03,1.25,.04,.5,.07,1.06,.07,1.66v.73c0,.1-.01,.26-.02,.5,0,.24,0,.48-.01,.74,0,.26,0,.51-.01,.74,0,.24,0,.4-.02,.5-.04,.1-.13,.2-.28,.31s-.28,.17-.39,.19c-.05,0-.24,0-.58,.02s-.9,0-1.68-.04c-.02,.02-.05,.03-.1,.05-.05,.02-.09,.02-.12,0-.02,0-.05,0-.1,0-.05,0-.1-.01-.16-.02s-.12-.02-.17-.02-.08-.02-.08-.02c-.04,0-.1-.01-.17-.02-.07,0-.15,0-.24-.01-.08,0-.17,0-.24-.01-.08,0-.14,0-.18,0-.02,0-.06,0-.13-.02-.07-.01-.11-.01-.13,0h-.07s-.04-.04-.08-.07c-.04-.03-.06-.06-.08-.07v-.07s.02-.04,.03-.1c.01-.06,.02-.12,.03-.18s.01-.12,.02-.17c0-.05,0-.09,0-.1,0-.06,.01-.2,.02-.43,0-.23,0-.47,.02-.73,0-.26,.01-.5,.02-.73,0-.23,0-.37,.02-.43,0-.04,0-.14,.02-.3,.01-.16,.03-.33,.04-.51,.02-.18,.03-.35,.04-.51s.02-.26,.02-.3c0-.02,0-.12,.01-.28,0-.16,.02-.35,.03-.57,.01-.22,.03-.43,.04-.65s.02-.38,.02-.51c0-.08,0-.22,0-.41,0-.19,0-.39,0-.61s0-.42,0-.6c0-.19,0-.32,0-.4,0-.02,0-.07-.02-.15-.01-.07-.03-.15-.04-.23-.02-.08-.03-.15-.04-.23s-.02-.12-.02-.15v-.07s-.04-.11-.07-.22c-.03-.11-.07-.22-.1-.34s-.07-.24-.11-.34c-.04-.11-.06-.18-.07-.22-.03-.09-.06-.16-.09-.21-.03-.05-.06-.09-.1-.12-.04-.03-.08-.06-.13-.1-.05-.03-.11-.08-.18-.15-.11-.09-.19-.16-.26-.21-.07-.05-.14-.09-.21-.11-.07-.02-.15-.04-.23-.04-.09,0-.2,0-.35,0-.12,0-.24,0-.35,0-.11,0-.22,.03-.35,.07-.22,.07-.42,.19-.61,.36-.19,.17-.36,.36-.51,.57-.15,.21-.28,.44-.38,.68-.11,.24-.19,.46-.24,.67-.02,.02-.03,.07-.06,.15-.02,.09-.03,.15-.03,.19,0,.02-.02,.05-.03,.1s-.02,.11-.02,.17c0,.06-.01,.12-.02,.18,0,.06,0,.09,0,.1,0,.05-.03,.15-.07,.31s-.08,.33-.13,.51-.1,.35-.14,.51c-.04,.16-.07,.26-.09,.3-.02,.04-.03,.11-.04,.21,0,.1-.02,.17-.04,.21-.02,.14-.04,.34-.07,.6-.03,.26-.06,.52-.1,.79-.04,.27-.07,.51-.09,.73-.03,.22-.04,.35-.04,.4v.76c0,.07,0,.2,0,.37s0,.35,.02,.53c0,.18,.01,.35,0,.5,0,.15-.02,.24-.03,.27,0,.16,0,.35-.01,.56,0,.21-.01,.39-.01,.54v.06s-.01,.07-.03,.1c-.02,.04-.05,.07-.1,.11s-.11,.06-.2,.08l-3.5,.06Z"/><path class="cls-12" d="M291.35,107.12c-.1-.06-.14-.14-.13-.24,.01-.11,.01-.21,0-.31,0-.02-.01-.04-.04-.07-.02-.03-.04-.06-.04-.07v-.11c0-.11,.02-.22,.07-.31,.05-.09,.07-.19,.07-.29v-.07s-.06,0-.12,.02c-.05,.02-.09,.03-.1,.05-.06,.04-.15,.1-.28,.18-.12,.08-.26,.17-.41,.26-.15,.09-.29,.17-.43,.24s-.24,.11-.32,.12l-.95,.39h-.07s-.04,0-.09,.01c-.04,0-.08,.02-.13,.03-.04,.01-.09,.02-.13,.03-.04,0-.07,.01-.08,.01h-1.16c-.12,0-.24,0-.35-.01-.11,0-.22-.02-.34-.02-.12,0-.25-.02-.4-.05-.02,0-.06-.02-.13-.04-.07-.02-.14-.03-.22-.05-.08-.02-.15-.03-.22-.04-.07-.01-.11-.02-.13-.02h-.63l-.4-.16c-.06-.02-.14-.07-.26-.13-.12-.06-.24-.13-.38-.21-.13-.07-.26-.14-.38-.21-.12-.06-.21-.11-.27-.13-.05-.02-.12-.06-.22-.1s-.2-.09-.3-.15c-.1-.05-.2-.1-.29-.14-.09-.04-.15-.07-.17-.09,0,0-.03-.03-.06-.05-.03-.03-.07-.06-.12-.1-.04-.04-.09-.08-.13-.12-.04-.04-.08-.06-.1-.08-.2-.2-.4-.43-.59-.67-.19-.24-.37-.48-.56-.7-.17-.2-.31-.47-.43-.81-.11-.33-.21-.69-.28-1.06s-.13-.73-.16-1.09c-.03-.36-.05-.67-.05-.93,0-.33,0-.64,0-.93,0-.28,.02-.56,.05-.84,.03-.27,.07-.55,.13-.82,.06-.28,.14-.57,.24-.89,0-.05,.04-.15,.09-.31s.11-.32,.16-.48,.11-.29,.15-.38,.06-.1,.05-.01c.13-.37,.3-.72,.51-1.04,.21-.32,.45-.62,.72-.9,.27-.28,.56-.53,.87-.77,.31-.24,.64-.46,.97-.66,.03-.02,.11-.07,.23-.13,.12-.06,.24-.12,.38-.19,.13-.06,.26-.13,.39-.19,.12-.06,.21-.1,.26-.12,0,0,.04-.02,.08-.03,.04-.01,.1-.03,.16-.04,.06-.02,.12-.03,.18-.04l.15-.03s.11-.03,.2-.05c.08-.02,.13-.02,.15-.02h2.4c.29,.08,.56,.16,.83,.23s.53,.15,.78,.26,.49,.22,.72,.37c.23,.14,.46,.33,.68,.56h.05s0-.06,0-.1c0-.04,0-.09,0-.14s0-.1,0-.14,0-.08,0-.09c0,0,0-.04,.01-.09s.02-.1,.03-.16c.01-.06,.02-.11,.04-.15,.01-.04,.02-.07,.02-.08-.04-.06-.04-.12-.01-.18,.03-.06,.08-.11,.14-.15,.06-.04,.13-.07,.2-.08,.07-.01,.13,0,.18,.03,.41,0,.76,0,1.07,0s.61,.01,.9,.02,.6,.03,.91,.07c.31,.03,.67,.07,1.08,.12,.02,.02,.06,.04,.12,.07s.09,.06,.09,.1c0,.07,0,.16,.01,.27,0,.11,.02,.22,.03,.34,0,.12,.02,.23,.02,.34s0,.21,0,.29c0,.02,0,.07-.01,.15,0,.08-.02,.17-.02,.27,0,.1-.02,.19-.02,.27,0,.08-.01,.13-.01,.15,0,.02-.01,.08-.04,.18s-.04,.15-.04,.16c0,.02,0,.08,0,.15,0,.08,0,.16,0,.24v.24c0,.08,0,.12-.01,.14,0,.02,0,.06-.02,.11-.02,.05-.03,.09-.05,.11l-.03,2.88v.73c0,.31,0,.69,0,1.15,0,.46,.01,.97,.02,1.53,0,.56,.02,1.12,.02,1.68s.02,1.08,.03,1.58c0,.5,.02,.91,.04,1.25,0,.02,0,.09-.02,.19s-.02,.21-.04,.34c-.01,.12-.02,.23-.04,.34-.01,.1-.02,.16,0,.19v.2s-.07,.05-.17,.09c-.09,.03-.15,.06-.16,.07-.22,0-.41,0-.57,.02-.16,.02-.31,.03-.45,.06s-.29,.04-.44,.05-.34,.02-.56,.01h-.57c-.06,0-.15,0-.29,0s-.28-.01-.43-.02c-.15,0-.29-.02-.43-.02-.13,0-.23-.02-.29-.02Zm-7.21-8.03c0,.43,.07,.83,.21,1.2s.33,.73,.56,1.09c.02,.02,.04,.06,.07,.12,.03,.05,.06,.08,.07,.08,.2,.21,.4,.42,.6,.61s.43,.37,.66,.52c.23,.15,.48,.27,.74,.36,.26,.09,.54,.13,.85,.13,.26,0,.53-.04,.79-.13,.27-.09,.52-.18,.76-.28,.03-.02,.08-.04,.14-.07,.06-.03,.12-.06,.18-.09,.06-.03,.12-.06,.16-.08,.04-.02,.07-.04,.09-.05,.3-.23,.55-.5,.75-.81s.35-.65,.47-1c.12-.35,.2-.72,.24-1.1,.04-.38,.08-.74,.09-1.09,0-.04,0-.11,0-.21s0-.2-.02-.31c0-.11-.02-.21-.03-.3s-.02-.16-.02-.19l-.11-.22c-.03-.06-.07-.13-.1-.18-.03-.06-.06-.11-.07-.15-.16-.31-.33-.61-.49-.9-.17-.29-.39-.52-.67-.69-.06-.05-.14-.1-.22-.16-.08-.06-.17-.12-.26-.18-.09-.06-.18-.12-.27-.17-.09-.05-.17-.09-.24-.1-.03,0-.09-.02-.18-.05s-.18-.05-.27-.07-.19-.04-.27-.06c-.09-.02-.14-.03-.18-.04-.05-.07-.12-.12-.22-.13s-.21-.01-.32,0c-.12,.01-.23,.03-.35,.05-.11,.02-.21,.04-.28,.04-.12,0-.25,.02-.39,.07s-.27,.1-.4,.18c-.13,.07-.25,.15-.37,.24-.12,.09-.22,.18-.31,.28-.02,.02-.05,.06-.1,.12-.05,.07-.11,.13-.17,.2-.06,.07-.12,.14-.18,.2-.06,.07-.09,.11-.1,.12-.31,.34-.53,.74-.65,1.21-.07,.33-.12,.65-.15,.98-.03,.33-.04,.67-.04,1.01Z"/><path class="cls-12" d="M299.71,106.7s.03-.05,.05-.1c.02-.05,.02-.08,.02-.1,0-.04,0-.11,0-.21,0-.1,0-.2,.01-.31,0-.11,0-.21,0-.31v-.2c0-.06,0-.15,0-.26v-.33c.02-.11,.02-.21,.02-.29v-.51c0-.19,0-.4,0-.62s0-.42-.01-.62,0-.31,0-.36c0-.02,0-.09,0-.18s0-.2,.01-.32c0-.11,0-.22,0-.32s0-.16-.01-.18c0-.02,0-.09-.01-.2,0-.11-.02-.23-.03-.35s-.02-.24-.04-.35c-.01-.11-.02-.18-.02-.2,0-.11-.01-.28-.02-.51,0-.23-.01-.49-.02-.77s-.02-.59-.02-.91c0-.32-.02-.62-.03-.9,0-.28-.02-.54-.02-.77,0-.23-.01-.4-.01-.51l-.04-.15c-.32,.02-.65,.02-1.01,0s-.69-.04-1.02-.09c0-.02,0-.03-.01-.05s-.02-.05-.04-.09c0-.02-.02-.02-.05-.01-.03,0-.04,0-.02-.01,0-.07,0-.19-.02-.35-.01-.16-.02-.35-.04-.56-.01-.21-.03-.43-.04-.67s-.03-.45-.04-.67c-.01-.21-.02-.4-.03-.57,0-.17-.02-.29-.02-.36v-.13c0-.14,.04-.26,.12-.36,.08-.1,.19-.17,.32-.2,.29,.04,.58,.04,.88-.01s.59-.07,.87-.07h.2c.06,0,.12-.02,.18-.07v-.23c.02-.63,0-1.24-.06-1.84-.06-.6-.08-1.22-.06-1.84v-.17c0-.08,0-.17,0-.26s0-.18,.01-.27c0-.09,0-.14,0-.18,0-.06,.06-.11,.14-.13,.09-.02,.24,0,.47,.04,.06,0,.15-.02,.29-.03s.27-.03,.42-.04c.15-.02,.28-.03,.42-.04,.13-.01,.22-.02,.27-.03,.02,0,.09,0,.2,0,.11,0,.22,0,.35,0s.24,0,.34,0c.11,0,.17,0,.18,0h.15s.12,0,.22,0,.2,.01,.29,.02c.11,0,.23,.02,.35,.02l.13,.15s0,.06-.01,.12c0,.05-.02,.11-.03,.16,0,.06-.01,.11-.02,.17s0,.09,0,.12c.02,.02,.03,.04,.05,.07,.02,.03,.02,.06,.02,.07,.04,.33,.07,.64,.08,.95,.02,.31,.03,.64,.03,1,0,.09,0,.22,0,.38s0,.35,.01,.56c0,.2,0,.41,.01,.62,0,.21,0,.41,0,.59,0,.05,.01,.08,.04,.1s.06,.03,.1,.04,.09,0,.13,0c.04,0,.08-.01,.12-.01h.05c.26-.08,.51-.12,.76-.12h.79s.06,0,.11,0,.1,0,.15,0c.06,0,.12,.01,.2,.01l.07,.42c0,.42,0,.83,0,1.23-.01,.39,.01,.81,.08,1.25v.94c0,.09-.02,.16-.06,.21s-.09,.09-.14,.11-.11,.04-.17,.06c-.06,.02-.12,.03-.17,.05l-.35,.07h-1.34l-.02,1.05s0,.06-.01,.12c0,.06-.01,.13-.02,.2,0,.07,0,.13-.01,.19,0,.06,0,.09,.02,.1-.02,.28-.02,.53-.01,.77,0,.24,.02,.47,.04,.69,.02,.22,.04,.45,.07,.68,.03,.23,.05,.48,.08,.74l-.13,6.4c0,.08-.04,.15-.13,.2s-.16,.08-.23,.08h-2.67s-.07,.02-.15,.03-.12,.02-.13,.02c-.02,0-.05,0-.11-.03-.06-.02-.09-.03-.11-.03-.02,0-.07,0-.14-.01-.07,0-.14-.02-.22-.02-.08,0-.15-.02-.22-.02-.07,0-.11-.02-.13-.02-.09,0-.19-.03-.31-.05-.12-.03-.18-.11-.18-.25v-.05Z"/><path class="cls-12" d="M319.96,111.06c.14-.37,.28-.72,.43-1.05s.29-.66,.42-.98c.13-.32,.26-.63,.37-.93s.21-.61,.29-.92v-.05l.12-.55s.04-.04,.09-.07c.05-.03,.08-.06,.08-.09,0-.02,.01-.05,.03-.1l.06-.16c.02-.05,.04-.11,.06-.16s.03-.09,.04-.1c.02-.1,.05-.19,.07-.27,.02-.09,.02-.17,0-.26l-.24-.56c-.05-.28-.15-.54-.29-.81-.15-.26-.29-.51-.43-.76l-.28-.4s-.02-.04-.02-.06v-.04c-.14-.2-.26-.4-.37-.6-.11-.21-.21-.42-.31-.62s-.2-.42-.3-.62-.21-.41-.34-.62c-.04-.05-.11-.15-.21-.31s-.21-.33-.32-.51-.23-.36-.34-.53c-.11-.17-.18-.3-.23-.38-.29-.44-.56-.88-.82-1.33-.26-.45-.53-.9-.79-1.35-.26-.45-.53-.9-.8-1.34s-.56-.88-.85-1.31c0,0-.01-.02-.01-.02v-.05c-.03-.11,.03-.2,.16-.29,.02,0,.04,0,.07-.01,.03,0,.06-.02,.07-.02,.02,0,.04-.03,.08-.08,.04-.05,.06-.09,.08-.12,.02,0,.06,0,.12-.01,.06,0,.13-.02,.2-.03,.07-.01,.14-.02,.2-.04,.06-.01,.11-.02,.12-.03,.04,0,.15-.04,.33-.09,.18-.05,.37-.1,.58-.16,.21-.06,.4-.12,.58-.17,.18-.05,.29-.09,.34-.1,.02,0,.03,0,.05-.01,.02,0,.03,0,.04,0,.01,0,.02,0,.03,0,.03,0,.06,0,.08-.01,.03,0,.04,0,.06-.01,.04,0,.1-.02,.18-.02,.08,0,.16-.02,.24-.02,.08,0,.15-.01,.22-.01h.13s.06,0,.1,.02c.04,.02,.09,.04,.13,.07,.02,.04,.06,.11,.12,.21,.06,.1,.12,.2,.18,.31,.06,.11,.12,.21,.18,.31,.06,.1,.1,.17,.13,.21,.26,.46,.54,.91,.84,1.34,.3,.43,.59,.87,.87,1.34,0,.02,.03,.06,.05,.12s.06,.12,.1,.19c.04,.07,.07,.13,.1,.18,.03,.06,.05,.09,.06,.1,0,0,.02,.03,.04,.06,.02,.03,.04,.07,.06,.1,.02,.04,.04,.07,.06,.11,.02,.04,.04,.06,.04,.08,.02,.02,.07,.1,.15,.22,.09,.12,.18,.25,.28,.4s.19,.28,.28,.4c.09,.13,.15,.21,.17,.24,.02,.03,.06,.12,.13,.26,.07,.14,.15,.29,.24,.45,.09,.16,.17,.31,.24,.45s.12,.23,.15,.26c0,.02,.01,.04,.04,.07s.05,.05,.07,.07c.02-.08,.03-.18,.04-.3,.01-.12,.03-.21,.04-.27,.07-.38,.14-.75,.23-1.11,.09-.36,.19-.72,.32-1.09,.06-.23,.15-.45,.26-.68s.19-.45,.26-.68c.11-.34,.24-.71,.38-1.11,.14-.4,.27-.76,.39-1.09,0-.02,.03-.08,.06-.16,.03-.08,.07-.17,.11-.27,.04-.1,.08-.19,.11-.27,.03-.08,.05-.13,.06-.16,.03-.1,.06-.18,.08-.26s.04-.14,.07-.21c.02-.06,.06-.13,.1-.19s.09-.13,.16-.2c0,0,.04,0,.08-.01,.04,0,.09-.02,.14-.03s.1-.02,.14-.04c.04-.01,.08-.02,.09-.03,.21-.03,.42-.05,.62-.05s.4,0,.62,0c.04,0,.12,0,.26-.01,.13,0,.27-.01,.43-.02,.15,0,.3,0,.43,0h.26c.06,0,.18-.01,.34-.02,.16,0,.33,0,.51,0h.51c.16,0,.27,0,.34,.01,.04,.02,.1,.05,.18,.09,.08,.04,.13,.09,.15,.14,0,.07,0,.16,0,.25s-.02,.19-.05,.28c-.02,.09-.05,.18-.07,.27-.03,.09-.04,.16-.06,.21-.11,.4-.21,.78-.32,1.15-.11,.37-.23,.73-.35,1.09-.12,.36-.25,.72-.39,1.07-.14,.36-.29,.72-.45,1.09-.28,.62-.54,1.28-.78,1.98-.24,.7-.47,1.37-.69,2-.09,.27-.2,.56-.34,.87-.14,.31-.28,.59-.42,.84-.09,.16-.17,.33-.24,.49-.07,.17-.12,.33-.16,.49-.03,.15-.06,.27-.09,.38-.02,.11-.05,.21-.09,.31-.03,.1-.07,.2-.12,.31-.04,.11-.1,.23-.15,.38-.03,.05-.04,.14-.05,.27,0,.13,0,.23,0,.29,0,.02-.02,.07-.06,.15-.04,.08-.06,.13-.08,.15,0,0-.01,.03-.04,.06-.02,.03-.05,.06-.09,.1-.04,.04-.07,.07-.1,.1s-.05,.05-.06,.05c0,.02,0,.06-.02,.12-.02,.06-.04,.13-.06,.2s-.04,.13-.05,.2c-.01,.06-.02,.1-.02,.12-.02,.04-.06,.12-.1,.23s-.09,.23-.14,.35-.09,.24-.13,.35c-.04,.11-.07,.19-.1,.23,.02,.19,.02,.33,0,.44-.01,.11-.08,.24-.2,.39l-1.11,3.33s-.03,.06-.06,.12c-.03,.05-.06,.11-.1,.16-.04,.05-.08,.1-.12,.14s-.08,.06-.11,.07c-.07,.02-.17,.03-.28,.04-.11,0-.2,0-.26-.01-.02,0-.05,0-.1,0-.05,0-.11,.02-.18,.03-.07,.01-.14,.02-.2,.03-.07,0-.12,0-.17-.01-.03,0-.07-.02-.12-.02s-.09,0-.11,0c-.04,0-.12-.02-.24-.04-.12-.02-.25-.04-.4-.07-.14-.02-.28-.05-.41-.07-.13-.02-.22-.03-.26-.03-.04,0-.11,.01-.2,.01h-.17s-.06,0-.13-.02-.16-.02-.24-.03c-.09,0-.17-.02-.25-.02s-.12-.01-.13-.01c-.05,0-.11-.01-.18-.04s-.13-.08-.18-.16c-.04-.08-.07-.2-.06-.34s.06-.35,.17-.6Z"/><path class="cls-12" d="M337.99,106.86c-.06-.02-.14-.03-.26-.05s-.26-.05-.43-.08c0,0-.04,0-.11-.02s-.14-.03-.24-.06c-.09-.03-.19-.07-.29-.12-.1-.05-.19-.11-.27-.18-.02,0-.05-.02-.1-.04s-.11-.04-.18-.07c-.06-.03-.12-.05-.18-.07-.05-.02-.09-.03-.1-.04-.15-.06-.29-.13-.42-.23-.13-.1-.26-.2-.38-.31-.12-.11-.24-.21-.35-.32-.12-.11-.22-.21-.32-.31-.39-.37-.74-.75-1.05-1.16-.31-.41-.57-.85-.79-1.34-.18-.39-.32-.75-.43-1.07-.11-.32-.19-.64-.24-.95-.06-.31-.1-.64-.12-.97-.02-.33-.03-.72-.03-1.15v-.92c.11-.46,.23-.9,.37-1.31s.31-.8,.51-1.18c.2-.37,.43-.73,.69-1.07,.26-.34,.56-.67,.92-.99,.25-.24,.51-.46,.78-.63,.27-.18,.56-.34,.87-.49,.03,0,.06-.02,.1-.05,.04-.02,.09-.05,.15-.07,.05-.02,.1-.04,.14-.06,.04-.02,.07-.03,.09-.04,.02,0,.09,0,.18-.02s.15-.02,.17-.02c.03-.02,.07-.05,.15-.1,.07-.05,.12-.09,.13-.1,0,0,.04,0,.08-.01,.04,0,.09-.02,.14-.03s.09-.02,.13-.03c.04,0,.07-.02,.07-.02l.22-.05c.11-.03,.24-.06,.37-.09s.25-.06,.37-.09,.19-.04,.23-.04c.06-.02,.18-.05,.35-.07,.17-.02,.35-.04,.55-.06,.2-.02,.38-.03,.56-.05,.17-.02,.3-.03,.38-.04h.15s.08,0,.13,0c.04,0,.08,0,.1,0,.18,0,.34,.02,.49,.02,.15,0,.3,.03,.46,.07,.23,.06,.46,.11,.7,.16s.47,.09,.7,.12c.06,.02,.15,.07,.29,.13,.13,.07,.28,.14,.43,.22,.15,.08,.29,.16,.42,.23,.13,.07,.22,.13,.27,.16,.03,.02,.09,.08,.19,.18s.21,.21,.34,.34,.24,.24,.35,.37c.11,.12,.2,.22,.26,.28,0,.02,.03,.05,.07,.11,.04,.06,.09,.12,.14,.2s.11,.15,.16,.23,.1,.13,.13,.18c.29,.45,.54,.89,.73,1.33,.19,.44,.34,.89,.46,1.34,.11,.45,.2,.92,.25,1.39s.08,.97,.08,1.48v.05c-.02,.14-.04,.33-.06,.57s-.04,.48-.06,.71c-.02,.24-.04,.45-.06,.63-.02,.19-.03,.3-.04,.33-.06,.42-.14,.81-.26,1.18-.12,.37-.26,.74-.43,1.11-.15,.2-.28,.36-.37,.49-.09,.13-.19,.26-.29,.39s-.21,.26-.34,.42c-.13,.15-.3,.34-.52,.57-.29,.21-.59,.41-.91,.59-.32,.18-.65,.33-1,.46-.34,.13-.69,.23-1.04,.31-.35,.07-.7,.1-1.04,.09h-.17c-.08,0-.16,0-.26,0s-.18,0-.26-.01-.13,0-.17,0c-.02-.02-.04-.03-.08-.05-.04-.02-.07-.02-.08-.02-.02,0-.05,0-.11,.01-.06,0-.12,.02-.19,.03s-.13,.02-.2,.03c-.06,0-.1,0-.12,0-.03,0-.11,0-.23-.02s-.25-.03-.38-.05c-.14-.02-.27-.04-.38-.06-.12-.02-.19-.03-.21-.04h-.12l-.3-.09Zm-1.6-8.39c0,.23,.03,.45,.06,.67,.03,.22,.09,.44,.18,.65,0,.02,.02,.06,.06,.13s.06,.12,.06,.13c.03,.11,.07,.22,.1,.34s.07,.24,.1,.37c.04,.12,.08,.24,.13,.35,.05,.11,.11,.22,.18,.31,.02,.02,.06,.07,.12,.13,.06,.06,.11,.12,.17,.18s.11,.12,.16,.17,.08,.08,.1,.09c0,0,.04,.03,.08,.06,.04,.03,.1,.07,.16,.1,.06,.04,.12,.08,.18,.12,.06,.04,.11,.07,.15,.09l.12,.09s.08,.05,.16,.11c.08,.06,.13,.09,.15,.09,.02,.02,.06,.03,.12,.06,.07,.02,.12,.03,.16,.03,.17,.08,.3,.13,.38,.14,.08,.01,.16,.01,.22,0,.06-.01,.13-.02,.2-.04,.07-.01,.18,0,.32,.02,0,0,.04,0,.08,0s.1-.01,.16-.02c.06,0,.11-.02,.17-.02,.06,0,.1-.02,.13-.02,.38-.06,.74-.19,1.07-.39,.33-.2,.62-.46,.87-.76,.25-.3,.44-.64,.58-1.01,.14-.37,.21-.75,.21-1.13,0-.02,0-.12,0-.3s.02-.48,.05-.92c0-.21-.04-.42-.13-.62-.09-.2-.16-.41-.23-.62-.12-.33-.3-.6-.56-.82-.26-.22-.52-.43-.8-.62-.17-.11-.33-.21-.47-.29-.14-.08-.29-.14-.43-.19s-.3-.09-.46-.11c-.16-.02-.34-.04-.54-.05-.19,0-.35,0-.49,0s-.3,.03-.49,.07c-.2,.04-.42,.1-.63,.17s-.43,.17-.63,.27-.38,.24-.54,.4c-.16,.15-.27,.33-.35,.54l-.21,.59c-.05,.07-.09,.16-.13,.28s-.07,.25-.1,.4-.04,.28-.04,.43,.01,.27,.04,.38Z"/><path class="cls-12" d="M349.48,101.45c-.02-.08-.04-.21-.09-.38s-.08-.35-.13-.54c-.04-.19-.08-.37-.12-.54-.04-.17-.06-.29-.07-.38,0-.03-.01-.1-.02-.21,0-.11-.01-.23-.02-.35s-.01-.24-.02-.35c0-.11-.01-.18-.02-.2,0-.04,0-.09,0-.16,0-.06,0-.13-.02-.2,0-.06-.02-.13-.03-.18,0-.06-.02-.1-.02-.12l-.05-.12s-.01-.06-.01-.13v-.23c0-.08,0-.15,0-.22,0-.06,0-.11,0-.12-.02-.2-.03-.44-.03-.7,0-.26,0-.52-.01-.79s0-.52,0-.78v-.68c0-.28,0-.54,0-.77s0-.45,.02-.66,.02-.41,.04-.6c.02-.19,.04-.39,.07-.59,.02-.09,.1-.16,.26-.23,.16-.06,.31-.09,.46-.09h.57c.08,0,.19,0,.31,.02,.13,.02,.25,.03,.38,.06,.13,.02,.24,.04,.34,.05,.1,.02,.15,.03,.17,.04,.02,0,.07,0,.17,.01,.1,0,.2,.02,.31,.03,.11,.01,.21,.02,.31,.04s.16,.02,.18,.03c.02,0,.08,.01,.18,.02s.2,0,.31,0,.21,0,.31,0,.16,.01,.2,.02c.05,.04,.08,.08,.1,.11,.02,.03,.03,.06,.04,.09,0,.03,0,.06,0,.11,0,.04,0,.1,0,.16v.5c-.04,.31-.07,.6-.07,.89s-.01,.58-.01,.91c0,.52,0,1.04,.03,1.54s.02,1.06,0,1.67l.07,.66v.2c.04,.2,.07,.41,.09,.62,.02,.21,.03,.43,.05,.64,.02,.22,.05,.43,.08,.65s.08,.43,.16,.64c.02,.04,.04,.1,.07,.17,.03,.07,.06,.14,.09,.21,.03,.07,.06,.14,.09,.2,.02,.06,.04,.1,.05,.1,.06,.15,.15,.29,.28,.4,.13,.11,.27,.21,.41,.29,.14,.08,.28,.14,.4,.19,.13,.04,.21,.07,.25,.08,.02,0,.07,.03,.17,.07s.17,.06,.21,.08c.02,.02,.08,.02,.17,0,.08-.01,.14-.02,.15-.02,.15,0,.34-.03,.58-.08,.24-.05,.49-.17,.75-.34,.3-.33,.52-.65,.67-.99,.14-.33,.24-.68,.29-1.03,.05-.35,.08-.71,.07-1.09,0-.38-.01-.78-.01-1.2v-.4s0-.15,0-.32c0-.17-.01-.36-.02-.56s-.01-.38-.02-.56c0-.17,0-.28,0-.32v-1.21s-.02-.12-.03-.24c-.01-.12-.03-.27-.05-.43-.03-.17-.05-.34-.07-.53-.02-.19-.05-.36-.07-.52-.03-.16-.04-.3-.06-.42s-.02-.2-.02-.24l.12-1.05c.03-.06,.08-.1,.15-.12s.14-.03,.23-.04c.08,0,.16,0,.24,0,.08,0,.14,0,.2,0,0,0,.04,0,.08-.01,.04,0,.09-.02,.14-.02,.05,0,.09-.02,.13-.02,.04,0,.07-.01,.07-.01l1.49,.11s.08,.03,.18,.03,.2,0,.31,0h.31c.1,0,.15,0,.17,.01,.05,0,.12-.02,.23-.02,.1,0,.21-.01,.32-.02,.11,0,.21,0,.31-.01s.16,0,.19,0l.15,.05c.1,0,.17,.04,.23,.12,.05,.08,.09,.18,.12,.31,.03,.13,.05,.27,.05,.45s.01,.35,.01,.55v.23c0,.16,0,.33-.02,.49-.02,.16-.03,.33-.05,.49,0,.05-.01,.16-.01,.34s0,.36,0,.56c0,.2,0,.38,0,.56s0,.29-.01,.34c0,.03-.01,.12-.03,.25-.02,.13-.04,.28-.07,.43-.02,.15-.05,.3-.07,.43-.02,.13-.04,.22-.04,.25,0,.04,0,.14-.02,.29-.01,.15-.03,.33-.04,.52-.02,.19-.04,.38-.05,.56-.02,.18-.04,.32-.04,.42,0,.02,0,.06-.02,.14-.01,.08-.03,.16-.04,.24-.02,.09-.03,.17-.05,.24-.02,.08-.03,.12-.04,.14v.3c0,.07,0,.13,0,.2s-.01,.1-.02,.1c0,0,0,.03-.02,.07-.01,.04-.03,.09-.04,.13-.02,.05-.03,.1-.04,.14-.01,.04-.02,.07-.02,.08-.07,.31-.13,.6-.18,.86-.04,.26-.09,.52-.13,.77-.04,.25-.1,.5-.16,.76-.06,.26-.15,.54-.25,.84-.06,.17-.15,.37-.29,.59s-.29,.44-.45,.65c-.16,.22-.31,.42-.46,.6-.15,.18-.27,.32-.36,.4-.11,.15-.25,.29-.44,.4s-.39,.21-.61,.29c-.22,.09-.44,.16-.66,.23-.22,.07-.41,.13-.56,.19-.26,.11-.53,.17-.8,.19s-.55,.03-.82,.03c-.24,0-.49,0-.74,0-.25,0-.5,0-.75-.01s-.5-.04-.75-.09c-.25-.05-.49-.12-.71-.22-.48-.21-.93-.46-1.35-.74s-.84-.59-1.25-.93c-.05-.04-.11-.1-.19-.19-.08-.09-.16-.17-.24-.26-.09-.09-.17-.17-.26-.25-.08-.08-.16-.13-.21-.15,.03,.02,.02-.04-.04-.18-.06-.15-.14-.35-.26-.61-.04-.09-.09-.22-.15-.4-.06-.18-.11-.37-.16-.58s-.1-.41-.15-.61-.08-.36-.09-.48Z"/><path class="cls-12" d="M228.53,134.98c0-.16,0-.42,.02-.77,.01-.35,.02-.75,.04-1.2,.01-.45,.03-.92,.05-1.41s.04-.96,.05-1.41c.01-.45,.02-.84,.04-1.19,.01-.35,.02-.6,.02-.76,0-.04-.01-.12-.02-.24s-.01-.26-.02-.42c-.01-.16-.02-.33-.03-.51s-.02-.34-.02-.51c0-.16-.01-.3-.02-.42s0-.2,0-.24c0-.02,0-.1-.02-.23-.01-.13-.02-.27-.04-.44-.01-.17-.02-.34-.04-.51-.01-.17-.02-.31-.02-.43,0-.06,0-.18-.03-.35-.02-.17-.03-.34-.05-.53-.02-.19-.03-.36-.05-.52-.02-.16-.02-.28-.02-.34,0-.02,0-.05,.02-.11,.02-.06,.03-.1,.05-.12,.05-.05,.13-.08,.24-.08,.11,0,.19,0,.25,0,.02,0,.06-.02,.13-.02,.07,0,.15-.02,.23-.02,.08,0,.15-.01,.23-.02,.07,0,.12,0,.13,0,.02,0,.09,0,.2-.02,.11-.02,.23-.03,.36-.05s.25-.04,.37-.06c.11-.02,.19-.03,.22-.04,.05,0,.17,0,.35-.02,.19-.02,.39-.03,.61-.05,.22-.02,.42-.04,.61-.06,.19-.02,.3-.02,.35-.02,.02,0,.04,0,.06-.01,.02,0,.03,0,.05,0,.02,0,.03,0,.04,0,.11,0,.18,.03,.21,.1,.04,.07,.06,.16,.06,.28,0,.12,0,.27-.02,.45-.02,.18-.02,.38-.02,.61,.03-.02,.11-.08,.23-.2s.27-.25,.44-.4,.36-.29,.56-.43,.39-.25,.58-.32c.21-.07,.4-.14,.56-.19,.16-.05,.32-.1,.48-.13,.16-.04,.32-.06,.49-.08,.17-.02,.37-.02,.6-.02,.31,0,.64,.04,.98,.12,.35,.08,.66,.19,.95,.32,.04,.02,.11,.05,.2,.1s.19,.1,.3,.15,.21,.1,.31,.15c.1,.05,.18,.09,.23,.11,0,0,.04,.03,.09,.07s.1,.08,.17,.12c.06,.04,.12,.08,.17,.12,.05,.04,.09,.07,.12,.07,.03,.02,.08,.04,.13,.07,.05,.03,.09,.06,.1,.07,.02,.02,.08,.08,.17,.18,.09,.1,.19,.21,.29,.33,.11,.12,.2,.23,.29,.33,.09,.1,.15,.16,.17,.19h.07s.05-.05,.1-.11c.05-.06,.09-.09,.1-.09,.32-.27,.63-.52,.9-.74,.28-.23,.56-.43,.85-.6,.29-.17,.59-.32,.91-.45,.32-.12,.68-.21,1.09-.27,.19-.02,.37-.03,.56-.02s.38,.02,.59,.02c.29,0,.54,.05,.78,.14s.48,.2,.73,.31c0,0,.03,.02,.07,.04,.04,.02,.08,.04,.12,.07,.04,.02,.08,.05,.11,.07,.03,.02,.05,.03,.06,.04,0,0,.03,0,.06,.02s.07,.03,.1,.04c.03,.02,.06,.03,.09,.04,.03,0,.04,0,.03-.01,.15,.11,.28,.21,.38,.31s.19,.2,.27,.29,.15,.18,.21,.26c.06,.08,.14,.15,.22,.22,.15,.2,.29,.39,.39,.58s.2,.38,.27,.57c.07,.19,.14,.37,.19,.55,.05,.18,.1,.36,.15,.54,.14,.61,.25,1.2,.33,1.76,.09,.56,.16,1.11,.21,1.64s.11,1.05,.15,1.56,.1,1.02,.15,1.52c0,.11,0,.32,0,.62,0,.3,0,.62,.02,.96,0,.34,.02,.66,.02,.96,0,.3,.02,.51,.03,.63,0,.02,0,.08,0,.18s0,.2,.02,.31,.01,.21,.02,.31c0,.1,0,.16,0,.18v.07c0,.09-.03,.16-.07,.2s-.11,.08-.18,.1-.15,.04-.23,.06c-.08,.01-.15,.03-.21,.05-.14,.04-.23,.06-.27,.04s-.11,0-.2,.04l-2.29,.05c-.1,.02-.18,.02-.25,0s-.12-.07-.17-.13c-.04-.06-.07-.12-.08-.18s-.02-.11-.02-.14c0-.56,0-1.13-.02-1.71-.02-.58-.03-1.14-.05-1.7,0-.03,0-.11-.01-.22,0-.11-.01-.24-.02-.37,0-.13-.01-.25-.02-.37,0-.11-.01-.19-.01-.22,0-.11,0-.27,0-.47s0-.4-.02-.6c0-.2-.02-.38-.03-.54,0-.16-.02-.26-.02-.29,0-.02-.01-.11-.04-.27-.02-.15-.05-.33-.08-.54-.03-.2-.06-.4-.09-.6s-.06-.36-.07-.48c-.02-.16-.05-.3-.09-.42-.04-.12-.09-.25-.16-.38-.24-.43-.54-.79-.9-1.06-.36-.28-.8-.42-1.31-.42h-.34c-.11,0-.24,.03-.37,.09-.05,.03-.12,.06-.2,.08-.09,.02-.17,.04-.26,.07-.08,.02-.16,.05-.23,.09-.07,.03-.12,.08-.14,.13-.04,.04-.09,.09-.15,.15s-.09,.1-.09,.12c-.02,.02-.05,.08-.1,.16-.05,.08-.1,.17-.16,.27s-.11,.19-.16,.27c-.05,.08-.08,.13-.09,.16-.07,.18-.14,.34-.19,.48s-.1,.28-.15,.42-.08,.27-.12,.42c-.04,.15-.08,.32-.13,.51-.03,.1-.06,.23-.07,.39-.02,.16-.03,.33-.03,.5s0,.34,0,.5c0,.16,0,.3,0,.4v.5s0,.09,0,.19,0,.21,0,.33,0,.23,0,.32c0,.1,0,.16,0,.18,0,.05,0,.18,0,.38,0,.2,.01,.42,.02,.65s.01,.45,.02,.65c0,.2,0,.33,0,.39,.02,.25,.03,.49,.05,.72,.02,.23,.02,.47,.02,.73,0,.09-.02,.18-.05,.28-.03,.1-.09,.17-.18,.22-.12,0-.23,0-.32,0-.09,0-.18,.02-.27,.04-.08,.02-.17,.03-.26,.06-.09,.02-.19,.04-.31,.05-.19,.02-.39,.04-.6,.04s-.4,0-.58-.01c-.17,0-.32-.02-.42-.03-.11-.01-.14-.02-.1-.02-.05,0-.11-.02-.18-.04s-.14-.05-.21-.09c-.07-.04-.12-.08-.17-.13-.04-.05-.07-.11-.07-.18,0-.08,.01-.14,.04-.19,.02-.04,.04-.1,.04-.17v-.2s0-.1,0-.22c0-.12,0-.25,0-.4s0-.27,0-.4c0-.12-.01-.19-.02-.21-.02-.15-.02-.31-.01-.48s.02-.35,.02-.52c0-.18,.01-.35,.02-.52s0-.33,0-.48c0-.05,0-.16-.02-.32-.01-.17-.03-.34-.04-.53-.02-.19-.03-.36-.04-.53-.01-.17-.02-.27-.02-.32,0-.02,0-.09,0-.23s0-.29-.02-.46c0-.17-.02-.34-.03-.52s-.02-.32-.02-.42c0-.18-.03-.34-.06-.49s-.07-.3-.12-.45-.11-.29-.18-.45-.14-.32-.21-.49c-.2-.5-.52-.88-.95-1.13-.43-.25-.94-.37-1.53-.37-.18,0-.35,.03-.52,.09-.17,.06-.33,.13-.48,.23s-.3,.21-.45,.34c-.14,.13-.28,.26-.41,.39-.14,.15-.25,.33-.35,.54-.09,.22-.17,.44-.24,.68s-.12,.48-.15,.72c-.04,.24-.07,.46-.09,.65,0,.07-.02,.17-.03,.32-.01,.15-.03,.3-.04,.47-.02,.17-.03,.32-.04,.46-.01,.14-.02,.24-.03,.3v1.4s0,.07,.01,.16c0,.09,.02,.19,.02,.29,0,.11,.02,.2,.03,.29,0,.09,.01,.14,.01,.16v.57c0,.06,0,.15,0,.27s0,.25,.02,.38c0,.13,.02,.26,.02,.37,0,.11,.02,.19,.02,.22,0,.04,.02,.13,.03,.26,.01,.13,.03,.27,.04,.42,.02,.15,.03,.29,.04,.43,.01,.13,.02,.22,.03,.25v.17s-.02,.06-.06,.12-.08,.09-.13,.1c-.16,.03-.27,.05-.34,.04-.06,0-.1,0-.12,0-.02,0-.06,0-.13,.02-.07,.02-.12,.02-.13,.02h-.28c-.24,.02-.45,.03-.64,.04-.19,0-.38,.02-.56,.03-.18,.01-.37,.02-.56,.02s-.41,0-.64,0h-.09c-.13,.06-.24,.07-.32,.03s-.15-.14-.2-.31c-.05-.17-.09-.4-.12-.71-.03-.31-.05-.7-.08-1.18Z"/><path class="cls-12" d="M253.6,128.79c.05-.3,.11-.6,.18-.88,.07-.29,.15-.58,.24-.87,.07-.21,.12-.4,.17-.56,.04-.16,.1-.35,.16-.55,0-.02,0-.06,.03-.13,.02-.07,.04-.15,.07-.24,.03-.09,.05-.16,.08-.23,.02-.07,.04-.11,.05-.13,.09-.28,.22-.54,.39-.77,.17-.23,.35-.46,.54-.68,0,0,.03-.04,.08-.09,.04-.05,.1-.11,.15-.17,.06-.06,.11-.12,.16-.18,.05-.06,.08-.1,.11-.12,0,0,.02-.03,.05-.06,.02-.03,.05-.07,.08-.12,.03-.04,.05-.08,.08-.12,.03-.03,.04-.05,.06-.06,.34-.29,.72-.56,1.13-.79,.41-.24,.84-.44,1.28-.61s.89-.3,1.36-.4c.46-.09,.91-.14,1.36-.15,.5-.04,1.03-.03,1.58,.02,.54,.06,1.05,.19,1.53,.4,.4,.12,.74,.26,1.03,.42,.29,.15,.53,.31,.73,.45s.36,.28,.49,.4c.13,.12,.24,.2,.34,.25,.25,.22,.48,.44,.68,.65,.2,.21,.39,.43,.56,.66,.17,.23,.32,.47,.47,.73s.29,.54,.43,.86c.02,.07,.06,.21,.1,.4s.09,.39,.14,.6c.05,.21,.09,.41,.13,.6,.04,.19,.06,.32,.07,.4,0,.02,.01,.05,.02,.11,0,.06,0,.13,0,.21v.43s0,.12,0,.2c0,.09,0,.17,0,.26v.23c0,.07,0,.1-.01,.11,0,.02-.01,.08-.04,.15s-.05,.16-.07,.24-.05,.17-.07,.24c-.02,.08-.03,.12-.03,.14-.16,.16-.33,.27-.49,.34-.17,.06-.36,.1-.59,.12-.22,.02-.49,.03-.81,.03-.31,0-.69,.03-1.14,.08h-.63c-.15,0-.28,0-.4,0-.12,0-.2,0-.23,0h-.12s-.05,.03-.1,.04c-.05,0-.11,.01-.16,0s-.11-.01-.15-.03c-.04-.02-.07-.04-.08-.07,0,0-.04,0-.11,0-.07,0-.14,0-.21,0h-.23c-.08,0-.13,0-.15-.01,0,0-.02,.01-.04,.01h-.06c-.2,0-.42,.02-.67,.02-.25,0-.51,.02-.78,.02-.26,0-.52,.01-.78,.02s-.48,0-.67,0c-.29,.02-.56,.02-.79,0-.23-.01-.46-.02-.67-.04-.22-.01-.44-.02-.67-.03-.23,0-.49,0-.79,0-.04,0-.08,0-.12,0s-.07,.03-.08,.07c0,.04,.01,.1,.03,.18,.02,.08,.03,.13,.03,.16,.07,.29,.12,.5,.15,.63,.03,.13,.05,.22,.08,.27s.06,.1,.09,.13c.04,.04,.1,.11,.18,.23,0,0,.01,.03,.04,.06,.03,.03,.06,.06,.1,.09,.04,.03,.07,.06,.1,.09,.03,.03,.04,.05,.04,.05,.27,.43,.62,.74,1.06,.93s.89,.28,1.35,.26c.07,0,.15,0,.27,0,.11,0,.18,0,.2,0,.16-.02,.28-.02,.35-.02s.13,.01,.18,.02c.05,0,.1,.01,.15,.02s.14,0,.26-.02c.12-.02,.28-.05,.49-.09s.49-.11,.86-.2c0,0,.05-.02,.13-.06,.08-.04,.17-.09,.26-.13s.18-.1,.27-.14c.09-.04,.14-.07,.15-.08,.21-.13,.4-.26,.57-.38,.17-.13,.33-.24,.47-.35,.14-.11,.28-.2,.4-.28,.13-.08,.25-.15,.37-.2h.07s.04,0,.07,.02c.03,.02,.05,.04,.05,.05,.07,.07,.18,.15,.33,.25s.29,.21,.45,.31c.15,.11,.29,.21,.43,.31,.14,.1,.24,.19,.31,.26,.02,.02,.08,.06,.17,.12,.09,.07,.18,.14,.28,.21s.18,.15,.26,.22c.07,.07,.11,.11,.11,.12v.05s0,.03,0,.04c0,0,0,.02,0,.04,0,.2-.05,.38-.18,.54-.13,.15-.26,.31-.4,.45-.38,.42-.79,.82-1.21,1.21s-.89,.72-1.4,.98c-.16,.07-.33,.13-.49,.17s-.33,.08-.49,.14c-.21,.06-.42,.11-.61,.14-.2,.03-.39,.05-.57,.05s-.38,.01-.58,0c-.2,0-.41,0-.64,0-.59,.02-1.14,0-1.67-.06s-1.07-.17-1.64-.33c-.21-.06-.41-.14-.59-.21s-.35-.16-.51-.26-.32-.2-.47-.32c-.16-.12-.31-.25-.48-.38-.29-.24-.57-.48-.87-.71-.29-.23-.57-.5-.83-.81-.02,0-.05-.06-.1-.15-.05-.09-.08-.15-.09-.17-.02-.02-.05-.05-.1-.12s-.1-.13-.15-.2-.11-.13-.16-.2c-.05-.06-.08-.1-.09-.12-.02-.02-.05-.09-.1-.19-.05-.1-.12-.22-.18-.35-.07-.13-.13-.27-.2-.4-.06-.13-.11-.24-.14-.32-.02-.02-.03-.05-.05-.1-.02-.05-.02-.08-.02-.1-.1-.54-.18-1.06-.25-1.57-.07-.51-.1-1.05-.09-1.6v-.06Zm8.69-3.91c-.42,0-.8,.06-1.16,.15-.36,.09-.71,.26-1.05,.49-.11,.07-.24,.17-.38,.28-.14,.11-.28,.24-.41,.37s-.25,.28-.34,.43-.13,.3-.13,.45c.21-.02,.41-.04,.59-.07,.18-.03,.37-.05,.57-.06h.05s.07,.01,.15,.02,.18,0,.28,.01,.2,0,.29,.01c.09,0,.15,0,.17,0h1.17c.07,0,.18,0,.31-.01,.13,0,.26-.02,.4-.02,.13,0,.25-.01,.36-.02s.17,0,.18,0c.08,0,.23,0,.45,0,.21,0,.45,0,.69-.01s.47-.01,.69-.02c.22,0,.36-.02,.45-.02,.02,0,.03,0,.05-.02l.03-.02s0-.04-.03-.07c-.02-.03-.03-.06-.05-.07-.02-.03-.04-.08-.07-.13-.03-.05-.06-.11-.09-.16-.03-.05-.06-.1-.09-.13-.02-.04-.04-.06-.05-.07-.36-.45-.81-.78-1.36-.99-.55-.21-1.1-.31-1.65-.29Z"/><path class="cls-12" d="M282.86,137.12c-.1-.06-.14-.14-.13-.24,.01-.11,.01-.21,0-.31,0-.02-.01-.04-.04-.07-.02-.03-.04-.06-.04-.07v-.11c0-.11,.02-.22,.07-.31,.05-.09,.07-.19,.07-.29v-.07s-.06,0-.12,.02c-.05,.02-.09,.03-.1,.05-.06,.04-.15,.1-.27,.18-.13,.08-.26,.17-.41,.26-.15,.09-.29,.17-.43,.24-.14,.07-.24,.11-.32,.12l-.95,.39h-.07s-.04,0-.09,.01c-.04,0-.08,.02-.13,.03-.04,.01-.09,.02-.13,.03-.04,0-.07,.01-.08,.01h-1.16c-.12,0-.24,0-.35-.01-.11,0-.22-.02-.34-.02-.12,0-.25-.02-.4-.05-.02,0-.06-.02-.13-.04-.07-.02-.14-.03-.22-.05-.08-.02-.15-.03-.22-.04s-.11-.02-.13-.02h-.63l-.4-.16c-.06-.02-.14-.07-.26-.13-.12-.06-.24-.13-.38-.21-.13-.07-.26-.14-.38-.21-.12-.06-.21-.11-.27-.13-.05-.02-.12-.06-.22-.1s-.2-.09-.3-.15c-.1-.05-.2-.1-.29-.14-.09-.04-.15-.07-.17-.09,0,0-.03-.03-.06-.05-.03-.03-.07-.06-.12-.1-.04-.04-.09-.08-.13-.12s-.08-.06-.1-.08c-.2-.2-.4-.43-.59-.67-.19-.24-.38-.48-.56-.7-.17-.2-.31-.47-.43-.81-.11-.33-.21-.69-.28-1.06-.07-.37-.13-.73-.16-1.09-.03-.36-.05-.67-.05-.93,0-.33,0-.64,0-.93,0-.28,.02-.56,.05-.84s.07-.55,.13-.82c.06-.28,.14-.57,.24-.89,0-.05,.04-.15,.09-.31s.11-.32,.17-.48c.06-.16,.11-.29,.15-.38,.04-.1,.06-.1,.05-.01,.13-.37,.3-.72,.51-1.04,.21-.32,.45-.62,.72-.9,.27-.28,.56-.53,.87-.77,.31-.24,.64-.46,.97-.66,.03-.02,.11-.07,.23-.13,.12-.06,.24-.12,.38-.19,.13-.06,.26-.13,.39-.19,.13-.06,.21-.1,.26-.12,0,0,.04-.02,.08-.03s.1-.03,.16-.04c.06-.02,.12-.03,.18-.04l.15-.03s.11-.03,.2-.05c.08-.02,.13-.02,.15-.02h2.4c.29,.08,.56,.16,.83,.23,.27,.07,.53,.15,.78,.26s.49,.22,.72,.37c.23,.14,.46,.33,.68,.56h.05s0-.06,0-.1,0-.09,0-.14,0-.1,0-.14,0-.08,0-.09c0,0,0-.04,.01-.09,0-.05,.02-.1,.03-.16,.01-.06,.02-.11,.04-.15,.01-.04,.02-.07,.02-.08-.04-.06-.04-.12-.01-.18,.03-.06,.08-.11,.14-.15,.06-.04,.13-.07,.2-.08s.13,0,.18,.03c.41,0,.76,0,1.07,0,.31,0,.61,.01,.9,.02s.6,.03,.91,.07c.31,.03,.67,.07,1.08,.12,.02,.02,.06,.04,.12,.07,.06,.03,.08,.06,.08,.1,0,.07,0,.16,.01,.27,0,.11,.02,.22,.02,.34s.02,.23,.02,.34c0,.11,0,.21,0,.29,0,.02,0,.07-.01,.15,0,.08-.02,.17-.02,.27,0,.1-.02,.19-.03,.27,0,.08-.01,.13-.01,.15,0,.02-.01,.08-.04,.18-.02,.09-.04,.15-.04,.16,0,.02,0,.08,0,.15,0,.08,0,.16,0,.24v.24c0,.08,0,.12-.01,.14,0,.02,0,.06-.02,.11-.02,.05-.03,.09-.05,.11l-.02,2.88v.73c0,.31,0,.69,0,1.15,0,.46,.01,.97,.02,1.53s.02,1.12,.02,1.68c0,.56,.02,1.08,.02,1.58,0,.5,.02,.91,.04,1.25,0,.02,0,.09-.02,.19-.01,.1-.02,.21-.04,.34-.01,.12-.02,.23-.04,.34-.01,.1-.01,.16,0,.19v.2s-.07,.05-.17,.09c-.09,.03-.15,.06-.17,.07-.22,0-.41,0-.57,.02-.16,.02-.31,.03-.45,.06s-.29,.04-.44,.05-.34,.02-.55,.01h-.57c-.06,0-.15,0-.29,0-.13,0-.28-.01-.43-.02-.15,0-.29-.02-.43-.02-.13,0-.23-.02-.29-.02Zm-7.21-8.03c0,.43,.07,.83,.21,1.2,.14,.37,.33,.73,.56,1.09,.02,.02,.04,.06,.07,.12,.03,.05,.06,.08,.07,.08,.2,.21,.4,.42,.6,.61,.21,.2,.43,.37,.66,.52,.23,.15,.48,.27,.74,.36,.26,.09,.54,.13,.85,.13,.26,0,.53-.04,.79-.13,.27-.09,.52-.18,.76-.28,.03-.02,.08-.04,.14-.07l.18-.09c.06-.03,.11-.06,.16-.08s.07-.04,.09-.05c.3-.23,.55-.5,.74-.81s.35-.65,.47-1,.2-.72,.24-1.1c.04-.38,.08-.74,.09-1.09,0-.04,0-.11,0-.21,0-.1-.01-.2-.02-.31,0-.11-.02-.21-.02-.3,0-.09-.02-.16-.02-.19l-.11-.22c-.03-.06-.07-.13-.1-.18-.03-.06-.06-.11-.07-.15-.16-.31-.33-.61-.49-.9-.17-.29-.39-.52-.67-.69-.07-.05-.14-.1-.22-.16-.08-.06-.17-.12-.26-.18-.09-.06-.18-.12-.27-.17s-.17-.09-.24-.1c-.03,0-.09-.02-.18-.05-.09-.02-.18-.05-.27-.07s-.19-.04-.28-.06c-.08-.02-.14-.03-.18-.04-.05-.07-.12-.12-.22-.13s-.21-.01-.32,0-.23,.03-.35,.05c-.11,.02-.21,.04-.28,.04-.12,0-.25,.02-.39,.07-.14,.04-.27,.1-.4,.18s-.25,.15-.37,.24c-.12,.09-.22,.18-.31,.28-.02,.02-.05,.06-.1,.12-.05,.07-.11,.13-.17,.2-.06,.07-.12,.14-.18,.2-.06,.07-.09,.11-.1,.12-.31,.34-.52,.74-.65,1.21-.07,.33-.12,.65-.15,.98-.03,.33-.04,.67-.04,1.01Z"/><path class="cls-12" d="M289.56,137.15c-.11-.02-.19-.06-.26-.1-.07-.05-.13-.11-.17-.18-.04-.07-.06-.14-.07-.21-.01-.07-.02-.14-.01-.21,0-.06,0-.12,0-.17,0-.62,0-1.23-.03-1.85-.02-.61-.03-1.23-.04-1.85-.01-.62-.01-1.24,0-1.86,.01-.62,.04-1.24,.09-1.86l-.05-.57c0-.06,.02-.13,.03-.18,0-.05,.01-.1,.01-.15s0-.1,.01-.14v-1.62c0-.2,0-.4,0-.58,0-.18,0-.3,0-.35,0-.04,0-.15,.02-.33,.01-.18,.02-.37,.04-.57,.01-.2,.02-.39,.02-.57,0-.18,0-.29,0-.34,0-.18,0-.38-.02-.61-.02-.23-.04-.44-.04-.62l.02-.43c0-.1,.03-.16,.08-.2s.11-.06,.17-.07c.06,0,.12,0,.17,0,.05,0,.08,0,.09,0,.02,0,.07,0,.14,0,.07,0,.14-.01,.22-.02,.08,0,.15-.02,.21-.02,.06,0,.11-.02,.12-.02h.86c.13,0,.27,0,.41,0s.29,.01,.46,.02h.13s.03,.02,.08,.02c.04,0,.09,.02,.15,.02,.05,0,.1,.02,.15,.03s.09,.02,.11,.03c.17,.03,.29,.07,.36,.12,.07,.04,.11,.11,.13,.18s.03,.17,.04,.29c0,.11,.02,.25,.05,.42,.35-.32,.72-.57,1.1-.77s.78-.34,1.18-.45c.41-.1,.82-.17,1.25-.19,.43-.02,.87-.02,1.32,0,.12,0,.25,.01,.39,.04s.28,.06,.42,.1c.14,.04,.28,.09,.42,.15,.13,.06,.25,.11,.36,.17,.07,.05,.17,.12,.29,.21,.12,.09,.23,.18,.35,.27s.21,.17,.3,.24c.09,.07,.13,.1,.14,.1,.23,.17,.43,.37,.6,.59,.17,.22,.33,.46,.45,.71,.13,.25,.23,.52,.32,.79,.09,.28,.16,.55,.21,.82,.02,.03,.05,.12,.09,.25,.03,.13,.06,.28,.09,.45s.05,.34,.07,.51c.02,.17,.03,.31,.03,.4v.45c0,.13,0,.27,0,.43,0,.15,0,.3,.01,.43,0,.13,0,.21,0,.24v2.45s-.03,.07-.04,.15c0,.07-.02,.15-.03,.23-.01,.08-.02,.16-.03,.23s-.01,.13-.01,.16v.27c-.02,.15-.02,.35-.02,.59s0,.5,0,.77c0,.27,0,.55,0,.83v.77c0,.24,0,.44,0,.6,0,.16,0,.26,0,.31v.4c0,.09,0,.17,0,.25,0,.08,0,.12,0,.14v.12c-.01,.09-.06,.14-.17,.17-.1,.02-.19,.03-.25,.04-.02,0-.06,0-.1,0s-.09,.01-.14,.02c-.05,0-.09,.01-.13,.02-.04,0-.06,.01-.07,.02h-.5c-.11,0-.22,0-.32,0s-.16,.01-.18,.02c-.38,.02-.74,.04-1.07,.07-.33,.03-.69,.03-1.09,.02-.15,0-.25-.05-.31-.12s-.09-.15-.11-.25c-.02-.1-.02-.2-.01-.31,0-.11,.01-.21,.01-.31v-.29c0-.15,0-.32,0-.52s0-.41,0-.63,0-.44,0-.63c0-.2,0-.37,0-.51v-3.12c.03-.28,.03-.61,.01-.99-.02-.37-.06-.76-.12-1.16-.06-.4-.15-.79-.25-1.17-.11-.38-.24-.72-.39-1.02s-.33-.53-.54-.7-.43-.24-.68-.22l-.43-.02c-.29,0-.52,.02-.7,.1-.18,.07-.4,.18-.65,.33-.02,0-.03,.01-.05,.03-.02,.02-.03,.04-.03,.05-.23,.17-.42,.41-.58,.73-.16,.31-.29,.67-.4,1.06-.11,.39-.2,.81-.27,1.26s-.13,.88-.18,1.31c0,.04-.02,.14-.04,.31-.02,.16-.04,.34-.05,.54-.02,.2-.04,.4-.05,.6-.01,.2-.02,.35-.03,.46,0,0,0,.05,0,.12s0,.16-.02,.26c0,.1-.02,.2-.03,.3s-.01,.18-.01,.23c0,.04,0,.11,0,.2,0,.09,0,.19,0,.29s0,.2,0,.29c0,.09,0,.15,0,.18v1.83s0,.07,.02,.15c.02,.07,.02,.12,.02,.15,0,0,0,.03,0,.07,0,.04,0,.08,0,.12v.2c0,.07,0,.14,.01,.23,0,.09,0,.18-.01,.26-.02,.09-.05,.16-.1,.21-.05,.06-.14,.08-.27,.07-.19,0-.39,0-.62,0s-.46,.01-.7,.02c-.24,0-.49,.01-.74,.02-.25,0-.49,0-.72-.03Z"/><path class="cls-12" d="M310.04,135.1v.35c0,.13-.02,.25-.07,.37-.09,.18-.17,.35-.23,.51-.06,.16-.17,.32-.3,.47-.04,.04-.09,.09-.16,.15-.07,.06-.13,.11-.2,.17s-.13,.1-.19,.15c-.06,.04-.09,.08-.11,.1-.18,.16-.38,.25-.61,.25-.23,0-.45,0-.66,.02-.14,.02-.25,0-.35-.02-.09-.03-.21-.07-.35-.12-.06,0-.15-.04-.27-.09-.12-.05-.2-.1-.27-.14-.33-.2-.61-.46-.85-.76-.24-.3-.38-.67-.43-1.1,0-.25,0-.47,.01-.66,0-.19,.04-.36,.1-.51s.14-.3,.26-.45,.27-.31,.46-.48c.17-.16,.39-.31,.65-.45,.26-.13,.51-.21,.75-.23h.32c.06,0,.13,0,.19,0,.06,0,.1,.01,.12,.02,.03,0,.08,0,.15,.02,.07,.02,.13,.03,.2,.05,.07,.02,.13,.03,.19,.05,.06,.02,.09,.02,.11,.02,0,.02,.04,.03,.1,.06,.06,.02,.13,.04,.2,.07,.07,.02,.14,.05,.21,.07,.06,.02,.11,.03,.13,.04,.18,.14,.33,.28,.45,.42,.12,.14,.21,.29,.27,.45,.07,.16,.11,.34,.14,.54s.05,.42,.05,.66Z"/></g><g><path class="cls-11" d="M140.9,92.62c0,5.16-2.41,9.34-5.38,9.34s-5.38-4.18-5.38-9.34,2.41-9.34,5.38-9.34,5.38,4.18,5.38,9.34Z"/><path class="cls-10" d="M142.59,98.43c-5.5,1.09-30.22,4.43-32.07,3.36-1.52-.87-7.6-5.06-9.42-7.05,2.42-1.08,15.82-10.23,22.95-10.76,3.75-.27,15.6-.93,20.7-.89,.47,1.73-1.87,13.98-2.17,15.33Z"/><path class="cls-14" d="M136.6,83.23c-6.41,.08-16.49,.73-20.85,.73-.52,1.25,4.52,17.47,5.8,21.48,3.14-.74,7.61-2.05,14.77-3.6-3.16-1.21-7.5-17.64,.29-18.61Z"/><g><path class="cls-10" d="M42.05,117.71c2.62-5.48,18.72-26.51,20.74-27.18,1.66-.55,8.84-2.31,11.53-2.33-.8,2.52-4.78,17.58-7.25,24.29-1.41,3.83-11.75,11.92-14.98,15.81-1.61-.81-9.23-9.46-10.04-10.58Z"/><path class="cls-10" d="M42.58,116.7c1.08-1.91,2.92-4.71,4.29-6.53,.14-.18,4.3,7.12,4.41,7.32,6.87,12.46,8.28,20.2,16.81,32.51-.52,.69-6.61,6.14-7.31,6.03-5.16-6.22-13.43-16.84-19.64-29.42-1.1-2.23-1.07-5.5,1.44-9.91Z"/><path class="cls-14" d="M59.25,123.41c4.75-3.6,11.56-9.34,13.17-11.28,.49-1.67,6.89-24.43,1.99-26.24-6.87,1.34-12.03,2.78-12.49,3.36-1.84,2.35-11.97,15.25-15.76,21.13,2.22,3.66,9.59,11.41,13.07,13.03Z"/></g><path class="cls-14" d="M123.54,83.9c-5.96,0-11.23,.06-19.2-.36-1.97-.1-9.17-.98-9.21-.98s-7.53,.59-9.47,.98c-8.57,1.73-15.86,3.27-19.87,4.34,1,13.41,2.46,52.16,2.32,63.51-.07,5.42-.47,22.74-.5,25.43,10.1,3.91,41.79,2.15,54.91-1.29-.03-2.69-.54-20.62-.61-26.04-.15-11.35,.64-52.18,1.64-65.6Z"/><path class="cls-11" d="M108.7,85.66c0-.67-.14-1.31-.33-1.94-1.27-.05-2.59-.1-4.02-.18-1.97-.1-9.17-.98-9.21-.98s-7.53,.59-9.47,.98c-1.16,.23-2.29,.47-3.4,.69-.11,.47-.19,.94-.19,1.43,0,5.31,5.96,9.62,13.31,9.62s13.31-4.31,13.31-9.62Z"/><path class="cls-10" d="M95.39,93.71c6.15,0,11.13-3.6,11.13-8.05,0-.71-.18-1.38-.42-2.04-.58-.03-10.92-1.67-10.96-1.67s-10.16,1.73-10.51,1.8c-.22,.61-.38,1.24-.38,1.91,0,4.45,4.98,8.05,11.13,8.05Z"/><path class="cls-10" d="M95.13,89.93c-4.82,0-8.72-2.54-8.72-5.68v-15.49h17.44v15.49c0,3.14-3.9,5.68-8.72,5.68Z"/><path class="cls-8" d="M103.85,82.42c-2.24,1.16-5.73,1.5-9.46,.69-3.48-.75-6.34-2.34-7.98-4.16v-6.03c2.09-1.68,15.74,.43,17.44,1.83v7.68Z"/><path class="cls-6" d="M65.95,110.32c.32,6.56,1.29,13.43,1.5,19.42,15.28,2.15,40.58,.97,55.13-3.07,.08-5.38,.14-12.75,.31-19.38-16.31,3.04-40.69,3.91-56.94,3.04Z"/><g><path class="cls-16" d="M114.04,33.18c-3.6-7.45-19.85-6.26-22.03-6.11-2.06,.14-18.67,1.59-20.83,9.48-.34,1.26,5.64,21.74,8.02,25.23,.91,1.34,3.61,3.27,5.32,4.08,2.83,1.35,4.91,2.51,8.35,2.92,.21,.03,4.6-.32,4.8-.38,3.32-.95,5.2-2.42,7.79-4.19,1.57-1.07,3.93-3.4,4.62-4.87,1.8-3.83,4.54-25,3.97-26.18Z"/><g><path class="cls-10" d="M72.56,55.22c2.3-.45,4.29,1.48,5.58,4.82,1.44,3.75,.26,6.02-.62,6.57-1.67,1.04-5.24-.56-6.97-4.09-1.56-3.18-.69-6.78,2.02-7.3Z"/><path class="cls-9" d="M73.94,58.58c1.12-.65,2.67,.11,3.46,1.69,.79,1.58,.53,3.39-.59,4.03-1.12,.65-2.67-.11-3.46-1.69-.79-1.58-.53-3.39,.59-4.03Z"/></g><g><path class="cls-10" d="M115.62,51.83c-2.34-.08-4.01,2.13-4.75,5.63-.84,3.93,.69,5.99,1.64,6.39,1.81,.76,5.09-1.37,6.25-5.13,1.04-3.38-.38-6.8-3.13-6.9Z"/><path class="cls-9" d="M114.78,55.37c-1.21-.47-2.62,.52-3.16,2.21-.54,1.68,0,3.43,1.21,3.89,1.21,.47,2.62-.52,3.16-2.21,.54-1.68,0-3.43-1.21-3.89Z"/></g><path class="cls-10" d="M71.83,44.42c2.32-8.86,18.55-10.24,20.73-10.44,2.06-.18,18.69-1.34,22.13,7.07,.55,1.34-1.96,25.06-3.73,29.33-.68,1.64-3.02,4.23-4.58,5.42-2.57,1.96-4.43,3.6-7.75,4.63-.2,.06-4.59,.41-4.8,.38-3.44-.5-5.53-1.82-8.38-3.36-1.72-.93-4.44-3.12-5.37-4.63-2.41-3.95-8.63-26.99-8.27-28.39Z"/><path class="cls-5" d="M95.08,64.58c-.28,0-.53-.03-.72-.09-.1-.03-.16-.14-.13-.24,.03-.1,.15-.16,.24-.13,.66,.19,2.07,0,2.35-.54,.17-.34-.12-1.01-.47-1.79-.22-.5-.47-1.07-.67-1.69-.03-.1,.02-.21,.13-.24,.11-.03,.21,.02,.24,.13,.19,.6,.43,1.16,.65,1.65,.4,.91,.71,1.62,.46,2.12-.3,.58-1.29,.82-2.08,.82Z"/><path class="cls-13" d="M77.4,50.31c.82-.86,2.02-1.74,3.12-2.12,2.21-.75,4.02-.59,6.61-1.17,.56-.12,1.18,1.59,1.1,1.74-.09,.17-.41,.32-.8,.4-2.11,.43-3.78,.14-6.67,.87-.98,.25-2.07,.76-2.62,1.04-.21,.11-.81,.44-.88,.39-.16-.12-.16-.84,.13-1.15Z"/><path class="cls-13" d="M108.33,42.5c-1.01-.52-2.1-.97-3.33-.84-1.45,.15-3.16,1.53-4.64,2.21-.43,.2-2.28,.49-2.66,.67-.37,.18,.89,1.58,1.32,1.76,.18,.08,1.58-.25,2.03-.45,1.69-.79,3.04-2.11,4.47-2.51,1.6-.45,3.4,.22,3.43,.14,.09-.17-.24-.79-.62-.98Z"/><g><path class="cls-1" d="M105.91,51.27c2.78,.95,3.76,4.19,2.24,5.93-.89,1.02-2.4,1.35-3.98,1.46-2.32,.16-4.44-.82-4.8-1.88-.18-.52-.36-1.58,.59-3.33,1.08-1.99,3.51-3.02,5.95-2.18Z"/><path class="cls-3" d="M107.95,51.81c1.86,1.56,1.26,4.57,.16,5.45,.72-1.04,.77-2.36,.4-3.34-.39-1.04-1.44-2.27-3.44-2.66-2.04-.4-4.28,.51-5.34,2.6,1.36-3.17,5.6-4.24,8.23-2.04Z"/><path class="cls-3" d="M104.44,52.69c1.38,.5,2.11,2.03,1.6,3.45-.51,1.42-2.03,2.14-3.42,1.64-1.39-.49-2.1-2.04-1.6-3.45,.5-1.42,2.03-2.15,3.42-1.64Z"/><path class="cls-2" d="M105.21,53.38c.38,.15,.6,.58,.45,.96-.12,.38-.55,.59-.94,.45-.39-.14-.6-.58-.45-.96,.14-.39,.58-.59,.94-.45Z"/></g><g><path class="cls-1" d="M88.29,54.37c1.21,1.58,1.19,2.66,1.1,3.2-.19,1.1-2.13,2.4-4.45,2.61-1.58,.14-3.12,.04-4.16-.82-1.77-1.47-1.31-4.83,1.29-6.2,2.28-1.21,4.85-.58,6.22,1.22Z"/><path class="cls-3" d="M88.58,54.73c-1.37-1.9-3.72-2.45-5.68-1.74-1.92,.7-2.76,2.08-2.98,3.17-.21,1.03,.04,2.32,.92,3.24-1.23-.69-2.3-3.57-.7-5.4,2.25-2.58,6.61-2.18,8.44,.73Z"/><path class="cls-3" d="M85.7,54.16c1.38,.5,2.11,2.03,1.6,3.45-.51,1.42-2.03,2.14-3.42,1.64-1.39-.49-2.1-2.04-1.6-3.45,.5-1.42,2.03-2.15,3.42-1.64Z"/><path class="cls-2" d="M86.48,54.85c.38,.15,.6,.58,.45,.96-.12,.38-.55,.59-.94,.45-.39-.14-.6-.58-.45-.96,.14-.39,.58-.59,.94-.45Z"/></g><path class="cls-16" d="M85.34,35.07c-.14-.64,.27-4.33-1.21-6.07-8.79-.3-13.6,6.61-14.57,9.87,.66,4.47,2.66,15.29,2.93,16.36,1.06,.37,2.32,2.56,3.06,5.03,.22,.17,.41,.51,.8,.79-.62-4.01-.93-9.65-.82-13.38,.44-.98,1.46-2.64,1.84-3.2-.06-1.78-1.08-5.31,1.55-7.02,.84-.54,3.95-1.86,6.41-2.39Z"/><path class="cls-16" d="M99.77,33.93c.04-.65-.94-4.24,.25-6.19,8.64-1.68,14.47,4.41,15.94,7.47,.05,4.52-.24,15.52-.34,16.62-.99,.53-1.9,2.89-2.24,5.45-.19,.2-.33,.57-.67,.91-.02-4.06-.59-9.68-1.28-13.34-.59-.9-1.85-2.38-2.32-2.87-.21-1.76,.24-5.42-2.63-6.69-.92-.41-4.19-1.22-6.7-1.35Z"/><path class="cls-4" d="M74.99,35.3c1.48-6.69,8.23-11.6,10.89-12.1,6.61-1.23,22.91,2.16,24.72,2.54-2.5,6.2-9.33,12.83-16.79,13.45-9.11,.76-15.14-3.76-18.83-3.89Z"/><path class="cls-4" d="M75,33.07c-.8-2.15,.98-7.41,4.26-9.39-1.44,3.08-1.25,7.17-.96,7.79,.29,.61-3.07,2.22-3.3,1.6Z"/><path class="cls-15" d="M92.42,71.83c-.08,0-.16-.02-.23-.06-.18-.11-.25-.34-.1-.49,1.24-1.21,2.81-2.1,4.59-1.98,1.11,.06,2.04,.86,2.46,1.51,.11,.17,.02,.38-.17,.47-.19,.09-.41,.01-.53-.15-.29-.42-.98-1.08-1.81-1.13-1.76-.12-3.02,.84-3.9,1.68-.09,.09-.2,.15-.32,.15Z"/></g><g><path class="cls-10" d="M130.94,43.85c-.27,1.49-2.87-.41-4.79-1.66-2.28-1.49-4.21-3.38-5.21-3.28-1.68,.15-3.77,1.29-5.73,1.46-2.25,.19-3.07-1.84-2.35-2.12,1.02-.39,7.19-3.23,8.95-3.31,1.65-.08,7.13,3.79,8.59,5.53,.24,.29,.83,1.8,.54,3.39Z"/><path class="cls-17" d="M129.44,47.84c-1.01,3.72-2.67,7.64-3.67,8.14-1.74,.87-3.6-2.71-4.84-6.67-.21-.68-.27-2.09-.4-3.73,.24-.17,.49-.35,.76-.48,2.97-1.48,6.59-.25,8.14,2.74Z"/><path class="cls-17" d="M123.36,38.59c-.5-.07-1.04,.15-1.62,.59,1.07,.33,2.43,1.71,4.42,3.01,.86,.56,1.86,1.25,2.72,1.7,1.05-.23,1.33-.64,1.4-1.5,.12-1.64-4.33-3.44-6.92-3.8Z"/><path class="cls-10" d="M118.5,43.6c-.17,.59-.37,1.88,.44,1.84-.45,1.47,.07,2.12,1.12,2.23-1.64,2.26,2.44,3.81,3.04,3.37,1.03-.76,1.91-1.45,1.97-1.97,.06-.53-.9-.99-1.7-.69-.56,.21-.66,.43-.78,.42-.04-.17,.71-1.15,1.18-1.1,.68,.07,1.19,.33,2.25,.79-.05,2.74-3.6,3.92-3.79,6.93-.17,2.67,2.34,8.32,7.82,6.57,.41-.13,2.91-.97,2.87-1.4-.4-4.89-1.96-16.48-1.94-18.02,.03-2.04-7.29-3.61-7.78-3.61-1.39,0-1.98,.91-4.69,4.64Z"/><g><path class="cls-17" d="M123.59,41.28c.68,.12,1.93,.34,3.12,.65,.08,.02,.13,.1,.11,.18-.02,.08-.1,.13-.18,.1-1.18-.31-2.43-.53-3.1-.65-.23-.04-.39-.07-.48-.09-.31-.09-2.86,2.09-4.25,4.62-.02-.11,.07-.51,.11-.63,1.22-2.05,3.61-4.41,4.21-4.28,.08,.02,.24,.05,.47,.08Z"/><path class="cls-17" d="M123.75,44.28c.68,.12,1.94,.34,3.14,.66,.08,.02,.13,.1,.11,.18-.02,.08-.1,.13-.18,.11-1.19-.32-2.44-.53-3.12-.65-.22-.04-.38-.07-.46-.08-.42-.09-3.37,3.69-3.42,3.68,.04-.13,.04-.19,.1-.33,1.19-1.52,2.88-3.79,3.38-3.64,.08,.02,.23,.04,.45,.08Z"/></g></g><path class="cls-8" d="M138.45,89.93c-.57-.11-4.13-4.04-4.57-6.65,.52-.02,1.3-.03,3.54-.03,.51,.2,1.07,5.97,1.02,6.69Z"/><path class="cls-10" d="M147.71,96.39c-1.31,.83-2.59,1.12-5.12,2.04-7.9-14.01-9.39-24.22-17.11-37.37,.55-.64,6.11-5.47,6.79-5.3,5.99,9.96,14.3,19.19,19.11,30.38,.99,2.31,.52,7.57-3.67,10.24Z"/><g><path class="cls-10" d="M71.91,155.73c-.36,.09-.63,3.04-.39,3.12,2.29-.42,5.16-1.24,5.9-1.33,.24-.03,2.66,1.27,4,1.2,1.72-.08,1.85-1.24,1.03-1.65-1.3-.65-3.94-2.45-4.92-2.51-.66-.04-3.94,.77-5.62,1.17Z"/><path class="cls-10" d="M70.32,152.54c-.37,.2,.39,3.76,.67,3.84,2.47-1.01,6.76-3.28,7.56-3.44,.27-.05,3.62,.61,5.22,.67,1.92,.07,2.58-1.75,1.61-2.04-1.45-.42-5.95-2.19-7.04-2.05-1.64,.2-5.39,1.61-8.02,3.03Z"/><path class="cls-10" d="M70.32,147.13c-.3,.29,2.06,3.26,2.35,3.27,2.1-2.49,3.73-5.52,4.49-5.85,.25-.11,4.07-.04,5.65-.33,1.89-.34,2.15-2.26,1.14-2.33-1.51-.1-6.92-.86-7.95-.5-1.56,.54-3.54,3.64-5.67,5.74Z"/><path class="cls-8" d="M75.63,147.55s-3.69,1.54-4.02,.56c1.91-1.78,4.42-3.43,5.6-3.71-.62,.58-1.41,1.64-1.41,1.64l-.18,1.5Z"/><path class="cls-10" d="M70.35,148.65c-.36,.21,.15,3.67,.42,3.76,2.55-1.08,6.82-3.74,7.63-3.86,.27-.04,4.82,1.6,6.42,1.75,1.91,.18,2.68-1.6,1.72-1.94-1.43-.51-6.93-3.52-8.02-3.45-1.65,.1-5.58,2.18-8.18,3.73Z"/><path class="cls-10" d="M58.98,154.31c.22-.48,2.51-2.59,5.13-4.07,1.17-.66,5.96-3,8.14-3.94,.94-.41,.46,10.3,.02,12.42-2.59,1-6.86,1.29-8.16,1.06-.63-.11-4.21-3.03-5.13-5.47Z"/></g></g></g></g></g></svg>