<?xml version="1.0" encoding="UTF-8"?><svg id="Layer_2" xmlns="http://www.w3.org/2000/svg" xmlns:xlink="http://www.w3.org/1999/xlink" viewBox="0 0 403.24 198.68"><defs><style>.cls-1{fill:#c4735b;}.cls-2{fill:#3193ba;}.cls-3{fill:none;filter:url(#drop-shadow-1);}.cls-4{fill:#752912;}.cls-5{fill:#e0956c;}.cls-6{fill:#ffc19f;}.cls-7{fill:#420000;opacity:.2;}.cls-8{fill:#333;}.cls-9{fill:#969696;}.cls-10{fill:#723c27;}.cls-11{fill:#ff9797;}.cls-12{fill:#41b6e5;}.cls-13{fill:#fff;opacity:.46;}.cls-14{fill:#701608;}.cls-15{fill:#f9feff;}.cls-16{fill:#fefffe;}</style><filter id="drop-shadow-1" filterUnits="userSpaceOnUse"><feOffset dx="0" dy="4"/><feGaussianBlur result="blur" stdDeviation="0"/><feFlood flood-color="#004e6e" flood-opacity="1"/><feComposite in2="blur" operator="in"/><feComposite in="SourceGraphic"/></filter></defs><g id="Contenido"><g><rect class="cls-3" x="0" y="0" width="403.24" height="198.68" rx="12" ry="12"/><g><g><path class="cls-8" d="M204.69,101.93c-.58-.22-1.07-.43-1.48-.62-.41-.2-.75-.38-1.04-.54-.29-.17-.51-.32-.69-.46-.18-.14-.32-.27-.44-.38-.12-.11-.22-.22-.29-.31-.08-.09-.16-.17-.24-.23-.02,0-.04-.02-.08-.05-.04-.04-.06-.06-.06-.08-.02-.02-.03-.04-.05-.07-.02-.03-.02-.06-.02-.07-.04-.04-.09-.09-.15-.15-.06-.06-.11-.11-.17-.16-.05-.05-.1-.1-.14-.13-.04-.04-.07-.05-.07-.05l-.27-.43h0s0-.03,0-.03c0,0,0-.01,0-.02v-.02c-.19-.25-.34-.53-.46-.82-.12-.3-.23-.6-.31-.92-.09-.31-.17-.63-.24-.95s-.15-.62-.24-.92c-.04-.14-.06-.27-.06-.38s-.02-.25-.05-.38c-.05-.19-.1-.37-.16-.56-.06-.19-.09-.37-.11-.56,0-.07,0-.21-.02-.4-.01-.2-.03-.4-.04-.63-.02-.22-.03-.44-.04-.63-.01-.2-.02-.34-.03-.43v-.31c0-.33,.04-.62,.08-.89,.05-.26,.12-.55,.21-.86,0-.02,.02-.06,.05-.15,.02-.08,.05-.17,.07-.27s.05-.19,.07-.27c.02-.08,.03-.13,.04-.15,.08-.28,.17-.53,.27-.73,.1-.2,.19-.37,.27-.5,.08-.13,.18-.26,.3-.39,.07-.2,.17-.4,.32-.62,.15-.22,.32-.43,.51-.65,.2-.22,.41-.43,.63-.64,.23-.21,.46-.41,.68-.6,.28-.28,.61-.51,1-.69s.76-.34,1.11-.48c.02,0,.09-.04,.19-.09,.1-.05,.21-.11,.34-.16,.12-.05,.23-.1,.34-.15,.1-.05,.17-.08,.19-.1,0,0,.04,0,.1-.02,.06-.02,.12-.04,.18-.06,.06-.02,.13-.05,.18-.07,.06-.02,.09-.03,.11-.04,.02-.02,.06-.04,.15-.07,.08-.03,.13-.06,.15-.07,0,0,.03,0,.07,0,.04,0,.08,0,.13,0h.13s.07,0,.08-.01c.02,0,.05,0,.1-.01,.05,0,.11-.02,.18-.03s.14-.02,.2-.04,.11-.02,.15-.03c.34-.1,.67-.14,1-.14,.33,0,.67,0,1.03,0h.29c.12,0,.24,0,.36,0,.12,0,.22,0,.31,0h.16s.09,0,.17,0c.08,0,.17,.01,.27,.02,.1,0,.19,.02,.28,.03,.09,.01,.15,.02,.2,.03,.02,0,.07,0,.15,.02,.08,.02,.15,.03,.2,.05,.02,0,.06,0,.14,.02,.08,.02,.12,.03,.14,.05,.02,0,.06,0,.15,.01,.08,0,.17,.01,.26,.02,.09,0,.18,.01,.27,.02,.09,0,.14,.01,.17,.01,.02,.02,.07,.03,.14,.05,.07,.02,.11,.02,.13,.02,.02,.02,.06,.04,.13,.09,.07,.04,.14,.08,.22,.13,.08,.04,.15,.09,.22,.13,.07,.04,.11,.07,.13,.08,.02,.02,.06,.04,.14,.08s.12,.06,.14,.08c.02,0,.05,.02,.11,.07,.06,.04,.09,.07,.11,.07,0,0,.02,.01,.06,.01,.02,0,.04,0,.06-.01,.08,.02,.14,.1,.18,.22,.04,.12,.05,.22,.05,.31v.12s-.04,.06-.06,.09c-.02,.03-.06,.07-.1,.11-.02,.02-.05,.06-.1,.14-.05,.08-.11,.16-.18,.25-.06,.09-.12,.17-.18,.24-.05,.07-.09,.12-.1,.13-.09,.04-.19,.15-.31,.34-.11,.19-.24,.38-.38,.57-.14,.2-.29,.36-.45,.5-.16,.14-.33,.18-.51,.12-.45-.11-.88-.21-1.29-.28s-.85-.11-1.31-.12c-.04,0-.09,0-.15,0-.06,0-.12,0-.18,0-.07,0-.15,.01-.22,.01-.02,0-.05,0-.11,.02s-.12,.03-.18,.04c-.06,.02-.12,.03-.18,.04s-.09,.02-.11,.02c-.03,0-.09,.02-.2,.03-.11,.01-.23,.03-.35,.04-.13,.02-.24,.03-.35,.04-.11,.01-.18,.02-.21,.03-.02,0-.06,.01-.12,.03-.06,.02-.14,.04-.22,.07-.08,.03-.16,.06-.24,.09-.08,.03-.14,.05-.18,.07-.38,.15-.71,.35-1.01,.59-.3,.24-.58,.5-.84,.81-.02,.02-.07,.09-.15,.18-.07,.1-.15,.2-.24,.31-.09,.11-.17,.21-.24,.31s-.13,.16-.15,.18c-.08,.09-.16,.18-.24,.27-.08,.09-.14,.21-.18,.35-.02,.04-.04,.12-.07,.23-.03,.11-.06,.23-.09,.36-.03,.13-.06,.25-.09,.36-.03,.11-.05,.2-.06,.24,0,.02-.01,.03-.01,.05v.09c0,.09,.01,.18,.04,.26s.04,.18,.04,.29v.02s-.05,.06-.11,.13c-.06,.07-.08,.12-.08,.13v.05c0,.38,0,.8,.03,1.25,.03,.45,.1,.86,.23,1.23l.2,.67v.02s.01,.09,.04,.16c.03,.08,.06,.16,.09,.24,.03,.08,.06,.16,.08,.23s.04,.12,.06,.15c.11,.07,.17,.15,.21,.26,.03,.11,.08,.22,.15,.32,.2,.3,.42,.59,.66,.86,.24,.27,.49,.52,.77,.74,.28,.22,.58,.42,.9,.58,.32,.16,.67,.28,1.03,.37,.06,.02,.15,.03,.29,.05,.13,.02,.27,.04,.42,.07s.27,.04,.39,.06c.12,.02,.19,.02,.23,.02,0,0,.04,0,.1,0,.06,0,.12,0,.2,0s.16,0,.24,0c.08,0,.15,0,.2,0,.34,0,.67,0,.98-.04,.31-.04,.63-.11,.96-.23,.02,0,.06-.02,.11-.05s.1-.05,.15-.07,.1-.05,.14-.07c.04-.02,.06-.03,.07-.04,.1-.04,.18-.09,.26-.13s.14-.09,.21-.13c.07-.04,.14-.08,.22-.1,.08-.03,.17-.04,.26-.04,.02,0,.07,0,.13,.01,.07,0,.11,.01,.12,.01,.2,.18,.38,.37,.54,.56,.17,.2,.3,.41,.41,.63,.02,.03,.06,.1,.12,.21s.11,.23,.17,.35c.06,.13,.12,.24,.18,.35s.09,.18,.11,.2c0,.02,.03,.05,.07,.1,.04,.05,.07,.1,.11,.15,.04,.05,.07,.11,.1,.16,.03,.05,.05,.08,.06,.09,.05,.2,.07,.35,.06,.43-.01,.08-.06,.14-.13,.19-.08,.04-.18,.09-.31,.14-.13,.05-.29,.15-.46,.29-.02,0-.03,.02-.04,.02-.02,0-.03,.02-.03,.02,0,0-.01,.02-.02,.02-.2,.15-.42,.28-.63,.37-.22,.09-.45,.17-.68,.23s-.48,.11-.73,.14c-.25,.03-.5,.06-.75,.09-.05,0-.18,0-.38,.02-.21,.02-.43,.03-.67,.05-.24,.02-.46,.03-.67,.05-.21,.02-.33,.03-.38,.04h-.78s-.08,0-.17-.01c-.09,0-.18-.02-.29-.02-.1,0-.2-.02-.29-.02-.09,0-.15-.01-.17-.01h-.97c-.12,0-.19,0-.21-.01-.02,0-.06,0-.13-.02-.07-.02-.16-.03-.25-.05-.09-.02-.18-.04-.27-.07-.09-.02-.15-.04-.19-.06Z"/><path class="cls-8" d="M226.56,102.12c-.1-.06-.14-.14-.13-.24,.01-.11,.01-.21,0-.31,0-.02-.01-.04-.04-.07-.02-.03-.04-.06-.04-.07v-.11c0-.11,.03-.22,.07-.31,.05-.09,.07-.19,.07-.29v-.07s-.06,0-.12,.02c-.05,.02-.09,.03-.1,.05-.06,.04-.15,.1-.28,.18-.13,.08-.26,.17-.41,.26-.15,.09-.29,.17-.43,.24s-.24,.11-.32,.12l-.95,.39h-.07s-.04,0-.08,.01c-.04,0-.08,.02-.13,.03s-.09,.02-.13,.03c-.04,0-.07,.01-.08,.01h-1.16c-.12,0-.24,0-.35-.01-.11,0-.22-.02-.34-.02-.12,0-.25-.02-.4-.05-.02,0-.06-.02-.13-.04-.07-.02-.14-.03-.22-.05-.08-.02-.15-.03-.22-.04-.07-.01-.11-.02-.13-.02h-.63l-.4-.16c-.06-.02-.14-.07-.26-.13-.12-.06-.24-.13-.38-.21-.13-.07-.26-.14-.38-.21-.12-.06-.21-.11-.27-.13-.05-.02-.12-.06-.22-.1-.1-.04-.2-.09-.3-.15-.1-.05-.2-.1-.29-.14-.09-.04-.15-.07-.17-.09l-.06-.05s-.07-.06-.12-.1c-.04-.04-.09-.08-.13-.12-.04-.04-.08-.06-.1-.08-.2-.2-.4-.43-.59-.67s-.37-.48-.56-.7c-.17-.2-.31-.47-.43-.81-.11-.33-.21-.69-.28-1.06-.07-.37-.13-.73-.16-1.09-.03-.36-.05-.67-.05-.93,0-.33,0-.64,0-.93,0-.28,.02-.56,.05-.84,.03-.27,.07-.55,.13-.82,.06-.28,.14-.57,.24-.89,0-.05,.04-.15,.09-.31,.05-.16,.11-.32,.17-.48s.11-.29,.15-.38,.06-.1,.05-.01c.13-.37,.3-.72,.51-1.04,.21-.32,.45-.62,.72-.9,.27-.28,.56-.53,.87-.77,.31-.24,.64-.46,.97-.66,.03-.02,.11-.07,.23-.13s.24-.12,.38-.19c.13-.06,.26-.13,.39-.19s.21-.1,.26-.12c0,0,.03-.02,.08-.03,.04-.01,.1-.03,.16-.04,.06-.02,.12-.03,.18-.04l.15-.03s.11-.03,.2-.05c.08-.02,.13-.02,.15-.02h2.41c.28,.08,.56,.16,.83,.23,.27,.07,.53,.15,.77,.26,.25,.1,.49,.22,.72,.37,.23,.14,.46,.33,.68,.56h.05s0-.06,0-.1c0-.04,0-.09,0-.14s0-.1,0-.14c0-.04,0-.08,0-.09,0,0,0-.04,.01-.09s.02-.1,.03-.16c.01-.06,.02-.11,.04-.15,.01-.04,.02-.07,.02-.08-.04-.06-.04-.12-.01-.18s.08-.11,.14-.15c.06-.04,.13-.07,.2-.08s.13,0,.18,.03c.41,0,.77,0,1.07,0,.31,0,.61,.01,.9,.02s.6,.03,.91,.07c.31,.03,.67,.07,1.08,.12,.02,.02,.07,.04,.12,.07,.06,.03,.09,.06,.09,.1,0,.07,0,.16,.01,.27,0,.11,.02,.22,.02,.34,0,.12,.02,.23,.02,.34s0,.21,0,.29c0,.02,0,.07-.01,.15,0,.08-.02,.17-.03,.27s-.02,.19-.02,.27c0,.08-.01,.13-.01,.15,0,.02-.01,.08-.04,.18-.03,.09-.04,.15-.04,.16,0,.02,0,.08,0,.15,0,.08,0,.16,0,.24v.24c0,.08,0,.12-.01,.14,0,.02,0,.06-.02,.11s-.03,.09-.05,.11l-.02,2.88v.73c0,.31,0,.69,0,1.15,0,.46,0,.97,.02,1.53,0,.56,.02,1.12,.02,1.68,0,.56,.02,1.08,.02,1.58,0,.5,.02,.91,.04,1.25,0,.02,0,.09-.02,.19-.01,.1-.02,.21-.04,.34-.01,.12-.02,.23-.04,.34-.01,.1-.01,.16,0,.19v.2s-.07,.05-.16,.09c-.09,.03-.15,.06-.17,.07-.22,0-.41,0-.57,.02-.16,.02-.31,.03-.45,.05-.14,.02-.29,.04-.44,.05-.15,.02-.33,.02-.56,.01h-.57c-.06,0-.15,0-.29,0-.13,0-.28-.01-.43-.02-.15,0-.29-.02-.43-.02-.13,0-.23-.02-.29-.02Zm-7.21-8.03c0,.43,.07,.83,.21,1.2s.33,.73,.55,1.09c.02,.02,.04,.06,.07,.12,.03,.05,.06,.08,.07,.08,.2,.21,.4,.42,.6,.61,.21,.2,.43,.37,.66,.52,.23,.15,.48,.27,.74,.36,.26,.09,.54,.13,.86,.13,.26,0,.52-.04,.79-.13,.27-.09,.52-.18,.76-.28,.03-.02,.08-.04,.14-.07,.06-.03,.12-.06,.18-.09,.06-.03,.11-.05,.16-.08,.04-.02,.08-.04,.09-.05,.3-.23,.55-.5,.75-.81,.2-.31,.35-.65,.47-1,.12-.35,.2-.72,.24-1.1s.08-.74,.09-1.09c0-.04,0-.11,0-.21s-.01-.2-.02-.31c0-.11-.02-.21-.02-.3,0-.09-.02-.16-.02-.19l-.11-.22c-.03-.06-.06-.13-.1-.18-.03-.06-.06-.11-.07-.15-.16-.31-.33-.61-.5-.9-.17-.29-.39-.52-.67-.69-.07-.05-.14-.1-.22-.16s-.17-.12-.26-.18-.19-.12-.27-.17c-.09-.05-.17-.09-.24-.1-.03,0-.09-.02-.18-.05-.09-.02-.18-.05-.28-.07s-.19-.04-.27-.06c-.08-.02-.14-.03-.18-.04-.05-.07-.12-.12-.22-.13s-.21-.01-.32,0c-.12,.01-.23,.03-.35,.05-.12,.02-.21,.04-.28,.04-.12,0-.25,.02-.39,.07-.14,.04-.27,.1-.4,.18-.13,.07-.25,.15-.37,.24-.12,.09-.22,.18-.31,.28-.02,.02-.05,.06-.1,.12-.05,.07-.11,.13-.17,.2-.06,.07-.12,.14-.18,.2-.06,.07-.09,.11-.1,.12-.31,.34-.53,.74-.65,1.21-.07,.33-.12,.65-.15,.98s-.04,.67-.04,1.01Z"/><path class="cls-8" d="M233.26,102.15c-.11-.02-.19-.06-.26-.1-.07-.05-.13-.11-.16-.18-.04-.07-.06-.14-.07-.21-.01-.07-.02-.14-.01-.21,0-.06,0-.12,0-.17,0-.62,0-1.23-.02-1.85-.02-.61-.03-1.23-.04-1.85-.01-.62-.01-1.24,0-1.86,.01-.62,.04-1.24,.09-1.86l-.05-.57c0-.06,.02-.13,.02-.18,0-.05,.01-.1,.01-.15s0-.1,.01-.14v-1.62c0-.2,0-.4,0-.58s0-.3,0-.35c0-.04,0-.15,.02-.33,.01-.18,.02-.37,.04-.57,.01-.2,.02-.39,.02-.57,0-.18,0-.29,0-.34,0-.18,0-.38-.02-.61-.02-.23-.04-.44-.04-.62l.02-.43c0-.1,.03-.16,.08-.2,.05-.04,.11-.06,.17-.07,.06,0,.12,0,.17,0,.05,0,.08,0,.09,0,.02,0,.07,0,.14,0,.07,0,.14-.01,.22-.02,.08,0,.15-.02,.21-.02,.07,0,.11-.02,.12-.02h.86c.13,0,.27,0,.41,0,.14,0,.29,.01,.46,.02h.13s.04,.02,.08,.02c.04,0,.09,.02,.15,.02,.05,0,.1,.02,.15,.03s.08,.02,.11,.03c.17,.03,.29,.07,.36,.12,.07,.04,.11,.11,.13,.18,.02,.08,.03,.17,.04,.29,0,.11,.02,.25,.05,.42,.35-.32,.72-.57,1.1-.77,.38-.2,.78-.34,1.18-.45,.41-.1,.82-.16,1.25-.19,.43-.02,.87-.02,1.32,0,.12,0,.25,.01,.39,.04,.14,.03,.28,.06,.42,.1,.14,.04,.28,.09,.42,.15,.13,.06,.25,.11,.36,.17,.07,.05,.17,.12,.29,.21,.12,.09,.23,.18,.35,.27,.11,.09,.21,.18,.3,.24,.09,.07,.13,.1,.14,.1,.23,.17,.43,.37,.6,.59,.17,.22,.33,.46,.45,.71,.13,.25,.23,.52,.32,.79,.09,.28,.16,.55,.21,.82,.02,.03,.05,.12,.08,.25,.03,.13,.06,.28,.09,.45,.03,.17,.05,.34,.07,.51s.03,.31,.03,.4v.45c0,.13,0,.27,0,.43,0,.15,0,.3,.01,.43,0,.13,0,.21,0,.24v2.45s-.03,.07-.04,.15-.02,.15-.03,.23c-.01,.08-.02,.16-.03,.23,0,.07-.01,.13-.01,.16v.27c-.02,.15-.02,.35-.02,.59s0,.5,0,.77c0,.27,0,.55,0,.83v.78c0,.24,0,.44,0,.6,0,.16,0,.26,0,.31v.4c0,.09,0,.17,0,.25,0,.08,0,.12,0,.14v.12c-.01,.09-.06,.14-.16,.16-.1,.02-.19,.03-.25,.04-.03,0-.06,0-.1,0-.04,0-.09,.01-.14,.02-.05,0-.09,.01-.13,.02-.04,0-.06,.01-.07,.02h-.5c-.11,0-.22,0-.32,0-.1,0-.16,.01-.18,.02-.38,.02-.74,.04-1.07,.07-.33,.03-.69,.03-1.09,.02-.15,0-.25-.05-.3-.12-.06-.07-.09-.15-.11-.25s-.02-.2-.01-.31,.01-.21,.01-.31v-.29c0-.15,0-.32,0-.52,0-.2,0-.41,0-.63s0-.44,0-.63,0-.37,0-.51v-3.12c.03-.28,.03-.61,.01-.99-.02-.37-.05-.76-.12-1.16-.06-.4-.14-.79-.25-1.17-.11-.38-.24-.72-.39-1.02-.16-.3-.33-.53-.54-.7-.2-.17-.43-.24-.68-.22l-.43-.02c-.29,0-.52,.02-.7,.1-.18,.07-.4,.18-.65,.33-.02,0-.03,.01-.05,.03-.02,.02-.02,.04-.02,.05-.23,.17-.42,.41-.58,.73-.16,.31-.29,.67-.4,1.06-.11,.39-.2,.81-.27,1.26-.07,.44-.13,.88-.18,1.31,0,.04-.02,.14-.04,.31-.02,.16-.03,.34-.05,.54-.02,.2-.04,.4-.05,.6-.01,.2-.02,.35-.03,.46,0,0,0,.05,0,.12,0,.07-.01,.16-.02,.26,0,.1-.02,.2-.02,.3,0,.1-.01,.18-.01,.23,0,.04,0,.11,0,.2,0,.09,0,.19,0,.29s0,.2,0,.29c0,.09,0,.15,0,.18v1.83s0,.07,.02,.15,.02,.12,.02,.15c0,0,0,.03,0,.07s0,.08,0,.12v.2c0,.07,0,.14,.01,.23,0,.09,0,.18-.01,.26-.02,.09-.05,.16-.1,.21-.05,.06-.14,.08-.27,.07-.19,0-.39-.01-.62,0-.22,0-.46,.01-.7,.02-.24,0-.49,.01-.75,.02-.25,0-.49,0-.72-.03Z"/><path class="cls-8" d="M258.93,101.92s-.08,0-.17,.02c-.09,.01-.19,.03-.29,.05-.1,.02-.2,.04-.29,.05s-.14,.02-.16,.02h-.07c-.15,0-.29,0-.45-.02-.15-.02-.29-.02-.43-.02s-.25,0-.32,0c-.08,0-.19,.02-.35,.04-.02,.02-.05,.03-.11,.05-.06,.02-.09,.02-.11,.02h-.02c-.11,0-.2-.04-.26-.12,0-.03-.02-.09-.04-.17-.02-.08-.04-.17-.06-.26-.02-.09-.04-.18-.06-.26-.02-.08-.03-.13-.04-.16v-.07c0-.22,.02-.5,.03-.84,0-.34,.02-.67,.02-.99,0-.32,.01-.6,.02-.83,0-.23,0-.36,0-.37,0-.02,0-.07,0-.13,0-.06,0-.14,.02-.21,0-.08,.01-.15,.02-.21,0-.06,0-.11,0-.13v-5.13c-.06-.44-.09-.88-.11-1.31-.02-.44-.02-.87-.02-1.31s0-.88,.01-1.32,0-.88,0-1.33c0-.04,0-.14-.01-.29,0-.15-.02-.31-.02-.48,0-.17-.02-.33-.02-.48s-.01-.24-.01-.28v-.93c.02-.46,.02-.9,.02-1.29s-.01-.83-.04-1.29c.02-.07,.07-.12,.12-.13s.12-.02,.18-.02c.02,0,.03,0,.05,0,.02,0,.04,0,.06,0,.02,0,.05,.01,.09,.01,.03,0,.12,0,.27,0,.15,0,.3,0,.47,.01,.17,0,.32,0,.47,.01,.15,0,.24,0,.27,0h.43c.11,.02,.22,.02,.36,0s.27-.03,.41-.04c.14-.02,.27-.03,.41-.05,.13-.02,.26-.02,.37-.02,.09,0,.18-.01,.27-.04s.19-.04,.28-.04h.02s.06,.05,.14,.11c.08,.06,.13,.09,.15,.11l.13,.06s.05,.08,.09,.18c.04,.09,.05,.15,.05,.16,0,.04,0,.12,.02,.25,.02,.13,.03,.21,.05,.25,0,.04-.01,.12-.03,.25-.02,.13-.04,.26-.07,.4-.02,.14-.05,.28-.07,.41-.02,.13-.03,.21-.03,.24,.04,.05,.08,.12,.1,.22,.03,.1,.04,.17,.04,.21,0,.02-.02,.06-.06,.14-.04,.08-.07,.12-.08,.14v.5s.02,.08,.04,.17c.02,.09,.03,.19,.05,.29,.02,.1,.03,.2,.04,.29,.01,.09,.02,.15,.02,.17v1.33c.03,.41,.07,.87,.1,1.38s.06,1.05,.08,1.62c.03,.57,.04,1.15,.06,1.75s.03,1.18,.04,1.75c.01,.57,.02,1.11,.03,1.63,0,.52,.01,.98,.01,1.39s0,.75-.01,1.03c0,.27-.02,.45-.04,.54-.02,.19-.02,.37-.02,.56v.57c-.02,.07-.03,.15-.03,.27s0,.23,0,.35c0,.12,.01,.22,.02,.31,0,.09,.02,.14,.02,.15-.11,.33-.29,.58-.51,.73-.23,.15-.46,.25-.68,.3-.23,.05-.43,.07-.59,.05-.17-.01-.25-.01-.24,0l-.07,.02Z"/><path class="cls-8" d="M281.67,102.12c-.1-.06-.14-.14-.13-.24,.01-.11,.01-.21,0-.31,0-.02-.01-.04-.04-.07-.03-.03-.04-.06-.04-.07v-.11c0-.11,.02-.22,.07-.31,.05-.09,.07-.19,.07-.29v-.07s-.06,0-.12,.02c-.05,.02-.09,.03-.1,.05-.06,.04-.15,.1-.27,.18-.13,.08-.26,.17-.41,.26-.15,.09-.29,.17-.43,.24-.14,.07-.24,.11-.32,.12l-.95,.39h-.07s-.04,0-.08,.01c-.04,0-.08,.02-.13,.03s-.09,.02-.13,.03c-.04,0-.07,.01-.08,.01h-1.16c-.12,0-.24,0-.35-.01-.11,0-.22-.02-.34-.02-.12,0-.25-.02-.4-.05-.02,0-.06-.02-.13-.04-.07-.02-.14-.03-.22-.05-.08-.02-.15-.03-.22-.04-.07-.01-.11-.02-.13-.02h-.63l-.4-.16c-.06-.02-.14-.07-.26-.13-.12-.06-.24-.13-.38-.21s-.26-.14-.38-.21c-.12-.06-.21-.11-.27-.13-.05-.02-.12-.06-.22-.1-.1-.04-.2-.09-.3-.15-.1-.05-.2-.1-.29-.14-.09-.04-.15-.07-.17-.09,0,0-.03-.03-.06-.05-.03-.03-.07-.06-.12-.1-.04-.04-.09-.08-.13-.12s-.08-.06-.1-.08c-.2-.2-.4-.43-.59-.67s-.38-.48-.56-.7c-.17-.2-.31-.47-.43-.81-.12-.33-.21-.69-.28-1.06-.07-.37-.13-.73-.16-1.09-.03-.36-.05-.67-.05-.93,0-.33,0-.64,0-.93,0-.28,.02-.56,.05-.84,.03-.27,.07-.55,.13-.82,.06-.28,.14-.57,.24-.89,0-.05,.04-.15,.09-.31,.05-.16,.11-.32,.17-.48,.06-.16,.11-.29,.15-.38,.04-.1,.06-.1,.05-.01,.13-.37,.3-.72,.51-1.04,.21-.32,.45-.62,.72-.9,.27-.28,.56-.53,.87-.77,.31-.24,.64-.46,.97-.66,.03-.02,.11-.07,.22-.13,.12-.06,.24-.12,.38-.19,.13-.06,.26-.13,.39-.19,.13-.06,.21-.1,.26-.12,0,0,.03-.02,.08-.03l.16-.04c.06-.02,.12-.03,.18-.04l.15-.03s.11-.03,.2-.05c.08-.02,.13-.02,.15-.02h2.41c.28,.08,.56,.16,.83,.23,.27,.07,.53,.15,.77,.26,.25,.1,.49,.22,.72,.37,.23,.14,.46,.33,.68,.56h.05s0-.06,0-.1c0-.04,0-.09,0-.14s0-.1,0-.14c0-.04,0-.08,0-.09,0,0,0-.04,.01-.09,0-.05,.02-.1,.03-.16,.01-.06,.03-.11,.04-.15,.01-.04,.02-.07,.02-.08-.04-.06-.04-.12-.01-.18,.03-.06,.08-.11,.14-.15,.06-.04,.13-.07,.2-.08,.07-.01,.13,0,.18,.03,.41,0,.76,0,1.07,0,.31,0,.61,.01,.9,.02s.6,.03,.91,.07c.31,.03,.67,.07,1.08,.12,.03,.02,.07,.04,.12,.07,.06,.03,.08,.06,.08,.1,0,.07,0,.16,.01,.27,0,.11,.02,.22,.02,.34,0,.12,.02,.23,.03,.34,0,.11,0,.21,0,.29,0,.02,0,.07-.01,.15,0,.08-.02,.17-.02,.27s-.02,.19-.02,.27c0,.08-.01,.13-.01,.15,0,.02-.01,.08-.04,.18-.02,.09-.04,.15-.04,.16,0,.02,0,.08,0,.15,0,.08,0,.16,0,.24v.24c0,.08,0,.12-.01,.14,0,.02,0,.06-.03,.11-.02,.05-.03,.09-.05,.11l-.02,2.88v.73c0,.31,0,.69,0,1.15,0,.46,0,.97,.02,1.53s.02,1.12,.03,1.68c0,.56,.02,1.08,.02,1.58,0,.5,.02,.91,.04,1.25,0,.02,0,.09-.02,.19-.01,.1-.03,.21-.04,.34s-.03,.23-.04,.34c-.01,.1-.01,.16,0,.19v.2s-.07,.05-.16,.09c-.09,.03-.15,.06-.17,.07-.22,0-.41,0-.57,.02-.16,.02-.31,.03-.45,.05-.14,.02-.29,.04-.44,.05-.15,.02-.33,.02-.55,.01h-.57c-.06,0-.15,0-.29,0-.13,0-.28-.01-.43-.02-.15,0-.29-.02-.43-.02-.13,0-.23-.02-.29-.02Zm-7.21-8.03c0,.43,.07,.83,.21,1.2,.14,.37,.33,.73,.55,1.09,.02,.02,.04,.06,.07,.12,.03,.05,.06,.08,.07,.08,.2,.21,.4,.42,.6,.61,.21,.2,.43,.37,.66,.52,.23,.15,.48,.27,.74,.36,.26,.09,.54,.13,.85,.13,.26,0,.52-.04,.79-.13,.27-.09,.52-.18,.76-.28,.03-.02,.08-.04,.14-.07,.06-.03,.12-.06,.18-.09,.06-.03,.11-.05,.16-.08s.08-.04,.09-.05c.3-.23,.55-.5,.74-.81,.2-.31,.35-.65,.47-1,.12-.35,.2-.72,.24-1.1s.07-.74,.09-1.09c0-.04,0-.11,0-.21,0-.1-.01-.2-.02-.31,0-.11-.02-.21-.02-.3,0-.09-.02-.16-.03-.19l-.11-.22c-.03-.06-.07-.13-.1-.18-.03-.06-.06-.11-.07-.15-.16-.31-.33-.61-.5-.9-.17-.29-.39-.52-.66-.69-.07-.05-.14-.1-.22-.16-.08-.06-.17-.12-.26-.18s-.19-.12-.28-.17c-.09-.05-.17-.09-.24-.1-.03,0-.09-.02-.18-.05-.09-.02-.18-.05-.28-.07s-.19-.04-.28-.06c-.08-.02-.14-.03-.18-.04-.05-.07-.12-.12-.22-.13s-.21-.01-.32,0c-.12,.01-.23,.03-.35,.05s-.21,.04-.28,.04c-.12,0-.25,.02-.39,.07-.14,.04-.27,.1-.4,.18-.13,.07-.25,.15-.37,.24-.12,.09-.22,.18-.31,.28-.02,.02-.05,.06-.1,.12-.05,.07-.11,.13-.17,.2-.06,.07-.12,.14-.18,.2-.06,.07-.09,.11-.1,.12-.31,.34-.52,.74-.65,1.21-.07,.33-.12,.65-.15,.98-.03,.33-.04,.67-.04,1.01Z"/><path class="cls-8" d="M290.07,101.59c-.28-.15-.54-.28-.78-.42-.24-.13-.48-.29-.73-.48-.11-.11-.24-.21-.37-.31-.13-.1-.25-.2-.36-.31-.11-.1-.2-.21-.27-.32-.07-.11-.12-.24-.12-.37,0-.04,0-.1,0-.16,0-.07,0-.11,0-.13,.02-.05,.05-.09,.08-.13,.02-.04,.04-.07,.05-.1,.02-.02,.04-.04,.04-.05,.02-.02,.05-.05,.11-.12,.06-.06,.12-.12,.18-.19,.07-.06,.13-.13,.19-.19s.1-.1,.13-.13c.02-.02,.05-.06,.1-.14,.05-.08,.09-.13,.1-.15,.05-.05,.11-.11,.19-.18,.08-.07,.15-.15,.23-.22s.14-.14,.2-.2c.06-.06,.1-.1,.13-.13,.03-.02,.1-.06,.19-.11s.16-.08,.19-.09h.16c.07,0,.13,.03,.18,.09,.06,.06,.11,.12,.16,.19,.05,.07,.11,.14,.18,.21,.06,.07,.13,.12,.21,.15,.17,.1,.35,.21,.54,.34,.19,.13,.4,.25,.63,.37,.23,.12,.48,.22,.76,.31,.27,.09,.57,.14,.9,.15,.06,.05,.15,.06,.28,.03,.13-.03,.25-.08,.38-.15,.13-.07,.24-.16,.34-.26s.15-.2,.16-.29c0-.06,0-.13-.01-.23,0-.1-.02-.2-.04-.3-.02-.1-.04-.2-.07-.28s-.05-.15-.08-.2c-.29-.4-.59-.74-.9-1.02-.31-.28-.68-.54-1.11-.78-.02,0-.09-.04-.19-.11-.1-.06-.21-.13-.34-.21-.12-.07-.23-.14-.34-.2s-.16-.1-.18-.12c-.02-.02-.06-.05-.13-.1s-.15-.1-.24-.16c-.09-.06-.17-.12-.26-.18-.08-.06-.14-.1-.18-.13-.05-.06-.14-.13-.27-.22-.13-.09-.22-.15-.28-.2-.06-.06-.14-.17-.26-.34-.12-.17-.24-.34-.38-.53-.13-.19-.26-.36-.38-.52-.12-.16-.2-.26-.25-.31-.33-.38-.53-.8-.61-1.26-.08-.46-.11-.92-.1-1.37,0-.19,.05-.4,.12-.63,.07-.24,.14-.46,.23-.67,.08-.21,.16-.38,.23-.52,.07-.14,.11-.21,.13-.21,.04-.06,.09-.14,.16-.22,.07-.08,.13-.16,.21-.23,.07-.07,.15-.14,.22-.21,.07-.06,.14-.12,.2-.16,.2-.15,.39-.28,.59-.37,.2-.09,.41-.16,.62-.22,.21-.06,.43-.11,.65-.15,.22-.04,.46-.09,.7-.13,.23-.02,.52-.04,.88-.05,.36-.01,.79,.03,1.3,.13h.05c.34,.05,.68,.13,1.03,.25,.34,.12,.67,.26,1,.44,.33,.18,.63,.37,.93,.59s.57,.46,.82,.71c.03,.05,.08,.12,.16,.21,.07,.09,.15,.18,.22,.27,.07,.09,.14,.17,.2,.24,.06,.07,.1,.12,.12,.13,.03,.05,.05,.1,.05,.14,0,.04,0,.09,0,.14,0,.05-.01,.1-.01,.14s-.03,.08-.09,.1c-.06,.04-.16,.13-.28,.26s-.24,.27-.37,.41c-.12,.14-.23,.26-.33,.37-.1,.11-.16,.15-.18,.13-.03,.03-.1,.09-.19,.18-.09,.09-.19,.18-.29,.27-.1,.09-.2,.18-.3,.27s-.17,.15-.22,.19c-.07,.06-.13,.11-.17,.15-.04,.04-.11,.06-.2,.05h-.07s-.04-.02-.07-.05-.07-.05-.1-.07c-.04-.02-.07-.05-.1-.07-.03-.02-.05-.04-.06-.05-.07-.03-.2-.11-.37-.22-.17-.11-.36-.23-.55-.36-.2-.13-.38-.25-.55-.36-.17-.11-.29-.19-.35-.23-.03,0-.08-.02-.15-.04-.07-.02-.14-.03-.22-.05-.08-.02-.15-.03-.22-.05-.07-.02-.12-.03-.15-.04h-.02c-.07,.02-.13,.04-.2,.07-.07,.03-.13,.07-.2,.12-.06,.05-.11,.11-.15,.17-.04,.07-.05,.13-.03,.21,0,.07,0,.16,.01,.27,.02,.12,.05,.21,.1,.26,.2,.3,.45,.57,.77,.8s.64,.41,.98,.53c.54,.21,1.03,.44,1.46,.7,.43,.25,.85,.58,1.26,.99,.02,.02,.07,.08,.15,.16,.08,.09,.16,.18,.26,.27s.19,.19,.28,.28c.09,.09,.14,.15,.18,.18,.04,.04,.1,.1,.17,.18,.07,.08,.11,.12,.11,.13,.03,.04,.06,.1,.12,.18,.05,.08,.11,.17,.16,.27s.11,.19,.16,.27c.05,.09,.09,.15,.12,.19,.05,.07,.09,.16,.12,.28,.03,.12,.05,.26,.06,.4,.01,.15,.02,.3,.03,.45,0,.15,0,.28,0,.38,0,.02,0,.05,0,.1,0,.05,0,.1,0,.16s0,.11,0,.16c0,.05,0,.08,0,.09-.1,.77-.34,1.43-.74,2-.39,.57-.89,1.09-1.5,1.58-.2,.15-.39,.28-.59,.38-.2,.1-.42,.18-.66,.24s-.5,.11-.79,.14c-.29,.03-.62,.05-1,.06-.29,0-.59-.04-.9-.11-.3-.07-.61-.14-.91-.23s-.6-.17-.9-.26c-.3-.09-.59-.17-.87-.24Z"/><path class="cls-8" d="M309.08,100.45s-.05-.03-.09-.07c-.04-.04-.09-.08-.14-.13-.05-.04-.09-.09-.13-.13l-.07-.07s-.04-.05-.08-.12c-.04-.06-.06-.1-.08-.12-.06-.07-.17-.21-.3-.4s-.29-.4-.45-.62c-.16-.22-.31-.43-.46-.63-.15-.2-.26-.34-.33-.42l-.22-.22s-.05-.05-.07-.09c-.04-.06-.06-.09-.06-.11-.07-.08-.18-.21-.36-.4-.17-.18-.36-.37-.56-.57-.2-.2-.39-.39-.56-.57-.17-.18-.29-.32-.36-.4v.28c.03,.25,.06,.51,.07,.79,.02,.27,.03,.55,.04,.82,.01,.27,.02,.54,.03,.81,0,.27,.02,.52,.04,.77,.02,.46,.06,.92,.1,1.36,.04,.44,.08,.91,.09,1.39,.02,.24-.01,.39-.08,.45-.07,.07-.17,.1-.29,.1-.26,0-.51,0-.76,.02s-.5,0-.76-.04c-.29-.02-.55-.02-.78,0-.22,.02-.44,.05-.65,.07-.21,.02-.43,.04-.66,.04-.23,0-.49-.03-.79-.09-.04-.02-.08-.04-.12-.06-.04-.02-.06-.06-.06-.1v-.05s0-.03,0-.08c0-.04-.02-.09-.03-.14-.01-.05-.02-.09-.03-.13,0-.04,0-.06,0-.07l-.09-5.55-.06-2.1v-4.11c-.01-.06-.02-.22-.02-.46,0-.24-.02-.52-.02-.84,0-.32-.02-.67-.03-1.04-.01-.37-.02-.72-.03-1.04,0-.32-.02-.6-.03-.84-.01-.24-.02-.39-.02-.46,0-.49,0-.97-.03-1.46-.02-.48-.02-.96-.02-1.43v-.21c0-.21,.03-.36,.08-.46,.05-.09,.17-.15,.33-.18h.28c.35,0,.7,0,1.06,0,.36,0,.71,0,1.06,0,.18,0,.36,0,.54-.01,.18,0,.36-.01,.54-.01s.34,.01,.49,.04,.29,.09,.43,.18c.02,.07,.04,.11,.07,.12,.03,.02,.05,.05,.05,.1v.07s0,.09,0,.11-.02,.06-.04,.11v.79s0,.1,0,.18c0,.08,0,.15,0,.23s0,.14,0,.2c0,.06,0,.09,0,.1,0,.02,0,.05,0,.1,0,.05,.01,.1,.02,.15,0,.05,.01,.1,.02,.15,0,.04,0,.07,0,.08,0,.04,.01,.14,.01,.31v.52c0,.18,0,.35,0,.51,0,.16,0,.25,0,.29,0,.06,.02,.15,.02,.29s.02,.27,.02,.42c0,.15,.01,.29,.02,.42s0,.23,0,.27c0,.02,0,.08-.02,.19s-.03,.23-.05,.37-.04,.26-.06,.37c-.02,.11-.02,.18-.02,.18v.15c.03,.57,.06,1.1,.1,1.58,.03,.48,.07,.95,.12,1.39,.02-.02,.07-.09,.15-.18,.08-.1,.19-.21,.3-.34,.12-.13,.24-.27,.38-.42,.13-.15,.26-.29,.38-.42,.12-.13,.22-.24,.3-.34,.08-.1,.13-.16,.16-.18s.1-.09,.21-.21c.12-.11,.24-.24,.37-.37,.13-.13,.25-.25,.37-.37,.11-.12,.18-.19,.21-.23,.05-.05,.12-.13,.22-.24s.2-.23,.31-.36c.11-.13,.22-.25,.33-.37,.11-.12,.2-.21,.26-.29,0,0,.04-.03,.09-.08,.05-.04,.1-.1,.16-.15,.06-.06,.11-.11,.15-.15,.04-.04,.07-.07,.08-.08,.03-.02,.09-.07,.17-.16,.08-.09,.17-.19,.26-.29,.09-.1,.17-.2,.25-.29,.08-.09,.13-.14,.15-.16,.04-.02,.09-.02,.16,.01,.07,.03,.11,.04,.12,.02h.12l3.53,.78s.09,.07,.17,.08c.08,.01,.17,.02,.25,.04,.09,.01,.16,.03,.22,.05,.06,.02,.09,.06,.09,.12v.07c-.19,.33-.36,.61-.53,.85s-.39,.48-.68,.72c-.19,.17-.36,.35-.53,.53-.16,.18-.33,.36-.51,.53l-3.54,3.42s0-.01-.03,.02c-.03,.03-.07,.07-.12,.11-.05,.04-.1,.1-.16,.15-.06,.06-.1,.11-.13,.15-.06,.07-.09,.09-.11,.07-.02-.02-.03,0-.03,.07,0,.07,.05,.16,.15,.26,.1,.1,.18,.18,.24,.24,.03,.03,.08,.11,.17,.24,.09,.13,.19,.27,.31,.43,.12,.16,.24,.31,.37,.46,.13,.15,.25,.26,.35,.34,.09,.13,.19,.24,.29,.34,.11,.09,.21,.18,.32,.26,.11,.08,.21,.17,.32,.26,.11,.09,.21,.2,.31,.32,.02,.02,.07,.09,.16,.19,.09,.1,.18,.21,.29,.34,.1,.12,.2,.24,.28,.34,.08,.11,.14,.17,.17,.2,.02,.02,.06,.08,.13,.17,.07,.09,.15,.19,.24,.29,.08,.1,.17,.2,.24,.29,.07,.09,.12,.15,.15,.17,0,.02,.03,.05,.07,.1,.04,.05,.08,.11,.13,.18,.05,.07,.09,.12,.13,.18,.04,.05,.07,.09,.09,.1,.15,.18,.31,.35,.47,.5,.16,.15,.32,.31,.47,.46,.15,.15,.31,.31,.46,.48,.15,.16,.3,.34,.45,.54v.1c.06,.15,.04,.27-.07,.37-.11,.1-.23,.15-.37,.15-.07,0-.16,.02-.29,.04-.13,.02-.26,.03-.4,.05-.14,.02-.28,.03-.41,.04s-.22,.02-.28,.02c-.04,0-.12,0-.23,.02-.11,.02-.18,.03-.2,.05l-.9,.15c-.13,.02-.23,.05-.31,.07-.08,.02-.15,.04-.21,.05-.06,.01-.13,.03-.2,.05-.07,.02-.17,.04-.29,.07-.14,.1-.26,.12-.37,.07s-.2-.13-.29-.23c-.02-.02-.03-.04-.05-.06-.02-.02-.03-.03-.04-.04,0-.01-.02-.02-.04-.02l-1.2-1.49Z"/><path class="cls-8" d="M335.65,102.12c-.1-.06-.14-.14-.13-.24,.01-.11,.01-.21,0-.31,0-.02-.01-.04-.04-.07-.02-.03-.04-.06-.04-.07v-.11c0-.11,.02-.22,.07-.31,.05-.09,.07-.19,.07-.29v-.07s-.06,0-.12,.02c-.05,.02-.09,.03-.1,.05-.06,.04-.15,.1-.28,.18-.12,.08-.26,.17-.41,.26-.15,.09-.29,.17-.43,.24s-.24,.11-.32,.12l-.95,.39h-.07s-.04,0-.09,.01c-.04,0-.08,.02-.13,.03-.04,.01-.09,.02-.13,.03-.04,0-.07,.01-.08,.01h-1.16c-.12,0-.24,0-.35-.01-.11,0-.22-.02-.34-.02-.12,0-.25-.02-.4-.05-.02,0-.06-.02-.13-.04-.07-.02-.14-.03-.22-.05-.08-.02-.15-.03-.22-.04-.07-.01-.11-.02-.13-.02h-.63l-.4-.16c-.06-.02-.14-.07-.26-.13-.12-.06-.24-.13-.38-.21-.13-.07-.26-.14-.38-.21-.12-.06-.21-.11-.27-.13-.05-.02-.12-.06-.22-.1-.1-.04-.2-.09-.3-.15-.1-.05-.2-.1-.29-.14-.09-.04-.15-.07-.17-.09,0,0-.03-.03-.06-.05-.03-.03-.07-.06-.12-.1-.04-.04-.09-.08-.13-.12-.04-.04-.08-.06-.1-.08-.2-.2-.4-.43-.59-.67-.19-.24-.37-.48-.56-.7-.17-.2-.31-.47-.43-.81-.11-.33-.21-.69-.28-1.06-.07-.37-.13-.73-.16-1.09-.03-.36-.05-.67-.05-.93,0-.33,0-.64,0-.93,0-.28,.02-.56,.05-.84,.03-.27,.07-.55,.13-.82,.06-.28,.14-.57,.24-.89,0-.05,.04-.15,.09-.31s.11-.32,.16-.48,.11-.29,.15-.38,.06-.1,.05-.01c.13-.37,.3-.72,.51-1.04,.21-.32,.45-.62,.72-.9,.27-.28,.56-.53,.87-.77,.31-.24,.64-.46,.97-.66,.03-.02,.11-.07,.23-.13,.12-.06,.24-.12,.38-.19,.13-.06,.26-.13,.39-.19,.12-.06,.21-.1,.26-.12,0,0,.04-.02,.08-.03,.04-.01,.1-.03,.16-.04,.06-.02,.12-.03,.18-.04l.15-.03s.11-.03,.2-.05c.08-.02,.13-.02,.15-.02h2.4c.29,.08,.56,.16,.83,.23,.27,.07,.53,.15,.78,.26,.25,.1,.49,.22,.72,.37,.23,.14,.46,.33,.68,.56h.05s0-.06,0-.1c0-.04,0-.09,0-.14s0-.1,0-.14c0-.04,0-.08,0-.09,0,0,0-.04,.01-.09s.02-.1,.03-.16c.01-.06,.02-.11,.04-.15,.01-.04,.02-.07,.02-.08-.04-.06-.04-.12-.01-.18,.03-.06,.08-.11,.14-.15,.06-.04,.13-.07,.2-.08,.07-.01,.13,0,.18,.03,.41,0,.76,0,1.07,0,.31,0,.61,.01,.9,.02s.6,.03,.91,.07c.31,.03,.67,.07,1.08,.12,.02,.02,.06,.04,.12,.07,.06,.03,.09,.06,.09,.1,0,.07,0,.16,.01,.27,0,.11,.02,.22,.03,.34,0,.12,.02,.23,.02,.34s0,.21,0,.29c0,.02,0,.07-.01,.15,0,.08-.02,.17-.02,.27,0,.1-.02,.19-.02,.27,0,.08-.01,.13-.01,.15,0,.02-.01,.08-.04,.18-.02,.09-.04,.15-.04,.16,0,.02,0,.08,0,.15,0,.08,0,.16,0,.24v.24c0,.08,0,.12-.01,.14,0,.02,0,.06-.02,.11-.02,.05-.03,.09-.05,.11l-.03,2.88v.73c0,.31,0,.69,0,1.15,0,.46,.01,.97,.02,1.53,0,.56,.02,1.12,.02,1.68,0,.56,.02,1.08,.03,1.58,0,.5,.02,.91,.04,1.25,0,.02,0,.09-.02,.19-.01,.1-.02,.21-.04,.34-.01,.12-.02,.23-.04,.34-.01,.1-.02,.16,0,.19v.2s-.07,.05-.17,.09c-.09,.03-.15,.06-.16,.07-.22,0-.41,0-.57,.02-.16,.02-.31,.03-.45,.05-.14,.02-.29,.04-.44,.05s-.34,.02-.56,.01h-.57c-.06,0-.15,0-.29,0-.13,0-.28-.01-.43-.02-.15,0-.29-.02-.43-.02-.13,0-.23-.02-.29-.02Zm-7.21-8.03c0,.43,.07,.83,.21,1.2s.33,.73,.56,1.09c.02,.02,.04,.06,.07,.12,.03,.05,.06,.08,.07,.08,.2,.21,.4,.42,.6,.61s.43,.37,.66,.52c.23,.15,.48,.27,.74,.36,.26,.09,.54,.13,.85,.13,.26,0,.53-.04,.79-.13,.27-.09,.52-.18,.76-.28,.03-.02,.08-.04,.14-.07,.06-.03,.12-.06,.18-.09,.06-.03,.12-.05,.16-.08,.04-.02,.07-.04,.09-.05,.3-.23,.55-.5,.75-.81,.2-.31,.35-.65,.47-1,.12-.35,.2-.72,.24-1.1,.04-.38,.08-.74,.09-1.09,0-.04,0-.11,0-.21s0-.2-.02-.31c0-.11-.02-.21-.03-.3,0-.09-.02-.16-.02-.19l-.11-.22c-.03-.06-.07-.13-.1-.18-.03-.06-.06-.11-.07-.15-.16-.31-.33-.61-.49-.9-.17-.29-.39-.52-.67-.69-.06-.05-.14-.1-.22-.16-.08-.06-.17-.12-.26-.18-.09-.06-.18-.12-.27-.17-.09-.05-.17-.09-.24-.1-.03,0-.09-.02-.18-.05s-.18-.05-.27-.07-.19-.04-.27-.06c-.09-.02-.14-.03-.18-.04-.05-.07-.12-.12-.22-.13s-.21-.01-.32,0c-.12,.01-.23,.03-.35,.05-.11,.02-.21,.04-.28,.04-.12,0-.25,.02-.39,.07-.14,.04-.27,.1-.4,.18-.13,.07-.25,.15-.37,.24-.12,.09-.22,.18-.31,.28-.02,.02-.05,.06-.1,.12-.05,.07-.11,.13-.17,.2-.06,.07-.12,.14-.18,.2-.06,.07-.09,.11-.1,.12-.31,.34-.53,.74-.65,1.21-.07,.33-.12,.65-.15,.98-.03,.33-.04,.67-.04,1.01Z"/><path class="cls-8" d="M213.56,116.04c.11,.03,.22,.08,.35,.13,.13,.06,.25,.12,.38,.19,.13,.07,.25,.14,.37,.2,.12,.07,.22,.13,.32,.18,0,0,.03,.03,.07,.05,.04,.03,.08,.06,.13,.1s.1,.08,.15,.12c.05,.04,.09,.07,.11,.1,.08,.06,.14,.11,.18,.16s.08,.1,.12,.15c.04,.05,.08,.09,.13,.13,.05,.04,.14,.08,.25,.11,0-.02,0-.04,.02-.08s.02-.06,.02-.08c0,0,.01-.03,.02-.08,0-.04,0-.09,.01-.15,0-.05,0-.1,.01-.15,0-.04,0-.08,0-.1,0-.03,.01-.09,.02-.16,0-.08,0-.16,.01-.26,0-.09,0-.18,0-.26v-.16l.13-.16,2.73-.13c.07,.04,.15,.06,.22,.06s.15,0,.23-.01l.79,.07c.11-.02,.22-.03,.31-.03,.09,0,.17,0,.26,0,.08,0,.16,.02,.24,.05l.28,.09s.06,.03,.1,.05c.04,.03,.08,.05,.1,.07,.04,.02,.08,.05,.13,.12s.08,.11,.08,.15c.07,.26,.1,.51,.12,.74,.01,.24,.03,.48,.04,.74,0,.05,0,.11,0,.18,0,.07,0,.14,0,.21s0,.13,0,.18c0,.05,0,.08,0,.09l-.2,5.74v.07c-.02,.53-.05,1.07-.09,1.63-.03,.56-.06,1.1-.07,1.63,0,.06,0,.19,0,.4,0,.21,0,.44,0,.68s0,.47,0,.68c0,.21,0,.35,0,.4,0,.22,0,.47-.01,.76,0,.29-.01,.59-.01,.89v.9c0,.3,0,.56,.03,.79,0,.02,0,.07,0,.13s0,.13,.01,.2c0,.07,0,.13,.01,.19,0,.06,0,.09,0,.11v1.61c0,.33,0,.64,0,.93,0,.29-.01,.5-.03,.63-.03,.08-.06,.13-.11,.15-.05,.02-.11,.02-.17,.02-.1,0-.18,0-.23-.04s-.14-.05-.24-.04c-.21,.02-.42,.05-.62,.09-.2,.04-.41,.08-.61,.1-.3,.04-.59,.07-.85,.1s-.54,.04-.82,.06c-.03,0-.07,0-.1,0-.03,0-.07,0-.1,0h-.11s-.08,0-.18-.02-.16-.03-.17-.04c-.02,0-.05,0-.1,0-.05,0-.1,0-.15,0s-.11,0-.16,0c-.05,0-.08,0-.09,0-.07-.02-.13-.1-.18-.24-.04-.13-.08-.28-.1-.44-.02-.16-.04-.31-.05-.45,0-.14-.01-.23-.01-.27,0-.02,0-.03,0-.05,0-.02,0-.04,0-.07v-.09l.2-3.1,.37-2.31c-.15,.12-.31,.27-.48,.45-.17,.18-.35,.36-.55,.53-.2,.18-.42,.33-.67,.48-.25,.14-.53,.24-.85,.3-.36,.11-.7,.2-1.02,.25-.32,.05-.68,.09-1.07,.1-.64,0-1.28-.1-1.92-.32s-1.29-.51-1.96-.86c-.07-.06-.17-.15-.31-.27-.14-.12-.29-.25-.45-.38l-.45-.37c-.14-.11-.23-.19-.28-.23-.19-.19-.36-.37-.52-.54-.16-.17-.31-.35-.44-.54-.13-.18-.26-.38-.37-.58-.11-.2-.22-.42-.33-.66-.06-.15-.13-.32-.18-.51-.06-.19-.11-.39-.15-.59-.04-.2-.08-.41-.11-.61-.03-.2-.05-.39-.05-.56-.02-.2-.02-.37-.01-.52,0-.15,.02-.3,.04-.45s.03-.3,.06-.45c.02-.15,.04-.33,.07-.52,.18-1.23,.53-2.37,1.06-3.43,.52-1.06,1.28-1.98,2.25-2.77,.23-.2,.45-.36,.68-.51,.22-.14,.45-.27,.68-.37,.23-.11,.47-.2,.73-.27,.26-.08,.53-.14,.84-.19,.02,0,.05,0,.1,0,.05,0,.09,0,.12,0,.04,0,.09-.01,.16-.01h.12c.06,0,.18,0,.35,0,.17,0,.35,0,.54,.01,.19,0,.36,.01,.53,.02,.16,0,.28,.02,.34,.02Zm2.97,7.36s-.01-.08-.04-.18c-.02-.09-.04-.15-.06-.16-.07-.28-.16-.52-.27-.74-.11-.22-.23-.41-.38-.59-.15-.18-.31-.35-.5-.5-.19-.15-.4-.31-.63-.46-.19-.11-.38-.22-.59-.33-.2-.11-.42-.17-.65-.18-.02,0-.08,0-.19-.02-.11-.02-.21-.02-.29-.01,0-.02-.03-.02-.1,0-.07,.02-.15,.04-.24,.07-.09,.03-.19,.06-.28,.09-.09,.03-.16,.05-.21,.06-.16,.09-.31,.18-.45,.27-.13,.09-.26,.19-.38,.29-.12,.1-.23,.21-.34,.34s-.21,.26-.32,.42c-.03,.04-.08,.11-.14,.2-.06,.09-.12,.19-.18,.3-.06,.11-.12,.21-.16,.31s-.08,.16-.09,.2c-.02,.04-.04,.11-.07,.21-.03,.1-.07,.21-.1,.33-.03,.12-.06,.23-.09,.33-.03,.1-.04,.17-.04,.2,0,0-.01,.05-.01,.14v.31c0,.12,0,.24,0,.37,0,.13,0,.23,0,.31v.04s0,.03,0,.04c0,0,0,.02,0,.02v.1s.02,.11,.03,.18,.02,.15,.03,.22c0,.07,.02,.14,.02,.2s.02,.1,.03,.1c0,.02,0,.04,.03,.07,.02,.03,.04,.05,.06,.07,0,0,.03,.02,.06,.05,.03,.02,.06,.05,.09,.08,.03,.03,.06,.06,.09,.09,.03,.03,.05,.05,.06,.05,0,.02,0,.06,0,.14,0,.08,0,.13,0,.15l.02,.05s.04,.07,.06,.07c.02,.02,.08,.08,.17,.17,.09,.09,.15,.14,.19,.16-.03,.09,0,.16,.07,.22,.08,.06,.15,.08,.22,.07,.3,.2,.57,.36,.81,.49,.24,.13,.49,.23,.74,.29,.25,.06,.54,.08,.85,.07,.31-.02,.69-.08,1.14-.2,.38-.16,.71-.42,.97-.76,.26-.35,.48-.73,.64-1.16,.16-.43,.28-.87,.34-1.32,.07-.46,.09-.87,.07-1.23v-.05Z"/><path class="cls-8" d="M223.73,126.45c-.02-.08-.04-.21-.08-.38-.04-.17-.08-.35-.13-.54-.04-.19-.09-.37-.12-.54-.04-.17-.06-.29-.07-.38,0-.03-.01-.1-.02-.21,0-.11-.01-.23-.02-.35,0-.13-.01-.24-.02-.35s-.01-.18-.02-.2c0-.04,0-.09,0-.16,0-.06,0-.13-.02-.2,0-.06-.02-.13-.02-.18,0-.06-.02-.1-.02-.12l-.05-.12s-.01-.06-.01-.13v-.23c0-.08,0-.15,0-.22,0-.06,0-.11,0-.12-.02-.2-.03-.44-.03-.7,0-.26,0-.52-.01-.79,0-.26,0-.52,0-.78v-.68c0-.28,0-.54,0-.78s0-.45,.02-.66c0-.21,.02-.41,.04-.6,.02-.19,.04-.39,.07-.59,.02-.09,.1-.16,.26-.23s.31-.09,.46-.09h.57c.08,0,.19,0,.31,.02,.12,.02,.25,.03,.38,.05,.13,.02,.24,.04,.34,.05,.1,.02,.15,.03,.17,.04,.02,0,.07,0,.17,.01,.1,0,.2,.02,.31,.03,.11,.01,.21,.02,.31,.04s.16,.02,.18,.03c.02,0,.08,.01,.18,.02,.09,0,.2,0,.31,0s.21,0,.31,0c.1,0,.16,.01,.2,.02,.05,.04,.08,.08,.1,.11,.02,.03,.03,.06,.04,.09,0,.03,0,.07,0,.11,0,.04,0,.1,0,.16v.5c-.04,.31-.07,.6-.07,.89s-.01,.58-.01,.91c0,.52,0,1.04,.03,1.54,.02,.51,.02,1.06,0,1.67l.07,.66v.2c.04,.2,.07,.41,.09,.62,.02,.21,.04,.43,.05,.64,.02,.22,.05,.43,.08,.65,.03,.22,.08,.43,.16,.64,.02,.04,.04,.1,.07,.16,.03,.07,.06,.14,.09,.21,.03,.07,.06,.14,.09,.2s.04,.1,.05,.1c.06,.15,.15,.29,.28,.4,.13,.11,.27,.21,.41,.29,.14,.08,.28,.14,.4,.19,.13,.04,.21,.07,.25,.08,.02,0,.07,.03,.17,.07s.17,.06,.21,.08c.03,.02,.08,.02,.17,0,.08-.01,.13-.02,.15-.02,.15,0,.34-.03,.58-.08,.24-.05,.49-.16,.75-.34,.3-.33,.52-.66,.67-.99,.14-.33,.24-.68,.29-1.03,.05-.35,.07-.71,.07-1.09s-.01-.78-.01-1.2v-.4s0-.15,0-.32c0-.17-.01-.36-.02-.56,0-.2-.01-.38-.02-.56s0-.28,0-.32v-1.21s-.02-.12-.03-.24-.03-.27-.05-.43c-.02-.17-.05-.34-.07-.53-.02-.19-.05-.36-.07-.52-.02-.16-.04-.3-.06-.42-.02-.12-.03-.2-.03-.24l.12-1.05c.03-.06,.08-.1,.15-.12,.07-.02,.14-.03,.23-.04,.08,0,.16,0,.24,0,.08,0,.14,0,.2,0,0,0,.03,0,.08-.01,.04,0,.09-.02,.14-.02,.05,0,.09-.02,.13-.02,.04,0,.06-.01,.07-.01l1.49,.11s.08,.03,.18,.03c.1,0,.2,0,.31,0h.31c.1,0,.15,0,.17,.01,.05,0,.12-.02,.22-.02,.1,0,.21-.01,.32-.02,.11,0,.21,0,.3-.01,.09,0,.16,0,.19,0l.15,.05c.1,0,.17,.04,.23,.12,.05,.08,.09,.18,.12,.31,.03,.13,.05,.27,.05,.45s.01,.35,.01,.55v.23c0,.16,0,.33-.02,.49-.02,.16-.03,.33-.05,.49,0,.05-.01,.16-.01,.34s0,.36,0,.56,0,.38,0,.56,0,.29-.01,.34c0,.03-.01,.12-.03,.25-.02,.13-.04,.28-.07,.43-.03,.15-.05,.3-.07,.43-.02,.13-.03,.22-.04,.25,0,.04,0,.14-.02,.29-.01,.15-.03,.33-.04,.52-.02,.19-.03,.38-.05,.56-.02,.18-.04,.32-.04,.42,0,.02,0,.06-.02,.14-.01,.08-.03,.16-.04,.24-.02,.09-.03,.17-.05,.24-.02,.08-.03,.12-.04,.14v.3c0,.07,0,.13,0,.2s0,.1-.02,.1c0,0,0,.03-.02,.07-.01,.04-.03,.09-.04,.13s-.03,.1-.04,.14c-.01,.04-.02,.07-.02,.08-.07,.31-.13,.6-.18,.86-.04,.26-.09,.52-.13,.77-.04,.25-.1,.5-.16,.76-.06,.26-.15,.54-.25,.84-.06,.17-.16,.37-.29,.59-.14,.22-.29,.44-.45,.65-.16,.22-.31,.42-.46,.6s-.27,.32-.36,.4c-.11,.15-.25,.29-.44,.4-.19,.11-.39,.21-.61,.29s-.44,.16-.66,.23c-.22,.07-.41,.13-.56,.19-.26,.11-.53,.17-.8,.19-.27,.02-.55,.03-.82,.03-.24,0-.49,0-.74,0-.25,0-.5,0-.75-.01s-.5-.04-.75-.09-.49-.12-.71-.22c-.48-.21-.93-.46-1.35-.74-.42-.28-.84-.59-1.25-.93-.05-.04-.11-.1-.19-.19-.08-.09-.16-.17-.24-.26-.09-.09-.17-.17-.26-.25-.09-.08-.16-.13-.21-.15,.03,.02,.02-.04-.04-.18-.06-.15-.14-.35-.26-.61-.04-.09-.09-.22-.15-.4-.06-.18-.11-.37-.17-.58s-.1-.41-.15-.61c-.04-.2-.08-.36-.09-.48Z"/><path class="cls-8" d="M239.16,123.79c.05-.3,.11-.6,.18-.89,.07-.29,.15-.58,.24-.87,.06-.21,.12-.4,.17-.56,.04-.16,.1-.35,.17-.55,0-.02,0-.06,.03-.13s.04-.15,.07-.24c.03-.09,.05-.16,.08-.23,.02-.07,.04-.11,.05-.13,.09-.28,.22-.54,.39-.77,.17-.23,.35-.46,.54-.68,0,0,.03-.04,.08-.09,.04-.05,.1-.11,.15-.17s.11-.12,.16-.18c.05-.06,.08-.1,.11-.12,0,0,.02-.03,.05-.06,.02-.03,.05-.07,.08-.12,.03-.04,.05-.08,.08-.12,.02-.03,.04-.05,.06-.06,.34-.29,.72-.56,1.13-.79,.41-.24,.84-.44,1.28-.61,.44-.17,.9-.3,1.36-.4,.46-.09,.91-.14,1.36-.15,.5-.04,1.03-.03,1.58,.02,.54,.06,1.05,.19,1.53,.4,.4,.12,.74,.26,1.03,.42,.29,.15,.53,.31,.73,.45s.36,.28,.49,.4c.13,.12,.24,.2,.34,.25,.25,.22,.48,.44,.68,.65,.2,.21,.39,.43,.56,.66,.17,.23,.32,.47,.47,.73s.29,.54,.43,.86c.02,.07,.06,.21,.1,.4,.04,.19,.09,.39,.14,.6,.05,.21,.09,.41,.13,.6,.04,.19,.07,.32,.07,.4,0,.02,.01,.05,.02,.11,0,.06,0,.13,0,.21v.43s0,.12,0,.2c0,.09,0,.17,0,.26v.23c0,.07,0,.1-.01,.11,0,.02-.01,.08-.04,.15-.02,.08-.05,.16-.07,.24-.03,.09-.05,.17-.07,.24-.02,.08-.03,.12-.03,.14-.16,.16-.33,.27-.5,.34s-.36,.1-.59,.12c-.22,.02-.49,.03-.81,.03-.31,0-.69,.03-1.14,.08h-.63c-.15,0-.28,0-.4,0-.12,0-.2,0-.23,0h-.12s-.05,.03-.1,.04c-.05,0-.11,.01-.16,0-.06,0-.11-.01-.15-.03-.04-.02-.07-.04-.08-.07,0,0-.04,0-.11,0-.07,0-.14,0-.21,0h-.23c-.08,0-.13,0-.15-.01,0,0-.02,.01-.04,.01h-.06c-.2,0-.42,.02-.67,.02-.25,0-.51,.02-.78,.02-.26,0-.52,.01-.78,.02-.25,0-.48,0-.67,0-.29,.02-.55,.02-.79,0-.23-.01-.46-.02-.67-.04s-.44-.02-.67-.03c-.23,0-.49,0-.79,0-.04,0-.08,0-.12,0-.04,0-.07,.03-.09,.07,0,.04,.01,.1,.03,.18,.02,.08,.03,.13,.03,.16,.07,.29,.12,.5,.15,.63,.03,.13,.06,.22,.08,.27,.03,.05,.06,.1,.09,.13,.04,.04,.1,.11,.18,.23,0,0,.01,.03,.04,.05,.03,.03,.06,.06,.1,.09,.04,.03,.07,.06,.1,.09,.03,.03,.04,.05,.04,.05,.27,.43,.62,.74,1.06,.93,.44,.19,.89,.28,1.36,.26,.06,0,.15,0,.27,0,.11,0,.18,0,.2,0,.16-.02,.28-.02,.35-.02,.07,0,.13,.01,.18,.02,.05,0,.1,.01,.15,.02,.05,0,.14,0,.26-.02,.12-.02,.28-.05,.49-.09,.21-.04,.49-.11,.86-.2,0,0,.05-.02,.13-.06,.08-.04,.17-.09,.26-.13,.09-.05,.18-.1,.27-.14,.09-.04,.14-.07,.15-.08,.21-.13,.4-.26,.57-.38,.17-.13,.33-.24,.47-.35,.14-.11,.28-.2,.4-.28,.13-.08,.25-.15,.37-.2h.07s.04,0,.07,.02c.03,.02,.05,.04,.05,.05,.07,.07,.18,.15,.33,.25,.15,.1,.29,.21,.45,.31,.15,.11,.29,.21,.43,.31,.14,.1,.24,.19,.31,.26,.02,.02,.08,.06,.17,.12,.09,.07,.18,.14,.28,.21,.1,.08,.18,.15,.26,.22,.07,.07,.11,.11,.11,.12v.05s0,.03,0,.04c0,0,0,.02,0,.04,0,.2-.05,.38-.18,.54-.13,.15-.26,.31-.4,.45-.38,.42-.79,.82-1.21,1.21-.43,.39-.89,.72-1.4,.98-.16,.07-.33,.13-.49,.16-.16,.04-.33,.08-.49,.14-.21,.06-.41,.11-.61,.14-.2,.03-.39,.05-.57,.05-.19,0-.38,.01-.58,0-.2,0-.41,0-.64,0-.59,.02-1.14,0-1.67-.06-.53-.06-1.07-.17-1.64-.33-.21-.06-.41-.14-.59-.21-.18-.08-.35-.16-.51-.26-.16-.09-.32-.2-.47-.32-.15-.12-.31-.25-.48-.38-.29-.24-.57-.48-.87-.71-.29-.23-.57-.5-.83-.81-.02,0-.05-.06-.1-.15-.05-.09-.08-.15-.09-.17-.02-.02-.05-.05-.1-.12s-.1-.13-.15-.2c-.05-.07-.11-.13-.16-.2-.05-.06-.08-.1-.09-.12-.02-.02-.05-.09-.1-.19-.05-.1-.11-.22-.18-.35s-.13-.27-.2-.4c-.06-.13-.11-.24-.14-.32-.02-.02-.03-.05-.05-.1-.02-.05-.03-.08-.03-.1-.1-.54-.18-1.06-.25-1.57-.07-.51-.1-1.05-.09-1.6v-.06Zm8.69-3.91c-.41,0-.8,.06-1.16,.15-.36,.09-.71,.26-1.05,.49-.11,.07-.24,.17-.38,.28-.14,.11-.28,.24-.42,.37-.13,.13-.25,.28-.33,.43-.09,.15-.13,.3-.13,.45,.21-.02,.41-.04,.59-.07,.18-.03,.37-.05,.57-.06h.05s.07,.01,.15,.02c.08,0,.18,0,.28,.01,.1,0,.2,0,.29,.01,.09,0,.15,0,.17,0h1.17c.07,0,.17,0,.3-.01l.4-.02c.13,0,.25-.01,.36-.02,.11,0,.17,0,.18,0,.08,0,.23,0,.45,0,.22,0,.45,0,.69-.01,.24,0,.47-.01,.69-.02,.21,0,.36-.02,.45-.02,.02,0,.03,0,.05-.02l.02-.02s0-.04-.02-.07c-.02-.03-.03-.06-.05-.07-.02-.03-.04-.08-.07-.13-.03-.05-.06-.11-.09-.16-.03-.05-.06-.1-.09-.13s-.04-.06-.05-.07c-.36-.45-.81-.78-1.36-.99-.55-.21-1.1-.31-1.65-.29Z"/><path class="cls-8" d="M258.88,131.59c-.28-.15-.54-.28-.78-.42-.24-.13-.48-.29-.73-.48-.11-.11-.24-.21-.37-.31-.13-.1-.25-.2-.36-.31-.11-.1-.2-.21-.27-.32-.07-.11-.12-.24-.12-.37,0-.04,0-.1,0-.16,0-.07,0-.11,0-.13,.02-.05,.05-.09,.08-.13,.02-.04,.04-.07,.05-.1,.02-.02,.04-.04,.04-.05,.02-.02,.05-.05,.11-.12,.06-.06,.12-.12,.18-.19,.07-.06,.13-.13,.19-.19s.1-.1,.13-.13c.02-.02,.05-.06,.1-.14,.05-.08,.09-.13,.1-.15,.05-.05,.11-.11,.19-.18,.08-.07,.15-.15,.23-.22s.14-.14,.2-.2c.06-.06,.1-.1,.13-.13,.03-.02,.1-.06,.19-.11s.16-.08,.19-.09h.16c.07,0,.13,.03,.18,.09,.06,.06,.11,.12,.16,.19,.05,.07,.11,.14,.18,.21,.06,.07,.13,.12,.21,.15,.17,.1,.35,.21,.54,.34,.19,.13,.4,.25,.63,.37,.23,.12,.48,.22,.76,.31,.27,.09,.57,.14,.9,.15,.06,.05,.15,.06,.28,.03,.13-.03,.25-.08,.38-.15,.13-.07,.24-.16,.34-.26s.15-.2,.16-.29c0-.06,0-.13-.01-.23,0-.1-.02-.2-.04-.3-.02-.1-.04-.2-.07-.28s-.05-.15-.08-.2c-.29-.4-.59-.74-.9-1.02-.31-.28-.68-.54-1.11-.78-.02,0-.09-.04-.19-.11-.1-.06-.21-.13-.34-.21-.12-.07-.23-.14-.34-.2s-.16-.1-.18-.12c-.02-.02-.06-.05-.13-.1s-.15-.1-.24-.16c-.09-.06-.17-.12-.26-.18-.08-.06-.14-.1-.18-.13-.05-.06-.14-.13-.27-.22-.13-.09-.22-.15-.28-.2-.06-.06-.14-.17-.26-.34-.12-.17-.24-.34-.38-.53-.13-.19-.26-.36-.38-.52-.12-.16-.2-.26-.25-.31-.33-.38-.53-.8-.61-1.26-.08-.46-.11-.92-.1-1.37,0-.19,.05-.4,.12-.63,.07-.24,.14-.46,.23-.67,.08-.21,.16-.38,.23-.52,.07-.14,.11-.21,.13-.21,.04-.06,.09-.14,.16-.22,.07-.08,.13-.16,.21-.23,.07-.07,.15-.14,.22-.21,.07-.06,.14-.12,.2-.16,.2-.15,.39-.28,.59-.37,.2-.09,.41-.16,.62-.22,.21-.06,.43-.11,.65-.15,.22-.04,.46-.09,.7-.13,.23-.02,.52-.04,.88-.05,.36-.01,.79,.03,1.3,.13h.05c.34,.05,.68,.13,1.03,.25,.34,.12,.67,.26,1,.44,.33,.18,.63,.37,.93,.59s.57,.46,.82,.71c.03,.05,.08,.12,.16,.21,.07,.09,.15,.18,.22,.27,.07,.09,.14,.17,.2,.24,.06,.07,.1,.12,.12,.13,.03,.05,.05,.1,.05,.14,0,.04,0,.09,0,.14,0,.05-.01,.1-.01,.14s-.03,.08-.09,.1c-.06,.04-.16,.13-.28,.26s-.24,.27-.37,.41c-.12,.14-.23,.26-.33,.37-.1,.11-.16,.15-.18,.13-.03,.03-.1,.09-.19,.18-.09,.09-.19,.18-.29,.27-.1,.09-.2,.18-.3,.27s-.17,.15-.22,.19c-.07,.06-.13,.11-.17,.15-.04,.04-.11,.06-.2,.05h-.07s-.04-.02-.07-.05-.07-.05-.1-.07c-.04-.02-.07-.05-.1-.07-.03-.02-.05-.04-.06-.05-.07-.03-.2-.11-.37-.22-.17-.11-.36-.23-.55-.36-.2-.13-.38-.25-.55-.36-.17-.11-.29-.19-.35-.23-.03,0-.08-.02-.15-.04-.07-.02-.14-.03-.22-.05-.08-.02-.15-.03-.22-.05-.07-.02-.12-.03-.15-.04h-.02c-.07,.02-.13,.04-.2,.07-.07,.03-.13,.07-.2,.12-.06,.05-.11,.11-.15,.17-.04,.07-.05,.13-.03,.21,0,.07,0,.16,.01,.27,.02,.12,.05,.21,.1,.26,.2,.3,.45,.57,.77,.8s.64,.41,.98,.53c.54,.21,1.03,.44,1.46,.7,.43,.25,.85,.58,1.26,.99,.02,.02,.07,.08,.15,.16,.08,.09,.16,.18,.26,.27s.19,.19,.28,.28c.09,.09,.14,.15,.18,.18,.04,.04,.1,.1,.17,.18,.07,.08,.11,.12,.11,.13,.03,.04,.06,.1,.12,.18,.05,.08,.11,.17,.16,.27s.11,.19,.16,.27c.05,.09,.09,.15,.12,.19,.05,.07,.09,.16,.12,.28,.03,.12,.05,.26,.06,.4,.01,.15,.02,.3,.03,.45,0,.15,0,.28,0,.38,0,.02,0,.05,0,.1,0,.05,0,.1,0,.16s0,.11,0,.16c0,.05,0,.08,0,.09-.1,.77-.34,1.43-.74,2-.39,.57-.89,1.09-1.5,1.58-.2,.15-.39,.28-.59,.38-.2,.1-.42,.18-.66,.24s-.5,.11-.79,.14c-.29,.03-.62,.05-1,.06-.29,0-.59-.04-.9-.11-.3-.07-.61-.14-.91-.23s-.6-.17-.9-.26c-.3-.09-.59-.17-.87-.24Z"/><path class="cls-8" d="M271.13,131.7s.03-.05,.05-.1c.02-.05,.02-.08,.02-.1,0-.04,0-.11,0-.21,0-.1,0-.2,.01-.31s0-.21,0-.31v-.2c0-.06,0-.15,0-.26s0-.22,.01-.33c0-.11,0-.21,0-.29v-.51c0-.19,0-.4,0-.62,0-.22,0-.43-.01-.62,0-.19,0-.31,0-.36,0-.02,0-.09,0-.18s0-.2,.01-.32c0-.11,0-.22,0-.32s0-.16-.01-.18c0-.02,0-.09-.01-.2s-.02-.23-.03-.35c-.01-.12-.02-.24-.04-.35-.01-.11-.02-.18-.02-.2,0-.11-.01-.28-.02-.51,0-.23-.01-.49-.02-.78,0-.29-.02-.59-.02-.91s-.02-.62-.02-.9c0-.28-.02-.54-.02-.77,0-.23-.01-.4-.01-.51l-.04-.15c-.32,.02-.65,.02-1.01,0-.35-.01-.69-.04-1.02-.09,0-.02,0-.03-.01-.05,0-.02-.02-.05-.04-.09,0-.02-.02-.02-.05-.01-.03,0-.04,0-.02-.01,0-.07,0-.19-.02-.35-.01-.16-.02-.35-.04-.56-.01-.21-.02-.43-.04-.67-.01-.23-.02-.45-.04-.67-.01-.21-.02-.4-.03-.57,0-.17-.02-.29-.03-.36v-.13c0-.14,.04-.26,.12-.36,.08-.1,.18-.17,.32-.2,.29,.04,.58,.04,.88-.01s.59-.07,.87-.07h.2c.06,0,.13-.02,.18-.07v-.23c.02-.63,0-1.24-.06-1.84-.06-.6-.08-1.22-.06-1.84v-.17c0-.08,0-.17,0-.26,0-.09,0-.18,.01-.27,0-.09,0-.14,0-.18,0-.06,.05-.11,.14-.13,.09-.02,.24,0,.47,.04,.06,0,.15-.02,.29-.03,.13-.01,.28-.03,.42-.04,.15-.02,.28-.03,.41-.04,.13-.01,.22-.02,.27-.03,.02,0,.09,0,.2,0,.11,0,.23,0,.35,0s.24,0,.34,0c.11,0,.17,0,.18,0h.15s.12,0,.22,0c.1,0,.2,.01,.29,.02,.11,0,.23,.02,.35,.02l.13,.15s0,.06-.01,.12c0,.05-.02,.11-.02,.16,0,.06-.01,.11-.02,.16,0,.05,0,.09,0,.12,.02,.02,.03,.04,.05,.07,.02,.03,.03,.06,.03,.07,.04,.33,.07,.64,.08,.95,.02,.31,.02,.64,.02,1,0,.09,0,.22,0,.38,0,.17,0,.35,.01,.56,0,.2,0,.41,.01,.62,0,.21,0,.41,0,.59,0,.05,.01,.08,.04,.1,.03,.02,.06,.03,.1,.04,.04,0,.09,0,.13,0,.04,0,.08-.01,.12-.01h.05c.26-.08,.51-.12,.76-.12h.79s.06,0,.11,0c.05,0,.1,0,.15,0,.06,0,.12,.01,.2,.01l.07,.42c0,.42,0,.83,0,1.23-.01,.39,.01,.81,.08,1.25v.94c0,.09-.02,.16-.06,.21s-.09,.09-.14,.11c-.05,.02-.11,.04-.17,.06-.06,.02-.12,.03-.17,.05l-.35,.07h-1.34l-.03,1.05s0,.05-.01,.12-.01,.13-.02,.2c0,.07,0,.13-.01,.19,0,.06,0,.09,.02,.1-.02,.28-.02,.53-.01,.77,0,.24,.02,.47,.04,.69,.02,.22,.04,.45,.07,.68,.03,.23,.05,.48,.08,.74l-.13,6.4c0,.08-.04,.15-.13,.2-.08,.05-.16,.08-.23,.08h-2.67s-.07,.02-.15,.03c-.07,.01-.12,.02-.13,.02-.02,0-.05-.01-.11-.03-.06-.02-.09-.03-.11-.03-.02,0-.07,0-.14-.01-.07,0-.14-.02-.22-.02-.08,0-.15-.02-.22-.02-.07,0-.11-.02-.13-.02-.09,0-.19-.03-.31-.05-.12-.03-.18-.11-.18-.25v-.05Z"/><path class="cls-8" d="M279.69,112.96v-.35c0-.13,.03-.25,.09-.36,.09-.17,.17-.34,.24-.49,.07-.16,.17-.31,.31-.45,.03-.03,.08-.08,.15-.13,.07-.05,.14-.11,.21-.16,.07-.05,.13-.1,.2-.15,.06-.04,.1-.08,.12-.09,.09-.07,.19-.12,.29-.15,.1-.03,.21-.04,.32-.05,.11,0,.22,0,.33,0,.11,0,.22,.01,.33,.01,.14,0,.25,.02,.35,.05s.21,.08,.35,.14c.07,.02,.15,.05,.26,.12,.11,.06,.2,.12,.26,.16,.33,.23,.6,.5,.84,.82,.23,.32,.37,.7,.41,1.14,0,.26,0,.48-.02,.66-.02,.18-.05,.34-.11,.49-.06,.15-.14,.29-.26,.43s-.27,.28-.46,.45c-.18,.15-.4,.29-.66,.4-.26,.11-.51,.17-.75,.17-.02,0-.07,0-.13,0-.06,0-.13-.01-.2-.02-.07,0-.13-.02-.19-.02-.06,0-.09-.02-.11-.02-.04,0-.09-.02-.16-.04s-.13-.04-.2-.06c-.06-.02-.13-.04-.18-.06-.06-.02-.09-.03-.11-.04-.02,0-.05-.03-.11-.05-.06-.03-.12-.06-.2-.09-.07-.03-.14-.05-.21-.08-.07-.02-.11-.04-.12-.06-.19-.15-.34-.29-.45-.45-.11-.15-.2-.31-.26-.48-.06-.17-.1-.35-.13-.54s-.04-.42-.04-.66Zm.33,9.36c0-.06,0-.21-.01-.45,0-.24-.01-.51-.02-.81,0-.3-.01-.6-.02-.91s-.01-.55-.01-.74c0-.02,.02-.07,.02-.13,0-.06,.02-.14,.03-.21,0-.08,.01-.15,.02-.21,0-.06,0-.11,0-.13v-1.48c.05-.07,.14-.13,.27-.16,.13-.04,.23-.05,.3-.05h3.49c.07,.02,.12,.04,.18,.05,.05,0,.1,.03,.14,.08,.04,.04,.07,.12,.1,.24,.02,.11,.04,.29,.04,.54,0,.02,.02,.05,.02,.1,0,.05,.02,.11,.03,.17,0,.06,.01,.12,.02,.17,0,.05,0,.09,0,.1,0,.11,0,.32,.02,.62,.01,.3,.02,.62,.04,.96,.01,.34,.02,.66,.04,.96,.01,.3,.02,.51,.02,.62,0,.07,0,.21,.02,.44,.02,.23,.04,.47,.06,.73,.03,.26,.04,.51,.06,.74s.02,.38,.02,.43c0,.07,0,.21,.01,.42s.02,.45,.04,.72c.02,.27,.03,.56,.05,.87,.02,.31,.03,.6,.05,.88,.02,.28,.03,.52,.04,.73,0,.21,.02,.34,.02,.41,0,.12,.01,.31,.01,.57s0,.54,0,.82c0,.29,.01,.56,.02,.82,0,.26,.02,.45,.04,.57v.17c.04,.32,.02,.56-.07,.73-.09,.17-.25,.23-.5,.18l-3.87-.02c-.19,0-.32-.05-.38-.16-.07-.11-.11-.25-.13-.43-.02-.17-.03-.38-.03-.61s-.02-.47-.05-.71c-.02-.18-.03-.38-.03-.59s0-.43,0-.65c0-.22,0-.43,.01-.64,0-.21,0-.41,0-.59-.02-.47-.04-.92-.06-1.34-.02-.42-.03-.83-.04-1.25,0-.41-.01-.83-.02-1.25,0-.42,0-.87,0-1.33Z"/><path class="cls-8" d="M293.47,131.86c-.06-.02-.14-.03-.26-.05-.11-.02-.26-.05-.43-.08,0,0-.04,0-.11-.02-.06-.01-.14-.03-.24-.06-.09-.03-.19-.07-.29-.12-.1-.05-.19-.11-.27-.18-.02,0-.05-.02-.1-.04-.05-.02-.11-.04-.18-.07-.07-.03-.12-.05-.18-.07-.05-.02-.09-.03-.1-.04-.15-.06-.29-.13-.42-.23-.13-.1-.26-.2-.38-.31-.12-.11-.24-.21-.35-.32s-.22-.21-.32-.31c-.39-.37-.74-.75-1.05-1.16-.31-.41-.57-.85-.79-1.34-.18-.39-.32-.75-.43-1.07-.11-.32-.19-.64-.24-.95-.06-.31-.1-.64-.12-.97-.02-.33-.03-.72-.03-1.15v-.92c.11-.46,.23-.9,.37-1.31,.14-.41,.31-.8,.51-1.18,.2-.37,.43-.73,.69-1.07s.57-.67,.92-.99c.25-.24,.51-.46,.78-.63,.27-.18,.56-.34,.87-.49,.02,0,.06-.02,.1-.05s.09-.05,.15-.07c.05-.02,.1-.04,.14-.05,.04-.02,.07-.03,.09-.04,.02,0,.08,0,.18-.02s.15-.02,.17-.02c.02-.02,.07-.05,.15-.1,.07-.05,.12-.09,.13-.1,0,0,.03,0,.08-.01,.04,0,.09-.02,.14-.03s.09-.02,.13-.03c.04,0,.06-.02,.07-.02l.22-.05c.11-.03,.24-.06,.37-.09,.13-.03,.25-.06,.37-.09,.12-.03,.19-.04,.23-.04,.06-.02,.18-.05,.35-.07,.17-.02,.35-.04,.55-.05,.2-.02,.38-.03,.56-.05,.17-.02,.3-.03,.38-.04h.15s.08,0,.13,0c.04,0,.08,0,.1,0,.18,0,.34,.02,.49,.02,.15,0,.3,.03,.46,.07,.23,.06,.46,.11,.7,.16s.47,.09,.7,.12c.06,.02,.15,.07,.29,.13,.13,.07,.28,.14,.43,.22,.15,.08,.29,.16,.42,.23s.22,.13,.27,.16c.02,.02,.09,.08,.19,.18,.1,.1,.21,.21,.34,.34,.12,.12,.24,.24,.35,.37,.11,.12,.2,.22,.26,.28,0,.02,.03,.05,.07,.11,.04,.06,.09,.12,.14,.2,.05,.08,.11,.15,.16,.23s.1,.13,.13,.18c.29,.45,.54,.89,.73,1.33,.19,.44,.34,.89,.46,1.34,.11,.45,.2,.92,.25,1.39s.08,.97,.08,1.48v.05c-.02,.14-.03,.33-.06,.57-.02,.24-.04,.48-.06,.71-.02,.24-.04,.45-.05,.63-.02,.19-.03,.3-.04,.33-.06,.42-.14,.81-.26,1.18-.12,.37-.26,.74-.43,1.11-.15,.2-.28,.36-.37,.49-.09,.13-.19,.26-.29,.39-.1,.13-.21,.26-.33,.42-.13,.15-.3,.34-.52,.57-.29,.21-.59,.41-.91,.59-.32,.18-.65,.33-.99,.46-.34,.13-.69,.23-1.04,.31-.36,.07-.7,.1-1.04,.09h-.16c-.08,0-.16,0-.26,0-.09,0-.18,0-.26-.01-.08,0-.13,0-.16,0-.02-.02-.04-.03-.09-.05-.04-.02-.07-.02-.08-.02s-.05,0-.11,.01c-.06,0-.12,.02-.19,.03-.07,.01-.13,.02-.2,.03-.06,0-.1,0-.12,0-.03,0-.11,0-.23-.02-.12-.01-.25-.03-.38-.05-.14-.02-.27-.04-.38-.05-.12-.02-.19-.03-.21-.04h-.12l-.31-.09Zm-1.6-8.39c0,.23,.03,.45,.06,.67,.03,.22,.09,.44,.18,.65,0,.02,.02,.06,.06,.13s.06,.12,.06,.13c.03,.11,.07,.22,.1,.34,.03,.12,.07,.24,.1,.37,.04,.12,.08,.24,.13,.35,.05,.11,.11,.22,.18,.31,.02,.02,.06,.07,.12,.13s.11,.12,.17,.18c.06,.06,.11,.12,.16,.17,.05,.05,.08,.08,.1,.09,0,0,.04,.03,.08,.06,.04,.03,.1,.07,.16,.1s.12,.08,.18,.12c.06,.04,.11,.07,.15,.09l.12,.09s.08,.05,.16,.11c.08,.06,.13,.09,.15,.09,.02,.02,.06,.03,.12,.05,.06,.02,.12,.03,.16,.03,.17,.08,.3,.13,.38,.14s.16,.01,.22,0c.06-.01,.12-.02,.2-.04,.07-.01,.18,0,.32,.02,0,0,.04,0,.09,0,.05,0,.1-.01,.16-.02,.06,0,.11-.02,.17-.02,.06,0,.1-.02,.13-.02,.38-.06,.74-.19,1.07-.39,.33-.2,.62-.46,.87-.76,.25-.3,.44-.64,.58-1.01,.14-.37,.21-.75,.21-1.13,0-.02,0-.12,0-.3,0-.17,.02-.48,.05-.92,0-.21-.04-.42-.13-.62-.09-.2-.16-.41-.23-.62-.11-.33-.3-.6-.56-.82-.26-.22-.52-.43-.8-.62-.17-.11-.33-.21-.47-.29-.14-.08-.29-.14-.43-.19s-.3-.09-.46-.11-.34-.04-.54-.05c-.19,0-.35-.01-.49,0-.14,0-.3,.03-.49,.07-.2,.04-.42,.1-.63,.17-.22,.07-.43,.16-.63,.27s-.38,.24-.54,.4c-.16,.15-.28,.33-.35,.54l-.21,.59c-.05,.07-.09,.16-.13,.28-.04,.12-.07,.25-.1,.4-.03,.14-.04,.28-.04,.43s.01,.27,.04,.38Z"/><path class="cls-8" d="M305.1,132.15c-.11-.02-.19-.06-.26-.1-.07-.05-.13-.11-.17-.18-.04-.07-.06-.14-.07-.21-.01-.07-.02-.14-.01-.21,0-.06,0-.12,0-.17,0-.62,0-1.23-.02-1.85-.02-.61-.03-1.23-.04-1.85-.01-.62-.01-1.24,0-1.86,.01-.62,.04-1.24,.09-1.86l-.05-.57c0-.06,.02-.13,.02-.18,0-.05,.01-.1,.01-.15s0-.1,.01-.14v-1.62c0-.2,0-.4,0-.58s0-.3,0-.35c0-.04,0-.15,.02-.33,.01-.18,.02-.37,.04-.57,.01-.2,.02-.39,.03-.57,0-.18,0-.29,0-.34,0-.18,0-.38-.02-.61-.02-.23-.04-.44-.04-.62l.02-.43c0-.1,.03-.16,.08-.2s.11-.06,.17-.07c.06,0,.12,0,.17,0,.05,0,.08,0,.09,0,.02,0,.07,0,.14,0,.07,0,.14-.01,.22-.02,.08,0,.15-.02,.21-.02,.07,0,.11-.02,.12-.02h.86c.13,0,.27,0,.41,0,.14,0,.29,.01,.46,.02h.13s.04,.02,.08,.02c.04,0,.09,.02,.15,.02,.05,0,.1,.02,.15,.03s.09,.02,.11,.03c.17,.03,.29,.07,.36,.12,.07,.04,.11,.11,.13,.18,.02,.08,.03,.17,.04,.29,0,.11,.02,.25,.05,.42,.35-.32,.72-.57,1.1-.77,.38-.2,.78-.34,1.18-.45s.82-.16,1.25-.19c.43-.02,.87-.02,1.32,0,.12,0,.25,.01,.39,.04,.14,.03,.28,.06,.42,.1,.14,.04,.28,.09,.42,.15,.13,.06,.25,.11,.36,.17,.07,.05,.17,.12,.29,.21,.12,.09,.23,.18,.35,.27,.11,.09,.21,.18,.3,.24,.09,.07,.13,.1,.14,.1,.23,.17,.43,.37,.61,.59,.17,.22,.32,.46,.45,.71,.13,.25,.23,.52,.32,.79,.09,.28,.16,.55,.21,.82,.02,.03,.05,.12,.08,.25s.06,.28,.09,.45c.03,.17,.05,.34,.07,.51,.02,.17,.03,.31,.03,.4v.45c0,.13,0,.27,0,.43,0,.15,0,.3,.01,.43,0,.13,0,.21,0,.24v2.45s-.03,.07-.04,.15-.02,.15-.03,.23c-.01,.08-.02,.16-.03,.23s-.01,.13-.01,.16v.27c-.02,.15-.03,.35-.03,.59s0,.5,0,.77c0,.27,0,.55,0,.83v.78c0,.24,0,.44,0,.6,0,.16,0,.26,0,.31v.4c0,.09,0,.17,0,.25,0,.08,0,.12,0,.14v.12c-.01,.09-.06,.14-.17,.16-.1,.02-.19,.03-.25,.04-.02,0-.06,0-.1,0-.04,0-.09,.01-.14,.02-.05,0-.09,.01-.13,.02-.04,0-.06,.01-.07,.02h-.5c-.12,0-.22,0-.32,0-.1,0-.16,.01-.18,.02-.38,.02-.74,.04-1.07,.07-.33,.03-.7,.03-1.09,.02-.15,0-.25-.05-.3-.12-.06-.07-.09-.15-.11-.25-.02-.1-.02-.2-.01-.31,0-.11,.01-.21,.01-.31v-.29c0-.15,0-.32,0-.52s0-.41,0-.63,0-.44,0-.63,0-.37,0-.51v-3.12c.03-.28,.03-.61,.01-.99-.02-.37-.06-.76-.12-1.16-.06-.4-.14-.79-.25-1.17-.11-.38-.24-.72-.39-1.02-.15-.3-.33-.53-.54-.7s-.43-.24-.68-.22l-.43-.02c-.29,0-.52,.02-.7,.1s-.4,.18-.65,.33c-.02,0-.03,.01-.05,.03-.02,.02-.02,.04-.02,.05-.23,.17-.42,.41-.58,.73-.16,.31-.29,.67-.4,1.06-.11,.39-.2,.81-.28,1.26-.07,.44-.13,.88-.18,1.31,0,.04-.02,.14-.04,.31-.02,.16-.04,.34-.05,.54-.02,.2-.04,.4-.05,.6-.01,.2-.02,.35-.03,.46,0,0,0,.05,0,.12s-.01,.16-.02,.26c0,.1-.02,.2-.02,.3s-.01,.18-.01,.23c0,.04,0,.11,0,.2,0,.09,0,.19,0,.29s0,.2,0,.29c0,.09,0,.15,0,.18v1.83s0,.07,.03,.15c.02,.07,.02,.12,.02,.15,0,0,0,.03,0,.07,0,.04,0,.08,0,.12v.2c0,.07,0,.14,.01,.23,0,.09,0,.18-.01,.26s-.05,.16-.1,.21c-.05,.06-.14,.08-.27,.07-.19,0-.39-.01-.62,0-.22,0-.46,.01-.7,.02-.24,0-.49,.01-.75,.02-.25,0-.49,0-.72-.03Z"/><path class="cls-8" d="M325.17,125.96s-.06,.03-.15,.03c-.09,0-.19,0-.29-.04-.1-.03-.2-.08-.28-.15-.09-.07-.12-.16-.12-.29v-.07s0-.03-.02-.07c-.01-.04-.02-.09-.04-.14-.01-.05-.03-.1-.04-.15-.01-.04-.02-.07-.02-.08,0-.04-.02-.1-.03-.18-.01-.08-.02-.12-.02-.14v-.1c0-.06,0-.12,0-.2,0-.07,0-.15,.01-.23,0-.08,0-.14,0-.19,0-.21,.02-.43,.04-.64,.02-.22,.07-.42,.16-.62,.13-.33,.26-.64,.4-.91,.14-.27,.33-.54,.56-.8,.04-.03,.14-.12,.29-.27,.15-.15,.32-.3,.5-.46,.18-.16,.35-.32,.5-.46s.26-.24,.31-.27c0,0,.03-.04,.07-.09s.08-.1,.13-.16l.15-.18c.05-.06,.09-.11,.12-.14,.02-.02,.03-.03,.05-.05,.02-.02,.03-.04,.05-.07,.02-.03,.03-.06,.05-.09l.34-.5c.06-.04,.12-.11,.18-.22,.06-.11,.13-.22,.19-.35,.06-.13,.12-.26,.16-.38s.09-.22,.11-.29c0-.03,0-.11,0-.24,0-.13,0-.21,0-.25,0-.06,.01-.16,.02-.28s0-.19,0-.21c0-.22-.05-.42-.16-.6-.11-.18-.24-.33-.4-.46-.16-.13-.35-.23-.55-.31s-.4-.11-.6-.11c-.28,.04-.54,.11-.78,.21-.24,.1-.46,.22-.65,.37-.19,.14-.36,.3-.49,.46-.14,.17-.24,.33-.32,.48-.11,.21-.17,.39-.2,.54-.03,.15-.07,.32-.12,.52,0,.02-.03,.05-.1,.09-.03,.02-.07,.03-.1,.04-.03,0-.08-.01-.15-.01h-.4s-.04,0,.01,0c-.07,.02-.2,.03-.37,.04-.17,0-.37,.01-.6,0-.22,0-.46-.01-.71-.02-.25-.01-.48-.03-.7-.04-.22-.02-.41-.04-.57-.07-.16-.03-.27-.06-.33-.09v-.02s-.01-.02-.03-.03c-.02-.01-.04-.02-.07-.03-.03,0-.05-.02-.07-.02-.02,0-.03-.02-.02-.04v-.02s-.01-.09-.04-.13c-.03-.04-.03-.08-.03-.12,0-.34,.06-.69,.15-1.04,.09-.35,.21-.7,.36-1.04s.31-.67,.5-.99,.38-.61,.59-.87c0,0,0-.02,.02-.04l.02-.02s.12-.08,.21-.13c.09-.06,.19-.12,.29-.19,.1-.07,.19-.13,.28-.2s.16-.11,.21-.15c.04,0,.1-.03,.17-.05,.07-.03,.14-.06,.22-.1l.23-.1c.07-.03,.13-.06,.17-.07,.37-.15,.75-.25,1.14-.32,.39-.06,.78-.09,1.17-.09,.07,0,.21-.01,.41,0,.2,0,.43,.01,.68,.02s.52,.03,.79,.04c.28,.02,.53,.03,.76,.05,.23,.02,.42,.04,.57,.06,.15,.02,.22,.04,.22,.05,.04,.02,.1,.04,.18,.07,.08,.03,.16,.07,.25,.1s.17,.07,.24,.1c.07,.03,.12,.05,.15,.06,.03,.02,.09,.04,.16,.09,.07,.04,.15,.09,.24,.13s.17,.1,.24,.14c.07,.04,.13,.08,.16,.1,.2,.15,.4,.29,.6,.43,.2,.14,.37,.29,.54,.45s.31,.33,.44,.52c.13,.19,.24,.41,.32,.64,.07,.21,.15,.43,.23,.65,.08,.22,.15,.45,.21,.69,.06,.24,.11,.47,.15,.71,.04,.24,.05,.47,.04,.7-.02,.31-.08,.59-.18,.85s-.21,.53-.32,.81c-.07,.14-.13,.27-.2,.41s-.15,.25-.24,.36c-.12,.14-.27,.29-.46,.45-.18,.16-.33,.33-.45,.51-.1,.07-.22,.16-.37,.28s-.29,.25-.42,.39c-.13,.14-.24,.27-.33,.4-.09,.13-.13,.22-.11,.27-.19,.22-.34,.45-.45,.69-.12,.24-.2,.49-.27,.75v.05l-.23,.73s0,.05-.02,.09c-.01,.04-.03,.1-.04,.15-.02,.06-.03,.11-.05,.16-.02,.05-.04,.09-.05,.11,0,.04,0,.1-.03,.18-.02,.08-.03,.13-.03,.15v.27s-.04,.04-.07,.13c-.03,.09-.06,.13-.07,.13-.25,.1-.5,.16-.75,.2-.24,.03-.5,.07-.77,.12-.02,0-.06,0-.13,0-.07,0-.15,0-.23,.01-.08,0-.16,.01-.24,.02-.07,0-.12,.01-.13,.01-.09,.02-.2,.05-.34,.07-.13,.02-.28,.04-.42,.05s-.29,.02-.43,.03c-.14,0-.27,.02-.37,.04Zm-1.04,3.37c.02-.21,.05-.41,.1-.59s.12-.38,.21-.59c.02-.03,.04-.08,.08-.15,.04-.06,.07-.13,.11-.2,.04-.07,.07-.13,.1-.18,.03-.05,.05-.09,.06-.1,0,0,.04-.03,.09-.07,.05-.04,.11-.09,.18-.15,.07-.06,.14-.11,.21-.16,.07-.05,.12-.1,.16-.13,.23-.19,.49-.32,.8-.4,.31-.08,.6-.12,.89-.11,.66,.02,1.23,.22,1.72,.61s.84,.89,1.06,1.5v.44c0,.23-.03,.46-.07,.69s-.11,.46-.2,.67c-.09,.22-.21,.42-.35,.6s-.31,.34-.51,.47c-.22,.15-.43,.28-.63,.37-.2,.09-.4,.16-.6,.21-.2,.05-.41,.08-.63,.09-.22,.01-.47,.01-.74,0-.02,0-.05,0-.08-.02s-.06-.02-.07-.02c-.33-.07-.62-.2-.86-.38-.24-.18-.44-.4-.59-.65-.15-.25-.27-.53-.34-.83-.07-.3-.1-.61-.08-.92Z"/></g><g><path class="cls-12" d="M154.12,145.4c-3.08,2.78-11.47,4.25-15.51,6.69-2.42-3.55-7.85-10.13-7.9-10.63-.88-8.97,6.79-16.88,6.92-17.29,1.75,.52,2.84,1.73,3.95,3.25,1.18,1.61,6.9,9.06,12.53,17.97Z"/><path class="cls-6" d="M46.69,93.36c-.55,.46-1.68,.27-3.46,.02-1.54-.21-3.83-.6-4.86-.08-1.09,.55-.43,1.65,1.19,2.47,2.68,1.36,8.84,4.21,12,5.42,5.25,2.39,11.79,.53,13.81-4.22,3.02-7.13,3.74-10.09,5.43-14.54,.42-1.1-2.32-1.03-3.44,.14-2.41,2.49-2.27,3.77-3.62,4.94-1.31,1.15-2.52,.28-3.49-1.14-2.67-8.1-3.31-13.02-5.92-13.5-2.2-.07-1.14,5.73,.37,12.23-4.25-6.03-8.16-10.55-9.58-9.29-1.68,1.49,.82,6.98,4.68,11.81-5.27-2.23-9.86-5.22-11.24-3.34-1.23,1.68,9.67,7.8,8.12,9.09Z"/><path class="cls-6" d="M54.37,100.65c-.4-.63,7.66-5.42,8.13-4.84,7.03,8.64,21.57,23.16,23.92,25.29-2.04,3.3-9.28,4.8-13.52,2.68-5.19-2.6-9.55-8.89-18.52-23.13Z"/><path class="cls-12" d="M79.96,113.47c-1.65,3.98-3.88,12.33-5.29,16.57,9.98,4.13,19.24,7.49,20,7.4,7.89-.98,12.04-15.09,12.56-15.87-5.19-1.36-17.45-4.32-27.27-8.1Z"/><path class="cls-12" d="M90.79,172.75c13.85,6.11,44.84,1.06,49.12-1.87,0,0-.39-36.2-2.28-46.7-15.85-3.5-32.91-2.97-41.78-1.3-1.33,13.39-3.51,30.09-5.06,49.87Z"/><path class="cls-13" d="M92.69,152.17c13.38,4.21,33.56,3.5,46.81-.27-.03-1.02-.07-2.05-.11-3.09-.44-3.8-1.33-9.27-1.77-11.17-12.85,3.45-30.46,4.11-43.41,.43-.49,4.45-1.01,9.14-1.53,14.11Z"/><path class="cls-2" d="M126.19,122.34c-.07-.29-15.43-1.25-21.21-1.01-.37,.59-.46,.97-.52,1.33-.95,5.87,4.88,9.79,10.89,9.79s12.3-4.1,10.83-10.11Z"/><g><path class="cls-6" d="M123.89,112.77l.23,12.12c.05,2.6-3.83,4.78-8.67,4.86-4.84,.08-8.81-1.97-8.86-4.58l-.23-12.12,17.53-.28Z"/><path class="cls-7" d="M117.55,123.6c2.35-.28,4.54-.77,6.5-1.39l-.16-8.44-17.53,.28,.17,9.04c2.97,.77,6.83,1.01,11.02,.52Z"/></g><g><path class="cls-6" d="M70.52,96.39c2.3,8.12,10.34,13.07,16.29,12.14,5.95-.93,6.95-7.65,5.73-15.49-1.22-7.84-7.04-13.47-12.98-12.52-8.13,1.29-11.2,8.24-9.04,15.87Z"/><path class="cls-5" d="M77.73,98c.54,3.44,3.43,5.84,6.46,5.37,3.03-.47,5.06-3.64,4.52-7.08-.54-3.44-3.43-5.84-6.46-5.37-3.03,.47-5.06,3.64-4.52,7.08Z"/><path class="cls-6" d="M160.28,94.83c-2.04,8.19-9.92,13.39-15.9,12.66-5.98-.74-7.19-7.42-6.22-15.3,.97-7.88,6.6-13.68,12.58-12.93,8.16,1.03,11.46,7.87,9.54,15.57Z"/><path class="cls-5" d="M152.69,96.67c-.43,3.45-3.24,5.95-6.29,5.57-3.05-.38-5.17-3.48-4.75-6.93,.43-3.45,3.24-5.95,6.29-5.57,3.05,.37,5.17,3.48,4.75,6.93Z"/><path class="cls-4" d="M155.26,68.65c.41,25.37-16.14,37.05-39.56,37.42-23.42,.37-40.78-10.76-41.19-36.13-.41-25.37,16.68-31.54,40.1-31.91,23.42-.37,40.24,5.25,40.65,30.62Z"/><path class="cls-6" d="M148.84,78.59c.46,29.13-13.47,42.46-33.27,42.77-19.8,.32-34.54-12.55-35-41.68-.46-29.13,14.05-30.13,33.85-30.45,19.8-.32,33.96,.23,34.42,29.35Z"/><path class="cls-11" d="M88.14,100.54c-.07,1.53,1.99,2.88,4.62,3,2.63,.13,4.81-1.01,4.89-2.54,.07-1.53-1.99-2.88-4.62-3-2.63-.13-4.81,1.01-4.89,2.54Z"/><path class="cls-11" d="M131.87,100.5c.14,1.53,2.38,2.57,4.99,2.33,2.62-.24,4.63-1.67,4.49-3.2-.14-1.53-2.38-2.57-4.99-2.33-2.62,.24-4.63,1.67-4.49,3.2Z"/><path class="cls-4" d="M138.06,31.36c.65,3.43-.84,6.34-3.49,8.85,1.75-4.25,1.75-9.68-2.48-16.32-2.79,2.55-5.76,5.25-8.73,7.93,.25-1.78,.19-3.7-.29-5.79-4.68,6.96-9.66,6.79-25.98,11.24-11.17,3.05-12.09,11.34-10.63,15.94,7.57-2.01,17.47,2.14,25.71,2.01,10.34-.17,18.18-2.29,22.23-5.57,4.91-3.98,8.7-11.74,3.66-18.29Z"/><g><path class="cls-15" d="M123.49,82.88c-2.46,3.76-2.05,7.83,.22,9.34,3.41,2.26,11.37,2.76,14.25-.68,2.79-3.33,1.26-9.26-3.48-11.73-4.15-2.16-8.61-.56-10.99,3.08Z"/><path class="cls-10" d="M138.26,81.53c-3.78-5.66-12.49-3.53-14.84,1.48,2.46-3.76,7.13-4.99,10.96-3,2.37,1.23,4.09,3.48,4.59,6.01,.4,2.02-.01,4.3-1.17,5.69,1.35-.92,3.23-6.02,.46-10.19Z"/><path class="cls-4" d="M124.49,85.33c-.98,2.59,.32,5.48,2.91,6.47s5.48-.32,6.47-2.91c.98-2.59-.32-5.48-2.91-6.47-2.59-.98-5.48,.32-6.47,2.91Z"/><path class="cls-16" d="M124.89,84.88c-.27,.72,.09,1.52,.81,1.79,.72,.27,1.52-.09,1.79-.81,.27-.72-.09-1.52-.81-1.79-.72-.27-1.52,.09-1.79,.81Z"/></g><g><path class="cls-15" d="M105.51,83.17c2.58,3.68,2.3,7.76,.08,9.34-3.34,2.37-11.27,3.12-14.26-.23-2.9-3.24-1.56-9.22,3.1-11.83,4.08-2.29,8.59-.84,11.08,2.72Z"/><path class="cls-10" d="M90.71,82.29c3.6-5.78,12.37-3.92,14.88,1.01-2.58-3.68-7.29-4.76-11.05-2.64-2.33,1.31-3.97,3.61-4.4,6.16-.34,2.03,.15,4.3,1.35,5.65-1.38-.87-3.43-5.92-.78-10.17Z"/><path class="cls-4" d="M95.28,85.8c-.98,2.59,.32,5.48,2.91,6.47,2.59,.98,5.48-.32,6.47-2.91,.98-2.59-.32-5.48-2.91-6.47-2.59-.98-5.48,.32-6.47,2.91Z"/><path class="cls-16" d="M95.68,85.35c-.27,.72,.09,1.52,.81,1.79,.72,.27,1.52-.09,1.79-.81,.27-.72-.09-1.52-.81-1.79-.72-.27-1.52,.09-1.79,.81Z"/></g><path class="cls-4" d="M138.24,69.87c-.37,0-.74-.12-1.03-.38-2.33-2.02-6.73-2.51-10.24-1.13-.79,.31-1.69-.08-2-.88-.31-.79,.08-1.69,.88-2,4.57-1.79,10.2-1.08,13.38,1.67,.64,.56,.71,1.53,.16,2.18-.3,.35-.72,.53-1.14,.53Z"/><path class="cls-4" d="M90.36,70.64c-.42,0-.85-.16-1.16-.5-.58-.63-.54-1.6,.09-2.18,3.09-2.85,8.69-3.74,13.32-2.1,.8,.28,1.22,1.17,.94,1.97-.28,.8-1.17,1.22-1.97,.94-3.55-1.26-7.94-.63-10.2,1.46-.29,.27-.66,.4-1.02,.41Z"/><path class="cls-1" d="M117.52,95.3c-.17,0-.32-.12-.35-.29-.22-1.23-1.21-2-2.51-1.98-1.31,.02-2.29,.85-2.44,2.06-.03,.19-.2,.33-.4,.31-.19-.02-.33-.2-.31-.4,.2-1.55,1.48-2.65,3.13-2.67,1.64-.03,2.93,1,3.22,2.56,.03,.19-.09,.38-.28,.41h-.06Z"/></g><path class="cls-6" d="M121.43,149.22c-.65-.24,1.63-8.06,2.31-7.89,10.06,2.43,25.93,4.48,28.87,4.7,.3,3.84-.08,8.92-5.81,10.04-5.36,1.05-8.9-.84-25.37-6.85Z"/><g><path class="cls-5" d="M111.43,131.63c-1.03,.92,1.17,3.21,3.66,3.76,2.49,.55,6.86,.5,7.15-.84-.94-1.27-8.7-4.81-10.82-2.92Z"/><path class="cls-6" d="M114.87,142.57c-1.43-.32-4.61-1.31-5.29,.46-.28,.73,2.6,1.6,5.34,2.46,.92,.29,1.28,.04,4.04,.23,.04,.26-1.36,.6-3.13,.46-.96-.07-3.64-2.03-4.78,.06-.2,.36,3.43,2.14,4.29,2.54,1.36,.65,9.63,1.89,10.12,1.74,2.03-.64,2.85-3.09,2.76-5.94-.33-2.23-2.82-7.23-6.11-10.13-2.84-.69-4.83-.83-6.9-1.03-5.68,.64-8.4,.69-8.16,1.78,.57,2.61,5.13,2.01,7.49,1.98,1.88,.13,3.91,.64,4.89,.95,.12,.46-3.12-.15-4.95-.28-1.51,0-6.76,.34-6.62,1.33,.39,2.68,2.69,1.68,6.61,2.09,1.54,.27,4.37,1.05,4.52,1.29-.34,.35-1.22,.22-4.13,0Z"/></g><path class="cls-14" d="M119.36,112.41c0,1.19-1.61,1.27-3.59,1.27s-3.59-.08-3.59-1.27,1.61-3.04,3.59-3.04,3.59,1.85,3.59,3.04Z"/><path class="cls-9" d="M163.29,43.44c-1.03-.07-1.83-.5-2.4-1.29-.57-.79-.83-1.69-.76-2.69,.04-.66,.22-1.28,.54-1.84,.71-1.24,1.72-2.14,2.98-2.71,1.26-.57,2.63-.81,4.1-.71,1.75,.12,3.36,.68,4.82,1.68,1.47,1,2.5,2.33,3.12,3.99,.33,.89,.46,1.81,.4,2.78-.13,1.92-.89,3.59-2.3,5.03-.33,.4-1.33,1.44-2.99,3.13-1.66,1.69-2.82,3.07-3.47,4.14-.13,.18-.4,.77-.83,1.76-.43,.99-.92,1.63-1.47,1.89-.31,.15-.64,.21-.97,.18-.58-.04-1.09-.3-1.54-.79-.44-.49-.64-1.04-.6-1.65,0-.05,0-.11,.01-.17,.18-1.07,.58-2.08,1.19-3.03,.61-.95,1.39-1.98,2.36-3.08,.33-.37,1.21-1.27,2.64-2.69,1.43-1.42,2.41-2.62,2.96-3.58,.22-.38,.35-.78,.38-1.23,.06-.83-.19-1.6-.72-2.31-.54-.7-1.25-1.09-2.14-1.15-.5-.03-.92,.15-1.25,.54-.33,.4-.52,.87-.56,1.43v.17c-.25,.68-.71,1.23-1.38,1.65-.67,.41-1.38,.6-2.13,.55Zm-.67,22.93c-.78-.05-1.44-.37-1.99-.96-.55-.59-.79-1.31-.74-2.16,.05-.73,.37-1.38,.96-1.93,.59-.55,1.26-.8,2.02-.75h.14c.74,.06,1.38,.38,1.93,.97,.55,.59,.8,1.27,.75,2.06-.05,.76-.37,1.42-.95,1.99-.58,.57-1.29,.83-2.11,.77Z"/></g></g></g></g></svg>