<?xml version="1.0" encoding="UTF-8"?><svg id="Layer_2" xmlns="http://www.w3.org/2000/svg" xmlns:xlink="http://www.w3.org/1999/xlink" viewBox="0 0 403.24 198.68"><defs><style>.cls-1{fill:#133b75;}.cls-2{fill:#c4735b;}.cls-3{fill:#6bddf7;}.cls-4{fill:none;filter:url(#drop-shadow-1);}.cls-5{fill:#752912;}.cls-6{fill:#e0956c;}.cls-7{fill:#ffc19f;}.cls-8{fill:#afaeae;}.cls-9{fill:#3ab7dd;}.cls-10{fill:#601805;opacity:.19;}.cls-11{fill:#333;}.cls-12{fill:#934341;}.cls-13{fill:#fff;opacity:.61;}.cls-14{fill:#a50202;}.cls-15{fill:#053b56;opacity:.35;}.cls-16{opacity:.55;}.cls-17{fill:#73dcf4;}.cls-18{fill:#ff9797;}.cls-19{fill:#8e381e;}.cls-20{fill:#45cece;}.cls-21{fill:#6d0f03;opacity:.15;}.cls-22{fill:#c3f1fc;}.cls-23{fill:#024fa3;}.cls-24{fill:#f9feff;}.cls-25{fill:#b50000;}.cls-26{fill:#fefffe;}</style><filter id="drop-shadow-1" filterUnits="userSpaceOnUse"><feOffset dx="0" dy="4"/><feGaussianBlur result="blur" stdDeviation="0"/><feFlood flood-color="#004e6e" flood-opacity="1"/><feComposite in2="blur" operator="in"/><feComposite in="SourceGraphic"/></filter></defs><g id="Contenido"><g><rect class="cls-4" y="0" width="403.24" height="198.68" rx="12" ry="12"/><g><g><g><path class="cls-25" d="M135.16,60.75c.85,37.72-17.24,50.26-39.86,50.75-21.73,.47-40.5-13.03-39.22-51.18,.71-21.14,19.19-25.43,39.22-25.43s39.38,4.72,39.86,25.87Z"/><path class="cls-25" d="M139.44,105.79c-7.3-2.08-12.5-4.01-16.33-6.7-1.05-.23-6.83,3.99-7.77,4.8,1.82,4.3,2.44,14.07,1.52,16.51,0,0,3.51,2.25,7.36,2.02-.04-3.69-.26-7.05-.26-7.05,0,0,.95,3.26,1.65,6.89,2.66-.46,5.8-1.85,9.11-5.13,.55-.55,1.13-1.59,1.69-2.85-2.1-2.23-3.71-4.18-3.71-4.18,0,0,1.8,1.46,4.12,3.21,.21-.52,.41-1.07,.61-1.61-3.23-2.35-6.13-4.91-6.13-4.91,0,0,3.15,1.82,6.6,3.58,.95-2.83,1.54-4.57,1.54-4.57Z"/><path class="cls-20" d="M120.32,96.14c-1.46,.99-2.12,2.72-1.83,4.36-.37-.2-.75-.4-1.18-.49-2.36-.45-4.64,1.09-5.09,3.45-.45,2.36,1.09,4.64,3.45,5.09,2.36,.45,4.64-1.09,5.09-3.45,.1-.54,.08-1.07-.01-1.57,1.38,.73,3.08,.74,4.45-.19,1.99-1.35,2.51-4.05,1.16-6.04-1.35-1.99-4.05-2.51-6.04-1.16Z"/><path class="cls-25" d="M50.93,105.34c7.45-2.13,12.76-4.1,16.67-6.84,1.07-.23,6.98,4.07,7.94,4.9-1.86,4.39-2.49,14.37-1.56,16.85,0,0-3.58,2.3-7.51,2.07,.04-3.77,.27-7.2,.27-7.2,0,0-.97,3.33-1.68,7.04-2.72-.47-5.92-1.89-9.31-5.24-.56-.56-1.15-1.63-1.72-2.91,2.15-2.28,3.79-4.27,3.79-4.27,0,0-1.84,1.49-4.21,3.27-.21-.53-.42-1.09-.62-1.65,3.3-2.4,6.26-5.01,6.26-5.01,0,0-3.22,1.86-6.74,3.66-.97-2.89-1.57-4.67-1.57-4.67Z"/><path class="cls-20" d="M70.2,95.43c1.46,.99,2.12,2.72,1.83,4.36,.37-.2,.75-.4,1.18-.49,2.36-.45,4.64,1.09,5.09,3.45,.45,2.36-1.09,4.64-3.45,5.09-2.36,.45-4.64-1.09-5.09-3.45-.1-.54-.08-1.07,.01-1.57-1.38,.73-3.08,.74-4.45-.19-1.99-1.35-2.51-4.05-1.16-6.04,1.35-1.99,4.05-2.51,6.04-1.16Z"/></g><path class="cls-7" d="M56.83,161.09c-.77,.9-7.4-5.23-6.79-6.07,10.14-13.9,13.61-19.34,21.86-32.84,3.76,2.27,7.39,4.34,11.12,6.67-9.75,13.33-15.34,19.49-26.18,32.23Z"/><g><path class="cls-6" d="M40.21,168.36c2.2-1.78,5.18-4.77,11.59-9.64,.73-.56,4.23,1.24,3.41,1.7-4.75,2.68-11.93,10.36-15,7.94Z"/><path class="cls-6" d="M36.37,166.75c2.2-1.78,6.58-7.01,13.81-9.98,.89-.37,4.02,1.71,3.2,2.17-4.75,2.68-14.44,9.74-17.01,7.81Z"/><path class="cls-7" d="M33.18,163.17c2.2-1.78,15.69-9.74,22.91-12.71,.89-.37,4.18,5.21,3.49,6.54,.22,3.44-4.99,6.33-7.72,13.06-.47,1.16-1.81-.23-2-.77-.49-1.39-.09-1.85-.06-5.5,.02-2.22-2.46-3.02-4.01-2.86-6.52,1.71-10.65,3.98-12.62,2.24Z"/></g><path class="cls-17" d="M74.01,115.44c-3.22,2.27-6.26,7.59-14.32,18.7,4.31,4.19,17.18,9.48,17.66,9.46,4.59-7.35,1.03-29.44,1.4-29.63-1.58,.31-3.84,.84-4.74,1.48Z"/><path class="cls-17" d="M73.33,165.02c31.14,7.88,34.43,1.08,45.54-.5-.43-1.85-3.23-23.45-1.27-49.98-10.65-1.45-26.8-1.27-38.59-.61-2.28,8.07-4.89,41.7-5.68,51.09Z"/><rect class="cls-9" x="86.1" y="109.52" width="22.4" height="7.66" transform="translate(194.6 226.71) rotate(180)"/><path class="cls-7" d="M88.22,100.91l.38,14.85c.08,3.19,4.21,5.68,9.21,5.55,5.01-.13,9-2.82,8.92-6.01l-.38-14.85-18.13,.46Z"/><path class="cls-3" d="M93.22,121.78l8.78-.53s-.43-3.76-3.14-4.03c-1.06,.21-2.17,.11-3.62-.13-.47,.39-2.01,4.69-2.01,4.69Z"/><g><path class="cls-23" d="M98.46,145.87c-2.14,0-4.25-.13-6.34-.31l2.71-19.24c.1-1.18,4.57-1.17,4.67,.02l2.94,19.33c-1.32,.07-2.63,.2-3.97,.2Z"/><g><path class="cls-22" d="M94.02,132.01l.17-1.21c2.07,1.37,4.35,2.84,6.62,4.26l.22,1.43c-2.36-1.46-4.8-3.03-7.01-4.49Z"/><path class="cls-22" d="M101.99,142.82l.22,1.42c-2.86-1.71-6.16-3.79-9.1-5.72l.17-1.2c2.78,1.83,5.91,3.81,8.72,5.51Z"/><path class="cls-22" d="M95.48,145.72c-.74-.03-1.48-.06-2.22-.11-.35-.23-.72-.47-1.06-.69l.17-1.21c.97,.65,2.06,1.33,3.11,2.01Z"/></g><path class="cls-16" d="M94.82,126.32c.1-1.18,4.57-1.17,4.67,.02l.57,3.8-5.48-1.97,.25-1.86Z"/><path class="cls-23" d="M94.82,127.36c1.2,.27,3.94,.22,4.87,0,.34,0,.64-.22,.74-.55l2.09-7.13c.14-.49-.23-.9-.74-.98-.77-.12-1.57-.39-4.71-.39-2.38,0-3.23,.18-4.43,.4-.51,.09-.89,.5-.73,.99l2.18,7.12c.1,.32,.41,.47,.74,.54Z"/><g><path class="cls-22" d="M95.83,118.32c1.63,1.14,3.68,2.51,5.92,3.97l-.32,1.1c-2.87-1.86-5.53-3.64-7.32-4.93,.47-.06,1.02-.11,1.72-.14Z"/><path class="cls-22" d="M93.53,124.98l-.51-1.67c1.82,1.24,3.98,2.67,6.23,4.1-.49,.07-1.12,.12-1.83,.12-1.37-.89-2.68-1.74-3.89-2.56Z"/></g></g><path class="cls-7" d="M145.98,95.83c-.19-1.38-8.7,.43-8.7,1.78,0,8.34-1.63,22.59-2.56,28.21,3.79,.41,12.43,1.01,12.9-6.95,.36-6.21-.46-14.23-1.64-23.04Z"/><path class="cls-7" d="M146.94,97.42c-1.62,2.72-6.56,3.73-9.36,3.17-.49-.1-1.65-.8-2.64-1.85-.1-.09-.2-.22-.29-.32l-.04-.05c-2.41-2.63-3.51-8.2-4.28-10.42-.18-.54,.03-3.57,.33-5.23,1.8-.36,2.64,1.7,2.8,4.04,.08,1.22,1.42,4.28,2.78,2.88,.19-.41,.38-.82,.51-1.26-.31-3.04-1.04-6.24-1.35-7.6-.58-2.5,.21-4.01,1.83-4.24,1.6,1.41,3.02,10.65,3.16,10.34,.61-5.13-.26-8-.01-10.85,.14-1.6,2.54-2.49,3.01-.7,.92,3.17,.56,7.81,.9,11.74,1.18-6.62-.32-13.36,3.95-11.6,.3,3.35-.07,8-.52,12.1,1.04-1.47,1.43-6.72,2.29-8.5,.42-.87,1.7-1.97,2.36-.35,.12,8.48-2.75,14.2-5.42,18.7Z"/><path class="cls-21" d="M143.18,80.87c0-2.28-.28-4.43-.71-6.46-.87-.19-2.01,.55-2.1,1.64-.25,2.84,.62,5.72,.01,10.85-.14,.3-1.56-8.93-3.16-10.34-1.62,.22-2.41,1.73-1.83,4.24,.31,1.36,1.04,4.56,1.35,7.6-.13,.45-.32,.85-.51,1.26-1.35,1.4-2.69-1.66-2.78-2.88-.16-2.34-1-4.39-2.8-4.04-.3,1.66-.51,4.69-.33,5.23,.76,2.23,1.86,7.8,4.28,10.42l.04,.05c.1,.1,.19,.23,.29,.32,.13,.14,.27,.25,.4,.38,4.55-2.62,7.85-9.76,7.85-18.25Z"/><path class="cls-17" d="M136.19,114.21c-.05,7.4,.15,12.58-.17,18.07-4.47,.39-12.01,1.48-17.68,1.93-7.6-6.13-10.57-18.09-10.68-18.54,4.62-.77,7.97-1.12,9.95-1.56,4.69,.13,12.52,.21,18.57,.11Z"/><path class="cls-1" d="M77.41,114.11s6.19-.45,7.51-.57c0,0,7.98,22.38,13.94,22.6,5.95-.22,10.83-22.61,10.83-22.61,1.32,.12,7.8,.49,7.8,.49,.24,1.76-.49,2.36,4.46,52.04-7.24,3-27.04,6.59-49.86,.06,1.71-13.05,5.06-49.88,5.33-52.01Z"/><path class="cls-13" d="M81.43,113.82c.39-.03,.76-.06,1.13-.08,3.15,9.25,10.97,24.39,16.27,24.57,5.33-.19,10.06-15.34,13.2-24.59,.37,.03,.74,.05,1.13,.08-2.65,7.85-7.75,25.38-14.33,25.61-6.54-.23-14.74-17.74-17.4-25.59Z"/><path class="cls-10" d="M85.57,105.4c-.21-.73-.29-1.46-.31-2.19,6.37-1.93,16.09-4.22,23.22-5.09,.13,.31,.32,.58,.42,.9,1.65,5.64-2.23,11.64-8.67,13.4-6.44,1.76-13-1.38-14.66-7.02Z"/><g><path class="cls-7" d="M62.76,71.16c5.72-.7,11.09,4.87,12,12.42,.9,7.54-.28,13.94-6.01,14.62-5.72,.68-13.25-4.33-15.17-12.17-1.81-7.37,1.37-13.91,9.19-14.87Z"/><path class="cls-6" d="M60.69,88.98c1.13,3.13,4.28,4.87,7.05,3.87,2.76-.99,4.09-4.34,2.96-7.47-1.13-3.13-4.28-4.87-7.04-3.87-2.76,.99-4.09,4.34-2.96,7.47Z"/><path class="cls-7" d="M129.78,71.16c-5.72-.7-11.09,4.87-12,12.42-.9,7.54,.28,13.94,6.01,14.62,5.72,.68,13.25-4.33,15.17-12.17,1.81-7.37-1.37-13.91-9.19-14.87Z"/><path class="cls-6" d="M131.84,88.98c-1.13,3.13-4.28,4.87-7.05,3.87-2.76-.99-4.09-4.34-2.96-7.47,1.13-3.13,4.28-4.87,7.04-3.87,2.76,.99,4.09,4.34,2.96,7.47Z"/><path class="cls-25" d="M57.65,56.96c-2.4,26.55,16.9,43.75,38.8,43.32,21.9-.43,39.56-20.08,36.84-45.83-1.51-14.3-16.35-26.81-37.27-26.26-21.9,.57-36.66,9.89-38.37,28.78Z"/><path class="cls-7" d="M127.4,53.24c-4.76-13.21-16.22-13.4-31.22-13.4s-26.47,.19-31.22,13.4c-1.43,3.99-.2,36.85,3.91,44.22,3.47,6.23,16.8,12.34,26.1,12.34h2.43c9.3,0,22.63-6.12,26.1-12.34,4.11-7.37,5.34-40.23,3.91-44.22Z"/><path class="cls-18" d="M69.25,88.67c-.09,1.54,1.97,2.91,4.6,3.06,2.63,.16,4.84-.96,4.93-2.5,.09-1.54-1.97-2.91-4.6-3.06-2.63-.16-4.84,.96-4.93,2.5Z"/><path class="cls-18" d="M113.14,89.37c.12,1.53,2.36,2.6,4.99,2.39,2.63-.21,4.66-1.63,4.54-3.16-.12-1.53-2.36-2.6-4.99-2.39-2.63,.21-4.66,1.63-4.54,3.16Z"/><path class="cls-12" d="M97.11,97.53h-.09c-3.3,.09-6.17-.8-7.66-2.37-.2-.21-.19-.55,.02-.75,.21-.2,.54-.19,.75,.02,1.27,1.34,3.9,2.12,6.87,2.04h.09c2.95-.09,5.52-1.02,6.73-2.43,.2-.22,.53-.24,.75-.06,.22,.19,.25,.52,.06,.75-1.41,1.65-4.21,2.69-7.49,2.79Z"/><path class="cls-2" d="M93.62,86.33c.17,0,.32-.13,.34-.3,.18-1.23,1.14-2.05,2.44-2.07,1.31-.03,2.32,.77,2.51,1.97,.03,.19,.21,.32,.41,.29,.19-.03,.32-.21,.29-.41-.25-1.54-1.58-2.59-3.23-2.56-1.64,.03-2.89,1.11-3.12,2.68-.03,.19,.11,.37,.3,.4h.06Z"/><path class="cls-25" d="M51.67,70.18c4.55-1.61,7.39-4.55,7.65-11.97-2.63-.56-3.87-1.33-6.41-2.17,9.84-2.49,8.39-16.53,21.23-22.4,21.05-7.96,40.24-2.11,45.77,1.11,10.19,5.93,11.45,13.92,12.18,22.87,1.41,8.11,3.22,10.51,7.46,12.36-4.56,1.32-7.26,.14-8.8-1.44,.45,5.11,2.83,6.72,5.45,8.98-7.12,.36-11.08-5.58-12.36-10.72-1.42-5.7,.8-11.99-.1-14.23-.52-1.29-5.21-8.76-7.17-8.82-4.28-.12-8.99,14.76-24.16,14.52,6.12-3.3,9.46-7.96,12.83-14.61-1.19,.71-2.38,1.57-3.56,2.62-12.45,11.03-25.76,12.61-36.46,11.69,1.77,8.69,4.36,17.8-9.15,21.96,1.23-1.52,3.02-6.08,3.28-9.68-1.45,.89-4.1,1.68-7.66-.07Z"/><path class="cls-14" d="M71.44,63.03c-.3,0-.61-.12-.83-.36-.41-.45-.38-1.15,.07-1.57,3.29-3,9.24-3.89,14.15-2.12,.58,.21,.87,.84,.67,1.42-.21,.58-.85,.88-1.42,.67-4.12-1.49-9.23-.77-11.9,1.67-.21,.19-.47,.29-.74,.29Z"/><path class="cls-14" d="M120.61,63.03c.3,0,.61-.12,.83-.36,.41-.45,.38-1.15-.07-1.57-3.29-3-9.24-3.89-14.15-2.12-.58,.21-.87,.84-.67,1.42,.21,.58,.85,.88,1.42,.67,4.12-1.49,9.23-.77,11.9,1.67,.21,.19,.47,.29,.74,.29Z"/><g><path class="cls-24" d="M105.3,74.87c-2.29,3.39-1.97,7.11,.07,8.51,3.08,2.11,10.32,2.67,13-.43,2.59-3,1.27-8.43-3.01-10.74-3.75-2.02-7.84-.63-10.06,2.66Z"/><path class="cls-19" d="M118.77,73.84c-3.37-5.21-11.34-3.38-13.55,1.15,2.29-3.39,6.57-4.45,10.03-2.58,2.14,1.16,3.68,3.23,4.11,5.54,.34,1.85-.07,3.92-1.14,5.17,1.24-.82,3.03-5.45,.55-9.28Z"/><path class="cls-5" d="M118.16,77.05c.94,2.34-.2,5-2.55,5.94-2.34,.94-5-.2-5.94-2.55-.94-2.34,.2-5,2.55-5.94,2.34-.94,5,.2,5.94,2.55Z"/><path class="cls-26" d="M112.68,76.64c.26,.65-.06,1.39-.71,1.65-.65,.26-1.39-.06-1.65-.71-.26-.65,.06-1.39,.71-1.65,.65-.26,1.39,.06,1.65,.71Z"/></g><g><path class="cls-24" d="M87.35,74.87c2.29,3.39,1.97,7.11-.07,8.51-3.08,2.11-10.32,2.67-13-.43-2.59-3-1.27-8.43,3.01-10.74,3.75-2.02,7.84-.63,10.06,2.66Z"/><path class="cls-19" d="M73.88,73.84c3.37-5.21,11.34-3.38,13.55,1.15-2.29-3.39-6.57-4.45-10.03-2.58-2.14,1.16-3.68,3.23-4.11,5.54-.34,1.85,.07,3.92,1.14,5.17-1.24-.82-3.03-5.45-.55-9.28Z"/><path class="cls-5" d="M79.38,77.05c-.94,2.34,.2,5,2.55,5.94,2.34,.94,5-.2,5.94-2.55,.94-2.34-.2-5-2.55-5.94-2.34-.94-5,.2-5.94,2.55Z"/><path class="cls-26" d="M79.75,76.64c-.26,.65,.06,1.39,.71,1.65,.65,.26,1.39-.06,1.65-.71,.26-.65-.06-1.39-.71-1.65-.65-.26-1.39,.06-1.65,.71Z"/></g></g><path class="cls-8" d="M159.06,55.16c.14-.37-.05-.79-.42-.93-.37-.13-.79,.04-.93,.42l-2.32,6.09c-.14,.37,.05,.79,.42,.93l.09,.03c.35,.08,.71-.1,.84-.45l2.32-6.09Zm-9.81-1.49c-.12-.38-.52-.6-.9-.48-.38,.12-.6,.52-.48,.9l1.91,6.23c.08,.25,.28,.43,.52,.49,.12,.03,.25,.03,.38-.01,.38-.12,.6-.52,.48-.9l-1.91-6.23Zm17.23,8.48c-.1-.39-.5-.61-.88-.51l-6.29,1.67c-.38,.1-.61,.5-.51,.88,.07,.27,.28,.46,.53,.52,.11,.03,.23,.03,.35,0l6.29-1.67c.38-.1,.61-.5,.51-.88Z"/><g><path class="cls-15" d="M90.03,125.01c-4.53-.43-5.39-9.12-5.07-11.39,0,0,.98-2.42,1.06-2.85,.29,3.05,3.74,5.42,9.77,6.51-.88,2.71-2.26,8.06-5.76,7.72Z"/><path class="cls-17" d="M90.18,123.74c-4.36-.41-5.22-8.54-5.16-10.24,0,0,.99-3.46,1.07-3.87,.27,2.9,4.16,6.6,9.95,7.63-1.36,.17-2.49,6.8-5.86,6.48Z"/></g><g><path class="cls-15" d="M104.72,124.92c4.52-.49,5.28-9.19,4.93-11.44,0,0-1.01-2.41-1.1-2.84-.25,3.05-3.68,5.46-9.69,6.62,.91,2.7,2.35,8.03,5.85,7.65Z"/><path class="cls-17" d="M104.57,123.66c4.35-.46,5.12-8.6,5.04-10.3,0,0-1.02-3.43-1.1-3.84-.24,2.9-4.1,6.63-9.87,7.72,1.36,.16,2.57,6.77,5.94,6.41Z"/></g></g><g><path class="cls-11" d="M216.44,91.76s-.05-.11-.09-.18-.09-.15-.13-.24c-.04-.09-.09-.17-.13-.24-.04-.07-.08-.13-.09-.18-.07-.17-.14-.38-.21-.62s-.12-.45-.14-.63c-.03-.07-.08-.21-.14-.42-.06-.2-.13-.42-.2-.64s-.13-.44-.2-.64c-.06-.2-.1-.34-.13-.42,0-.02-.02-.06-.04-.14-.02-.08-.04-.16-.07-.24s-.06-.17-.08-.25c-.03-.08-.05-.13-.05-.16,0-.02-.02-.06-.07-.13-.04-.07-.07-.12-.07-.13-.07-.15-.12-.32-.15-.49-.04-.17-.08-.33-.12-.49-.13-.37-.24-.76-.33-1.15-.09-.39-.17-.78-.24-1.17-.04-.22-.09-.47-.13-.74s-.1-.55-.15-.82-.11-.53-.17-.78c-.06-.25-.12-.46-.18-.63h-.03s-.02,.09-.04,.21c-.02,.11-.03,.23-.05,.36s-.04,.25-.06,.36c-.02,.11-.04,.18-.04,.21-.02,.11-.07,.31-.15,.58-.07,.27-.15,.56-.23,.87s-.16,.59-.23,.87c-.07,.27-.13,.46-.16,.57-.13,.29-.23,.58-.29,.89-.06,.31-.15,.6-.26,.88-.02,.02-.03,.06-.03,.13,0,.07-.01,.12-.03,.13-.09,.21-.17,.43-.23,.67-.06,.23-.13,.45-.21,.67-.06,.2-.12,.4-.18,.58-.06,.18-.11,.37-.15,.55s-.07,.37-.09,.57-.02,.4,0,.62l-.13,.21s-.04,.11-.06,.21c-.02,.1-.05,.21-.08,.32s-.05,.22-.08,.32-.04,.17-.05,.2c-.02,.1-.06,.22-.12,.37-.05,.15-.13,.24-.24,.28-.15,.05-.3,.08-.45,.09-.16,.01-.31,.02-.46,.02s-.3,0-.46,.01c-.16,0-.31,.04-.45,.09-.02,0-.05,.02-.12,.06-.06,.04-.1,.07-.12,.09h-.07s-.07,0-.08-.01c-.01,0-.03-.02-.04-.02-.02,0-.04-.02-.07-.02-.03,0-.07-.01-.13-.01-.26,0-.49,0-.68,0s-.41,0-.67,0h-.26s-.03-.03-.04-.05c0-.02-.02-.02-.04-.02-.1-.02-.2-.07-.31-.13s-.2-.14-.29-.23c-.09-.09-.16-.19-.21-.31s-.08-.25-.07-.4c-.03-.08-.08-.22-.13-.41s-.11-.39-.17-.6c-.06-.21-.11-.41-.17-.6-.05-.19-.09-.32-.12-.4-.11-.34-.21-.67-.31-.99s-.19-.63-.28-.94c-.09-.31-.18-.62-.26-.94-.09-.32-.17-.65-.26-1-.07-.28-.15-.55-.23-.81s-.14-.54-.19-.81c-.04-.19-.07-.37-.08-.55-.01-.18-.04-.37-.08-.57,0,0,0-.05-.02-.12-.01-.07-.03-.14-.04-.22-.02-.08-.03-.15-.04-.23-.01-.07-.02-.12-.02-.13-.02-.06-.04-.22-.07-.48-.03-.25-.07-.52-.11-.82s-.08-.57-.11-.82c-.03-.26-.05-.42-.06-.48,0-.19-.05-.46-.12-.82-.07-.36-.15-.76-.26-1.2s-.21-.89-.33-1.36c-.12-.47-.23-.91-.34-1.32s-.2-.77-.27-1.07-.13-.51-.15-.62c0,0-.02-.03-.04-.07-.02-.04-.04-.09-.06-.13s-.04-.09-.05-.13c-.01-.04-.02-.07-.02-.09v-.15c0-.06,.01-.13,.04-.18,.03-.06,.08-.09,.17-.09,.05,0,.09,0,.13,.02s.09,.03,.16,.05h.73c.4,0,.79-.02,1.18-.07s.79-.07,1.18-.07h.23c.09,0,.18,0,.27,0s.18,.02,.26,.04c.09,.02,.16,.05,.21,.1,.03,.03,.06,.06,.1,.09,.02,.02,.05,.04,.07,.06,.02,.02,.04,.03,.05,.05,0,.02,.01,.04,.04,.07,.03,.03,.04,.06,.04,.07,.06,0,.1,.08,.14,.23,.04,.14,.07,.3,.09,.47s.05,.33,.09,.49c.03,.15,.08,.25,.15,.28,.06,.15,.12,.28,.15,.4,.04,.12,.07,.23,.09,.34,.02,.11,.05,.22,.07,.34,.02,.12,.05,.25,.09,.41,.06,.25,.13,.48,.2,.7,.06,.21,.12,.45,.16,.71,0,.03,.02,.1,.03,.21,.01,.11,.03,.23,.04,.35,.02,.13,.03,.24,.04,.35,.01,.11,.02,.18,.03,.2l.51,3.43c.06,.02,.1,.12,.12,.27,.02,.16,.04,.33,.04,.52,0,.19,.02,.36,.03,.51,.01,.15,.04,.24,.08,.24,0,0,.03,.01,.05,.04,0,.02,.02,.03,.03,.04,0,0,0,.05,.02,.13,.01,.08,.03,.16,.04,.26,.02,.1,.03,.19,.04,.26,.01,.08,.02,.12,.02,.13,.02,.02,.04,.07,.08,.14,.04,.07,.06,.11,.08,.13,.04-.02,.07-.05,.08-.09,.01-.03,.03-.07,.04-.11,.03-.11,.08-.24,.15-.4,.07-.16,.14-.34,.22-.52,.08-.19,.15-.38,.22-.57,.07-.19,.13-.37,.18-.54,0-.02,.02-.06,.03-.12,.01-.06,.03-.13,.04-.2,.02-.07,.03-.14,.05-.2,.02-.06,.03-.11,.04-.12,0-.04,.03-.12,.07-.24,.04-.12,.08-.24,.13-.38s.09-.26,.13-.38c.04-.12,.07-.2,.08-.24-.02-.07-.01-.14,.01-.21,.02-.07,.04-.14,.06-.21,.09-.54,.21-1.08,.37-1.6,.16-.52,.31-1.05,.46-1.57,.07-.28,.14-.53,.21-.77s.14-.48,.2-.72,.13-.48,.2-.73,.13-.5,.21-.78c.02-.04,.03-.1,.05-.19,.02-.09,.02-.14,.02-.15v-.23s.03-.08,.05-.13c.03-.06,.05-.12,.08-.18,.03-.06,.06-.11,.08-.16s.06-.07,.09-.08c.54-.1,1.11-.15,1.71-.15h.2s.05,0,.1,0c.05,0,.11,.01,.17,.02,.06,0,.12,.02,.18,.02,.06,0,.1,.02,.12,.02,.03,0,.07,0,.15,.02,.07,.02,.12,.03,.13,.05,0,.03,.02,.06,.02,.09,0,.02,.02,.04,.02,.06,0,.02,.02,.03,.02,.05,.17,.02,.27,.07,.31,.17,.03,.1,.06,.25,.1,.46,.02,.02,.06,.09,.11,.2,.05,.11,.09,.18,.11,.22,0,.02,0,.04,.02,.09,.01,.04,.03,.08,.04,.13s.03,.09,.04,.13c.01,.04,.02,.07,.02,.08l.23,.71v.07c.14,.55,.3,1.08,.48,1.59,.18,.51,.37,1.03,.57,1.56,0,.02,.01,.08,.04,.15,.02,.08,.04,.12,.04,.14,0,.02,0,.07,.02,.12,.02,.06,.03,.09,.05,.09,.33,.72,.63,1.42,.92,2.11s.56,1.41,.82,2.17l.07,.07c.03-.59,.11-1.16,.24-1.73,.13-.57,.29-1.13,.46-1.7,.14-.5,.27-1,.4-1.51,.13-.51,.25-1.01,.37-1.5v-.07s-.03-.04-.05-.08-.02-.06-.02-.08c.14-.23,.23-.46,.28-.68,.05-.23,.1-.46,.15-.71,.06-.32,.14-.63,.24-.93,.09-.3,.2-.6,.31-.9,0,0,.02-.03,.03-.07,.01-.04,.03-.09,.04-.13s.03-.09,.04-.13c.01-.04,.02-.07,.03-.09,.04-.1,.1-.17,.18-.23,.08-.06,.18-.09,.29-.11,.02,0,.09,.01,.19,.04,.1,.02,.17,.04,.19,.04h.2c.1,0,.27,0,.53,0,.26,0,.53-.01,.81-.02,.29,0,.55-.02,.81-.02,.25,0,.43-.02,.52-.02,.08-.02,.15-.03,.22-.03,.06,0,.12,.01,.18,.02,.06,.01,.12,.03,.18,.04,.06,.02,.13,.02,.21,.02,0,0,.02,0,.04,0,.02,0,.03,0,.05,0,.03,0,.05,.01,.07,.01,0,.04,.02,.08,.02,.11,.02,.08,.03,.14,.03,.17v.07c-.03,.17-.06,.33-.07,.49-.01,.15-.02,.31-.04,.45-.01,.15-.03,.3-.04,.45-.02,.15-.04,.32-.07,.49,0,.02-.02,.06-.04,.14s-.04,.16-.07,.24-.05,.17-.07,.24-.03,.12-.04,.14c-.02,.05-.04,.16-.07,.34-.03,.18-.07,.37-.1,.58-.04,.21-.07,.4-.11,.58-.04,.18-.06,.29-.07,.33,0,.02-.01,.06-.04,.14-.03,.08-.05,.16-.08,.26-.03,.1-.06,.19-.09,.29-.03,.09-.06,.16-.07,.21,0,.02,0,.04-.03,.07-.02,.03-.03,.06-.05,.07-.04,.11-.1,.31-.19,.6-.09,.29-.17,.59-.27,.92-.09,.33-.18,.63-.27,.92-.09,.29-.15,.48-.18,.6-.12,.34-.2,.69-.26,1.04-.06,.35-.14,.71-.24,1.06,0,.02-.02,.06-.06,.13s-.07,.12-.08,.13c-.07,.15-.11,.33-.12,.54-.02,.2-.03,.37-.05,.51v.43s-.02,.07-.06,.16c-.04,.09-.07,.15-.1,.2,0,.02,0,.04-.03,.07-.02,.03-.02,.06-.02,.07,0,.1-.01,.26-.06,.48-.04,.22-.11,.48-.18,.76-.08,.28-.16,.57-.25,.88-.09,.31-.17,.59-.24,.86-.07,.27-.13,.5-.18,.7s-.06,.33-.04,.4c0,.02-.02,.06-.04,.14s-.04,.16-.07,.24-.04,.17-.06,.24c-.02,.08-.03,.12-.03,.14v.28s0,.04,.03,.07c0,.02,.02,.03,.04,.05-.02,.05-.04,.12-.07,.2-.03,.09-.06,.17-.08,.26-.03,.09-.06,.17-.08,.24-.03,.07-.04,.11-.04,.12-.08,.31-.26,.53-.54,.67s-.58,.23-.92,.27c-.34,.04-.68,.05-1.01,.04-.34-.02-.61-.03-.81-.04-.1,0-.21-.01-.34-.02-.13,0-.26-.01-.4-.02-.13-.01-.26-.04-.38-.09-.12-.04-.21-.12-.29-.21Z"/><path class="cls-11" d="M231.36,91.86c-.06-.02-.14-.03-.26-.05-.11-.02-.26-.05-.43-.08,0,0-.04,0-.11-.02-.06-.01-.14-.03-.24-.06-.09-.03-.19-.07-.29-.12-.1-.05-.19-.11-.27-.18-.02,0-.05-.02-.1-.04-.05-.02-.11-.04-.18-.07-.07-.03-.12-.05-.18-.07-.05-.02-.09-.03-.1-.04-.15-.06-.29-.13-.42-.23-.13-.1-.26-.2-.38-.31-.12-.11-.24-.21-.35-.32s-.22-.21-.32-.31c-.39-.37-.74-.75-1.05-1.16-.31-.41-.57-.85-.79-1.34-.18-.39-.32-.75-.43-1.07-.11-.32-.19-.64-.24-.95-.06-.31-.1-.64-.12-.97-.02-.33-.03-.72-.03-1.15v-.92c.11-.46,.23-.9,.37-1.31s.31-.8,.51-1.18c.2-.37,.43-.73,.69-1.07s.57-.67,.92-.99c.25-.24,.51-.46,.78-.63,.27-.18,.56-.34,.87-.49,.02,0,.06-.02,.1-.05s.09-.05,.15-.07,.1-.04,.14-.06c.04-.02,.07-.03,.09-.04,.02,0,.08,0,.18-.02s.15-.02,.17-.02c.02-.02,.07-.05,.15-.1s.12-.09,.13-.1c0,0,.03,0,.08-.01,.04,0,.09-.02,.14-.03s.09-.02,.13-.03c.04,0,.06-.02,.07-.02,.03,0,.11-.03,.22-.05,.11-.03,.24-.06,.37-.09,.13-.03,.25-.06,.37-.09,.12-.03,.19-.04,.23-.04,.06-.02,.18-.05,.35-.07s.35-.04,.55-.06c.2-.02,.38-.03,.56-.05,.17-.02,.3-.03,.38-.04h.15s.08,0,.13,0,.08,0,.1,0c.18,0,.34,.02,.49,.02,.15,0,.3,.03,.46,.07,.23,.06,.46,.11,.7,.16s.47,.09,.7,.12c.06,.02,.15,.07,.29,.13,.13,.07,.28,.14,.43,.22,.15,.08,.29,.16,.42,.23s.22,.13,.27,.16c.02,.02,.09,.08,.19,.18s.21,.21,.34,.34c.12,.12,.24,.24,.35,.37,.11,.12,.2,.22,.26,.28,0,.02,.03,.05,.07,.11,.04,.06,.09,.12,.14,.2,.05,.08,.11,.15,.16,.23s.1,.13,.13,.18c.29,.45,.54,.89,.73,1.33,.19,.44,.34,.89,.46,1.34,.11,.45,.2,.92,.25,1.39s.08,.97,.08,1.48v.05c-.02,.14-.03,.33-.06,.57-.02,.24-.04,.48-.06,.71-.02,.24-.04,.45-.05,.63-.02,.19-.03,.3-.04,.33-.06,.42-.14,.81-.26,1.18-.12,.37-.26,.74-.43,1.11-.15,.2-.28,.36-.37,.49-.09,.13-.19,.26-.29,.39s-.21,.26-.33,.42c-.13,.15-.3,.34-.52,.57-.29,.21-.59,.41-.91,.59-.32,.18-.65,.33-.99,.46-.34,.13-.69,.23-1.04,.31-.36,.07-.7,.1-1.04,.09h-.16c-.08,0-.16,0-.26,0-.09,0-.18,0-.26-.01-.08,0-.13,0-.16,0-.02-.02-.04-.03-.09-.05-.04-.02-.07-.02-.08-.02s-.05,0-.11,.01c-.06,0-.12,.02-.19,.03-.07,.01-.13,.02-.2,.03-.06,0-.1,0-.12,0-.03,0-.11,0-.23-.02-.12-.01-.25-.03-.38-.05-.14-.02-.27-.04-.38-.06-.12-.02-.19-.03-.21-.04h-.12l-.31-.09Zm-1.6-8.39c0,.23,.03,.45,.06,.67,.03,.22,.09,.44,.18,.65,0,.02,.02,.06,.06,.13s.06,.12,.06,.13c.03,.11,.07,.22,.1,.34,.03,.12,.07,.24,.1,.37,.04,.12,.08,.24,.13,.35,.05,.11,.11,.22,.18,.31,.02,.02,.06,.07,.12,.13s.11,.12,.17,.18c.06,.06,.11,.12,.16,.17s.08,.08,.1,.09c0,0,.04,.03,.08,.06,.04,.03,.1,.07,.16,.1s.12,.08,.18,.12c.06,.04,.11,.07,.15,.09l.12,.09s.08,.05,.16,.11c.08,.06,.13,.09,.15,.09,.02,.02,.06,.03,.12,.06,.06,.02,.12,.03,.16,.03,.17,.08,.3,.13,.38,.14s.16,.01,.22,0c.06-.01,.12-.02,.2-.04,.07-.01,.18,0,.32,.02,0,0,.04,0,.09,0s.1-.01,.16-.02c.06,0,.11-.02,.17-.02,.06,0,.1-.02,.13-.02,.38-.06,.74-.19,1.07-.39,.33-.2,.62-.46,.87-.76,.25-.3,.44-.64,.58-1.01s.21-.75,.21-1.13c0-.02,0-.12,0-.3,0-.17,.02-.48,.05-.92,0-.21-.04-.42-.13-.62-.09-.2-.16-.41-.23-.62-.11-.33-.3-.6-.56-.82s-.52-.43-.8-.62c-.17-.11-.33-.21-.47-.29s-.29-.14-.43-.19-.3-.09-.46-.11-.34-.04-.54-.05c-.19,0-.35,0-.49,0-.14,0-.3,.03-.49,.07-.2,.04-.42,.1-.63,.17-.22,.07-.43,.17-.63,.27s-.38,.24-.54,.4c-.16,.15-.28,.33-.35,.54l-.21,.59c-.05,.07-.09,.16-.13,.28-.04,.12-.07,.25-.1,.4-.03,.14-.04,.28-.04,.43s.01,.27,.04,.38Z"/><path class="cls-11" d="M242.85,86.45c-.02-.08-.04-.21-.09-.38s-.08-.35-.13-.54c-.04-.19-.08-.37-.12-.54s-.06-.29-.07-.38c0-.03-.01-.1-.02-.21s0-.23-.02-.35c0-.13-.01-.24-.02-.35,0-.11,0-.18-.02-.2,0-.04,0-.09,0-.16,0-.06-.01-.13-.02-.2,0-.06-.02-.13-.02-.18,0-.06-.02-.1-.02-.12l-.05-.12s-.01-.06-.01-.13v-.23c0-.08,0-.15,0-.22,0-.06,0-.11,0-.12-.02-.2-.03-.44-.03-.7,0-.26,0-.52-.01-.79,0-.26,0-.52,0-.78v-.68c0-.28,0-.54,0-.77,0-.23,0-.45,.02-.66s.02-.41,.04-.6c.02-.19,.04-.39,.07-.59,.02-.09,.1-.16,.26-.23,.16-.06,.31-.09,.46-.09h.57c.08,0,.18,0,.31,.02,.13,.02,.25,.03,.38,.06,.13,.02,.24,.04,.34,.05,.1,.02,.15,.03,.17,.04,.02,0,.07,0,.17,.01,.1,0,.2,.02,.31,.03s.21,.02,.31,.04,.16,.02,.18,.03c.03,0,.08,.01,.18,.02s.2,0,.3,0,.21,0,.31,0,.16,.01,.2,.02c.05,.04,.08,.08,.1,.11,.02,.03,.03,.06,.04,.09,0,.03,0,.06,0,.11,0,.04,0,.1,0,.16v.5c-.04,.31-.06,.6-.07,.89,0,.28-.01,.58-.01,.91,0,.52,.01,1.04,.03,1.54,.02,.51,.02,1.06,0,1.67l.07,.66v.2c.04,.2,.07,.41,.08,.62,.02,.21,.03,.43,.06,.64,.02,.22,.05,.43,.08,.65,.03,.22,.09,.43,.16,.64,.02,.04,.04,.1,.07,.17,.03,.07,.06,.14,.09,.21,.03,.07,.06,.14,.08,.2s.04,.1,.05,.1c.06,.15,.15,.29,.28,.4,.13,.11,.27,.21,.41,.29,.14,.08,.28,.14,.4,.19,.13,.04,.21,.07,.25,.08,.02,0,.07,.03,.17,.07s.17,.06,.21,.08c.02,.02,.08,.02,.16,0s.14-.02,.15-.02c.15,0,.34-.03,.58-.08s.49-.17,.75-.34c.3-.33,.52-.65,.67-.99,.14-.33,.24-.68,.29-1.03,.05-.35,.08-.71,.07-1.09,0-.38-.01-.78-.01-1.2v-.4s0-.15,0-.32,0-.36-.02-.56c0-.2-.01-.38-.02-.56,0-.17,0-.28,0-.32v-1.21s-.02-.12-.03-.24c-.01-.12-.03-.27-.06-.43s-.05-.34-.07-.53c-.02-.19-.05-.36-.07-.52-.02-.16-.04-.3-.06-.42-.02-.12-.02-.2-.02-.24l.12-1.05c.03-.06,.08-.1,.15-.12,.07-.02,.14-.03,.23-.04,.08,0,.16,0,.24,0,.08,0,.14,0,.2,0,0,0,.04,0,.08-.01,.04,0,.09-.02,.14-.02,.05,0,.09-.02,.13-.02,.04,0,.07-.01,.07-.01l1.49,.11s.09,.03,.18,.03,.2,0,.31,0h.31c.1,0,.15,0,.17,.01,.05,0,.12-.02,.23-.02,.1,0,.21-.01,.32-.02,.11,0,.21,0,.31-.01,.09,0,.16,0,.19,0l.15,.05c.1,0,.17,.04,.23,.12s.09,.18,.12,.31c.03,.13,.05,.27,.05,.45,0,.17,.01,.35,.01,.55v.23c0,.16,0,.33-.02,.49-.02,.16-.03,.33-.05,.49,0,.05-.01,.16-.01,.34s0,.36,0,.56c0,.2,0,.38,0,.56s0,.29-.01,.34c0,.03,0,.12-.03,.25-.02,.13-.04,.28-.07,.43-.02,.15-.05,.3-.07,.43-.02,.13-.04,.22-.04,.25,0,.04,0,.14-.02,.29-.01,.15-.03,.33-.04,.52-.02,.19-.04,.38-.05,.56-.02,.18-.04,.32-.04,.42,0,.02,0,.06-.02,.14-.01,.08-.03,.16-.04,.24s-.03,.17-.05,.24-.03,.12-.04,.14v.3c0,.07,0,.13,0,.2,0,.06-.01,.1-.02,.1,0,0,0,.03-.02,.07-.01,.04-.03,.09-.04,.13-.02,.05-.03,.1-.04,.14s-.02,.07-.02,.08c-.07,.31-.13,.6-.18,.86s-.09,.52-.13,.77c-.04,.25-.1,.5-.16,.76s-.14,.54-.25,.84c-.06,.17-.15,.37-.29,.59s-.29,.44-.45,.65-.31,.42-.46,.6c-.15,.18-.27,.32-.36,.4-.11,.15-.25,.29-.44,.4s-.39,.21-.61,.29-.44,.16-.66,.23-.41,.13-.56,.19c-.26,.11-.53,.17-.8,.19-.27,.02-.55,.03-.82,.03-.24,0-.49,0-.74,0s-.5,0-.75-.01c-.25-.01-.5-.04-.75-.09-.25-.05-.49-.12-.71-.22-.48-.21-.93-.46-1.35-.74-.42-.28-.84-.59-1.25-.93-.05-.04-.11-.1-.19-.19-.08-.09-.16-.17-.24-.26-.09-.09-.17-.17-.26-.25-.08-.08-.16-.13-.21-.15,.03,.02,.02-.04-.04-.18s-.14-.35-.26-.61c-.04-.09-.09-.22-.15-.4-.06-.18-.11-.37-.16-.58-.05-.21-.1-.41-.15-.61-.04-.2-.08-.36-.09-.48Z"/><path class="cls-11" d="M262.7,91.83s-.09,0-.2,.02c-.11,.02-.22,.03-.35,.05-.13,.02-.24,.03-.35,.05-.11,.02-.17,.02-.2,.02-.35,0-.7,.02-1.05,.05-.35,.03-.7,.05-1.05,.05-.07,0-.1,0-.1-.01,0,0-.03-.01-.09-.01-.02-.02-.06-.05-.11-.1s-.09-.09-.11-.1v-.07s0-.04,0-.1c0-.06-.01-.12-.02-.18s-.01-.12-.02-.17,0-.09,0-.1c0-.04-.02-.12-.03-.23s-.02-.23-.02-.35c0-.12-.01-.23-.02-.34,0-.1,0-.17,0-.21,0-.15,0-.4,0-.73,0-.33,0-.7,.01-1.12,0-.42,.01-.85,.02-1.31s.01-.9,.02-1.31c0-.41,0-.78,.01-1.1,0-.33,0-.57,0-.72,0-.05,0-.14,0-.27,0-.13-.01-.27-.02-.42s-.02-.29-.02-.42c0-.13-.02-.23-.03-.27l-.39-10.07s0-.06,0-.11,0-.1-.01-.16,0-.12,0-.18,0-.1,.01-.13c.02-.12,.04-.22,.05-.3,.02-.08,.08-.12,.17-.12,.03,0,.08,0,.16-.01l.23-.02c.08,0,.15-.02,.23-.02,.08,0,.14-.01,.19-.01h2.08s.04,0,.1-.01c.06,0,.12-.02,.2-.02,.07,0,.14-.01,.21-.01s.11,0,.13,.01c.19-.03,.33,0,.43,.09,.1,.09,.17,.2,.21,.34,.04,.14,.07,.29,.06,.44,0,.15-.01,.29-.02,.39,0,.02,0,.08,.01,.18,0,.09,.02,.2,.02,.32s.02,.23,.03,.35c0,.11,.02,.2,.02,.26v.1c0,.07,0,.12-.02,.17-.02,.04-.03,.09-.05,.14l.07,1.86v.14c0,.08,0,.16,0,.26,0,.09,0,.18,.01,.27,0,.09,.01,.14,.03,.15,.03,.38,.04,.66,.06,.82,.01,.16,.02,.27,.02,.31s0,.06,0,.05,0,0,0,.04,0,.12,.01,.26c0,.14,.02,.38,.04,.73v.7c.02,.07,.04,.16,.06,.27s.04,.21,.04,.27l.11,1.15v.02s0,.05,0,.12,0,.16,.02,.25,.02,.18,.03,.25c0,.07,.01,.11,.01,.12,0,.14,0,.37,0,.68s.02,.65,.03,1.01c.01,.35,.02,.69,.04,1.01,.01,.32,.01,.55,0,.68v1.05l-.05,1.33v1.54c0,.15,0,.25-.01,.29v.62s0,.04,0,.07,0,.06,0,.1v.75c0,.09-.01,.18-.04,.26-.02,.08-.06,.15-.12,.22-.06,.07-.14,.13-.26,.19-.09,0-.16,.01-.22,.04s-.12,.01-.18-.06Z"/><path class="cls-11" d="M264.88,86.37c0-.06,.01-.13,.04-.18,.02-.06,.04-.12,.04-.18,0-.25-.01-.5-.04-.74-.03-.24-.04-.49-.04-.74v-.5c.02-.52,.06-1.02,.12-1.5,.05-.48,.13-.95,.23-1.41s.23-.91,.39-1.36c.16-.45,.36-.9,.59-1.35,0-.02,.03-.06,.07-.13,.04-.07,.07-.14,.11-.22s.07-.15,.1-.22c.03-.07,.05-.11,.06-.13,.02-.02,.05-.07,.11-.15,.06-.07,.1-.12,.12-.13,.03-.04,.09-.1,.17-.18,.08-.08,.16-.16,.24-.24,.08-.08,.16-.15,.23-.22,.07-.06,.11-.11,.13-.12,0,0,.03-.03,.08-.06,.04-.03,.1-.07,.16-.1,.06-.04,.12-.07,.18-.11s.1-.06,.13-.08,.08-.04,.13-.07c.06-.03,.11-.06,.17-.09s.11-.05,.17-.07c.05-.02,.09-.03,.1-.03,.05-.02,.14-.06,.28-.12,.14-.05,.29-.11,.45-.16,.16-.05,.31-.1,.45-.14,.14-.04,.24-.07,.3-.09,.03,0,.08-.02,.15-.04,.06-.02,.13-.03,.21-.05,.07-.02,.14-.03,.21-.04,.07-.01,.12-.02,.14-.03h.65c.3,0,.57,.02,.8,.07s.5,.11,.78,.2c.32,.06,.63,.14,.93,.25s.59,.24,.87,.38,.55,.29,.81,.44c.26,.15,.51,.29,.74,.42,0,0,.02-.03,.02-.08,0-.04,.02-.09,.02-.15s.01-.1,.02-.15c0-.05,0-.08,0-.1v-.1c0-.38-.01-.76-.04-1.14-.03-.38-.04-.76-.04-1.14v-.5c0-.09,.01-.21,.01-.37s0-.31,0-.48c0-.16,0-.31-.01-.46s0-.25,0-.31c.02-.1,.04-.2,.07-.3,.03-.1,.05-.16,.05-.18l.07-.07c.07,0,.15-.02,.22-.02,.07,0,.13-.02,.18-.02,.06,0,.11-.02,.15-.02,.28-.02,.52-.03,.73-.04,.21,0,.43-.01,.67-.01,.2,0,.39,0,.56-.02,.17-.01,.33-.02,.49-.03,.16,0,.32,0,.49,0,.17,0,.35,.02,.54,.05,.19,.11,.29,.22,.32,.35,0,.02,0,.06,0,.12,0,.06,0,.12,0,.19s0,.13,0,.19,0,.1,0,.13c0,.04,0,.1,0,.17s0,.14,0,.2,0,.12,0,.18c0,.05,0,.08,0,.09-.02,.43-.03,.85-.03,1.25s0,.8,0,1.2,0,.79-.01,1.2c0,.4-.02,.82-.04,1.25-.02,.46-.04,.96-.05,1.48-.02,.52-.03,1.02-.03,1.48,0,.07,0,.21,0,.44,0,.23,0,.47,.01,.74,0,.26,0,.51,.01,.74,0,.23,0,.38,0,.45,0,0,0,.05,0,.12,0,.07,0,.16,0,.26s0,.21,0,.31c0,.11,0,.19,0,.24,0,.07,0,.15,0,.26,0,.11,0,.21,0,.32s0,.2,0,.29c0,.09,0,.13,0,.14,0,.02,0,.08-.02,.17-.01,.09-.02,.18-.04,.28-.01,.1-.03,.19-.04,.27s-.02,.14-.02,.16c0,.04,.01,.13,0,.26,0,.13-.01,.27-.02,.42s-.01,.29-.02,.42,0,.23,0,.27c0,.04,0,.15,0,.33,0,.18,0,.37-.01,.57,0,.2,0,.4-.01,.57,0,.18,0,.29,0,.33,0,.02,0,.06,0,.14s0,.17,0,.27,0,.21,0,.32c0,.11,0,.19,0,.24,0,.04,0,.12,0,.25,0,.13,0,.26,0,.41s0,.29,0,.42c0,.13,0,.21,0,.24-.02,.17-.11,.29-.29,.37-.18,.07-.38,.12-.6,.13-.22,.02-.43,.02-.62,.01-.19,0-.3,0-.34,.01h-.37c-.13,0-.25,.02-.37,.07h-1.55l-.12-.13-.15-1.2c-.33,.31-.69,.55-1.06,.72-.37,.17-.73,.3-1.08,.4s-.67,.15-.96,.18-.52,.05-.7,.07h-.39c-.12,0-.28-.02-.48-.02-.2,0-.4-.01-.61-.02-.21,0-.39-.01-.56-.02-.17,0-.28-.02-.33-.02-.06,0-.15-.03-.27-.05s-.25-.06-.38-.09-.26-.06-.38-.09c-.12-.03-.2-.06-.24-.07-.02,0-.08-.03-.16-.07-.08-.04-.17-.08-.26-.12s-.17-.09-.25-.13c-.08-.04-.13-.08-.17-.1-.04-.02-.11-.07-.21-.13-.1-.06-.2-.13-.31-.21s-.21-.14-.3-.21c-.09-.06-.15-.11-.18-.15-.05-.06-.09-.11-.13-.16-.04-.04-.08-.09-.12-.13-.04-.05-.07-.09-.1-.11-.2-.26-.36-.52-.48-.77-.13-.26-.26-.54-.41-.85-.09-.19-.18-.38-.28-.59s-.17-.41-.22-.6c0-.02-.02-.07-.04-.16-.02-.09-.04-.19-.06-.29-.02-.11-.04-.2-.06-.29-.02-.09-.04-.14-.04-.16-.02-.02-.04-.05-.07-.11-.03-.06-.06-.09-.07-.11v-.04Zm5.63,.52s.02,.04,.06,.09c.04,.05,.09,.1,.15,.16,.06,.06,.12,.12,.18,.18,.07,.06,.12,.11,.16,.14,.02,.02,.06,.04,.13,.07,.07,.03,.12,.06,.13,.07,.02,.02,.05,.04,.12,.07,.06,.03,.1,.06,.12,.07,.02,.02,.07,.04,.14,.07,.07,.03,.11,.05,.13,.05,.14,.06,.26,.09,.36,.09h.4c.4,0,.79-.06,1.19-.2,.39-.13,.8-.34,1.23-.62,.07-.06,.15-.13,.24-.18,.09-.06,.16-.12,.23-.18,0,0,.02-.04,.06-.09s.09-.1,.14-.16,.1-.12,.15-.17,.07-.08,.08-.1c.02-.03,.05-.09,.09-.17,.04-.08,.09-.17,.13-.26,.04-.09,.09-.17,.13-.25s.07-.14,.09-.18c.02-.06,.04-.12,.05-.15s.02-.09,.02-.15l.05-.16c.03-.07,.06-.19,.1-.35s.1-.38,.17-.67c0-.02,0-.08,.02-.18,.02-.1,.03-.19,.05-.25,0-.04,.01-.11,.02-.2,0-.09,0-.19,0-.29v-.39s0-.07,0-.15c0-.07-.01-.15-.02-.23,0-.08-.02-.16-.02-.23,0-.07-.02-.13-.03-.16,0-.02,0-.04-.02-.07-.02-.03-.03-.06-.05-.07-.02-.02-.04-.05-.08-.09s-.08-.09-.12-.15c-.04-.05-.09-.1-.13-.15s-.08-.09-.09-.11c-.23-.24-.48-.45-.75-.65-.27-.2-.56-.36-.87-.49-.02,0-.06,0-.12-.02-.03,0-.06-.02-.08-.02h-1.67c-.04-.07-.07-.12-.1-.13-.03-.01-.08-.02-.14-.02-.15,0-.3,.02-.48,.05-.17,.03-.34,.08-.5,.15-.16,.07-.32,.15-.46,.24s-.27,.2-.37,.32c-.02,.02-.05,.08-.1,.15s-.11,.16-.18,.26c-.07,.1-.13,.19-.2,.29-.06,.09-.11,.16-.14,.2,0,.02-.01,.04-.04,.08-.03,.04-.04,.06-.04,.08-.14,.24-.27,.49-.38,.73-.12,.24-.2,.51-.24,.81,0,.04-.02,.1-.02,.19,0,.09-.02,.18-.03,.27s-.01,.19-.02,.27c0,.08,0,.14,0,.17,0,.02,0,.08,.02,.18,.02,.09,.03,.15,.05,.18,.03,.07,.06,.18,.11,.33s.1,.3,.15,.45,.09,.29,.13,.42,.07,.21,.09,.24l.65,.96Z"/><path class="cls-11" d="M294.14,96.06c.14-.37,.28-.72,.43-1.05s.29-.66,.42-.98c.13-.32,.26-.63,.37-.93,.11-.31,.21-.61,.29-.92v-.05l.12-.55s.04-.04,.09-.07c.05-.03,.08-.06,.08-.09,0-.02,.01-.05,.03-.1,.02-.05,.04-.11,.06-.16,.02-.05,.04-.11,.06-.16,.02-.05,.04-.09,.04-.1,.03-.1,.05-.19,.07-.27,.02-.09,.02-.17,0-.26l-.24-.56c-.05-.28-.15-.54-.29-.81-.15-.26-.29-.51-.43-.76l-.28-.4s-.02-.04-.02-.06v-.04c-.14-.2-.26-.4-.37-.6s-.21-.42-.3-.62-.2-.42-.3-.62-.21-.41-.34-.62c-.04-.05-.11-.15-.21-.31s-.21-.33-.32-.51c-.12-.18-.23-.36-.34-.53s-.18-.3-.23-.38c-.29-.44-.56-.88-.82-1.33-.27-.45-.53-.9-.79-1.35s-.53-.9-.8-1.34c-.27-.44-.55-.88-.85-1.31,0,0-.01-.02-.01-.02v-.05c-.02-.11,.03-.2,.16-.29,.02,0,.04,0,.07-.01,.03,0,.06-.02,.07-.02,.02,0,.04-.03,.08-.08,.04-.05,.06-.09,.08-.12,.02,0,.06,0,.12-.01,.07,0,.13-.02,.2-.03,.07-.01,.13-.02,.2-.04,.06-.01,.11-.02,.12-.03,.04,0,.15-.04,.33-.09,.18-.05,.37-.1,.58-.16s.4-.12,.58-.17c.18-.05,.29-.09,.34-.1,.02,0,.03,0,.05-.01,.02,0,.03,0,.04,0,.01,0,.02,0,.03,0,.03,0,.06,0,.09-.01,.02,0,.04,0,.06-.01,.04,0,.1-.02,.18-.02,.08,0,.16-.02,.24-.02,.08,0,.15-.01,.22-.01h.13s.06,0,.1,.02,.09,.04,.13,.07c.02,.04,.06,.11,.12,.21s.12,.2,.18,.31,.12,.21,.18,.31c.06,.1,.1,.17,.13,.21,.26,.46,.54,.91,.84,1.34,.3,.43,.59,.87,.87,1.34,0,.02,.03,.06,.05,.12,.03,.06,.06,.12,.1,.19,.04,.07,.07,.13,.1,.18,.03,.06,.05,.09,.06,.1,0,0,.02,.03,.04,.06,.02,.03,.04,.07,.06,.1,.02,.04,.04,.07,.06,.11,.02,.04,.03,.06,.04,.08,.02,.02,.07,.1,.15,.22s.18,.25,.27,.4,.19,.28,.28,.4,.15,.21,.17,.24c.02,.03,.06,.12,.13,.26,.07,.14,.15,.29,.24,.45,.09,.16,.17,.31,.24,.45,.07,.14,.12,.23,.15,.26,0,.02,.01,.04,.04,.07,.03,.03,.05,.05,.07,.07,.02-.08,.03-.18,.04-.3,.01-.12,.03-.21,.04-.27,.07-.38,.14-.75,.23-1.11,.09-.36,.19-.72,.32-1.09,.07-.23,.15-.45,.26-.68,.11-.22,.19-.45,.26-.68,.11-.34,.24-.71,.38-1.11,.14-.4,.27-.76,.39-1.09,0-.02,.03-.08,.06-.16,.03-.08,.07-.17,.11-.27s.08-.19,.11-.27c.03-.08,.05-.13,.06-.16,.03-.1,.06-.18,.08-.26,.02-.07,.04-.14,.07-.21,.02-.06,.06-.13,.1-.19,.04-.06,.09-.13,.16-.2,0,0,.04,0,.08-.01,.04,0,.09-.02,.14-.03s.1-.02,.14-.04c.04-.01,.08-.02,.09-.03,.21-.03,.42-.05,.62-.05s.4,0,.62,0c.04,0,.13,0,.26-.01,.13,0,.27-.01,.43-.02,.15,0,.3,0,.43,0h.26c.07,0,.18-.01,.34-.02s.33,0,.51,0h.51c.16,0,.27,0,.34,.01,.04,.02,.1,.05,.18,.09,.08,.04,.13,.09,.15,.14,0,.07,0,.16,0,.25s-.02,.19-.05,.28-.05,.18-.07,.27-.04,.16-.06,.21c-.11,.4-.21,.78-.32,1.15-.11,.37-.23,.73-.35,1.09-.12,.36-.25,.72-.39,1.07-.14,.36-.29,.72-.45,1.09-.28,.62-.54,1.28-.78,1.98-.24,.7-.47,1.37-.69,2-.09,.27-.2,.56-.34,.87-.14,.31-.28,.59-.41,.84-.09,.16-.17,.33-.24,.49-.07,.17-.12,.33-.17,.49-.03,.15-.06,.27-.08,.38-.03,.11-.05,.21-.09,.31-.03,.1-.07,.2-.12,.31-.04,.11-.1,.23-.15,.38-.02,.05-.04,.14-.05,.27,0,.13,0,.23,0,.29,0,.02-.02,.07-.06,.15-.04,.08-.06,.13-.08,.15,0,0-.01,.03-.04,.06s-.05,.06-.09,.1-.07,.07-.1,.1l-.05,.05s0,.06-.02,.12-.03,.13-.06,.2c-.02,.07-.04,.13-.05,.2-.01,.06-.02,.1-.02,.12-.02,.04-.06,.12-.1,.23s-.09,.23-.14,.35-.09,.24-.13,.35-.07,.19-.1,.23c.02,.19,.02,.33,0,.44-.01,.11-.08,.24-.2,.39l-1.11,3.33s-.03,.06-.06,.12c-.03,.05-.06,.11-.1,.16-.04,.05-.08,.1-.12,.14-.04,.04-.08,.06-.11,.07-.07,.02-.17,.03-.27,.04s-.2,0-.26-.01c-.02,0-.05,0-.1,0-.05,0-.11,.02-.18,.03-.07,.01-.14,.02-.2,.03s-.12,0-.17-.01c-.03,0-.07-.02-.12-.02s-.08,0-.11,0c-.04,0-.12-.02-.24-.04-.12-.02-.25-.04-.4-.07s-.28-.05-.41-.07c-.13-.02-.22-.03-.26-.03-.04,0-.11,.01-.2,.01h-.16s-.06,0-.13-.02c-.07-.01-.15-.02-.24-.03s-.17-.02-.25-.02c-.08,0-.12-.01-.13-.01-.05,0-.11-.01-.18-.04-.07-.02-.13-.08-.18-.16s-.06-.2-.06-.34,.06-.35,.16-.6Z"/><path class="cls-11" d="M312.17,91.86c-.06-.02-.14-.03-.26-.05-.11-.02-.26-.05-.43-.08,0,0-.04,0-.11-.02-.06-.01-.14-.03-.24-.06-.09-.03-.19-.07-.29-.12-.1-.05-.19-.11-.27-.18-.02,0-.05-.02-.1-.04-.05-.02-.11-.04-.18-.07-.07-.03-.12-.05-.18-.07-.05-.02-.09-.03-.1-.04-.15-.06-.29-.13-.42-.23-.13-.1-.26-.2-.38-.31-.12-.11-.24-.21-.35-.32s-.22-.21-.32-.31c-.39-.37-.74-.75-1.05-1.16-.31-.41-.57-.85-.79-1.34-.18-.39-.32-.75-.43-1.07-.11-.32-.19-.64-.24-.95-.06-.31-.1-.64-.12-.97-.02-.33-.03-.72-.03-1.15v-.92c.11-.46,.23-.9,.37-1.31s.31-.8,.51-1.18c.2-.37,.43-.73,.69-1.07s.57-.67,.92-.99c.25-.24,.51-.46,.78-.63,.27-.18,.56-.34,.87-.49,.02,0,.06-.02,.1-.05s.09-.05,.15-.07,.1-.04,.14-.06c.04-.02,.07-.03,.09-.04,.02,0,.08,0,.18-.02s.15-.02,.17-.02c.02-.02,.07-.05,.15-.1s.12-.09,.13-.1c0,0,.03,0,.08-.01,.04,0,.09-.02,.14-.03s.09-.02,.13-.03c.04,0,.06-.02,.07-.02,.03,0,.11-.03,.22-.05,.11-.03,.24-.06,.37-.09,.13-.03,.25-.06,.37-.09,.12-.03,.19-.04,.23-.04,.06-.02,.18-.05,.35-.07s.35-.04,.55-.06c.2-.02,.38-.03,.56-.05,.17-.02,.3-.03,.38-.04h.15s.08,0,.13,0,.08,0,.1,0c.18,0,.34,.02,.49,.02,.15,0,.3,.03,.46,.07,.23,.06,.46,.11,.7,.16s.47,.09,.7,.12c.06,.02,.15,.07,.29,.13,.13,.07,.28,.14,.43,.22,.15,.08,.29,.16,.42,.23s.22,.13,.27,.16c.02,.02,.09,.08,.19,.18s.21,.21,.34,.34c.12,.12,.24,.24,.35,.37,.11,.12,.2,.22,.26,.28,0,.02,.03,.05,.07,.11,.04,.06,.09,.12,.14,.2,.05,.08,.11,.15,.16,.23s.1,.13,.13,.18c.29,.45,.54,.89,.73,1.33,.19,.44,.34,.89,.46,1.34,.11,.45,.2,.92,.25,1.39s.08,.97,.08,1.48v.05c-.02,.14-.03,.33-.06,.57-.02,.24-.04,.48-.06,.71-.02,.24-.04,.45-.05,.63-.02,.19-.03,.3-.04,.33-.06,.42-.14,.81-.26,1.18-.12,.37-.26,.74-.43,1.11-.15,.2-.28,.36-.37,.49-.09,.13-.19,.26-.29,.39s-.21,.26-.33,.42c-.13,.15-.3,.34-.52,.57-.29,.21-.59,.41-.91,.59-.32,.18-.65,.33-.99,.46-.34,.13-.69,.23-1.04,.31-.36,.07-.7,.1-1.04,.09h-.16c-.08,0-.16,0-.26,0-.09,0-.18,0-.26-.01-.08,0-.13,0-.16,0-.02-.02-.04-.03-.09-.05-.04-.02-.07-.02-.08-.02s-.05,0-.11,.01c-.06,0-.12,.02-.19,.03-.07,.01-.13,.02-.2,.03-.06,0-.1,0-.12,0-.03,0-.11,0-.23-.02-.12-.01-.25-.03-.38-.05-.14-.02-.27-.04-.38-.06-.12-.02-.19-.03-.21-.04h-.12l-.31-.09Zm-1.6-8.39c0,.23,.03,.45,.06,.67,.03,.22,.09,.44,.18,.65,0,.02,.02,.06,.06,.13s.06,.12,.06,.13c.03,.11,.07,.22,.1,.34,.03,.12,.07,.24,.1,.37,.04,.12,.08,.24,.13,.35,.05,.11,.11,.22,.18,.31,.02,.02,.06,.07,.12,.13s.11,.12,.17,.18c.06,.06,.11,.12,.16,.17s.08,.08,.1,.09c0,0,.04,.03,.08,.06,.04,.03,.1,.07,.16,.1s.12,.08,.18,.12c.06,.04,.11,.07,.15,.09l.12,.09s.08,.05,.16,.11c.08,.06,.13,.09,.15,.09,.02,.02,.06,.03,.12,.06,.06,.02,.12,.03,.16,.03,.17,.08,.3,.13,.38,.14s.16,.01,.22,0c.06-.01,.12-.02,.2-.04,.07-.01,.18,0,.32,.02,0,0,.04,0,.09,0s.1-.01,.16-.02c.06,0,.11-.02,.17-.02,.06,0,.1-.02,.13-.02,.38-.06,.74-.19,1.07-.39,.33-.2,.62-.46,.87-.76,.25-.3,.44-.64,.58-1.01s.21-.75,.21-1.13c0-.02,0-.12,0-.3,0-.17,.02-.48,.05-.92,0-.21-.04-.42-.13-.62-.09-.2-.16-.41-.23-.62-.11-.33-.3-.6-.56-.82s-.52-.43-.8-.62c-.17-.11-.33-.21-.47-.29s-.29-.14-.43-.19-.3-.09-.46-.11-.34-.04-.54-.05c-.19,0-.35,0-.49,0-.14,0-.3,.03-.49,.07-.2,.04-.42,.1-.63,.17-.22,.07-.43,.17-.63,.27s-.38,.24-.54,.4c-.16,.15-.28,.33-.35,.54l-.21,.59c-.05,.07-.09,.16-.13,.28-.04,.12-.07,.25-.1,.4-.03,.14-.04,.28-.04,.43s.01,.27,.04,.38Z"/><path class="cls-11" d="M323.66,86.45c-.02-.08-.04-.21-.09-.38s-.08-.35-.13-.54c-.04-.19-.08-.37-.12-.54s-.06-.29-.07-.38c0-.03-.01-.1-.02-.21s0-.23-.02-.35c0-.13-.01-.24-.02-.35,0-.11,0-.18-.02-.2,0-.04,0-.09,0-.16,0-.06-.01-.13-.02-.2,0-.06-.02-.13-.02-.18,0-.06-.02-.1-.02-.12l-.05-.12s-.01-.06-.01-.13v-.23c0-.08,0-.15,0-.22,0-.06,0-.11,0-.12-.02-.2-.03-.44-.03-.7,0-.26,0-.52-.01-.79,0-.26,0-.52,0-.78v-.68c0-.28,0-.54,0-.77,0-.23,0-.45,.02-.66s.02-.41,.04-.6c.02-.19,.04-.39,.07-.59,.02-.09,.1-.16,.26-.23,.16-.06,.31-.09,.46-.09h.57c.08,0,.18,0,.31,.02,.13,.02,.25,.03,.38,.06,.13,.02,.24,.04,.34,.05,.1,.02,.15,.03,.17,.04,.02,0,.07,0,.17,.01,.1,0,.2,.02,.31,.03s.21,.02,.31,.04,.16,.02,.18,.03c.03,0,.08,.01,.18,.02s.2,0,.3,0,.21,0,.31,0,.16,.01,.2,.02c.05,.04,.08,.08,.1,.11,.02,.03,.03,.06,.04,.09,0,.03,0,.06,0,.11,0,.04,0,.1,0,.16v.5c-.04,.31-.06,.6-.07,.89,0,.28-.01,.58-.01,.91,0,.52,.01,1.04,.03,1.54,.02,.51,.02,1.06,0,1.67l.07,.66v.2c.04,.2,.07,.41,.08,.62,.02,.21,.03,.43,.06,.64,.02,.22,.05,.43,.08,.65,.03,.22,.09,.43,.16,.64,.02,.04,.04,.1,.07,.17,.03,.07,.06,.14,.09,.21,.03,.07,.06,.14,.08,.2s.04,.1,.05,.1c.06,.15,.15,.29,.28,.4,.13,.11,.27,.21,.41,.29,.14,.08,.28,.14,.4,.19,.13,.04,.21,.07,.25,.08,.02,0,.07,.03,.17,.07s.17,.06,.21,.08c.02,.02,.08,.02,.16,0s.14-.02,.15-.02c.15,0,.34-.03,.58-.08s.49-.17,.75-.34c.3-.33,.52-.65,.67-.99,.14-.33,.24-.68,.29-1.03,.05-.35,.08-.71,.07-1.09,0-.38-.01-.78-.01-1.2v-.4s0-.15,0-.32,0-.36-.02-.56c0-.2-.01-.38-.02-.56,0-.17,0-.28,0-.32v-1.21s-.02-.12-.03-.24c-.01-.12-.03-.27-.06-.43s-.05-.34-.07-.53c-.02-.19-.05-.36-.07-.52-.02-.16-.04-.3-.06-.42-.02-.12-.02-.2-.02-.24l.12-1.05c.03-.06,.08-.1,.15-.12,.07-.02,.14-.03,.23-.04,.08,0,.16,0,.24,0,.08,0,.14,0,.2,0,0,0,.04,0,.08-.01,.04,0,.09-.02,.14-.02,.05,0,.09-.02,.13-.02,.04,0,.07-.01,.07-.01l1.49,.11s.09,.03,.18,.03,.2,0,.31,0h.31c.1,0,.15,0,.17,.01,.05,0,.12-.02,.23-.02,.1,0,.21-.01,.32-.02,.11,0,.21,0,.31-.01,.09,0,.16,0,.19,0l.15,.05c.1,0,.17,.04,.23,.12s.09,.18,.12,.31c.03,.13,.05,.27,.05,.45,0,.17,.01,.35,.01,.55v.23c0,.16,0,.33-.02,.49-.02,.16-.03,.33-.05,.49,0,.05-.01,.16-.01,.34s0,.36,0,.56c0,.2,0,.38,0,.56s0,.29-.01,.34c0,.03,0,.12-.03,.25-.02,.13-.04,.28-.07,.43-.02,.15-.05,.3-.07,.43-.02,.13-.04,.22-.04,.25,0,.04,0,.14-.02,.29-.01,.15-.03,.33-.04,.52-.02,.19-.04,.38-.05,.56-.02,.18-.04,.32-.04,.42,0,.02,0,.06-.02,.14-.01,.08-.03,.16-.04,.24s-.03,.17-.05,.24-.03,.12-.04,.14v.3c0,.07,0,.13,0,.2,0,.06-.01,.1-.02,.1,0,0,0,.03-.02,.07-.01,.04-.03,.09-.04,.13-.02,.05-.03,.1-.04,.14s-.02,.07-.02,.08c-.07,.31-.13,.6-.18,.86s-.09,.52-.13,.77c-.04,.25-.1,.5-.16,.76s-.14,.54-.25,.84c-.06,.17-.15,.37-.29,.59s-.29,.44-.45,.65-.31,.42-.46,.6c-.15,.18-.27,.32-.36,.4-.11,.15-.25,.29-.44,.4s-.39,.21-.61,.29-.44,.16-.66,.23-.41,.13-.56,.19c-.26,.11-.53,.17-.8,.19-.27,.02-.55,.03-.82,.03-.24,0-.49,0-.74,0s-.5,0-.75-.01c-.25-.01-.5-.04-.75-.09-.25-.05-.49-.12-.71-.22-.48-.21-.93-.46-1.35-.74-.42-.28-.84-.59-1.25-.93-.05-.04-.11-.1-.19-.19-.08-.09-.16-.17-.24-.26-.09-.09-.17-.17-.26-.25-.08-.08-.16-.13-.21-.15,.03,.02,.02-.04-.04-.18s-.14-.35-.26-.61c-.04-.09-.09-.22-.15-.4-.06-.18-.11-.37-.16-.58-.05-.21-.1-.41-.15-.61-.04-.2-.08-.36-.09-.48Z"/><path class="cls-11" d="M184.22,111.65c0,.07-.01,.13-.04,.18-.02,.06-.04,.12-.04,.18,0,.25,.01,.5,.04,.74s.04,.49,.04,.74v.5c-.02,.52-.06,1-.11,1.44s-.12,.86-.22,1.28-.23,.82-.38,1.23c-.16,.41-.36,.83-.59,1.28-.02,.02-.04,.06-.07,.13-.03,.07-.07,.14-.1,.22-.04,.08-.07,.15-.1,.22l-.06,.13s-.05,.07-.11,.15-.1,.12-.12,.13c-.04,.04-.1,.1-.19,.18-.09,.08-.18,.15-.27,.23-.09,.08-.18,.15-.26,.21-.08,.07-.12,.1-.14,.11-.02,.02-.08,.08-.19,.15-.11,.08-.2,.14-.26,.18-.03,.02-.08,.04-.13,.07-.06,.03-.11,.06-.17,.09-.06,.03-.11,.05-.17,.07-.05,.02-.09,.03-.1,.03-.05,.02-.14,.06-.27,.1-.13,.04-.28,.09-.43,.13-.15,.04-.29,.08-.43,.12s-.24,.06-.29,.07c-.03,.02-.08,.03-.15,.04-.07,.01-.13,.03-.21,.04-.07,.02-.14,.03-.21,.04s-.12,.02-.14,.03h-1.48c-.26,0-.53-.04-.81-.12-.63-.11-1.24-.26-1.82-.43s-1.1-.39-1.56-.65c0,.02-.02,.04-.02,.09,0,.04-.02,.09-.03,.14s-.01,.1-.02,.15,0,.08,0,.1v.1c0,.38,.01,.76,.04,1.14s.04,.76,.04,1.14v.5c0,.09-.02,.26-.02,.51,0,.25-.02,.51-.03,.77s-.01,.52-.02,.75,0,.38,0,.45c-.02,.1-.04,.2-.07,.3-.03,.1-.05,.16-.05,.18l-.07,.07c-.07,0-.15,.02-.22,.02-.06,0-.13,.02-.18,.02-.06,0-.11,.02-.15,.02-.28,.02-.52,.03-.73,.04-.21,0-.43,.01-.67,.01-.2,0-.39,0-.56,.02s-.33,.02-.49,.03c-.16,0-.32,.01-.49,0-.17,0-.35-.02-.54-.06-.19-.11-.29-.22-.32-.35,0-.02,0-.05,0-.11s0-.12,0-.19,0-.13,0-.2c0-.06,0-.1,0-.13,0-.04,0-.09,0-.16,0-.06,0-.13,0-.2s0-.13,0-.18c0-.05,0-.08,0-.09,.02-.43,.03-.89,.04-1.39,.01-.49,.02-.99,.04-1.5,.01-.5,.03-1,.04-1.5s.03-.95,.05-1.39c.02-.46,.03-.96,.05-1.48s.03-1.02,.03-1.48v-.24c0-.12,0-.26,0-.42s0-.33-.01-.51,0-.36-.01-.52c0-.16,0-.31,0-.43v-.24s0-.05,0-.12c0-.07,0-.16,0-.26s0-.2,0-.31,0-.19,0-.25,0-.15,0-.26c0-.11,0-.21,0-.32s0-.2,0-.28c0-.08,0-.13,0-.15,0-.02,0-.08,.02-.17,.01-.09,.02-.18,.04-.28,.01-.1,.02-.19,.04-.27,.01-.09,.02-.14,.02-.17,0-.04-.01-.13,0-.26,0-.13,0-.27,.01-.42s0-.29,.02-.42,.01-.23,.01-.27c0-.04,0-.15,0-.33,0-.18,0-.37,.01-.57,0-.2,0-.39,.01-.57,0-.18,0-.29,0-.33,0,0,0-.05,0-.13,0-.08,0-.17,0-.28s0-.21,0-.31,0-.19,0-.25c0-.03,0-.11,0-.24,0-.13,0-.27,0-.42s0-.28,0-.41,0-.21,0-.25c.02-.17,.11-.29,.29-.37,.18-.07,.38-.12,.6-.13,.22-.02,.42-.02,.62-.01,.19,0,.3,0,.34-.01h.37c.13,0,.25-.02,.37-.07h1.55l.12,.13,.15,1.2c.33-.3,.69-.54,1.06-.71,.37-.17,.73-.31,1.08-.4s.67-.15,.96-.18,.52-.05,.7-.07h.39c.12,0,.27,.02,.46,.04,.18,.02,.37,.04,.56,.07,.19,.03,.36,.05,.51,.07s.26,.03,.32,.04c.06,.02,.15,.04,.27,.06,.12,.02,.25,.05,.38,.09,.13,.03,.26,.06,.38,.09,.12,.03,.2,.05,.24,.07,.02,0,.08,.03,.16,.07,.08,.04,.17,.08,.26,.12s.17,.09,.25,.13,.13,.08,.17,.1c.04,.02,.11,.07,.2,.13,.09,.07,.18,.13,.28,.21s.19,.14,.27,.21c.09,.07,.14,.12,.18,.15,.06,.06,.11,.11,.17,.16,.05,.04,.1,.08,.14,.13s.08,.08,.12,.1c.2,.26,.38,.49,.56,.7,.17,.21,.34,.47,.48,.77,.09,.19,.18,.38,.28,.59s.17,.41,.22,.6c0,.02,.02,.07,.04,.16,.02,.09,.04,.19,.06,.29,.02,.11,.04,.2,.06,.29,.02,.09,.03,.14,.04,.16,.02,.02,.04,.05,.07,.11,.03,.06,.06,.09,.07,.11v.04Zm-5.63-.52s-.02-.04-.06-.09c-.04-.05-.09-.1-.15-.16-.06-.06-.12-.12-.18-.18-.07-.06-.12-.11-.16-.14-.02-.02-.06-.04-.13-.07-.07-.03-.12-.06-.13-.07-.02-.02-.05-.04-.12-.07-.06-.03-.1-.06-.12-.07-.02-.02-.07-.04-.14-.07-.07-.03-.11-.05-.13-.05-.14-.06-.26-.09-.36-.09h-.4c-.4,0-.8,.07-1.19,.2-.39,.13-.8,.34-1.23,.62-.07,.07-.15,.13-.24,.18-.08,.06-.16,.12-.23,.18,0,0-.02,.04-.06,.09s-.09,.1-.14,.17c-.05,.06-.1,.12-.15,.17-.04,.05-.07,.08-.08,.09-.02,.04-.05,.1-.09,.18s-.09,.16-.13,.25c-.04,.09-.09,.18-.13,.26-.04,.08-.08,.14-.09,.17-.02,.07-.04,.12-.05,.15-.01,.04-.02,.09-.02,.15,0,.02-.02,.08-.05,.17-.02,.08-.06,.2-.1,.35s-.1,.37-.17,.65c0,.02,0,.08-.02,.18-.02,.1-.03,.19-.05,.25,0,.04-.01,.11-.02,.21,0,.1,0,.2,0,.29v.38s0,.07,0,.15c0,.07,.01,.15,.02,.23,0,.08,.02,.16,.02,.23,0,.07,.02,.13,.02,.16,0,.02,0,.04,.02,.07,.02,.03,.03,.06,.05,.07,0,.02,.03,.05,.07,.09s.08,.09,.13,.15c.04,.05,.09,.1,.13,.15,.04,.05,.08,.09,.09,.11,.11,.12,.23,.22,.36,.28,.13,.07,.26,.12,.4,.17,.14,.04,.28,.09,.43,.13,.15,.04,.3,.09,.46,.16,.02,0,.06,0,.12,.02,.03,0,.06,.02,.08,.02h1.67c.04,.07,.08,.12,.1,.13s.08,.02,.14,.02c.15,0,.31-.02,.48-.05,.17-.03,.34-.08,.5-.15s.32-.15,.46-.24,.27-.2,.37-.32c0-.02,.04-.08,.1-.15,.06-.08,.12-.17,.18-.26,.07-.1,.13-.19,.2-.29,.07-.09,.11-.16,.15-.2,0-.02,.01-.04,.04-.08s.04-.06,.04-.08c.14-.24,.27-.49,.38-.73s.2-.51,.24-.81c.02-.08,.03-.17,.04-.26s.01-.17,.01-.24c0-.02,0-.08-.02-.18-.02-.09-.03-.15-.05-.18-.02-.07-.06-.18-.11-.33s-.1-.29-.15-.45-.1-.29-.14-.42-.07-.21-.08-.24l-.65-.96Z"/><path class="cls-11" d="M189.67,121.83s-.09,0-.2,.02c-.11,.02-.22,.03-.35,.05-.13,.02-.24,.03-.35,.05-.11,.02-.17,.02-.2,.02-.35,0-.7,.02-1.05,.05-.35,.03-.7,.05-1.05,.05-.07,0-.1,0-.1-.01,0,0-.03-.01-.08-.01-.03-.02-.06-.05-.11-.1s-.08-.09-.11-.1v-.07s0-.04,0-.1c0-.06,0-.12-.02-.18,0-.06-.01-.12-.02-.17,0-.05,0-.09,0-.1,0-.04-.02-.12-.02-.23,0-.11-.02-.23-.03-.35s-.01-.23-.02-.34,0-.17,0-.21c0-.15,0-.4,0-.73s0-.7,.01-1.12,0-.85,.02-1.31c0-.46,.01-.9,.02-1.31s0-.78,.01-1.1c0-.33,0-.57,0-.72,0-.05,0-.14,0-.27s0-.27-.02-.42c0-.15-.02-.29-.03-.42s-.02-.23-.02-.27l-.39-10.07s0-.06,0-.11c0-.05,0-.1-.01-.16,0-.06,0-.12,0-.18s0-.1,.01-.13c.02-.12,.03-.22,.05-.3s.08-.12,.17-.12c.03,0,.09,0,.16-.01,.07,0,.15-.02,.23-.02,.08,0,.15-.02,.23-.02,.08,0,.14-.01,.19-.01h2.08s.04,0,.1-.01c.06,0,.12-.02,.2-.02,.07,0,.14-.01,.21-.01s.11,0,.13,.01c.19-.03,.33,0,.43,.09,.1,.09,.17,.2,.21,.34,.04,.14,.07,.29,.06,.44,0,.15-.01,.29-.02,.39,0,.02,0,.08,.01,.18s.02,.2,.03,.32c0,.12,.02,.23,.02,.35,0,.11,.02,.2,.03,.26v.1c0,.07,0,.12-.03,.17-.02,.04-.03,.09-.05,.14l.07,1.86v.14c0,.08,0,.16,0,.26s0,.18,.01,.27,.01,.14,.03,.15c.02,.38,.04,.66,.05,.82,.01,.16,.02,.27,.02,.31,0,.04,0,.06,0,.05,0-.01,0,0,0,.04s0,.12,.01,.26c0,.14,.02,.38,.04,.73v.7c.02,.07,.04,.16,.06,.27s.04,.21,.04,.27l.11,1.15v.02s-.01,.05,0,.12c0,.07,0,.16,.02,.25,0,.09,.02,.18,.02,.25s.01,.11,.01,.12c0,.14,0,.37,0,.68,0,.32,.02,.65,.03,1.01,.01,.35,.02,.69,.04,1.01,.01,.32,.01,.55,0,.68v1.05l-.05,1.33v1.54c0,.15,0,.25-.01,.29v.62s0,.04,0,.07c0,.03,0,.06,0,.1v.75c0,.09-.01,.18-.04,.26-.03,.08-.07,.15-.12,.22s-.14,.13-.26,.19c-.09,0-.16,.01-.22,.04-.06,.03-.12,.01-.18-.06Z"/><path class="cls-11" d="M192.12,113.79c.05-.3,.11-.6,.18-.88,.07-.29,.15-.58,.24-.87,.06-.21,.12-.4,.16-.56,.04-.16,.1-.35,.17-.55,0-.02,.01-.06,.03-.13,.02-.07,.04-.15,.07-.24,.03-.09,.05-.16,.08-.23,.03-.07,.04-.11,.05-.13,.09-.28,.22-.54,.39-.77,.17-.23,.35-.46,.54-.68,0,0,.04-.04,.08-.09s.1-.11,.15-.17,.11-.12,.16-.18c.05-.06,.09-.1,.11-.12,0,0,.02-.03,.05-.06,.02-.03,.05-.07,.08-.12,.03-.04,.05-.08,.08-.12,.02-.03,.04-.05,.06-.06,.34-.29,.72-.56,1.13-.79,.41-.24,.84-.44,1.28-.61,.44-.17,.9-.3,1.36-.4,.46-.09,.91-.14,1.36-.15,.5-.04,1.03-.03,1.57,.02,.54,.06,1.05,.19,1.53,.4,.4,.12,.74,.26,1.03,.42,.29,.15,.53,.31,.73,.45,.2,.15,.36,.28,.49,.4,.13,.12,.24,.2,.34,.25,.25,.22,.48,.44,.68,.65,.2,.21,.39,.43,.55,.66,.17,.23,.32,.47,.47,.73s.29,.54,.43,.86c.02,.07,.06,.21,.1,.4,.04,.19,.09,.39,.14,.6,.05,.21,.09,.41,.13,.6s.07,.32,.07,.4c0,.02,.01,.05,.02,.11,0,.06,0,.13,0,.21v.43s0,.12,0,.2,0,.17,0,.26v.23c0,.07,0,.1-.01,.11,0,.02-.01,.08-.04,.15s-.05,.16-.07,.24-.05,.17-.07,.24c-.02,.08-.03,.12-.03,.14-.16,.16-.33,.27-.5,.34-.17,.06-.36,.1-.59,.12-.22,.02-.49,.03-.8,.03-.31,0-.69,.03-1.14,.08h-.63c-.15,0-.28,0-.4,0-.12,0-.2,0-.23,0h-.12s-.05,.03-.1,.04c-.05,0-.11,.01-.17,0-.06,0-.11-.01-.15-.03-.04-.02-.07-.04-.08-.07,0,0-.04,0-.11,0s-.14,0-.21,0h-.23c-.08,0-.13,0-.15-.01,0,0-.02,.01-.04,.01h-.06c-.2,0-.42,.02-.67,.02-.25,0-.51,.02-.77,.02-.27,0-.52,.01-.78,.02-.25,0-.48,0-.67,0-.29,.02-.55,.02-.79,0s-.46-.02-.67-.04c-.21-.01-.44-.02-.67-.03-.23,0-.49,0-.79,0-.04,0-.08,0-.12,0-.04,0-.07,.03-.09,.07,0,.04,0,.1,.03,.18,.02,.08,.03,.13,.03,.16,.07,.29,.12,.5,.15,.63,.03,.13,.06,.22,.08,.27s.05,.1,.09,.13,.1,.11,.18,.23c0,0,.01,.03,.04,.06,.03,.03,.06,.06,.1,.09,.04,.03,.07,.06,.1,.09,.03,.03,.04,.05,.04,.05,.27,.43,.62,.74,1.06,.93s.89,.28,1.36,.26c.06,0,.15,0,.27,0,.11,0,.18,0,.2,0,.16-.02,.28-.02,.35-.02s.13,.01,.18,.02c.05,0,.1,.01,.15,.02,.05,0,.14,0,.26-.02,.12-.02,.28-.05,.49-.09,.21-.04,.49-.11,.86-.2,0,0,.05-.02,.13-.06s.17-.09,.26-.13c.09-.05,.18-.1,.27-.14s.14-.07,.15-.08c.21-.13,.4-.26,.57-.38,.17-.13,.33-.24,.47-.35,.14-.11,.28-.2,.4-.28,.12-.08,.25-.15,.37-.2h.07s.04,0,.07,.02c.03,.02,.05,.04,.05,.05,.07,.07,.18,.15,.33,.25s.29,.21,.45,.31c.15,.11,.29,.21,.43,.31s.24,.19,.3,.26c.03,.02,.08,.06,.17,.12,.09,.07,.18,.14,.28,.21s.18,.15,.26,.22c.07,.07,.11,.11,.11,.12v.05s0,.03,0,.04c0,0,0,.02,0,.04,0,.2-.05,.38-.18,.54-.13,.15-.26,.31-.4,.45-.38,.42-.79,.82-1.21,1.21-.43,.39-.89,.72-1.4,.98-.16,.07-.33,.13-.49,.17-.16,.04-.33,.08-.49,.14-.21,.06-.42,.11-.61,.14-.2,.03-.39,.05-.57,.05-.19,0-.38,.01-.58,0-.2,0-.41,0-.64,0-.59,.02-1.14,0-1.67-.06-.53-.06-1.07-.17-1.64-.33-.21-.06-.41-.14-.59-.21-.18-.08-.35-.16-.51-.26-.16-.09-.32-.2-.47-.32s-.31-.25-.48-.38c-.29-.24-.57-.48-.87-.71-.29-.23-.57-.5-.83-.81-.02,0-.05-.06-.1-.15-.05-.09-.08-.15-.09-.17-.02-.02-.05-.05-.1-.12s-.1-.13-.15-.2c-.05-.07-.11-.13-.16-.2s-.08-.1-.09-.12c-.02-.02-.05-.09-.1-.19s-.11-.22-.18-.35c-.07-.13-.13-.27-.2-.4-.06-.13-.11-.24-.14-.32-.02-.02-.03-.05-.05-.1s-.02-.08-.02-.1c-.1-.54-.18-1.06-.25-1.57-.07-.51-.1-1.05-.09-1.6v-.06Zm8.69-3.91c-.42,0-.8,.06-1.16,.15-.36,.09-.71,.26-1.05,.49-.12,.07-.24,.17-.38,.28-.14,.11-.28,.24-.42,.37-.13,.13-.25,.28-.33,.43-.09,.15-.13,.3-.13,.45,.21-.02,.41-.04,.59-.07,.18-.03,.37-.05,.57-.06h.05s.07,.01,.15,.02c.08,0,.18,0,.28,.01,.1,0,.2,0,.29,.01s.15,0,.17,0h1.17c.07,0,.17,0,.3-.01,.13,0,.26-.02,.4-.02,.13,0,.25-.01,.36-.02,.11,0,.17,0,.18,0,.08,0,.23,0,.45,0,.22,0,.45,0,.69-.01s.47-.01,.69-.02c.21,0,.36-.02,.45-.02,.02,0,.03,0,.05-.02l.02-.02s0-.04-.02-.07c-.02-.03-.03-.06-.05-.07-.02-.03-.04-.08-.07-.13-.03-.05-.06-.11-.09-.16s-.06-.1-.08-.13c-.03-.04-.04-.06-.05-.07-.36-.45-.81-.78-1.36-.99-.55-.21-1.1-.31-1.65-.29Z"/><path class="cls-11" d="M221.38,122.12c-.1-.06-.14-.14-.13-.24,.01-.11,.01-.21,0-.31,0-.02-.01-.04-.04-.07-.02-.03-.04-.06-.04-.07v-.11c0-.11,.03-.22,.07-.31,.05-.09,.07-.19,.07-.29v-.07s-.06,0-.12,.02c-.05,.02-.09,.03-.1,.05-.06,.04-.15,.1-.28,.18-.13,.08-.26,.17-.41,.26-.15,.09-.29,.17-.43,.24s-.24,.11-.32,.12l-.95,.39h-.07s-.04,0-.08,.01c-.04,0-.08,.02-.13,.03s-.09,.02-.13,.03c-.04,0-.07,.01-.08,.01h-1.16c-.12,0-.24,0-.35-.01-.11,0-.22-.02-.34-.02-.12,0-.25-.02-.4-.05-.02,0-.06-.02-.13-.04-.07-.02-.14-.03-.22-.05-.08-.02-.15-.03-.22-.04-.07-.01-.11-.02-.13-.02h-.63l-.4-.16c-.06-.02-.14-.07-.26-.13-.12-.06-.24-.13-.38-.21-.13-.07-.26-.14-.38-.21-.12-.06-.21-.11-.27-.13-.05-.02-.12-.06-.22-.1s-.2-.09-.3-.15-.2-.1-.29-.14c-.09-.04-.15-.07-.17-.09,0,0-.03-.03-.06-.05s-.07-.06-.12-.1c-.04-.04-.09-.08-.13-.12-.04-.04-.08-.06-.1-.08-.2-.2-.4-.43-.59-.67s-.37-.48-.56-.7c-.17-.2-.31-.47-.43-.81-.11-.33-.21-.69-.28-1.06-.07-.37-.13-.73-.16-1.09-.03-.36-.05-.67-.05-.93,0-.33,0-.64,0-.93,0-.28,.02-.56,.05-.84,.03-.27,.07-.55,.13-.82,.06-.28,.14-.57,.24-.89,0-.05,.04-.15,.09-.31,.05-.16,.11-.32,.17-.48s.11-.29,.15-.38,.06-.1,.05-.01c.13-.37,.3-.72,.51-1.04s.45-.62,.72-.9c.27-.28,.56-.53,.87-.77,.31-.24,.64-.46,.97-.66,.03-.02,.11-.07,.23-.13s.24-.12,.38-.19c.13-.06,.26-.13,.39-.19s.21-.1,.26-.12c0,0,.03-.02,.08-.03,.04-.01,.1-.03,.16-.04,.06-.02,.12-.03,.18-.04l.15-.03s.11-.03,.2-.05c.08-.02,.13-.02,.15-.02h2.41c.28,.08,.56,.16,.83,.23,.27,.07,.53,.15,.77,.26,.25,.1,.49,.22,.72,.37,.23,.14,.46,.33,.68,.56h.05s0-.06,0-.1c0-.04,0-.09,0-.14s0-.1,0-.14c0-.04,0-.08,0-.09,0,0,0-.04,.01-.09s.02-.1,.03-.16c.01-.06,.02-.11,.04-.15,.01-.04,.02-.07,.02-.08-.04-.06-.04-.12-.01-.18s.08-.11,.14-.15c.06-.04,.13-.07,.2-.08s.13,0,.18,.03c.41,0,.77,0,1.07,0,.31,0,.61,.01,.9,.02s.6,.03,.91,.07c.31,.03,.67,.07,1.08,.12,.02,.02,.07,.04,.12,.07s.09,.06,.09,.1c0,.07,0,.16,.01,.27,0,.11,.02,.22,.02,.34,0,.12,.02,.23,.02,.34s0,.21,0,.29c0,.02,0,.07-.01,.15,0,.08-.02,.17-.03,.27s-.02,.19-.02,.27c0,.08-.01,.13-.01,.15,0,.02-.01,.08-.04,.18-.03,.09-.04,.15-.04,.16,0,.02,0,.08,0,.15s0,.16,0,.24v.24c0,.08,0,.12-.01,.14,0,.02,0,.06-.02,.11s-.03,.09-.05,.11l-.02,2.88v.73c0,.31,0,.69,0,1.15s0,.97,.02,1.53c0,.56,.02,1.12,.02,1.68s.02,1.08,.02,1.58c0,.5,.02,.91,.04,1.25,0,.02,0,.09-.02,.19-.01,.1-.02,.21-.04,.34-.01,.12-.02,.23-.04,.34-.01,.1-.01,.16,0,.19v.2s-.07,.05-.16,.09c-.09,.03-.15,.06-.17,.07-.22,0-.41,0-.57,.02-.16,.02-.31,.03-.45,.06-.14,.02-.29,.04-.44,.05-.15,.02-.33,.02-.56,.01h-.57c-.06,0-.15,0-.29,0-.13,0-.28-.01-.43-.02-.15,0-.29-.02-.43-.02-.13,0-.23-.02-.29-.02Zm-7.21-8.03c0,.43,.07,.83,.21,1.2s.33,.73,.55,1.09c.02,.02,.04,.06,.07,.12,.03,.05,.06,.08,.07,.08,.2,.21,.4,.42,.6,.61,.21,.2,.43,.37,.66,.52,.23,.15,.48,.27,.74,.36,.26,.09,.54,.13,.86,.13,.26,0,.52-.04,.79-.13,.27-.09,.52-.18,.76-.28,.03-.02,.08-.04,.14-.07l.18-.09c.06-.03,.11-.06,.16-.08,.04-.02,.08-.04,.09-.05,.3-.23,.55-.5,.75-.81s.35-.65,.47-1c.12-.35,.2-.72,.24-1.1s.08-.74,.09-1.09c0-.04,0-.11,0-.21s-.01-.2-.02-.31c0-.11-.02-.21-.02-.3s-.02-.16-.02-.19l-.11-.22c-.03-.06-.06-.13-.1-.18-.03-.06-.06-.11-.07-.15-.16-.31-.33-.61-.5-.9s-.39-.52-.67-.69c-.07-.05-.14-.1-.22-.16s-.17-.12-.26-.18-.19-.12-.27-.17c-.09-.05-.17-.09-.24-.1-.03,0-.09-.02-.18-.05-.09-.02-.18-.05-.28-.07s-.19-.04-.27-.06c-.08-.02-.14-.03-.18-.04-.05-.07-.12-.12-.22-.13s-.21-.01-.32,0c-.12,.01-.23,.03-.35,.05-.12,.02-.21,.04-.28,.04-.12,0-.25,.02-.39,.07s-.27,.1-.4,.18c-.13,.07-.25,.15-.37,.24-.12,.09-.22,.18-.31,.28-.02,.02-.05,.06-.1,.12-.05,.07-.11,.13-.17,.2-.06,.07-.12,.14-.18,.2-.06,.07-.09,.11-.1,.12-.31,.34-.53,.74-.65,1.21-.07,.33-.12,.65-.15,.98s-.04,.67-.04,1.01Z"/><path class="cls-11" d="M229.78,121.59c-.28-.15-.54-.28-.77-.42-.24-.13-.48-.29-.73-.48-.11-.11-.24-.21-.37-.31-.13-.1-.25-.2-.36-.31-.11-.1-.2-.21-.27-.32-.07-.11-.11-.24-.12-.37,0-.04,0-.1,0-.16,0-.07,0-.11,0-.13,.02-.05,.05-.09,.08-.13,.02-.04,.03-.07,.05-.1s.03-.04,.04-.05c.02-.02,.05-.05,.11-.12,.06-.06,.12-.12,.18-.19,.07-.06,.13-.13,.19-.19,.06-.06,.1-.1,.13-.13,.02-.02,.05-.06,.1-.14s.09-.13,.1-.15c.05-.05,.11-.11,.19-.18,.08-.07,.15-.15,.23-.22,.07-.07,.14-.14,.2-.2,.06-.06,.1-.1,.13-.13,.03-.02,.1-.06,.19-.11,.09-.05,.16-.08,.19-.09h.16c.07,0,.13,.03,.18,.09,.06,.06,.11,.12,.17,.19,.05,.07,.11,.14,.18,.21,.07,.07,.13,.12,.21,.15,.17,.1,.35,.21,.54,.34,.19,.13,.4,.25,.63,.37,.23,.12,.48,.22,.76,.31,.27,.09,.57,.14,.9,.15,.06,.05,.15,.06,.27,.03,.13-.03,.25-.08,.38-.15,.13-.07,.24-.16,.34-.26s.15-.2,.16-.29c0-.06,0-.13-.01-.23s-.02-.2-.04-.3c-.02-.1-.04-.2-.07-.28-.03-.09-.05-.15-.09-.2-.29-.4-.59-.74-.9-1.02s-.68-.54-1.11-.78c-.03,0-.09-.04-.19-.11-.1-.06-.21-.13-.34-.21s-.23-.14-.34-.2-.16-.1-.18-.12c-.02-.02-.06-.05-.13-.1-.07-.05-.15-.1-.24-.16-.09-.06-.17-.12-.26-.18-.08-.06-.14-.1-.18-.13-.05-.06-.14-.13-.27-.22-.13-.09-.22-.15-.28-.2-.06-.06-.14-.17-.26-.34s-.24-.34-.38-.53c-.13-.19-.26-.36-.38-.52-.12-.16-.2-.26-.25-.31-.33-.38-.53-.8-.61-1.26-.08-.46-.11-.92-.1-1.37,0-.19,.05-.4,.12-.63,.07-.24,.14-.46,.23-.67,.08-.21,.16-.38,.23-.52,.07-.14,.11-.21,.13-.21,.04-.06,.09-.14,.16-.22,.06-.08,.13-.16,.21-.23s.15-.14,.22-.21c.07-.06,.14-.12,.2-.16,.2-.15,.39-.28,.59-.37,.2-.09,.41-.16,.62-.22,.21-.06,.43-.11,.65-.15,.22-.04,.46-.09,.7-.13,.23-.02,.52-.04,.88-.05,.36-.01,.79,.03,1.3,.13h.05c.34,.05,.68,.13,1.03,.25s.67,.26,1,.44c.33,.17,.63,.37,.93,.59s.57,.46,.82,.71c.03,.05,.09,.12,.16,.21,.07,.09,.15,.18,.22,.27,.07,.09,.14,.17,.2,.24,.06,.07,.1,.12,.12,.13,.03,.05,.05,.1,.06,.14,0,.04,0,.09,0,.14,0,.05-.01,.1-.01,.14s-.03,.08-.08,.1c-.07,.04-.16,.13-.28,.26-.12,.13-.24,.27-.37,.41-.12,.14-.23,.26-.33,.37-.1,.11-.16,.15-.18,.13-.03,.03-.1,.09-.19,.18s-.19,.17-.29,.27-.2,.18-.3,.27-.17,.15-.22,.19c-.07,.06-.13,.11-.17,.15-.04,.04-.11,.06-.2,.05h-.07s-.04-.02-.07-.05c-.03-.02-.07-.05-.1-.07-.04-.02-.07-.05-.1-.07s-.05-.04-.06-.05c-.07-.03-.2-.11-.37-.22-.17-.11-.36-.23-.56-.36s-.38-.25-.55-.36c-.17-.11-.29-.19-.35-.23l-.15-.04c-.07-.02-.14-.03-.22-.05-.08-.02-.15-.03-.22-.05-.07-.02-.12-.03-.15-.04h-.02c-.07,.02-.13,.04-.2,.07-.07,.03-.13,.07-.2,.12-.06,.05-.11,.11-.15,.17-.04,.07-.05,.13-.03,.21,0,.07,0,.16,.01,.27s.05,.21,.1,.26c.2,.3,.45,.57,.77,.8,.32,.23,.64,.41,.98,.53,.54,.21,1.03,.44,1.46,.7,.43,.25,.85,.58,1.26,.99,.02,.02,.08,.08,.15,.17,.08,.09,.17,.18,.26,.27s.19,.19,.27,.28c.09,.09,.14,.15,.18,.18,.04,.04,.1,.1,.17,.18,.07,.08,.11,.12,.11,.13,.02,.04,.06,.1,.12,.18,.05,.08,.11,.17,.16,.27s.11,.19,.17,.27c.05,.09,.09,.15,.12,.19,.05,.07,.09,.16,.12,.28s.05,.26,.06,.4c.01,.15,.02,.3,.02,.45s0,.28,0,.38c0,.02,0,.05,0,.1s0,.1,0,.16,0,.11,0,.17c0,.05,0,.08,0,.09-.1,.77-.34,1.43-.74,2-.4,.57-.89,1.09-1.5,1.58-.2,.15-.39,.28-.59,.38-.2,.1-.42,.18-.66,.24s-.5,.11-.79,.14-.62,.05-1,.06c-.29,0-.59-.04-.9-.11-.3-.06-.61-.14-.91-.23-.3-.09-.6-.17-.9-.26-.3-.09-.59-.17-.87-.24Z"/><path class="cls-11" d="M239.85,113.79c.05-.3,.11-.6,.18-.88,.07-.29,.15-.58,.24-.87,.07-.21,.12-.4,.17-.56,.04-.16,.1-.35,.16-.55,0-.02,0-.06,.03-.13,.02-.07,.04-.15,.07-.24,.03-.09,.05-.16,.08-.23,.02-.07,.04-.11,.05-.13,.09-.28,.22-.54,.39-.77,.17-.23,.35-.46,.54-.68,0,0,.03-.04,.08-.09,.04-.05,.1-.11,.15-.17,.06-.06,.11-.12,.16-.18,.05-.06,.08-.1,.11-.12,0,0,.02-.03,.05-.06,.02-.03,.05-.07,.08-.12,.03-.04,.05-.08,.08-.12,.03-.03,.04-.05,.06-.06,.34-.29,.72-.56,1.13-.79,.41-.24,.84-.44,1.28-.61s.89-.3,1.36-.4c.46-.09,.91-.14,1.36-.15,.5-.04,1.03-.03,1.58,.02,.54,.06,1.05,.19,1.53,.4,.4,.12,.74,.26,1.03,.42,.29,.15,.53,.31,.73,.45s.36,.28,.49,.4c.13,.12,.24,.2,.34,.25,.25,.22,.48,.44,.68,.65,.2,.21,.39,.43,.56,.66,.17,.23,.32,.47,.47,.73s.29,.54,.43,.86c.02,.07,.06,.21,.1,.4s.09,.39,.14,.6c.05,.21,.09,.41,.13,.6,.04,.19,.06,.32,.07,.4,0,.02,.01,.05,.02,.11,0,.06,0,.13,0,.21v.43s0,.12,0,.2c0,.09,0,.17,0,.26v.23c0,.07,0,.1-.01,.11,0,.02-.01,.08-.04,.15s-.05,.16-.07,.24-.05,.17-.07,.24c-.02,.08-.03,.12-.03,.14-.16,.16-.33,.27-.49,.34-.17,.06-.36,.1-.59,.12-.22,.02-.49,.03-.81,.03-.31,0-.69,.03-1.14,.08h-.63c-.15,0-.28,0-.4,0-.12,0-.2,0-.23,0h-.12s-.05,.03-.1,.04c-.05,0-.11,.01-.16,0s-.11-.01-.15-.03c-.04-.02-.07-.04-.08-.07,0,0-.04,0-.11,0-.07,0-.14,0-.21,0h-.23c-.08,0-.13,0-.15-.01,0,0-.02,.01-.04,.01h-.06c-.2,0-.42,.02-.67,.02-.25,0-.51,.02-.78,.02-.26,0-.52,.01-.78,.02s-.48,0-.67,0c-.29,.02-.56,.02-.79,0-.23-.01-.46-.02-.67-.04-.22-.01-.44-.02-.67-.03-.23,0-.49,0-.79,0-.04,0-.08,0-.12,0s-.07,.03-.08,.07c0,.04,.01,.1,.03,.18,.02,.08,.03,.13,.03,.16,.07,.29,.12,.5,.15,.63,.03,.13,.05,.22,.08,.27s.06,.1,.09,.13c.04,.04,.1,.11,.18,.23,0,0,.01,.03,.04,.06,.03,.03,.06,.06,.1,.09,.04,.03,.07,.06,.1,.09,.03,.03,.04,.05,.04,.05,.27,.43,.62,.74,1.06,.93s.89,.28,1.35,.26c.07,0,.15,0,.27,0,.11,0,.18,0,.2,0,.16-.02,.28-.02,.35-.02s.13,.01,.18,.02c.05,0,.1,.01,.15,.02s.14,0,.26-.02c.12-.02,.28-.05,.49-.09s.49-.11,.86-.2c0,0,.05-.02,.13-.06,.08-.04,.17-.09,.26-.13s.18-.1,.27-.14c.09-.04,.14-.07,.15-.08,.21-.13,.4-.26,.57-.38,.17-.13,.33-.24,.47-.35,.14-.11,.28-.2,.4-.28,.13-.08,.25-.15,.37-.2h.07s.04,0,.07,.02c.03,.02,.05,.04,.05,.05,.07,.07,.18,.15,.33,.25s.29,.21,.45,.31c.15,.11,.29,.21,.43,.31,.14,.1,.24,.19,.31,.26,.02,.02,.08,.06,.17,.12,.09,.07,.18,.14,.28,.21s.18,.15,.26,.22c.07,.07,.11,.11,.11,.12v.05s0,.03,0,.04c0,0,0,.02,0,.04,0,.2-.05,.38-.18,.54-.13,.15-.26,.31-.4,.45-.38,.42-.79,.82-1.21,1.21s-.89,.72-1.4,.98c-.16,.07-.33,.13-.49,.17s-.33,.08-.49,.14c-.21,.06-.42,.11-.61,.14-.2,.03-.39,.05-.57,.05s-.38,.01-.58,0c-.2,0-.41,0-.64,0-.59,.02-1.14,0-1.67-.06s-1.07-.17-1.64-.33c-.21-.06-.41-.14-.59-.21s-.35-.16-.51-.26-.32-.2-.47-.32c-.16-.12-.31-.25-.48-.38-.29-.24-.57-.48-.87-.71-.29-.23-.57-.5-.83-.81-.02,0-.05-.06-.1-.15-.05-.09-.08-.15-.09-.17-.02-.02-.05-.05-.1-.12s-.1-.13-.15-.2-.11-.13-.16-.2c-.05-.06-.08-.1-.09-.12-.02-.02-.05-.09-.1-.19-.05-.1-.12-.22-.18-.35-.07-.13-.13-.27-.2-.4-.06-.13-.11-.24-.14-.32-.02-.02-.03-.05-.05-.1-.02-.05-.02-.08-.02-.1-.1-.54-.18-1.06-.25-1.57-.07-.51-.1-1.05-.09-1.6v-.06Zm8.69-3.91c-.42,0-.8,.06-1.16,.15-.36,.09-.71,.26-1.05,.49-.11,.07-.24,.17-.38,.28-.14,.11-.28,.24-.41,.37s-.25,.28-.34,.43-.13,.3-.13,.45c.21-.02,.41-.04,.59-.07,.18-.03,.37-.05,.57-.06h.05s.07,.01,.15,.02,.18,0,.28,.01,.2,0,.29,.01c.09,0,.15,0,.17,0h1.17c.07,0,.18,0,.31-.01,.13,0,.26-.02,.4-.02,.13,0,.25-.01,.36-.02s.17,0,.18,0c.08,0,.23,0,.45,0,.21,0,.45,0,.69-.01s.47-.01,.69-.02c.22,0,.36-.02,.45-.02,.02,0,.03,0,.05-.02l.03-.02s0-.04-.03-.07c-.02-.03-.03-.06-.05-.07-.02-.03-.04-.08-.07-.13-.03-.05-.06-.11-.09-.16-.03-.05-.06-.1-.09-.13-.02-.04-.04-.06-.05-.07-.36-.45-.81-.78-1.36-.99-.55-.21-1.1-.31-1.65-.29Z"/><path class="cls-11" d="M265.4,122.27l-.71-.06c-.06,0-.1,0-.11,0s-.02-.04-.02-.08c0-.1-.01-.18,0-.25,0-.07,0-.15-.02-.25,0-.09-.03-.16-.06-.21-.03-.05-.05-.12-.06-.19,0-.05-.01-.09-.01-.13s.02-.08,.06-.12c.02-.11,.02-.37,.02-.77s0-.88-.02-1.45-.03-1.18-.06-1.86c-.02-.67-.04-1.34-.07-2.01-.02-.67-.04-1.3-.06-1.89-.02-.59-.03-1.1-.03-1.51,0-.08,0-.19-.01-.32-.02-.13-.04-.28-.05-.43-.02-.15-.04-.29-.05-.43-.02-.14-.02-.25,0-.34,0-.02,0-.05,0-.12,0-.06-.01-.1-.02-.13-.04,0-.06-.02-.07-.06,0-.04-.01-.08-.02-.12v-.1l.06-.12c.02-.21,.02-.39,.01-.54s-.02-.33-.04-.53c0-.03,0-.07,0-.12s0-.1-.02-.16c0-.06-.01-.12-.01-.2,0-.02-.01-.05-.04-.11-.03-.06-.04-.09-.04-.11s0-.05,.02-.1,.02-.09,.03-.1v-.09c0-.05,0-.11,0-.17,0-.06,0-.11,.01-.16s0-.08,.02-.1l.02-.02s.01-.02,.01-.05c.28-.03,.54-.08,.81-.14,.26-.06,.53-.1,.8-.1,.33-.02,.66,0,.96,.02,.31,.03,.63,.07,.95,.11,.04,0,.1,.01,.18,.02,.08,0,.15,.01,.23,.02,.08,.01,.15,.04,.21,.08,.07,.04,.1,.1,.11,.18,.02,.14,.01,.25-.02,.34-.03,.09-.04,.21-.02,.35v.04s0,.03,0,.04c0,0,0,.02,0,.02,.06-.02,.13-.06,.22-.1,.09-.04,.18-.09,.28-.14s.19-.1,.29-.14,.17-.08,.21-.1c.02,0,.06-.03,.14-.07,.08-.04,.13-.07,.15-.09,.02,0,.06,0,.14-.03,.08-.02,.12-.04,.13-.06,.07-.05,.16-.1,.28-.15,.11-.05,.22-.1,.33-.14s.22-.08,.31-.12c.09-.03,.15-.06,.18-.07,.2-.08,.41-.13,.62-.15,.21-.02,.43-.03,.66-.04,.37-.02,.74,0,1.12,.09,.38,.08,.75,.19,1.1,.34,.36,.14,.68,.31,.96,.49s.52,.36,.7,.54c.06,.07,.12,.14,.19,.24,.07,.09,.13,.19,.2,.29,.06,.1,.12,.2,.16,.3,.04,.1,.07,.19,.08,.27,0,.05-.02,.11-.07,.19s-.11,.16-.18,.24c-.07,.08-.14,.15-.21,.22-.07,.07-.12,.11-.15,.12,0,0-.03,.02-.06,.05s-.07,.05-.1,.07c-.04,.02-.07,.05-.11,.07s-.06,.04-.07,.05c-.03,.02-.08,.06-.14,.1s-.12,.09-.18,.14-.12,.09-.17,.13c-.05,.04-.08,.07-.09,.07-.14,.11-.27,.22-.4,.34-.13,.12-.26,.24-.4,.34-.14,.11-.29,.2-.45,.27s-.34,.11-.53,.12h-.24s-.04-.02-.06-.02c-.02,0-.05-.02-.09-.04-.33-.17-.69-.33-1.06-.48s-.75-.22-1.12-.21c-.28,.02-.5,.12-.68,.31-.18,.19-.35,.38-.5,.59-.02,.03-.06,.09-.13,.17-.07,.08-.12,.14-.13,.18-.02,.03-.05,.09-.1,.17s-.1,.16-.15,.25c-.05,.09-.11,.18-.16,.27-.05,.09-.09,.17-.1,.23-.08,.19-.13,.4-.15,.62-.02,.23-.03,.44-.05,.65-.11,.82-.16,1.57-.15,2.24s.05,1.3,.13,1.9c.04,.44,.09,.87,.15,1.29,.06,.42,.11,.85,.15,1.29,0,.05,.02,.14,.02,.26s.02,.26,.03,.39,.02,.26,.04,.39c.01,.13,.02,.21,.02,.26-.02,0-.03,.02-.04,.02-.01,0-.03,.02-.04,.02l-.05,.02h-.07s-.04,0-.07-.02c-.03-.01-.06-.03-.07-.04l-3.32,.11Z"/><path class="cls-11" d="M276.76,113.79c.05-.3,.11-.6,.18-.88,.07-.29,.15-.58,.24-.87,.07-.21,.12-.4,.17-.56,.04-.16,.1-.35,.16-.55,0-.02,0-.06,.03-.13,.02-.07,.04-.15,.07-.24,.03-.09,.05-.16,.08-.23,.02-.07,.04-.11,.05-.13,.09-.28,.22-.54,.39-.77,.17-.23,.35-.46,.54-.68,0,0,.03-.04,.08-.09,.04-.05,.1-.11,.15-.17,.06-.06,.11-.12,.16-.18,.05-.06,.08-.1,.11-.12,0,0,.02-.03,.05-.06,.02-.03,.05-.07,.08-.12,.03-.04,.05-.08,.08-.12,.03-.03,.04-.05,.06-.06,.34-.29,.72-.56,1.13-.79,.41-.24,.84-.44,1.28-.61s.89-.3,1.36-.4c.46-.09,.91-.14,1.36-.15,.5-.04,1.03-.03,1.58,.02,.54,.06,1.05,.19,1.53,.4,.4,.12,.74,.26,1.03,.42,.29,.15,.53,.31,.73,.45s.36,.28,.49,.4c.13,.12,.24,.2,.34,.25,.25,.22,.48,.44,.68,.65,.2,.21,.39,.43,.56,.66,.17,.23,.32,.47,.47,.73s.29,.54,.43,.86c.02,.07,.06,.21,.1,.4s.09,.39,.14,.6c.05,.21,.09,.41,.13,.6,.04,.19,.06,.32,.07,.4,0,.02,.01,.05,.02,.11,0,.06,0,.13,0,.21v.43s0,.12,0,.2c0,.09,0,.17,0,.26v.23c0,.07,0,.1-.01,.11,0,.02-.01,.08-.04,.15s-.05,.16-.07,.24-.05,.17-.07,.24c-.02,.08-.03,.12-.03,.14-.16,.16-.33,.27-.49,.34-.17,.06-.36,.1-.59,.12-.22,.02-.49,.03-.81,.03-.31,0-.69,.03-1.14,.08h-.63c-.15,0-.28,0-.4,0-.12,0-.2,0-.23,0h-.12s-.05,.03-.1,.04c-.05,0-.11,.01-.16,0s-.11-.01-.15-.03c-.04-.02-.07-.04-.08-.07,0,0-.04,0-.11,0-.07,0-.14,0-.21,0h-.23c-.08,0-.13,0-.15-.01,0,0-.02,.01-.04,.01h-.06c-.2,0-.42,.02-.67,.02-.25,0-.51,.02-.78,.02-.26,0-.52,.01-.78,.02s-.48,0-.67,0c-.29,.02-.56,.02-.79,0-.23-.01-.46-.02-.67-.04-.22-.01-.44-.02-.67-.03-.23,0-.49,0-.79,0-.04,0-.08,0-.12,0s-.07,.03-.08,.07c0,.04,.01,.1,.03,.18,.02,.08,.03,.13,.03,.16,.07,.29,.12,.5,.15,.63,.03,.13,.05,.22,.08,.27s.06,.1,.09,.13c.04,.04,.1,.11,.18,.23,0,0,.01,.03,.04,.06,.03,.03,.06,.06,.1,.09,.04,.03,.07,.06,.1,.09,.03,.03,.04,.05,.04,.05,.27,.43,.62,.74,1.06,.93s.89,.28,1.35,.26c.07,0,.15,0,.27,0,.11,0,.18,0,.2,0,.16-.02,.28-.02,.35-.02s.13,.01,.18,.02c.05,0,.1,.01,.15,.02s.14,0,.26-.02c.12-.02,.28-.05,.49-.09s.49-.11,.86-.2c0,0,.05-.02,.13-.06,.08-.04,.17-.09,.26-.13s.18-.1,.27-.14c.09-.04,.14-.07,.15-.08,.21-.13,.4-.26,.57-.38,.17-.13,.33-.24,.47-.35,.14-.11,.28-.2,.4-.28,.13-.08,.25-.15,.37-.2h.07s.04,0,.07,.02c.03,.02,.05,.04,.05,.05,.07,.07,.18,.15,.33,.25s.29,.21,.45,.31c.15,.11,.29,.21,.43,.31,.14,.1,.24,.19,.31,.26,.02,.02,.08,.06,.17,.12,.09,.07,.18,.14,.28,.21s.18,.15,.26,.22c.07,.07,.11,.11,.11,.12v.05s0,.03,0,.04c0,0,0,.02,0,.04,0,.2-.05,.38-.18,.54-.13,.15-.26,.31-.4,.45-.38,.42-.79,.82-1.21,1.21s-.89,.72-1.4,.98c-.16,.07-.33,.13-.49,.17s-.33,.08-.49,.14c-.21,.06-.42,.11-.61,.14-.2,.03-.39,.05-.57,.05s-.38,.01-.58,0c-.2,0-.41,0-.64,0-.59,.02-1.14,0-1.67-.06s-1.07-.17-1.64-.33c-.21-.06-.41-.14-.59-.21s-.35-.16-.51-.26-.32-.2-.47-.32c-.16-.12-.31-.25-.48-.38-.29-.24-.57-.48-.87-.71-.29-.23-.57-.5-.83-.81-.02,0-.05-.06-.1-.15-.05-.09-.08-.15-.09-.17-.02-.02-.05-.05-.1-.12s-.1-.13-.15-.2-.11-.13-.16-.2c-.05-.06-.08-.1-.09-.12-.02-.02-.05-.09-.1-.19-.05-.1-.12-.22-.18-.35-.07-.13-.13-.27-.2-.4-.06-.13-.11-.24-.14-.32-.02-.02-.03-.05-.05-.1-.02-.05-.02-.08-.02-.1-.1-.54-.18-1.06-.25-1.57-.07-.51-.1-1.05-.09-1.6v-.06Zm8.69-3.91c-.42,0-.8,.06-1.16,.15-.36,.09-.71,.26-1.05,.49-.11,.07-.24,.17-.38,.28-.14,.11-.28,.24-.41,.37s-.25,.28-.34,.43-.13,.3-.13,.45c.21-.02,.41-.04,.59-.07,.18-.03,.37-.05,.57-.06h.05s.07,.01,.15,.02,.18,0,.28,.01,.2,0,.29,.01c.09,0,.15,0,.17,0h1.17c.07,0,.18,0,.31-.01,.13,0,.26-.02,.4-.02,.13,0,.25-.01,.36-.02s.17,0,.18,0c.08,0,.23,0,.45,0,.21,0,.45,0,.69-.01s.47-.01,.69-.02c.22,0,.36-.02,.45-.02,.02,0,.03,0,.05-.02l.03-.02s0-.04-.03-.07c-.02-.03-.03-.06-.05-.07-.02-.03-.04-.08-.07-.13-.03-.05-.06-.11-.09-.16-.03-.05-.06-.1-.09-.13-.02-.04-.04-.06-.05-.07-.36-.45-.81-.78-1.36-.99-.55-.21-1.1-.31-1.65-.29Z"/><path class="cls-11" d="M310.08,111.65c0,.07-.01,.13-.04,.18-.02,.06-.04,.12-.04,.18,0,.25,.01,.5,.04,.74s.04,.49,.04,.74v.5c-.03,.52-.06,1-.11,1.44s-.12,.86-.22,1.28-.23,.82-.38,1.23c-.16,.41-.36,.83-.59,1.28-.02,.02-.04,.06-.07,.13s-.07,.14-.1,.22c-.04,.08-.07,.15-.1,.22-.03,.07-.05,.11-.06,.13-.02,.02-.05,.07-.11,.15-.06,.07-.1,.12-.12,.13-.04,.04-.1,.1-.19,.18-.09,.08-.17,.15-.27,.23s-.18,.15-.26,.21c-.08,.07-.12,.1-.14,.11-.02,.02-.08,.08-.19,.15-.11,.08-.2,.14-.26,.18-.03,.02-.08,.04-.13,.07-.06,.03-.12,.06-.17,.09s-.11,.05-.16,.07-.09,.03-.1,.03c-.05,.02-.14,.06-.28,.1-.13,.04-.28,.09-.43,.13-.15,.04-.3,.08-.43,.12-.14,.04-.24,.06-.29,.07-.03,.02-.08,.03-.15,.04s-.13,.03-.21,.04c-.07,.02-.14,.03-.21,.04-.07,.01-.12,.02-.14,.03h-1.48c-.26,0-.53-.04-.81-.12-.63-.11-1.24-.26-1.82-.43-.58-.17-1.1-.39-1.56-.65,0,.02-.02,.04-.03,.09,0,.04-.02,.09-.02,.14,0,.05-.01,.1-.02,.15,0,.05,0,.08,0,.1v.1c0,.38,.01,.76,.04,1.14s.04,.76,.04,1.14v.5c0,.09-.02,.26-.03,.51,0,.25-.02,.51-.02,.77,0,.27-.01,.52-.02,.75,0,.23,0,.38,0,.45-.02,.1-.04,.2-.07,.3-.03,.1-.05,.16-.05,.18l-.07,.07c-.07,0-.15,.02-.22,.02-.07,0-.13,.02-.18,.02s-.11,.02-.15,.02c-.28,.02-.52,.03-.73,.04-.21,0-.43,.01-.67,.01-.2,0-.39,0-.56,.02-.17,.01-.33,.02-.49,.03-.16,0-.32,.01-.49,0-.17,0-.35-.02-.54-.06-.19-.11-.29-.22-.32-.35,0-.02,0-.05,0-.11,0-.06,0-.12,0-.19s0-.13,0-.2,0-.1,0-.13c0-.04,0-.09,0-.16s0-.13,0-.2,0-.13,0-.18c0-.05,0-.08,0-.09,.02-.43,.03-.89,.04-1.39,.01-.49,.02-.99,.04-1.5,.01-.5,.03-1,.04-1.5,.02-.49,.03-.95,.05-1.39,.02-.46,.04-.96,.05-1.48,.02-.52,.03-1.02,.03-1.48v-.24c0-.12,0-.26,0-.42,0-.16,0-.33-.01-.51,0-.18,0-.36-.01-.52,0-.16,0-.31,0-.43v-.24s0-.05,0-.12,0-.16,0-.26,0-.2,0-.31c0-.1,0-.19,0-.25s0-.15,0-.26c0-.11,0-.21,0-.32s0-.2,0-.28c0-.08,0-.13,0-.15,0-.02,0-.08,.02-.17,.01-.09,.02-.18,.04-.28,.01-.1,.02-.19,.04-.27,.01-.09,.02-.14,.02-.17,0-.04,0-.13,0-.26,0-.13,0-.27,.01-.42,0-.15,0-.29,.02-.42,0-.13,.01-.23,.01-.27,0-.04,0-.15,0-.33,0-.18,0-.37,.01-.57,0-.2,0-.39,.01-.57,0-.18,0-.29,0-.33,0,0,0-.05,0-.13,0-.08,0-.17,0-.28s0-.21,0-.31c0-.1,0-.19,0-.25,0-.03,0-.11,0-.24,0-.13,0-.27,0-.42s0-.28,0-.41c0-.13,0-.21,0-.25,.02-.17,.11-.29,.29-.37,.18-.07,.38-.12,.6-.13,.22-.02,.43-.02,.62-.01,.19,0,.3,0,.34-.01h.37c.13,0,.25-.02,.37-.07h1.55l.12,.13,.15,1.2c.33-.3,.69-.54,1.06-.71s.73-.31,1.08-.4c.35-.09,.67-.15,.96-.18s.53-.05,.7-.07h.39c.12,0,.27,.02,.46,.04,.18,.02,.37,.04,.55,.07s.36,.05,.51,.07c.15,.02,.26,.03,.32,.04,.06,.02,.15,.04,.27,.06,.12,.02,.25,.05,.38,.09,.13,.03,.26,.06,.38,.09s.2,.05,.24,.07c.03,0,.08,.03,.16,.07s.17,.08,.26,.12c.09,.04,.17,.09,.25,.13,.08,.04,.13,.08,.16,.1,.04,.02,.11,.07,.2,.13,.09,.07,.18,.13,.28,.21s.19,.14,.27,.21c.09,.07,.14,.12,.18,.15,.06,.06,.11,.11,.17,.16,.05,.04,.1,.08,.14,.13,.04,.04,.08,.08,.12,.1,.2,.26,.38,.49,.56,.7s.33,.47,.48,.77c.09,.19,.18,.38,.28,.59s.17,.41,.22,.6c0,.02,.02,.07,.04,.16,.02,.09,.04,.19,.06,.29,.02,.11,.04,.2,.06,.29,.02,.09,.03,.14,.04,.16,.02,.02,.04,.05,.07,.11,.03,.06,.06,.09,.07,.11v.04Zm-5.63-.52s-.02-.04-.06-.09-.09-.1-.15-.16c-.06-.06-.12-.12-.18-.18s-.12-.11-.16-.14c-.02-.02-.06-.04-.13-.07-.07-.03-.12-.06-.13-.07-.02-.02-.06-.04-.12-.07-.06-.03-.1-.06-.12-.07-.02-.02-.07-.04-.14-.07-.07-.03-.11-.05-.13-.05-.14-.06-.26-.09-.36-.09h-.4c-.4,0-.79,.07-1.19,.2-.39,.13-.8,.34-1.23,.62-.07,.07-.15,.13-.24,.18-.08,.06-.16,.12-.23,.18,0,0-.02,.04-.06,.09-.04,.05-.09,.1-.14,.17s-.1,.12-.15,.17-.07,.08-.08,.09c-.02,.04-.05,.1-.09,.18-.04,.08-.09,.16-.13,.25-.04,.09-.09,.18-.13,.26-.04,.08-.08,.14-.09,.17-.02,.07-.04,.12-.05,.15-.01,.04-.02,.09-.02,.15,0,.02-.02,.08-.05,.17-.02,.08-.06,.2-.1,.35-.04,.15-.1,.37-.17,.65,0,.02,0,.08-.02,.18s-.03,.19-.05,.25c0,.04-.01,.11-.02,.21s0,.2,0,.29v.38s0,.07,0,.15,0,.15,.02,.23c0,.08,.02,.16,.02,.23s.02,.13,.02,.16c0,.02,0,.04,.02,.07,.02,.03,.03,.06,.05,.07,0,.02,.03,.05,.07,.09,.04,.04,.08,.09,.13,.15s.09,.1,.13,.15,.07,.09,.09,.11c.11,.12,.23,.22,.36,.28,.13,.07,.26,.12,.4,.17s.28,.09,.43,.13c.15,.04,.3,.09,.46,.16,.02,0,.06,0,.12,.02,.03,0,.06,.02,.09,.02h1.67c.04,.07,.08,.12,.1,.13,.03,.01,.08,.02,.14,.02,.15,0,.3-.02,.48-.05,.17-.03,.34-.08,.5-.15,.16-.07,.32-.15,.46-.24s.27-.2,.37-.32c0-.02,.04-.08,.1-.15s.12-.17,.18-.26c.06-.1,.13-.19,.2-.29,.06-.09,.11-.16,.15-.2,0-.02,.01-.04,.04-.08s.04-.06,.04-.08c.14-.24,.27-.49,.38-.73,.12-.24,.2-.51,.24-.81,.02-.08,.03-.17,.04-.26,0-.09,.01-.17,.01-.24,0-.02,0-.08-.02-.18s-.03-.15-.05-.18c-.02-.07-.06-.18-.11-.33s-.1-.29-.15-.45-.1-.29-.14-.42c-.04-.13-.07-.21-.08-.24l-.65-.96Z"/><path class="cls-11" d="M311.1,113.79c.05-.3,.11-.6,.18-.88s.15-.58,.24-.87c.07-.21,.12-.4,.17-.56,.04-.16,.1-.35,.16-.55,0-.02,.01-.06,.03-.13,.02-.07,.04-.15,.07-.24s.05-.16,.08-.23,.04-.11,.05-.13c.09-.28,.22-.54,.39-.77,.17-.23,.35-.46,.54-.68,0,0,.04-.04,.08-.09,.04-.05,.1-.11,.15-.17,.06-.06,.11-.12,.16-.18,.05-.06,.09-.1,.11-.12,0,0,.03-.03,.05-.06,.03-.03,.05-.07,.08-.12,.03-.04,.05-.08,.08-.12,.02-.03,.04-.05,.06-.06,.34-.29,.72-.56,1.13-.79,.41-.24,.84-.44,1.28-.61s.9-.3,1.36-.4c.46-.09,.91-.14,1.36-.15,.5-.04,1.03-.03,1.57,.02,.54,.06,1.05,.19,1.53,.4,.4,.12,.74,.26,1.03,.42,.29,.15,.53,.31,.73,.45,.2,.15,.36,.28,.49,.4s.24,.2,.34,.25c.25,.22,.48,.44,.68,.65,.2,.21,.39,.43,.56,.66,.17,.23,.32,.47,.47,.73s.29,.54,.43,.86c.03,.07,.06,.21,.1,.4,.04,.19,.09,.39,.14,.6,.05,.21,.09,.41,.13,.6s.06,.32,.07,.4c0,.02,.01,.05,.02,.11,0,.06,0,.13,0,.21v.43s0,.12,0,.2,0,.17,0,.26v.23c0,.07,0,.1-.01,.11,0,.02-.01,.08-.04,.15-.03,.08-.05,.16-.07,.24-.02,.09-.05,.17-.07,.24-.02,.08-.03,.12-.03,.14-.16,.16-.33,.27-.49,.34-.17,.06-.36,.1-.59,.12-.22,.02-.49,.03-.81,.03s-.69,.03-1.14,.08h-.63c-.15,0-.28,0-.4,0s-.2,0-.23,0h-.12s-.05,.03-.1,.04c-.05,0-.11,.01-.17,0s-.11-.01-.15-.03c-.04-.02-.07-.04-.08-.07,0,0-.04,0-.11,0-.06,0-.14,0-.21,0h-.23c-.08,0-.13,0-.15-.01,0,0-.02,.01-.04,.01h-.06c-.2,0-.42,.02-.67,.02-.25,0-.51,.02-.77,.02-.26,0-.52,.01-.78,.02-.25,0-.48,0-.67,0-.29,.02-.56,.02-.79,0-.23-.01-.46-.02-.67-.04-.22-.01-.44-.02-.67-.03-.23,0-.49,0-.79,0-.04,0-.08,0-.12,0-.04,0-.07,.03-.08,.07,0,.04,0,.1,.03,.18,.02,.08,.03,.13,.03,.16,.07,.29,.12,.5,.15,.63,.03,.13,.05,.22,.08,.27,.02,.05,.05,.1,.09,.13,.04,.04,.1,.11,.18,.23,0,0,.01,.03,.04,.06,.03,.03,.06,.06,.1,.09,.04,.03,.07,.06,.1,.09,.03,.03,.04,.05,.04,.05,.27,.43,.62,.74,1.06,.93s.89,.28,1.35,.26c.07,0,.15,0,.27,0,.11,0,.18,0,.2,0,.16-.02,.28-.02,.35-.02,.07,0,.13,.01,.18,.02,.05,0,.1,.01,.15,.02s.14,0,.26-.02c.12-.02,.28-.05,.49-.09,.21-.04,.49-.11,.86-.2,0,0,.05-.02,.13-.06,.08-.04,.17-.09,.26-.13s.18-.1,.27-.14c.09-.04,.14-.07,.15-.08,.21-.13,.4-.26,.57-.38s.33-.24,.47-.35c.14-.11,.28-.2,.4-.28,.13-.08,.25-.15,.37-.2h.07s.04,0,.07,.02c.03,.02,.05,.04,.05,.05,.07,.07,.18,.15,.33,.25s.29,.21,.45,.31c.15,.11,.29,.21,.43,.31,.14,.1,.24,.19,.3,.26,.02,.02,.08,.06,.17,.12,.09,.07,.18,.14,.28,.21s.18,.15,.26,.22,.11,.11,.11,.12v.05s0,.03,0,.04c0,0,0,.02,0,.04,0,.2-.05,.38-.18,.54-.13,.15-.26,.31-.4,.45-.38,.42-.79,.82-1.21,1.21-.43,.39-.89,.72-1.4,.98-.16,.07-.33,.13-.49,.17-.16,.04-.33,.08-.49,.14-.21,.06-.42,.11-.61,.14-.2,.03-.39,.05-.57,.05-.19,0-.38,.01-.58,0-.2,0-.41,0-.64,0-.59,.02-1.14,0-1.67-.06s-1.07-.17-1.63-.33c-.21-.06-.41-.14-.59-.21-.18-.08-.35-.16-.51-.26-.16-.09-.32-.2-.47-.32-.16-.12-.31-.25-.48-.38-.29-.24-.57-.48-.87-.71-.29-.23-.57-.5-.83-.81-.02,0-.05-.06-.1-.15-.05-.09-.08-.15-.09-.17-.02-.02-.05-.05-.1-.12s-.1-.13-.15-.2-.11-.13-.16-.2-.08-.1-.09-.12c-.02-.02-.05-.09-.1-.19s-.11-.22-.18-.35c-.07-.13-.13-.27-.2-.4-.06-.13-.11-.24-.14-.32-.02-.02-.03-.05-.05-.1-.02-.05-.02-.08-.02-.1-.1-.54-.18-1.06-.25-1.57s-.1-1.05-.09-1.6v-.06Zm8.69-3.91c-.42,0-.8,.06-1.16,.15-.36,.09-.71,.26-1.05,.49-.11,.07-.24,.17-.38,.28-.14,.11-.28,.24-.42,.37-.13,.13-.25,.28-.34,.43s-.13,.3-.13,.45c.21-.02,.41-.04,.59-.07,.18-.03,.37-.05,.57-.06h.05s.07,.01,.15,.02c.08,0,.18,0,.28,.01s.2,0,.29,.01,.15,0,.17,0h1.17c.07,0,.17,0,.31-.01,.13,0,.26-.02,.4-.02,.13,0,.25-.01,.36-.02s.17,0,.18,0c.08,0,.23,0,.45,0,.22,0,.45,0,.69-.01s.47-.01,.69-.02c.22,0,.36-.02,.45-.02,.02,0,.03,0,.05-.02l.02-.02s0-.04-.02-.07c-.02-.03-.03-.06-.05-.07-.02-.03-.04-.08-.07-.13-.03-.05-.06-.11-.09-.16-.03-.05-.06-.1-.08-.13s-.04-.06-.05-.07c-.36-.45-.81-.78-1.36-.99-.55-.21-1.1-.31-1.65-.29Z"/><path class="cls-11" d="M340.36,122.12c-.1-.06-.14-.14-.13-.24,.01-.11,.01-.21,0-.31,0-.02-.01-.04-.04-.07-.03-.03-.04-.06-.04-.07v-.11c0-.11,.02-.22,.07-.31,.05-.09,.07-.19,.07-.29v-.07s-.06,0-.12,.02c-.05,.02-.09,.03-.1,.05-.06,.04-.15,.1-.27,.18-.13,.08-.26,.17-.41,.26-.15,.09-.29,.17-.43,.24-.14,.07-.24,.11-.32,.12l-.95,.39h-.07s-.04,0-.08,.01c-.04,0-.08,.02-.13,.03s-.09,.02-.13,.03c-.04,0-.07,.01-.08,.01h-1.16c-.12,0-.24,0-.35-.01-.11,0-.22-.02-.34-.02-.12,0-.25-.02-.4-.05-.02,0-.06-.02-.13-.04-.07-.02-.14-.03-.22-.05-.08-.02-.15-.03-.22-.04-.07-.01-.11-.02-.13-.02h-.63l-.4-.16c-.06-.02-.14-.07-.26-.13-.12-.06-.24-.13-.38-.21s-.26-.14-.38-.21c-.12-.06-.21-.11-.27-.13-.05-.02-.12-.06-.22-.1s-.2-.09-.3-.15-.2-.1-.29-.14c-.09-.04-.15-.07-.17-.09,0,0-.03-.03-.06-.05-.03-.03-.07-.06-.12-.1-.04-.04-.09-.08-.13-.12s-.08-.06-.1-.08c-.2-.2-.4-.43-.59-.67s-.38-.48-.56-.7c-.17-.2-.31-.47-.43-.81-.12-.33-.21-.69-.28-1.06s-.13-.73-.16-1.09c-.03-.36-.05-.67-.05-.93,0-.33,0-.64,0-.93,0-.28,.02-.56,.05-.84,.03-.27,.07-.55,.13-.82,.06-.28,.14-.57,.24-.89,0-.05,.04-.15,.09-.31,.05-.16,.11-.32,.17-.48,.06-.16,.11-.29,.15-.38,.04-.1,.06-.1,.05-.01,.13-.37,.3-.72,.51-1.04,.21-.32,.45-.62,.72-.9,.27-.28,.56-.53,.87-.77,.31-.24,.64-.46,.97-.66,.03-.02,.11-.07,.22-.13,.12-.06,.24-.12,.38-.19,.13-.06,.26-.13,.39-.19,.13-.06,.21-.1,.26-.12,0,0,.03-.02,.08-.03s.1-.03,.16-.04c.06-.02,.12-.03,.18-.04l.15-.03s.11-.03,.2-.05c.08-.02,.13-.02,.15-.02h2.41c.28,.08,.56,.16,.83,.23s.53,.15,.77,.26c.25,.1,.49,.22,.72,.37s.46,.33,.68,.56h.05s0-.06,0-.1,0-.09,0-.14,0-.1,0-.14c0-.04,0-.08,0-.09,0,0,0-.04,.01-.09,0-.05,.02-.1,.03-.16,.01-.06,.03-.11,.04-.15s.02-.07,.02-.08c-.04-.06-.04-.12-.01-.18,.03-.06,.08-.11,.14-.15,.06-.04,.13-.07,.2-.08,.07-.01,.13,0,.18,.03,.41,0,.76,0,1.07,0,.31,0,.61,.01,.9,.02s.6,.03,.91,.07c.31,.03,.67,.07,1.08,.12,.03,.02,.07,.04,.12,.07,.06,.03,.08,.06,.08,.1,0,.07,0,.16,.01,.27,0,.11,.02,.22,.02,.34s.02,.23,.03,.34c0,.11,0,.21,0,.29,0,.02,0,.07-.01,.15,0,.08-.02,.17-.02,.27s-.02,.19-.02,.27c0,.08-.01,.13-.01,.15,0,.02-.01,.08-.04,.18s-.04,.15-.04,.16c0,.02,0,.08,0,.15s0,.16,0,.24v.24c0,.08,0,.12-.01,.14,0,.02,0,.06-.03,.11-.02,.05-.03,.09-.05,.11l-.02,2.88v.73c0,.31,0,.69,0,1.15s0,.97,.02,1.53,.02,1.12,.03,1.68c0,.56,.02,1.08,.02,1.58,0,.5,.02,.91,.04,1.25,0,.02,0,.09-.02,.19-.01,.1-.03,.21-.04,.34s-.03,.23-.04,.34-.01,.16,0,.19v.2s-.07,.05-.16,.09c-.09,.03-.15,.06-.17,.07-.22,0-.41,0-.57,.02-.16,.02-.31,.03-.45,.06-.14,.02-.29,.04-.44,.05-.15,.02-.33,.02-.55,.01h-.57c-.06,0-.15,0-.29,0-.13,0-.28-.01-.43-.02-.15,0-.29-.02-.43-.02-.13,0-.23-.02-.29-.02Zm-7.21-8.03c0,.43,.07,.83,.21,1.2,.14,.37,.33,.73,.55,1.09,.02,.02,.04,.06,.07,.12s.06,.08,.07,.08c.2,.21,.4,.42,.6,.61,.21,.2,.43,.37,.66,.52s.48,.27,.74,.36c.26,.09,.54,.13,.85,.13,.26,0,.52-.04,.79-.13,.27-.09,.52-.18,.76-.28,.03-.02,.08-.04,.14-.07s.12-.06,.18-.09,.11-.06,.16-.08,.08-.04,.09-.05c.3-.23,.55-.5,.74-.81s.35-.65,.47-1c.12-.35,.2-.72,.24-1.1s.07-.74,.09-1.09c0-.04,0-.11,0-.21,0-.1-.01-.2-.02-.31,0-.11-.02-.21-.02-.3,0-.09-.02-.16-.03-.19l-.11-.22c-.03-.06-.07-.13-.1-.18-.03-.06-.06-.11-.07-.15-.16-.31-.33-.61-.5-.9-.17-.29-.39-.52-.66-.69-.07-.05-.14-.1-.22-.16-.08-.06-.17-.12-.26-.18s-.19-.12-.28-.17-.17-.09-.24-.1c-.03,0-.09-.02-.18-.05-.09-.02-.18-.05-.28-.07s-.19-.04-.28-.06c-.08-.02-.14-.03-.18-.04-.05-.07-.12-.12-.22-.13s-.21-.01-.32,0c-.12,.01-.23,.03-.35,.05s-.21,.04-.28,.04c-.12,0-.25,.02-.39,.07-.14,.04-.27,.1-.4,.18-.13,.07-.25,.15-.37,.24-.12,.09-.22,.18-.31,.28-.02,.02-.05,.06-.1,.12-.05,.07-.11,.13-.17,.2s-.12,.14-.18,.2c-.06,.07-.09,.11-.1,.12-.31,.34-.52,.74-.65,1.21-.07,.33-.12,.65-.15,.98-.03,.33-.04,.67-.04,1.01Z"/><path class="cls-11" d="M348.72,121.7s.03-.05,.05-.1c.02-.05,.03-.08,.03-.1,0-.04,0-.11,0-.21s0-.2,.01-.31,0-.21,0-.31v-.2c0-.06,0-.15,0-.26,0-.11,0-.22,.01-.33,0-.11,0-.21,0-.29v-.51c0-.19,0-.4,0-.62,0-.22,0-.42-.01-.62,0-.19,0-.31,0-.36,0-.02,0-.09,0-.18,0-.1,0-.2,.01-.32,0-.11,0-.22,0-.32s0-.16-.01-.18c0-.02,0-.09-.01-.2s-.02-.23-.03-.35c-.01-.12-.03-.24-.04-.35s-.02-.18-.02-.2c0-.11-.01-.28-.02-.51,0-.23,0-.49-.02-.77,0-.29-.02-.59-.03-.91s-.02-.62-.02-.9c0-.28-.02-.54-.03-.77,0-.23-.01-.4-.01-.51l-.04-.15c-.32,.02-.65,.02-1.01,0-.36-.01-.7-.04-1.02-.09,0-.02,0-.03-.01-.05,0-.02-.02-.05-.04-.09,0-.02-.02-.02-.05-.01-.03,0-.04,0-.03-.01,0-.07,0-.19-.02-.35-.01-.16-.03-.35-.04-.56-.01-.21-.02-.43-.04-.67-.01-.23-.02-.45-.04-.67-.01-.21-.02-.4-.03-.57s-.02-.29-.02-.36v-.13c0-.14,.04-.26,.12-.36,.08-.1,.18-.17,.32-.2,.28,.04,.58,.04,.88-.01,.3-.05,.59-.07,.87-.07h.2c.07,0,.13-.02,.18-.07v-.23c.02-.63,0-1.24-.06-1.84-.06-.6-.08-1.22-.06-1.84v-.17c0-.08,0-.17,0-.26,0-.09,0-.18,.01-.27s0-.14,0-.18c0-.06,.05-.11,.14-.13s.24,0,.47,.04c.06,0,.15-.02,.29-.03,.13-.01,.28-.03,.42-.04,.15-.02,.29-.03,.42-.04s.22-.02,.27-.03c.02,0,.09,0,.2,0s.23,0,.35,0,.24,0,.34,0,.17,0,.18,0h.15s.12,0,.22,0,.2,.01,.29,.02c.11,0,.23,.02,.35,.02l.13,.15s0,.06-.01,.12-.02,.11-.02,.16c0,.06-.01,.11-.02,.17,0,.05,0,.09,0,.12,.02,.02,.03,.04,.05,.07,.02,.03,.02,.06,.02,.07,.04,.33,.07,.64,.09,.95,.02,.31,.02,.64,.02,1,0,.09,0,.22,0,.38,0,.17,0,.35,.01,.56,0,.2,0,.41,.01,.62,0,.21,0,.41,0,.59,0,.05,.01,.08,.04,.1s.06,.03,.1,.04c.04,0,.09,0,.13,0,.04,0,.08-.01,.12-.01h.05c.26-.08,.51-.12,.76-.12h.79s.06,0,.11,0,.1,0,.15,0c.06,0,.12,.01,.2,.01l.07,.42c0,.42,0,.83,0,1.23s.01,.81,.08,1.25v.94c0,.09-.02,.16-.06,.21-.04,.05-.09,.09-.14,.11-.05,.02-.11,.04-.17,.06-.06,.02-.12,.03-.16,.05l-.35,.07h-1.34l-.02,1.05s0,.06-.01,.12-.01,.13-.02,.2,0,.13-.01,.19c0,.06,0,.09,.02,.1-.02,.28-.02,.53-.01,.77,0,.24,.02,.47,.04,.69,.02,.22,.04,.45,.07,.68,.03,.23,.05,.48,.08,.74l-.13,6.4c0,.08-.04,.15-.13,.2-.08,.05-.16,.08-.22,.08h-2.67s-.07,.02-.15,.03-.12,.02-.13,.02c-.02,0-.05,0-.11-.03s-.09-.03-.11-.03c-.03,0-.07,0-.14-.01-.07,0-.14-.02-.22-.02-.08,0-.15-.02-.22-.02-.07,0-.11-.02-.13-.02-.09,0-.19-.03-.31-.05-.12-.03-.18-.11-.18-.25v-.05Z"/><path class="cls-11" d="M361.96,115.96s-.06,.03-.15,.03-.18,0-.29-.04c-.1-.03-.2-.08-.28-.15-.09-.07-.12-.17-.12-.29v-.07s0-.03-.02-.07c-.01-.04-.03-.09-.04-.14s-.02-.1-.04-.15c-.01-.04-.02-.07-.02-.08,0-.04-.02-.1-.03-.18-.01-.08-.02-.12-.02-.14v-.1c0-.06,0-.12,0-.2s0-.15,.01-.23c0-.08,0-.14,0-.19,0-.21,.02-.42,.04-.64,.02-.22,.07-.42,.16-.62,.13-.33,.26-.64,.4-.91,.14-.27,.32-.54,.56-.8,.04-.03,.14-.12,.29-.27s.32-.3,.5-.46c.18-.16,.35-.32,.5-.46,.15-.15,.26-.24,.3-.27,0,0,.03-.04,.07-.09,.04-.05,.08-.1,.13-.16l.15-.18c.05-.06,.09-.11,.12-.14,.02-.02,.03-.03,.05-.05s.03-.04,.05-.07c.02-.03,.03-.06,.05-.09l.34-.5c.06-.04,.12-.11,.18-.22,.07-.11,.13-.22,.19-.35,.06-.13,.12-.26,.17-.38s.08-.22,.11-.29c0-.03,0-.11,0-.24s0-.21,0-.25c0-.06,.01-.16,.02-.28,0-.12,0-.19,0-.21,0-.22-.05-.42-.16-.6-.11-.18-.24-.33-.4-.46-.16-.13-.35-.23-.55-.31-.2-.07-.4-.11-.6-.11-.28,.04-.54,.11-.77,.21-.24,.1-.46,.22-.65,.37-.19,.14-.36,.3-.49,.46s-.24,.33-.32,.48c-.11,.21-.17,.39-.2,.54-.03,.15-.07,.32-.12,.52,0,.02-.03,.05-.1,.09-.03,.02-.06,.03-.1,.04-.02,0-.07-.01-.15-.01h-.4s-.04,0,.01,0c-.07,.02-.2,.03-.37,.04-.18,0-.38,.01-.6,0-.22,0-.46-.01-.71-.02s-.48-.03-.7-.04c-.22-.02-.41-.04-.57-.07-.16-.03-.27-.06-.33-.09v-.02s0-.02-.03-.03c-.02-.01-.04-.02-.07-.03-.03,0-.05-.02-.07-.02-.02,0-.03-.02-.02-.04v-.02s-.01-.09-.04-.13c-.02-.04-.03-.08-.02-.12,0-.34,.06-.69,.15-1.04s.21-.7,.36-1.04,.31-.67,.5-.99c.19-.32,.38-.61,.59-.87,0,0,0-.02,.02-.04l.02-.02s.12-.08,.21-.13c.09-.06,.19-.12,.29-.19s.19-.13,.28-.2c.09-.06,.16-.11,.21-.15,.04,0,.1-.03,.16-.05,.07-.03,.14-.06,.23-.1,.08-.04,.16-.07,.23-.1,.07-.03,.13-.06,.17-.07,.37-.15,.74-.25,1.13-.32,.39-.06,.78-.09,1.17-.09,.07,0,.21,0,.41,0,.2,0,.42,.01,.68,.02,.25,.01,.52,.03,.79,.04,.28,.02,.53,.03,.76,.06,.23,.02,.42,.04,.57,.06s.23,.04,.23,.05c.04,.02,.1,.04,.18,.07,.08,.03,.17,.07,.25,.1,.08,.04,.16,.07,.24,.1,.07,.03,.12,.05,.15,.06,.03,.02,.08,.04,.16,.09,.07,.04,.15,.09,.24,.13,.08,.05,.16,.1,.24,.14s.13,.08,.16,.1c.2,.15,.4,.29,.6,.43s.37,.29,.54,.45c.16,.16,.31,.33,.44,.52,.13,.19,.24,.4,.32,.64,.07,.21,.15,.43,.23,.65,.08,.22,.15,.45,.21,.69,.06,.24,.11,.47,.15,.71,.04,.24,.05,.47,.04,.7-.02,.31-.07,.59-.18,.85-.1,.26-.21,.53-.32,.81-.07,.14-.13,.27-.2,.41-.07,.13-.15,.25-.24,.36-.12,.14-.28,.29-.46,.45-.18,.16-.33,.33-.45,.51-.1,.07-.22,.16-.37,.28s-.29,.25-.42,.39c-.13,.14-.24,.27-.33,.4-.09,.13-.13,.22-.11,.27-.19,.22-.34,.45-.45,.69-.11,.24-.2,.49-.27,.75v.05l-.23,.73s0,.05-.02,.09c-.01,.04-.03,.1-.04,.15-.02,.06-.04,.11-.05,.16-.02,.05-.04,.09-.06,.11,0,.04-.01,.1-.03,.18-.02,.08-.03,.13-.03,.15v.27s-.04,.04-.07,.13c-.03,.09-.06,.13-.07,.13-.25,.1-.5,.16-.74,.2-.24,.03-.5,.07-.77,.12-.02,0-.06,0-.13,0-.07,0-.15,0-.23,.01s-.17,.01-.24,.02c-.07,0-.12,.01-.13,.01-.09,.02-.2,.05-.34,.07-.13,.02-.27,.04-.42,.05s-.29,.02-.43,.03c-.14,0-.27,.02-.37,.04Zm-1.04,3.37c.02-.21,.05-.41,.1-.59s.12-.38,.21-.59c.02-.03,.04-.08,.08-.15,.04-.06,.07-.13,.11-.2s.07-.13,.1-.18c.03-.05,.05-.09,.06-.1,0,0,.04-.03,.08-.07,.05-.04,.11-.09,.18-.15,.07-.06,.14-.11,.21-.16,.07-.05,.12-.1,.17-.13,.23-.19,.5-.32,.8-.4,.3-.08,.6-.12,.88-.11,.66,.02,1.23,.22,1.72,.61s.84,.89,1.06,1.5v.44c0,.23-.03,.46-.07,.69-.04,.23-.11,.46-.2,.67-.09,.22-.21,.42-.35,.6-.14,.18-.31,.34-.51,.47-.22,.15-.43,.28-.63,.37s-.4,.16-.6,.21-.41,.08-.63,.09c-.22,.01-.47,.01-.74,0-.03,0-.05,0-.09-.02-.03-.01-.06-.02-.07-.02-.33-.07-.62-.2-.86-.38s-.44-.4-.59-.65c-.16-.25-.27-.53-.34-.83-.07-.3-.1-.61-.09-.92Z"/></g></g></g></g></svg>