<?xml version="1.0" encoding="UTF-8"?><svg id="Layer_2" xmlns="http://www.w3.org/2000/svg" xmlns:xlink="http://www.w3.org/1999/xlink" viewBox="0 0 403.24 198.68"><defs><style>.cls-1{fill:#9b4734;}.cls-2{fill:#fff;opacity:.45;}.cls-3{fill:#c4735b;}.cls-4{fill:none;filter:url(#drop-shadow-1);}.cls-5{fill:#e0956c;}.cls-6{fill:#ffc19f;}.cls-7{fill:#8c8c8c;}.cls-8{fill:#601805;opacity:.19;}.cls-9{fill:#333;}.cls-10{fill:#f72828;}.cls-11{fill:#ff9797;}.cls-12{fill:#701608;}.cls-13{fill:#229996;}.cls-14{fill:#f9feff;}.cls-15{fill:#ba0c0c;}.cls-16{fill:#fefffe;}</style><filter id="drop-shadow-1" filterUnits="userSpaceOnUse"><feOffset dx="0" dy="4"/><feGaussianBlur result="blur" stdDeviation="0"/><feFlood flood-color="#004e6e" flood-opacity="1"/><feComposite in2="blur" operator="in"/><feComposite in="SourceGraphic"/></filter></defs><g id="Contenido"><g><rect class="cls-4" x="0" width="403.24" height="198.68" rx="12" ry="12"/><g><g><path class="cls-9" d="M210.99,78.33c-.58-.22-1.07-.43-1.48-.62-.41-.2-.75-.38-1.04-.54-.29-.17-.52-.32-.69-.46-.18-.14-.32-.27-.44-.38-.12-.11-.22-.22-.29-.31-.08-.09-.16-.17-.24-.23-.02,0-.04-.02-.08-.05s-.05-.06-.05-.08c-.02-.02-.03-.04-.05-.07-.02-.03-.02-.06-.02-.07-.04-.04-.09-.09-.15-.15-.06-.06-.11-.11-.17-.16-.05-.05-.1-.1-.14-.13s-.06-.05-.07-.05l-.27-.43h0s0-.03,0-.03c0,0,0-.01,0-.02v-.02c-.19-.25-.34-.53-.46-.82-.12-.3-.23-.6-.31-.92-.09-.31-.17-.63-.24-.95-.07-.32-.16-.62-.24-.92-.04-.14-.06-.27-.06-.38s-.02-.25-.05-.38c-.05-.19-.1-.37-.16-.56-.06-.19-.09-.37-.11-.56,0-.07,0-.21-.02-.4-.01-.2-.03-.4-.04-.63-.02-.22-.03-.44-.04-.63-.01-.2-.02-.34-.03-.43v-.31c0-.33,.04-.62,.09-.89,.05-.26,.12-.55,.21-.86,0-.02,.03-.06,.05-.15,.03-.08,.05-.17,.07-.27,.02-.1,.05-.19,.07-.27,.02-.08,.04-.13,.04-.15,.08-.28,.17-.53,.27-.73,.1-.2,.19-.37,.27-.5,.09-.13,.19-.26,.3-.39,.07-.2,.17-.4,.32-.62,.15-.22,.32-.43,.51-.65,.2-.22,.41-.43,.63-.64,.23-.21,.46-.41,.68-.6,.28-.28,.61-.51,1-.69s.76-.34,1.11-.48c.02,0,.09-.04,.19-.09,.1-.05,.21-.11,.34-.16,.12-.05,.23-.1,.34-.15s.17-.08,.19-.1c0,0,.04,0,.1-.02,.06-.02,.12-.04,.18-.06,.06-.02,.12-.05,.18-.07,.06-.02,.09-.03,.11-.04,.02-.02,.06-.04,.15-.07,.08-.03,.13-.06,.15-.07,0,0,.03,0,.07,0,.04,0,.08,0,.13,0h.13s.07,0,.08-.01c.02,0,.05,0,.1-.01,.05,0,.12-.02,.18-.03,.07-.01,.14-.02,.2-.04,.07-.01,.11-.02,.15-.03,.34-.1,.68-.14,1-.14,.32,0,.67,0,1.03,0h.29c.12,0,.24,0,.36,0,.12,0,.22,0,.31,0h.16s.09,0,.17,0c.08,0,.17,.01,.27,.02,.1,0,.19,.02,.28,.03,.09,.01,.15,.02,.2,.03,.02,0,.07,0,.15,.02,.08,.02,.15,.03,.2,.05,.02,0,.06,0,.14,.02,.08,.02,.12,.03,.14,.05,.02,0,.07,0,.15,.01,.08,0,.17,.01,.26,.02,.09,0,.18,.01,.27,.02,.09,0,.14,.01,.17,.01,.02,.02,.07,.03,.14,.05,.07,.02,.11,.02,.13,.02,.02,.02,.06,.04,.13,.09,.07,.04,.14,.08,.22,.13,.08,.04,.15,.09,.22,.13,.07,.04,.11,.07,.13,.08,.02,.02,.06,.04,.14,.08,.08,.04,.12,.06,.14,.08,.02,0,.05,.02,.11,.07,.06,.04,.09,.07,.11,.07,0,0,.02,.01,.06,.01,.02,0,.04,0,.06-.01,.08,.02,.14,.1,.18,.22s.05,.22,.05,.31v.12s-.04,.06-.06,.09c-.03,.03-.06,.07-.1,.11-.02,.02-.05,.06-.1,.14-.05,.08-.11,.16-.18,.25-.07,.09-.12,.17-.18,.24-.05,.07-.09,.12-.1,.13-.09,.04-.19,.15-.3,.34-.11,.19-.24,.38-.38,.57s-.29,.36-.45,.5c-.16,.14-.33,.18-.51,.12-.45-.11-.88-.21-1.29-.28-.41-.07-.85-.11-1.31-.12-.04,0-.09,0-.15,0-.06,0-.12,0-.18,0-.07,0-.15,.01-.22,.01-.02,0-.05,0-.11,.02s-.12,.03-.18,.04c-.06,.02-.12,.03-.18,.04-.06,.01-.09,.02-.11,.02-.02,0-.09,.02-.2,.03-.11,.01-.23,.03-.35,.04-.13,.02-.24,.03-.35,.04s-.18,.02-.21,.03c-.02,0-.06,.01-.12,.03-.07,.02-.14,.04-.22,.07-.08,.03-.16,.06-.24,.09-.08,.03-.14,.05-.18,.07-.38,.15-.71,.35-1.01,.59-.3,.24-.58,.5-.84,.81-.02,.02-.07,.09-.15,.18s-.15,.2-.24,.31-.17,.21-.24,.31c-.08,.1-.13,.16-.15,.18-.08,.09-.16,.18-.24,.27-.08,.09-.14,.21-.18,.35-.02,.04-.04,.12-.07,.23-.03,.11-.06,.23-.09,.36-.03,.13-.06,.25-.09,.36-.03,.11-.05,.2-.06,.24,0,.02-.01,.03-.01,.05v.09c0,.09,.01,.18,.04,.26,.02,.09,.04,.18,.04,.29v.02s-.05,.06-.11,.13-.08,.12-.08,.13v.05c0,.38,0,.8,.03,1.25,.03,.45,.1,.86,.23,1.23l.2,.67v.02s.01,.09,.04,.16c.03,.08,.06,.16,.09,.24,.03,.08,.06,.16,.08,.23,.03,.07,.04,.12,.06,.15,.11,.07,.17,.15,.21,.26,.03,.11,.08,.22,.15,.32,.2,.3,.42,.59,.66,.86,.24,.27,.49,.52,.77,.74,.28,.22,.58,.42,.9,.58,.32,.16,.67,.28,1.03,.37,.06,.02,.15,.03,.29,.05,.13,.02,.27,.04,.42,.07s.27,.04,.39,.06c.12,.02,.19,.02,.23,.02,0,0,.04,0,.1,0,.06,0,.12,0,.2,0s.16,0,.24,0c.08,0,.15,0,.2,0,.34,0,.67,0,.98-.04,.31-.04,.63-.11,.96-.23,.03,0,.06-.02,.11-.05s.1-.05,.15-.07c.05-.02,.1-.05,.14-.07,.04-.02,.07-.03,.07-.04,.1-.04,.18-.09,.26-.13,.07-.05,.14-.09,.21-.13,.07-.04,.14-.08,.22-.1,.08-.03,.17-.04,.26-.04,.02,0,.07,0,.13,.01,.07,0,.11,.01,.12,.01,.2,.18,.38,.37,.54,.56,.17,.2,.3,.41,.41,.63,.03,.03,.06,.1,.12,.21,.05,.11,.11,.23,.17,.35,.06,.13,.12,.24,.18,.35,.06,.11,.09,.18,.11,.2,0,.02,.03,.05,.07,.1,.04,.05,.07,.1,.11,.15,.04,.05,.07,.11,.1,.16,.03,.05,.05,.08,.06,.09,.05,.2,.07,.35,.05,.43-.01,.08-.06,.14-.13,.19-.08,.04-.18,.09-.31,.14-.13,.05-.29,.15-.46,.29-.02,0-.03,.02-.04,.02-.02,0-.03,.02-.03,.02,0,0,0,.02-.02,.02-.2,.15-.42,.28-.63,.37-.22,.09-.45,.17-.68,.23-.24,.06-.48,.11-.73,.14-.25,.03-.5,.06-.75,.09-.05,0-.18,0-.38,.02-.21,.02-.43,.03-.67,.05-.24,.02-.46,.03-.67,.05-.21,.02-.33,.03-.38,.04h-.78s-.08,0-.17-.01c-.09,0-.19-.02-.29-.02-.1,0-.2-.02-.29-.02-.09,0-.15-.01-.17-.01h-.97c-.12,0-.19,0-.21-.01-.02,0-.06,0-.13-.02-.07-.02-.16-.03-.25-.05-.09-.02-.18-.04-.27-.07s-.15-.04-.19-.06Z"/><path class="cls-9" d="M228.32,78.26c-.06-.02-.14-.03-.26-.05-.11-.02-.26-.05-.43-.08,0,0-.04,0-.11-.02-.07-.01-.14-.03-.24-.06-.09-.03-.19-.07-.29-.12s-.19-.11-.27-.18c-.02,0-.05-.02-.1-.04-.05-.02-.11-.04-.18-.07-.07-.03-.12-.05-.18-.07-.05-.02-.09-.03-.1-.04-.15-.06-.29-.13-.42-.23-.13-.1-.26-.2-.38-.31-.12-.11-.24-.21-.35-.32-.11-.11-.22-.21-.32-.31-.39-.37-.74-.75-1.05-1.16-.31-.41-.57-.85-.79-1.34-.18-.39-.32-.75-.43-1.07-.11-.32-.19-.64-.24-.95-.06-.31-.1-.64-.12-.97-.02-.33-.03-.72-.03-1.15v-.92c.11-.46,.23-.9,.37-1.31,.14-.41,.31-.8,.51-1.18,.2-.37,.43-.73,.69-1.07,.26-.34,.57-.67,.92-.99,.25-.24,.51-.46,.78-.63,.27-.18,.56-.34,.87-.49,.02,0,.06-.02,.1-.05s.09-.05,.15-.07c.05-.02,.1-.04,.14-.05,.04-.02,.07-.03,.08-.04,.02,0,.08,0,.18-.02s.15-.02,.17-.02c.02-.02,.07-.05,.15-.1,.07-.05,.12-.09,.13-.1,0,0,.03,0,.08-.01,.04,0,.09-.02,.14-.03s.09-.02,.13-.03c.04,0,.06-.02,.07-.02,.03,0,.11-.03,.22-.05,.11-.03,.24-.06,.37-.09,.13-.03,.25-.06,.37-.09,.12-.03,.19-.04,.23-.04,.07-.02,.18-.05,.35-.07,.17-.02,.35-.04,.55-.05,.2-.02,.38-.03,.56-.05,.17-.02,.3-.03,.38-.04h.15s.08,0,.13,0c.04,0,.08,0,.1,0,.18,0,.34,.02,.49,.02,.15,0,.3,.03,.46,.07,.23,.06,.46,.11,.7,.16,.24,.05,.47,.09,.7,.12,.06,.02,.15,.07,.29,.13,.13,.07,.28,.14,.43,.22,.15,.08,.29,.16,.42,.23,.13,.07,.22,.13,.27,.16,.02,.02,.09,.08,.19,.18,.1,.1,.21,.21,.34,.34s.24,.24,.35,.37c.11,.12,.2,.22,.26,.28,0,.02,.03,.05,.07,.11,.04,.06,.09,.12,.14,.2,.05,.08,.11,.15,.16,.23,.05,.07,.1,.13,.13,.18,.29,.45,.54,.89,.73,1.33s.34,.89,.46,1.34,.2,.92,.25,1.39c.05,.48,.08,.97,.08,1.48v.05c-.02,.14-.03,.33-.05,.57-.02,.24-.04,.48-.06,.71-.02,.24-.04,.45-.05,.63-.02,.19-.03,.3-.04,.33-.06,.42-.14,.81-.26,1.18-.12,.37-.26,.74-.43,1.11-.16,.2-.28,.36-.37,.49s-.19,.26-.29,.39c-.1,.13-.21,.26-.33,.42-.13,.15-.3,.34-.52,.57-.29,.21-.59,.41-.91,.59-.32,.18-.65,.33-.99,.46-.34,.13-.69,.23-1.04,.31-.35,.07-.7,.1-1.04,.09h-.17c-.08,0-.16,0-.26,0-.09,0-.18,0-.26-.01-.08,0-.13,0-.16,0-.02-.02-.04-.03-.09-.05-.04-.02-.07-.02-.09-.02-.02,0-.05,0-.11,.01-.06,0-.12,.02-.19,.03-.07,.01-.13,.02-.2,.03-.06,0-.1,0-.12,0-.03,0-.11,0-.23-.02-.12-.01-.25-.03-.38-.05-.14-.02-.27-.04-.38-.05-.12-.02-.19-.03-.21-.04h-.12l-.31-.09Zm-1.6-8.39c0,.23,.03,.45,.06,.67,.03,.22,.09,.44,.18,.65,0,.02,.02,.06,.06,.13,.04,.07,.06,.12,.06,.13,.03,.11,.06,.22,.1,.34,.03,.12,.07,.24,.1,.37,.04,.12,.08,.24,.13,.35,.05,.11,.11,.22,.18,.31,.02,.02,.07,.07,.12,.13s.11,.12,.17,.18c.06,.06,.11,.12,.16,.17,.05,.05,.08,.08,.1,.09,0,0,.03,.03,.08,.06,.04,.03,.1,.07,.16,.1,.06,.04,.12,.08,.18,.12,.06,.04,.11,.07,.15,.09l.12,.09s.08,.05,.16,.11c.08,.06,.13,.09,.15,.09,.02,.02,.06,.03,.12,.05,.06,.02,.12,.03,.16,.03,.17,.08,.3,.13,.38,.14,.08,.01,.16,.01,.22,0,.06-.01,.13-.02,.2-.04s.18,0,.32,.02c0,0,.04,0,.09,0,.05,0,.1-.01,.16-.02l.17-.02c.06,0,.1-.02,.13-.02,.38-.06,.74-.19,1.07-.39,.33-.2,.62-.46,.87-.76,.25-.3,.44-.64,.58-1.01,.14-.37,.21-.75,.21-1.13,0-.02,0-.12,0-.3,0-.17,.02-.48,.05-.92,0-.21-.04-.42-.13-.62-.09-.2-.16-.41-.23-.62-.11-.33-.3-.6-.55-.82-.26-.22-.52-.43-.8-.62-.17-.11-.33-.21-.47-.29-.14-.08-.29-.14-.43-.19s-.3-.09-.46-.11c-.16-.02-.34-.04-.54-.05-.19,0-.35-.01-.49,0-.14,0-.3,.03-.49,.07-.2,.04-.42,.1-.63,.17s-.43,.16-.63,.27c-.2,.11-.38,.24-.54,.4-.16,.15-.27,.33-.35,.54l-.21,.59c-.05,.07-.09,.16-.13,.28-.04,.12-.07,.25-.1,.4-.02,.14-.04,.28-.04,.43s.01,.27,.04,.38Z"/><path class="cls-9" d="M239.81,72.85c-.02-.08-.04-.21-.08-.38-.04-.17-.08-.35-.13-.54-.04-.19-.08-.37-.12-.54-.04-.17-.06-.29-.07-.38,0-.03-.01-.1-.02-.21s-.01-.23-.02-.35c0-.13-.01-.24-.02-.35s0-.18-.02-.2c0-.04,0-.09,0-.16,0-.06-.01-.13-.02-.2,0-.06-.02-.13-.02-.18,0-.06-.02-.1-.03-.12l-.05-.12s-.01-.06-.01-.13v-.23c0-.08,0-.15,0-.22,0-.06,0-.11,0-.12-.02-.2-.03-.44-.03-.7,0-.26,0-.52-.01-.79,0-.26,0-.52,0-.78v-.68c0-.28,0-.54,0-.78,0-.23,0-.45,.02-.66,0-.21,.02-.41,.04-.6,.02-.19,.04-.39,.07-.59,.02-.09,.1-.16,.26-.23,.16-.06,.31-.09,.46-.09h.57c.08,0,.18,0,.31,.02,.13,.02,.25,.03,.38,.05,.13,.02,.24,.04,.34,.05,.1,.02,.15,.03,.17,.04,.02,0,.07,0,.17,.01,.1,0,.2,.02,.31,.03,.11,.01,.21,.02,.31,.04s.16,.02,.18,.03c.02,0,.08,.01,.18,.02,.09,0,.2,0,.31,0s.21,0,.31,0c.1,0,.16,.01,.2,.02,.05,.04,.08,.08,.1,.11,.02,.03,.03,.06,.04,.09,0,.03,0,.07,0,.11,0,.04,0,.1,0,.16v.5c-.04,.31-.07,.6-.07,.89,0,.28-.01,.58-.01,.91,0,.52,.01,1.04,.03,1.54,.02,.51,.02,1.06,0,1.67l.07,.66v.2c.04,.2,.07,.41,.08,.62,.02,.21,.04,.43,.06,.64,.02,.22,.05,.43,.08,.65,.03,.22,.09,.43,.16,.64l.07,.16c.03,.07,.06,.14,.09,.21s.06,.14,.08,.2c.03,.06,.04,.1,.05,.1,.06,.15,.15,.29,.28,.4,.13,.11,.27,.21,.41,.29,.14,.08,.28,.14,.4,.19,.13,.04,.21,.07,.25,.08,.02,0,.07,.03,.17,.07s.17,.06,.21,.08c.02,.02,.08,.02,.17,0,.08-.01,.14-.02,.15-.02,.15,0,.34-.03,.58-.08,.24-.05,.49-.16,.75-.34,.3-.33,.52-.66,.67-.99,.14-.33,.24-.68,.29-1.03,.05-.35,.07-.71,.07-1.09s-.01-.78-.01-1.2v-.4s0-.15,0-.32-.01-.36-.02-.56c0-.2-.01-.38-.02-.56s0-.28,0-.32v-1.21s-.02-.12-.03-.24c-.01-.12-.03-.27-.06-.43-.02-.17-.05-.34-.07-.53-.03-.19-.05-.36-.07-.52-.02-.16-.04-.3-.06-.42-.02-.12-.02-.2-.02-.24l.12-1.05c.03-.06,.08-.1,.15-.12,.07-.02,.14-.03,.23-.04,.08,0,.16,0,.24,0,.08,0,.14,0,.2,0,0,0,.03,0,.08-.01,.04,0,.09-.02,.14-.02,.05,0,.09-.02,.13-.02,.04,0,.06-.01,.07-.01l1.49,.11s.09,.03,.18,.03c.1,0,.2,0,.31,0h.31c.1,0,.15,0,.17,.01,.05,0,.12-.02,.23-.02,.1,0,.21-.01,.32-.02,.11,0,.21,0,.31-.01,.09,0,.16,0,.19,0l.15,.05c.1,0,.17,.04,.23,.12,.05,.08,.09,.18,.12,.31,.03,.13,.05,.27,.05,.45,0,.17,.01,.35,.01,.55v.23c0,.16,0,.33-.03,.49-.02,.16-.03,.33-.05,.49,0,.05-.01,.16-.01,.34s0,.36,0,.56,0,.38,0,.56,0,.29-.01,.34c0,.03,0,.12-.03,.25s-.04,.28-.07,.43c-.02,.15-.05,.3-.07,.43s-.03,.22-.04,.25c0,.04,0,.14-.02,.29-.01,.15-.03,.33-.04,.52-.02,.19-.03,.38-.05,.56s-.04,.32-.04,.42c0,.02,0,.06-.02,.14-.01,.08-.03,.16-.04,.24-.02,.09-.03,.17-.05,.24-.02,.08-.03,.12-.04,.14v.3c0,.07,0,.13,0,.2,0,.06-.01,.1-.02,.1,0,0,0,.03-.02,.07-.01,.04-.03,.09-.04,.13-.02,.05-.03,.1-.04,.14-.01,.04-.02,.07-.02,.08-.07,.31-.13,.6-.18,.86-.04,.26-.09,.52-.13,.77-.04,.25-.1,.5-.16,.76-.06,.26-.14,.54-.25,.84-.06,.17-.16,.37-.29,.59-.14,.22-.29,.44-.45,.65-.16,.22-.31,.42-.46,.6s-.27,.32-.36,.4c-.11,.15-.25,.29-.44,.4-.19,.11-.39,.21-.61,.29-.22,.09-.44,.16-.66,.23-.22,.07-.41,.13-.56,.19-.26,.11-.53,.17-.8,.19-.27,.02-.55,.03-.82,.03-.24,0-.49,0-.74,0-.25,0-.5,0-.75-.01-.25-.01-.5-.04-.75-.09s-.49-.12-.71-.22c-.48-.21-.93-.46-1.35-.74-.42-.28-.84-.59-1.25-.93-.05-.04-.11-.1-.19-.19s-.16-.17-.24-.26c-.09-.09-.17-.17-.26-.25-.08-.08-.16-.13-.21-.15,.03,.02,.02-.04-.04-.18s-.14-.35-.26-.61c-.04-.09-.09-.22-.15-.4-.06-.18-.11-.37-.17-.58-.05-.21-.1-.41-.15-.61-.04-.2-.08-.36-.09-.48Z"/><path class="cls-9" d="M259.66,78.23s-.09,0-.2,.02c-.11,.02-.22,.03-.35,.05-.13,.02-.24,.03-.35,.05-.11,.02-.17,.02-.2,.02-.35,0-.7,.02-1.05,.05-.35,.03-.7,.05-1.05,.05-.07,0-.1,0-.1-.01s-.03-.01-.09-.01c-.02-.02-.06-.05-.11-.1-.05-.05-.09-.09-.11-.1v-.07s0-.04,0-.1c0-.06,0-.12-.02-.18s-.01-.12-.02-.17c0-.05,0-.09,0-.1,0-.04-.02-.12-.02-.23s-.02-.23-.02-.35c0-.12-.01-.23-.02-.34,0-.1,0-.17,0-.21,0-.15,0-.4,0-.73s0-.7,.01-1.12c0-.42,.01-.85,.02-1.31,0-.46,.01-.9,.02-1.31,0-.41,0-.78,.01-1.1,0-.33,0-.57,0-.72,0-.05,0-.14,0-.27,0-.13,0-.27-.02-.42s-.02-.29-.02-.42c0-.13-.02-.23-.02-.27l-.39-10.07s0-.06,0-.11,0-.1-.01-.16c0-.06,0-.12,0-.18s0-.1,.01-.13c.02-.12,.03-.22,.05-.3,.02-.08,.07-.12,.16-.12,.03,0,.09,0,.16-.01,.07,0,.15-.02,.23-.02,.08,0,.15-.02,.23-.02,.08,0,.14-.01,.19-.01h2.07s.04,0,.1-.01c.06,0,.12-.02,.2-.02,.07,0,.14-.01,.21-.01s.11,0,.13,.01c.19-.03,.33,0,.43,.09,.1,.09,.17,.2,.21,.34,.04,.14,.07,.28,.06,.44,0,.15-.01,.28-.02,.39,0,.02,0,.08,.01,.18,0,.09,.02,.2,.02,.32,0,.12,.02,.23,.02,.35,0,.11,.02,.2,.02,.26v.1c0,.07,0,.12-.02,.16-.02,.04-.03,.09-.05,.14l.07,1.86v.14c0,.08,0,.16,0,.26,0,.09,0,.18,.01,.27,0,.09,.01,.14,.03,.15,.02,.38,.04,.66,.05,.82,.01,.16,.02,.27,.03,.31,0,.04,0,.06,0,.05,0-.01,0,0,0,.04s0,.12,.01,.26c0,.14,.02,.38,.04,.73v.7c.02,.07,.04,.16,.06,.27,.02,.12,.04,.21,.04,.27l.11,1.15v.02s-.01,.05,0,.12c0,.07,0,.16,.02,.25,0,.09,.02,.18,.02,.25,0,.07,.01,.11,.01,.12,0,.14,0,.37,0,.68,0,.32,.02,.65,.03,1.01,.01,.35,.03,.69,.04,1.01s.01,.55,0,.68v1.05l-.05,1.33v1.54c0,.15,0,.25-.01,.29v.62s0,.04,0,.07c0,.03,0,.06,0,.1v.75c0,.09-.01,.18-.04,.26-.02,.08-.07,.15-.12,.22-.06,.07-.14,.13-.26,.19-.09,0-.16,.01-.22,.04-.06,.03-.12,.01-.18-.05Z"/><path class="cls-9" d="M261.85,72.78c0-.06,.01-.13,.04-.18,.02-.06,.04-.12,.04-.18,0-.25-.01-.5-.04-.74-.02-.24-.04-.49-.04-.74v-.5c.02-.52,.06-1.02,.12-1.5,.05-.48,.13-.95,.23-1.41,.1-.46,.23-.91,.39-1.36,.16-.45,.36-.9,.59-1.35,0-.02,.03-.06,.07-.13,.04-.07,.07-.14,.11-.22,.04-.08,.07-.15,.1-.22,.03-.07,.05-.11,.06-.13,.02-.02,.05-.07,.11-.15s.1-.12,.12-.13c.03-.04,.09-.1,.17-.18,.08-.08,.16-.16,.24-.24,.08-.08,.16-.15,.23-.22,.07-.06,.11-.11,.13-.12,0,0,.03-.03,.08-.06,.04-.03,.1-.07,.16-.1,.06-.04,.12-.07,.18-.11s.1-.06,.13-.08c.03-.02,.08-.04,.13-.07,.06-.03,.11-.06,.17-.09,.06-.03,.11-.05,.17-.07,.05-.02,.09-.03,.1-.03,.05-.02,.14-.06,.28-.12,.14-.05,.29-.11,.45-.16,.16-.05,.31-.1,.45-.14,.14-.04,.24-.07,.31-.09,.03,0,.08-.02,.15-.04,.06-.02,.13-.03,.21-.05,.07-.02,.14-.03,.21-.04s.12-.02,.14-.03h.65c.3,0,.57,.02,.81,.07s.5,.11,.78,.2c.32,.06,.63,.14,.93,.25s.59,.24,.87,.38c.28,.14,.55,.29,.81,.44,.26,.15,.51,.29,.75,.42,0,0,.02-.03,.02-.08,0-.04,.02-.09,.03-.15,0-.05,.01-.1,.02-.15s0-.08,0-.1v-.1c0-.38-.01-.76-.04-1.14s-.04-.76-.04-1.14v-.5c0-.09,.01-.21,.01-.37s0-.31,0-.48c0-.16,0-.32-.01-.46,0-.14,0-.25,0-.31,.02-.1,.04-.2,.07-.3,.03-.1,.05-.16,.05-.18l.07-.07c.07,0,.15-.02,.22-.02,.06,0,.13-.02,.18-.02,.06,0,.11-.02,.15-.02,.28-.02,.52-.03,.73-.04,.21,0,.43-.01,.67-.01,.2,0,.39,0,.56-.02s.33-.02,.49-.03c.16,0,.32-.01,.49,0,.17,0,.35,.02,.54,.05,.19,.11,.29,.22,.32,.35,0,.02,0,.05,0,.12,0,.06,0,.12,0,.19s0,.13,0,.19c0,.06,0,.1,0,.13,0,.04,0,.1,0,.16,0,.07,0,.14,0,.2s0,.12,0,.18c0,.05,0,.08,0,.09-.02,.43-.03,.85-.03,1.25,0,.4,0,.8,0,1.2s0,.79-.01,1.2-.02,.82-.04,1.25c-.02,.46-.03,.96-.05,1.48s-.03,1.02-.03,1.48c0,.07,0,.21,0,.44,0,.23,0,.47,.01,.74,0,.26,0,.51,.01,.74,0,.23,0,.38,0,.45,0,0,0,.05,0,.12,0,.07,0,.16,0,.26s0,.21,0,.31c0,.11,0,.19,0,.24,0,.07,0,.15,0,.26,0,.11,0,.21,0,.32s0,.2,0,.29c0,.09,0,.13,0,.14,0,.02,0,.08-.02,.17-.01,.09-.02,.18-.04,.28-.01,.1-.02,.19-.04,.27-.01,.09-.02,.14-.02,.16,0,.04,.01,.13,0,.26,0,.13-.01,.27-.02,.42s-.01,.29-.02,.42c0,.13,0,.23,0,.27,0,.04,0,.15,0,.33,0,.18,0,.37-.01,.57,0,.2,0,.39-.01,.57,0,.18,0,.29,0,.33,0,.02,0,.06,0,.14,0,.08,0,.17,0,.27s0,.21,0,.32c0,.11,0,.19,0,.24,0,.04,0,.12,0,.25,0,.13,0,.26,0,.41s0,.28,0,.42c0,.13,0,.21,0,.24-.02,.17-.12,.29-.29,.37-.18,.07-.38,.12-.6,.13-.22,.02-.42,.02-.62,.01-.19,0-.3,0-.34,.01h-.37c-.13,0-.25,.02-.37,.07h-1.55l-.12-.13-.15-1.2c-.33,.31-.69,.55-1.06,.72-.38,.17-.73,.3-1.08,.4-.35,.09-.67,.15-.96,.18s-.52,.05-.7,.07h-.39c-.12,0-.28-.02-.48-.02-.2,0-.4-.01-.61-.02-.21,0-.39-.01-.56-.02-.17,0-.28-.02-.34-.02-.06,0-.15-.03-.27-.05-.12-.03-.25-.06-.38-.09-.13-.03-.26-.06-.38-.09-.12-.03-.2-.06-.24-.07-.02,0-.08-.03-.16-.07-.08-.04-.17-.08-.26-.12-.09-.04-.17-.09-.25-.13-.08-.04-.13-.08-.17-.1-.04-.02-.11-.07-.21-.13-.1-.06-.2-.13-.31-.21-.11-.07-.21-.14-.3-.21-.09-.06-.15-.11-.18-.15-.05-.06-.09-.11-.13-.16-.04-.04-.08-.09-.12-.13-.04-.05-.07-.09-.1-.11-.2-.26-.36-.52-.48-.78s-.26-.54-.41-.85c-.09-.19-.18-.38-.28-.59s-.17-.41-.22-.6c0-.02-.02-.07-.04-.16-.02-.09-.04-.19-.06-.29-.02-.11-.04-.2-.06-.29-.02-.09-.03-.14-.04-.16-.02-.02-.04-.05-.07-.11-.03-.06-.06-.09-.07-.11v-.04Zm5.63,.52s.02,.04,.06,.09,.09,.1,.15,.16c.06,.06,.12,.12,.18,.18,.06,.06,.12,.11,.16,.14,.02,.02,.06,.04,.13,.07,.07,.03,.12,.06,.13,.07,.02,.02,.05,.04,.12,.07,.06,.03,.1,.06,.12,.07,.02,.02,.07,.04,.14,.07,.07,.03,.11,.05,.13,.05,.14,.06,.26,.09,.36,.09h.4c.4,0,.8-.06,1.19-.2,.39-.13,.8-.34,1.23-.62,.07-.06,.15-.13,.24-.18,.08-.06,.16-.12,.23-.18,0,0,.02-.04,.06-.09,.04-.05,.09-.1,.14-.16,.05-.06,.1-.12,.15-.16,.04-.05,.07-.08,.08-.1,.02-.03,.05-.09,.09-.17,.04-.08,.09-.17,.13-.26,.04-.09,.09-.17,.13-.25,.04-.08,.08-.14,.09-.18,.02-.06,.04-.12,.05-.15,.01-.04,.02-.09,.02-.15l.05-.16c.02-.07,.06-.19,.1-.35s.1-.38,.17-.67c0-.02,0-.08,.02-.18,.02-.1,.03-.19,.05-.25,0-.04,.01-.11,.02-.2,0-.09,0-.19,0-.29v-.39s0-.07,0-.15c0-.07-.01-.15-.02-.23,0-.08-.02-.16-.02-.23,0-.07-.02-.13-.02-.16,0-.02,0-.04-.02-.07-.02-.03-.03-.06-.05-.07-.02-.02-.04-.05-.08-.09-.04-.04-.08-.09-.12-.15-.04-.05-.09-.1-.13-.15-.04-.05-.08-.09-.09-.11-.23-.24-.48-.45-.75-.65s-.56-.36-.87-.49c-.02,0-.06,0-.12-.02-.03,0-.06-.02-.09-.02h-1.67c-.04-.07-.08-.12-.1-.13-.03-.01-.08-.02-.14-.02-.15,0-.3,.02-.48,.05-.17,.03-.34,.08-.5,.15-.16,.07-.32,.15-.46,.24-.15,.09-.27,.2-.37,.32-.02,.02-.05,.08-.1,.15-.05,.08-.11,.16-.18,.26-.07,.1-.13,.19-.2,.29-.06,.09-.11,.16-.14,.2,0,.02-.01,.04-.04,.08s-.04,.06-.04,.08c-.14,.24-.27,.49-.38,.73-.12,.24-.2,.51-.24,.81,0,.04-.02,.1-.02,.19,0,.09-.02,.18-.02,.27s-.01,.19-.02,.27c0,.08,0,.14,0,.17,0,.02,0,.08,.02,.18,.02,.09,.03,.15,.05,.18,.02,.07,.06,.18,.11,.33s.1,.3,.15,.45c.05,.15,.09,.29,.13,.42,.04,.13,.07,.21,.09,.24l.65,.96Z"/><path class="cls-9" d="M291.11,82.46c.14-.37,.28-.72,.43-1.05,.15-.33,.29-.66,.42-.98,.13-.32,.26-.63,.37-.93,.11-.31,.21-.61,.29-.92v-.05l.12-.55s.04-.04,.09-.07c.05-.03,.08-.06,.08-.09,0-.02,0-.05,.03-.1l.06-.16c.02-.05,.04-.11,.06-.16,.02-.05,.04-.09,.04-.1,.02-.1,.05-.19,.07-.27s.02-.17,0-.26l-.24-.56c-.05-.28-.15-.55-.29-.81-.15-.26-.29-.51-.43-.76l-.28-.4s-.02-.04-.02-.06v-.04c-.14-.2-.26-.4-.37-.6s-.21-.42-.3-.62-.2-.42-.3-.62c-.1-.21-.21-.41-.33-.62-.04-.05-.11-.15-.21-.31s-.21-.33-.32-.51c-.12-.18-.23-.36-.34-.53s-.18-.3-.23-.38c-.29-.44-.56-.88-.82-1.33-.26-.45-.53-.9-.79-1.35-.26-.45-.53-.9-.8-1.34-.27-.44-.56-.88-.85-1.31,0,0-.01-.02-.01-.02v-.05c-.02-.11,.03-.2,.16-.29,.02,0,.04,0,.07-.01s.06-.02,.07-.02c.02,0,.04-.03,.08-.08,.04-.05,.06-.09,.08-.12,.02,0,.06,0,.12-.01,.07,0,.13-.02,.2-.03s.14-.02,.2-.04,.11-.02,.12-.03c.04,0,.15-.04,.33-.09,.18-.05,.37-.1,.58-.16,.21-.06,.4-.12,.58-.17,.18-.05,.29-.09,.34-.1,.02,0,.03,0,.05-.01,.02,0,.03,0,.04,0,.01,0,.02,0,.03,0,.03,0,.06,0,.09-.01,.02,0,.04,0,.06-.01,.04,0,.1-.02,.18-.02,.08,0,.16-.02,.24-.02,.08,0,.15-.01,.22-.01h.13s.06,0,.1,.02c.04,.02,.09,.04,.13,.07,.02,.04,.07,.11,.12,.21s.12,.2,.18,.31c.06,.11,.12,.21,.18,.31,.06,.1,.1,.17,.13,.21,.26,.46,.54,.91,.84,1.34s.59,.87,.87,1.34c0,.02,.03,.05,.05,.12,.03,.06,.06,.12,.1,.19,.04,.07,.07,.13,.1,.18,.03,.06,.05,.09,.05,.1,0,0,.02,.03,.04,.06,.02,.03,.04,.07,.06,.1s.04,.07,.06,.11,.03,.06,.04,.08c.02,.02,.07,.1,.15,.22,.09,.12,.18,.25,.27,.4,.1,.14,.19,.28,.28,.4,.09,.13,.15,.21,.17,.24,.02,.03,.06,.12,.13,.26,.07,.14,.15,.29,.24,.45,.09,.16,.17,.31,.24,.45,.07,.14,.12,.23,.15,.26,0,.02,.01,.04,.04,.07,.03,.03,.05,.05,.07,.07,.02-.08,.03-.18,.04-.3,.01-.12,.03-.21,.04-.27,.06-.38,.14-.75,.23-1.11,.09-.36,.19-.72,.32-1.09,.07-.23,.15-.45,.26-.68,.11-.22,.19-.45,.26-.68,.11-.34,.24-.71,.38-1.11,.14-.4,.27-.76,.39-1.09,0-.02,.03-.08,.06-.16,.03-.08,.07-.17,.11-.27s.08-.19,.11-.27c.03-.08,.05-.13,.06-.16,.03-.1,.06-.18,.08-.26,.02-.07,.04-.14,.07-.21,.02-.06,.06-.13,.1-.19,.04-.06,.09-.13,.16-.2,0,0,.03,0,.08-.01,.04,0,.09-.02,.14-.03s.1-.02,.14-.04,.08-.02,.09-.03c.21-.03,.42-.05,.62-.05,.2,0,.41,0,.62,0,.04,0,.13,0,.26-.01,.13,0,.27-.01,.43-.02,.15,0,.3,0,.43,0h.26c.07,0,.18-.01,.34-.02,.16,0,.33,0,.51,0h.51c.16,0,.27,0,.34,.01,.04,.02,.1,.05,.18,.09,.08,.04,.13,.09,.15,.14,0,.07,0,.16,0,.25,0,.09-.03,.19-.05,.28-.03,.09-.05,.18-.07,.27-.02,.09-.04,.16-.06,.21-.11,.4-.21,.78-.32,1.15-.11,.37-.23,.73-.35,1.09-.12,.36-.25,.72-.39,1.07-.14,.36-.29,.72-.45,1.09-.28,.62-.54,1.28-.78,1.98-.24,.7-.47,1.37-.69,2-.09,.27-.2,.56-.34,.87-.14,.31-.28,.59-.42,.84-.09,.16-.17,.33-.24,.49-.07,.17-.12,.33-.17,.49-.03,.15-.06,.27-.08,.38-.02,.11-.05,.21-.08,.31-.03,.1-.07,.2-.12,.31-.04,.11-.1,.23-.15,.38-.02,.05-.04,.14-.05,.27,0,.13,0,.23,0,.29,0,.02-.02,.07-.05,.15-.04,.08-.06,.13-.08,.15,0,0-.01,.03-.04,.05-.03,.03-.06,.06-.09,.1-.04,.04-.07,.07-.1,.1-.03,.03-.05,.05-.05,.05,0,.02,0,.05-.03,.12-.02,.06-.03,.13-.05,.2-.02,.07-.04,.13-.05,.2-.01,.06-.02,.1-.02,.12-.03,.04-.06,.12-.1,.23-.04,.11-.09,.23-.14,.35s-.09,.24-.13,.35-.07,.19-.1,.23c.02,.19,.02,.33,0,.44-.01,.11-.08,.24-.2,.39l-1.11,3.33s-.03,.06-.05,.12c-.03,.05-.06,.11-.1,.16-.04,.05-.08,.1-.12,.14-.04,.04-.08,.06-.11,.07-.07,.02-.16,.03-.27,.04-.11,0-.2,0-.26-.01-.02,0-.05,0-.1,0-.05,0-.11,.02-.18,.03s-.14,.02-.2,.03c-.06,0-.12,0-.17-.01-.03,0-.07-.02-.12-.02-.05,0-.08,0-.11,0-.04,0-.12-.02-.24-.04-.12-.02-.25-.04-.4-.07s-.28-.05-.41-.07c-.13-.02-.22-.03-.26-.03-.04,0-.11,.01-.2,.01h-.16s-.06,0-.13-.02-.15-.02-.24-.03c-.09,0-.17-.02-.25-.02-.08,0-.12-.01-.13-.01-.05,0-.11-.01-.18-.04s-.13-.08-.18-.16c-.04-.08-.07-.2-.06-.34,0-.15,.06-.35,.17-.6Z"/><path class="cls-9" d="M309.14,78.26c-.06-.02-.14-.03-.26-.05-.11-.02-.26-.05-.43-.08,0,0-.04,0-.11-.02-.07-.01-.14-.03-.24-.06-.09-.03-.19-.07-.29-.12s-.19-.11-.27-.18c-.02,0-.05-.02-.1-.04-.05-.02-.11-.04-.18-.07-.07-.03-.12-.05-.18-.07-.05-.02-.09-.03-.1-.04-.15-.06-.29-.13-.42-.23-.13-.1-.26-.2-.38-.31-.12-.11-.24-.21-.35-.32-.11-.11-.22-.21-.32-.31-.39-.37-.74-.75-1.05-1.16-.31-.41-.57-.85-.79-1.34-.18-.39-.32-.75-.43-1.07-.11-.32-.19-.64-.24-.95-.06-.31-.1-.64-.12-.97-.02-.33-.03-.72-.03-1.15v-.92c.11-.46,.23-.9,.37-1.31,.14-.41,.31-.8,.51-1.18,.2-.37,.43-.73,.69-1.07,.26-.34,.57-.67,.92-.99,.25-.24,.51-.46,.78-.63,.27-.18,.56-.34,.87-.49,.02,0,.06-.02,.1-.05s.09-.05,.15-.07c.05-.02,.1-.04,.14-.05,.04-.02,.07-.03,.08-.04,.02,0,.08,0,.18-.02s.15-.02,.17-.02c.02-.02,.07-.05,.15-.1,.07-.05,.12-.09,.13-.1,0,0,.03,0,.08-.01,.04,0,.09-.02,.14-.03s.09-.02,.13-.03c.04,0,.06-.02,.07-.02,.03,0,.11-.03,.22-.05,.11-.03,.24-.06,.37-.09,.13-.03,.25-.06,.37-.09,.12-.03,.19-.04,.23-.04,.07-.02,.18-.05,.35-.07,.17-.02,.35-.04,.55-.05,.2-.02,.38-.03,.56-.05,.17-.02,.3-.03,.38-.04h.15s.08,0,.13,0c.04,0,.08,0,.1,0,.18,0,.34,.02,.49,.02,.15,0,.3,.03,.46,.07,.23,.06,.46,.11,.7,.16,.24,.05,.47,.09,.7,.12,.06,.02,.15,.07,.29,.13,.13,.07,.28,.14,.43,.22,.15,.08,.29,.16,.42,.23,.13,.07,.22,.13,.27,.16,.02,.02,.09,.08,.19,.18,.1,.1,.21,.21,.34,.34s.24,.24,.35,.37c.11,.12,.2,.22,.26,.28,0,.02,.03,.05,.07,.11,.04,.06,.09,.12,.14,.2,.05,.08,.11,.15,.16,.23,.05,.07,.1,.13,.13,.18,.29,.45,.54,.89,.73,1.33s.34,.89,.46,1.34,.2,.92,.25,1.39c.05,.48,.08,.97,.08,1.48v.05c-.02,.14-.03,.33-.05,.57-.02,.24-.04,.48-.06,.71-.02,.24-.04,.45-.05,.63-.02,.19-.03,.3-.04,.33-.06,.42-.14,.81-.26,1.18-.12,.37-.26,.74-.43,1.11-.16,.2-.28,.36-.37,.49s-.19,.26-.29,.39c-.1,.13-.21,.26-.33,.42-.13,.15-.3,.34-.52,.57-.29,.21-.59,.41-.91,.59-.32,.18-.65,.33-.99,.46-.34,.13-.69,.23-1.04,.31-.35,.07-.7,.1-1.04,.09h-.17c-.08,0-.16,0-.26,0-.09,0-.18,0-.26-.01-.08,0-.13,0-.16,0-.02-.02-.04-.03-.09-.05-.04-.02-.07-.02-.09-.02-.02,0-.05,0-.11,.01-.06,0-.12,.02-.19,.03-.07,.01-.13,.02-.2,.03-.06,0-.1,0-.12,0-.03,0-.11,0-.23-.02-.12-.01-.25-.03-.38-.05-.14-.02-.27-.04-.38-.05-.12-.02-.19-.03-.21-.04h-.12l-.31-.09Zm-1.6-8.39c0,.23,.03,.45,.06,.67,.03,.22,.09,.44,.18,.65,0,.02,.02,.06,.06,.13,.04,.07,.06,.12,.06,.13,.03,.11,.06,.22,.1,.34,.03,.12,.07,.24,.1,.37,.04,.12,.08,.24,.13,.35,.05,.11,.11,.22,.18,.31,.02,.02,.07,.07,.12,.13s.11,.12,.17,.18c.06,.06,.11,.12,.16,.17,.05,.05,.08,.08,.1,.09,0,0,.03,.03,.08,.06,.04,.03,.1,.07,.16,.1,.06,.04,.12,.08,.18,.12,.06,.04,.11,.07,.15,.09l.12,.09s.08,.05,.16,.11c.08,.06,.13,.09,.15,.09,.02,.02,.06,.03,.12,.05,.06,.02,.12,.03,.16,.03,.17,.08,.3,.13,.38,.14,.08,.01,.16,.01,.22,0,.06-.01,.13-.02,.2-.04s.18,0,.32,.02c0,0,.04,0,.09,0,.05,0,.1-.01,.16-.02l.17-.02c.06,0,.1-.02,.13-.02,.38-.06,.74-.19,1.07-.39,.33-.2,.62-.46,.87-.76,.25-.3,.44-.64,.58-1.01,.14-.37,.21-.75,.21-1.13,0-.02,0-.12,0-.3,0-.17,.02-.48,.05-.92,0-.21-.04-.42-.13-.62-.09-.2-.16-.41-.23-.62-.11-.33-.3-.6-.55-.82-.26-.22-.52-.43-.8-.62-.17-.11-.33-.21-.47-.29-.14-.08-.29-.14-.43-.19s-.3-.09-.46-.11c-.16-.02-.34-.04-.54-.05-.19,0-.35-.01-.49,0-.14,0-.3,.03-.49,.07-.2,.04-.42,.1-.63,.17s-.43,.16-.63,.27c-.2,.11-.38,.24-.54,.4-.16,.15-.27,.33-.35,.54l-.21,.59c-.05,.07-.09,.16-.13,.28-.04,.12-.07,.25-.1,.4-.02,.14-.04,.28-.04,.43s.01,.27,.04,.38Z"/><path class="cls-9" d="M320.62,72.85c-.02-.08-.04-.21-.08-.38-.04-.17-.08-.35-.13-.54-.04-.19-.08-.37-.12-.54-.04-.17-.06-.29-.07-.38,0-.03-.01-.1-.02-.21s-.01-.23-.02-.35c0-.13-.01-.24-.02-.35s0-.18-.02-.2c0-.04,0-.09,0-.16,0-.06-.01-.13-.02-.2,0-.06-.02-.13-.02-.18,0-.06-.02-.1-.03-.12l-.05-.12s-.01-.06-.01-.13v-.23c0-.08,0-.15,0-.22,0-.06,0-.11,0-.12-.02-.2-.03-.44-.03-.7,0-.26,0-.52-.01-.79,0-.26,0-.52,0-.78v-.68c0-.28,0-.54,0-.78,0-.23,0-.45,.02-.66,0-.21,.02-.41,.04-.6,.02-.19,.04-.39,.07-.59,.02-.09,.1-.16,.26-.23,.16-.06,.31-.09,.46-.09h.57c.08,0,.18,0,.31,.02,.13,.02,.25,.03,.38,.05,.13,.02,.24,.04,.34,.05,.1,.02,.15,.03,.17,.04,.02,0,.07,0,.17,.01,.1,0,.2,.02,.31,.03,.11,.01,.21,.02,.31,.04s.16,.02,.18,.03c.02,0,.08,.01,.18,.02,.09,0,.2,0,.31,0s.21,0,.31,0c.1,0,.16,.01,.2,.02,.05,.04,.08,.08,.1,.11,.02,.03,.03,.06,.04,.09,0,.03,0,.07,0,.11,0,.04,0,.1,0,.16v.5c-.04,.31-.07,.6-.07,.89,0,.28-.01,.58-.01,.91,0,.52,.01,1.04,.03,1.54,.02,.51,.02,1.06,0,1.67l.07,.66v.2c.04,.2,.07,.41,.08,.62,.02,.21,.04,.43,.06,.64,.02,.22,.05,.43,.08,.65,.03,.22,.09,.43,.16,.64l.07,.16c.03,.07,.06,.14,.09,.21s.06,.14,.08,.2c.03,.06,.04,.1,.05,.1,.06,.15,.15,.29,.28,.4,.13,.11,.27,.21,.41,.29,.14,.08,.28,.14,.4,.19,.13,.04,.21,.07,.25,.08,.02,0,.07,.03,.17,.07s.17,.06,.21,.08c.02,.02,.08,.02,.17,0,.08-.01,.14-.02,.15-.02,.15,0,.34-.03,.58-.08,.24-.05,.49-.16,.75-.34,.3-.33,.52-.66,.67-.99,.14-.33,.24-.68,.29-1.03,.05-.35,.07-.71,.07-1.09s-.01-.78-.01-1.2v-.4s0-.15,0-.32-.01-.36-.02-.56c0-.2-.01-.38-.02-.56s0-.28,0-.32v-1.21s-.02-.12-.03-.24c-.01-.12-.03-.27-.06-.43-.02-.17-.05-.34-.07-.53-.03-.19-.05-.36-.07-.52-.02-.16-.04-.3-.06-.42-.02-.12-.02-.2-.02-.24l.12-1.05c.03-.06,.08-.1,.15-.12,.07-.02,.14-.03,.23-.04,.08,0,.16,0,.24,0,.08,0,.14,0,.2,0,0,0,.03,0,.08-.01,.04,0,.09-.02,.14-.02,.05,0,.09-.02,.13-.02,.04,0,.06-.01,.07-.01l1.49,.11s.09,.03,.18,.03c.1,0,.2,0,.31,0h.31c.1,0,.15,0,.17,.01,.05,0,.12-.02,.23-.02,.1,0,.21-.01,.32-.02,.11,0,.21,0,.31-.01,.09,0,.16,0,.19,0l.15,.05c.1,0,.17,.04,.23,.12,.05,.08,.09,.18,.12,.31,.03,.13,.05,.27,.05,.45,0,.17,.01,.35,.01,.55v.23c0,.16,0,.33-.03,.49-.02,.16-.03,.33-.05,.49,0,.05-.01,.16-.01,.34s0,.36,0,.56,0,.38,0,.56,0,.29-.01,.34c0,.03,0,.12-.03,.25s-.04,.28-.07,.43c-.02,.15-.05,.3-.07,.43s-.03,.22-.04,.25c0,.04,0,.14-.02,.29-.01,.15-.03,.33-.04,.52-.02,.19-.03,.38-.05,.56s-.04,.32-.04,.42c0,.02,0,.06-.02,.14-.01,.08-.03,.16-.04,.24-.02,.09-.03,.17-.05,.24-.02,.08-.03,.12-.04,.14v.3c0,.07,0,.13,0,.2,0,.06-.01,.1-.02,.1,0,0,0,.03-.02,.07-.01,.04-.03,.09-.04,.13-.02,.05-.03,.1-.04,.14-.01,.04-.02,.07-.02,.08-.07,.31-.13,.6-.18,.86-.04,.26-.09,.52-.13,.77-.04,.25-.1,.5-.16,.76-.06,.26-.14,.54-.25,.84-.06,.17-.16,.37-.29,.59-.14,.22-.29,.44-.45,.65-.16,.22-.31,.42-.46,.6s-.27,.32-.36,.4c-.11,.15-.25,.29-.44,.4-.19,.11-.39,.21-.61,.29-.22,.09-.44,.16-.66,.23-.22,.07-.41,.13-.56,.19-.26,.11-.53,.17-.8,.19-.27,.02-.55,.03-.82,.03-.24,0-.49,0-.74,0-.25,0-.5,0-.75-.01-.25-.01-.5-.04-.75-.09s-.49-.12-.71-.22c-.48-.21-.93-.46-1.35-.74-.42-.28-.84-.59-1.25-.93-.05-.04-.11-.1-.19-.19s-.16-.17-.24-.26c-.09-.09-.17-.17-.26-.25-.08-.08-.16-.13-.21-.15,.03,.02,.02-.04-.04-.18s-.14-.35-.26-.61c-.04-.09-.09-.22-.15-.4-.06-.18-.11-.37-.17-.58-.05-.21-.1-.41-.15-.61-.04-.2-.08-.36-.09-.48Z"/><path class="cls-9" d="M220.96,108.46c-.11-.03-.22-.08-.35-.13-.12-.06-.25-.12-.38-.19-.13-.07-.25-.14-.37-.2-.12-.06-.23-.13-.32-.18,0,0-.03-.03-.07-.05-.04-.03-.08-.06-.13-.1s-.1-.08-.15-.12c-.05-.04-.08-.07-.11-.1-.09-.06-.15-.11-.2-.16s-.08-.1-.12-.15c-.04-.05-.08-.09-.13-.13-.05-.04-.13-.08-.24-.11,0,.02,0,.04-.02,.08-.01,.04-.02,.06-.02,.08,0,.02-.01,.04-.02,.09,0,.04,0,.09-.01,.14,0,.05,0,.1-.01,.15,0,.04,0,.08,0,.1,0,.03-.01,.09-.02,.16,0,.08,0,.16-.01,.26,0,.09,0,.18,0,.26v.16l-.13,.16-2.73,.13c-.07-.04-.15-.06-.22-.06s-.15,0-.23,.01l-.79-.07c-.11,.02-.21,.03-.3,.03-.09,0-.18,0-.26,0-.08,0-.16-.02-.24-.05-.08-.02-.18-.05-.28-.09-.02,0-.06-.03-.1-.05-.04-.03-.08-.05-.1-.07-.04-.02-.09-.05-.13-.12s-.08-.11-.09-.15c-.06-.26-.1-.51-.12-.74-.01-.24-.03-.48-.04-.74,0-.05,0-.11,0-.18s0-.14,0-.21,0-.13,0-.18c0-.05,0-.08,0-.09l.2-5.74v-.07c.02-.53,.05-1.07,.08-1.63,.03-.56,.06-1.1,.07-1.63,0-.06,0-.19,0-.4,0-.21,0-.44,0-.68s0-.47,0-.68c0-.21,0-.35,0-.4,0-.44,0-.9,0-1.38-.01-.48-.03-.95-.06-1.42,0-.02,0-.07,0-.13,0-.06,0-.12-.01-.19,0-.06,0-.13-.01-.19s0-.1,0-.12v-1.61c0-.33,0-.64,0-.93s.01-.5,.03-.63c.02-.08,.06-.13,.11-.15,.05-.02,.11-.02,.17-.02,.1,0,.19,0,.28,.02s.19,.03,.29,.02c.21-.02,.42-.05,.62-.09,.2-.04,.41-.08,.61-.1,.3-.04,.59-.07,.86-.1,.27-.02,.54-.04,.82-.06h.2s.07,0,.11-.01c.02,0,.08,0,.18,.02s.15,.03,.17,.04c0,0,.04,0,.09,0,.05,0,.11,0,.16,0s.1,0,.15,0c.05,0,.08,0,.1,0,.07,.02,.13,.1,.18,.24s.08,.28,.1,.44,.04,.31,.05,.45c0,.14,.01,.23,.01,.27v.12s0,.06,.01,.09l-.2,3.1-.4,1.79c.15-.12,.32-.27,.48-.45,.17-.18,.35-.36,.55-.53,.2-.17,.42-.33,.67-.48,.25-.14,.53-.24,.85-.3,.36-.11,.7-.2,1.02-.25,.32-.05,.68-.09,1.07-.1,.64,0,1.28,.1,1.92,.32,.63,.22,1.29,.51,1.97,.86,.06,.06,.17,.15,.31,.27s.29,.25,.45,.38c.16,.13,.31,.25,.45,.37,.14,.11,.23,.19,.28,.23,.19,.19,.36,.37,.52,.54,.16,.18,.3,.35,.44,.54s.26,.38,.37,.58c.11,.2,.22,.42,.33,.66,.06,.15,.12,.32,.18,.51,.06,.19,.11,.39,.16,.59,.04,.2,.08,.41,.11,.61,.03,.2,.05,.39,.06,.56,0,.2,.01,.37,0,.52,0,.15-.02,.31-.03,.45-.02,.15-.04,.3-.05,.45-.02,.15-.04,.32-.07,.52-.18,1.23-.53,2.37-1.06,3.43-.53,1.06-1.28,1.98-2.25,2.77-.24,.2-.46,.36-.68,.51-.22,.14-.45,.27-.68,.37-.23,.11-.48,.2-.73,.27-.26,.08-.54,.14-.84,.19-.02,0-.05,0-.1,0-.05,0-.09,0-.12,0-.04,0-.09,.01-.16,.01h-.12c-.07,0-.18,0-.35,0-.17,0-.35,0-.54-.01-.19,0-.36-.01-.53-.02-.17,0-.28-.02-.33-.02Zm-2.97-7.36s.01,.08,.04,.18c.02,.09,.04,.15,.06,.16,.07,.28,.16,.52,.27,.74,.11,.22,.23,.41,.38,.59,.15,.18,.31,.35,.5,.5,.19,.15,.4,.31,.63,.46,.19,.11,.38,.22,.59,.33,.2,.11,.42,.17,.65,.18,.02,0,.08,0,.19,.02,.11,.02,.21,.02,.29,.01,0,.02,.04,.02,.1,0,.07-.02,.15-.04,.24-.07,.09-.03,.19-.06,.28-.09,.09-.03,.17-.05,.21-.07,.33-.18,.6-.36,.82-.56,.22-.19,.44-.44,.66-.75,.03-.04,.08-.11,.14-.2,.06-.09,.12-.19,.18-.3,.06-.11,.12-.21,.17-.3,.05-.09,.08-.16,.08-.2,.02-.04,.04-.11,.07-.21,.03-.1,.06-.21,.1-.33,.03-.12,.06-.23,.09-.32,.03-.1,.04-.17,.04-.21,0,0,.01-.05,.01-.14v-.31c0-.12,0-.24,0-.37,0-.13,0-.23,0-.31,0,0-.01-.02-.01-.04v-.16s-.02-.11-.03-.18c-.01-.07-.02-.15-.03-.22,0-.07-.02-.14-.03-.2,0-.06-.02-.09-.02-.11,0-.02-.01-.04-.03-.07-.02-.03-.04-.05-.05-.07,0,0-.03-.02-.05-.05-.03-.02-.06-.05-.09-.08-.03-.03-.06-.06-.09-.09-.03-.03-.05-.05-.05-.05,0-.02,0-.06,0-.14,0-.08,0-.13,0-.15l-.03-.05s-.02-.03-.03-.04c-.01-.01-.02-.02-.03-.03-.02-.02-.08-.08-.16-.17-.09-.09-.15-.14-.19-.16,.03-.09,0-.16-.07-.22-.08-.06-.15-.08-.22-.07-.3-.2-.57-.36-.81-.49-.24-.13-.49-.23-.74-.29s-.54-.08-.85-.06c-.31,.02-.7,.08-1.14,.19-.38,.16-.71,.42-.97,.77-.26,.35-.48,.74-.64,1.17-.16,.43-.28,.87-.34,1.32-.06,.45-.09,.86-.07,1.23v.05Z"/><path class="cls-9" d="M231.08,100.19c.05-.3,.11-.6,.18-.89,.07-.29,.15-.58,.24-.87,.07-.21,.12-.4,.17-.56,.04-.16,.1-.35,.16-.55,0-.02,.01-.06,.03-.13,.02-.07,.04-.15,.07-.24s.05-.16,.08-.23c.02-.07,.04-.11,.05-.13,.09-.28,.22-.54,.39-.77,.17-.23,.35-.46,.54-.68,0,0,.04-.04,.08-.09,.04-.05,.1-.11,.15-.17,.06-.06,.11-.12,.16-.18,.05-.06,.09-.1,.11-.12,0,0,.03-.03,.05-.06,.03-.03,.05-.07,.08-.12,.03-.04,.05-.08,.08-.12,.02-.03,.04-.05,.06-.06,.34-.29,.72-.56,1.13-.79,.41-.24,.84-.44,1.28-.61s.9-.3,1.36-.4c.46-.09,.91-.14,1.36-.15,.5-.04,1.03-.03,1.57,.02,.54,.06,1.05,.19,1.53,.4,.4,.12,.74,.26,1.03,.42,.29,.15,.53,.31,.73,.45,.2,.15,.36,.28,.49,.4,.13,.12,.24,.2,.34,.25,.25,.22,.48,.44,.68,.65,.2,.21,.39,.43,.56,.66,.17,.23,.32,.47,.47,.73s.29,.54,.43,.86c.03,.07,.06,.21,.1,.4,.04,.19,.09,.39,.14,.6,.05,.21,.09,.41,.13,.6,.04,.19,.06,.32,.07,.4,0,.02,.01,.05,.02,.11,0,.06,0,.13,0,.21v.43s0,.12,0,.2,0,.17,0,.26v.23c0,.07,0,.1-.01,.11,0,.02-.01,.08-.04,.15-.03,.08-.05,.16-.07,.24-.02,.09-.05,.17-.07,.24-.02,.08-.03,.12-.03,.14-.16,.16-.33,.27-.49,.34-.17,.06-.36,.1-.59,.12-.22,.02-.49,.03-.81,.03-.31,0-.69,.03-1.14,.08h-.63c-.15,0-.28,0-.4,0-.12,0-.2,0-.23,0h-.12s-.05,.03-.1,.04c-.05,0-.11,.01-.17,0-.06,0-.11-.01-.15-.03-.04-.02-.07-.04-.08-.07,0,0-.04,0-.11,0-.06,0-.14,0-.21,0h-.23c-.08,0-.13,0-.15-.01,0,0-.02,.01-.04,.01h-.06c-.2,0-.42,.02-.67,.02-.25,0-.51,.02-.77,.02-.26,0-.52,.01-.78,.02-.25,0-.48,0-.67,0-.29,.02-.56,.02-.79,0-.23-.01-.46-.02-.67-.04-.22-.01-.44-.02-.67-.03-.23,0-.49,0-.79,0-.04,0-.08,0-.12,0-.04,0-.07,.03-.08,.07,0,.04,0,.1,.03,.18,.02,.08,.03,.13,.03,.16,.07,.29,.12,.5,.15,.63,.03,.13,.05,.22,.08,.27,.02,.05,.05,.1,.09,.13,.04,.04,.1,.11,.18,.23,0,0,.01,.03,.04,.05,.03,.03,.06,.06,.1,.09,.04,.03,.07,.06,.1,.09,.03,.03,.04,.05,.04,.05,.27,.43,.62,.74,1.06,.93,.44,.19,.89,.28,1.35,.26,.07,0,.15,0,.27,0,.11,0,.18,0,.2,0,.16-.02,.28-.02,.35-.02,.07,0,.13,.01,.18,.02,.05,0,.1,.01,.15,.02,.05,0,.14,0,.26-.02,.12-.02,.28-.05,.49-.09,.21-.04,.49-.11,.86-.2,0,0,.05-.02,.13-.06,.08-.04,.17-.09,.26-.13s.18-.1,.27-.14c.09-.04,.14-.07,.15-.08,.21-.13,.4-.26,.57-.38,.17-.13,.33-.24,.47-.35,.14-.11,.28-.2,.4-.28,.13-.08,.25-.15,.37-.2h.07s.04,0,.07,.02c.03,.02,.05,.04,.05,.05,.07,.07,.18,.15,.33,.25,.15,.1,.29,.21,.45,.31,.15,.11,.29,.21,.43,.31,.14,.1,.24,.19,.3,.26,.02,.02,.08,.06,.17,.12,.09,.07,.18,.14,.28,.21,.1,.08,.18,.15,.26,.22,.07,.07,.11,.11,.11,.12v.05s0,.03,0,.04c0,0,0,.02,0,.04,0,.2-.05,.38-.18,.54-.13,.15-.26,.31-.4,.45-.38,.42-.79,.82-1.21,1.21-.43,.39-.89,.72-1.4,.98-.16,.07-.33,.13-.49,.16-.16,.04-.33,.08-.49,.14-.21,.06-.42,.11-.61,.14-.2,.03-.39,.05-.57,.05-.19,0-.38,.01-.58,0-.2,0-.41,0-.64,0-.59,.02-1.14,0-1.67-.06-.53-.06-1.07-.17-1.63-.33-.21-.06-.41-.14-.59-.21-.18-.08-.35-.16-.51-.26-.16-.09-.32-.2-.47-.32-.16-.12-.31-.25-.48-.38-.29-.24-.57-.48-.87-.71-.29-.23-.57-.5-.83-.81-.02,0-.05-.06-.1-.15-.05-.09-.08-.15-.09-.17-.02-.02-.05-.05-.1-.12s-.1-.13-.15-.2c-.05-.07-.11-.13-.16-.2s-.08-.1-.09-.12c-.02-.02-.05-.09-.1-.19-.05-.1-.11-.22-.18-.35-.07-.13-.13-.27-.2-.4-.06-.13-.11-.24-.14-.32-.02-.02-.03-.05-.05-.1-.02-.05-.02-.08-.02-.1-.1-.54-.18-1.06-.25-1.57s-.1-1.05-.09-1.6v-.06Zm8.69-3.91c-.42,0-.8,.06-1.16,.15-.36,.09-.71,.26-1.05,.49-.11,.07-.24,.17-.38,.28-.14,.11-.28,.24-.42,.37-.13,.13-.25,.28-.34,.43-.09,.15-.13,.3-.13,.45,.21-.02,.41-.04,.59-.07,.18-.03,.37-.05,.57-.06h.05s.07,.01,.15,.02c.08,0,.18,0,.28,.01,.1,0,.2,0,.29,.01,.09,0,.15,0,.17,0h1.17c.07,0,.17,0,.31-.01,.13,0,.26-.02,.4-.02,.13,0,.25-.01,.36-.02,.11,0,.17,0,.18,0,.08,0,.23,0,.45,0,.22,0,.45,0,.69-.01,.24,0,.47-.01,.69-.02,.22,0,.36-.02,.45-.02,.02,0,.03,0,.05-.02l.02-.02s0-.04-.02-.07c-.02-.03-.03-.06-.05-.07-.02-.03-.04-.08-.07-.13-.03-.05-.06-.11-.09-.16-.03-.05-.06-.1-.08-.13s-.04-.06-.05-.07c-.36-.45-.81-.78-1.36-.99-.55-.21-1.1-.31-1.65-.29Z"/><path class="cls-9" d="M255.84,106.38c0-.16,0-.42,.02-.77,.01-.35,.02-.75,.04-1.2,.01-.45,.03-.92,.05-1.41,.02-.49,.04-.96,.05-1.41,.01-.45,.02-.84,.04-1.19,.01-.35,.02-.6,.02-.76,0-.04-.01-.12-.02-.24,0-.12-.01-.26-.02-.42-.01-.16-.02-.33-.03-.51,0-.17-.02-.34-.02-.51,0-.16-.01-.3-.02-.42,0-.12,0-.2,0-.24,0-.02,0-.1-.02-.23-.01-.13-.02-.27-.04-.44-.01-.17-.02-.34-.04-.51-.01-.17-.02-.31-.02-.43,0-.06,0-.18-.02-.35-.02-.17-.03-.34-.05-.53-.02-.19-.03-.36-.05-.52-.02-.16-.03-.28-.03-.34,0-.02,0-.05,.03-.11,.02-.06,.03-.1,.05-.12,.05-.05,.13-.08,.24-.08,.11,0,.19,0,.25,0,.02,0,.06-.02,.13-.02,.07,0,.15-.02,.23-.02,.08,0,.15-.01,.23-.02,.07,0,.12,0,.13,0,.02,0,.09,0,.2-.02,.11-.02,.23-.03,.36-.05,.13-.02,.25-.04,.37-.05,.11-.02,.19-.03,.22-.04,.05,0,.17,0,.35-.02,.19-.02,.39-.03,.61-.05,.22-.02,.42-.04,.61-.05,.19-.02,.31-.02,.35-.02,.02,0,.04,0,.06-.01,.02,0,.03,0,.05,0,.02,0,.03,0,.04,0,.11,0,.18,.03,.21,.1,.04,.07,.06,.16,.06,.28s0,.27-.02,.45c-.02,.18-.03,.38-.03,.61,.03-.02,.11-.08,.23-.2,.12-.12,.27-.25,.44-.4s.36-.29,.56-.43c.2-.14,.39-.25,.58-.32,.21-.07,.4-.14,.56-.19,.16-.05,.32-.1,.48-.13,.16-.04,.32-.06,.5-.08,.17-.02,.37-.02,.6-.02,.31,0,.64,.04,.98,.12,.35,.08,.66,.19,.95,.32,.04,.02,.11,.05,.2,.1,.09,.05,.19,.1,.3,.15,.11,.05,.21,.1,.31,.15s.18,.09,.23,.11c0,0,.04,.03,.08,.07s.1,.08,.17,.12c.06,.04,.12,.08,.17,.12,.05,.04,.09,.07,.12,.07,.03,.02,.07,.04,.13,.07,.05,.03,.09,.06,.1,.07,.02,.02,.08,.08,.17,.18,.09,.1,.19,.21,.29,.33,.11,.12,.2,.23,.29,.33,.09,.1,.15,.16,.17,.19h.07s.05-.05,.1-.11c.05-.06,.09-.09,.1-.09,.33-.27,.63-.52,.9-.74,.28-.23,.56-.43,.85-.6,.29-.17,.59-.32,.91-.45,.32-.12,.68-.21,1.09-.27,.19-.02,.37-.03,.56-.02,.19,.01,.38,.02,.59,.02,.28,0,.54,.05,.78,.14,.24,.09,.48,.2,.73,.31,0,0,.03,.02,.07,.04,.04,.02,.07,.04,.12,.07s.08,.05,.11,.07c.03,.02,.05,.03,.06,.04,0,0,.03,0,.06,.02,.03,.01,.06,.03,.1,.04,.03,.02,.06,.03,.09,.04,.03,0,.04,0,.03-.01,.15,.11,.28,.21,.38,.31,.1,.1,.19,.2,.27,.29,.08,.09,.15,.18,.21,.26,.07,.08,.14,.15,.22,.22,.15,.2,.28,.39,.39,.58,.11,.19,.2,.38,.27,.57,.07,.19,.14,.37,.19,.55,.05,.18,.1,.36,.15,.54,.14,.61,.25,1.2,.34,1.76,.09,.56,.16,1.11,.21,1.64,.06,.53,.11,1.05,.15,1.56,.04,.51,.1,1.02,.15,1.52,0,.11,0,.32,0,.62,0,.3,0,.62,.02,.96,0,.34,.02,.66,.03,.96,0,.3,.02,.51,.02,.63,0,.02,0,.08,0,.18,0,.09,0,.2,.02,.31,0,.11,.01,.21,.02,.31s0,.16,0,.18v.07c0,.09-.02,.16-.07,.2-.05,.04-.11,.08-.18,.1s-.15,.04-.23,.05c-.08,.01-.15,.03-.21,.05-.14,.04-.23,.05-.27,.04-.04-.01-.11,0-.2,.04l-2.29,.05c-.1,.02-.18,.02-.25,0-.07-.03-.12-.07-.16-.13-.04-.06-.07-.12-.09-.18-.02-.06-.02-.11-.02-.14,0-.56,0-1.13-.02-1.71-.02-.58-.03-1.14-.05-1.7,0-.03,0-.11-.01-.22,0-.11-.01-.24-.02-.37,0-.13-.01-.25-.02-.37,0-.11-.01-.19-.01-.22,0-.11,0-.27,0-.47,0-.2-.01-.4-.02-.6,0-.2-.02-.38-.02-.54,0-.16-.02-.26-.03-.29,0-.02-.01-.11-.04-.27-.02-.15-.05-.33-.08-.54-.03-.2-.06-.4-.09-.6-.03-.2-.06-.36-.07-.48-.02-.16-.05-.3-.09-.42-.04-.12-.09-.25-.17-.38-.24-.43-.54-.79-.9-1.06-.36-.28-.8-.42-1.31-.42h-.34c-.11,0-.24,.03-.37,.09-.05,.03-.12,.06-.2,.08-.09,.02-.17,.04-.26,.07-.08,.02-.16,.05-.23,.09-.07,.03-.12,.08-.14,.13-.04,.04-.09,.09-.15,.15-.06,.06-.08,.1-.08,.12-.02,.02-.05,.08-.1,.16-.05,.08-.1,.17-.16,.27-.06,.1-.11,.19-.16,.27-.05,.08-.08,.13-.08,.16-.07,.18-.14,.34-.19,.48-.05,.14-.1,.28-.15,.42-.04,.13-.08,.27-.12,.42-.04,.15-.08,.32-.13,.51-.03,.1-.06,.23-.07,.39-.02,.16-.03,.33-.03,.5,0,.17,0,.34,0,.5,0,.16,0,.3,0,.4v.5s0,.09,0,.19c0,.1,0,.21,0,.33s0,.23,0,.32,0,.16,0,.18c0,.05,0,.18,0,.38,0,.2,0,.42,.02,.65,0,.23,.01,.45,.02,.65,0,.2,0,.33,0,.39,.02,.25,.03,.49,.05,.72,.02,.23,.02,.47,.02,.73,0,.09-.02,.18-.05,.28s-.09,.17-.18,.22c-.12,0-.23,0-.32,0-.09,0-.18,.02-.27,.04-.08,.02-.17,.03-.26,.05-.09,.02-.19,.04-.31,.05-.19,.02-.39,.04-.6,.04s-.41,0-.58-.01c-.18,0-.32-.02-.42-.03s-.14-.02-.1-.02c-.05,0-.11-.02-.18-.04-.07-.02-.14-.05-.21-.09-.06-.04-.12-.08-.16-.13-.04-.05-.07-.11-.07-.18,0-.08,.01-.14,.04-.19,.03-.04,.04-.1,.04-.16v-.2s0-.1,0-.22,0-.25,0-.4,0-.27,0-.4,0-.19-.02-.21c-.02-.15-.02-.31-.01-.48,0-.17,.02-.35,.02-.52,0-.18,.01-.35,.02-.52,0-.17,0-.33,0-.48,0-.05,0-.16-.02-.32-.01-.17-.03-.34-.04-.53-.02-.19-.03-.36-.04-.53-.01-.17-.02-.27-.02-.32,0-.02,0-.09,0-.23,0-.13-.01-.29-.02-.46s-.02-.34-.02-.52c0-.17-.02-.32-.03-.42,0-.18-.03-.34-.05-.49-.03-.15-.07-.3-.12-.45s-.11-.29-.18-.45c-.07-.15-.14-.32-.21-.49-.2-.5-.52-.88-.95-1.13-.43-.25-.94-.37-1.53-.37-.18,0-.35,.03-.52,.09-.17,.06-.33,.13-.48,.23-.16,.1-.3,.21-.45,.34-.14,.13-.28,.26-.41,.39-.14,.15-.25,.33-.35,.54-.09,.22-.17,.44-.24,.68-.07,.24-.12,.48-.15,.72-.04,.24-.07,.46-.09,.65,0,.07-.02,.17-.03,.32-.01,.15-.03,.3-.04,.47-.02,.17-.03,.32-.04,.46-.01,.14-.02,.24-.03,.3v1.4s0,.07,.01,.16c0,.09,.02,.19,.03,.29,0,.11,.02,.2,.02,.29,0,.09,.01,.14,.01,.16v.57c0,.06,0,.15,0,.27,0,.12,.01,.25,.02,.38s.02,.26,.02,.37c0,.11,.02,.19,.02,.22,0,.04,.02,.13,.03,.26,.01,.13,.03,.27,.04,.42,.02,.15,.03,.29,.04,.43,.01,.13,.02,.22,.03,.25v.17s-.02,.06-.06,.12c-.04,.05-.09,.09-.13,.1-.16,.03-.27,.05-.34,.04-.06,0-.1,0-.12,0-.02,0-.06,0-.13,.02-.07,.02-.12,.02-.13,.02h-.28c-.24,.02-.45,.03-.64,.04-.19,0-.38,.02-.56,.03-.18,.01-.37,.02-.56,.02-.19,0-.41,0-.64,0h-.08c-.13,.06-.24,.07-.32,.03-.08-.04-.15-.14-.2-.31-.05-.17-.09-.4-.12-.71-.03-.31-.06-.7-.08-1.18Z"/><path class="cls-9" d="M287.36,108.26c-.06-.02-.14-.03-.26-.05-.11-.02-.26-.05-.43-.08,0,0-.04,0-.11-.02-.07-.01-.14-.03-.24-.06-.09-.03-.19-.07-.29-.12s-.19-.11-.27-.18c-.02,0-.05-.02-.1-.04-.05-.02-.11-.04-.18-.07-.07-.03-.12-.05-.18-.07-.05-.02-.09-.03-.1-.04-.15-.06-.29-.13-.42-.23-.13-.1-.26-.2-.38-.31-.12-.11-.24-.21-.35-.32-.11-.11-.22-.21-.32-.31-.39-.37-.74-.75-1.05-1.16-.31-.41-.57-.85-.79-1.34-.18-.39-.32-.75-.43-1.07-.11-.32-.19-.64-.24-.95-.06-.31-.1-.64-.12-.97-.02-.33-.03-.72-.03-1.15v-.92c.11-.46,.23-.9,.37-1.31,.14-.41,.31-.8,.51-1.18,.2-.37,.43-.73,.69-1.07,.26-.34,.57-.67,.92-.99,.25-.24,.51-.46,.78-.63,.27-.18,.56-.34,.87-.49,.02,0,.06-.02,.1-.05s.09-.05,.15-.07c.05-.02,.1-.04,.14-.05,.04-.02,.07-.03,.08-.04,.02,0,.08,0,.18-.02s.15-.02,.17-.02c.02-.02,.07-.05,.15-.1,.07-.05,.12-.09,.13-.1,0,0,.03,0,.08-.01,.04,0,.09-.02,.14-.03s.09-.02,.13-.03c.04,0,.06-.02,.07-.02,.03,0,.11-.03,.22-.05,.11-.03,.24-.06,.37-.09,.13-.03,.25-.06,.37-.09,.12-.03,.19-.04,.23-.04,.07-.02,.18-.05,.35-.07,.17-.02,.35-.04,.55-.05,.2-.02,.38-.03,.56-.05,.17-.02,.3-.03,.38-.04h.15s.08,0,.13,0c.04,0,.08,0,.1,0,.18,0,.34,.02,.49,.02,.15,0,.3,.03,.46,.07,.23,.06,.46,.11,.7,.16,.24,.05,.47,.09,.7,.12,.06,.02,.15,.07,.29,.13,.13,.07,.28,.14,.43,.22,.15,.08,.29,.16,.42,.23,.13,.07,.22,.13,.27,.16,.02,.02,.09,.08,.19,.18,.1,.1,.21,.21,.34,.34s.24,.24,.35,.37c.11,.12,.2,.22,.26,.28,0,.02,.03,.05,.07,.11,.04,.06,.09,.12,.14,.2,.05,.08,.11,.15,.16,.23,.05,.07,.1,.13,.13,.18,.29,.45,.54,.89,.73,1.33s.34,.89,.46,1.34,.2,.92,.25,1.39c.05,.48,.08,.97,.08,1.48v.05c-.02,.14-.03,.33-.05,.57-.02,.24-.04,.48-.06,.71-.02,.24-.04,.45-.05,.63-.02,.19-.03,.3-.04,.33-.06,.42-.14,.81-.26,1.18-.12,.37-.26,.74-.43,1.11-.16,.2-.28,.36-.37,.49s-.19,.26-.29,.39c-.1,.13-.21,.26-.33,.42-.13,.15-.3,.34-.52,.57-.29,.21-.59,.41-.91,.59-.32,.18-.65,.33-.99,.46-.34,.13-.69,.23-1.04,.31-.35,.07-.7,.1-1.04,.09h-.17c-.08,0-.16,0-.26,0-.09,0-.18,0-.26-.01-.08,0-.13,0-.16,0-.02-.02-.04-.03-.09-.05-.04-.02-.07-.02-.09-.02-.02,0-.05,0-.11,.01-.06,0-.12,.02-.19,.03-.07,.01-.13,.02-.2,.03-.06,0-.1,0-.12,0-.03,0-.11,0-.23-.02-.12-.01-.25-.03-.38-.05-.14-.02-.27-.04-.38-.05-.12-.02-.19-.03-.21-.04h-.12l-.31-.09Zm-1.6-8.39c0,.23,.03,.45,.06,.67,.03,.22,.09,.44,.18,.65,0,.02,.02,.06,.06,.13,.04,.07,.06,.12,.06,.13,.03,.11,.06,.22,.1,.34,.03,.12,.07,.24,.1,.37,.04,.12,.08,.24,.13,.35,.05,.11,.11,.22,.18,.31,.02,.02,.07,.07,.12,.13s.11,.12,.17,.18c.06,.06,.11,.12,.16,.17,.05,.05,.08,.08,.1,.09,0,0,.03,.03,.08,.06,.04,.03,.1,.07,.16,.1,.06,.04,.12,.08,.18,.12,.06,.04,.11,.07,.15,.09l.12,.09s.08,.05,.16,.11c.08,.06,.13,.09,.15,.09,.02,.02,.06,.03,.12,.05,.06,.02,.12,.03,.16,.03,.17,.08,.3,.13,.38,.14,.08,.01,.16,.01,.22,0,.06-.01,.13-.02,.2-.04s.18,0,.32,.02c0,0,.04,0,.09,0,.05,0,.1-.01,.16-.02l.17-.02c.06,0,.1-.02,.13-.02,.38-.06,.74-.19,1.07-.39,.33-.2,.62-.46,.87-.76,.25-.3,.44-.64,.58-1.01,.14-.37,.21-.75,.21-1.13,0-.02,0-.12,0-.3,0-.17,.02-.48,.05-.92,0-.21-.04-.42-.13-.62-.09-.2-.16-.41-.23-.62-.11-.33-.3-.6-.55-.82-.26-.22-.52-.43-.8-.62-.17-.11-.33-.21-.47-.29-.14-.08-.29-.14-.43-.19s-.3-.09-.46-.11c-.16-.02-.34-.04-.54-.05-.19,0-.35-.01-.49,0-.14,0-.3,.03-.49,.07-.2,.04-.42,.1-.63,.17s-.43,.16-.63,.27c-.2,.11-.38,.24-.54,.4-.16,.15-.27,.33-.35,.54l-.21,.59c-.05,.07-.09,.16-.13,.28-.04,.12-.07,.25-.1,.4-.02,.14-.04,.28-.04,.43s.01,.27,.04,.38Z"/><path class="cls-9" d="M299.46,108.67l-.71-.06c-.07,0-.1,0-.11,0s-.02-.04-.02-.08c0-.1-.01-.18,0-.25,0-.07,0-.15-.02-.25,0-.09-.03-.16-.06-.21-.03-.05-.05-.12-.06-.19,0-.05-.01-.09-.01-.13s.02-.08,.06-.12c.02-.11,.02-.37,.02-.77s0-.88-.02-1.45c-.02-.57-.04-1.18-.06-1.86s-.04-1.34-.07-2.01c-.02-.67-.04-1.3-.06-1.89-.02-.59-.02-1.1-.02-1.51,0-.08,0-.19-.01-.32-.02-.13-.03-.28-.05-.43-.02-.15-.04-.29-.05-.43-.02-.14-.02-.25,0-.34,0-.02,0-.05,0-.12s-.01-.1-.02-.13c-.04,0-.06-.02-.07-.06,0-.04,0-.08-.02-.12v-.1l.06-.12c.02-.21,.02-.39,.01-.54,0-.15-.02-.33-.04-.53,0-.03,0-.07,0-.12,0-.05-.01-.1-.02-.16,0-.06-.01-.12-.01-.2,0-.02-.01-.05-.04-.11-.03-.06-.04-.09-.04-.11s0-.05,.02-.1c.01-.05,.02-.09,.03-.1v-.09c0-.05,0-.11,0-.16,0-.06,0-.11,.01-.16,0-.05,0-.08,.02-.1l.02-.02s.01-.02,.01-.05c.28-.03,.54-.08,.81-.14,.26-.06,.53-.1,.81-.1,.33-.02,.66,0,.96,.02,.31,.03,.63,.07,.95,.11,.04,0,.1,.01,.18,.02,.08,0,.15,.01,.23,.02,.08,.01,.15,.04,.21,.08,.07,.04,.1,.1,.11,.18,.02,.14,0,.25-.02,.34-.03,.09-.04,.21-.02,.35v.04s0,.03,0,.04c0,0,0,.02,0,.02,.06-.02,.13-.06,.22-.1,.09-.04,.18-.09,.28-.14s.19-.1,.29-.14c.09-.04,.17-.08,.21-.1,.02,0,.06-.03,.14-.07,.08-.04,.13-.07,.15-.09,.02,0,.06-.01,.14-.03,.08-.02,.12-.04,.13-.05,.07-.05,.17-.1,.28-.15,.11-.05,.22-.1,.34-.14,.11-.04,.22-.08,.31-.12,.09-.03,.15-.06,.18-.07,.2-.08,.41-.13,.62-.15,.21-.02,.43-.03,.66-.04,.37-.02,.74,0,1.12,.09,.38,.08,.75,.19,1.1,.34,.35,.14,.68,.31,.96,.49,.29,.18,.52,.36,.7,.54,.06,.07,.12,.14,.19,.24,.07,.09,.13,.19,.2,.29,.06,.1,.11,.2,.16,.3s.07,.19,.08,.27c0,.05-.02,.11-.07,.19-.05,.08-.11,.16-.18,.24-.07,.08-.14,.15-.21,.22-.07,.07-.12,.11-.15,.12,0,0-.03,.02-.06,.05-.03,.02-.07,.05-.1,.07-.04,.02-.07,.05-.11,.07-.04,.02-.06,.04-.07,.05-.03,.02-.08,.06-.14,.1-.06,.04-.12,.09-.18,.14-.06,.05-.12,.09-.17,.13-.05,.04-.08,.07-.09,.07-.14,.11-.27,.22-.4,.34-.13,.12-.26,.24-.4,.34-.14,.11-.29,.2-.45,.27-.16,.07-.34,.11-.53,.12h-.24s-.04-.02-.06-.02c-.02,0-.05-.02-.08-.04-.33-.17-.69-.33-1.06-.48-.38-.15-.75-.22-1.12-.21-.28,.02-.51,.12-.68,.31-.18,.19-.35,.38-.5,.59-.02,.03-.06,.09-.13,.17-.07,.08-.12,.14-.13,.18-.02,.03-.05,.09-.1,.16-.05,.08-.1,.16-.15,.25-.05,.09-.11,.18-.16,.27-.05,.09-.09,.17-.1,.23-.08,.19-.13,.39-.15,.62-.02,.23-.03,.44-.05,.65-.11,.82-.17,1.57-.15,2.24,.01,.67,.05,1.3,.13,1.9,.04,.44,.09,.87,.15,1.29,.06,.42,.11,.85,.15,1.29,0,.05,.02,.14,.02,.26,0,.13,.02,.26,.03,.39,.01,.13,.02,.26,.04,.39,.01,.13,.02,.21,.02,.26-.02,0-.03,.02-.04,.02-.01,0-.03,.02-.04,.02l-.05,.02h-.07s-.04,0-.07-.02-.06-.03-.07-.04l-3.32,.11Z"/><path class="cls-9" d="M310.82,100.19c.05-.3,.11-.6,.18-.89,.07-.29,.15-.58,.24-.87,.07-.21,.12-.4,.17-.56,.04-.16,.1-.35,.16-.55,0-.02,.01-.06,.03-.13,.02-.07,.04-.15,.07-.24s.05-.16,.08-.23c.02-.07,.04-.11,.05-.13,.09-.28,.22-.54,.39-.77,.17-.23,.35-.46,.54-.68,0,0,.04-.04,.08-.09,.04-.05,.1-.11,.15-.17,.06-.06,.11-.12,.16-.18,.05-.06,.09-.1,.11-.12,0,0,.03-.03,.05-.06,.03-.03,.05-.07,.08-.12,.03-.04,.05-.08,.08-.12,.02-.03,.04-.05,.06-.06,.34-.29,.72-.56,1.13-.79,.41-.24,.84-.44,1.28-.61s.9-.3,1.36-.4c.46-.09,.91-.14,1.36-.15,.5-.04,1.03-.03,1.57,.02,.54,.06,1.05,.19,1.53,.4,.4,.12,.74,.26,1.03,.42,.29,.15,.53,.31,.73,.45,.2,.15,.36,.28,.49,.4,.13,.12,.24,.2,.34,.25,.25,.22,.48,.44,.68,.65,.2,.21,.39,.43,.56,.66,.17,.23,.32,.47,.47,.73s.29,.54,.43,.86c.03,.07,.06,.21,.1,.4,.04,.19,.09,.39,.14,.6,.05,.21,.09,.41,.13,.6,.04,.19,.06,.32,.07,.4,0,.02,.01,.05,.02,.11,0,.06,0,.13,0,.21v.43s0,.12,0,.2,0,.17,0,.26v.23c0,.07,0,.1-.01,.11,0,.02-.01,.08-.04,.15-.03,.08-.05,.16-.07,.24-.02,.09-.05,.17-.07,.24-.02,.08-.03,.12-.03,.14-.16,.16-.33,.27-.49,.34-.17,.06-.36,.1-.59,.12-.22,.02-.49,.03-.81,.03-.31,0-.69,.03-1.14,.08h-.63c-.15,0-.28,0-.4,0-.12,0-.2,0-.23,0h-.12s-.05,.03-.1,.04c-.05,0-.11,.01-.17,0-.06,0-.11-.01-.15-.03-.04-.02-.07-.04-.08-.07,0,0-.04,0-.11,0-.06,0-.14,0-.21,0h-.23c-.08,0-.13,0-.15-.01,0,0-.02,.01-.04,.01h-.06c-.2,0-.42,.02-.67,.02-.25,0-.51,.02-.77,.02-.26,0-.52,.01-.78,.02-.25,0-.48,0-.67,0-.29,.02-.56,.02-.79,0-.23-.01-.46-.02-.67-.04-.22-.01-.44-.02-.67-.03-.23,0-.49,0-.79,0-.04,0-.08,0-.12,0-.04,0-.07,.03-.08,.07,0,.04,0,.1,.03,.18,.02,.08,.03,.13,.03,.16,.07,.29,.12,.5,.15,.63,.03,.13,.05,.22,.08,.27,.02,.05,.05,.1,.09,.13,.04,.04,.1,.11,.18,.23,0,0,.01,.03,.04,.05,.03,.03,.06,.06,.1,.09,.04,.03,.07,.06,.1,.09,.03,.03,.04,.05,.04,.05,.27,.43,.62,.74,1.06,.93,.44,.19,.89,.28,1.35,.26,.07,0,.15,0,.27,0,.11,0,.18,0,.2,0,.16-.02,.28-.02,.35-.02,.07,0,.13,.01,.18,.02,.05,0,.1,.01,.15,.02,.05,0,.14,0,.26-.02,.12-.02,.28-.05,.49-.09,.21-.04,.49-.11,.86-.2,0,0,.05-.02,.13-.06,.08-.04,.17-.09,.26-.13s.18-.1,.27-.14c.09-.04,.14-.07,.15-.08,.21-.13,.4-.26,.57-.38,.17-.13,.33-.24,.47-.35,.14-.11,.28-.2,.4-.28,.13-.08,.25-.15,.37-.2h.07s.04,0,.07,.02c.03,.02,.05,.04,.05,.05,.07,.07,.18,.15,.33,.25,.15,.1,.29,.21,.45,.31,.15,.11,.29,.21,.43,.31,.14,.1,.24,.19,.3,.26,.02,.02,.08,.06,.17,.12,.09,.07,.18,.14,.28,.21,.1,.08,.18,.15,.26,.22,.07,.07,.11,.11,.11,.12v.05s0,.03,0,.04c0,0,0,.02,0,.04,0,.2-.05,.38-.18,.54-.13,.15-.26,.31-.4,.45-.38,.42-.79,.82-1.21,1.21-.43,.39-.89,.72-1.4,.98-.16,.07-.33,.13-.49,.16-.16,.04-.33,.08-.49,.14-.21,.06-.42,.11-.61,.14-.2,.03-.39,.05-.57,.05-.19,0-.38,.01-.58,0-.2,0-.41,0-.64,0-.59,.02-1.14,0-1.67-.06-.53-.06-1.07-.17-1.63-.33-.21-.06-.41-.14-.59-.21-.18-.08-.35-.16-.51-.26-.16-.09-.32-.2-.47-.32-.16-.12-.31-.25-.48-.38-.29-.24-.57-.48-.87-.71-.29-.23-.57-.5-.83-.81-.02,0-.05-.06-.1-.15-.05-.09-.08-.15-.09-.17-.02-.02-.05-.05-.1-.12s-.1-.13-.15-.2c-.05-.07-.11-.13-.16-.2s-.08-.1-.09-.12c-.02-.02-.05-.09-.1-.19-.05-.1-.11-.22-.18-.35-.07-.13-.13-.27-.2-.4-.06-.13-.11-.24-.14-.32-.02-.02-.03-.05-.05-.1-.02-.05-.02-.08-.02-.1-.1-.54-.18-1.06-.25-1.57s-.1-1.05-.09-1.6v-.06Zm8.69-3.91c-.42,0-.8,.06-1.16,.15-.36,.09-.71,.26-1.05,.49-.11,.07-.24,.17-.38,.28-.14,.11-.28,.24-.42,.37-.13,.13-.25,.28-.34,.43-.09,.15-.13,.3-.13,.45,.21-.02,.41-.04,.59-.07,.18-.03,.37-.05,.57-.06h.05s.07,.01,.15,.02c.08,0,.18,0,.28,.01,.1,0,.2,0,.29,.01,.09,0,.15,0,.17,0h1.17c.07,0,.17,0,.31-.01,.13,0,.26-.02,.4-.02,.13,0,.25-.01,.36-.02,.11,0,.17,0,.18,0,.08,0,.23,0,.45,0,.22,0,.45,0,.69-.01,.24,0,.47-.01,.69-.02,.22,0,.36-.02,.45-.02,.02,0,.03,0,.05-.02l.02-.02s0-.04-.02-.07c-.02-.03-.03-.06-.05-.07-.02-.03-.04-.08-.07-.13-.03-.05-.06-.11-.09-.16-.03-.05-.06-.1-.08-.13s-.04-.06-.05-.07c-.36-.45-.81-.78-1.36-.99-.55-.21-1.1-.31-1.65-.29Z"/><path class="cls-9" d="M210.78,137.99c-.28-.15-.54-.28-.78-.42-.24-.13-.48-.29-.73-.48-.11-.11-.24-.21-.37-.31-.13-.1-.25-.2-.36-.31-.11-.1-.2-.21-.27-.32-.07-.11-.12-.24-.12-.37,0-.04,0-.1,0-.16,0-.07,0-.11,0-.13,.02-.05,.05-.09,.08-.13,.02-.04,.04-.07,.05-.1,.02-.02,.04-.04,.04-.05,.02-.02,.05-.05,.11-.12,.06-.06,.12-.12,.18-.19,.07-.06,.13-.13,.19-.19s.1-.1,.13-.13c.02-.02,.05-.06,.1-.14,.05-.08,.09-.13,.1-.15,.05-.05,.11-.11,.19-.18,.08-.07,.15-.15,.23-.22s.14-.14,.2-.2c.06-.06,.1-.1,.13-.13,.03-.02,.1-.06,.19-.11s.16-.08,.19-.09h.16c.07,0,.13,.03,.18,.09,.06,.06,.11,.12,.16,.19,.05,.07,.11,.14,.18,.21,.06,.07,.13,.12,.21,.15,.17,.1,.35,.21,.54,.34,.19,.13,.4,.25,.63,.37,.23,.12,.48,.22,.76,.31,.27,.09,.57,.14,.9,.15,.06,.05,.15,.06,.28,.03,.13-.03,.25-.08,.38-.15,.13-.07,.24-.16,.34-.26s.15-.2,.16-.29c0-.06,0-.13-.01-.23,0-.1-.02-.2-.04-.3-.02-.1-.04-.2-.07-.28s-.05-.15-.08-.2c-.29-.4-.59-.74-.9-1.02-.31-.28-.68-.54-1.11-.78-.02,0-.09-.04-.19-.11-.1-.06-.21-.13-.34-.21-.12-.07-.23-.14-.34-.2s-.16-.1-.18-.12c-.02-.02-.06-.05-.13-.1s-.15-.1-.24-.16c-.09-.06-.17-.12-.26-.18-.08-.06-.14-.1-.18-.13-.05-.06-.14-.13-.27-.22-.13-.09-.22-.15-.28-.2-.06-.06-.14-.17-.26-.34-.12-.17-.24-.34-.38-.53-.13-.19-.26-.36-.38-.52-.12-.16-.2-.26-.25-.31-.33-.38-.53-.8-.61-1.26-.08-.46-.11-.92-.1-1.37,0-.19,.05-.4,.12-.63,.07-.24,.14-.46,.23-.67,.08-.21,.16-.38,.23-.52,.07-.14,.11-.21,.13-.21,.04-.06,.09-.14,.16-.22,.07-.08,.13-.16,.21-.23,.07-.07,.15-.14,.22-.21,.07-.06,.14-.12,.2-.16,.2-.15,.39-.28,.59-.37,.2-.09,.41-.16,.62-.22,.21-.06,.43-.11,.65-.15,.22-.04,.46-.09,.7-.13,.23-.02,.52-.04,.88-.05,.36-.01,.79,.03,1.3,.13h.05c.34,.05,.68,.13,1.03,.25,.34,.12,.67,.26,1,.44,.33,.18,.63,.37,.93,.59s.57,.46,.82,.71c.03,.05,.08,.12,.16,.21,.07,.09,.15,.18,.22,.27,.07,.09,.14,.17,.2,.24,.06,.07,.1,.12,.12,.13,.03,.05,.05,.1,.05,.14,0,.04,0,.09,0,.14,0,.05-.01,.1-.01,.14s-.03,.08-.09,.1c-.06,.04-.16,.13-.28,.26s-.24,.27-.37,.41c-.12,.14-.23,.26-.33,.37-.1,.11-.16,.15-.18,.13-.03,.03-.1,.09-.19,.18-.09,.09-.19,.18-.29,.27-.1,.09-.2,.18-.3,.27s-.17,.15-.22,.19c-.07,.06-.13,.11-.17,.15-.04,.04-.11,.06-.2,.05h-.07s-.04-.02-.07-.05-.07-.05-.1-.07c-.04-.02-.07-.05-.1-.07-.03-.02-.05-.04-.06-.05-.07-.03-.2-.11-.37-.22-.17-.11-.36-.23-.55-.36-.2-.13-.38-.25-.55-.36-.17-.11-.29-.19-.35-.23-.03,0-.08-.02-.15-.04-.07-.02-.14-.03-.22-.05-.08-.02-.15-.03-.22-.05-.07-.02-.12-.03-.15-.04h-.02c-.07,.02-.13,.04-.2,.07-.07,.03-.13,.07-.2,.12-.06,.05-.11,.11-.15,.17-.04,.07-.05,.13-.03,.21,0,.07,0,.16,.01,.27,.02,.12,.05,.21,.1,.26,.2,.3,.45,.57,.77,.8s.64,.41,.98,.53c.54,.21,1.03,.44,1.46,.7,.43,.25,.85,.58,1.26,.99,.02,.02,.07,.08,.15,.16,.08,.09,.16,.18,.26,.27s.19,.19,.28,.28c.09,.09,.14,.15,.18,.18,.04,.04,.1,.1,.17,.18,.07,.08,.11,.12,.11,.13,.03,.04,.06,.1,.12,.18,.05,.08,.11,.17,.16,.27s.11,.19,.16,.27c.05,.09,.09,.15,.12,.19,.05,.07,.09,.16,.12,.28,.03,.12,.05,.26,.06,.4,.01,.15,.02,.3,.03,.45,0,.15,0,.28,0,.38,0,.02,0,.05,0,.1,0,.05,0,.1,0,.16s0,.11,0,.16c0,.05,0,.08,0,.09-.1,.77-.34,1.43-.74,2-.39,.57-.89,1.09-1.5,1.58-.2,.15-.39,.28-.59,.38-.2,.1-.42,.18-.66,.24s-.5,.11-.79,.14c-.29,.03-.62,.05-1,.06-.29,0-.59-.04-.9-.11-.3-.07-.61-.14-.91-.23s-.6-.17-.9-.26c-.3-.09-.59-.17-.87-.24Z"/><path class="cls-9" d="M236.67,128.05c0,.07-.01,.13-.04,.18-.02,.06-.04,.12-.04,.18,0,.25,.01,.5,.04,.74,.02,.24,.04,.49,.04,.74v.5c-.02,.52-.06,1-.11,1.44s-.12,.86-.22,1.28c-.1,.41-.23,.82-.38,1.23-.16,.41-.36,.83-.59,1.28-.02,.02-.04,.06-.07,.13-.03,.07-.07,.14-.1,.22-.04,.08-.07,.15-.1,.22l-.06,.13s-.05,.07-.11,.15-.1,.12-.12,.13c-.04,.04-.1,.1-.19,.18-.09,.08-.18,.15-.27,.23-.09,.08-.18,.15-.26,.21-.08,.07-.12,.1-.14,.11-.02,.02-.08,.08-.19,.15-.11,.08-.2,.14-.26,.18-.03,.02-.08,.04-.13,.07-.06,.03-.11,.06-.17,.09-.06,.03-.11,.05-.17,.07-.05,.02-.09,.03-.1,.03-.05,.02-.14,.06-.27,.1-.13,.04-.28,.09-.43,.13-.15,.04-.29,.08-.43,.12s-.24,.06-.29,.07c-.03,.02-.08,.03-.15,.04-.07,.01-.13,.03-.21,.04-.07,.02-.14,.03-.21,.04s-.12,.02-.14,.03h-1.48c-.26,0-.53-.04-.81-.12-.63-.11-1.24-.26-1.82-.43-.58-.17-1.1-.39-1.56-.65,0,.02-.02,.04-.02,.09,0,.04-.02,.09-.03,.14,0,.05-.01,.1-.02,.15s0,.08,0,.1v.1c0,.38,.01,.76,.04,1.14s.04,.76,.04,1.14v.5c0,.09-.02,.26-.02,.51,0,.25-.02,.51-.03,.78s-.01,.52-.02,.75,0,.38,0,.45c-.02,.1-.04,.2-.07,.3-.03,.1-.05,.16-.05,.18l-.07,.07c-.07,0-.15,.02-.22,.02-.06,0-.13,.02-.18,.02-.06,0-.11,.02-.15,.02-.28,.02-.52,.03-.73,.04-.21,0-.43,.01-.67,.01-.2,0-.39,0-.56,.02s-.33,.02-.49,.03c-.16,0-.32,.01-.49,0-.17,0-.35-.02-.54-.05-.19-.11-.29-.22-.32-.35,0-.02,0-.05,0-.11,0-.06,0-.12,0-.19s0-.13,0-.2c0-.06,0-.1,0-.13,0-.04,0-.09,0-.16,0-.07,0-.13,0-.2s0-.13,0-.18c0-.05,0-.08,0-.09,.02-.43,.03-.89,.04-1.39,.01-.49,.02-.99,.04-1.5,.01-.5,.03-1,.04-1.5,.02-.49,.03-.95,.05-1.39,.02-.46,.03-.96,.05-1.48s.03-1.02,.03-1.48v-.24c0-.12,0-.26,0-.42s0-.33-.01-.51,0-.36-.01-.52c0-.16,0-.31,0-.43v-.24s0-.05,0-.12c0-.07,0-.16,0-.26s0-.2,0-.31c0-.1,0-.19,0-.25s0-.15,0-.26c0-.11,0-.21,0-.32s0-.2,0-.28c0-.08,0-.13,0-.15,0-.02,0-.08,.02-.17,.01-.09,.02-.18,.04-.28,.01-.1,.02-.19,.04-.27,.01-.09,.02-.14,.02-.16,0-.04-.01-.13,0-.26,0-.13,0-.27,.01-.42s0-.29,.02-.42,.01-.23,.01-.27c0-.04,0-.15,0-.33,0-.18,0-.37,.01-.57,0-.2,0-.39,.01-.57,0-.18,0-.29,0-.33,0,0,0-.05,0-.13,0-.08,0-.17,0-.28s0-.21,0-.31c0-.1,0-.19,0-.25,0-.03,0-.11,0-.24,0-.13,0-.27,0-.42s0-.28,0-.41c0-.13,0-.21,0-.25,.02-.17,.11-.29,.29-.37,.18-.07,.38-.12,.6-.13,.22-.02,.42-.02,.62-.01,.19,0,.3,0,.34-.01h.37c.13,0,.25-.02,.37-.07h1.55l.12,.13,.15,1.2c.33-.3,.69-.54,1.06-.71,.37-.17,.73-.31,1.08-.4,.35-.09,.67-.15,.96-.18,.29-.03,.52-.05,.7-.07h.39c.12,0,.27,.02,.46,.04,.18,.02,.37,.04,.56,.07,.19,.03,.36,.05,.51,.07,.15,.02,.26,.03,.32,.04,.06,.02,.15,.04,.27,.06,.12,.02,.25,.05,.38,.09,.13,.03,.26,.06,.38,.09,.12,.03,.2,.05,.24,.07,.02,0,.08,.03,.16,.07,.08,.04,.17,.08,.26,.12,.09,.04,.17,.09,.25,.13,.08,.04,.13,.08,.17,.1,.04,.02,.11,.07,.2,.13,.09,.07,.18,.13,.28,.21s.19,.14,.27,.21c.09,.07,.14,.12,.18,.15,.06,.06,.11,.11,.17,.16,.05,.04,.1,.08,.14,.13,.04,.04,.08,.08,.12,.1,.2,.26,.38,.49,.56,.7,.17,.21,.34,.47,.48,.78,.09,.19,.18,.38,.28,.59s.17,.41,.22,.6c0,.02,.02,.07,.04,.16,.02,.09,.04,.19,.06,.29,.02,.11,.04,.2,.06,.29,.02,.09,.03,.14,.04,.16,.02,.02,.04,.05,.07,.11,.03,.06,.06,.09,.07,.11v.04Zm-5.63-.52s-.02-.04-.06-.09c-.04-.05-.09-.1-.15-.16-.06-.06-.12-.12-.18-.18-.07-.06-.12-.11-.16-.14-.02-.02-.06-.04-.13-.07-.07-.03-.12-.06-.13-.07-.02-.02-.05-.04-.12-.07-.06-.03-.1-.06-.12-.07-.02-.02-.07-.04-.14-.07-.07-.03-.11-.05-.13-.05-.14-.06-.26-.09-.36-.09h-.4c-.4,0-.8,.07-1.19,.2-.39,.13-.8,.34-1.23,.62-.07,.07-.15,.13-.24,.18-.08,.06-.16,.12-.23,.18,0,0-.02,.04-.06,.09s-.09,.1-.14,.16c-.05,.06-.1,.12-.15,.17-.04,.05-.07,.08-.08,.09-.02,.04-.05,.1-.09,.18-.04,.08-.09,.16-.13,.25-.04,.09-.09,.18-.13,.26-.04,.08-.08,.14-.09,.17-.02,.07-.04,.12-.05,.15-.01,.04-.02,.09-.02,.15,0,.02-.02,.08-.05,.17-.02,.08-.06,.2-.1,.35-.04,.15-.1,.37-.17,.65,0,.02,0,.08-.02,.18-.02,.1-.03,.19-.05,.25,0,.04-.01,.11-.02,.21,0,.1,0,.2,0,.29v.38s0,.07,0,.15c0,.07,.01,.15,.02,.23,0,.08,.02,.16,.02,.23,0,.07,.02,.13,.02,.16,0,.02,0,.04,.02,.07,.02,.03,.03,.06,.05,.07,0,.02,.03,.05,.07,.09,.04,.04,.08,.09,.13,.15,.04,.05,.09,.1,.13,.15,.04,.05,.08,.09,.09,.11,.11,.12,.23,.22,.36,.28,.13,.07,.26,.12,.4,.16,.14,.04,.28,.09,.43,.13,.15,.04,.3,.09,.46,.16,.02,0,.06,0,.12,.02,.03,0,.06,.02,.08,.02h1.67c.04,.07,.08,.12,.1,.13s.08,.02,.14,.02c.15,0,.31-.02,.48-.05,.17-.03,.34-.08,.5-.15,.16-.07,.32-.15,.46-.24,.15-.09,.27-.2,.37-.32,0-.02,.04-.08,.1-.15,.06-.08,.12-.16,.18-.26,.07-.1,.13-.19,.2-.29,.07-.09,.11-.16,.15-.2,0-.02,.01-.04,.04-.08s.04-.06,.04-.08c.14-.24,.27-.49,.38-.73,.12-.24,.2-.51,.24-.81,.02-.08,.03-.17,.04-.26,0-.09,.01-.17,.01-.24,0-.02,0-.08-.02-.18-.02-.09-.03-.15-.05-.18-.02-.07-.06-.18-.11-.33s-.1-.29-.15-.45c-.05-.15-.1-.29-.14-.42-.04-.13-.07-.21-.08-.24l-.65-.96Z"/><path class="cls-9" d="M237.7,130.19c.05-.3,.11-.6,.18-.89,.07-.29,.15-.58,.24-.87,.06-.21,.12-.4,.17-.56,.04-.16,.1-.35,.17-.55,0-.02,0-.06,.03-.13s.04-.15,.07-.24c.03-.09,.05-.16,.08-.23,.02-.07,.04-.11,.05-.13,.09-.28,.22-.54,.39-.77,.17-.23,.35-.46,.54-.68,0,0,.03-.04,.08-.09,.04-.05,.1-.11,.15-.17s.11-.12,.16-.18c.05-.06,.08-.1,.11-.12,0,0,.02-.03,.05-.06,.02-.03,.05-.07,.08-.12,.03-.04,.05-.08,.08-.12,.02-.03,.04-.05,.06-.06,.34-.29,.72-.56,1.13-.79,.41-.24,.84-.44,1.28-.61,.44-.17,.9-.3,1.36-.4,.46-.09,.91-.14,1.36-.15,.5-.04,1.03-.03,1.58,.02,.54,.06,1.05,.19,1.53,.4,.4,.12,.74,.26,1.03,.42,.29,.15,.53,.31,.73,.45s.36,.28,.49,.4c.13,.12,.24,.2,.34,.25,.25,.22,.48,.44,.68,.65,.2,.21,.39,.43,.56,.66,.17,.23,.32,.47,.47,.73s.29,.54,.43,.86c.02,.07,.06,.21,.1,.4,.04,.19,.09,.39,.14,.6,.05,.21,.09,.41,.13,.6,.04,.19,.07,.32,.07,.4,0,.02,.01,.05,.02,.11,0,.06,0,.13,0,.21v.43s0,.12,0,.2c0,.09,0,.17,0,.26v.23c0,.07,0,.1-.01,.11,0,.02-.01,.08-.04,.15-.02,.08-.05,.16-.07,.24-.03,.09-.05,.17-.07,.24-.02,.08-.03,.12-.03,.14-.16,.16-.33,.27-.5,.34s-.36,.1-.59,.12c-.22,.02-.49,.03-.81,.03-.31,0-.69,.03-1.14,.08h-.63c-.15,0-.28,0-.4,0-.12,0-.2,0-.23,0h-.12s-.05,.03-.1,.04c-.05,0-.11,.01-.16,0-.06,0-.11-.01-.15-.03-.04-.02-.07-.04-.08-.07,0,0-.04,0-.11,0-.07,0-.14,0-.21,0h-.23c-.08,0-.13,0-.15-.01,0,0-.02,.01-.04,.01h-.06c-.2,0-.42,.02-.67,.02-.25,0-.51,.02-.78,.02-.26,0-.52,.01-.78,.02-.25,0-.48,0-.67,0-.29,.02-.55,.02-.79,0-.23-.01-.46-.02-.67-.04s-.44-.02-.67-.03c-.23,0-.49,0-.79,0-.04,0-.08,0-.12,0-.04,0-.07,.03-.09,.07,0,.04,.01,.1,.03,.18,.02,.08,.03,.13,.03,.16,.07,.29,.12,.5,.15,.63,.03,.13,.06,.22,.08,.27,.03,.05,.06,.1,.09,.13,.04,.04,.1,.11,.18,.23,0,0,.01,.03,.04,.05,.03,.03,.06,.06,.1,.09,.04,.03,.07,.06,.1,.09,.03,.03,.04,.05,.04,.05,.27,.43,.62,.74,1.06,.93,.44,.19,.89,.28,1.36,.26,.06,0,.15,0,.27,0,.11,0,.18,0,.2,0,.16-.02,.28-.02,.35-.02,.07,0,.13,.01,.18,.02,.05,0,.1,.01,.15,.02,.05,0,.14,0,.26-.02,.12-.02,.28-.05,.49-.09,.21-.04,.49-.11,.86-.2,0,0,.05-.02,.13-.06,.08-.04,.17-.09,.26-.13,.09-.05,.18-.1,.27-.14,.09-.04,.14-.07,.15-.08,.21-.13,.4-.26,.57-.38,.17-.13,.33-.24,.47-.35,.14-.11,.28-.2,.4-.28,.13-.08,.25-.15,.37-.2h.07s.04,0,.07,.02c.03,.02,.05,.04,.05,.05,.07,.07,.18,.15,.33,.25,.15,.1,.29,.21,.45,.31,.15,.11,.29,.21,.43,.31,.14,.1,.24,.19,.31,.26,.02,.02,.08,.06,.17,.12,.09,.07,.18,.14,.28,.21,.1,.08,.18,.15,.26,.22,.07,.07,.11,.11,.11,.12v.05s0,.03,0,.04c0,0,0,.02,0,.04,0,.2-.05,.38-.18,.54-.13,.15-.26,.31-.4,.45-.38,.42-.79,.82-1.21,1.21-.43,.39-.89,.72-1.4,.98-.16,.07-.33,.13-.49,.16-.16,.04-.33,.08-.49,.14-.21,.06-.41,.11-.61,.14-.2,.03-.39,.05-.57,.05-.19,0-.38,.01-.58,0-.2,0-.41,0-.64,0-.59,.02-1.14,0-1.67-.06-.53-.06-1.07-.17-1.64-.33-.21-.06-.41-.14-.59-.21-.18-.08-.35-.16-.51-.26-.16-.09-.32-.2-.47-.32-.15-.12-.31-.25-.48-.38-.29-.24-.57-.48-.87-.71-.29-.23-.57-.5-.83-.81-.02,0-.05-.06-.1-.15-.05-.09-.08-.15-.09-.17-.02-.02-.05-.05-.1-.12s-.1-.13-.15-.2c-.05-.07-.11-.13-.16-.2-.05-.06-.08-.1-.09-.12-.02-.02-.05-.09-.1-.19-.05-.1-.11-.22-.18-.35s-.13-.27-.2-.4c-.06-.13-.11-.24-.14-.32-.02-.02-.03-.05-.05-.1-.02-.05-.03-.08-.03-.1-.1-.54-.18-1.06-.25-1.57-.07-.51-.1-1.05-.09-1.6v-.06Zm8.69-3.91c-.41,0-.8,.06-1.16,.15-.36,.09-.71,.26-1.05,.49-.11,.07-.24,.17-.38,.28-.14,.11-.28,.24-.42,.37-.13,.13-.25,.28-.33,.43-.09,.15-.13,.3-.13,.45,.21-.02,.41-.04,.59-.07,.18-.03,.37-.05,.57-.06h.05s.07,.01,.15,.02c.08,0,.18,0,.28,.01,.1,0,.2,0,.29,.01,.09,0,.15,0,.17,0h1.17c.07,0,.17,0,.3-.01l.4-.02c.13,0,.25-.01,.36-.02,.11,0,.17,0,.18,0,.08,0,.23,0,.45,0,.22,0,.45,0,.69-.01,.24,0,.47-.01,.69-.02,.21,0,.36-.02,.45-.02,.02,0,.03,0,.05-.02l.02-.02s0-.04-.02-.07c-.02-.03-.03-.06-.05-.07-.02-.03-.04-.08-.07-.13-.03-.05-.06-.11-.09-.16-.03-.05-.06-.1-.09-.13s-.04-.06-.05-.07c-.36-.45-.81-.78-1.36-.99-.55-.21-1.1-.31-1.65-.29Z"/><path class="cls-9" d="M255.84,133.97s-.06-.13-.12-.26c-.05-.12-.11-.25-.17-.39-.06-.14-.12-.27-.17-.39s-.08-.21-.1-.26c0-.02,0-.07-.02-.16-.01-.09-.02-.16-.03-.21-.11-.76-.13-1.55-.04-2.34,.08-.8,.22-1.56,.41-2.28,.16-.59,.38-1.16,.65-1.71,.27-.55,.6-1.06,.99-1.52,.39-.46,.83-.86,1.33-1.2,.5-.34,1.06-.58,1.69-.74,.42-.11,.87-.2,1.35-.27s.93-.13,1.37-.16c.04,0,.1,0,.17-.01,.07,0,.13-.01,.2-.02,.06,0,.12,0,.17-.01,.05,0,.08,0,.09,0,.37,0,.77,0,1.2,.02,.42,.02,.83,.07,1.23,.16,.35,.07,.72,.16,1.12,.27,.4,.11,.76,.25,1.1,.43,.03,0,.09,.04,.18,.09s.2,.1,.31,.16c.11,.06,.21,.11,.31,.16,.09,.05,.15,.08,.18,.09,.22,.19,.38,.33,.48,.42,.1,.09,.19,.17,.26,.25,.08,.08,.17,.17,.28,.27,.11,.11,.28,.27,.51,.5,.02,.04,.06,.09,.1,.13,.04,.05,.08,.11,.1,.18,.02,.07,.02,.15-.01,.25-.03,.1-.1,.21-.21,.33,0,0-.08,.06-.21,.16-.13,.1-.29,.22-.47,.36-.18,.14-.36,.29-.54,.44-.18,.15-.31,.28-.4,.38-.2,.29-.39,.48-.58,.55s-.36,.09-.49,.05h-.07c-.15-.02-.25-.05-.32-.07-.07-.02-.13-.05-.18-.09-.05-.03-.1-.07-.16-.12-.06-.05-.15-.11-.27-.18-.14-.08-.31-.15-.51-.22-.2-.06-.38-.11-.53-.13-.11-.02-.26-.05-.43-.09-.17-.03-.35-.06-.52-.09-.17-.03-.32-.05-.45-.08-.13-.02-.2-.04-.22-.05-.06,0-.12,0-.17,.01-.05,0-.1,.01-.15,.02-.05,0-.1,0-.13,0-.17,.02-.32,.03-.45,.03-.13,0-.26,.04-.4,.1-.3,.14-.56,.33-.78,.56-.22,.24-.41,.49-.57,.78-.16,.28-.3,.57-.41,.88-.12,.31-.22,.6-.32,.9-.07,.24-.12,.48-.15,.74-.03,.26-.02,.52,.02,.77,.05,.35,.13,.67,.24,.96,.11,.29,.26,.54,.44,.76,.18,.22,.41,.41,.67,.56,.26,.15,.57,.26,.94,.34,.07,.02,.18,.03,.31,.05,.13,.02,.26,.04,.38,.06,.12,.02,.23,.04,.32,.05,.09,.02,.15,.02,.16,.02h.1c.06,0,.13,0,.21,0,.08,0,.16,0,.24-.01,.08,0,.14,0,.19,0,.02,0,.07,0,.15-.01,.07,0,.15-.02,.23-.03,.08-.01,.15-.02,.22-.03,.07,0,.12-.01,.14-.01,.11-.06,.23-.1,.34-.13,.11-.03,.22-.08,.32-.14,.15-.08,.34-.19,.57-.34,.22-.14,.4-.27,.54-.38,.16-.12,.31-.23,.43-.32,.12-.09,.3-.15,.52-.16,.08,0,.16-.02,.24-.02,.08,0,.15,.01,.22,.06,.02,.02,.06,.05,.13,.1,.07,.05,.12,.08,.13,.08,.02,.02,.07,.06,.17,.12,.1,.07,.2,.13,.31,.21s.22,.14,.32,.21c.1,.07,.17,.11,.2,.12l.08,.05s.08,.05,.15,.1c.08,.05,.16,.11,.25,.16,.09,.06,.17,.11,.25,.16,.08,.05,.12,.08,.14,.09,.05,.04,.08,.07,.1,.09,.02,.02,.04,.03,.05,.05,.01,.02,.02,.04,.02,.06,0,.02,.01,.07,.02,.12,.02,.1,.02,.17,.02,.21,0,.04-.04,.11-.1,.2-.42,.56-.86,1.07-1.33,1.54-.47,.46-.98,.92-1.51,1.35-.38,.21-.72,.38-1.04,.49-.32,.12-.62,.21-.9,.26-.28,.06-.55,.1-.8,.12-.26,.02-.51,.04-.75,.07-.04,0-.11,0-.21,.01-.1,0-.2,.02-.3,.02-.11,0-.21,.01-.3,.02-.09,0-.17,0-.21,0-.42-.02-.83-.05-1.21-.09-.39-.04-.78-.12-1.18-.26-.02,0-.09-.03-.19-.05-.1-.03-.21-.06-.33-.09-.12-.03-.24-.06-.34-.09-.11-.03-.17-.05-.21-.05-.35-.12-.7-.28-1.05-.49-.35-.2-.69-.43-1.02-.68-.33-.25-.64-.52-.93-.81-.29-.29-.54-.58-.76-.86-.02-.02-.05-.08-.12-.18-.06-.09-.13-.2-.2-.31-.07-.11-.13-.21-.2-.31-.06-.09-.1-.15-.12-.18-.02-.02-.05-.05-.09-.1-.04-.05-.08-.08-.09-.1Z"/><path class="cls-9" d="M273.05,119.36v-.35c0-.13,.03-.25,.09-.36,.09-.17,.17-.34,.24-.49,.07-.16,.17-.31,.31-.45,.03-.03,.08-.08,.15-.13,.07-.05,.14-.11,.21-.16,.07-.05,.13-.1,.2-.15,.06-.04,.1-.08,.12-.09,.09-.07,.19-.12,.29-.15,.1-.03,.21-.04,.32-.05,.11,0,.22,0,.33,0,.11,0,.22,.01,.33,.01,.14,0,.25,.02,.35,.05s.21,.08,.35,.14c.07,.02,.15,.05,.26,.12,.11,.06,.2,.12,.26,.16,.33,.23,.6,.5,.84,.82,.23,.32,.37,.7,.41,1.14,0,.26,0,.48-.02,.66-.02,.18-.05,.34-.11,.49-.06,.15-.14,.29-.26,.43s-.27,.28-.46,.45c-.18,.15-.4,.29-.66,.4-.26,.11-.51,.17-.75,.17-.02,0-.07,0-.13,0-.06,0-.13-.01-.2-.02-.07,0-.13-.02-.19-.02-.06,0-.09-.02-.11-.02-.04,0-.09-.02-.16-.04s-.13-.04-.2-.06c-.06-.02-.13-.04-.18-.06-.06-.02-.09-.03-.11-.04-.02,0-.05-.03-.11-.05-.06-.03-.12-.06-.2-.09-.07-.03-.14-.05-.21-.08-.07-.02-.11-.04-.12-.06-.19-.15-.34-.29-.45-.45-.11-.15-.2-.31-.26-.48-.06-.17-.1-.35-.13-.54s-.04-.42-.04-.66Zm.33,9.36c0-.06,0-.21-.01-.45,0-.24-.01-.51-.02-.81,0-.3-.01-.6-.02-.91s-.01-.55-.01-.74c0-.02,.02-.07,.02-.13,0-.06,.02-.14,.03-.21,0-.08,.01-.15,.02-.21,0-.06,0-.11,0-.13v-1.48c.05-.07,.14-.13,.27-.16,.13-.04,.23-.05,.3-.05h3.49c.07,.02,.12,.04,.18,.05,.05,0,.1,.03,.14,.08,.04,.04,.07,.12,.1,.24,.02,.11,.04,.29,.04,.54,0,.02,.02,.05,.02,.1,0,.05,.02,.11,.03,.17,0,.06,.01,.12,.02,.17,0,.05,0,.09,0,.1,0,.11,0,.32,.02,.62,.01,.3,.02,.62,.04,.96,.01,.34,.02,.66,.04,.96,.01,.3,.02,.51,.02,.62,0,.07,0,.21,.02,.44,.02,.23,.04,.47,.06,.73,.03,.26,.04,.51,.06,.74s.02,.38,.02,.43c0,.07,0,.21,.01,.42s.02,.45,.04,.72c.02,.27,.03,.56,.05,.87,.02,.31,.03,.6,.05,.88,.02,.28,.03,.52,.04,.73,0,.21,.02,.34,.02,.41,0,.12,.01,.31,.01,.57s0,.54,0,.82c0,.29,.01,.56,.02,.82,0,.26,.02,.45,.04,.57v.17c.04,.32,.02,.56-.07,.73-.09,.17-.25,.23-.5,.18l-3.87-.02c-.19,0-.32-.05-.38-.16-.07-.11-.11-.25-.13-.43-.02-.17-.03-.38-.03-.61s-.02-.47-.05-.71c-.02-.18-.03-.38-.03-.59s0-.43,0-.65c0-.22,0-.43,.01-.64,0-.21,0-.41,0-.59-.02-.47-.04-.92-.06-1.34-.02-.42-.03-.83-.04-1.25,0-.41-.01-.83-.02-1.25,0-.42,0-.87,0-1.33Z"/><path class="cls-9" d="M283.95,138.62s-.11,0-.2,0c-.09,0-.19,.01-.29,.02-.1,0-.19,.02-.29,.02-.09,0-.16,.02-.2,.02-.2-.02-.33-.09-.37-.18s-.06-.24-.06-.43c0-.17,.01-.34,.04-.52,.02-.17,.04-.35,.04-.53v-.12c-.11-1.5-.2-2.98-.25-4.44-.05-1.46-.07-2.94-.05-4.44l-.05-.7s-.04-.07-.1-.09c-.06-.02-.13-.04-.21-.05s-.16-.02-.24-.02h-.2c-.15,0-.29,.01-.43,.04-.14,.02-.28,.04-.42,.04h-.23l-.07-.07s-.02-.04-.03-.13c-.01-.09-.03-.2-.04-.32s-.03-.25-.04-.38c-.01-.13-.02-.23-.02-.31v-2.44s0-.06,.03-.12c.02-.06,.03-.09,.05-.11h.05c.09,0,.17,.01,.25,.04,.08,.02,.16,.04,.25,.04,.25,0,.52-.03,.79-.1,.28-.07,.54-.1,.79-.09l.07-.07-.04-2s.02-.09,.03-.13l.02-.12s.02-.07,.03-.1c0-.05,.03-.12,.05-.23,.03-.1,.06-.21,.09-.32,.03-.11,.05-.22,.08-.32,.03-.1,.04-.18,.06-.23,0-.02,0-.06,.02-.1,.02-.04,.03-.08,.05-.09,.02-.03,.04-.09,.08-.16,.04-.07,.07-.15,.11-.23,.04-.08,.07-.15,.1-.21,.03-.06,.05-.1,.07-.12,.15-.24,.31-.45,.49-.61,.18-.16,.38-.3,.59-.4,.21-.11,.44-.19,.68-.25s.5-.12,.76-.16h.35s.06,0,.14,0c.08,0,.16,0,.25-.01,.09,0,.17,0,.24-.01,.07,0,.12,0,.13,0l.5,.07c.24,.04,.47,.08,.69,.12,.22,.04,.43,.09,.65,.16,.22,.07,.45,.15,.68,.24,.23,.1,.48,.22,.75,.35,.07,.04,.15,.07,.23,.08,.08,.01,.15,.05,.2,.12,.02,.02,.06,.07,.11,.15s.09,.12,.11,.13c-.09,.19-.2,.4-.33,.65s-.23,.46-.29,.65c-.07,.16-.13,.32-.18,.46-.06,.15-.11,.3-.16,.46-.02,.04-.04,.09-.06,.15-.01,.06-.03,.11-.04,.16s-.04,.09-.08,.12c-.04,.03-.09,.05-.15,.05h-.03c-.23-.04-.44-.08-.64-.11-.2-.03-.41-.05-.64-.05-.02,0-.05,0-.1,0-.05,0-.1,0-.15,0s-.1,0-.14,0c-.04,0-.07,0-.08,0-.18,.07-.33,.15-.47,.25-.13,.1-.22,.25-.26,.46,0,.03,0,.08,0,.15,0,.07,0,.14-.02,.21s-.01,.14-.02,.21c0,.07,0,.11,0,.12,0,.03,0,.07,.02,.12,0,.03,.02,.06,.02,.07l1.7,.02h.18c.06,0,.13,.01,.18,.04,.06,.02,.1,.07,.13,.13,.03,.07,.05,.16,.05,.29l-.02,3.53c-.02,.06-.03,.1-.04,.13-.01,.03-.04,.05-.08,.07-.04,.02-.1,.04-.18,.06-.08,.02-.18,.05-.31,.09-.2,0-.41,.01-.61,.03-.2,.02-.39,.06-.56,.13,0,.05-.02,.15-.02,.3,0,.15-.01,.31-.02,.48,0,.17,0,.33-.01,.48,0,.15,0,.25,0,.3,0,.09-.01,.24-.01,.46v.68c0,.24,0,.46,0,.67,0,.21,0,.36,0,.44v.35c0,.12,0,.33,0,.63,0,.3,0,.61,.01,.94,0,.33,0,.64,.01,.94,0,.3,0,.51,0,.64v.05c.02,.26,.04,.5,.04,.72s0,.44-.02,.65c-.01,.22-.02,.44-.04,.66-.01,.22-.02,.46-.02,.71v.6l-.09,.29c-.06,.04-.11,.08-.17,.11-.12,.07-.2,.11-.27,.11-.04,0-.1,0-.16,0-.07,0-.14,0-.21,0s-.14,0-.2,0c-.06,0-.1,0-.1,0-.07,0-.17,0-.29,.02-.12,.02-.25,.04-.39,.05s-.28,.01-.41,0c-.14,0-.26-.04-.35-.11h-.78Z"/><path class="cls-9" d="M292.2,119.36v-.35c0-.13,.03-.25,.08-.36,.09-.17,.17-.34,.24-.49,.07-.16,.17-.31,.31-.45,.03-.03,.08-.08,.15-.13,.07-.05,.14-.11,.21-.16,.07-.05,.13-.1,.2-.15,.06-.04,.1-.08,.12-.09,.09-.07,.19-.12,.29-.15,.1-.03,.21-.04,.32-.05,.11,0,.22,0,.33,0,.11,0,.22,.01,.33,.01,.14,0,.25,.02,.35,.05,.09,.04,.21,.08,.35,.14,.07,.02,.15,.05,.26,.12s.2,.12,.26,.16c.33,.23,.61,.5,.84,.82,.23,.32,.37,.7,.41,1.14,0,.26,0,.48-.03,.66-.02,.18-.05,.34-.11,.49-.06,.15-.14,.29-.26,.43-.12,.13-.27,.28-.46,.45-.18,.15-.4,.29-.66,.4-.26,.11-.51,.17-.75,.17-.02,0-.07,0-.13,0-.06,0-.13-.01-.2-.02-.07,0-.13-.02-.19-.02-.06,0-.09-.02-.11-.02-.04,0-.09-.02-.16-.04-.07-.02-.13-.04-.2-.06s-.13-.04-.18-.06c-.06-.02-.09-.03-.11-.04-.02,0-.05-.03-.11-.05-.06-.03-.12-.06-.2-.09-.07-.03-.14-.05-.21-.08-.07-.02-.11-.04-.12-.06-.19-.15-.34-.29-.45-.45-.11-.15-.2-.31-.26-.48-.06-.17-.1-.35-.13-.54-.02-.2-.04-.42-.04-.66Zm.33,9.36c0-.06,0-.21-.01-.45,0-.24-.01-.51-.02-.81,0-.3-.01-.6-.02-.91s-.01-.55-.01-.74c0-.02,.02-.07,.02-.13,0-.06,.02-.14,.02-.21,0-.08,.01-.15,.02-.21,0-.06,0-.11,0-.13v-1.48c.05-.07,.14-.13,.27-.16,.13-.04,.23-.05,.3-.05h3.49c.06,.02,.12,.04,.18,.05,.05,0,.1,.03,.14,.08,.04,.04,.07,.12,.1,.24,.03,.11,.04,.29,.04,.54,0,.02,.02,.05,.02,.1,0,.05,.02,.11,.02,.17s.01,.12,.02,.17c0,.05,0,.09,0,.1,0,.11,0,.32,.02,.62,.01,.3,.02,.62,.04,.96,.01,.34,.02,.66,.04,.96,.01,.3,.02,.51,.02,.62,0,.07,0,.21,.02,.44,.02,.23,.04,.47,.06,.73,.02,.26,.04,.51,.06,.74,.02,.23,.02,.38,.02,.43,0,.07,0,.21,.01,.42,0,.21,.02,.45,.04,.72,.02,.27,.03,.56,.05,.87,.02,.31,.03,.6,.05,.88,.02,.28,.03,.52,.04,.73s.02,.34,.02,.41c0,.12,.01,.31,.01,.57s0,.54,0,.82c0,.29,0,.56,.02,.82,0,.26,.02,.45,.04,.57v.17c.04,.32,.02,.56-.07,.73-.09,.17-.25,.23-.5,.18l-3.87-.02c-.19,0-.31-.05-.38-.16-.07-.11-.11-.25-.13-.43-.02-.17-.03-.38-.03-.61s-.02-.47-.05-.71c-.02-.18-.02-.38-.02-.59s0-.43,0-.65c0-.22,0-.43,.01-.64,0-.21,0-.41,0-.59-.03-.47-.04-.92-.06-1.34-.02-.42-.03-.83-.04-1.25,0-.41-.01-.83-.02-1.25,0-.42,0-.87,0-1.33Z"/><path class="cls-9" d="M300.43,133.97s-.06-.13-.12-.26c-.05-.12-.11-.25-.17-.39-.06-.14-.12-.27-.16-.39s-.08-.21-.1-.26c0-.02,0-.07-.02-.16-.01-.09-.02-.16-.03-.21-.12-.76-.13-1.55-.04-2.34,.08-.8,.22-1.56,.41-2.28,.16-.59,.38-1.16,.65-1.71,.27-.55,.6-1.06,.99-1.52,.39-.46,.83-.86,1.33-1.2,.5-.34,1.06-.58,1.69-.74,.42-.11,.87-.2,1.35-.27,.48-.07,.93-.13,1.37-.16,.04,0,.1,0,.17-.01,.07,0,.14-.01,.2-.02,.06,0,.12,0,.17-.01,.05,0,.08,0,.08,0,.38,0,.77,0,1.2,.02,.42,.02,.83,.07,1.23,.16,.35,.07,.72,.16,1.12,.27,.4,.11,.76,.25,1.1,.43,.02,0,.08,.04,.18,.09s.2,.1,.31,.16c.11,.06,.21,.11,.31,.16s.15,.08,.18,.09c.22,.19,.38,.33,.48,.42,.1,.09,.19,.17,.26,.25,.08,.08,.17,.17,.27,.27,.11,.11,.28,.27,.51,.5,.02,.04,.06,.09,.1,.13s.08,.11,.1,.18c.02,.07,.02,.15-.01,.25s-.1,.21-.21,.33c0,0-.08,.06-.21,.16-.13,.1-.29,.22-.47,.36-.18,.14-.36,.29-.54,.44-.18,.15-.31,.28-.4,.38-.2,.29-.39,.48-.58,.55s-.36,.09-.49,.05h-.07c-.15-.02-.25-.05-.32-.07-.07-.02-.13-.05-.18-.09-.05-.03-.1-.07-.16-.12s-.15-.11-.27-.18c-.14-.08-.31-.15-.51-.22-.2-.06-.38-.11-.53-.13-.11-.02-.26-.05-.43-.09-.17-.03-.35-.06-.52-.09-.17-.03-.32-.05-.45-.08s-.2-.04-.22-.05c-.06,0-.11,0-.17,.01-.05,0-.1,.01-.15,.02-.05,0-.1,0-.13,0-.17,.02-.32,.03-.45,.03-.13,0-.26,.04-.4,.1-.3,.14-.56,.33-.78,.56-.22,.24-.41,.49-.57,.78s-.3,.57-.42,.88c-.11,.31-.22,.6-.32,.9-.07,.24-.12,.48-.15,.74-.03,.26-.02,.52,.02,.77,.05,.35,.13,.67,.24,.96,.11,.29,.26,.54,.44,.76,.18,.22,.41,.41,.67,.56,.26,.15,.57,.26,.94,.34,.07,.02,.17,.03,.31,.05,.13,.02,.26,.04,.38,.06,.12,.02,.23,.04,.32,.05,.09,.02,.15,.02,.17,.02h.1c.06,0,.13,0,.21,0,.08,0,.16,0,.24-.01,.08,0,.14,0,.19,0,.02,0,.07,0,.15-.01,.07,0,.15-.02,.23-.03s.15-.02,.22-.03c.07,0,.12-.01,.14-.01,.11-.06,.23-.1,.34-.13,.11-.03,.22-.08,.32-.14,.15-.08,.34-.19,.57-.34,.22-.14,.4-.27,.54-.38,.16-.12,.31-.23,.43-.32,.13-.09,.3-.15,.52-.16,.08,0,.16-.02,.24-.02,.08,0,.15,.01,.22,.06,.02,.02,.06,.05,.13,.1,.07,.05,.12,.08,.13,.08,.02,.02,.07,.06,.17,.12,.1,.07,.2,.13,.31,.21,.11,.07,.22,.14,.32,.21,.1,.07,.17,.11,.2,.12l.09,.05s.07,.05,.15,.1c.08,.05,.16,.11,.25,.16,.09,.06,.17,.11,.25,.16,.08,.05,.12,.08,.14,.09,.05,.04,.08,.07,.1,.09,.02,.02,.04,.03,.05,.05,.01,.02,.02,.04,.02,.06,0,.02,.01,.07,.02,.12,.02,.1,.02,.17,.02,.21,0,.04-.04,.11-.1,.2-.41,.56-.86,1.07-1.33,1.54-.47,.46-.98,.92-1.51,1.35-.38,.21-.72,.38-1.04,.49-.32,.12-.62,.21-.9,.26-.28,.06-.55,.1-.81,.12-.26,.02-.51,.04-.75,.07-.04,0-.11,0-.21,.01-.1,0-.2,.02-.3,.02s-.21,.01-.3,.02c-.09,0-.17,0-.21,0-.42-.02-.83-.05-1.21-.09-.39-.04-.78-.12-1.18-.26-.02,0-.09-.03-.19-.05-.1-.03-.21-.06-.33-.09-.12-.03-.24-.06-.34-.09-.11-.03-.18-.05-.21-.05-.35-.12-.7-.28-1.05-.49-.35-.2-.69-.43-1.02-.68-.33-.25-.64-.52-.93-.81-.29-.29-.54-.58-.76-.86-.02-.02-.05-.08-.12-.18-.06-.09-.13-.2-.2-.31-.07-.11-.13-.21-.2-.31-.06-.09-.1-.15-.12-.18-.02-.02-.05-.05-.09-.1s-.08-.08-.09-.1Z"/><path class="cls-9" d="M322.32,132.36s-.06,.03-.15,.03c-.09,0-.18,0-.29-.04-.1-.03-.2-.08-.28-.15-.09-.07-.12-.16-.12-.29v-.07s0-.03-.02-.07c-.01-.04-.03-.09-.04-.14-.01-.05-.02-.1-.04-.15-.01-.04-.02-.07-.02-.08,0-.04-.02-.1-.03-.18-.01-.08-.02-.12-.02-.14v-.1c0-.06,0-.12,0-.2s0-.15,.01-.23c0-.08,0-.14,0-.19,0-.21,.02-.43,.04-.64,.02-.22,.07-.42,.16-.62,.13-.33,.26-.64,.4-.91,.14-.27,.32-.54,.56-.8,.04-.03,.14-.12,.29-.27s.32-.3,.5-.46c.18-.16,.35-.32,.5-.46,.15-.15,.26-.24,.3-.27,0,0,.03-.04,.07-.09,.04-.05,.08-.1,.13-.16l.15-.18c.05-.06,.09-.11,.12-.14,.02-.02,.03-.03,.05-.05,.02-.02,.03-.04,.05-.07,.02-.03,.03-.06,.05-.09l.34-.5c.06-.04,.12-.11,.18-.22,.07-.11,.13-.22,.19-.35,.06-.13,.12-.26,.17-.38s.08-.22,.11-.29c0-.03,0-.11,0-.24,0-.13,0-.21,0-.25,0-.06,.01-.16,.02-.28,0-.12,0-.19,0-.21,0-.22-.05-.42-.16-.6-.11-.18-.24-.33-.4-.46-.16-.13-.35-.23-.55-.31-.2-.07-.4-.11-.6-.11-.28,.04-.54,.11-.77,.21-.24,.1-.46,.22-.65,.37-.19,.14-.36,.3-.49,.46-.14,.17-.24,.33-.32,.48-.11,.21-.17,.39-.2,.54-.03,.15-.07,.32-.12,.52,0,.02-.03,.05-.1,.09-.03,.02-.06,.03-.1,.04-.02,0-.07-.01-.15-.01h-.4s-.04,0,.01,0c-.07,.02-.2,.03-.37,.04-.18,0-.38,.01-.6,0-.22,0-.46-.01-.71-.02s-.48-.03-.7-.04c-.22-.02-.41-.04-.57-.07-.16-.03-.27-.06-.33-.09v-.02s0-.02-.03-.03c-.02-.01-.04-.02-.07-.03-.03,0-.05-.02-.07-.02-.02,0-.03-.02-.02-.04v-.02s-.01-.09-.04-.13c-.02-.04-.03-.08-.02-.12,0-.34,.06-.69,.15-1.04s.21-.7,.36-1.04,.31-.67,.5-.99c.19-.32,.38-.61,.59-.87,0,0,0-.02,.02-.04l.02-.02s.12-.08,.21-.13c.09-.06,.19-.12,.29-.19,.1-.07,.19-.13,.28-.2,.09-.06,.16-.11,.21-.15,.04,0,.1-.03,.16-.05,.07-.03,.14-.06,.23-.1,.08-.04,.16-.07,.23-.1,.07-.03,.13-.06,.17-.07,.37-.15,.74-.25,1.13-.32,.39-.06,.78-.09,1.17-.09,.07,0,.21-.01,.41,0,.2,0,.42,.01,.68,.02,.25,.01,.52,.03,.79,.04,.28,.02,.53,.03,.76,.05,.23,.02,.42,.04,.57,.06,.15,.02,.23,.04,.23,.05,.04,.02,.1,.04,.18,.07,.08,.03,.17,.07,.25,.1,.08,.04,.16,.07,.24,.1,.07,.03,.12,.05,.15,.06,.03,.02,.08,.04,.16,.09,.07,.04,.15,.09,.24,.13,.08,.05,.16,.1,.24,.14,.07,.04,.13,.08,.16,.1,.2,.15,.4,.29,.6,.43,.2,.14,.37,.29,.54,.45,.16,.16,.31,.33,.44,.52,.13,.19,.24,.41,.32,.64,.07,.21,.15,.43,.23,.65,.08,.22,.15,.45,.21,.69,.06,.24,.11,.47,.15,.71,.04,.24,.05,.47,.04,.7-.02,.31-.07,.59-.18,.85-.1,.26-.21,.53-.32,.81-.07,.14-.13,.27-.2,.41-.07,.13-.15,.25-.24,.36-.12,.14-.28,.29-.46,.45-.18,.16-.33,.33-.45,.51-.1,.07-.22,.16-.37,.28s-.29,.25-.42,.39c-.13,.14-.24,.27-.33,.4-.09,.13-.13,.22-.11,.27-.19,.22-.34,.45-.45,.69-.11,.24-.2,.49-.27,.75v.05l-.23,.73s0,.05-.02,.09c-.01,.04-.03,.1-.04,.15-.02,.06-.04,.11-.05,.16-.02,.05-.04,.09-.06,.11,0,.04-.01,.1-.03,.18-.02,.08-.03,.13-.03,.15v.27s-.04,.04-.07,.13c-.03,.09-.06,.13-.07,.13-.25,.1-.5,.16-.74,.2-.24,.03-.5,.07-.77,.12-.02,0-.06,0-.13,0-.07,0-.15,0-.23,.01-.09,0-.17,.01-.24,.02-.07,0-.12,.01-.13,.01-.09,.02-.2,.05-.34,.07-.13,.02-.27,.04-.42,.05s-.29,.02-.43,.03c-.14,0-.27,.02-.37,.04Zm-1.04,3.37c.02-.21,.05-.41,.1-.59s.12-.38,.21-.59c.02-.03,.04-.08,.08-.15,.04-.06,.07-.13,.11-.2,.04-.07,.07-.13,.1-.18,.03-.05,.05-.09,.06-.1,0,0,.04-.03,.08-.07,.05-.04,.11-.09,.18-.15,.07-.06,.14-.11,.21-.16,.07-.05,.12-.1,.17-.13,.23-.19,.5-.32,.8-.4,.3-.08,.6-.12,.88-.11,.66,.02,1.23,.22,1.72,.61s.84,.89,1.06,1.5v.44c0,.23-.03,.46-.07,.69-.04,.23-.11,.46-.2,.67-.09,.22-.21,.42-.35,.6-.14,.18-.31,.34-.51,.47-.22,.15-.43,.28-.63,.37-.2,.09-.4,.16-.6,.21s-.41,.08-.63,.09c-.22,.01-.47,.01-.74,0-.03,0-.05,0-.09-.02-.03-.01-.06-.02-.07-.02-.33-.07-.62-.2-.86-.38s-.44-.4-.59-.65c-.16-.25-.27-.53-.34-.83-.07-.3-.1-.61-.09-.92Z"/></g><g><path class="cls-10" d="M149.43,137.43c-2.58-3.7-11-15.62-12.35-17.07-.5-.54-7.24-1.87-12.81-2.37,1.34,2.92,7.72,23.81,10.28,27.83,2.21-.31,12.21-6.15,14.88-8.38Z"/><path class="cls-10" d="M83.6,137.43c2.58-3.7,11-15.62,12.35-17.07,.5-.54,7.24-1.87,12.81-2.37-1.34,2.92-7.72,23.81-10.28,27.83-2.21-.31-12.21-6.15-14.88-8.38Z"/><path class="cls-10" d="M93.77,165.41c11.19,6.6,35,6,46.61-.55,0,0-4.4-36.62-6.14-45.3-4.23-1.17-9.96-2.1-15.92-2.16-7.3-.07-15.09,1.16-19.83,1.97-1.25,11.07-3.26,29.69-4.72,46.04Z"/><path class="cls-2" d="M109.79,149.22c-.13-.14-.19-.31-.2-.5,0-.66,.12-1.65,.39-2.98,.26-1.32,.59-2.7,.98-4.13s.79-2.76,1.22-4.01c.43-1.25,.8-2.12,1.11-2.63,.12-.2,.49-.37,1.08-.52,.6-.15,1.26-.25,1.98-.3,.72-.05,1.42-.04,2.08,.03,.67,.07,1.13,.23,1.39,.48,.38,.37,.82,1.18,1.32,2.44,.5,1.25,.99,2.61,1.47,4.09,.48,1.47,.9,2.89,1.28,4.24,.38,1.35,.62,2.31,.75,2.87,.08,.41,.05,.69-.09,.85-.15,.16-.4,.27-.75,.32-.6,.09-1.34,.16-2.23,.2-.89,.04-1.45,.04-1.67,.01-.09-.01-.17-.05-.24-.1-.24-.16-.47-.59-.69-1.3s-.43-1.21-.65-1.47c-.13-.16-.3-.25-.51-.28l-1.67-.03c-.52,0-.87,.18-1.03,.51-.21,.43-.45,.9-.71,1.42-.27,.52-.46,.84-.59,.96-.06,.07-.15,.12-.28,.15-.28,.06-.94,.06-1.98,.02-1.04-.04-1.63-.16-1.77-.34Zm6.74-8.91c-.23,.24-.46,.63-.68,1.19-.23,.56-.31,.93-.26,1.1,.1,.3,.54,.44,1.32,.42,.78-.02,1.21-.2,1.28-.55,.04-.21-.15-.69-.59-1.45-.44-.76-.79-1-1.06-.71Z"/><path class="cls-15" d="M127.05,119.54c.02-.56-.08-.99-.23-1.52-6.46-.96-14.41-.41-20.56,.17-.04,.24-.14,.47-.15,.72-.13,4.34,4.45,7.99,10.23,8.17,5.78,.17,10.57-3.2,10.7-7.54Z"/><path class="cls-6" d="M124.2,107.5l-.13,12.24c-.03,2.63-3.4,4.73-7.53,4.69-4.13-.04-7.45-2.22-7.42-4.85l.12-12.26,14.96,.18Z"/><path class="cls-8" d="M126.22,117.81c-.7-.04-1.4-.08-2.16-.12l.05-4.85c-3.89-1.84-14.88-5.52-14.88-5.52l-.12,9.88c3.93,6.11,15.82,5.67,17.1,.61Z"/><g><g><path class="cls-6" d="M155.72,95.88c-1.77,6.83-8.29,11.1-13.17,10.4-4.88-.7-5.79-6.32-4.89-12.91,.9-6.59,5.58-11.38,10.46-10.67,6.67,.98,9.27,6.76,7.6,13.18Z"/><path class="cls-5" d="M148.45,98.45c-1.34,2.59-4.23,3.74-6.45,2.57-2.22-1.17-2.93-4.22-1.59-6.81,1.34-2.59,4.23-3.74,6.45-2.57,2.22,1.17,2.93,4.22,1.59,6.81Z"/></g><path class="cls-6" d="M78.25,95.88c1.77,6.83,8.29,11.1,13.17,10.4,4.88-.7,5.79-6.32,4.89-12.91-.9-6.59-5.58-11.38-10.46-10.67-6.66,.98-9.27,6.76-7.6,13.18Z"/><path class="cls-5" d="M85.52,98.45c1.34,2.59,4.23,3.74,6.45,2.57,2.22-1.17,2.93-4.22,1.59-6.81-1.34-2.59-4.23-3.74-6.45-2.57-2.22,1.17-2.93,4.22-1.59,6.81Z"/><path class="cls-1" d="M151.28,75.32c0,21.48-14.52,31.14-34.85,31.14s-35.24-9.66-35.24-31.14,14.91-26.47,35.24-26.47,34.85,4.99,34.85,26.47Z"/><path class="cls-6" d="M144.29,66.95c1.73,3.72,.58,34.33-3.33,38.9-4.15,4.85-11.66,11.65-24.09,11.56-12.83-.08-20.76-6.23-23.97-11.56-3.8-6.31-5.49-33.29-4.27-36.77,4.09-11.74,14.63-12.14,28.41-12.14,12.89,0,22.76,.35,27.25,10.01Z"/><path class="cls-1" d="M144.99,54.82c3.24-1.31,5.16-2.78,5-4.14-.27-2.35-6.63-3.6-15.04-3.22,3.48-3.21,5.17-6.72,4.27-9.77-1.81-6.14-13.42-8.13-25.94-4.43-12.51,3.69-21.19,11.66-19.38,17.8,.24,.82,.66,1.56,1.23,2.23-4.41-1.84-8.2-2.05-9.32-.24-1.47,2.38,2.24,7.34,8.29,11.08,6.05,3.74,12.15,4.84,13.62,2.46,.56-.91,.36-2.2-.43-3.66,4.58,1.84,10.47,3.39,16.98,4.33,15.43,2.22,28.49,.15,29.18-4.62,.37-2.57-2.93-5.4-8.46-7.81Z"/><path class="cls-11" d="M133.01,97.19c0,1.26,1.88,2.29,4.19,2.29,2.3,0,4.16-1.02,4.15-2.28,0-1.26-1.88-2.29-4.19-2.29-2.3,0-4.16,1.02-4.15,2.28Z"/><path class="cls-11" d="M92.47,97.39c0,1.26,1.88,2.29,4.19,2.29,2.3,0,4.16-1.02,4.15-2.28,0-1.26-1.88-2.29-4.19-2.29-2.3,0-4.16,1.02-4.15,2.28Z"/><path class="cls-3" d="M114.7,95.52c.15,0,.28-.11,.3-.27,.16-1.08,1-1.8,2.14-1.82,1.15-.02,2.04,.67,2.21,1.73,.03,.17,.19,.28,.36,.26,.17-.03,.28-.19,.26-.36-.22-1.35-1.39-2.28-2.84-2.25-1.44,.03-2.55,.97-2.75,2.35-.02,.17,.09,.33,.26,.35h.05Z"/><path class="cls-1" d="M139.85,74.98c.25,.08,.54,.06,.79-.09,.47-.27,.62-.87,.35-1.33-1.98-3.38-6.74-5.68-11.33-5.47-.54,.03-.96,.48-.93,1.02,.02,.54,.48,.96,1.02,.93,3.85-.18,7.96,1.76,9.56,4.51,.13,.22,.32,.36,.54,.44Z"/><path class="cls-1" d="M94.16,74.98c-.26,.08-.54,.06-.79-.09-.47-.27-.62-.87-.35-1.33,1.98-3.38,6.74-5.68,11.33-5.47,.54,.03,.95,.48,.93,1.02-.03,.54-.48,.96-1.02,.93-3.85-.18-7.96,1.76-9.56,4.51-.13,.22-.32,.36-.54,.44Z"/><g><path class="cls-14" d="M124.2,93.41s9.29,2.96,12.83-1.93c4.31-5.96-2.29-10.67-6.57-9.75-3.96,.85-7.56,4.29-6.25,11.68Z"/><path class="cls-1" d="M137.72,83.87c-1.72-2.16-4.04-2.84-6.55-2.59-2.57,.26-5.16,2.08-5.9,3.96,1.38-2.12,3.76-2.89,5.24-3.21,2.36-.51,5.45,.55,6.84,2.68,1.24,1.9,1.13,4.74-.45,6.93,1.87-1.49,2.61-5.51,.81-7.76Z"/><path class="cls-13" d="M126.31,87.16c-.85,2.14,.19,4.57,2.34,5.42,2.14,.85,4.57-.19,5.42-2.34,.85-2.14-.19-4.57-2.34-5.42-2.14-.85-4.57,.19-5.42,2.34Z"/><path class="cls-16" d="M126.65,86.5c-.24,.59,.05,1.27,.65,1.5,.59,.24,1.27-.05,1.5-.65,.24-.59-.05-1.27-.65-1.5-.59-.24-1.27,.05-1.5,.65Z"/></g><g><path class="cls-14" d="M110.17,93.45s-9.29,2.97-12.83-1.92c-4.31-5.96,2.29-10.67,6.57-9.75,3.96,.85,7.56,4.28,6.26,11.67Z"/><path class="cls-1" d="M96.64,83.92c1.72-2.17,4.03-2.85,6.54-2.6,2.57,.26,5.17,2.07,5.9,3.95-1.38-2.11-3.76-2.89-5.24-3.2-2.36-.51-5.45,.55-6.84,2.68-1.24,1.9-1.13,4.74,.45,6.93-1.87-1.49-2.61-5.5-.82-7.76Z"/><path class="cls-13" d="M100.5,87.26c-.85,2.14,.19,4.57,2.34,5.42,2.14,.85,4.57-.19,5.42-2.34,.85-2.14-.19-4.57-2.34-5.42-2.14-.85-4.57,.19-5.42,2.34Z"/><path class="cls-16" d="M100.84,86.59c-.24,.59,.05,1.27,.65,1.5,.59,.24,1.27-.05,1.5-.65,.24-.59-.05-1.27-.65-1.5-.59-.24-1.27,.05-1.5,.65Z"/></g></g><g><g><g><path class="cls-6" d="M66.72,134.32c-.45-.44,5.24-4.84,5.73-4.44,7.32,6.02,20.69,13.34,23.02,14.71,0,0-4.42,6.1-9.67,5.88-4.18-.18-13.1-10.28-19.08-16.14Z"/><g><path class="cls-5" d="M61.56,128.39c-4.32-1.04-7.98-1.21-8.96,.37,2.25,.88,11.17,3.19,18.22,5.8,.72,.27,2.08-3.6,1.24-4.44-.79-3.27-4.94-3.31-8.85-7.55-1.12-1.21-1.84,0-1.71,.76,.23,1.35,1.18,2.54,2.39,4.68,.85,1.51-1.12,.67-2.33,.37Z"/><path class="cls-5" d="M51.78,132.05c2.63,.55,6.54,1.38,13.98,3.12,2.2,.51,2.88-2.85,2.03-3.07-4.44-1.14-14.59-3.59-16-.05Z"/><path class="cls-6" d="M52.14,134.42c2.6,.67,9.83,.4,17.13,1.97,3.68,.79,6.95-5.32,2.59-7.61-2.62-1.37-7.72,1.82-9.61,3.49-4.33-.05-9.29,.45-10.11,2.15Z"/></g></g><g><path class="cls-6" d="M166.48,132.86c.44-.45-5.51-4.56-6-4.14-7.19,6.19-20.48,13.91-22.8,15.34,0,0,4.73,5.82,10.06,5.4,4.24-.33,12.9-10.61,18.73-16.6Z"/><g><path class="cls-5" d="M171.46,126.88c4.35-1.19,8.06-1.49,9.12,.02-2.25,.96-11.22,3.57-18.28,6.41-.72,.29-2.26-3.45-1.44-4.31,.67-3.24,4.88-3.45,8.69-7.76,1.09-1.23,1.87-.07,1.77,.68-.18,1.33-1.1,2.54-2.24,4.69-.81,1.52,1.16,.61,2.38,.28Z"/><path class="cls-5" d="M181.54,130.09c-2.65,.64-6.59,1.61-14.07,3.61-2.21,.59-3.04-2.69-2.18-2.94,4.47-1.29,14.68-4.09,16.26-.67Z"/><path class="cls-6" d="M181.27,132.43c-2.61,.76-9.97,.78-17.32,2.59-3.71,.92-7.27-4.96-2.93-7.37,2.6-1.45,7.91,1.49,9.9,3.05,4.39-.22,9.45,.08,10.35,1.72Z"/></g></g><path class="cls-12" d="M120.87,107.17c0,1.12-1.76,1.09-3.92,1.09s-3.92,.03-3.92-1.09,1.76-2.98,3.92-2.98,3.92,1.85,3.92,2.98Z"/></g><path class="cls-7" d="M169.55,48.09c-1.2-.81-1.36-2.54-.31-3.54,.93-.88,2.01-1.48,3.24-1.81,1.82-.49,3.81-.3,5.96,.55,2.63,1.04,4.42,2.52,5.36,4.46,.8,1.68,.84,3.45,.1,5.32-.47,1.2-1.23,2.19-2.26,2.96-.95,.69-2.28,1.33-3.99,1.92-1.75,.63-2.96,1.29-3.64,1.99-.46,.47-.92,1.22-1.38,2.23-.18,.4-.64,.6-1.05,.43l-1.92-.76c-.42-.17-.63-.64-.46-1.07,.64-1.63,1.38-2.83,2.21-3.62,.72-.68,1.81-1.34,3.28-1.99,1.62-.7,2.76-1.36,3.42-1.96,.56-.49,.99-1.13,1.3-1.91,.41-1.04,.38-2-.09-2.87-.42-.79-1.14-1.39-2.17-1.79-1.25-.49-2.41-.44-3.48,.15-.43,.24-.82,.56-1.17,.95-.76,.85-2.03,.99-2.97,.35Zm1.41,20.05c-.49,1.24-1.89,1.85-3.13,1.36l-.24-.1c-1.24-.49-1.85-1.89-1.36-3.13,.49-1.24,1.89-1.85,3.13-1.36l.24,.1c1.24,.49,1.85,1.89,1.36,3.13Z"/><path class="cls-7" d="M49.71,53.54c-1.42,.53-3-.38-3.21-1.88-.19-1.32-.05-2.61,.42-3.85,.69-1.85,2.04-3.43,4.07-4.76,2.48-1.62,4.83-2.24,7.05-1.88,1.92,.33,3.45,1.38,4.6,3.13,.74,1.13,1.13,2.37,1.16,3.72,.02,1.23-.24,2.75-.77,4.57-.52,1.87-.69,3.31-.51,4.3,.12,.68,.48,1.52,1.07,2.53,.23,.4,.12,.91-.27,1.16l-1.81,1.18c-.4,.26-.93,.15-1.19-.25-1-1.53-1.58-2.89-1.75-4.08-.15-1.03-.05-2.36,.29-4.01,.38-1.8,.51-3.17,.4-4.1-.08-.77-.37-1.53-.85-2.26-.64-.98-1.47-1.53-2.5-1.66-.92-.12-1.87,.13-2.84,.77-1.17,.77-1.83,1.79-1.97,3.06-.05,.51-.02,1.03,.1,1.57,.26,1.16-.38,2.33-1.49,2.75Zm17.96,10.92c.76,1.17,.43,2.73-.73,3.49l-.23,.15c-1.17,.76-2.73,.43-3.49-.73-.76-1.17-.43-2.73,.73-3.49l.23-.15c1.17-.76,2.73-.43,3.49,.73Z"/></g></g></g></g></g></svg>