<?xml version="1.0" encoding="UTF-8"?><svg id="Layer_2" xmlns="http://www.w3.org/2000/svg" xmlns:xlink="http://www.w3.org/1999/xlink" viewBox="0 0 878.64 527.32"><defs><style>.cls-1{fill:#2a535e;}.cls-2{fill:#fbfdff;}.cls-2,.cls-3,.cls-4{fill-rule:evenodd;}.cls-5{opacity:.88;}.cls-5,.cls-6,.cls-7,.cls-3,.cls-8{fill:#fff;}.cls-9{fill:#ff4848;}.cls-10{fill:#c4735b;}.cls-11{fill:#9fe6ed;}.cls-12{fill:#40748e;}.cls-13{opacity:.18;}.cls-13,.cls-14{fill:#2b000b;}.cls-15{fill:#be52e5;}.cls-16{fill:#234968;}.cls-17{fill:#b776b6;}.cls-18{fill:#751d0e;}.cls-19{fill:#49130a;}.cls-7{opacity:.54;}.cls-20{fill:#4c1712;}.cls-21{fill:#2ca899;}.cls-22{fill:#ffb600;}.cls-23{fill:#752912;}.cls-24{fill:#40c4b7;}.cls-25{fill:#e0956c;}.cls-26{fill:#8148aa;}.cls-27{fill:#ffc19f;}.cls-28{fill:#9a8df7;}.cls-29{fill:#d8855b;}.cls-30{fill:#58120f;}.cls-31{fill:#ac60e2;}.cls-32{fill:#107f99;}.cls-33{opacity:.2;}.cls-34{fill:#083b4f;}.cls-35{fill:#303030;}.cls-4{fill:#6c1e19;}.cls-36{fill:#e83700;}.cls-37{fill:#f4b18c;}.cls-38{fill:#28afc6;}.cls-39{fill:#6b6b6b;}.cls-40{fill:#d1a4ff;}.cls-8{opacity:.84;}.cls-41{fill:#705751;}.cls-42{fill:#ffe299;}.cls-43{fill:#994710;}.cls-44{opacity:.23;}.cls-45{fill:#934341;}.cls-46{fill:#f9e7d7;}.cls-47{fill:#351601;}.cls-48{fill:#230000;opacity:.39;}.cls-49{fill:#681d0c;}.cls-14{opacity:.11;}.cls-50{fill:#f9951e;}.cls-51{fill:#f3b3b3;}.cls-52{fill:#a3a3a3;}.cls-53{fill:#bf8900;}.cls-54{opacity:.16;}.cls-55{fill:#138fa3;}.cls-56{fill:#ffebeb;}.cls-57{clip-path:url(#clippath);}.cls-58{fill:#dd6b5b;}.cls-59{fill:#17b4ce;}.cls-60{fill:none;}.cls-61{fill:#701608;}.cls-62{opacity:.28;}.cls-63{fill:#661c02;}.cls-64{fill:#bf3636;}.cls-65{fill:#461d14;}.cls-66{fill:#f9feff;}.cls-67{fill:#7e331c;}.cls-68{fill:#fefffe;}.cls-69{fill:#cc6a1f;}.cls-70{fill:#224966;}.cls-71{fill:#5b0000;}</style><clipPath id="clippath"><rect class="cls-60" x="0" y="0" width="878.64" height="527.32"/></clipPath></defs><g id="Layer_1-2"><g class="cls-57"><g><g><path class="cls-6" d="M298.46,615.84c0-.14,0-.28-.03-.43,0-.04-.01-.07-.02-.11-.01-.07-.02-.14-.03-.21,0-.04-.03-.08-.04-.12-.06-.26-.14-.52-.26-.77-.1-.22-.23-.42-.37-.6-1.48-2.3-5.09-4.83-9.18-7.04-.09-.21-.2-.41-.34-.6-.54-.76-1.34-1.27-2.24-1.42-.19-.03-.39-.06-.59-.08-.55-.67-1.35-1.14-2.28-1.25-.11-.01-.22-.02-.32-.03-.47-.53-1.11-.92-1.85-1.09-.35-.08-.71-.12-1.08-.14-.02-.04-.04-.09-.05-.13-.13-.31-.25-.63-.37-.93-.61-1.6-2.14-2.12-3.51-2.29-.05-.41-.09-.82-.13-1.18-.03-.25-.09-.48-.18-.71,.31-.19,.59-.42,.82-.71,.49-.63,.71-1.42,.61-2.21l-.87-7.08c-.15-1.23-1.03-2.19-2.16-2.51-2.65-19.58-6.64-53.18-9.42-80.44,.38-.23,.77-.45,1.13-.69,1.08-.72,1.58-2.06,1.22-3.32-.39-1.37-.76-2.68-1.13-3.94,2.16-1.22,3.92-2.8,5.23-4.71,.41-.59,.59-1.31,.51-2.02-.02-.19-.92-8.44-2-18.93,1.88,1.22,3.09,1.87,3.23,1.94,.15,.08,.31,.14,.47,.2,1.07,.34,2.13,.52,3.14,.52h0c4.25,0,7.56-3.06,8.23-7.63,.35-2.42-.14-4.72-1.24-6.53-.02-.04-.04-.08-.06-.12l-.06-.08c-.12-.18-.24-.35-.37-.52l-8.68-12.18c.17-.31,.31-.61,.43-.9,.42-1,.27-2.14-.39-3-2.61-3.38-5.41-6.44-8.17-9.38-.03-.41-.05-.82-.08-1.2-.03-.45-.16-.89-.38-1.28-.31-.56-.66-1.09-1.02-1.62,.22-5.62-2.25-10.51-6.63-13.38l.03-.03c.2,0,.39,.02,.59,.02,6.07,0,13.72-4.89,16.01-13.07,1.27-4.53,.8-8.86-1.34-12.19-.87-1.36-2-2.49-3.32-3.39-.01-.13-.02-.25-.05-.38,.86-.9,1.47-2,1.78-3.22,2.65-1.27,4.34-4.07,4.06-7.15-.21-2.29-1.46-4.27-3.23-5.47,1.11-1.34,1.87-2.96,2.22-4.77,.64-3.26-.15-6.79-2.15-9.67-1.42-2.05-3.5-3.54-5.88-4.29,0-.19-.01-.37-.03-.54-.33-3.59-3.35-6.29-7.04-6.29-.2,0-.39,0-.59,.02-.11,0-.23,.02-.34,.04-.25-.75-.56-1.48-.97-2.09-2.3-3.93-7.17-6.46-12.45-6.46-2.98,0-5.75,.81-8,2.35-1.26,.86-2.34,1.94-3.21,3.18-1.43-.59-2.98-.9-4.56-.9-.33,0-.67,.01-1,.04-1.76,.14-3.47,.68-5,1.56-1.24-.83-2.66-1.43-4.18-1.76-.34-5.78-2.91-11.91-9.4-15.93-.49-.3-1.04-.45-1.58-.45-.97,0-1.91,.47-2.49,1.33-5.22,7.75-6.48,14.28-5.85,19.54-2.24-.75-4.72-1.39-7.38-2.07-3.77-.97-8.05-2.07-12.59-3.7-.33-.12-.67-.18-1.01-.18-.57,0-1.13,.16-1.62,.48-.78,.5-1.29,1.35-1.37,2.28-.74,8.97,2.26,14.28,4.91,17.16,1.54,1.68,3.44,3.01,5.55,3.98-1.33,2.92-1.52,6.21-.49,9.38,.27,.8,.62,1.58,1.04,2.32-1.69,2.24-2.28,4.75-1.56,7.05,.65,2.09,2.31,3.72,4.66,4.65,.08,.19,.16,.37,.26,.55-.41,1.36-.35,2.84,.21,4.31,.11,.3,.26,.58,.42,.86-1.03,2.79-1.14,6.05-.29,9.44,2.07,8.23,9.38,13.22,15.47,13.48,2.93,3.69,8.57,6.97,14.43,9.06-.16,.02-.33,.03-.49,.05-.19,.02-.38,.06-.56,.12-1.26,.12-2.51,.26-3.75,.43h0c-.85,.12-1.69,.25-2.52,.39-1.45,.23-2.85,.5-4.99,1.02-.58,.14-1.11,.45-1.51,.9-1.32,1.46-2.69,2.89-4.06,4.34-.81,.85-1.63,1.72-2.45,2.59-.84,.25-1.64,.7-2.36,1.35l-3.93,3.8s-.06,.08-.1,.12c-.08,.09-.17,.18-.25,.28-.03,.04-.04,.08-.07,.12-.05,.07-.09,.15-.13,.22-.07,.13-.13,.27-.19,.41-.03,.08-.06,.16-.08,.24-.04,.16-.06,.31-.08,.48,0,.07-.02,.14-.02,.22,0,.23,0,.47,.06,.7h0v.02l.05,.24c-.07,.09-.14,.17-.21,.26-.66,.86-.8,2.01-.37,3,.32,.75,.81,1.59,1.41,2.47l-7.03,13.51c-.1,.17-.21,.34-.3,.52-.03,.07-.05,.15-.09,.22h0v.02c-1.26,2.88-.72,6.08,1.53,8.84,.11,.13,.23,.25,.35,.37,.23,.2,3.89,3.34,10.21,6.81l3.05,14.49c.21,1.02,.93,1.81,1.84,2.17-.46,5.64-.75,9.58-.76,9.69-.07,.97,.33,1.91,1.07,2.53,.32,.26,.66,.51,1.03,.75,1.11,18.57,2.81,39.13,4.22,56.31,.77,9.32,1.46,17.73,1.91,23.99-1.04,.5-1.74,1.57-1.7,2.8l.23,7.13c.03,.8,.37,1.55,.95,2.09,.33,.31,.73,.53,1.16,.66-.77,.34-1.45,.9-1.81,1.85-.12,.31-.24,.62-.37,.93-.02,.04-.03,.09-.05,.13-.37,.02-.73,.07-1.09,.14-.74,.16-1.37,.56-1.84,1.08-.11,0-.21,.02-.31,.03-.93,.11-1.73,.57-2.29,1.25-.2,.02-.39,.04-.58,.08-.92,.15-1.72,.66-2.26,1.42-.13,.19-.25,.39-.34,.6-4.08,2.21-7.69,4.73-9.18,7.03-.14,.18-.27,.38-.37,.6-.12,.26-.19,.52-.26,.78,0,.04-.03,.08-.04,.12-.01,.07-.02,.14-.03,.21,0,.04-.01,.08-.02,.12-.02,.14-.02,.28-.03,.42,0,.05,0,.1,0,.15,0,.13,.02,.25,.04,.38,.02,.14,.05,.27,.08,.41,.02,.06,.03,.12,.05,.18,.03,.1,.07,.19,.11,.29,.03,.06,.05,.12,.08,.18,.04,.08,.09,.17,.13,.25,.04,.08,.09,.15,.14,.22,.04,.06,.09,.13,.13,.19,.11,.13,.22,.26,.35,.38,.12,.12,.25,.23,.39,.34,2.06,1.62,5.62,2.35,11.42,2.35h0c11.75,0,28.57-3.11,29.28-3.24,.91-.17,1.66-.74,2.08-1.51,.05-.08,.08-.17,.12-.26,.03-.07,.07-.14,.1-.22,.03-.09,.05-.18,.07-.28,.02-.08,.05-.16,.06-.24,.02-.1,.01-.21,.02-.31,0-.08,.02-.15,.01-.23h0c-.02-.59-.02-1.25-.02-1.93,0-.07-.02-.13-.02-.2-.02-1.44-.02-3.02-.03-4.58,0-1.65,0-3.22-.03-4.45-.01-.81-.37-1.56-.95-2.11,.04-1.07,.09-2.04,.15-2.63,.02-.21,.02-.41,0-.61,.43-.16,.82-.4,1.14-.74,.54-.58,.84-1.35,.81-2.15l-.23-7.13c-.03-.98-.54-1.84-1.29-2.36-.11-3.08-.27-6.77-.44-10.89-.74-17.8-1.85-44.51-1.06-57.98,.37-.15,1-.3,1.75-.3,.3,0,.54,.03,.72,.06,4.55,16.64,10.84,50.95,14.09,69.14-.05,.05-.1,.1-.15,.16-.49,.63-.71,1.42-.61,2.21l.87,7.08c.19,1.52,1.48,2.63,2.97,2.63,.12,0,.25,0,.37-.02l.53-.06c0,.16,0,.32,.03,.47,.08,.49,.2,1.14,.33,1.88-.36,.49-.57,1.09-.58,1.71-.02,1.23-.03,2.8-.03,4.45,0,1.56,0,3.14-.03,4.58,0,.07-.02,.14-.02,.21,0,.68,0,1.34-.02,1.93h0c0,.1,.01,.19,.02,.28,0,.09,0,.18,.02,.27,.16,1.07,.88,1.97,1.89,2.36,.17,.06,.34,.11,.53,.15,.13,.02,.83,.15,1.96,.35,4.87,.84,17.74,2.89,27.29,2.89h.04c4.52,0,7.67-.44,9.83-1.4,.06-.03,.12-.05,.18-.08,.24-.11,.47-.24,.69-.37,.26-.16,.51-.32,.74-.5,.14-.11,.27-.22,.39-.34,.13-.12,.24-.25,.35-.38,.05-.06,.09-.12,.13-.18,.05-.07,.1-.15,.15-.22,.05-.08,.09-.16,.13-.25,.03-.06,.06-.12,.08-.19,.04-.09,.08-.19,.11-.28,.02-.06,.03-.13,.05-.2,.03-.12,.06-.25,.08-.38,.02-.13,.03-.26,.04-.39,0-.05,0-.09,0-.14Z"/><path class="cls-6" d="M431.31,439.23c-.19-.14-.38-.27-.57-.4l1.07-10.55c.1-1.16-.3-2.24-1.01-3.05-.21-.35-.46-.69-.77-1.03-.69-.75-1.79-1.66-3.14-1.78-.07,0-.14,0-.21,0,0,0-17.43-.21-17.47-.21-1.28,0-2.43,.61-3.19,1.55-2.31-3.52-4.87-7.32-7.73-11.38-.35-.49-.84-.87-1.4-1.08-.67-.25-1.9-.53-8.26-1.02-1.63-.19-3.16-.33-5-.44-.17-.2-.43-.51-.76-.89,4.25-2.49,7.94-6.17,10.64-10.79,.81-1.39,1.29-3.36,1.58-6.04,3.04-2.08,5.41-5.78,6.09-10.1,.25-1.61,.28-3.17,.11-4.62,.07-.03,.14-.04,.22-.07,1.11-.41,1.88-1.45,1.95-2.63,.07-1.19-.56-2.3-1.62-2.85-1.1-.57-1.42-2.95-2.2-9.77,0-.08-.02-.16-.03-.24,2.32-.87,3.68-2.95,4.2-3.75,.58-.88,.65-2.01,.18-2.95-.46-.95-1.39-1.58-2.44-1.67-3.76-.32-4.18-1.68-5.31-5.31-1.39-4.5-3.3-10.66-13.25-14.56-4.63-1.81-10.17-2.73-16.47-2.73-11.13,0-27.57,3.56-30.9,10.03-6.32,3.91-9.73,8.95-10.38,13.86-.6,4.52-.17,12.78,2.51,21.24-.43,.44-.83,.92-1.18,1.44-2.21,3.36-2.47,8.12-.7,12.75,2.51,6.54,8.86,11.29,15.11,11.3h0c.74,0,1.47-.07,2.18-.2,.02,.03,.03,.06,.05,.09,1.18,2.01,3.38,3.82,6.09,5.36-.4,.6-.9,1.33-1.54,2.29-.77,1.15-1.46,2.17-1.68,2.48-1.72,.28-3.14,.61-4.88,1.1l-.89,.15c-4.66,.76-6.78,1.16-7.85,1.66-.54,.25-.98,.65-1.29,1.16-10.69,17.61-14.79,26.49-17.51,32.37-.99,2.14-1.77,3.83-2.6,5.36-.69,1.27-.38,2.85,.74,3.76,.42,.34,.93,.71,1.47,1.08-.42,1.64-.72,3.49-.82,5.58-.02,.38,.03,.76,.16,1.13,3.13,9.14,16.66,31.9,22.63,39.1-.82,14.59-1.29,31.12-1.72,46.43-.61,21.66-1.19,42.12-2.64,49.21-.3,.33-.6,.64-.9,.96-.66,.14-1.26,.35-1.79,.64-.69,.38-1.2,1.01-1.48,1.73-.41,.14-.8,.31-1.15,.52-.6,.36-1.06,.91-1.34,1.54-.42,.15-.82,.33-1.18,.55-.71,.45-1.2,1.15-1.42,1.94-.06,.04-.13,.09-.19,.14-1.04,.75-1.94,1.4-2.72,2.02-.07,.05-.15,.09-.22,.14-.34,.26-1.01,.82-1.67,1.58-.06,.07-.12,.14-.18,.21-.12,.14-.23,.28-.34,.43l-.03,.04c-.71,.95-1.31,2.12-1.37,3.4-.12,2.43-.05,3.74,.69,5.05,1.39,2.44,4.8,3.89,9.12,3.89,.25,0,.5,0,.75-.01,3.31-.13,6.03-.62,9.08-1.64,8.01-2.68,13.37-5.03,19.91-8.18,1.04-.5,1.7-1.55,1.7-2.7v-2.66s0-.02,0-.03c.01-1,.02-1.94,.04-2.77,.02-1.33,.04-2.49,.03-3.5,.77-1.5,.78-2.69,.52-3.64,1.64-1.79,1.72-3.21,1.3-5.13-.12-.52-.25-1.11-.29-2.03-.26-5.86,1.83-29.03,8.45-76.46,.31-.12,.86-.26,1.58-.26,.56,0,1,.08,1.27,.17,.76,14.04,1.55,26.91,2.25,38.29,1.1,17.99,1.97,32.2,1.99,39.12,0,.63-.15,1.05-.36,1.62-.45,1.22-1.18,3.21,.61,5.7-.46,1.29-.13,2.71,.95,4.23,0,.59,.01,1.21,.02,1.88,.01,.83,.02,1.77,.04,2.77,0,.01,0,.02,0,.04v2.66c0,1.15,.66,2.2,1.7,2.7,6.54,3.15,11.9,5.5,19.91,8.18,3.05,1.02,5.76,1.51,9.08,1.64,.25,0,.51,.01,.75,.01h0c4.32,0,7.73-1.45,9.12-3.89,.75-1.31,.82-2.62,.69-5.05-.06-1.28-.67-2.45-1.38-3.4l-.02-.02c-.12-.16-.24-.31-.36-.45-.05-.07-.11-.13-.17-.2-.67-.76-1.34-1.32-1.68-1.58-.07-.06-.15-.1-.22-.14-.77-.61-1.68-1.27-2.71-2.02l-.19-.14c-.22-.8-.72-1.5-1.43-1.95-.35-.22-.75-.39-1.17-.54-.27-.63-.74-1.18-1.35-1.54-.34-.21-.73-.37-1.14-.51-.28-.73-.8-1.35-1.49-1.74-.53-.29-1.13-.5-1.78-.64-.45-.46-.88-.93-1.31-1.42-.39-4.81-.09-21.98,.26-41.75,.29-16.5,.63-36.02,.68-53.78,.35-.23,.66-.46,.89-.7,.6-.64,.9-1.5,.81-2.38-.34-3.22-1.64-20.64-3-39.27,.2-.07,.41-.15,.62-.23,2.97,3.61,5.96,6.55,8.28,7.22,.99,.29,2.03,.43,3.07,.43h0c5.1,0,9.69-3.42,13.1-6.34l.49-.03h.06c1.2,0,2.28-.54,3.04-1.37,2.94-.18,5.06-1.69,5.46-3.98,.08-.48,.06-.97-.02-1.45,.3-.34,.55-.72,.73-1.15,.38-.92,.39-1.93,.06-2.89,.08-.12,.15-.23,.2-.33,.54-1,.6-2.15,.23-3.27,.52-.72,.82-1.58,.82-2.52-.01-2.05-1.42-4.27-3.85-6.09Z"/><path class="cls-6" d="M702.35,456.91l-1.08-1.99c-3.15-5.82-8.43-15.57-21.28-36.73-.31-.5-.76-.91-1.29-1.16-.91-.43-2.58-.78-5.95-1.34h0c-4.21-.81-6.39-1.1-9.02-1.41-.33-.41-1-1.27-1.74-2.21-.42-.54-.79-1-1.11-1.41,3.43-1.81,6.43-4.08,8.52-6.62,.39-.48,.78-1.18,1.15-2.04,6.01-.23,11.8-5.48,13.56-12.41,1.14-4.48,.64-8.7-1.42-11.88-.56-.86-1.22-1.62-1.97-2.28,.87-4.04,1.14-8.34,.8-12.78,.84-.95,1.46-2.06,1.76-3.25,.45-1.77,.2-3.58-.71-5.08-.87-1.44-2.25-2.45-3.9-2.93-.22-.46-.46-.92-.71-1.36l-.03-.05c-.99-1.76-2.18-3.37-3.57-4.82-.57-1.24-1.62-2.16-3-2.64-.33-.25-.67-.48-1.01-.72,0,0,0-.02,0-.02-.04-3.32-2.86-6.02-6.28-6.02-.02,0-.09,0-.11,0-1,.02-1.95,.26-2.8,.68-1.59-1.24-3.58-1.95-5.69-1.95h-.15c-.35,0-.71,.03-1.06,.08-.02-.03-.03-.06-.05-.09-1.35-2.24-3.78-3.64-6.33-3.64-1.24,0-2.45,.33-3.51,.95-.67,.39-1.25,.89-1.74,1.47l-.12-.06c-2.26-1.24-4.63-1.92-6.68-1.92-3.2,0-4.59,1.62-5.14,2.58-.2,.35-.45,.91-.56,1.65-.55,.1-1.09,.24-1.61,.44-1.22-.86-2.68-1.35-4.21-1.35-1.24,0-2.45,.33-3.51,.95-1.42,.84-2.47,2.15-3,3.7-.81,.75-1.4,1.69-1.71,2.72-4.12,.83-7.07,3.86-7.03,7.52,0,.53,.08,1.05,.21,1.56-1.51,1.56-2.39,3.67-2.36,5.91,.02,1.84,.64,3.57,1.73,4.97-.23,.65-.35,1.34-.34,2.05,0,.64,.13,1.28,.34,1.88-.16,.32-.29,.65-.4,.99-.99,3.1-.09,6.35,2.06,8.03-.93,.73-1.73,1.61-2.4,2.63-2.07,3.17-2.59,7.39-1.47,11.88,1.79,7.16,7.53,11.67,12.57,12.39,.13,.29,.26,.56,.38,.8,1.74,3.23,5.54,6.12,9.98,8.29-.28,.38-.57,.78-.92,1.25-.82,1.12-1.54,2.11-1.75,2.38h0c-1.52,.19-2.82,.4-4.27,.7-3.33,.61-9.49,1.96-10.69,2.48-.6,.26-1.1,.71-1.42,1.28l-5.49,9.73c-8.88,15.74-10.24,18.16-11.84,22.38-.52,1.37,.03,2.92,1.3,3.66,.75,.43,1.53,.83,2.34,1.21-.97,4.58-.41,8.47,1.7,11.36,1.52,2.08,4.56,4.56,10.43,4.56,.24,0,.48,0,.72-.01,1.12-.04,2.42-.17,3.85-.37-.76,17.28-1.48,32.66-1.64,35.91-.04,.87,.29,1.72,.92,2.32,.43,.41,1.04,.8,1.76,1.17-.89,13.67-1.44,28.9-1.94,43.02-.72,20.26-1.4,39.4-2.93,46.21-.04,.16-.05,.33-.05,.5-.07,.08-.15,.15-.22,.23-.64,.14-1.23,.34-1.76,.64-.68,.38-1.19,.99-1.47,1.71-.4,.14-.77,.3-1.12,.51-.59,.36-1.05,.89-1.33,1.52-.41,.15-.81,.32-1.15,.54-.7,.44-1.19,1.13-1.41,1.92-.06,.04-.12,.08-.17,.13-1.02,.74-1.91,1.38-2.67,1.98-.07,.05-.15,.09-.22,.14-.34,.26-.99,.81-1.65,1.56-.07,.07-.13,.15-.19,.22-.11,.13-.22,.27-.33,.42,0,.01-.02,.03-.03,.04-.7,.94-1.29,2.1-1.36,3.37-.12,2.4-.05,3.7,.69,4.99,1.37,2.41,4.74,3.85,9.01,3.85,.24,0,.49,0,.74-.01,3.26-.13,5.93-.61,8.94-1.62,7.88-2.63,13.14-4.94,19.58-8.04,1.04-.5,1.7-1.55,1.7-2.7v-2.62s0-.02,0-.04c.01-.98,.02-1.9,.04-2.72,.02-1.07,.03-2.02,.03-2.88,1.08-1.71,1.14-3.06,.86-4.1,1.66-1.77,1.74-3.24,1.31-5.11-.12-.53-.25-1.08-.29-1.97-.2-4.22,1.31-16.08,3.8-35.74,1.33-10.52,2.99-23.57,4.89-39.38,.34-.12,.92-.25,1.66-.25,.68,0,1.2,.11,1.49,.21,2.01,14.48,4.07,28.5,5.89,40.9,2.48,16.87,4.82,32.8,4.72,34.86-.05,.64-.22,1.1-.42,1.64-.48,1.3-1.28,3.44,.85,6.1-.52,1.81,.35,3.33,1.23,4.43,0,.41,.01,.85,.02,1.3,.01,.81,.02,1.74,.04,2.72,0,.01,0,.02,0,.04v2.62c0,1.15,.66,2.2,1.7,2.7,6.43,3.1,11.7,5.41,19.58,8.04,3,1,5.67,1.49,8.94,1.62,.25,0,.5,.01,.74,.01h0c4.27,0,7.64-1.44,9.01-3.85,.74-1.3,.81-2.59,.69-4.99-.06-1.27-.66-2.42-1.36-3.37-.01-.02-.03-.04-.04-.05-.1-.14-.21-.27-.31-.4-.07-.08-.13-.16-.2-.24-.66-.74-1.31-1.29-1.64-1.55-.07-.05-.15-.1-.22-.14-.76-.6-1.65-1.25-2.67-1.98-.06-.04-.12-.08-.17-.12-.22-.79-.72-1.48-1.43-1.93-.34-.21-.73-.38-1.14-.53-.28-.62-.74-1.16-1.33-1.52-.33-.2-.71-.36-1.1-.5-.28-.72-.79-1.33-1.48-1.72-.52-.29-1.11-.49-1.75-.63-.12-.12-.24-.24-.36-.37,0-.31-.02-.61-.11-.91-1.12-3.78-2.41-22.32-3.9-43.79-1.04-14.95-2.25-32.46-3.7-49.01h0c0-.09-.01-.21-.02-.31,6-7.43,18.96-29.28,21.99-38.13,.12-.36,.18-.75,.16-1.13-.1-2.03-.39-3.83-.79-5.43,.51-.37,.99-.74,1.41-1.08,1.12-.91,1.43-2.49,.74-3.76Z"/><path class="cls-6" d="M588.84,411.07c-.3-.25-.66-.47-1.05-.69,.95-1.07,1.56-2.39,1.46-4.06-.05-.81-.43-1.57-1.05-2.1-.79-.68-1.86-1.02-3.16-1.02-3.33,0-9.04,2.29-11.89,3.94-4.19,2.44-7.56,6.55-10.54,10.53-.22,.19-.4,.39-.51,.56-.62,.86-1.48,2.06-2.5,3.51-.2,.26-.39,.53-.59,.78-.06,.08-.1,.18-.15,.27-.62,.88-1.28,1.82-1.99,2.82-2.55,3.61-5.64,7.98-8.66,12.2-.08-.07-.16-.15-.23-.22,.12-.46,.2-.9,.2-1.3,0-.8-.3-1.56-.86-2.13-.94-.96-1.79-1.82-2.72-2.77-1.74-1.77-3.8-3.85-7.33-7.48,.41-.15,.82-.31,1.19-.47,.81-.35,1.45-.81,1.94-1.35,.35,.12,.74,.19,1.18,.19,.65,0,1.28-.19,1.83-.56,12.74-8.55,14.49-14.76,14.15-18.05,.27,.08,.55,.12,.82,.12,1.05,0,2.06-.56,2.61-1.52,.74-1.3,.4-2.96-.79-3.87-1.51-1.15-3.09-3.48-2.06-8.06,1.04-4.67-2.27-6.78-3.86-7.79-.42-.27-1.05-.67-1.14-.77,0,0-.09-.58,.76-2.27,3.56-7.11,2.03-13.96-3.89-17.44-2.99-1.75-6.22-5.18-8.88-9.41-.25-.57-.56-1.06-.89-1.5-4.89-13.59-16.46-19.65-37.34-20.27-.51-.02-1.01-.02-1.51-.02-19.27,0-35.68,11.34-38.74,26.26-.51,.59-1.01,1.15-1.48,1.67-.6,.66-1.15,1.28-1.64,1.85-4.56,5.35-5.83,10.84-3.78,16.31,.58,1.54,.82,2.47,.72,2.77,0,0-.38,.6-2.46,1.29-3.12,1.04-5.2,2.7-6.2,4.94-1.42,3.19-.23,6.35,.64,8.67,.24,.64,.14,1.97-.05,2.47-.4,1.04-.8,1.91-1.15,2.67-.98,2.13-1.91,4.14-1.35,7.12,.22,1.19,1.12,2.09,2.24,2.36,0,.05,0,.09,0,.14,.28,5.53,4.85,11.25,8.75,12.66,.33,.12,.68,.18,1.02,.18,.44,0,.89-.1,1.29-.29,.28,.42,.56,.73,.82,.91,1.72,1.2,3.97,2.17,6.51,2.96-2.88,2.89-6.02,6.12-9.67,9.96-.82,.86-1.05,2.13-.59,3.23,.32,.75,.71,1.46,1.13,2.15-1.1,1.61-2.01,3.07-2.66,4.3-2.23,4.22-2.25,8.92-.05,12.56,1.81,3,4.91,4.79,8.3,4.79h0c2.76,0,5.58-1.16,8.14-3.36,.26-.22,.48-.49,.65-.78,.6-1.05,1.25-2.21,1.93-3.45-1.5,17.44-3.24,36.2-4.78,44.38-.25,1.31,.41,2.63,1.6,3.23l1.5,.76c.07,.04,.15,.07,.22,.11-.27,14.26-.66,30.46-1.04,46.25-.3,12.38-.58,24.24-.8,34.8-.1,.07-.21,.14-.3,.22-.59,.53-.94,1.28-.98,2.08l-.36,7.26c-.07,1.38,.81,2.58,2.07,2.99-.2,.39-.32,.82-.34,1.27,0,.18-.01,.37-.02,.56-1.2,.23-2.43,.78-2.97,2.15-.13,.33-.28,.67-.42,1.01-.04,.1-.08,.2-.12,.29-.44,.01-.88,.05-1.31,.14-.79,.16-1.46,.57-1.95,1.14-.15,0-.29,.02-.44,.03-.98,.09-1.83,.58-2.41,1.3-.25,.01-.49,.04-.72,.07-.93,.14-1.75,.63-2.31,1.4-.15,.21-.27,.43-.38,.66-4.57,2.34-8.62,5.06-10.2,7.54-.11,.15-.22,.32-.3,.5-.04,.09-.06,.17-.1,.25-.05,.12-.1,.24-.14,.36-.01,.05-.03,.09-.04,.14-.01,.05-.03,.1-.05,.16-.03,.12-.04,.24-.06,.36,0,.03-.01,.06-.01,.09-.02,.18-.02,.36-.02,.54,0,.07,.01,.14,.02,.22,.01,.11,.02,.21,.04,.32,.01,.07,.03,.14,.05,.22,.03,.11,.06,.21,.1,.31,.02,.05,.04,.11,.06,.16,.05,.13,.11,.25,.18,.37,.01,.02,.02,.05,.04,.07,.16,.28,.36,.54,.6,.77,2.21,2.14,6.55,3.1,14.08,3.1,1.58,0,3.23-.04,4.9-.12,7.54-.35,15.64-1.36,20.63-2.07,.55-.08,1.07-.15,1.54-.22,.47-.07,.9-.13,1.28-.19,1.14-.18,1.85-.29,1.98-.31,1.41-.24,2.44-1.43,2.49-2.85,0-.05,.01-.1,.01-.16h0c0-.64,0-1.36,.01-2.11,0-.08-.02-.16-.02-.24,0-1.56,.04-3.27,.07-4.95,.03-1.79,.06-3.49,.06-4.83,0-.87-.38-1.69-1.03-2.26-.1-.09-.22-.16-.33-.24,.07-.92,.13-1.77,.17-2.42,.03-.45-.06-.89-.22-1.31,.7-.03,1.37-.29,1.9-.77,.59-.53,.94-1.28,.98-2.08l.36-7.26c.05-.93-.34-1.76-.97-2.35,.07-.82,.15-1.64,.22-2.48,1.92-21.66,4.55-51.32,6.66-65.94,.08-.17,.67-.57,1.47-.57,.71,0,.72,.19,.73,.48,.78,13.4,2.58,34.68,4.17,53.45,.44,5.23,.87,10.29,1.26,15-.1,.08-.2,.16-.28,.25-.53,.59-.81,1.37-.77,2.16l.36,7.26c.08,1.56,1.34,2.78,2.88,2.84-.17,.41-.25,.85-.22,1.3,.04,.66,.1,1.51,.17,2.42-.11,.07-.23,.15-.33,.24-.65,.57-1.03,1.4-1.03,2.26,0,1.34,.03,3.04,.06,4.83,.03,1.68,.06,3.4,.07,4.96,0,.08-.02,.16-.02,.24,.01,.74,.02,1.45,.01,2.08v.03c0,.51,.12,.99,.34,1.42,.02,.04,.03,.08,.05,.12,.05,.09,.12,.17,.18,.26,.04,.06,.07,.12,.12,.17,.11,.13,.23,.25,.36,.36h.01c.1,.1,.21,.17,.32,.24,.04,.02,.07,.06,.11,.08,.1,.06,.2,.1,.3,.14,.06,.03,.12,.06,.18,.08,.17,.06,.35,.11,.53,.14,.13,.02,.84,.14,1.98,.31,.38,.06,.81,.12,1.28,.19,.47,.07,.99,.15,1.54,.22,4.99,.71,13.09,1.73,20.63,2.07,1.68,.08,3.32,.12,4.9,.12h0c7.53,0,11.87-.96,14.08-3.1h0s.02-.02,.02-.03c.11-.11,.21-.22,.3-.33h0c.1-.13,.19-.27,.27-.41,.02-.03,.03-.06,.04-.08,.06-.12,.12-.24,.17-.36,.02-.05,.04-.11,.06-.17,.04-.1,.07-.2,.09-.31,.02-.07,.03-.14,.05-.22,.02-.1,.03-.21,.04-.31,0-.07,.02-.14,.02-.22,0-.18,0-.36-.02-.54,0-.03-.01-.06-.01-.09-.02-.12-.03-.24-.06-.36-.01-.05-.03-.11-.05-.16-.01-.05-.03-.09-.04-.14-.04-.12-.09-.25-.14-.37-.03-.08-.05-.16-.09-.25-.08-.18-.19-.34-.3-.49-1.57-2.48-5.63-5.2-10.2-7.54-.47-1.06-1.45-1.87-2.67-2.05-.24-.04-.48-.06-.73-.08-.57-.72-1.42-1.21-2.4-1.3-.15-.01-.3-.03-.45-.03-.49-.57-1.17-.98-1.96-1.14-.42-.08-.86-.12-1.3-.14-.04-.1-.08-.2-.12-.29-.14-.34-.29-.68-.42-1.01-.55-1.38-1.78-1.93-2.97-2.15,0-.19-.02-.38-.02-.56-.01-.45-.14-.88-.34-1.27,1.25-.41,2.14-1.61,2.07-2.99l-.36-7.26c-.04-.79-.39-1.54-.98-2.08-.03-.03-.07-.05-.11-.08-.15-19.03-.67-45.69-1.13-69.56-.08-3.92-.15-7.78-.22-11.57,.6-.29,1.22-.59,1.88-.88,1.22-.54,1.93-1.83,1.75-3.15-.9-6.56-1.98-18.86-3.13-31.89-.42-4.82-.86-9.79-1.31-14.69,1.6,1.16,3.15,2.28,4.7,3.39,.05,.05,.1,.1,.16,.14,.73,.53,1.43,1.02,2.13,1.49,.06,.04,.12,.09,.18,.13,.04,.03,.09,.05,.13,.08,3.23,2.12,6.17,3.47,9.28,3.47,3.58,0,6.75-1.85,9.42-5.49,2.56-3.5,5.61-9.91,8.84-16.7,1.05-2.21,2.12-4.44,3.17-6.59,1.71-.43,3.1-1.4,4.75-2.56,1.36-.96,3.05-2.14,5.56-3.53,.94-.52,1.86-.97,2.66-1.37,2.45-1.21,4.22-2.09,4.45-4.19,.1-.93-.22-1.83-.84-2.54,.2-.31,.38-.66,.52-1.05,.13-.38,.18-.78,.16-1.17,.75-.68,1.26-1.56,1.5-2.67,.24-1.09-.15-2.23-1.01-2.95Z"/></g><g><g><path class="cls-55" d="M261.56,429.03l-2.66-.25c.54-5.74-2.93-9.04-6.35-10.2-3.67-1.25-8.67-.48-11.56,4.09l-2.26-1.43c3.67-5.79,10.02-6.78,14.68-5.18,5.51,1.88,8.71,6.97,8.15,12.98Z"/><path class="cls-59" d="M268.57,489.38c-7.96,11.58-34.29,4.71-36.64,1.79,0,0-.01-36.33,.47-57.07,.06-2.78,.14-5.28,.22-7.37,.05-1.35,.11-2.53,.17-3.51,2.55-.84,5.66-1.4,8.94-1.52,1.41-.05,2.85-.02,4.29,.11,6.75,.6,13.49,3.33,16.99,9.61,.95,15.74,5.56,57.96,5.56,57.96Z"/><path class="cls-16" d="M207.27,494.44c1.58,35.13,6.5,84.58,7.24,100.09l17.77,.29c-.07-11.01-2.91-57.96-1.63-77.08,.36-2.64,7.43-3.2,8.1-.8,5.44,19.48,13.33,64.35,15.83,78.46l17.58-2.86c-2.8-18.97-8.74-68.46-11.87-102.03l-53.01,3.93Z"/><path class="cls-22" d="M264.05,500.55c-14.03,9.36-50.32,10.66-58.19,4.1,0,0,1.97-26.24,3.65-41.06,.48-4.19,.39-28.54,.93-34.91,11.36-2.84,31.79-2.42,44.59-.4,.55,6.96-1.85,27.4,.26,40.43,.78,4.8,3.57,13.59,8.76,31.83Z"/><path class="cls-69" d="M245.85,429.36c0-1.04-.39-1.46-1-2.36-7.63-.65-16.92-.69-24.38,.07-.67,.96-.68,1.43-.67,2.54,.04,4.36,5.91,7.83,13.1,7.76,7.19-.07,12.99-3.66,12.95-8.01Z"/><path class="cls-69" d="M241.72,415.57v13.35c0,2.87-3.93,5.2-8.77,5.2-.19,0-.37,0-.55-.01-4.59-.17-8.22-2.42-8.22-5.18v-13.35h17.55Z"/><path class="cls-13" d="M246.01,421.82c-1.07,1.17-2.54,2.19-4.29,2.99-2.55,1.16-5.69,1.87-9.11,1.92-.13,0-.25,0-.38,0-2.94,0-5.7-.49-8.05-1.34v-9.82h17.55v6.14c1.41-.05,2.85-.02,4.29,.11Z"/><g><path class="cls-19" d="M268.9,381.12c.13-2.41-1.72-4.47-4.13-4.6-2.41-.13-4.47,1.72-4.6,4.13-.08,1.55,.7,2.9,1.89,3.74-.83,.54-1.43,1.41-1.49,2.47-.1,1.77,1.27,3.29,3.04,3.38,1.77,.1,3.29-1.26,3.39-3.04,.05-.88-.27-1.7-.81-2.31,1.51-.62,2.63-2.04,2.72-3.78Z"/><path class="cls-19" d="M215.35,367.87c-.5-.92-1.18-1.62-1.98-2.12,1.67-1.32,2.41-3.16,1.7-4.52-.45-.81-1.36-1.3-2.46-1.39,3.09-6.42-7-6.05-6.62-4-.52-1.14-1.56-2.05-2.87-2.39-2.17-.54-4.27,.76-4.68,2.94-.16,.79-.06,1.6,.27,2.33-1.24-.11-2.5-.02-3.75,.37-5.1,1.58-7.81,7.04-6.11,12.26,.45,1.35,1.18,2.56,2.05,3.56-2.14,1.82-3.14,3.98-2.55,5.88,.51,1.63,2.16,2.74,4.41,3.2-.06,.85,.24,2,1.37,2.34-1.16,1.25-1.17,2.59-.71,3.79,.42,1.11,1.64,1.98,3.07,2.15-.15,.42-.23,.87-.19,1.34,.16,1.72,1.68,3,3.41,2.84,.68-.06,1.25-.38,1.73-.79,.95,.23,1.9,.03,2.7-.45-.06,2.36,1.64,5,3.66,5.3,1.47,.22,3.45-1,3.65-3.51,.16-1.83-1.62-4.82-2.59-5.69,3.15-1.15,4.87-4.43,3.87-7.47-.29-.93-.86-1.73-1.52-2.39,2.2,.35,4.06-.25,4.77-1.73,.76-1.54,.05-3.66-1.63-5.43,1.7-1.51,2.2-4.18,1.01-6.42Z"/><g><path class="cls-22" d="M199.06,359.03c-7.22,12.42-4.31,26.44,1.19,39.54-2.02-22.39,1.17-34.64,9.15-43.18-.19-.85-9.58,2.33-10.34,3.64Z"/><path class="cls-22" d="M208.41,355.63c7.76-.93,13.19-20.3-.06-28.51-8.77,13.03-5.83,22.38,.06,28.51Z"/><path class="cls-62" d="M209.63,351.95c-8.28,.79-1.1-11.43-.4-12.53,4.97,3.84,5.54,12.04,.4,12.53Z"/><path class="cls-22" d="M207.53,354.69c-4.39,10.79-30.47,11.07-28.5-12.64,14.8,5.31,26.39,5.02,28.5,12.64Z"/><path class="cls-62" d="M204.81,353.7c-1.38-3.45-7.49-3.4-15.29-2.29,1.02,3.99,12.2,9.2,15.29,2.29Z"/><path class="cls-22" d="M205.44,349.01c1.96-.82,4.25,.2,5.12,2.27,.87,2.07-.02,4.42-1.97,5.24-1.96,.82-4.25-.2-5.12-2.27-.87-2.07,.02-4.42,1.97-5.24Z"/></g><path class="cls-19" d="M264.3,372.3c1.8,21.1-11.24,31.76-30.65,33.41-19.41,1.64-35.66-6.52-37.46-27.62-1.8-21.1,14.19-28.54,31.21-30.28,17.53-1.79,35.1,3.4,36.89,24.5Z"/><path class="cls-69" d="M193.66,400.77c1.82,7.24,8.82,11.84,14.11,11.18,5.29-.66,6.35-6.59,5.48-13.56-.88-6.97-5.88-12.1-11.17-11.42-7.23,.93-10.13,7-8.42,13.81Z"/><path class="cls-43" d="M200.01,402.38c.38,3.06,2.88,5.26,5.58,4.92,2.7-.34,4.57-3.09,4.19-6.15-.38-3.06-2.88-5.26-5.58-4.92-2.7,.34-4.57,3.09-4.19,6.15Z"/><path class="cls-69" d="M271.72,401.07c-2.02,7.19-9.13,11.6-14.4,10.79-5.27-.81-6.17-6.76-5.11-13.71,1.06-6.95,6.2-11.94,11.47-11.12,7.2,1.13,9.94,7.27,8.04,14.03Z"/><path class="cls-43" d="M264.94,402.51c-.47,3.05-3.02,5.18-5.71,4.77-2.69-.41-4.49-3.21-4.02-6.26,.47-3.05,3.02-5.18,5.71-4.77,2.69,.41,4.49,3.21,4.02,6.26Z"/><path class="cls-69" d="M261.24,368.97c1.74,4.04-.51,38.16-4.63,43.04-4.37,5.17-15.32,11.39-24.11,11.39-8.08,0-21.49-5.66-24.73-11.45-3.84-6.86-5.5-37.73-4.2-41.46,4.41-12.6,15.32-12.88,29.59-12.68,13.35,.18,23.56,.69,28.07,11.16Z"/><path class="cls-61" d="M235.02,403.49c-.16,0-.29-.12-.32-.28-.17-1.14-1.06-1.89-2.27-1.9-1.21-.02-2.14,.72-2.32,1.83-.03,.18-.2,.3-.37,.27-.18-.03-.3-.2-.27-.37,.22-1.43,1.45-2.41,2.97-2.39,1.52,.02,2.68,1.01,2.9,2.46,.03,.18-.1,.35-.27,.37h-.05Z"/><path class="cls-20" d="M255.19,380.49c-.22-.01-.44-.11-.6-.28-2.12-2.15-6.36-2.99-9.87-1.93-.49,.15-1.01-.13-1.16-.62-.15-.49,.13-1.01,.62-1.16,4.18-1.26,9.11-.24,11.72,2.41,.36,.37,.35,.95-.01,1.31-.2,.19-.46,.28-.71,.26Z"/><path class="cls-20" d="M210.24,380.11c-.25,0-.51-.1-.7-.3-.35-.38-.32-.96,.05-1.31,2.73-2.52,7.71-3.3,11.82-1.84,.48,.17,.74,.7,.56,1.18-.17,.48-.7,.74-1.18,.56-3.45-1.22-7.73-.6-9.95,1.45-.17,.16-.39,.24-.61,.25Z"/><g><path class="cls-66" d="M224.65,390.2c2.18,3.28,1.9,6.88-.01,8.23-2.89,2.04-9.72,2.58-12.26-.42-2.46-2.9-1.26-8.15,2.77-10.39,3.52-1.95,7.39-.6,9.5,2.57Z"/><path class="cls-20" d="M211.94,389.19c3.14-5.04,10.67-3.27,12.78,1.12-2.18-3.28-6.22-4.31-9.48-2.5-2.01,1.12-3.45,3.12-3.83,5.36-.31,1.79,.09,3.79,1.11,5-1.18-.79-2.89-5.27-.58-8.98Z"/><path class="cls-20" d="M223.84,392.38c.89,2.27-.17,4.84-2.38,5.74-2.21,.9-4.72-.21-5.61-2.48-.89-2.27,.17-4.84,2.38-5.74,2.21-.9,4.72,.21,5.61,2.48Z"/><path class="cls-68" d="M223.49,391.98c.25,.63-.05,1.34-.66,1.59-.61,.25-1.31-.06-1.56-.69-.25-.63,.05-1.34,.66-1.59,.61-.25,1.31,.06,1.56,.69Z"/></g><g><path class="cls-66" d="M240.11,390.23c-2.15,3.28-1.83,6.88,.1,8.24,2.91,2.05,9.74,2.61,12.25-.38,2.43-2.9,1.17-8.15-2.88-10.4-3.55-1.97-7.4-.63-9.47,2.54Z"/><path class="cls-20" d="M252.81,389.26c-3.2-5.05-10.7-3.3-12.77,1.08,2.15-3.27,6.17-4.29,9.45-2.47,2.03,1.12,3.48,3.13,3.89,5.37,.33,1.79-.05,3.79-1.06,5,1.17-.79,2.83-5.26,.48-8.98Z"/><path class="cls-20" d="M248.95,392.42c.89,2.27-.17,4.84-2.38,5.74-2.21,.9-4.72-.21-5.61-2.48-.89-2.27,.17-4.84,2.38-5.74,2.21-.9,4.72,.21,5.61,2.48Z"/><path class="cls-68" d="M248.6,392.03c.25,.63-.05,1.34-.66,1.59-.61,.25-1.31-.06-1.56-.69-.25-.63,.05-1.34,.66-1.59,.61-.25,1.31,.06,1.56,.69Z"/></g><path class="cls-71" d="M232.28,411.9h.1c3.31,0,6.15-.97,7.61-2.58,.2-.22,.18-.55-.04-.75-.21-.2-.55-.18-.75,.04-1.24,1.37-3.85,2.23-6.82,2.23h-.09c-2.95-.01-5.55-.87-6.8-2.25-.2-.21-.53-.23-.75-.04-.22,.2-.23,.53-.04,.75,1.46,1.61,4.29,2.58,7.58,2.59Z"/><path class="cls-19" d="M191.23,378.4c-1.17-3.65,.46-8.03,2.43-9.16-2.06-2.06-2.07-5.34,0-7.4,1.33-1.33,3.21-1.79,4.94-1.41,.47-5.08,6.21-7.35,10.63-5.91-1.07-.82-1.61-2.14-1.71-3.25-.35-4.08,3.33-7.69,8.16-8.06,3.1-.23,5.94,.91,7.7,2.83,1.42-1.29,3.29-2.19,5.4-2.36,2.48-.2,4.79,.6,6.5,2.07,.69-1.97,1.95-3.7,3.71-4.91,5.09-3.48,13.37-1.75,16.21,3.24,.67,.94,1.18,3.17,1.31,4.59,.59-.39,2.04-1.09,2.78-1.15,2.23-.18,4.2,1.4,4.4,3.55,.08,.86-.1,2.05-.59,2.71,2.91,0,5.52,1.41,7.01,3.56,2.9,4.19,2.31,9.73-1.51,12.23-.47,.3-.95,.54-1.43,.75-.06,.67-.17,1.34-.36,1.99,.43-.25,.96-.38,1.5-.43,2.23-.18,4.22,1.57,4.43,3.92,.21,2.35-1.48,4.29-3.7,4.57-.78,.1-1.65-.21-2.4-.86-.04,.67-.6,1.6-.91,1.94-1.17,1.3-3.87,1.76-6,.26-1.46-1.03-2.31-2.58-2.31-3.99-2.95-.9-5.27-4.01-5.62-7.88l-.03-.33c-.68,.77-1.67,1.33-2.82,1.42-2.06,.17-3.93-1.18-4.31-3.06-.19,.14-.38,.33-.58,.47-3.65,2.54-8.99,1.19-11.86-2.95-.38-.55-.68-1.1-.94-1.66,.05,1.95-.77,3.82-2.42,4.96-2.65,1.83-6.44,.96-8.61-1.88-2.47,2.44-8.64,2.87-11.77-.11,.29,1.23,.47,2.92,.2,3.99-.47,2.9-2.95,4.53-5.73,4.84,1.65,1.46,2.21,4.2-1.04,5.62,5.15,1.5,4.75,5.32,2.54,6.7-1.82,1.14-4.42,.7-5.82-.35-1.47-1.12-.28-3.85-.57-3.83-3.22-.28-5.83-2.2-6.82-5.28Z"/></g><polygon class="cls-69" points="189.31 463.45 205.53 461.63 211.83 449.82 199.96 442.99 189.31 463.45"/><polygon class="cls-69" points="280.87 460.24 262.97 461.48 256.61 449.71 268.45 442.82 280.87 460.24"/><path class="cls-22" d="M210.6,457.77c-5.65-1.99-13.42-9.48-15.19-13.61,4.3-5.63,9.19-10.31,13.64-15.2,3.16-.77,4.6-.95,7.26-1.36-2.37,9.81-2.59,21.67-3.8,24.33-1.43,3.14-.62,3.52-1.92,5.84Z"/><path class="cls-22" d="M256.76,457.34c5.64-2.01,13.37-9.54,15.12-13.69-4.33-5.6-9.23-10.37-13.7-15.23-3.04-.37-4.29-.47-6.96-.79,2.41,9.8,2.37,21.22,3.59,23.87,1.45,3.14,.64,3.52,1.95,5.83Z"/><path class="cls-32" d="M262.16,476.77c-16.95-12.76-16.25-39.09-15.37-48.32,.11-1.11,.19-2.02,.23-2.7l8.14,.26c-.04,.75-.13,1.77-.25,3.01-.79,8.25-2.82,26.34,8.08,37.55l-.82,10.19Z"/><path class="cls-69" d="M245.17,447.67c.64,.56,.55-2.38,4.51-2.73-1.29,.63-2.55,1.38-2.89,1.78-.74,.84-.44,2.94,.35,3.41,1.08,.63,0-1.97,5.07-1.83,1.41,3.58,2.19,9.29,7.62,6.49,4.17-2.15,1.77-7.79-.71-11.99-2.13-3.62-5.3-7.53-6.52-8.2-1.07-.59-7.64,1.87-8.89,3.01-.91,.83-1.24,2.37-.76,3.15,.45,.72,1.88-2.16,5.47-2.12-1.79,.68-4.49,2.27-5.06,2.92-.81,.92-.49,2.98,.2,3.58,.66,.58,.7-2.76,5.3-3.16-1.62,.65-3.59,1.77-4.04,2.29-.74,.84-.34,2.8,.35,3.41Z"/><path class="cls-69" d="M255.35,453.51c9.16,10.87,18.82,15.89,18.82,15.89,8.26,2.64,10.02-9.54,3.97-11.35-5.13-2.32-10.57-5.42-17.67-10.67-1.07-.79-5.98,5.11-5.12,6.13Z"/><path class="cls-13" d="M245.79,463.43c0,1.68-3.43,3.05-7.68,3.06-4.24,.01-7.69-1.34-7.69-3.02,0-1.68,3.43-3.05,7.68-3.06,4.24-.01,7.69,1.34,7.69,3.02Z"/><g><path class="cls-26" d="M243.34,482.53l-37.62,2.47-9.61-43.82,3.93-3.8c.43-.39,.96-.64,1.52-.73l31.68-4.32c.45-.06,.89,.3,1,.82l9.81,48.22c.12,.57-.21,1.1-.71,1.15Z"/><polygon class="cls-46" points="242.16 481.72 237.4 486.83 207.01 488.23 197.49 441.98 201.05 438.66 232.26 434.77 242.16 481.72"/><path class="cls-31" d="M239.36,487.55l-32.94,1.6-10.3-47.97,33.08-3.58c.69-.08,1.35,.48,1.52,1.27l9.78,46.9c.19,.91-.35,1.74-1.14,1.78Z"/></g><g><path class="cls-21" d="M237.26,485.84l-33.02,2.98-7.14-33.1,3.55-3.01c.39-.31,.86-.52,1.35-.6l27.87-4.21c.4-.06,.77,.2,.85,.6l7.19,36.44c.09,.43-.22,.85-.66,.89Z"/><polygon class="cls-46" points="236.24 485.25 231.93 489.28 205.27 491.24 198.28 456.29 201.49 453.66 228.94 449.78 236.24 485.25"/><path class="cls-24" d="M233.62,489.78l-28.9,2.18-7.63-36.24,29.08-3.69c.61-.08,1.17,.32,1.29,.92l7.2,35.43c.14,.69-.35,1.34-1.05,1.39Z"/></g><path class="cls-69" d="M235.88,480.29c.09,.88-4.26,1.17-7.46,.48-.53-.11,3.8,1.08,3.21,1.38-1.64,.85-4.43,1.55-8.46,1.32-7.98-.46-12.65-1.87-12.79-7.33-.13-5.08,13.08-9.81,17.13-7.54-.06,1.55-6.8,3.06-6.29,3.63,.7,.78,3.5,.68,7.06,1.55,4.17,1.02,7.77,2.54,6.25,3.56-.52,.35-10.81-1.42-10.93-1.12-.39,.96,12.11,2.33,12.28,4.07Z"/><path class="cls-69" d="M212.17,480.73c-13.46-4.55-21.67-11.71-21.67-11.71-5.48-6.72,5.22-12.81,9.11-7.85,4.03,3.92,8.91,7.86,16.39,12.55,1.12,.7-2.57,7.43-3.84,7.01Z"/></g><g><polygon class="cls-17" points="351.27 415.16 379.95 414.14 376.49 405.14 353.07 406.55 351.27 415.16"/><path class="cls-12" d="M397.25,486.63c.51,41.56-1.77,104.32-.81,113.22-8.89-.61-9.5,3.77-19.29,3.18-2.32-2.88,1.2-1.64-.95-4.23-1.89-2.28,.07-2.9,.06-5.9-.04-11.4-2.27-41.16-4.29-78.43-.66-3.02-8.29-2.73-8.69,.14-6.15,44-8.86,70.64-8.55,77.57,.15,3.4,1.3,3.47-.44,5.23-2.3,2.33,.76,1.64-.98,4.45-9.24,4.11-9.32-1.35-19.56-1.44,3.28-15.22,2.15-88.87,6.69-121.91l56.8,8.13Z"/><path class="cls-34" d="M348.66,483.96c1.15,11.63-5.07,19.7-10.42,19.88,.18-3.86,1.76-15.62,1.97-19.34,.11-1.92,8.4-1.15,8.46-.54Z"/><path class="cls-40" d="M344.09,487.92c13.17,16.79,47,11.19,48.51,9.14-.59-6.3-6.12-67.21-7.2-82.99-11.59-2.14-27.71-2.62-40.71,2.1-.1,16.64-.6,71.76-.6,71.76Z"/><path class="cls-15" d="M378.56,504.71c10.56-.07,19.07-2.43,20.47-3.91-.69-6.59-5.27-70.48-6.47-87-5.08-.67-7.47-1-13.49-1.16,.07,3.4,1.33,8.98-2.99,13.95,.84,26.94,2.54,74.39,2.48,78.12Z"/><path class="cls-15" d="M358.8,427c-3.47-1.5-10.23-7.5-6.83-13.2-6.62,.63-7.89,1.05-13.95,2.83-.39,17.42-1.85,70.87-1.85,70.87,13.55,.78,12.06,17.21,24.87,17.21,.16-4.35-1.46-69.87-2.24-77.71Z"/><path class="cls-28" d="M376.36,415.66c-.07-1.23-.71-2.33-1.71-3.27-1.43-.17-2.92-.32-4.56-.43-4.35-.28-9.53,.12-14.75,1.35-.99,1.1-1.55,2.34-1.48,3.64,.22,3.77,5.43,6.53,11.64,6.17,6.21-.36,11.07-3.7,10.86-7.47Z"/><path class="cls-33" d="M386.36,428.24c-.09-.09-7.06-2.08-10.28-1.66,3.93-3.24,2.61-10.97,1.82-14.72,.13,.13,4.3,.53,4.5,.73,.74,.96,3.4,6.46,3.96,15.64Z"/><path class="cls-15" d="M385.21,426.8c-3.47-2.03-5.82-3.27-9.13-.54,3.33-2.9,1.65-15.46,.33-20.23,.51,.54,4.94,5.79,5.18,6.03,2.58,1.65,3.6,11.1,3.63,14.74Z"/><path class="cls-33" d="M345.06,429.88c.08-.1,8.13-4.25,13.73-2.88-6.87-3-7.32-9.4-6.83-13.2-.12,.14-3.63,.75-3.81,.96-.66,1.02-2.5,8.84-3.09,15.12Z"/><path class="cls-15" d="M346.13,427.67c4.18-3.97,9.15-3.13,12.67-.68-6.53-4.39-6.67-15.59-5.73-20.45-.46,.58-4.42,6.55-4.64,6.81-.88,2.27-1.71,10.37-2.3,14.32Z"/><path class="cls-27" d="M373.65,401.81l.73,13.7c.16,2.95-3.75,5.55-8.72,5.81-4.97,.26-9.13-1.91-9.29-4.86l-.73-13.7,18.01-.96Z"/><path class="cls-27" d="M408.74,465.33c6.21,1.79,12.46-4.54,16.17-7.73-2.88-2.88-10.74-3.81-24.05-31.1-.79-.29-5.55-.65-7.48-.78,.08,5.19-1.48,16.15-1.24,19.32,3.88,6.25,12.58,19.13,16.61,20.29Z"/><path class="cls-15" d="M417.1,446.75c-3.9-5.58-10.46-17.34-21.28-32.65-1-.37-7.03-.82-9.46-.99,.1,6.56,1.37,19.16,1.67,23.16,1.13,4.92,1.75,17.27,5.79,23.5,6.26-1.79,17.95-6.64,23.28-13.02Z"/><g><g><path class="cls-39" d="M428.49,427.46l-4.15,30.76c-.05,.62-.59,1.07-1.21,1.02l-15.72,.53c-.62-.05-1.8-1.7-1.75-2.31l2.43-31.23c.05-.62,.59-1.07,1.21-1.02l17.34,.21c.62,.05,1.91,1.43,1.85,2.05Z"/><path class="cls-52" d="M428.82,428.03l-3.06,30.21c-.05,.62-.59,1.07-1.21,1.02l-16.56,1.01c-.62-.05-1.07-.59-1.02-1.21l2.43-31.23c.05-.62,.59-1.07,1.21-1.02h17.2c.62,.05,1.07,.6,1.02,1.21Z"/><g><path class="cls-35" d="M421.2,429.74l-.71,7.35c-.01,.15-.14,.26-.29,.25l-2.85,.12c-.15-.01-.26-.14-.25-.29l.58-7.51c.01-.15,.14-.26,.29-.25l2.98,.04c.15,.01,.26,.14,.25,.29Z"/><path class="cls-7" d="M419.15,432.56c-.61-.1-1.03-.68-.93-1.29,.1-.61,.68-1.03,1.29-.93,.61,.1,1.03,.68,.93,1.29-.1,.61-.68,1.03-1.29,.93Z"/><path class="cls-7" d="M418.76,436.23c-.61-.1-1.03-.68-.93-1.29,.1-.61,.68-1.03,1.29-.93,.61,.1,1.03,.68,.93,1.29-.1,.61-.68,1.03-1.29,.93Z"/><path class="cls-8" d="M419.12,431.57c-.3-.05-.5-.33-.45-.63,.05-.3,.33-.5,.63-.45,.3,.05,.5,.33,.45,.63-.05,.3-.33,.5-.63,.45Z"/><path class="cls-5" d="M419.56,432.38c-.18-.03-.31-.2-.28-.39,.03-.18,.2-.31,.39-.28,.18,.03,.31,.2,.28,.39-.03,.18-.2,.31-.39,.28Z"/></g></g><path class="cls-44" d="M425.09,458.18c-2.33-.35-4.04-1.58-3.82-2.74,.16-.84,.33-1.36,1.81-1.48-1.52-.72-2.62-2.02-2.63-3.19,0-.7,.56-1.26,1.76-1.36-1.33-.81-2.51-2.13-1.96-3.1,.64-1.13,3.12-.99,4.6-.82-2.7-1.36-3.75-4.65-2.55-5.52,.97-.71,3.12-.35,5.23,.74l-1.78,17.55c-.22-.02-.44-.03-.66-.07Z"/><g><path class="cls-27" d="M429.51,441.63c-2.32-1.74-5.1-2.46-6.2-1.61-1.11,.85-.12,2.95,2.2,4.68,2.32,1.74,5.1,2.46,6.2,1.61,1.11-.85,.12-2.95-2.2-4.68Z"/><path class="cls-27" d="M427.46,445.81c-2.83-.99-5.62-.86-6.24,.29-.62,1.15,1.18,2.89,4.01,3.88,2.83,.99,5.62,.86,6.24-.29,.62-1.15-1.18-2.89-4.01-3.88Z"/><path class="cls-27" d="M427.21,449.76c-2.61-.76-5.11-.46-5.58,.67-.47,1.13,1.26,2.66,3.87,3.43,2.61,.76,5.11,.46,5.58-.67,.47-1.13-1.26-2.66-3.87-3.43Z"/><path class="cls-27" d="M426.66,453.71c-2.15-.35-4.05,.29-4.25,1.43-.2,1.14,1.38,2.35,3.53,2.69,2.15,.35,4.05-.29,4.25-1.43,.2-1.14-1.38-2.35-3.53-2.69Z"/></g></g><path class="cls-44" d="M353.7,400.53c-1.19,4.62,3.24,9.75,9.9,11.47,6.66,1.72,13.02-.63,14.22-5.25,1.19-4.62-3.24-9.75-9.9-11.47-6.66-1.72-13.02,.63-14.22,5.25Z"/><g><path class="cls-37" d="M391.99,370.78c-3.58-.39-6.72,3.84-7.02,9.43-.3,5.59,.66,10.28,4.24,10.66,3.58,.38,8.08-3.49,9-9.32,.87-5.48-1.33-10.24-6.22-10.77Z"/><path class="cls-23" d="M393.44,350.78c3.37,14.29,1.86,31.29-6.64,38.09-6.73,5.38-38.78,8.94-42.65,6.22-14.26-10.04-17.07-31.43-15.94-39.95,1.1-8.28,12.2-17.38,34.41-18.28,19.72-.8,28.4,3.67,30.82,13.92Z"/><path class="cls-27" d="M390.2,351.76c2.01,3.33,2.39,11.98,2.33,21.46-.07,10.55,.2,20.31-1.62,23.42-3.65,6.23-9.72,11.42-17.73,12.64-7.95,1.21-24.03-3.73-27.38-9.44-9.97-17-11.29-34.8-11.29-38.8,0-10.4,15.07-12.53,29.18-14.15,16.05-1.84,22.44-1.89,26.52,4.87Z"/><path class="cls-45" d="M366.3,393.95c-.17,0-.33,.07-.44,.19-.19,.22-.15,.53,.1,.69,2.7,1.84,9.23,2.1,11.96-.17,.23-.19,.24-.5,.02-.7-.21-.2-.57-.2-.79-.02-2.27,1.89-8.2,1.67-10.51,.1-.1-.07-.23-.1-.35-.1Z"/><path class="cls-10" d="M374.72,387.79c-.16,0-.3-.1-.34-.26-.26-1.14-1.2-1.83-2.39-1.76-1.2,.07-2.07,.89-2.16,2.03-.01,.18-.17,.32-.35,.3-.18-.02-.31-.18-.3-.36,.11-1.46,1.25-2.55,2.77-2.64,1.51-.09,2.74,.82,3.07,2.27,.04,.18-.07,.36-.24,.4h-.05Z"/><path class="cls-23" d="M332.32,367.95c1.04,5.79,4.52,16.16,11.85,19.52,.28-8.98-1.25-13.48-2.94-20.87-3.37-14.72,1.46-15.95,9.77-18.35-14.73-5.62-20.62,8.97-18.68,19.7Z"/><path class="cls-63" d="M347.45,366.87c2.57-3,7.73-4.51,12.25-3.59,.53,.11,.86,.62,.74,1.14-.12,.53-.65,.86-1.18,.75-3.79-.77-8.23,.49-10.32,2.93-.16,.19-.39,.31-.62,.34-.27,.04-.55-.03-.77-.21-.41-.34-.46-.95-.11-1.36Z"/><path class="cls-63" d="M389.05,363.18c-2.97-1.95-7.98-2.38-11.78-.75-.47,.2-.64,.81-.41,1.29,.23,.48,.75,.63,1.22,.44,3.27-1.3,7.43-.99,9.9,.58,.2,.13,.41,.2,.63,.18,.25-.03,.49-.16,.64-.39,.3-.43,.23-1.06-.21-1.35Z"/><path class="cls-27" d="M328.67,389.1c2.53,6.59,9.75,11,15.44,8.8,4.5-1.74-1.79-22.4-8.64-22.11-7.28,.31-9.17,7.12-6.8,13.31Z"/><path class="cls-25" d="M335.39,390.33c.93,2.76,4.43,4.51,6.55,3.25,.83-.49-2.64-10.08-4.06-9.78-2.39,.51-3.42,3.77-2.49,6.53Z"/><path class="cls-23" d="M396.25,359.01c2.03,.68,3.57-.32,5.03-2.57-12.15-1.03-3-13.65-19.4-20.07-16.16-6.33-42.7,.53-43.84,6.54-6.28,3.98-5.65,12.58-4.78,22.4,.9,10.22,3.37,13.02-2.69,15.29,3.16,2.18,12.98,.89,12.38-5.15-.56-5.6-2.92-13.62-2.36-15.84,.32-1.28,3.63-8.86,5.3-9.09,3.64-.51,9.03,13.3,21.94,11.68-5.52-2.59-8.8-6.75-12.29-12.8,1.08,.57,2.18,1.28,3.28,2.18,11.63,9.41,25.32,8.94,33.02,8.09,.92,14.43,3.06,16.91,8.61,14.85-2.91-1.5-2.92-4.69-4.2-15.5Z"/><g><path class="cls-2" d="M386.39,371.87c3.52,1.36,4.87,6.03,3.02,8.53-1.09,1.47-2.97,1.95-4.95,2.12-2.91,.24-5.61-1.17-6.1-2.69-.24-.75-.5-2.27,.62-4.8,1.28-2.87,4.31-4.35,7.4-3.16Z"/><path class="cls-4" d="M388.97,372.63c2.4,2.24,1.74,6.58,.38,7.84,.87-1.51,.88-3.4,.38-4.82-.52-1.49-1.89-3.27-4.42-3.82-2.58-.56-5.36,.75-6.62,3.76,1.6-4.56,6.89-6.12,10.26-2.97Z"/><path class="cls-4" d="M384.41,373.22c1.76,.72,2.72,2.92,2.13,4.96-.6,2.04-2.48,3.08-4.24,2.38-1.76-.7-2.7-2.93-2.13-4.96,.58-2.04,2.47-3.1,4.24-2.38Z"/><path class="cls-3" d="M381.71,374.55c.49,.21,.75,.83,.6,1.39-.15,.55-.67,.86-1.16,.65-.49-.21-.77-.83-.6-1.39,.17-.56,.7-.85,1.16-.65Z"/></g><g><path class="cls-2" d="M362.36,376.57c1.77,2.26,1.77,3.81,1.65,4.59-.25,1.59-3.02,3.51-6.36,3.85-2.27,.23-4.5,.13-6.01-1.1-2.59-2.09-1.98-6.93,1.73-8.97,3.26-1.79,6.97-.93,8.99,1.64Z"/><path class="cls-4" d="M362.79,377.08c-2.01-2.71-5.41-3.45-8.22-2.39-2.75,1.04-3.94,3.06-4.24,4.62-.28,1.49,.1,3.35,1.39,4.65-1.79-.97-3.38-5.1-1.11-7.77,3.19-3.76,9.47-3.28,12.18,.88Z"/><path class="cls-4" d="M357.79,375.85c2.01,.69,3.08,2.89,2.37,4.94-.71,2.05-2.89,3.12-4.9,2.44-2.01-.68-3.06-2.9-2.37-4.94,.7-2.06,2.88-3.14,4.9-2.44Z"/><path class="cls-3" d="M354.6,377.23c.56,.21,.87,.82,.67,1.38-.16,.56-.79,.87-1.35,.67-.56-.2-.87-.82-.67-1.38,.2-.56,.82-.86,1.35-.67Z"/></g></g><path class="cls-27" d="M331.61,464.53c4.55,14.33,11.1,25.01,14.52,30.19-.69,4.12-4.43,6.86-7.9,8.1-5.36-5.82-19.76-30.11-22.8-38.97,1.11-21.62,22.9-14.27,16.18,.68Z"/><path class="cls-15" d="M337.06,463.39c-8.24-.28-19.25-5.32-23.37-8.68,3.22-5.91,5.44-13.57,20.04-37.6,1.05-.49,6.02-1.23,8.67-1.68,.66,6.78,3.37,18.06,3.51,22.22-2.59,9.09-7.58,22.37-8.85,25.74Z"/></g><g><polygon class="cls-64" points="659.86 420.11 631.57 419.07 633.83 409.93 636.2 409.97 656.77 410.32 656.9 410.71 659.86 420.11"/><path class="cls-70" d="M673.87,486.46c4.79,43.55,7.31,105.85,9.72,113.95-9.13-.6-9.93,3.81-19.99,3.24-2.38-2.83,.96-1.91-1.25-4.46-1.95-2.24-.17-2.86,.07-5.8,.29-3.52-5.53-39.52-10.72-77.11-.68-2.97-8.59-2.69-8.93,.13-5.63,46.95-9.1,69.45-8.79,76.26,.15,3.34,1.33,3.41-.45,5.14-2.36,2.29,.78,1.61-1,4.37-9.49,4.04-9.58-1.33-20.09-1.42,3.37-14.96,2.58-81.34,7.24-113.82l54.19-.48Z"/><path class="cls-34" d="M664.84,487.23c0,10.32,5.23,19.47,11.03,19.66-.2-3.93-.86-15.56-1.09-19.35-.12-1.95-9.94-.93-9.94-.31Z"/><path class="cls-56" d="M654.14,502.41c-10.5,6.62-31.35,3-34.13-.09,.27-6.33,2.78-67.38,3.05-83.23,13.6-3.74,30.14-4.28,44.62-.25,.61,9.5,2.35,37.32,3.65,57.92,.09,1.4,1.69,2.69,.26,4.08-1.21,1.18,.97,1.11,.34,5.36-2.85-.09-10.2,11.43-17.79,16.21Z"/><path class="cls-51" d="M656.36,419.78c-.02-1.21-.61-2.32-1.55-3.28-1.4-.22-2.86-.43-4.46-.6-4.26-.44-9.37-.25-14.54,.75-1.01,1.04-1.62,2.24-1.59,3.52,.07,3.71,5.08,6.63,11.2,6.52,6.12-.11,11.02-3.21,10.95-6.92Z"/><path class="cls-33" d="M665.41,431.43c-.08-.1-7.41-3.37-10.59-3.09,3.98-3.03,3.83-8.52,3.2-12.23,.12,.13,3.6,.59,3.79,.79,.69,.97,3.42,5.48,3.61,14.52Z"/><path class="cls-33" d="M625.06,432.54c.08-.1,7.72-4.02,10.9-3.74-3.89-3.49-4.13-8.08-3.5-11.79-.12,.13-3.6,.6-3.78,.8-.69,.97-2.79,8.59-3.62,14.73Z"/><path class="cls-43" d="M636.33,406.15v13.49c0,2.9,3.97,5.25,8.86,5.25s8.86-2.35,8.86-5.25v-13.49h-17.73Z"/><path class="cls-44" d="M656.9,410.71c-1.52,3.26-5.51,5.59-10.21,5.59-5.03,0-9.27-2.68-10.49-6.33l20.58,.34,.13,.4Z"/><path class="cls-9" d="M676.5,479c2.2-3.06-.6-4.01-.71-5.46-1.57-21.37-2.87-45.05-3.61-54.91-5.99-1.15-7.75-1.23-12.86-1.86,.71,1.23,.23,7.5-4.5,11.57v81.91c10.32-.18,11.52-23.2,22.21-23.79,.76-4.41-2.96-4.07-.53-7.45Z"/><path class="cls-9" d="M635.96,428.8c-4.39-4.75-4.18-10.57-3.5-11.79-6.61,.46-8.13,.78-14.09,2.2-.32,16.45-3.34,81.76-3.67,88.34,1.98,1.89,11.57,3.97,21.69,3.93-.05-.39-.43-82.68-.43-82.68Z"/><path class="cls-9" d="M664.02,429.1c-3.42-2.78-5.84-3.31-9.2-.75,3.39-2.72,3.08-13.28,1.96-18.02,.48,.55,4.63,5.88,4.85,6.13,2.47,1.72,2.5,9.07,2.39,12.65Z"/><path class="cls-9" d="M626.19,430.41c4.26-3.73,6.41-4.17,9.77-1.62-3.39-2.72-3.25-14.13-2.14-18.87-.48,.55-4.6,6.26-4.82,6.51-.96,2.19-2.08,10.12-2.82,13.98Z"/><path class="cls-9" d="M595.81,452.14c1.78-4.72,3.26-7.06,17.13-31.7,.96-.42,9.11-2.22,11.5-2.52,.24,6.45-1.5,32.91-1.58,36.86-6.42,3.02-18.77,2.16-27.05-2.64Z"/><path class="cls-69" d="M682.09,468c-4.47,14.09-10.91,24.58-14.27,29.68,.68,4.05,4.36,6.74,7.76,7.96,5.27-5.72,19.43-29.61,22.42-38.31-1.09-21.25-22.51-14.03-15.91,.67Z"/><path class="cls-9" d="M677.67,467.67c8.1-.28,17.99-6.02,22.05-9.32-3.17-5.81-7.94-14.97-22.29-38.6-1.03-.48-5.92-1.21-8.53-1.65-.64,6.66-.72,19.38-.86,23.48,2.54,8.94,8.39,22.78,9.63,26.1Z"/><g><path class="cls-43" d="M667.69,456.03c0,.69-3.38,4.58-5.3,6.1-.82,.64-1.48,.16-2.05-2.1-4.08-2.49-5.87-6.36-5.2-8.77,.67-2.42,2.48-4.53,5.87-3.59,.62,.17,6.68,7.23,6.67,8.36Z"/><path class="cls-43" d="M652.95,450.06c-4.45,2.2-8.98,5.26-9.37,6.64-.67,2.42,4.3,3.87,9.61,4.46,.91,.1,2.71-.17,4.8-.42,.16-.35,.32-.7,.42-1.08,1.14-4.11-1.3-8.38-5.47-9.61Z"/><path class="cls-69" d="M660.99,462.82c-.7,.36-2.28,.92-2.42-.1-1.74,.93-2.69,.44-3.09-.87-2.45,2.62-5.42-2.15-5.01-3.01,1.81-3.8,4.02-2.24,3.51-.89-.27,.72-.69,.77-.55,.99,.22,.01,1.27-1.18,1.1-1.75-.25-.85-.71-1.42-1.56-2.65-3.23,.39-2.98,6.1-6.09,7.28-5.82,2.21-7.41-3.92-5.56-7.75,.75-1.54,15.86-6.92,17.9-7.26,3.08-.51,7.06,7.27,7.17,8.9,.12,1.78-1.01,2.54-5.4,7.11Z"/><g><path class="cls-43" d="M662.67,455.83c-.32-.82-.9-2.36-1.59-3.78-.05-.09-.16-.14-.25-.09-.09,.05-.13,.16-.09,.25,.68,1.41,1.27,2.93,1.58,3.75,.11,.28,.18,.48,.23,.58,.19,.37-1.94,4.13-4.79,6.5,.15,0,.62-.21,.77-.29,2.29-2.05,4.68-5.65,4.37-6.36-.04-.1-.12-.3-.22-.57Z"/><path class="cls-43" d="M658.85,456.37c-.32-.83-.9-2.37-1.6-3.81-.05-.09-.16-.14-.26-.09-.09,.05-.13,.16-.09,.25,.69,1.42,1.28,2.95,1.59,3.77,.1,.27,.18,.46,.22,.56,.22,.5-3.82,5.16-3.81,5.22,.16-.09,.23-.09,.4-.2,1.63-1.88,4.07-4.57,3.76-5.17-.05-.09-.11-.28-.21-.54Z"/></g></g><g><path class="cls-69" d="M616.15,375.53c4.44-.76,8.76,3.93,9.64,10.44,.88,6.51,.11,12.08-4.33,12.83-4.44,.74-10.43-3.4-12.11-10.14-1.58-6.34,.73-12.09,6.8-13.13Z"/><path class="cls-43" d="M618.45,384.17c2.26-.38,4.41,1.63,4.8,4.48,.39,2.85-1.14,5.48-3.4,5.86-2.26,.38-4.41-1.63-4.8-4.48-.39-2.85,1.14-5.48,3.4-5.86Z"/><path class="cls-69" d="M674.46,375.69c-4.44-.78-8.78,3.88-9.69,10.39-.91,6.51-.16,12.08,4.27,12.85,4.44,.77,10.44-3.34,12.16-10.08,1.61-6.33-.68-12.09-6.74-13.16Z"/><path class="cls-43" d="M672.12,384.31c-2.26-.39-4.42,1.6-4.82,4.46-.4,2.85,1.11,5.48,3.37,5.87,2.26,.39,4.42-1.6,4.82-4.46,.4-2.85-1.11-5.48-3.37-5.87Z"/><path d="M678.49,362.24c2.18,23.55-14.17,39.03-33.3,38.71-19.13-.31-34.62-17.7-32.33-40.56,1.27-12.69,14.32-22.45,32.59-22.03,19.13,.44,31.49,7.13,33.04,23.88Z"/><path class="cls-69" d="M672.8,357.62c1.67,4.03-1.73,39.66-5.72,44.52-4.23,5.15-13.67,9.76-22.15,9.74-7.8-.02-19.78-4.93-22.89-10.72-3.69-6.85-6.17-38.44-4.9-42.16,4.29-12.56,14.82-12.81,28.59-12.59,12.88,.21,22.74,.75,27.07,11.21Z"/><path class="cls-30" d="M644.96,400.09h.09c3.05,0,5.68-.88,7.02-2.35,.18-.2,.16-.5-.04-.68-.2-.18-.51-.16-.69,.03-1.14,1.25-3.55,2.03-6.29,2.03h-.08c-2.73-.01-5.13-.79-6.27-2.05-.19-.19-.49-.21-.69-.03-.2,.18-.21,.48-.03,.68,1.35,1.47,3.96,2.35,6.99,2.37Z"/><path class="cls-18" d="M647.76,391.13c-.15,0-.28-.12-.31-.28-.16-1.14-1.02-1.89-2.18-1.91-1.17-.02-2.07,.71-2.24,1.83-.03,.18-.19,.3-.36,.27-.17-.03-.29-.2-.26-.37,.22-1.42,1.4-2.4,2.87-2.38,1.46,.02,2.59,1.01,2.8,2.46,.03,.18-.09,.34-.27,.37h-.05Z"/><path class="cls-47" d="M624.94,367.85c2.93-2.32,7.91-2.65,11.82-.8,.46,.22,.66,.78,.44,1.26-.22,.48-.77,.69-1.22,.47-3.28-1.56-7.54-1.31-9.93,.57-.19,.15-.41,.21-.63,.19-.25-.02-.49-.14-.66-.37-.31-.41-.23-1.01,.18-1.33Z"/><path class="cls-47" d="M665.43,367.95c-2.92-2.33-7.89-2.69-11.81-.85-.46,.22-.66,.78-.45,1.25,.22,.48,.76,.69,1.22,.47,3.28-1.54,7.55-1.27,9.93,.62,.19,.15,.41,.21,.63,.2,.25-.02,.49-.14,.66-.36,.31-.41,.23-1.01-.17-1.33Z"/><path d="M612.19,365.98c-.53-.54-.88-1.24-.89-2.03-.01-1.01,.49-1.91,1.27-2.49-1.57-.91-2.63-2.59-2.66-4.52-.03-2.2,1.3-4.11,3.21-4.96-.65-.71-1.04-1.57-1.06-2.51-.03-2.54,2.74-4.65,6.19-4.71,.27,0,.53,0,.79,.03-.13-.32-.2-.67-.21-1.04-.01-1.15,.64-2.17,1.62-2.72,.16-1.18,.81-2.24,1.88-2.87,1.89-1.11,4.37-.44,5.64,1.49,1.03-.77,2.29-1.24,3.68-1.26,.99-.02,1.92,.2,2.75,.59-1.17-1.33-1.65-2.68-1.12-3.61,.9-1.59,4.38-1.37,7.77,.49,1.15,.63,2.14,1.37,2.91,2.14-.04-1.45,.63-2.84,1.91-3.59,1.94-1.14,4.51-.4,5.75,1.65,.44,.73,.65,1.54,.65,2.32,.9-.53,1.95-.84,3.08-.86,2.43-.04,4.54,1.29,5.6,3.27,.47-1.16,1.65-1.99,3.04-2.01,1.82-.03,3.32,1.34,3.34,3.06,.01,.86-.35,1.65-.95,2.22,.39,.36,.69,.81,.85,1.31,2.04-.54,3.91-.11,4.41,1.11,.28,.68,.07,1.47-.48,2.22,2.67,.53,4.65,2.43,4.68,4.74,0,.24-.02,.47-.06,.7,1.72-.24,3.38,.38,4.2,1.74,1.16,1.92,.22,4.58-2.1,5.95-.06,.03-.12,.06-.17,.09,.02,.05,.04,.1,.06,.16,.52,1.58,.19,3.24-.75,4.49,.57,.62,.93,1.53,.94,2.54,.02,1.91-1.2,3.48-2.74,3.5-.29,0-.57-.05-.84-.15-.29,1.15-.8,1.91-1.46,2.01-.07-4.55-.73-10.62-4.24-15.75-1.23,.45-2.83,.21-4.25-.89-1.5-1.16-2.33-2.87-2.36-4.42-.67,.44-1.81,.51-3,.06-1.25-.47-2.19-1.35-2.45-2.21-1.22,.29-2.72,.36-4.35,.13-2.25-.33-4.17-1.15-5.32-2.15-.82,1.03-2.51,1.75-4.5,1.75-1.53,0-2.89-.43-3.81-1.1-.53,.6-1.26,.97-2.07,.97-.9,0-1.67-.48-2.22-1.2-.96,1.75-3.1,3.37-5.82,4.14-.88,.25-1.73,.37-2.54,.42l.02,.1c0,2.35-2.02,4.26-4.52,4.26-.57,0-1.11-.12-1.62-.31-2.07,3.13-2.75,6.39-3.03,9.02,.23,.88,.25,1.9-.07,2.9-.04,.11-.11,.19-.15,.3-.05,1.29-.11,2.1-.52,2.03-.25-.04-.44-.2-.67-.31-.82,.73-1.83,1.06-2.77,.66-1.58-.67-2.3-2.95-1.61-5.09,.24-.74,.64-1.31,1.09-1.79Z"/><g><path class="cls-66" d="M637.47,379.05c2.11,3.15,1.84,6.6-.01,7.89-2.8,1.95-9.42,2.47-11.88-.41-2.38-2.78-1.22-7.82,2.68-9.96,3.42-1.87,7.16-.58,9.21,2.47Z"/><path class="cls-18" d="M625.15,378.08c3.04-4.83,10.34-3.13,12.39,1.08-2.11-3.15-6.03-4.13-9.18-2.4-1.95,1.07-3.34,2.99-3.72,5.14-.3,1.71,.09,3.64,1.08,4.79-1.14-.76-2.8-5.05-.56-8.61Z"/><path class="cls-65" d="M636.69,381.13c.86,2.18-.17,4.64-2.31,5.5-2.14,.86-4.57-.2-5.44-2.38-.86-2.18,.17-4.64,2.31-5.5,2.14-.86,4.57,.2,5.44,2.38Z"/><path class="cls-68" d="M636.35,380.76c.24,.6-.05,1.29-.64,1.53-.59,.24-1.27-.06-1.51-.66-.24-.6,.05-1.29,.64-1.53,.59-.24,1.27,.06,1.51,.66Z"/></g><g><path class="cls-66" d="M652.46,379.07c-2.08,3.14-1.77,6.59,.1,7.89,2.82,1.96,9.44,2.5,11.87-.36,2.35-2.78,1.13-7.81-2.79-9.97-3.44-1.88-7.17-.6-9.18,2.44Z"/><path class="cls-18" d="M664.77,378.15c-3.1-4.84-10.37-3.17-12.38,1.03,2.08-3.14,5.98-4.11,9.16-2.37,1.96,1.08,3.37,3,3.77,5.15,.32,1.71-.05,3.64-1.02,4.79,1.13-.75,2.75-5.04,.47-8.61Z"/><path class="cls-65" d="M661.03,381.17c.86,2.18-.17,4.64-2.31,5.5-2.14,.86-4.57-.2-5.44-2.38-.87-2.18,.17-4.64,2.31-5.5,2.14-.86,4.57,.2,5.44,2.38Z"/><path class="cls-68" d="M660.69,380.8c.24,.6-.05,1.29-.64,1.53-.59,.24-1.27-.06-1.51-.66s.05-1.29,.64-1.53c.59-.24,1.27,.06,1.51,.66Z"/></g></g><path class="cls-69" d="M643.57,462.32c-10.65,1.58-26.89,6.29-34.17,6.53-8.97,.3-12-5.87-9.21-14.58,9.06,.85,34.52-.57,41.88-.85,1.4-.05,2.93,8.69,1.5,8.9Z"/><g><path class="cls-41" d="M642.15,463.48s-3.98,1.36-4.28,.56c-1.09-2.94-1.66-8.6-1.13-11.68,.18-1.06,4.38-1.64,4.28-.56-.35,3.72,.52,10.27,1.13,11.68Z"/><rect class="cls-22" x="634.69" y="451.74" width="7.73" height="1.6" transform="translate(-37.25 57.79) rotate(-5.03)"/><path class="cls-22" d="M642.48,452.99c.05,.57-1.63,1.18-3.76,1.36-2.13,.19-3.89-.12-3.94-.68-.05-.57,1.63-1.18,3.76-1.36,2.13-.19,3.89,.12,3.94,.68Z"/><path class="cls-53" d="M642.34,451.4c.05,.57-1.63,1.18-3.76,1.36-2.13,.19-3.89-.12-3.94-.68-.05-.57,1.63-1.18,3.76-1.36,2.13-.19,3.89,.12,3.94,.68Z"/><path class="cls-42" d="M641.89,451.33c.04,.44-1.46,.94-3.34,1.1-1.88,.17-3.44-.06-3.48-.5-.04-.44,1.46-.94,3.34-1.1,1.88-.17,3.44,.06,3.48,.5Z"/></g></g><g><path class="cls-36" d="M558.4,400.78c-1.19-.91-4.75-4.04-3.17-11.1,.58-2.61-1.08-3.67-2.55-4.61-2-1.28-3.73-2.38-1.46-6.92,2.84-5.68,1.8-10.85-2.73-13.51-3.51-2.06-7.12-5.92-10.03-10.61-1.06-2.65-3.78-2.9-4.34-4.77-19.91-5.53-52.31-.67-62.83,2.97l-.34-3.39c-.91,5.24-6.29,10.4-9.13,13.74-3.45,4.04-5.08,8.44-3.25,13.31,.73,1.93,1.28,3.65,.65,5.05-.53,1.18-1.92,2.14-4.26,2.91-2.31,.77-3.76,1.85-4.41,3.32-.92,2.06-.06,4.37,.71,6.4,.54,1.43,.35,3.54-.06,4.6-1.51,3.92-2.9,5.3-2.36,8.16-.04-3,1.62-4.47,2.98-7.74,.51-1.22,.82-3.24-.18-5.89-.71-1.88-1.2-3.44-.41-5.19,.56-1.26,1.86-2.21,3.97-2.91,2.57-.86,4.07-1.91,4.7-3.32,.24-.53,.3-1.1,.3-1.68,1.07,2.89,.94,5.2-3.96,7.18-9.02,3.65-.71,10.5-2.14,13.2-2.46,4.63-3.14,5.52-2.95,9.26,.22,4.28,3.97,8.98,6.78,9.99,.07-.67-3.64-6.75-.92-13.08,.37,3.59,3.95,13.68,4.75,14.23,11.84,8.23,59.31,7.22,75.56,.3,3.11-1.32,1.09-6.65,2.01-8.58,.67-1.4,1.19,7.97,2.44,7.12,15.73-10.56,13.31-16.84,11.64-17.13-2.32-.4-3.82-.29-.77-11.41,1.48-5.39-8.22-3.12-3.97-11.62,2.55-5.1,1.73-9.61-2.58-12.98-1.51-1.18-2.86-2.94-4.08-4.91,1.99,1.79,4.03,3.32,5.97,4.46,4.2,2.46,5.29,6.82,2.62,12.15-2.6,5.19-.2,6.72,1.73,7.95,1.49,.95,2.68,1.71,2.21,3.76-1.82,7.87,3.18,11,3.88,11.29Zm-99.48-26.25c-1.1-3.98,.12-7.53,3.14-11.06,1.69-1.99,1.69-1.33,3.73-3.36-2.92,6.85-6.54,9.09-6.87,14.42Z"/><path class="cls-48" d="M531.49,422.59c-1.33-2.8-2.18-6.48-.73-12.42,1.2-4.9-3.35-18.62-3.35-18.62h-51.22c9.35,5.97-1.84,18.63,0,23.07,3.23,7.81,.78,10.33,.76,10.36,16.53,2.35,40.53,1.26,54.53-2.38Z"/><path class="cls-27" d="M541.99,455.89c-7.03-5-13.48-9.65-24.58-18.44,.86-7.16-1.37-14.48,7.69-16.33,3.72,2.16,19.72,17.93,29.27,26.34-1.47,4.49-11.14,9.31-12.37,8.43Z"/><path class="cls-1" d="M530.66,492.07l-55.2-1.15c-.41,29.72-1.71,73.89-2.24,103.07h18.57c2.05-22.76,5.15-59.57,7.64-76.78,.54-3.72,7.88-4.65,8.16,.18,1.11,19.05,4.25,53.7,6.02,75.67l18.67-.82c-.06-24.55-1.02-67.52-1.62-100.16Z"/><path class="cls-38" d="M490.78,448.93c-3.04-19.46-5.78-31.27-12.85-29.94-5.08,4.69-10.46,9.98-18.89,18.84,4.73,11.23,24.87,14.13,31.74,11.1Z"/><path class="cls-11" d="M527.39,496.43c-1.72-15.56-5.01-25.76-5.52-37.23,1.02-9.85,2.82-11.79,2.51-17.14-.24-4.15-1.23-9.17-3.53-23.09-3.11-.98-10.04-1.25-17.71-1.03-7.67-.22-14.87,.31-17.98,1.29-2.3,13.93-3.02,18.69-3.26,22.84-.31,5.35,2.36,7.29,3.38,17.14-.51,11.47-4.03,22.54-6.26,37.23,12.98,8.07,35.22,7.27,48.37,0Z"/><path class="cls-38" d="M517.41,506.44c8.06-.87,11.01-3.55,17.13-6.28-2.23-16.3-5.49-66.54-8.47-81.13-2.68-.68-3.84-.73-9.71-.83,.01,.23,1.05,88.24,1.05,88.24Z"/><path class="cls-38" d="M491.35,507.13s-1.42-89.16-1.41-89.36c-5.75,.18-7.51,.86-10.11,1.52-1.6,15.19-5.06,65.48-7.96,80.87,5.89,2.96,11.67,6.19,19.47,6.97Z"/><path class="cls-27" d="M515.57,418.08c-7.59-.43-15.75-.44-23.71,.13-.28,.75-.48,1.52-.47,2.34,.08,4.78,5.66,8.55,12.45,8.43,6.79-.12,12.23-4.09,12.15-8.86-.01-.71-.18-1.38-.42-2.03Z"/><path class="cls-27" d="M512.21,406.25v14.53c.02,3.14-4,5.7-9.02,5.73-5.02,.03-9.15-2.49-9.17-5.62v-14.64h18.19Z"/><path class="cls-38" d="M545.19,436.25c-3.08-3.15-5.17-5.21-12.62-12.88-2.33-2.4-5.02-4.06-6.5-4.35-1.82,5.81-.19,28.22-.06,31.98,9.03,.49,19.15-11.29,19.18-14.75Z"/><path class="cls-54" d="M491.33,406.7c-.81,4.68,4,9.43,10.76,10.61,6.76,1.18,12.89-1.67,13.71-6.35,.81-4.68-4-9.43-10.76-10.61-6.76-1.18-12.89,1.67-13.71,6.35Z"/><g><path class="cls-27" d="M462.6,389.5c1.9,7.55,9.19,12.35,14.71,11.65,5.52-.69,6.62-6.87,5.71-14.14-.91-7.27-6.13-12.62-11.64-11.91-7.54,.97-10.56,7.3-8.78,14.4Z"/><path class="cls-25" d="M469.21,391.19c.4,3.19,3.01,5.49,5.82,5.13,2.81-.35,4.77-3.22,4.36-6.41-.4-3.19-3-5.49-5.81-5.13-2.81,.35-4.77,3.22-4.37,6.41Z"/><path class="cls-27" d="M543.98,389.82c-2.1,7.5-9.52,12.09-15.02,11.25-5.5-.84-6.44-7.05-5.33-14.29,1.11-7.24,6.47-12.45,11.96-11.59,7.51,1.18,10.36,7.58,8.38,14.63Z"/><path class="cls-25" d="M536.92,391.32c-.49,3.18-3.15,5.4-5.95,4.97-2.8-.43-4.68-3.35-4.19-6.53,.49-3.18,3.15-5.4,5.95-4.97,2.8,.43,4.68,3.35,4.19,6.53Z"/><path class="cls-36" d="M539.77,363.47c2.46,26.73-16.13,44.18-37.32,43.89-21.19-.29-39.7-21.37-37.2-47.34,1.39-14.42,17.34-26.76,37.58-26.16,26.67,.8,35.2,10.59,36.95,29.6Z"/><path class="cls-27" d="M533.06,356.34c1.81,4.21-.53,39.79-4.82,44.88-4.55,5.39-15.97,11.88-25.14,11.88-8.42,0-22.4-5.9-25.79-11.94-4-7.15-5.74-39.34-4.38-43.23,4.6-13.14,15.98-13.43,30.85-13.22,13.92,.19,24.57,.72,29.27,11.64Z"/><g><path class="cls-61" d="M516.23,394.05c1.03,5.25-4.01,12.28-13.87,12.03-7.27-.18-12.7-6.4-11.97-11.68,.48-3.44,5.3-2.45,12.46-2.52,7.16-.07,12.75-1.02,13.38,2.17Z"/><path class="cls-58" d="M503.21,401.29c-3.46,.13-6.18,1.14-7.87,2.53,1.93,1.55,5.1,2.4,7.51,2.38,3.16-.02,6.83-.87,8.39-2.35-.82-1.52-5.02-2.68-8.03-2.56Z"/><path class="cls-6" d="M513.16,391.94c-2.48-.74-6.33-.22-9.9-.18-4.03,.04-6.98-.45-9.49,.12,.96,2.18,4.83,2.71,9.46,2.72,5.35,.01,9.22-.3,9.93-2.65Z"/></g><path class="cls-10" d="M505.72,388.78c-.16,0-.31-.12-.33-.29-.18-1.19-1.11-1.97-2.36-1.99-1.26-.02-2.23,.75-2.41,1.91-.03,.19-.21,.31-.39,.28-.19-.03-.31-.2-.28-.39,.23-1.49,1.51-2.51,3.1-2.49,1.58,.02,2.8,1.05,3.03,2.57,.03,.19-.1,.36-.29,.39h-.06Z"/><path class="cls-49" d="M526.75,368.36c-.23-.01-.45-.11-.63-.29-2.21-2.25-6.63-3.12-10.29-2.02-.51,.16-1.05-.13-1.2-.65-.15-.51,.14-1.05,.65-1.2,4.36-1.31,9.5-.25,12.22,2.51,.37,.38,.37,.99-.01,1.37-.2,.2-.47,.29-.74,.28Z"/><path class="cls-49" d="M479.89,367.97c-.27,0-.53-.1-.73-.31-.36-.39-.34-1,.05-1.37,2.85-2.63,8.04-3.44,12.33-1.92,.5,.18,.77,.73,.59,1.23-.18,.51-.73,.77-1.23,.59-3.6-1.28-8.06-.63-10.37,1.52-.18,.17-.41,.25-.64,.26Z"/><path class="cls-36" d="M469.37,380.09c6.83,.73,6.44-10.97,7.89-15.53,1.22-3.84,9.02-7.64,14.73-7.15,10.32,.89,9.32-7.88,18.32-8.47-4.93,2.67-5.64,5.5-7.57,7.65-2.14,2.37-10.15,4.06-14.08,4.2,4.94,.98,13.77,1.09,18.47-4.78,5.13-6.41,15.06-2.96,15.48-10.3-3.87-12.34-18.64-13.09-29.08-10.33-32.34,8.55-24.99,38.73-24.15,44.71Z"/><path class="cls-36" d="M534.9,351.11c3.61,6.94,4.17,13.8,1.25,15.32-2.92,1.52-8.22-2.87-11.84-9.81-3.61-6.94-4.17-13.8-1.25-15.32,2.92-1.52,8.22,2.87,11.84,9.81Z"/><path class="cls-67" d="M525.88,380.82c.04-.36-1.69,.24-3.18-.37-.12-.16-.26-.29-.39-.45,.99-.23,1.5-2.02,1.26-2.22-.18-.15-1.11,.99-2.51,.98-1.09-.83-2.38-1.38-3.8-1.57-3.02-.4-5.93,.79-7.59,3.12-.34,.48-.23,1.15,.25,1.49,.12,.09,.26,.15,.41,.18,.4,.08,.84-.07,1.09-.43,1.2-1.68,3.33-2.53,5.56-2.24,2.24,.27,3.94,1.65,4.7,3.72,.21,.56,.82,.84,1.38,.63,.56-.21,.84-.82,.63-1.38,1.12-.08,2.16-1.17,2.2-1.47Z"/><path class="cls-67" d="M496.33,380.65c-1.64-2.49-4.45-3.81-7.41-3.52-1.42,.13-2.72,.63-3.83,1.36-1.01-.47-1.55-1.42-1.73-1.33-.26,.13-.19,1.73,.57,2.31-.17,.17-.37,.31-.52,.49-1.53,.15-2.96-.73-3-.39-.04,.32,.86,1.72,2.03,1.94-.06,.12-.16,.23-.21,.36-.23,.55,.03,1.17,.58,1.4,.14,.06,.29,.08,.44,.08,.41-.01,.8-.26,.96-.66,.79-1.9,2.67-3.22,4.91-3.43,2.24-.24,4.21,.72,5.41,2.56,.33,.49,.99,.63,1.49,.31,.49-.33,.63-.99,.31-1.49Z"/></g><path class="cls-27" d="M572.34,424.22c-5.24,9.19-11.45,24.61-15.68,30.39-5.21,7.12-10.87,4.13-16.95-.32,5.34-6.45,20.59-28.43,24.84-34.31,.81-1.12,8.5,3.01,7.79,4.23Z"/><g><path class="cls-29" d="M573.65,420.8c-1.92-.13-3.37-.76-3.89-1.94-.48-1.08-.09-2.43,.89-3.81,2.02-1.11,4.01-2.26,5.96-3,2.75-1.04,8.65-.06,10.31,1.32-.65,2.98-5.46,1.33-7.59,2.1-1.48,.53-2.68,1.05-4.09,2.37-.83,.63-1.44,1.93-1.59,2.96Z"/><path class="cls-29" d="M572.9,423.48c-1.79-.12-3.14-.71-3.63-1.81-.45-1.01-.08-2.26,.83-3.55,1.88-1.04,3.54-1.61,5.33-2.4,3.3-1.46,8.22-.36,9.93,1.14-.8,2.27-5.17,.94-7.16,1.65-1.38,.5-2.5,.98-3.81,2.21-.77,.59-1.34,1.8-1.48,2.76Z"/><path class="cls-27" d="M586.26,406.5c-1.39-1.18-8.38,1.37-11.59,3.23-5.33,3.1-9.35,9.49-13.26,14.6-.61,.8,4.87,5.53,6.41,5.84,4.03,.8,4.71-1.69,12.13-5.8,3.45-1.91,6.32-2.84,5.41-3.58-1.59-1.27-4.77-1.44-8.76,.47-1.99,.95-2.19-4.28-.93-5.95,1-1.65,1.88-2.05,3.16-2.97,1.85-1.32,7.62-2.81,7.44-5.85Z"/></g><g><path class="cls-54" d="M491.5,395.02c1.12-.31,1.67,.14,1.91,.43,.62,.75,.36,1.98,.03,2.62-.43,.85-4.19,3.87-4.98,4.75,2.59-2.1,8.85-4.7,9.27-4.38,3.88,2.84-3.06,6.51-4.08,8.17,2.35-1.34,4.95-3.01,6.17-3.24,1-.15,1.41,1.13,.84,2.29-1.11,2.24-3.6,3.5-5.04,4.59,2.97-.95,4.9-1.37,5.85-.75,2.03,2.2-10.18,14.97-14.4,16.08-2.86-4.29-6.46-17.09-6.77-18.9,1.63-4.52,4.29-8.52,11.18-11.66Z"/><path class="cls-27" d="M492.85,397.77c-.9,1.79-4.89,3.43-6.5,7.04-.29,.66-.35,1.4-.3,1.31,4.27-5.12,8.99-6.09,11.36-7.26,1.38-.68,1.93,2.16,.2,3.3-2.21,1.46-6.28,3.01-9.01,7.33,2.92-2.44,8.78-5.75,10.95-6.11,1.68-.28,1.48,2.15-.79,3.53-1.66,1.02-5.84,2.73-8.52,6.36,1.9-1.41,8.62-4.31,11.23-3.77,.51,.8-.15,2.4-2.52,3.48-1.28,.58-5.19,2.02-7.58,4.14-2.13,3.04-.99,5.79-3.1,7.45-3.13,2.47-7.31,.83-8.44-.28-2.07-2.03-1.89-9.62-.87-13.35,1.49-5.41,4.21-11.4,12.7-15.28,1.71-.48,1.62,1.24,1.18,2.11Z"/></g><path class="cls-27" d="M481.25,414.36c-6.62,9.7-20.15,25.47-23.86,32.5-4.57,8.65,3.4,17.5,11.79,10.31,5.78-10.06,15.87-30.32,19.66-37.4,.72-1.35-6.7-6.7-7.58-5.4Z"/><path class="cls-14" d="M513.57,460.87c.21,2.03-3.84-.74-10.01-.79-5.04-.04-10.46,3.06-10.12,.47,.17-1.31,5.03-4.36,10.02-4.36,5.84,0,9.89,2.6,10.1,4.68Z"/><g><path class="cls-50" d="M517.52,341.4s-4.91,2.7-2.47,4.69c2.44,2,5.89,1.82,7.71-.4,1.82-2.22,1.32-5.64-1.12-7.64-2.44-2-4.12,3.35-4.12,3.35Z"/><path class="cls-50" d="M530.61,352.13s-1.68,5.35-4.12,3.35c-2.44-2-2.94-5.42-1.12-7.64,1.82-2.22,5.27-2.4,7.71-.4,2.44,2-2.47,4.69-2.47,4.69Z"/><path class="cls-50" d="M525.64,348.15c-.86,1.06-2.32,1.29-3.25,.53-.93-.76-.98-2.23-.11-3.29,.86-1.06,2.32-1.29,3.25-.53,.93,.76,.98,2.23,.11,3.29Z"/></g></g></g></g></g></g></svg>